G04 #@! TF.GenerationSoftware,KiCad,Pcbnew,7.0.2-6a45011f42~172~ubuntu22.04.1*
G04 #@! TF.CreationDate,2023-04-28T22:36:37-05:00*
G04 #@! TF.ProjectId,laser,6c617365-722e-46b6-9963-61645f706362,rev?*
G04 #@! TF.SameCoordinates,PXc1c960PY791ddc0*
G04 #@! TF.FileFunction,Other,User*
%FSLAX46Y46*%
G04 Gerber Fmt 4.6, Leading zero omitted, Abs format (unit mm)*
G04 Created by KiCad (PCBNEW 7.0.2-6a45011f42~172~ubuntu22.04.1) date 2023-04-28 22:36:37*
%MOMM*%
%LPD*%
G01*
G04 APERTURE LIST*
%ADD10C,0.050000*%
G04 APERTURE END LIST*
D10*
X17890000Y10450000D02*
X17890000Y12410000D01*
X17890000Y12410000D02*
X14490000Y12410000D01*
X14490000Y10450000D02*
X17890000Y10450000D01*
X14490000Y12410000D02*
X14490000Y10450000D01*
X48916690Y12270000D02*
X45076690Y12270000D01*
X48916690Y15670000D02*
X48916690Y12270000D01*
X45076690Y12270000D02*
X45076690Y15670000D01*
X45076690Y15670000D02*
X48916690Y15670000D01*
X8030000Y16830000D02*
X8030000Y18730000D01*
X8030000Y18730000D02*
X4670000Y18730000D01*
X4670000Y16830000D02*
X8030000Y16830000D01*
X4670000Y18730000D02*
X4670000Y16830000D01*
X58130000Y28370000D02*
X56170000Y28370000D01*
X56170000Y28370000D02*
X56170000Y24970000D01*
X58130000Y24970000D02*
X58130000Y28370000D01*
X56170000Y24970000D02*
X58130000Y24970000D01*
X27190000Y13680000D02*
X27190000Y11720000D01*
X27190000Y11720000D02*
X30590000Y11720000D01*
X30590000Y13680000D02*
X27190000Y13680000D01*
X30590000Y11720000D02*
X30590000Y13680000D01*
X17832500Y2860000D02*
X17832500Y4760000D01*
X17832500Y4760000D02*
X14472500Y4760000D01*
X14472500Y2860000D02*
X17832500Y2860000D01*
X14472500Y4760000D02*
X14472500Y2860000D01*
X21910000Y19552500D02*
X23810000Y19552500D01*
X23810000Y19552500D02*
X23810000Y22912500D01*
X21910000Y22912500D02*
X21910000Y19552500D01*
X23810000Y22912500D02*
X21910000Y22912500D01*
X1590000Y12290000D02*
X3490000Y12290000D01*
X3490000Y12290000D02*
X3490000Y15650000D01*
X1590000Y15650000D02*
X1590000Y12290000D01*
X3490000Y15650000D02*
X1590000Y15650000D01*
X13220000Y20030000D02*
X13220000Y18070000D01*
X13220000Y18070000D02*
X16620000Y18070000D01*
X16620000Y20030000D02*
X13220000Y20030000D01*
X16620000Y18070000D02*
X16620000Y20030000D01*
X20940000Y30910000D02*
X24780000Y30910000D01*
X20940000Y27510000D02*
X20940000Y30910000D01*
X24780000Y30910000D02*
X24780000Y27510000D01*
X24780000Y27510000D02*
X20940000Y27510000D01*
X17370000Y28890000D02*
X17370000Y26990000D01*
X17370000Y26990000D02*
X20730000Y26990000D01*
X20730000Y28890000D02*
X17370000Y28890000D01*
X20730000Y26990000D02*
X20730000Y28890000D01*
X13220000Y14950000D02*
X13220000Y12990000D01*
X13220000Y12990000D02*
X16620000Y12990000D01*
X16620000Y14950000D02*
X13220000Y14950000D01*
X16620000Y12990000D02*
X16620000Y14950000D01*
X31007500Y28890000D02*
X31007500Y26990000D01*
X31007500Y26990000D02*
X34367500Y26990000D01*
X34367500Y28890000D02*
X31007500Y28890000D01*
X34367500Y26990000D02*
X34367500Y28890000D01*
X25920000Y8600000D02*
X25920000Y6640000D01*
X25920000Y6640000D02*
X29320000Y6640000D01*
X29320000Y8600000D02*
X25920000Y8600000D01*
X29320000Y6640000D02*
X29320000Y8600000D01*
X44130000Y18190000D02*
X42230000Y18190000D01*
X42230000Y18190000D02*
X42230000Y14830000D01*
X44130000Y14830000D02*
X44130000Y18190000D01*
X42230000Y14830000D02*
X44130000Y14830000D01*
X43506690Y885000D02*
X45406690Y885000D01*
X45406690Y885000D02*
X45406690Y4245000D01*
X43506690Y4245000D02*
X43506690Y885000D01*
X45406690Y4245000D02*
X43506690Y4245000D01*
X9870000Y7100000D02*
X7910000Y7100000D01*
X7910000Y7100000D02*
X7910000Y3700000D01*
X9870000Y3700000D02*
X9870000Y7100000D01*
X7910000Y3700000D02*
X9870000Y3700000D01*
X27530000Y17460000D02*
X27530000Y15560000D01*
X27530000Y15560000D02*
X30890000Y15560000D01*
X30890000Y17460000D02*
X27530000Y17460000D01*
X30890000Y15560000D02*
X30890000Y17460000D01*
X56170000Y19570000D02*
X58130000Y19570000D01*
X58130000Y19570000D02*
X58130000Y22970000D01*
X56170000Y22970000D02*
X56170000Y19570000D01*
X58130000Y22970000D02*
X56170000Y22970000D01*
X13220000Y17490000D02*
X13220000Y15530000D01*
X13220000Y15530000D02*
X16620000Y15530000D01*
X16620000Y17490000D02*
X13220000Y17490000D01*
X16620000Y15530000D02*
X16620000Y17490000D01*
X1560000Y8780000D02*
X3520000Y8780000D01*
X3520000Y8780000D02*
X3520000Y12180000D01*
X1560000Y12180000D02*
X1560000Y8780000D01*
X3520000Y12180000D02*
X1560000Y12180000D01*
X17890000Y5370000D02*
X17890000Y7330000D01*
X17890000Y7330000D02*
X14490000Y7330000D01*
X14490000Y5370000D02*
X17890000Y5370000D01*
X14490000Y7330000D02*
X14490000Y5370000D01*
X43506690Y4670000D02*
X45406690Y4670000D01*
X45406690Y4670000D02*
X45406690Y8030000D01*
X43506690Y8030000D02*
X43506690Y4670000D01*
X45406690Y8030000D02*
X43506690Y8030000D01*
X7037500Y22545000D02*
X7037500Y24445000D01*
X7037500Y24445000D02*
X3677500Y24445000D01*
X3677500Y22545000D02*
X7037500Y22545000D01*
X3677500Y24445000D02*
X3677500Y22545000D01*
X17832500Y7940000D02*
X17832500Y9840000D01*
X17832500Y9840000D02*
X14472500Y9840000D01*
X14472500Y7940000D02*
X17832500Y7940000D01*
X14472500Y9840000D02*
X14472500Y7940000D01*
X47316690Y4670000D02*
X49216690Y4670000D01*
X49216690Y4670000D02*
X49216690Y8030000D01*
X47316690Y8030000D02*
X47316690Y4670000D01*
X49216690Y8030000D02*
X47316690Y8030000D01*
X14472500Y25080000D02*
X14472500Y23180000D01*
X14472500Y23180000D02*
X17832500Y23180000D01*
X17832500Y25080000D02*
X14472500Y25080000D01*
X17832500Y23180000D02*
X17832500Y25080000D01*
X8050000Y14768000D02*
X8050000Y16728000D01*
X8050000Y16728000D02*
X4650000Y16728000D01*
X4650000Y14768000D02*
X8050000Y14768000D01*
X4650000Y16728000D02*
X4650000Y14768000D01*
X47316690Y885000D02*
X49216690Y885000D01*
X49216690Y885000D02*
X49216690Y4245000D01*
X47316690Y4245000D02*
X47316690Y885000D01*
X49216690Y4245000D02*
X47316690Y4245000D01*
X30890000Y18100000D02*
X30890000Y20000000D01*
X30890000Y20000000D02*
X27530000Y20000000D01*
X27530000Y18100000D02*
X30890000Y18100000D01*
X27530000Y20000000D02*
X27530000Y18100000D01*
M02*
