G04 #@! TF.GenerationSoftware,KiCad,Pcbnew,7.0.2-6a45011f42~172~ubuntu22.04.1*
G04 #@! TF.CreationDate,2023-04-28T22:36:37-05:00*
G04 #@! TF.ProjectId,laser,6c617365-722e-46b6-9963-61645f706362,rev?*
G04 #@! TF.SameCoordinates,PXc1c960PY791ddc0*
G04 #@! TF.FileFunction,Legend,Bot*
G04 #@! TF.FilePolarity,Positive*
%FSLAX46Y46*%
G04 Gerber Fmt 4.6, Leading zero omitted, Abs format (unit mm)*
G04 Created by KiCad (PCBNEW 7.0.2-6a45011f42~172~ubuntu22.04.1) date 2023-04-28 22:36:37*
%MOMM*%
%LPD*%
G01*
G04 APERTURE LIST*
%ADD10C,0.150000*%
%ADD11C,0.120000*%
G04 APERTURE END LIST*
D10*
X21756666Y11062620D02*
X21804285Y11015000D01*
X21804285Y11015000D02*
X21947142Y10967381D01*
X21947142Y10967381D02*
X22042380Y10967381D01*
X22042380Y10967381D02*
X22185237Y11015000D01*
X22185237Y11015000D02*
X22280475Y11110239D01*
X22280475Y11110239D02*
X22328094Y11205477D01*
X22328094Y11205477D02*
X22375713Y11395953D01*
X22375713Y11395953D02*
X22375713Y11538810D01*
X22375713Y11538810D02*
X22328094Y11729286D01*
X22328094Y11729286D02*
X22280475Y11824524D01*
X22280475Y11824524D02*
X22185237Y11919762D01*
X22185237Y11919762D02*
X22042380Y11967381D01*
X22042380Y11967381D02*
X21947142Y11967381D01*
X21947142Y11967381D02*
X21804285Y11919762D01*
X21804285Y11919762D02*
X21756666Y11872143D01*
X21280475Y10967381D02*
X21089999Y10967381D01*
X21089999Y10967381D02*
X20994761Y11015000D01*
X20994761Y11015000D02*
X20947142Y11062620D01*
X20947142Y11062620D02*
X20851904Y11205477D01*
X20851904Y11205477D02*
X20804285Y11395953D01*
X20804285Y11395953D02*
X20804285Y11776905D01*
X20804285Y11776905D02*
X20851904Y11872143D01*
X20851904Y11872143D02*
X20899523Y11919762D01*
X20899523Y11919762D02*
X20994761Y11967381D01*
X20994761Y11967381D02*
X21185237Y11967381D01*
X21185237Y11967381D02*
X21280475Y11919762D01*
X21280475Y11919762D02*
X21328094Y11872143D01*
X21328094Y11872143D02*
X21375713Y11776905D01*
X21375713Y11776905D02*
X21375713Y11538810D01*
X21375713Y11538810D02*
X21328094Y11443572D01*
X21328094Y11443572D02*
X21280475Y11395953D01*
X21280475Y11395953D02*
X21185237Y11348334D01*
X21185237Y11348334D02*
X20994761Y11348334D01*
X20994761Y11348334D02*
X20899523Y11395953D01*
X20899523Y11395953D02*
X20851904Y11443572D01*
X20851904Y11443572D02*
X20804285Y11538810D01*
X47085238Y10872143D02*
X47180476Y10919762D01*
X47180476Y10919762D02*
X47275714Y11015000D01*
X47275714Y11015000D02*
X47418571Y11157858D01*
X47418571Y11157858D02*
X47513809Y11205477D01*
X47513809Y11205477D02*
X47609047Y11205477D01*
X47561428Y10967381D02*
X47656666Y11015000D01*
X47656666Y11015000D02*
X47751904Y11110239D01*
X47751904Y11110239D02*
X47799523Y11300715D01*
X47799523Y11300715D02*
X47799523Y11634048D01*
X47799523Y11634048D02*
X47751904Y11824524D01*
X47751904Y11824524D02*
X47656666Y11919762D01*
X47656666Y11919762D02*
X47561428Y11967381D01*
X47561428Y11967381D02*
X47370952Y11967381D01*
X47370952Y11967381D02*
X47275714Y11919762D01*
X47275714Y11919762D02*
X47180476Y11824524D01*
X47180476Y11824524D02*
X47132857Y11634048D01*
X47132857Y11634048D02*
X47132857Y11300715D01*
X47132857Y11300715D02*
X47180476Y11110239D01*
X47180476Y11110239D02*
X47275714Y11015000D01*
X47275714Y11015000D02*
X47370952Y10967381D01*
X47370952Y10967381D02*
X47561428Y10967381D01*
X46751904Y11872143D02*
X46704285Y11919762D01*
X46704285Y11919762D02*
X46609047Y11967381D01*
X46609047Y11967381D02*
X46370952Y11967381D01*
X46370952Y11967381D02*
X46275714Y11919762D01*
X46275714Y11919762D02*
X46228095Y11872143D01*
X46228095Y11872143D02*
X46180476Y11776905D01*
X46180476Y11776905D02*
X46180476Y11681667D01*
X46180476Y11681667D02*
X46228095Y11538810D01*
X46228095Y11538810D02*
X46799523Y10967381D01*
X46799523Y10967381D02*
X46180476Y10967381D01*
X9352619Y17946667D02*
X8876428Y18280000D01*
X9352619Y18518095D02*
X8352619Y18518095D01*
X8352619Y18518095D02*
X8352619Y18137143D01*
X8352619Y18137143D02*
X8400238Y18041905D01*
X8400238Y18041905D02*
X8447857Y17994286D01*
X8447857Y17994286D02*
X8543095Y17946667D01*
X8543095Y17946667D02*
X8685952Y17946667D01*
X8685952Y17946667D02*
X8781190Y17994286D01*
X8781190Y17994286D02*
X8828809Y18041905D01*
X8828809Y18041905D02*
X8876428Y18137143D01*
X8876428Y18137143D02*
X8876428Y18518095D01*
X8447857Y17565714D02*
X8400238Y17518095D01*
X8400238Y17518095D02*
X8352619Y17422857D01*
X8352619Y17422857D02*
X8352619Y17184762D01*
X8352619Y17184762D02*
X8400238Y17089524D01*
X8400238Y17089524D02*
X8447857Y17041905D01*
X8447857Y17041905D02*
X8543095Y16994286D01*
X8543095Y16994286D02*
X8638333Y16994286D01*
X8638333Y16994286D02*
X8781190Y17041905D01*
X8781190Y17041905D02*
X9352619Y17613333D01*
X9352619Y17613333D02*
X9352619Y16994286D01*
X55837380Y26836667D02*
X55885000Y26884286D01*
X55885000Y26884286D02*
X55932619Y27027143D01*
X55932619Y27027143D02*
X55932619Y27122381D01*
X55932619Y27122381D02*
X55885000Y27265238D01*
X55885000Y27265238D02*
X55789761Y27360476D01*
X55789761Y27360476D02*
X55694523Y27408095D01*
X55694523Y27408095D02*
X55504047Y27455714D01*
X55504047Y27455714D02*
X55361190Y27455714D01*
X55361190Y27455714D02*
X55170714Y27408095D01*
X55170714Y27408095D02*
X55075476Y27360476D01*
X55075476Y27360476D02*
X54980238Y27265238D01*
X54980238Y27265238D02*
X54932619Y27122381D01*
X54932619Y27122381D02*
X54932619Y27027143D01*
X54932619Y27027143D02*
X54980238Y26884286D01*
X54980238Y26884286D02*
X55027857Y26836667D01*
X55932619Y25884286D02*
X55932619Y26455714D01*
X55932619Y26170000D02*
X54932619Y26170000D01*
X54932619Y26170000D02*
X55075476Y26265238D01*
X55075476Y26265238D02*
X55170714Y26360476D01*
X55170714Y26360476D02*
X55218333Y26455714D01*
X29532857Y10652620D02*
X29580476Y10605000D01*
X29580476Y10605000D02*
X29723333Y10557381D01*
X29723333Y10557381D02*
X29818571Y10557381D01*
X29818571Y10557381D02*
X29961428Y10605000D01*
X29961428Y10605000D02*
X30056666Y10700239D01*
X30056666Y10700239D02*
X30104285Y10795477D01*
X30104285Y10795477D02*
X30151904Y10985953D01*
X30151904Y10985953D02*
X30151904Y11128810D01*
X30151904Y11128810D02*
X30104285Y11319286D01*
X30104285Y11319286D02*
X30056666Y11414524D01*
X30056666Y11414524D02*
X29961428Y11509762D01*
X29961428Y11509762D02*
X29818571Y11557381D01*
X29818571Y11557381D02*
X29723333Y11557381D01*
X29723333Y11557381D02*
X29580476Y11509762D01*
X29580476Y11509762D02*
X29532857Y11462143D01*
X28580476Y10557381D02*
X29151904Y10557381D01*
X28866190Y10557381D02*
X28866190Y11557381D01*
X28866190Y11557381D02*
X28961428Y11414524D01*
X28961428Y11414524D02*
X29056666Y11319286D01*
X29056666Y11319286D02*
X29151904Y11271667D01*
X28199523Y11462143D02*
X28151904Y11509762D01*
X28151904Y11509762D02*
X28056666Y11557381D01*
X28056666Y11557381D02*
X27818571Y11557381D01*
X27818571Y11557381D02*
X27723333Y11509762D01*
X27723333Y11509762D02*
X27675714Y11462143D01*
X27675714Y11462143D02*
X27628095Y11366905D01*
X27628095Y11366905D02*
X27628095Y11271667D01*
X27628095Y11271667D02*
X27675714Y11128810D01*
X27675714Y11128810D02*
X28247142Y10557381D01*
X28247142Y10557381D02*
X27628095Y10557381D01*
X16795357Y1442381D02*
X17128690Y1918572D01*
X17366785Y1442381D02*
X17366785Y2442381D01*
X17366785Y2442381D02*
X16985833Y2442381D01*
X16985833Y2442381D02*
X16890595Y2394762D01*
X16890595Y2394762D02*
X16842976Y2347143D01*
X16842976Y2347143D02*
X16795357Y2251905D01*
X16795357Y2251905D02*
X16795357Y2109048D01*
X16795357Y2109048D02*
X16842976Y2013810D01*
X16842976Y2013810D02*
X16890595Y1966191D01*
X16890595Y1966191D02*
X16985833Y1918572D01*
X16985833Y1918572D02*
X17366785Y1918572D01*
X15842976Y1442381D02*
X16414404Y1442381D01*
X16128690Y1442381D02*
X16128690Y2442381D01*
X16128690Y2442381D02*
X16223928Y2299524D01*
X16223928Y2299524D02*
X16319166Y2204286D01*
X16319166Y2204286D02*
X16414404Y2156667D01*
X14890595Y1442381D02*
X15462023Y1442381D01*
X15176309Y1442381D02*
X15176309Y2442381D01*
X15176309Y2442381D02*
X15271547Y2299524D01*
X15271547Y2299524D02*
X15366785Y2204286D01*
X15366785Y2204286D02*
X15462023Y2156667D01*
X24972619Y21399167D02*
X24496428Y21732500D01*
X24972619Y21970595D02*
X23972619Y21970595D01*
X23972619Y21970595D02*
X23972619Y21589643D01*
X23972619Y21589643D02*
X24020238Y21494405D01*
X24020238Y21494405D02*
X24067857Y21446786D01*
X24067857Y21446786D02*
X24163095Y21399167D01*
X24163095Y21399167D02*
X24305952Y21399167D01*
X24305952Y21399167D02*
X24401190Y21446786D01*
X24401190Y21446786D02*
X24448809Y21494405D01*
X24448809Y21494405D02*
X24496428Y21589643D01*
X24496428Y21589643D02*
X24496428Y21970595D01*
X24305952Y20542024D02*
X24972619Y20542024D01*
X23925000Y20780119D02*
X24639285Y21018214D01*
X24639285Y21018214D02*
X24639285Y20399167D01*
X2706666Y16047381D02*
X3039999Y16523572D01*
X3278094Y16047381D02*
X3278094Y17047381D01*
X3278094Y17047381D02*
X2897142Y17047381D01*
X2897142Y17047381D02*
X2801904Y16999762D01*
X2801904Y16999762D02*
X2754285Y16952143D01*
X2754285Y16952143D02*
X2706666Y16856905D01*
X2706666Y16856905D02*
X2706666Y16714048D01*
X2706666Y16714048D02*
X2754285Y16618810D01*
X2754285Y16618810D02*
X2801904Y16571191D01*
X2801904Y16571191D02*
X2897142Y16523572D01*
X2897142Y16523572D02*
X3278094Y16523572D01*
X2373332Y17047381D02*
X1754285Y17047381D01*
X1754285Y17047381D02*
X2087618Y16666429D01*
X2087618Y16666429D02*
X1944761Y16666429D01*
X1944761Y16666429D02*
X1849523Y16618810D01*
X1849523Y16618810D02*
X1801904Y16571191D01*
X1801904Y16571191D02*
X1754285Y16475953D01*
X1754285Y16475953D02*
X1754285Y16237858D01*
X1754285Y16237858D02*
X1801904Y16142620D01*
X1801904Y16142620D02*
X1849523Y16095000D01*
X1849523Y16095000D02*
X1944761Y16047381D01*
X1944761Y16047381D02*
X2230475Y16047381D01*
X2230475Y16047381D02*
X2325713Y16095000D01*
X2325713Y16095000D02*
X2373332Y16142620D01*
X14771666Y20587620D02*
X14819285Y20540000D01*
X14819285Y20540000D02*
X14962142Y20492381D01*
X14962142Y20492381D02*
X15057380Y20492381D01*
X15057380Y20492381D02*
X15200237Y20540000D01*
X15200237Y20540000D02*
X15295475Y20635239D01*
X15295475Y20635239D02*
X15343094Y20730477D01*
X15343094Y20730477D02*
X15390713Y20920953D01*
X15390713Y20920953D02*
X15390713Y21063810D01*
X15390713Y21063810D02*
X15343094Y21254286D01*
X15343094Y21254286D02*
X15295475Y21349524D01*
X15295475Y21349524D02*
X15200237Y21444762D01*
X15200237Y21444762D02*
X15057380Y21492381D01*
X15057380Y21492381D02*
X14962142Y21492381D01*
X14962142Y21492381D02*
X14819285Y21444762D01*
X14819285Y21444762D02*
X14771666Y21397143D01*
X14438332Y21492381D02*
X13771666Y21492381D01*
X13771666Y21492381D02*
X14200237Y20492381D01*
X22955238Y26252143D02*
X23050476Y26299762D01*
X23050476Y26299762D02*
X23145714Y26395000D01*
X23145714Y26395000D02*
X23288571Y26537858D01*
X23288571Y26537858D02*
X23383809Y26585477D01*
X23383809Y26585477D02*
X23479047Y26585477D01*
X23431428Y26347381D02*
X23526666Y26395000D01*
X23526666Y26395000D02*
X23621904Y26490239D01*
X23621904Y26490239D02*
X23669523Y26680715D01*
X23669523Y26680715D02*
X23669523Y27014048D01*
X23669523Y27014048D02*
X23621904Y27204524D01*
X23621904Y27204524D02*
X23526666Y27299762D01*
X23526666Y27299762D02*
X23431428Y27347381D01*
X23431428Y27347381D02*
X23240952Y27347381D01*
X23240952Y27347381D02*
X23145714Y27299762D01*
X23145714Y27299762D02*
X23050476Y27204524D01*
X23050476Y27204524D02*
X23002857Y27014048D01*
X23002857Y27014048D02*
X23002857Y26680715D01*
X23002857Y26680715D02*
X23050476Y26490239D01*
X23050476Y26490239D02*
X23145714Y26395000D01*
X23145714Y26395000D02*
X23240952Y26347381D01*
X23240952Y26347381D02*
X23431428Y26347381D01*
X22050476Y26347381D02*
X22621904Y26347381D01*
X22336190Y26347381D02*
X22336190Y27347381D01*
X22336190Y27347381D02*
X22431428Y27204524D01*
X22431428Y27204524D02*
X22526666Y27109286D01*
X22526666Y27109286D02*
X22621904Y27061667D01*
X19216666Y25827381D02*
X19549999Y26303572D01*
X19788094Y25827381D02*
X19788094Y26827381D01*
X19788094Y26827381D02*
X19407142Y26827381D01*
X19407142Y26827381D02*
X19311904Y26779762D01*
X19311904Y26779762D02*
X19264285Y26732143D01*
X19264285Y26732143D02*
X19216666Y26636905D01*
X19216666Y26636905D02*
X19216666Y26494048D01*
X19216666Y26494048D02*
X19264285Y26398810D01*
X19264285Y26398810D02*
X19311904Y26351191D01*
X19311904Y26351191D02*
X19407142Y26303572D01*
X19407142Y26303572D02*
X19788094Y26303572D01*
X18883332Y26827381D02*
X18216666Y26827381D01*
X18216666Y26827381D02*
X18645237Y25827381D01*
X21756666Y13602620D02*
X21804285Y13555000D01*
X21804285Y13555000D02*
X21947142Y13507381D01*
X21947142Y13507381D02*
X22042380Y13507381D01*
X22042380Y13507381D02*
X22185237Y13555000D01*
X22185237Y13555000D02*
X22280475Y13650239D01*
X22280475Y13650239D02*
X22328094Y13745477D01*
X22328094Y13745477D02*
X22375713Y13935953D01*
X22375713Y13935953D02*
X22375713Y14078810D01*
X22375713Y14078810D02*
X22328094Y14269286D01*
X22328094Y14269286D02*
X22280475Y14364524D01*
X22280475Y14364524D02*
X22185237Y14459762D01*
X22185237Y14459762D02*
X22042380Y14507381D01*
X22042380Y14507381D02*
X21947142Y14507381D01*
X21947142Y14507381D02*
X21804285Y14459762D01*
X21804285Y14459762D02*
X21756666Y14412143D01*
X20899523Y14507381D02*
X21089999Y14507381D01*
X21089999Y14507381D02*
X21185237Y14459762D01*
X21185237Y14459762D02*
X21232856Y14412143D01*
X21232856Y14412143D02*
X21328094Y14269286D01*
X21328094Y14269286D02*
X21375713Y14078810D01*
X21375713Y14078810D02*
X21375713Y13697858D01*
X21375713Y13697858D02*
X21328094Y13602620D01*
X21328094Y13602620D02*
X21280475Y13555000D01*
X21280475Y13555000D02*
X21185237Y13507381D01*
X21185237Y13507381D02*
X20994761Y13507381D01*
X20994761Y13507381D02*
X20899523Y13555000D01*
X20899523Y13555000D02*
X20851904Y13602620D01*
X20851904Y13602620D02*
X20804285Y13697858D01*
X20804285Y13697858D02*
X20804285Y13935953D01*
X20804285Y13935953D02*
X20851904Y14031191D01*
X20851904Y14031191D02*
X20899523Y14078810D01*
X20899523Y14078810D02*
X20994761Y14126429D01*
X20994761Y14126429D02*
X21185237Y14126429D01*
X21185237Y14126429D02*
X21280475Y14078810D01*
X21280475Y14078810D02*
X21328094Y14031191D01*
X21328094Y14031191D02*
X21375713Y13935953D01*
X34687499Y25827381D02*
X34687499Y26827381D01*
X34687499Y26827381D02*
X34306547Y26827381D01*
X34306547Y26827381D02*
X34211309Y26779762D01*
X34211309Y26779762D02*
X34163690Y26732143D01*
X34163690Y26732143D02*
X34116071Y26636905D01*
X34116071Y26636905D02*
X34116071Y26494048D01*
X34116071Y26494048D02*
X34163690Y26398810D01*
X34163690Y26398810D02*
X34211309Y26351191D01*
X34211309Y26351191D02*
X34306547Y26303572D01*
X34306547Y26303572D02*
X34687499Y26303572D01*
X33211309Y25827381D02*
X33687499Y25827381D01*
X33687499Y25827381D02*
X33687499Y26827381D01*
X32925594Y26113096D02*
X32449404Y26113096D01*
X33020832Y25827381D02*
X32687499Y26827381D01*
X32687499Y26827381D02*
X32354166Y25827381D01*
X31830356Y26303572D02*
X31830356Y25827381D01*
X32163689Y26827381D02*
X31830356Y26303572D01*
X31830356Y26303572D02*
X31497023Y26827381D01*
X31211308Y26732143D02*
X31163689Y26779762D01*
X31163689Y26779762D02*
X31068451Y26827381D01*
X31068451Y26827381D02*
X30830356Y26827381D01*
X30830356Y26827381D02*
X30735118Y26779762D01*
X30735118Y26779762D02*
X30687499Y26732143D01*
X30687499Y26732143D02*
X30639880Y26636905D01*
X30639880Y26636905D02*
X30639880Y26541667D01*
X30639880Y26541667D02*
X30687499Y26398810D01*
X30687499Y26398810D02*
X31258927Y25827381D01*
X31258927Y25827381D02*
X30639880Y25827381D01*
X28262857Y5572620D02*
X28310476Y5525000D01*
X28310476Y5525000D02*
X28453333Y5477381D01*
X28453333Y5477381D02*
X28548571Y5477381D01*
X28548571Y5477381D02*
X28691428Y5525000D01*
X28691428Y5525000D02*
X28786666Y5620239D01*
X28786666Y5620239D02*
X28834285Y5715477D01*
X28834285Y5715477D02*
X28881904Y5905953D01*
X28881904Y5905953D02*
X28881904Y6048810D01*
X28881904Y6048810D02*
X28834285Y6239286D01*
X28834285Y6239286D02*
X28786666Y6334524D01*
X28786666Y6334524D02*
X28691428Y6429762D01*
X28691428Y6429762D02*
X28548571Y6477381D01*
X28548571Y6477381D02*
X28453333Y6477381D01*
X28453333Y6477381D02*
X28310476Y6429762D01*
X28310476Y6429762D02*
X28262857Y6382143D01*
X27310476Y5477381D02*
X27881904Y5477381D01*
X27596190Y5477381D02*
X27596190Y6477381D01*
X27596190Y6477381D02*
X27691428Y6334524D01*
X27691428Y6334524D02*
X27786666Y6239286D01*
X27786666Y6239286D02*
X27881904Y6191667D01*
X26358095Y5477381D02*
X26929523Y5477381D01*
X26643809Y5477381D02*
X26643809Y6477381D01*
X26643809Y6477381D02*
X26739047Y6334524D01*
X26739047Y6334524D02*
X26834285Y6239286D01*
X26834285Y6239286D02*
X26929523Y6191667D01*
X41975375Y17230434D02*
X41499184Y17563767D01*
X41975375Y17801862D02*
X40975375Y17801862D01*
X40975375Y17801862D02*
X40975375Y17420910D01*
X40975375Y17420910D02*
X41022994Y17325672D01*
X41022994Y17325672D02*
X41070613Y17278053D01*
X41070613Y17278053D02*
X41165851Y17230434D01*
X41165851Y17230434D02*
X41308708Y17230434D01*
X41308708Y17230434D02*
X41403946Y17278053D01*
X41403946Y17278053D02*
X41451565Y17325672D01*
X41451565Y17325672D02*
X41499184Y17420910D01*
X41499184Y17420910D02*
X41499184Y17801862D01*
X41975375Y16278053D02*
X41975375Y16849481D01*
X41975375Y16563767D02*
X40975375Y16563767D01*
X40975375Y16563767D02*
X41118232Y16659005D01*
X41118232Y16659005D02*
X41213470Y16754243D01*
X41213470Y16754243D02*
X41261089Y16849481D01*
X40975375Y15944719D02*
X40975375Y15325672D01*
X40975375Y15325672D02*
X41356327Y15659005D01*
X41356327Y15659005D02*
X41356327Y15516148D01*
X41356327Y15516148D02*
X41403946Y15420910D01*
X41403946Y15420910D02*
X41451565Y15373291D01*
X41451565Y15373291D02*
X41546803Y15325672D01*
X41546803Y15325672D02*
X41784898Y15325672D01*
X41784898Y15325672D02*
X41880136Y15373291D01*
X41880136Y15373291D02*
X41927756Y15420910D01*
X41927756Y15420910D02*
X41975375Y15516148D01*
X41975375Y15516148D02*
X41975375Y15801862D01*
X41975375Y15801862D02*
X41927756Y15897100D01*
X41927756Y15897100D02*
X41880136Y15944719D01*
X43007619Y4540000D02*
X42007619Y4540000D01*
X42007619Y4540000D02*
X42007619Y4159048D01*
X42007619Y4159048D02*
X42055238Y4063810D01*
X42055238Y4063810D02*
X42102857Y4016191D01*
X42102857Y4016191D02*
X42198095Y3968572D01*
X42198095Y3968572D02*
X42340952Y3968572D01*
X42340952Y3968572D02*
X42436190Y4016191D01*
X42436190Y4016191D02*
X42483809Y4063810D01*
X42483809Y4063810D02*
X42531428Y4159048D01*
X42531428Y4159048D02*
X42531428Y4540000D01*
X43007619Y3063810D02*
X43007619Y3540000D01*
X43007619Y3540000D02*
X42007619Y3540000D01*
X42721904Y2778095D02*
X42721904Y2301905D01*
X43007619Y2873333D02*
X42007619Y2540000D01*
X42007619Y2540000D02*
X43007619Y2206667D01*
X42531428Y1682857D02*
X43007619Y1682857D01*
X42007619Y2016190D02*
X42531428Y1682857D01*
X42531428Y1682857D02*
X42007619Y1349524D01*
X42007619Y540000D02*
X42007619Y1016190D01*
X42007619Y1016190D02*
X42483809Y1063809D01*
X42483809Y1063809D02*
X42436190Y1016190D01*
X42436190Y1016190D02*
X42388571Y920952D01*
X42388571Y920952D02*
X42388571Y682857D01*
X42388571Y682857D02*
X42436190Y587619D01*
X42436190Y587619D02*
X42483809Y540000D01*
X42483809Y540000D02*
X42579047Y492381D01*
X42579047Y492381D02*
X42817142Y492381D01*
X42817142Y492381D02*
X42912380Y540000D01*
X42912380Y540000D02*
X42960000Y587619D01*
X42960000Y587619D02*
X43007619Y682857D01*
X43007619Y682857D02*
X43007619Y920952D01*
X43007619Y920952D02*
X42960000Y1016190D01*
X42960000Y1016190D02*
X42912380Y1063809D01*
X7577380Y5566667D02*
X7625000Y5614286D01*
X7625000Y5614286D02*
X7672619Y5757143D01*
X7672619Y5757143D02*
X7672619Y5852381D01*
X7672619Y5852381D02*
X7625000Y5995238D01*
X7625000Y5995238D02*
X7529761Y6090476D01*
X7529761Y6090476D02*
X7434523Y6138095D01*
X7434523Y6138095D02*
X7244047Y6185714D01*
X7244047Y6185714D02*
X7101190Y6185714D01*
X7101190Y6185714D02*
X6910714Y6138095D01*
X6910714Y6138095D02*
X6815476Y6090476D01*
X6815476Y6090476D02*
X6720238Y5995238D01*
X6720238Y5995238D02*
X6672619Y5852381D01*
X6672619Y5852381D02*
X6672619Y5757143D01*
X6672619Y5757143D02*
X6720238Y5614286D01*
X6720238Y5614286D02*
X6767857Y5566667D01*
X7101190Y4995238D02*
X7053571Y5090476D01*
X7053571Y5090476D02*
X7005952Y5138095D01*
X7005952Y5138095D02*
X6910714Y5185714D01*
X6910714Y5185714D02*
X6863095Y5185714D01*
X6863095Y5185714D02*
X6767857Y5138095D01*
X6767857Y5138095D02*
X6720238Y5090476D01*
X6720238Y5090476D02*
X6672619Y4995238D01*
X6672619Y4995238D02*
X6672619Y4804762D01*
X6672619Y4804762D02*
X6720238Y4709524D01*
X6720238Y4709524D02*
X6767857Y4661905D01*
X6767857Y4661905D02*
X6863095Y4614286D01*
X6863095Y4614286D02*
X6910714Y4614286D01*
X6910714Y4614286D02*
X7005952Y4661905D01*
X7005952Y4661905D02*
X7053571Y4709524D01*
X7053571Y4709524D02*
X7101190Y4804762D01*
X7101190Y4804762D02*
X7101190Y4995238D01*
X7101190Y4995238D02*
X7148809Y5090476D01*
X7148809Y5090476D02*
X7196428Y5138095D01*
X7196428Y5138095D02*
X7291666Y5185714D01*
X7291666Y5185714D02*
X7482142Y5185714D01*
X7482142Y5185714D02*
X7577380Y5138095D01*
X7577380Y5138095D02*
X7625000Y5090476D01*
X7625000Y5090476D02*
X7672619Y4995238D01*
X7672619Y4995238D02*
X7672619Y4804762D01*
X7672619Y4804762D02*
X7625000Y4709524D01*
X7625000Y4709524D02*
X7577380Y4661905D01*
X7577380Y4661905D02*
X7482142Y4614286D01*
X7482142Y4614286D02*
X7291666Y4614286D01*
X7291666Y4614286D02*
X7196428Y4661905D01*
X7196428Y4661905D02*
X7148809Y4709524D01*
X7148809Y4709524D02*
X7101190Y4804762D01*
X31019523Y14397381D02*
X31019523Y15397381D01*
X31019523Y15397381D02*
X30638571Y15397381D01*
X30638571Y15397381D02*
X30543333Y15349762D01*
X30543333Y15349762D02*
X30495714Y15302143D01*
X30495714Y15302143D02*
X30448095Y15206905D01*
X30448095Y15206905D02*
X30448095Y15064048D01*
X30448095Y15064048D02*
X30495714Y14968810D01*
X30495714Y14968810D02*
X30543333Y14921191D01*
X30543333Y14921191D02*
X30638571Y14873572D01*
X30638571Y14873572D02*
X31019523Y14873572D01*
X30114761Y15397381D02*
X29876666Y14397381D01*
X29876666Y14397381D02*
X29686190Y15111667D01*
X29686190Y15111667D02*
X29495714Y14397381D01*
X29495714Y14397381D02*
X29257619Y15397381D01*
X28305238Y14397381D02*
X28638571Y14873572D01*
X28876666Y14397381D02*
X28876666Y15397381D01*
X28876666Y15397381D02*
X28495714Y15397381D01*
X28495714Y15397381D02*
X28400476Y15349762D01*
X28400476Y15349762D02*
X28352857Y15302143D01*
X28352857Y15302143D02*
X28305238Y15206905D01*
X28305238Y15206905D02*
X28305238Y15064048D01*
X28305238Y15064048D02*
X28352857Y14968810D01*
X28352857Y14968810D02*
X28400476Y14921191D01*
X28400476Y14921191D02*
X28495714Y14873572D01*
X28495714Y14873572D02*
X28876666Y14873572D01*
X27924285Y15302143D02*
X27876666Y15349762D01*
X27876666Y15349762D02*
X27781428Y15397381D01*
X27781428Y15397381D02*
X27543333Y15397381D01*
X27543333Y15397381D02*
X27448095Y15349762D01*
X27448095Y15349762D02*
X27400476Y15302143D01*
X27400476Y15302143D02*
X27352857Y15206905D01*
X27352857Y15206905D02*
X27352857Y15111667D01*
X27352857Y15111667D02*
X27400476Y14968810D01*
X27400476Y14968810D02*
X27971904Y14397381D01*
X27971904Y14397381D02*
X27352857Y14397381D01*
X59197380Y21436667D02*
X59245000Y21484286D01*
X59245000Y21484286D02*
X59292619Y21627143D01*
X59292619Y21627143D02*
X59292619Y21722381D01*
X59292619Y21722381D02*
X59245000Y21865238D01*
X59245000Y21865238D02*
X59149761Y21960476D01*
X59149761Y21960476D02*
X59054523Y22008095D01*
X59054523Y22008095D02*
X58864047Y22055714D01*
X58864047Y22055714D02*
X58721190Y22055714D01*
X58721190Y22055714D02*
X58530714Y22008095D01*
X58530714Y22008095D02*
X58435476Y21960476D01*
X58435476Y21960476D02*
X58340238Y21865238D01*
X58340238Y21865238D02*
X58292619Y21722381D01*
X58292619Y21722381D02*
X58292619Y21627143D01*
X58292619Y21627143D02*
X58340238Y21484286D01*
X58340238Y21484286D02*
X58387857Y21436667D01*
X58387857Y21055714D02*
X58340238Y21008095D01*
X58340238Y21008095D02*
X58292619Y20912857D01*
X58292619Y20912857D02*
X58292619Y20674762D01*
X58292619Y20674762D02*
X58340238Y20579524D01*
X58340238Y20579524D02*
X58387857Y20531905D01*
X58387857Y20531905D02*
X58483095Y20484286D01*
X58483095Y20484286D02*
X58578333Y20484286D01*
X58578333Y20484286D02*
X58721190Y20531905D01*
X58721190Y20531905D02*
X59292619Y21103333D01*
X59292619Y21103333D02*
X59292619Y20484286D01*
X22232857Y16142620D02*
X22280476Y16095000D01*
X22280476Y16095000D02*
X22423333Y16047381D01*
X22423333Y16047381D02*
X22518571Y16047381D01*
X22518571Y16047381D02*
X22661428Y16095000D01*
X22661428Y16095000D02*
X22756666Y16190239D01*
X22756666Y16190239D02*
X22804285Y16285477D01*
X22804285Y16285477D02*
X22851904Y16475953D01*
X22851904Y16475953D02*
X22851904Y16618810D01*
X22851904Y16618810D02*
X22804285Y16809286D01*
X22804285Y16809286D02*
X22756666Y16904524D01*
X22756666Y16904524D02*
X22661428Y16999762D01*
X22661428Y16999762D02*
X22518571Y17047381D01*
X22518571Y17047381D02*
X22423333Y17047381D01*
X22423333Y17047381D02*
X22280476Y16999762D01*
X22280476Y16999762D02*
X22232857Y16952143D01*
X21280476Y16047381D02*
X21851904Y16047381D01*
X21566190Y16047381D02*
X21566190Y17047381D01*
X21566190Y17047381D02*
X21661428Y16904524D01*
X21661428Y16904524D02*
X21756666Y16809286D01*
X21756666Y16809286D02*
X21851904Y16761667D01*
X20423333Y16714048D02*
X20423333Y16047381D01*
X20661428Y17095000D02*
X20899523Y16380715D01*
X20899523Y16380715D02*
X20280476Y16380715D01*
X2706666Y7252620D02*
X2754285Y7205000D01*
X2754285Y7205000D02*
X2897142Y7157381D01*
X2897142Y7157381D02*
X2992380Y7157381D01*
X2992380Y7157381D02*
X3135237Y7205000D01*
X3135237Y7205000D02*
X3230475Y7300239D01*
X3230475Y7300239D02*
X3278094Y7395477D01*
X3278094Y7395477D02*
X3325713Y7585953D01*
X3325713Y7585953D02*
X3325713Y7728810D01*
X3325713Y7728810D02*
X3278094Y7919286D01*
X3278094Y7919286D02*
X3230475Y8014524D01*
X3230475Y8014524D02*
X3135237Y8109762D01*
X3135237Y8109762D02*
X2992380Y8157381D01*
X2992380Y8157381D02*
X2897142Y8157381D01*
X2897142Y8157381D02*
X2754285Y8109762D01*
X2754285Y8109762D02*
X2706666Y8062143D01*
X1801904Y8157381D02*
X2278094Y8157381D01*
X2278094Y8157381D02*
X2325713Y7681191D01*
X2325713Y7681191D02*
X2278094Y7728810D01*
X2278094Y7728810D02*
X2182856Y7776429D01*
X2182856Y7776429D02*
X1944761Y7776429D01*
X1944761Y7776429D02*
X1849523Y7728810D01*
X1849523Y7728810D02*
X1801904Y7681191D01*
X1801904Y7681191D02*
X1754285Y7585953D01*
X1754285Y7585953D02*
X1754285Y7347858D01*
X1754285Y7347858D02*
X1801904Y7252620D01*
X1801904Y7252620D02*
X1849523Y7205000D01*
X1849523Y7205000D02*
X1944761Y7157381D01*
X1944761Y7157381D02*
X2182856Y7157381D01*
X2182856Y7157381D02*
X2278094Y7205000D01*
X2278094Y7205000D02*
X2325713Y7252620D01*
X22232857Y5982620D02*
X22280476Y5935000D01*
X22280476Y5935000D02*
X22423333Y5887381D01*
X22423333Y5887381D02*
X22518571Y5887381D01*
X22518571Y5887381D02*
X22661428Y5935000D01*
X22661428Y5935000D02*
X22756666Y6030239D01*
X22756666Y6030239D02*
X22804285Y6125477D01*
X22804285Y6125477D02*
X22851904Y6315953D01*
X22851904Y6315953D02*
X22851904Y6458810D01*
X22851904Y6458810D02*
X22804285Y6649286D01*
X22804285Y6649286D02*
X22756666Y6744524D01*
X22756666Y6744524D02*
X22661428Y6839762D01*
X22661428Y6839762D02*
X22518571Y6887381D01*
X22518571Y6887381D02*
X22423333Y6887381D01*
X22423333Y6887381D02*
X22280476Y6839762D01*
X22280476Y6839762D02*
X22232857Y6792143D01*
X21280476Y5887381D02*
X21851904Y5887381D01*
X21566190Y5887381D02*
X21566190Y6887381D01*
X21566190Y6887381D02*
X21661428Y6744524D01*
X21661428Y6744524D02*
X21756666Y6649286D01*
X21756666Y6649286D02*
X21851904Y6601667D01*
X20661428Y6887381D02*
X20566190Y6887381D01*
X20566190Y6887381D02*
X20470952Y6839762D01*
X20470952Y6839762D02*
X20423333Y6792143D01*
X20423333Y6792143D02*
X20375714Y6696905D01*
X20375714Y6696905D02*
X20328095Y6506429D01*
X20328095Y6506429D02*
X20328095Y6268334D01*
X20328095Y6268334D02*
X20375714Y6077858D01*
X20375714Y6077858D02*
X20423333Y5982620D01*
X20423333Y5982620D02*
X20470952Y5935000D01*
X20470952Y5935000D02*
X20566190Y5887381D01*
X20566190Y5887381D02*
X20661428Y5887381D01*
X20661428Y5887381D02*
X20756666Y5935000D01*
X20756666Y5935000D02*
X20804285Y5982620D01*
X20804285Y5982620D02*
X20851904Y6077858D01*
X20851904Y6077858D02*
X20899523Y6268334D01*
X20899523Y6268334D02*
X20899523Y6506429D01*
X20899523Y6506429D02*
X20851904Y6696905D01*
X20851904Y6696905D02*
X20804285Y6792143D01*
X20804285Y6792143D02*
X20756666Y6839762D01*
X20756666Y6839762D02*
X20661428Y6887381D01*
X45092857Y8427381D02*
X45426190Y8903572D01*
X45664285Y8427381D02*
X45664285Y9427381D01*
X45664285Y9427381D02*
X45283333Y9427381D01*
X45283333Y9427381D02*
X45188095Y9379762D01*
X45188095Y9379762D02*
X45140476Y9332143D01*
X45140476Y9332143D02*
X45092857Y9236905D01*
X45092857Y9236905D02*
X45092857Y9094048D01*
X45092857Y9094048D02*
X45140476Y8998810D01*
X45140476Y8998810D02*
X45188095Y8951191D01*
X45188095Y8951191D02*
X45283333Y8903572D01*
X45283333Y8903572D02*
X45664285Y8903572D01*
X44140476Y8427381D02*
X44711904Y8427381D01*
X44426190Y8427381D02*
X44426190Y9427381D01*
X44426190Y9427381D02*
X44521428Y9284524D01*
X44521428Y9284524D02*
X44616666Y9189286D01*
X44616666Y9189286D02*
X44711904Y9141667D01*
X43569047Y8998810D02*
X43664285Y9046429D01*
X43664285Y9046429D02*
X43711904Y9094048D01*
X43711904Y9094048D02*
X43759523Y9189286D01*
X43759523Y9189286D02*
X43759523Y9236905D01*
X43759523Y9236905D02*
X43711904Y9332143D01*
X43711904Y9332143D02*
X43664285Y9379762D01*
X43664285Y9379762D02*
X43569047Y9427381D01*
X43569047Y9427381D02*
X43378571Y9427381D01*
X43378571Y9427381D02*
X43283333Y9379762D01*
X43283333Y9379762D02*
X43235714Y9332143D01*
X43235714Y9332143D02*
X43188095Y9236905D01*
X43188095Y9236905D02*
X43188095Y9189286D01*
X43188095Y9189286D02*
X43235714Y9094048D01*
X43235714Y9094048D02*
X43283333Y9046429D01*
X43283333Y9046429D02*
X43378571Y8998810D01*
X43378571Y8998810D02*
X43569047Y8998810D01*
X43569047Y8998810D02*
X43664285Y8951191D01*
X43664285Y8951191D02*
X43711904Y8903572D01*
X43711904Y8903572D02*
X43759523Y8808334D01*
X43759523Y8808334D02*
X43759523Y8617858D01*
X43759523Y8617858D02*
X43711904Y8522620D01*
X43711904Y8522620D02*
X43664285Y8475000D01*
X43664285Y8475000D02*
X43569047Y8427381D01*
X43569047Y8427381D02*
X43378571Y8427381D01*
X43378571Y8427381D02*
X43283333Y8475000D01*
X43283333Y8475000D02*
X43235714Y8522620D01*
X43235714Y8522620D02*
X43188095Y8617858D01*
X43188095Y8617858D02*
X43188095Y8808334D01*
X43188095Y8808334D02*
X43235714Y8903572D01*
X43235714Y8903572D02*
X43283333Y8951191D01*
X43283333Y8951191D02*
X43378571Y8998810D01*
X5524166Y24682381D02*
X5857499Y25158572D01*
X6095594Y24682381D02*
X6095594Y25682381D01*
X6095594Y25682381D02*
X5714642Y25682381D01*
X5714642Y25682381D02*
X5619404Y25634762D01*
X5619404Y25634762D02*
X5571785Y25587143D01*
X5571785Y25587143D02*
X5524166Y25491905D01*
X5524166Y25491905D02*
X5524166Y25349048D01*
X5524166Y25349048D02*
X5571785Y25253810D01*
X5571785Y25253810D02*
X5619404Y25206191D01*
X5619404Y25206191D02*
X5714642Y25158572D01*
X5714642Y25158572D02*
X6095594Y25158572D01*
X4571785Y24682381D02*
X5143213Y24682381D01*
X4857499Y24682381D02*
X4857499Y25682381D01*
X4857499Y25682381D02*
X4952737Y25539524D01*
X4952737Y25539524D02*
X5047975Y25444286D01*
X5047975Y25444286D02*
X5143213Y25396667D01*
X21756666Y8427381D02*
X22089999Y8903572D01*
X22328094Y8427381D02*
X22328094Y9427381D01*
X22328094Y9427381D02*
X21947142Y9427381D01*
X21947142Y9427381D02*
X21851904Y9379762D01*
X21851904Y9379762D02*
X21804285Y9332143D01*
X21804285Y9332143D02*
X21756666Y9236905D01*
X21756666Y9236905D02*
X21756666Y9094048D01*
X21756666Y9094048D02*
X21804285Y8998810D01*
X21804285Y8998810D02*
X21851904Y8951191D01*
X21851904Y8951191D02*
X21947142Y8903572D01*
X21947142Y8903572D02*
X22328094Y8903572D01*
X20851904Y9427381D02*
X21328094Y9427381D01*
X21328094Y9427381D02*
X21375713Y8951191D01*
X21375713Y8951191D02*
X21328094Y8998810D01*
X21328094Y8998810D02*
X21232856Y9046429D01*
X21232856Y9046429D02*
X20994761Y9046429D01*
X20994761Y9046429D02*
X20899523Y8998810D01*
X20899523Y8998810D02*
X20851904Y8951191D01*
X20851904Y8951191D02*
X20804285Y8855953D01*
X20804285Y8855953D02*
X20804285Y8617858D01*
X20804285Y8617858D02*
X20851904Y8522620D01*
X20851904Y8522620D02*
X20899523Y8475000D01*
X20899523Y8475000D02*
X20994761Y8427381D01*
X20994761Y8427381D02*
X21232856Y8427381D01*
X21232856Y8427381D02*
X21328094Y8475000D01*
X21328094Y8475000D02*
X21375713Y8522620D01*
X48902857Y8427381D02*
X49236190Y8903572D01*
X49474285Y8427381D02*
X49474285Y9427381D01*
X49474285Y9427381D02*
X49093333Y9427381D01*
X49093333Y9427381D02*
X48998095Y9379762D01*
X48998095Y9379762D02*
X48950476Y9332143D01*
X48950476Y9332143D02*
X48902857Y9236905D01*
X48902857Y9236905D02*
X48902857Y9094048D01*
X48902857Y9094048D02*
X48950476Y8998810D01*
X48950476Y8998810D02*
X48998095Y8951191D01*
X48998095Y8951191D02*
X49093333Y8903572D01*
X49093333Y8903572D02*
X49474285Y8903572D01*
X47950476Y8427381D02*
X48521904Y8427381D01*
X48236190Y8427381D02*
X48236190Y9427381D01*
X48236190Y9427381D02*
X48331428Y9284524D01*
X48331428Y9284524D02*
X48426666Y9189286D01*
X48426666Y9189286D02*
X48521904Y9141667D01*
X47093333Y9427381D02*
X47283809Y9427381D01*
X47283809Y9427381D02*
X47379047Y9379762D01*
X47379047Y9379762D02*
X47426666Y9332143D01*
X47426666Y9332143D02*
X47521904Y9189286D01*
X47521904Y9189286D02*
X47569523Y8998810D01*
X47569523Y8998810D02*
X47569523Y8617858D01*
X47569523Y8617858D02*
X47521904Y8522620D01*
X47521904Y8522620D02*
X47474285Y8475000D01*
X47474285Y8475000D02*
X47379047Y8427381D01*
X47379047Y8427381D02*
X47188571Y8427381D01*
X47188571Y8427381D02*
X47093333Y8475000D01*
X47093333Y8475000D02*
X47045714Y8522620D01*
X47045714Y8522620D02*
X46998095Y8617858D01*
X46998095Y8617858D02*
X46998095Y8855953D01*
X46998095Y8855953D02*
X47045714Y8951191D01*
X47045714Y8951191D02*
X47093333Y8998810D01*
X47093333Y8998810D02*
X47188571Y9046429D01*
X47188571Y9046429D02*
X47379047Y9046429D01*
X47379047Y9046429D02*
X47474285Y8998810D01*
X47474285Y8998810D02*
X47521904Y8951191D01*
X47521904Y8951191D02*
X47569523Y8855953D01*
X9257380Y15406667D02*
X9305000Y15454286D01*
X9305000Y15454286D02*
X9352619Y15597143D01*
X9352619Y15597143D02*
X9352619Y15692381D01*
X9352619Y15692381D02*
X9305000Y15835238D01*
X9305000Y15835238D02*
X9209761Y15930476D01*
X9209761Y15930476D02*
X9114523Y15978095D01*
X9114523Y15978095D02*
X8924047Y16025714D01*
X8924047Y16025714D02*
X8781190Y16025714D01*
X8781190Y16025714D02*
X8590714Y15978095D01*
X8590714Y15978095D02*
X8495476Y15930476D01*
X8495476Y15930476D02*
X8400238Y15835238D01*
X8400238Y15835238D02*
X8352619Y15692381D01*
X8352619Y15692381D02*
X8352619Y15597143D01*
X8352619Y15597143D02*
X8400238Y15454286D01*
X8400238Y15454286D02*
X8447857Y15406667D01*
X8685952Y14549524D02*
X9352619Y14549524D01*
X8305000Y14787619D02*
X9019285Y15025714D01*
X9019285Y15025714D02*
X9019285Y14406667D01*
X46817619Y4540000D02*
X45817619Y4540000D01*
X45817619Y4540000D02*
X45817619Y4159048D01*
X45817619Y4159048D02*
X45865238Y4063810D01*
X45865238Y4063810D02*
X45912857Y4016191D01*
X45912857Y4016191D02*
X46008095Y3968572D01*
X46008095Y3968572D02*
X46150952Y3968572D01*
X46150952Y3968572D02*
X46246190Y4016191D01*
X46246190Y4016191D02*
X46293809Y4063810D01*
X46293809Y4063810D02*
X46341428Y4159048D01*
X46341428Y4159048D02*
X46341428Y4540000D01*
X46817619Y3063810D02*
X46817619Y3540000D01*
X46817619Y3540000D02*
X45817619Y3540000D01*
X46531904Y2778095D02*
X46531904Y2301905D01*
X46817619Y2873333D02*
X45817619Y2540000D01*
X45817619Y2540000D02*
X46817619Y2206667D01*
X46341428Y1682857D02*
X46817619Y1682857D01*
X45817619Y2016190D02*
X46341428Y1682857D01*
X46341428Y1682857D02*
X45817619Y1349524D01*
X45817619Y1111428D02*
X45817619Y492381D01*
X45817619Y492381D02*
X46198571Y825714D01*
X46198571Y825714D02*
X46198571Y682857D01*
X46198571Y682857D02*
X46246190Y587619D01*
X46246190Y587619D02*
X46293809Y540000D01*
X46293809Y540000D02*
X46389047Y492381D01*
X46389047Y492381D02*
X46627142Y492381D01*
X46627142Y492381D02*
X46722380Y540000D01*
X46722380Y540000D02*
X46770000Y587619D01*
X46770000Y587619D02*
X46817619Y682857D01*
X46817619Y682857D02*
X46817619Y968571D01*
X46817619Y968571D02*
X46770000Y1063809D01*
X46770000Y1063809D02*
X46722380Y1111428D01*
X29852857Y20237381D02*
X30186190Y20713572D01*
X30424285Y20237381D02*
X30424285Y21237381D01*
X30424285Y21237381D02*
X30043333Y21237381D01*
X30043333Y21237381D02*
X29948095Y21189762D01*
X29948095Y21189762D02*
X29900476Y21142143D01*
X29900476Y21142143D02*
X29852857Y21046905D01*
X29852857Y21046905D02*
X29852857Y20904048D01*
X29852857Y20904048D02*
X29900476Y20808810D01*
X29900476Y20808810D02*
X29948095Y20761191D01*
X29948095Y20761191D02*
X30043333Y20713572D01*
X30043333Y20713572D02*
X30424285Y20713572D01*
X28900476Y20237381D02*
X29471904Y20237381D01*
X29186190Y20237381D02*
X29186190Y21237381D01*
X29186190Y21237381D02*
X29281428Y21094524D01*
X29281428Y21094524D02*
X29376666Y20999286D01*
X29376666Y20999286D02*
X29471904Y20951667D01*
X28281428Y21237381D02*
X28186190Y21237381D01*
X28186190Y21237381D02*
X28090952Y21189762D01*
X28090952Y21189762D02*
X28043333Y21142143D01*
X28043333Y21142143D02*
X27995714Y21046905D01*
X27995714Y21046905D02*
X27948095Y20856429D01*
X27948095Y20856429D02*
X27948095Y20618334D01*
X27948095Y20618334D02*
X27995714Y20427858D01*
X27995714Y20427858D02*
X28043333Y20332620D01*
X28043333Y20332620D02*
X28090952Y20285000D01*
X28090952Y20285000D02*
X28186190Y20237381D01*
X28186190Y20237381D02*
X28281428Y20237381D01*
X28281428Y20237381D02*
X28376666Y20285000D01*
X28376666Y20285000D02*
X28424285Y20332620D01*
X28424285Y20332620D02*
X28471904Y20427858D01*
X28471904Y20427858D02*
X28519523Y20618334D01*
X28519523Y20618334D02*
X28519523Y20856429D01*
X28519523Y20856429D02*
X28471904Y21046905D01*
X28471904Y21046905D02*
X28424285Y21142143D01*
X28424285Y21142143D02*
X28376666Y21189762D01*
X28376666Y21189762D02*
X28281428Y21237381D01*
D11*
X16451252Y10695000D02*
X15928748Y10695000D01*
X16451252Y12165000D02*
X15928748Y12165000D01*
X46996690Y12410000D02*
X47646690Y12410000D01*
X46996690Y12410000D02*
X46346690Y12410000D01*
X46996690Y15530000D02*
X48671690Y15530000D01*
X46996690Y15530000D02*
X46346690Y15530000D01*
X6577064Y17045000D02*
X6122936Y17045000D01*
X6577064Y18515000D02*
X6122936Y18515000D01*
X57885000Y26931252D02*
X57885000Y26408748D01*
X56415000Y26931252D02*
X56415000Y26408748D01*
X28628748Y13435000D02*
X29151252Y13435000D01*
X28628748Y11965000D02*
X29151252Y11965000D01*
X16379564Y3075000D02*
X15925436Y3075000D01*
X16379564Y4545000D02*
X15925436Y4545000D01*
X22125000Y21005436D02*
X22125000Y21459564D01*
X23595000Y21005436D02*
X23595000Y21459564D01*
X1805000Y13742936D02*
X1805000Y14197064D01*
X3275000Y13742936D02*
X3275000Y14197064D01*
X14658748Y19785000D02*
X15181252Y19785000D01*
X14658748Y18315000D02*
X15181252Y18315000D01*
X22860000Y30770000D02*
X22210000Y30770000D01*
X22860000Y30770000D02*
X23510000Y30770000D01*
X22860000Y27650000D02*
X21185000Y27650000D01*
X22860000Y27650000D02*
X23510000Y27650000D01*
X18822936Y28675000D02*
X19277064Y28675000D01*
X18822936Y27205000D02*
X19277064Y27205000D01*
X14658748Y14705000D02*
X15181252Y14705000D01*
X14658748Y13235000D02*
X15181252Y13235000D01*
X31002500Y28900000D02*
X33687500Y28900000D01*
X31002500Y26980000D02*
X31002500Y28900000D01*
X33687500Y26980000D02*
X31002500Y26980000D01*
X27358748Y8355000D02*
X27881252Y8355000D01*
X27358748Y6885000D02*
X27881252Y6885000D01*
X43915000Y16737064D02*
X43915000Y16282936D01*
X42445000Y16737064D02*
X42445000Y16282936D01*
X43496690Y880000D02*
X43496690Y3565000D01*
X45416690Y880000D02*
X43496690Y880000D01*
X45416690Y3565000D02*
X45416690Y880000D01*
X9625000Y5661252D02*
X9625000Y5138748D01*
X8155000Y5661252D02*
X8155000Y5138748D01*
X27525000Y17470000D02*
X30210000Y17470000D01*
X27525000Y15550000D02*
X27525000Y17470000D01*
X30210000Y15550000D02*
X27525000Y15550000D01*
X56415000Y21008748D02*
X56415000Y21531252D01*
X57885000Y21008748D02*
X57885000Y21531252D01*
X14658748Y17245000D02*
X15181252Y17245000D01*
X14658748Y15775000D02*
X15181252Y15775000D01*
X1805000Y10218748D02*
X1805000Y10741252D01*
X3275000Y10218748D02*
X3275000Y10741252D01*
X16451252Y5615000D02*
X15928748Y5615000D01*
X16451252Y7085000D02*
X15928748Y7085000D01*
X43721690Y6122936D02*
X43721690Y6577064D01*
X45191690Y6122936D02*
X45191690Y6577064D01*
X5584564Y22760000D02*
X5130436Y22760000D01*
X5584564Y24230000D02*
X5130436Y24230000D01*
X16379564Y8155000D02*
X15925436Y8155000D01*
X16379564Y9625000D02*
X15925436Y9625000D01*
X47531690Y6122936D02*
X47531690Y6577064D01*
X49001690Y6122936D02*
X49001690Y6577064D01*
X15925436Y24865000D02*
X16379564Y24865000D01*
X15925436Y23395000D02*
X16379564Y23395000D01*
X6611252Y15013000D02*
X6088748Y15013000D01*
X6611252Y16483000D02*
X6088748Y16483000D01*
X47306690Y880000D02*
X47306690Y3565000D01*
X49226690Y880000D02*
X47306690Y880000D01*
X49226690Y3565000D02*
X49226690Y880000D01*
X29437064Y18315000D02*
X28982936Y18315000D01*
X29437064Y19785000D02*
X28982936Y19785000D01*
M02*
