G04 #@! TF.GenerationSoftware,KiCad,Pcbnew,7.0.2-6a45011f42~172~ubuntu22.04.1*
G04 #@! TF.CreationDate,2023-04-28T22:36:36-05:00*
G04 #@! TF.ProjectId,laser,6c617365-722e-46b6-9963-61645f706362,rev?*
G04 #@! TF.SameCoordinates,PXc1c960PY791ddc0*
G04 #@! TF.FileFunction,Legend,Top*
G04 #@! TF.FilePolarity,Positive*
%FSLAX46Y46*%
G04 Gerber Fmt 4.6, Leading zero omitted, Abs format (unit mm)*
G04 Created by KiCad (PCBNEW 7.0.2-6a45011f42~172~ubuntu22.04.1) date 2023-04-28 22:36:36*
%MOMM*%
%LPD*%
G01*
G04 APERTURE LIST*
%ADD10C,0.150000*%
%ADD11C,0.254000*%
%ADD12C,0.120000*%
G04 APERTURE END LIST*
D10*
X59832857Y28094048D02*
X60070952Y27427381D01*
X60070952Y27427381D02*
X60309047Y28094048D01*
X61213809Y27427381D02*
X60642381Y27427381D01*
X60928095Y27427381D02*
X60928095Y28427381D01*
X60928095Y28427381D02*
X60832857Y28284524D01*
X60832857Y28284524D02*
X60737619Y28189286D01*
X60737619Y28189286D02*
X60642381Y28141667D01*
X61642381Y27522620D02*
X61690000Y27475000D01*
X61690000Y27475000D02*
X61642381Y27427381D01*
X61642381Y27427381D02*
X61594762Y27475000D01*
X61594762Y27475000D02*
X61642381Y27522620D01*
X61642381Y27522620D02*
X61642381Y27427381D01*
X62309047Y28427381D02*
X62404285Y28427381D01*
X62404285Y28427381D02*
X62499523Y28379762D01*
X62499523Y28379762D02*
X62547142Y28332143D01*
X62547142Y28332143D02*
X62594761Y28236905D01*
X62594761Y28236905D02*
X62642380Y28046429D01*
X62642380Y28046429D02*
X62642380Y27808334D01*
X62642380Y27808334D02*
X62594761Y27617858D01*
X62594761Y27617858D02*
X62547142Y27522620D01*
X62547142Y27522620D02*
X62499523Y27475000D01*
X62499523Y27475000D02*
X62404285Y27427381D01*
X62404285Y27427381D02*
X62309047Y27427381D01*
X62309047Y27427381D02*
X62213809Y27475000D01*
X62213809Y27475000D02*
X62166190Y27522620D01*
X62166190Y27522620D02*
X62118571Y27617858D01*
X62118571Y27617858D02*
X62070952Y27808334D01*
X62070952Y27808334D02*
X62070952Y28046429D01*
X62070952Y28046429D02*
X62118571Y28236905D01*
X62118571Y28236905D02*
X62166190Y28332143D01*
X62166190Y28332143D02*
X62213809Y28379762D01*
X62213809Y28379762D02*
X62309047Y28427381D01*
X63261428Y28427381D02*
X63356666Y28427381D01*
X63356666Y28427381D02*
X63451904Y28379762D01*
X63451904Y28379762D02*
X63499523Y28332143D01*
X63499523Y28332143D02*
X63547142Y28236905D01*
X63547142Y28236905D02*
X63594761Y28046429D01*
X63594761Y28046429D02*
X63594761Y27808334D01*
X63594761Y27808334D02*
X63547142Y27617858D01*
X63547142Y27617858D02*
X63499523Y27522620D01*
X63499523Y27522620D02*
X63451904Y27475000D01*
X63451904Y27475000D02*
X63356666Y27427381D01*
X63356666Y27427381D02*
X63261428Y27427381D01*
X63261428Y27427381D02*
X63166190Y27475000D01*
X63166190Y27475000D02*
X63118571Y27522620D01*
X63118571Y27522620D02*
X63070952Y27617858D01*
X63070952Y27617858D02*
X63023333Y27808334D01*
X63023333Y27808334D02*
X63023333Y28046429D01*
X63023333Y28046429D02*
X63070952Y28236905D01*
X63070952Y28236905D02*
X63118571Y28332143D01*
X63118571Y28332143D02*
X63166190Y28379762D01*
X63166190Y28379762D02*
X63261428Y28427381D01*
X56403809Y30332381D02*
X56403809Y29618096D01*
X56403809Y29618096D02*
X56356190Y29475239D01*
X56356190Y29475239D02*
X56260952Y29380000D01*
X56260952Y29380000D02*
X56118095Y29332381D01*
X56118095Y29332381D02*
X56022857Y29332381D01*
X57308571Y29999048D02*
X57308571Y29332381D01*
X56880000Y29999048D02*
X56880000Y29475239D01*
X56880000Y29475239D02*
X56927619Y29380000D01*
X56927619Y29380000D02*
X57022857Y29332381D01*
X57022857Y29332381D02*
X57165714Y29332381D01*
X57165714Y29332381D02*
X57260952Y29380000D01*
X57260952Y29380000D02*
X57308571Y29427620D01*
X57784762Y29332381D02*
X57784762Y30332381D01*
X57880000Y29713334D02*
X58165714Y29332381D01*
X58165714Y29999048D02*
X57784762Y29618096D01*
X58975238Y29380000D02*
X58880000Y29332381D01*
X58880000Y29332381D02*
X58689524Y29332381D01*
X58689524Y29332381D02*
X58594286Y29380000D01*
X58594286Y29380000D02*
X58546667Y29475239D01*
X58546667Y29475239D02*
X58546667Y29856191D01*
X58546667Y29856191D02*
X58594286Y29951429D01*
X58594286Y29951429D02*
X58689524Y29999048D01*
X58689524Y29999048D02*
X58880000Y29999048D01*
X58880000Y29999048D02*
X58975238Y29951429D01*
X58975238Y29951429D02*
X59022857Y29856191D01*
X59022857Y29856191D02*
X59022857Y29760953D01*
X59022857Y29760953D02*
X58546667Y29665715D01*
X59451429Y29332381D02*
X59451429Y30332381D01*
X59451429Y29951429D02*
X59546667Y29999048D01*
X59546667Y29999048D02*
X59737143Y29999048D01*
X59737143Y29999048D02*
X59832381Y29951429D01*
X59832381Y29951429D02*
X59880000Y29903810D01*
X59880000Y29903810D02*
X59927619Y29808572D01*
X59927619Y29808572D02*
X59927619Y29522858D01*
X59927619Y29522858D02*
X59880000Y29427620D01*
X59880000Y29427620D02*
X59832381Y29380000D01*
X59832381Y29380000D02*
X59737143Y29332381D01*
X59737143Y29332381D02*
X59546667Y29332381D01*
X59546667Y29332381D02*
X59451429Y29380000D01*
X60499048Y29332381D02*
X60403810Y29380000D01*
X60403810Y29380000D02*
X60356191Y29427620D01*
X60356191Y29427620D02*
X60308572Y29522858D01*
X60308572Y29522858D02*
X60308572Y29808572D01*
X60308572Y29808572D02*
X60356191Y29903810D01*
X60356191Y29903810D02*
X60403810Y29951429D01*
X60403810Y29951429D02*
X60499048Y29999048D01*
X60499048Y29999048D02*
X60641905Y29999048D01*
X60641905Y29999048D02*
X60737143Y29951429D01*
X60737143Y29951429D02*
X60784762Y29903810D01*
X60784762Y29903810D02*
X60832381Y29808572D01*
X60832381Y29808572D02*
X60832381Y29522858D01*
X60832381Y29522858D02*
X60784762Y29427620D01*
X60784762Y29427620D02*
X60737143Y29380000D01*
X60737143Y29380000D02*
X60641905Y29332381D01*
X60641905Y29332381D02*
X60499048Y29332381D01*
X61165715Y29332381D02*
X61689524Y29999048D01*
X61165715Y29999048D02*
X61689524Y29332381D01*
X63308572Y29332381D02*
X62832382Y29332381D01*
X62832382Y29332381D02*
X62832382Y30332381D01*
X64070477Y29332381D02*
X64070477Y29856191D01*
X64070477Y29856191D02*
X64022858Y29951429D01*
X64022858Y29951429D02*
X63927620Y29999048D01*
X63927620Y29999048D02*
X63737144Y29999048D01*
X63737144Y29999048D02*
X63641906Y29951429D01*
X64070477Y29380000D02*
X63975239Y29332381D01*
X63975239Y29332381D02*
X63737144Y29332381D01*
X63737144Y29332381D02*
X63641906Y29380000D01*
X63641906Y29380000D02*
X63594287Y29475239D01*
X63594287Y29475239D02*
X63594287Y29570477D01*
X63594287Y29570477D02*
X63641906Y29665715D01*
X63641906Y29665715D02*
X63737144Y29713334D01*
X63737144Y29713334D02*
X63975239Y29713334D01*
X63975239Y29713334D02*
X64070477Y29760953D01*
X64499049Y29380000D02*
X64594287Y29332381D01*
X64594287Y29332381D02*
X64784763Y29332381D01*
X64784763Y29332381D02*
X64880001Y29380000D01*
X64880001Y29380000D02*
X64927620Y29475239D01*
X64927620Y29475239D02*
X64927620Y29522858D01*
X64927620Y29522858D02*
X64880001Y29618096D01*
X64880001Y29618096D02*
X64784763Y29665715D01*
X64784763Y29665715D02*
X64641906Y29665715D01*
X64641906Y29665715D02*
X64546668Y29713334D01*
X64546668Y29713334D02*
X64499049Y29808572D01*
X64499049Y29808572D02*
X64499049Y29856191D01*
X64499049Y29856191D02*
X64546668Y29951429D01*
X64546668Y29951429D02*
X64641906Y29999048D01*
X64641906Y29999048D02*
X64784763Y29999048D01*
X64784763Y29999048D02*
X64880001Y29951429D01*
X65737144Y29380000D02*
X65641906Y29332381D01*
X65641906Y29332381D02*
X65451430Y29332381D01*
X65451430Y29332381D02*
X65356192Y29380000D01*
X65356192Y29380000D02*
X65308573Y29475239D01*
X65308573Y29475239D02*
X65308573Y29856191D01*
X65308573Y29856191D02*
X65356192Y29951429D01*
X65356192Y29951429D02*
X65451430Y29999048D01*
X65451430Y29999048D02*
X65641906Y29999048D01*
X65641906Y29999048D02*
X65737144Y29951429D01*
X65737144Y29951429D02*
X65784763Y29856191D01*
X65784763Y29856191D02*
X65784763Y29760953D01*
X65784763Y29760953D02*
X65308573Y29665715D01*
X66213335Y29332381D02*
X66213335Y29999048D01*
X66213335Y29808572D02*
X66260954Y29903810D01*
X66260954Y29903810D02*
X66308573Y29951429D01*
X66308573Y29951429D02*
X66403811Y29999048D01*
X66403811Y29999048D02*
X66499049Y29999048D01*
X25227619Y19835953D02*
X24751428Y19502620D01*
X25227619Y19264525D02*
X24227619Y19264525D01*
X24227619Y19264525D02*
X24227619Y19645477D01*
X24227619Y19645477D02*
X24275238Y19740715D01*
X24275238Y19740715D02*
X24322857Y19788334D01*
X24322857Y19788334D02*
X24418095Y19835953D01*
X24418095Y19835953D02*
X24560952Y19835953D01*
X24560952Y19835953D02*
X24656190Y19788334D01*
X24656190Y19788334D02*
X24703809Y19740715D01*
X24703809Y19740715D02*
X24751428Y19645477D01*
X24751428Y19645477D02*
X24751428Y19264525D01*
X24703809Y20264525D02*
X24703809Y20597858D01*
X25227619Y20740715D02*
X25227619Y20264525D01*
X25227619Y20264525D02*
X24227619Y20264525D01*
X24227619Y20264525D02*
X24227619Y20740715D01*
X25132380Y21740715D02*
X25180000Y21693096D01*
X25180000Y21693096D02*
X25227619Y21550239D01*
X25227619Y21550239D02*
X25227619Y21455001D01*
X25227619Y21455001D02*
X25180000Y21312144D01*
X25180000Y21312144D02*
X25084761Y21216906D01*
X25084761Y21216906D02*
X24989523Y21169287D01*
X24989523Y21169287D02*
X24799047Y21121668D01*
X24799047Y21121668D02*
X24656190Y21121668D01*
X24656190Y21121668D02*
X24465714Y21169287D01*
X24465714Y21169287D02*
X24370476Y21216906D01*
X24370476Y21216906D02*
X24275238Y21312144D01*
X24275238Y21312144D02*
X24227619Y21455001D01*
X24227619Y21455001D02*
X24227619Y21550239D01*
X24227619Y21550239D02*
X24275238Y21693096D01*
X24275238Y21693096D02*
X24322857Y21740715D01*
X25227619Y22693096D02*
X25227619Y22121668D01*
X25227619Y22407382D02*
X24227619Y22407382D01*
X24227619Y22407382D02*
X24370476Y22312144D01*
X24370476Y22312144D02*
X24465714Y22216906D01*
X24465714Y22216906D02*
X24513333Y22121668D01*
X52537166Y7947381D02*
X52537166Y7233096D01*
X52537166Y7233096D02*
X52489547Y7090239D01*
X52489547Y7090239D02*
X52394309Y6995000D01*
X52394309Y6995000D02*
X52251452Y6947381D01*
X52251452Y6947381D02*
X52156214Y6947381D01*
X53537166Y6947381D02*
X52965738Y6947381D01*
X53251452Y6947381D02*
X53251452Y7947381D01*
X53251452Y7947381D02*
X53156214Y7804524D01*
X53156214Y7804524D02*
X53060976Y7709286D01*
X53060976Y7709286D02*
X52965738Y7661667D01*
X54156214Y7947381D02*
X54251452Y7947381D01*
X54251452Y7947381D02*
X54346690Y7899762D01*
X54346690Y7899762D02*
X54394309Y7852143D01*
X54394309Y7852143D02*
X54441928Y7756905D01*
X54441928Y7756905D02*
X54489547Y7566429D01*
X54489547Y7566429D02*
X54489547Y7328334D01*
X54489547Y7328334D02*
X54441928Y7137858D01*
X54441928Y7137858D02*
X54394309Y7042620D01*
X54394309Y7042620D02*
X54346690Y6995000D01*
X54346690Y6995000D02*
X54251452Y6947381D01*
X54251452Y6947381D02*
X54156214Y6947381D01*
X54156214Y6947381D02*
X54060976Y6995000D01*
X54060976Y6995000D02*
X54013357Y7042620D01*
X54013357Y7042620D02*
X53965738Y7137858D01*
X53965738Y7137858D02*
X53918119Y7328334D01*
X53918119Y7328334D02*
X53918119Y7566429D01*
X53918119Y7566429D02*
X53965738Y7756905D01*
X53965738Y7756905D02*
X54013357Y7852143D01*
X54013357Y7852143D02*
X54060976Y7899762D01*
X54060976Y7899762D02*
X54156214Y7947381D01*
X24615119Y14160834D02*
X24138928Y13827501D01*
X24615119Y13589406D02*
X23615119Y13589406D01*
X23615119Y13589406D02*
X23615119Y13970358D01*
X23615119Y13970358D02*
X23662738Y14065596D01*
X23662738Y14065596D02*
X23710357Y14113215D01*
X23710357Y14113215D02*
X23805595Y14160834D01*
X23805595Y14160834D02*
X23948452Y14160834D01*
X23948452Y14160834D02*
X24043690Y14113215D01*
X24043690Y14113215D02*
X24091309Y14065596D01*
X24091309Y14065596D02*
X24138928Y13970358D01*
X24138928Y13970358D02*
X24138928Y13589406D01*
X24043690Y14732263D02*
X23996071Y14637025D01*
X23996071Y14637025D02*
X23948452Y14589406D01*
X23948452Y14589406D02*
X23853214Y14541787D01*
X23853214Y14541787D02*
X23805595Y14541787D01*
X23805595Y14541787D02*
X23710357Y14589406D01*
X23710357Y14589406D02*
X23662738Y14637025D01*
X23662738Y14637025D02*
X23615119Y14732263D01*
X23615119Y14732263D02*
X23615119Y14922739D01*
X23615119Y14922739D02*
X23662738Y15017977D01*
X23662738Y15017977D02*
X23710357Y15065596D01*
X23710357Y15065596D02*
X23805595Y15113215D01*
X23805595Y15113215D02*
X23853214Y15113215D01*
X23853214Y15113215D02*
X23948452Y15065596D01*
X23948452Y15065596D02*
X23996071Y15017977D01*
X23996071Y15017977D02*
X24043690Y14922739D01*
X24043690Y14922739D02*
X24043690Y14732263D01*
X24043690Y14732263D02*
X24091309Y14637025D01*
X24091309Y14637025D02*
X24138928Y14589406D01*
X24138928Y14589406D02*
X24234166Y14541787D01*
X24234166Y14541787D02*
X24424642Y14541787D01*
X24424642Y14541787D02*
X24519880Y14589406D01*
X24519880Y14589406D02*
X24567500Y14637025D01*
X24567500Y14637025D02*
X24615119Y14732263D01*
X24615119Y14732263D02*
X24615119Y14922739D01*
X24615119Y14922739D02*
X24567500Y15017977D01*
X24567500Y15017977D02*
X24519880Y15065596D01*
X24519880Y15065596D02*
X24424642Y15113215D01*
X24424642Y15113215D02*
X24234166Y15113215D01*
X24234166Y15113215D02*
X24138928Y15065596D01*
X24138928Y15065596D02*
X24091309Y15017977D01*
X24091309Y15017977D02*
X24043690Y14922739D01*
X32977380Y21897143D02*
X33025000Y21849524D01*
X33025000Y21849524D02*
X33072619Y21706667D01*
X33072619Y21706667D02*
X33072619Y21611429D01*
X33072619Y21611429D02*
X33025000Y21468572D01*
X33025000Y21468572D02*
X32929761Y21373334D01*
X32929761Y21373334D02*
X32834523Y21325715D01*
X32834523Y21325715D02*
X32644047Y21278096D01*
X32644047Y21278096D02*
X32501190Y21278096D01*
X32501190Y21278096D02*
X32310714Y21325715D01*
X32310714Y21325715D02*
X32215476Y21373334D01*
X32215476Y21373334D02*
X32120238Y21468572D01*
X32120238Y21468572D02*
X32072619Y21611429D01*
X32072619Y21611429D02*
X32072619Y21706667D01*
X32072619Y21706667D02*
X32120238Y21849524D01*
X32120238Y21849524D02*
X32167857Y21897143D01*
X33072619Y22849524D02*
X33072619Y22278096D01*
X33072619Y22563810D02*
X32072619Y22563810D01*
X32072619Y22563810D02*
X32215476Y22468572D01*
X32215476Y22468572D02*
X32310714Y22373334D01*
X32310714Y22373334D02*
X32358333Y22278096D01*
X32072619Y23182858D02*
X32072619Y23801905D01*
X32072619Y23801905D02*
X32453571Y23468572D01*
X32453571Y23468572D02*
X32453571Y23611429D01*
X32453571Y23611429D02*
X32501190Y23706667D01*
X32501190Y23706667D02*
X32548809Y23754286D01*
X32548809Y23754286D02*
X32644047Y23801905D01*
X32644047Y23801905D02*
X32882142Y23801905D01*
X32882142Y23801905D02*
X32977380Y23754286D01*
X32977380Y23754286D02*
X33025000Y23706667D01*
X33025000Y23706667D02*
X33072619Y23611429D01*
X33072619Y23611429D02*
X33072619Y23325715D01*
X33072619Y23325715D02*
X33025000Y23230477D01*
X33025000Y23230477D02*
X32977380Y23182858D01*
X43807142Y8427381D02*
X43473809Y8903572D01*
X43235714Y8427381D02*
X43235714Y9427381D01*
X43235714Y9427381D02*
X43616666Y9427381D01*
X43616666Y9427381D02*
X43711904Y9379762D01*
X43711904Y9379762D02*
X43759523Y9332143D01*
X43759523Y9332143D02*
X43807142Y9236905D01*
X43807142Y9236905D02*
X43807142Y9094048D01*
X43807142Y9094048D02*
X43759523Y8998810D01*
X43759523Y8998810D02*
X43711904Y8951191D01*
X43711904Y8951191D02*
X43616666Y8903572D01*
X43616666Y8903572D02*
X43235714Y8903572D01*
X44759523Y8427381D02*
X44188095Y8427381D01*
X44473809Y8427381D02*
X44473809Y9427381D01*
X44473809Y9427381D02*
X44378571Y9284524D01*
X44378571Y9284524D02*
X44283333Y9189286D01*
X44283333Y9189286D02*
X44188095Y9141667D01*
X45092857Y9427381D02*
X45759523Y9427381D01*
X45759523Y9427381D02*
X45330952Y8427381D01*
X2637619Y9191667D02*
X3351904Y9191667D01*
X3351904Y9191667D02*
X3494761Y9144048D01*
X3494761Y9144048D02*
X3590000Y9048810D01*
X3590000Y9048810D02*
X3637619Y8905953D01*
X3637619Y8905953D02*
X3637619Y8810715D01*
X2970952Y10096429D02*
X3637619Y10096429D01*
X2590000Y9858334D02*
X3304285Y9620239D01*
X3304285Y9620239D02*
X3304285Y10239286D01*
X27400476Y20492381D02*
X27400476Y21492381D01*
X27400476Y21492381D02*
X27781428Y21492381D01*
X27781428Y21492381D02*
X27876666Y21444762D01*
X27876666Y21444762D02*
X27924285Y21397143D01*
X27924285Y21397143D02*
X27971904Y21301905D01*
X27971904Y21301905D02*
X27971904Y21159048D01*
X27971904Y21159048D02*
X27924285Y21063810D01*
X27924285Y21063810D02*
X27876666Y21016191D01*
X27876666Y21016191D02*
X27781428Y20968572D01*
X27781428Y20968572D02*
X27400476Y20968572D01*
X28305238Y21492381D02*
X28543333Y20492381D01*
X28543333Y20492381D02*
X28733809Y21206667D01*
X28733809Y21206667D02*
X28924285Y20492381D01*
X28924285Y20492381D02*
X29162381Y21492381D01*
X30114761Y20492381D02*
X29781428Y20968572D01*
X29543333Y20492381D02*
X29543333Y21492381D01*
X29543333Y21492381D02*
X29924285Y21492381D01*
X29924285Y21492381D02*
X30019523Y21444762D01*
X30019523Y21444762D02*
X30067142Y21397143D01*
X30067142Y21397143D02*
X30114761Y21301905D01*
X30114761Y21301905D02*
X30114761Y21159048D01*
X30114761Y21159048D02*
X30067142Y21063810D01*
X30067142Y21063810D02*
X30019523Y21016191D01*
X30019523Y21016191D02*
X29924285Y20968572D01*
X29924285Y20968572D02*
X29543333Y20968572D01*
X31067142Y20492381D02*
X30495714Y20492381D01*
X30781428Y20492381D02*
X30781428Y21492381D01*
X30781428Y21492381D02*
X30686190Y21349524D01*
X30686190Y21349524D02*
X30590952Y21254286D01*
X30590952Y21254286D02*
X30495714Y21206667D01*
X26963810Y10557381D02*
X26963810Y11557381D01*
X28011428Y10652620D02*
X27963809Y10605000D01*
X27963809Y10605000D02*
X27820952Y10557381D01*
X27820952Y10557381D02*
X27725714Y10557381D01*
X27725714Y10557381D02*
X27582857Y10605000D01*
X27582857Y10605000D02*
X27487619Y10700239D01*
X27487619Y10700239D02*
X27440000Y10795477D01*
X27440000Y10795477D02*
X27392381Y10985953D01*
X27392381Y10985953D02*
X27392381Y11128810D01*
X27392381Y11128810D02*
X27440000Y11319286D01*
X27440000Y11319286D02*
X27487619Y11414524D01*
X27487619Y11414524D02*
X27582857Y11509762D01*
X27582857Y11509762D02*
X27725714Y11557381D01*
X27725714Y11557381D02*
X27820952Y11557381D01*
X27820952Y11557381D02*
X27963809Y11509762D01*
X27963809Y11509762D02*
X28011428Y11462143D01*
X28963809Y10557381D02*
X28392381Y10557381D01*
X28678095Y10557381D02*
X28678095Y11557381D01*
X28678095Y11557381D02*
X28582857Y11414524D01*
X28582857Y11414524D02*
X28487619Y11319286D01*
X28487619Y11319286D02*
X28392381Y11271667D01*
X71421666Y15777381D02*
X71421666Y15063096D01*
X71421666Y15063096D02*
X71374047Y14920239D01*
X71374047Y14920239D02*
X71278809Y14825000D01*
X71278809Y14825000D02*
X71135952Y14777381D01*
X71135952Y14777381D02*
X71040714Y14777381D01*
X72421666Y14777381D02*
X71850238Y14777381D01*
X72135952Y14777381D02*
X72135952Y15777381D01*
X72135952Y15777381D02*
X72040714Y15634524D01*
X72040714Y15634524D02*
X71945476Y15539286D01*
X71945476Y15539286D02*
X71850238Y15491667D01*
X4893333Y15702620D02*
X4845714Y15655000D01*
X4845714Y15655000D02*
X4702857Y15607381D01*
X4702857Y15607381D02*
X4607619Y15607381D01*
X4607619Y15607381D02*
X4464762Y15655000D01*
X4464762Y15655000D02*
X4369524Y15750239D01*
X4369524Y15750239D02*
X4321905Y15845477D01*
X4321905Y15845477D02*
X4274286Y16035953D01*
X4274286Y16035953D02*
X4274286Y16178810D01*
X4274286Y16178810D02*
X4321905Y16369286D01*
X4321905Y16369286D02*
X4369524Y16464524D01*
X4369524Y16464524D02*
X4464762Y16559762D01*
X4464762Y16559762D02*
X4607619Y16607381D01*
X4607619Y16607381D02*
X4702857Y16607381D01*
X4702857Y16607381D02*
X4845714Y16559762D01*
X4845714Y16559762D02*
X4893333Y16512143D01*
X5226667Y16607381D02*
X5845714Y16607381D01*
X5845714Y16607381D02*
X5512381Y16226429D01*
X5512381Y16226429D02*
X5655238Y16226429D01*
X5655238Y16226429D02*
X5750476Y16178810D01*
X5750476Y16178810D02*
X5798095Y16131191D01*
X5798095Y16131191D02*
X5845714Y16035953D01*
X5845714Y16035953D02*
X5845714Y15797858D01*
X5845714Y15797858D02*
X5798095Y15702620D01*
X5798095Y15702620D02*
X5750476Y15655000D01*
X5750476Y15655000D02*
X5655238Y15607381D01*
X5655238Y15607381D02*
X5369524Y15607381D01*
X5369524Y15607381D02*
X5274286Y15655000D01*
X5274286Y15655000D02*
X5226667Y15702620D01*
X39878095Y24257381D02*
X39878095Y23447858D01*
X39878095Y23447858D02*
X39925714Y23352620D01*
X39925714Y23352620D02*
X39973333Y23305000D01*
X39973333Y23305000D02*
X40068571Y23257381D01*
X40068571Y23257381D02*
X40259047Y23257381D01*
X40259047Y23257381D02*
X40354285Y23305000D01*
X40354285Y23305000D02*
X40401904Y23352620D01*
X40401904Y23352620D02*
X40449523Y23447858D01*
X40449523Y23447858D02*
X40449523Y24257381D01*
X40830476Y24257381D02*
X41449523Y24257381D01*
X41449523Y24257381D02*
X41116190Y23876429D01*
X41116190Y23876429D02*
X41259047Y23876429D01*
X41259047Y23876429D02*
X41354285Y23828810D01*
X41354285Y23828810D02*
X41401904Y23781191D01*
X41401904Y23781191D02*
X41449523Y23685953D01*
X41449523Y23685953D02*
X41449523Y23447858D01*
X41449523Y23447858D02*
X41401904Y23352620D01*
X41401904Y23352620D02*
X41354285Y23305000D01*
X41354285Y23305000D02*
X41259047Y23257381D01*
X41259047Y23257381D02*
X40973333Y23257381D01*
X40973333Y23257381D02*
X40878095Y23305000D01*
X40878095Y23305000D02*
X40830476Y23352620D01*
X11096666Y26147381D02*
X11096666Y25433096D01*
X11096666Y25433096D02*
X11049047Y25290239D01*
X11049047Y25290239D02*
X10953809Y25195000D01*
X10953809Y25195000D02*
X10810952Y25147381D01*
X10810952Y25147381D02*
X10715714Y25147381D01*
X11525238Y26052143D02*
X11572857Y26099762D01*
X11572857Y26099762D02*
X11668095Y26147381D01*
X11668095Y26147381D02*
X11906190Y26147381D01*
X11906190Y26147381D02*
X12001428Y26099762D01*
X12001428Y26099762D02*
X12049047Y26052143D01*
X12049047Y26052143D02*
X12096666Y25956905D01*
X12096666Y25956905D02*
X12096666Y25861667D01*
X12096666Y25861667D02*
X12049047Y25718810D01*
X12049047Y25718810D02*
X11477619Y25147381D01*
X11477619Y25147381D02*
X12096666Y25147381D01*
X33102619Y14597143D02*
X32626428Y14263810D01*
X33102619Y14025715D02*
X32102619Y14025715D01*
X32102619Y14025715D02*
X32102619Y14406667D01*
X32102619Y14406667D02*
X32150238Y14501905D01*
X32150238Y14501905D02*
X32197857Y14549524D01*
X32197857Y14549524D02*
X32293095Y14597143D01*
X32293095Y14597143D02*
X32435952Y14597143D01*
X32435952Y14597143D02*
X32531190Y14549524D01*
X32531190Y14549524D02*
X32578809Y14501905D01*
X32578809Y14501905D02*
X32626428Y14406667D01*
X32626428Y14406667D02*
X32626428Y14025715D01*
X33102619Y15549524D02*
X33102619Y14978096D01*
X33102619Y15263810D02*
X32102619Y15263810D01*
X32102619Y15263810D02*
X32245476Y15168572D01*
X32245476Y15168572D02*
X32340714Y15073334D01*
X32340714Y15073334D02*
X32388333Y14978096D01*
X32435952Y16406667D02*
X33102619Y16406667D01*
X32055000Y16168572D02*
X32769285Y15930477D01*
X32769285Y15930477D02*
X32769285Y16549524D01*
X14906666Y26147381D02*
X14906666Y25433096D01*
X14906666Y25433096D02*
X14859047Y25290239D01*
X14859047Y25290239D02*
X14763809Y25195000D01*
X14763809Y25195000D02*
X14620952Y25147381D01*
X14620952Y25147381D02*
X14525714Y25147381D01*
X15287619Y26147381D02*
X15906666Y26147381D01*
X15906666Y26147381D02*
X15573333Y25766429D01*
X15573333Y25766429D02*
X15716190Y25766429D01*
X15716190Y25766429D02*
X15811428Y25718810D01*
X15811428Y25718810D02*
X15859047Y25671191D01*
X15859047Y25671191D02*
X15906666Y25575953D01*
X15906666Y25575953D02*
X15906666Y25337858D01*
X15906666Y25337858D02*
X15859047Y25242620D01*
X15859047Y25242620D02*
X15811428Y25195000D01*
X15811428Y25195000D02*
X15716190Y25147381D01*
X15716190Y25147381D02*
X15430476Y25147381D01*
X15430476Y25147381D02*
X15335238Y25195000D01*
X15335238Y25195000D02*
X15287619Y25242620D01*
X43269309Y540001D02*
X42269309Y540001D01*
X42269309Y540001D02*
X42269309Y920953D01*
X42269309Y920953D02*
X42316928Y1016191D01*
X42316928Y1016191D02*
X42364547Y1063810D01*
X42364547Y1063810D02*
X42459785Y1111429D01*
X42459785Y1111429D02*
X42602642Y1111429D01*
X42602642Y1111429D02*
X42697880Y1063810D01*
X42697880Y1063810D02*
X42745499Y1016191D01*
X42745499Y1016191D02*
X42793118Y920953D01*
X42793118Y920953D02*
X42793118Y540001D01*
X43269309Y2016191D02*
X43269309Y1540001D01*
X43269309Y1540001D02*
X42269309Y1540001D01*
X42983594Y2301906D02*
X42983594Y2778096D01*
X43269309Y2206668D02*
X42269309Y2540001D01*
X42269309Y2540001D02*
X43269309Y2873334D01*
X42793118Y3397144D02*
X43269309Y3397144D01*
X42269309Y3063811D02*
X42793118Y3397144D01*
X42793118Y3397144D02*
X42269309Y3730477D01*
X42269309Y4492382D02*
X42269309Y4301906D01*
X42269309Y4301906D02*
X42316928Y4206668D01*
X42316928Y4206668D02*
X42364547Y4159049D01*
X42364547Y4159049D02*
X42507404Y4063811D01*
X42507404Y4063811D02*
X42697880Y4016192D01*
X42697880Y4016192D02*
X43078832Y4016192D01*
X43078832Y4016192D02*
X43174070Y4063811D01*
X43174070Y4063811D02*
X43221690Y4111430D01*
X43221690Y4111430D02*
X43269309Y4206668D01*
X43269309Y4206668D02*
X43269309Y4397144D01*
X43269309Y4397144D02*
X43221690Y4492382D01*
X43221690Y4492382D02*
X43174070Y4540001D01*
X43174070Y4540001D02*
X43078832Y4587620D01*
X43078832Y4587620D02*
X42840737Y4587620D01*
X42840737Y4587620D02*
X42745499Y4540001D01*
X42745499Y4540001D02*
X42697880Y4492382D01*
X42697880Y4492382D02*
X42650261Y4397144D01*
X42650261Y4397144D02*
X42650261Y4206668D01*
X42650261Y4206668D02*
X42697880Y4111430D01*
X42697880Y4111430D02*
X42745499Y4063811D01*
X42745499Y4063811D02*
X42840737Y4016192D01*
X10668095Y22127381D02*
X10668095Y21317858D01*
X10668095Y21317858D02*
X10715714Y21222620D01*
X10715714Y21222620D02*
X10763333Y21175000D01*
X10763333Y21175000D02*
X10858571Y21127381D01*
X10858571Y21127381D02*
X11049047Y21127381D01*
X11049047Y21127381D02*
X11144285Y21175000D01*
X11144285Y21175000D02*
X11191904Y21222620D01*
X11191904Y21222620D02*
X11239523Y21317858D01*
X11239523Y21317858D02*
X11239523Y22127381D01*
X11668095Y22032143D02*
X11715714Y22079762D01*
X11715714Y22079762D02*
X11810952Y22127381D01*
X11810952Y22127381D02*
X12049047Y22127381D01*
X12049047Y22127381D02*
X12144285Y22079762D01*
X12144285Y22079762D02*
X12191904Y22032143D01*
X12191904Y22032143D02*
X12239523Y21936905D01*
X12239523Y21936905D02*
X12239523Y21841667D01*
X12239523Y21841667D02*
X12191904Y21698810D01*
X12191904Y21698810D02*
X11620476Y21127381D01*
X11620476Y21127381D02*
X12239523Y21127381D01*
X14177500Y21762381D02*
X14177500Y22762381D01*
X14177500Y22762381D02*
X14558452Y22762381D01*
X14558452Y22762381D02*
X14653690Y22714762D01*
X14653690Y22714762D02*
X14701309Y22667143D01*
X14701309Y22667143D02*
X14748928Y22571905D01*
X14748928Y22571905D02*
X14748928Y22429048D01*
X14748928Y22429048D02*
X14701309Y22333810D01*
X14701309Y22333810D02*
X14653690Y22286191D01*
X14653690Y22286191D02*
X14558452Y22238572D01*
X14558452Y22238572D02*
X14177500Y22238572D01*
X15653690Y21762381D02*
X15177500Y21762381D01*
X15177500Y21762381D02*
X15177500Y22762381D01*
X15939405Y22048096D02*
X16415595Y22048096D01*
X15844167Y21762381D02*
X16177500Y22762381D01*
X16177500Y22762381D02*
X16510833Y21762381D01*
X17034643Y22238572D02*
X17034643Y21762381D01*
X16701310Y22762381D02*
X17034643Y22238572D01*
X17034643Y22238572D02*
X17367976Y22762381D01*
X18225119Y21762381D02*
X17653691Y21762381D01*
X17939405Y21762381D02*
X17939405Y22762381D01*
X17939405Y22762381D02*
X17844167Y22619524D01*
X17844167Y22619524D02*
X17748929Y22524286D01*
X17748929Y22524286D02*
X17653691Y22476667D01*
X63960476Y7954947D02*
X63960476Y7240662D01*
X63960476Y7240662D02*
X63912857Y7097805D01*
X63912857Y7097805D02*
X63817619Y7002566D01*
X63817619Y7002566D02*
X63674762Y6954947D01*
X63674762Y6954947D02*
X63579524Y6954947D01*
X64960476Y6954947D02*
X64389048Y6954947D01*
X64674762Y6954947D02*
X64674762Y7954947D01*
X64674762Y7954947D02*
X64579524Y7812090D01*
X64579524Y7812090D02*
X64484286Y7716852D01*
X64484286Y7716852D02*
X64389048Y7669233D01*
X65817619Y7954947D02*
X65627143Y7954947D01*
X65627143Y7954947D02*
X65531905Y7907328D01*
X65531905Y7907328D02*
X65484286Y7859709D01*
X65484286Y7859709D02*
X65389048Y7716852D01*
X65389048Y7716852D02*
X65341429Y7526376D01*
X65341429Y7526376D02*
X65341429Y7145424D01*
X65341429Y7145424D02*
X65389048Y7050186D01*
X65389048Y7050186D02*
X65436667Y7002566D01*
X65436667Y7002566D02*
X65531905Y6954947D01*
X65531905Y6954947D02*
X65722381Y6954947D01*
X65722381Y6954947D02*
X65817619Y7002566D01*
X65817619Y7002566D02*
X65865238Y7050186D01*
X65865238Y7050186D02*
X65912857Y7145424D01*
X65912857Y7145424D02*
X65912857Y7383519D01*
X65912857Y7383519D02*
X65865238Y7478757D01*
X65865238Y7478757D02*
X65817619Y7526376D01*
X65817619Y7526376D02*
X65722381Y7573995D01*
X65722381Y7573995D02*
X65531905Y7573995D01*
X65531905Y7573995D02*
X65436667Y7526376D01*
X65436667Y7526376D02*
X65389048Y7478757D01*
X65389048Y7478757D02*
X65341429Y7383519D01*
X56347166Y7947381D02*
X56347166Y7233096D01*
X56347166Y7233096D02*
X56299547Y7090239D01*
X56299547Y7090239D02*
X56204309Y6995000D01*
X56204309Y6995000D02*
X56061452Y6947381D01*
X56061452Y6947381D02*
X55966214Y6947381D01*
X57347166Y6947381D02*
X56775738Y6947381D01*
X57061452Y6947381D02*
X57061452Y7947381D01*
X57061452Y7947381D02*
X56966214Y7804524D01*
X56966214Y7804524D02*
X56870976Y7709286D01*
X56870976Y7709286D02*
X56775738Y7661667D01*
X57728119Y7852143D02*
X57775738Y7899762D01*
X57775738Y7899762D02*
X57870976Y7947381D01*
X57870976Y7947381D02*
X58109071Y7947381D01*
X58109071Y7947381D02*
X58204309Y7899762D01*
X58204309Y7899762D02*
X58251928Y7852143D01*
X58251928Y7852143D02*
X58299547Y7756905D01*
X58299547Y7756905D02*
X58299547Y7661667D01*
X58299547Y7661667D02*
X58251928Y7518810D01*
X58251928Y7518810D02*
X57680500Y6947381D01*
X57680500Y6947381D02*
X58299547Y6947381D01*
X53013356Y15567381D02*
X53013356Y14853096D01*
X53013356Y14853096D02*
X52965737Y14710239D01*
X52965737Y14710239D02*
X52870499Y14615000D01*
X52870499Y14615000D02*
X52727642Y14567381D01*
X52727642Y14567381D02*
X52632404Y14567381D01*
X53537166Y14567381D02*
X53727642Y14567381D01*
X53727642Y14567381D02*
X53822880Y14615000D01*
X53822880Y14615000D02*
X53870499Y14662620D01*
X53870499Y14662620D02*
X53965737Y14805477D01*
X53965737Y14805477D02*
X54013356Y14995953D01*
X54013356Y14995953D02*
X54013356Y15376905D01*
X54013356Y15376905D02*
X53965737Y15472143D01*
X53965737Y15472143D02*
X53918118Y15519762D01*
X53918118Y15519762D02*
X53822880Y15567381D01*
X53822880Y15567381D02*
X53632404Y15567381D01*
X53632404Y15567381D02*
X53537166Y15519762D01*
X53537166Y15519762D02*
X53489547Y15472143D01*
X53489547Y15472143D02*
X53441928Y15376905D01*
X53441928Y15376905D02*
X53441928Y15138810D01*
X53441928Y15138810D02*
X53489547Y15043572D01*
X53489547Y15043572D02*
X53537166Y14995953D01*
X53537166Y14995953D02*
X53632404Y14948334D01*
X53632404Y14948334D02*
X53822880Y14948334D01*
X53822880Y14948334D02*
X53918118Y14995953D01*
X53918118Y14995953D02*
X53965737Y15043572D01*
X53965737Y15043572D02*
X54013356Y15138810D01*
X49102619Y20589643D02*
X48626428Y20256310D01*
X49102619Y20018215D02*
X48102619Y20018215D01*
X48102619Y20018215D02*
X48102619Y20399167D01*
X48102619Y20399167D02*
X48150238Y20494405D01*
X48150238Y20494405D02*
X48197857Y20542024D01*
X48197857Y20542024D02*
X48293095Y20589643D01*
X48293095Y20589643D02*
X48435952Y20589643D01*
X48435952Y20589643D02*
X48531190Y20542024D01*
X48531190Y20542024D02*
X48578809Y20494405D01*
X48578809Y20494405D02*
X48626428Y20399167D01*
X48626428Y20399167D02*
X48626428Y20018215D01*
X49102619Y21542024D02*
X49102619Y20970596D01*
X49102619Y21256310D02*
X48102619Y21256310D01*
X48102619Y21256310D02*
X48245476Y21161072D01*
X48245476Y21161072D02*
X48340714Y21065834D01*
X48340714Y21065834D02*
X48388333Y20970596D01*
X48197857Y21922977D02*
X48150238Y21970596D01*
X48150238Y21970596D02*
X48102619Y22065834D01*
X48102619Y22065834D02*
X48102619Y22303929D01*
X48102619Y22303929D02*
X48150238Y22399167D01*
X48150238Y22399167D02*
X48197857Y22446786D01*
X48197857Y22446786D02*
X48293095Y22494405D01*
X48293095Y22494405D02*
X48388333Y22494405D01*
X48388333Y22494405D02*
X48531190Y22446786D01*
X48531190Y22446786D02*
X49102619Y21875358D01*
X49102619Y21875358D02*
X49102619Y22494405D01*
X32044642Y25827381D02*
X31711309Y26303572D01*
X31473214Y25827381D02*
X31473214Y26827381D01*
X31473214Y26827381D02*
X31854166Y26827381D01*
X31854166Y26827381D02*
X31949404Y26779762D01*
X31949404Y26779762D02*
X31997023Y26732143D01*
X31997023Y26732143D02*
X32044642Y26636905D01*
X32044642Y26636905D02*
X32044642Y26494048D01*
X32044642Y26494048D02*
X31997023Y26398810D01*
X31997023Y26398810D02*
X31949404Y26351191D01*
X31949404Y26351191D02*
X31854166Y26303572D01*
X31854166Y26303572D02*
X31473214Y26303572D01*
X32997023Y25827381D02*
X32425595Y25827381D01*
X32711309Y25827381D02*
X32711309Y26827381D01*
X32711309Y26827381D02*
X32616071Y26684524D01*
X32616071Y26684524D02*
X32520833Y26589286D01*
X32520833Y26589286D02*
X32425595Y26541667D01*
X33473214Y25827381D02*
X33663690Y25827381D01*
X33663690Y25827381D02*
X33758928Y25875000D01*
X33758928Y25875000D02*
X33806547Y25922620D01*
X33806547Y25922620D02*
X33901785Y26065477D01*
X33901785Y26065477D02*
X33949404Y26255953D01*
X33949404Y26255953D02*
X33949404Y26636905D01*
X33949404Y26636905D02*
X33901785Y26732143D01*
X33901785Y26732143D02*
X33854166Y26779762D01*
X33854166Y26779762D02*
X33758928Y26827381D01*
X33758928Y26827381D02*
X33568452Y26827381D01*
X33568452Y26827381D02*
X33473214Y26779762D01*
X33473214Y26779762D02*
X33425595Y26732143D01*
X33425595Y26732143D02*
X33377976Y26636905D01*
X33377976Y26636905D02*
X33377976Y26398810D01*
X33377976Y26398810D02*
X33425595Y26303572D01*
X33425595Y26303572D02*
X33473214Y26255953D01*
X33473214Y26255953D02*
X33568452Y26208334D01*
X33568452Y26208334D02*
X33758928Y26208334D01*
X33758928Y26208334D02*
X33854166Y26255953D01*
X33854166Y26255953D02*
X33901785Y26303572D01*
X33901785Y26303572D02*
X33949404Y26398810D01*
X63967166Y15567381D02*
X63967166Y14853096D01*
X63967166Y14853096D02*
X63919547Y14710239D01*
X63919547Y14710239D02*
X63824309Y14615000D01*
X63824309Y14615000D02*
X63681452Y14567381D01*
X63681452Y14567381D02*
X63586214Y14567381D01*
X64967166Y14567381D02*
X64395738Y14567381D01*
X64681452Y14567381D02*
X64681452Y15567381D01*
X64681452Y15567381D02*
X64586214Y15424524D01*
X64586214Y15424524D02*
X64490976Y15329286D01*
X64490976Y15329286D02*
X64395738Y15281667D01*
X65871928Y15567381D02*
X65395738Y15567381D01*
X65395738Y15567381D02*
X65348119Y15091191D01*
X65348119Y15091191D02*
X65395738Y15138810D01*
X65395738Y15138810D02*
X65490976Y15186429D01*
X65490976Y15186429D02*
X65729071Y15186429D01*
X65729071Y15186429D02*
X65824309Y15138810D01*
X65824309Y15138810D02*
X65871928Y15091191D01*
X65871928Y15091191D02*
X65919547Y14995953D01*
X65919547Y14995953D02*
X65919547Y14757858D01*
X65919547Y14757858D02*
X65871928Y14662620D01*
X65871928Y14662620D02*
X65824309Y14615000D01*
X65824309Y14615000D02*
X65729071Y14567381D01*
X65729071Y14567381D02*
X65490976Y14567381D01*
X65490976Y14567381D02*
X65395738Y14615000D01*
X65395738Y14615000D02*
X65348119Y14662620D01*
X35022619Y9826667D02*
X35736904Y9826667D01*
X35736904Y9826667D02*
X35879761Y9779048D01*
X35879761Y9779048D02*
X35975000Y9683810D01*
X35975000Y9683810D02*
X36022619Y9540953D01*
X36022619Y9540953D02*
X36022619Y9445715D01*
X35022619Y10731429D02*
X35022619Y10540953D01*
X35022619Y10540953D02*
X35070238Y10445715D01*
X35070238Y10445715D02*
X35117857Y10398096D01*
X35117857Y10398096D02*
X35260714Y10302858D01*
X35260714Y10302858D02*
X35451190Y10255239D01*
X35451190Y10255239D02*
X35832142Y10255239D01*
X35832142Y10255239D02*
X35927380Y10302858D01*
X35927380Y10302858D02*
X35975000Y10350477D01*
X35975000Y10350477D02*
X36022619Y10445715D01*
X36022619Y10445715D02*
X36022619Y10636191D01*
X36022619Y10636191D02*
X35975000Y10731429D01*
X35975000Y10731429D02*
X35927380Y10779048D01*
X35927380Y10779048D02*
X35832142Y10826667D01*
X35832142Y10826667D02*
X35594047Y10826667D01*
X35594047Y10826667D02*
X35498809Y10779048D01*
X35498809Y10779048D02*
X35451190Y10731429D01*
X35451190Y10731429D02*
X35403571Y10636191D01*
X35403571Y10636191D02*
X35403571Y10445715D01*
X35403571Y10445715D02*
X35451190Y10350477D01*
X35451190Y10350477D02*
X35498809Y10302858D01*
X35498809Y10302858D02*
X35594047Y10255239D01*
D11*
X57367526Y19706381D02*
X58395621Y19706381D01*
X58395621Y19706381D02*
X58516573Y19766858D01*
X58516573Y19766858D02*
X58577050Y19827334D01*
X58577050Y19827334D02*
X58637526Y19948286D01*
X58637526Y19948286D02*
X58637526Y20190191D01*
X58637526Y20190191D02*
X58577050Y20311143D01*
X58577050Y20311143D02*
X58516573Y20371620D01*
X58516573Y20371620D02*
X58395621Y20432096D01*
X58395621Y20432096D02*
X57367526Y20432096D01*
X58637526Y21702096D02*
X58637526Y20976381D01*
X58637526Y21339238D02*
X57367526Y21339238D01*
X57367526Y21339238D02*
X57548954Y21218286D01*
X57548954Y21218286D02*
X57669907Y21097334D01*
X57669907Y21097334D02*
X57730383Y20976381D01*
D10*
X56347166Y15567381D02*
X56347166Y14853096D01*
X56347166Y14853096D02*
X56299547Y14710239D01*
X56299547Y14710239D02*
X56204309Y14615000D01*
X56204309Y14615000D02*
X56061452Y14567381D01*
X56061452Y14567381D02*
X55966214Y14567381D01*
X57347166Y14567381D02*
X56775738Y14567381D01*
X57061452Y14567381D02*
X57061452Y15567381D01*
X57061452Y15567381D02*
X56966214Y15424524D01*
X56966214Y15424524D02*
X56870976Y15329286D01*
X56870976Y15329286D02*
X56775738Y15281667D01*
X58299547Y14567381D02*
X57728119Y14567381D01*
X58013833Y14567381D02*
X58013833Y15567381D01*
X58013833Y15567381D02*
X57918595Y15424524D01*
X57918595Y15424524D02*
X57823357Y15329286D01*
X57823357Y15329286D02*
X57728119Y15281667D01*
X47617142Y8427381D02*
X47283809Y8903572D01*
X47045714Y8427381D02*
X47045714Y9427381D01*
X47045714Y9427381D02*
X47426666Y9427381D01*
X47426666Y9427381D02*
X47521904Y9379762D01*
X47521904Y9379762D02*
X47569523Y9332143D01*
X47569523Y9332143D02*
X47617142Y9236905D01*
X47617142Y9236905D02*
X47617142Y9094048D01*
X47617142Y9094048D02*
X47569523Y8998810D01*
X47569523Y8998810D02*
X47521904Y8951191D01*
X47521904Y8951191D02*
X47426666Y8903572D01*
X47426666Y8903572D02*
X47045714Y8903572D01*
X48569523Y8427381D02*
X47998095Y8427381D01*
X48283809Y8427381D02*
X48283809Y9427381D01*
X48283809Y9427381D02*
X48188571Y9284524D01*
X48188571Y9284524D02*
X48093333Y9189286D01*
X48093333Y9189286D02*
X47998095Y9141667D01*
X49474285Y9427381D02*
X48998095Y9427381D01*
X48998095Y9427381D02*
X48950476Y8951191D01*
X48950476Y8951191D02*
X48998095Y8998810D01*
X48998095Y8998810D02*
X49093333Y9046429D01*
X49093333Y9046429D02*
X49331428Y9046429D01*
X49331428Y9046429D02*
X49426666Y8998810D01*
X49426666Y8998810D02*
X49474285Y8951191D01*
X49474285Y8951191D02*
X49521904Y8855953D01*
X49521904Y8855953D02*
X49521904Y8617858D01*
X49521904Y8617858D02*
X49474285Y8522620D01*
X49474285Y8522620D02*
X49426666Y8475000D01*
X49426666Y8475000D02*
X49331428Y8427381D01*
X49331428Y8427381D02*
X49093333Y8427381D01*
X49093333Y8427381D02*
X48998095Y8475000D01*
X48998095Y8475000D02*
X48950476Y8522620D01*
X35022619Y4746667D02*
X35736904Y4746667D01*
X35736904Y4746667D02*
X35879761Y4699048D01*
X35879761Y4699048D02*
X35975000Y4603810D01*
X35975000Y4603810D02*
X36022619Y4460953D01*
X36022619Y4460953D02*
X36022619Y4365715D01*
X35022619Y5127620D02*
X35022619Y5794286D01*
X35022619Y5794286D02*
X36022619Y5365715D01*
X60157166Y7947381D02*
X60157166Y7233096D01*
X60157166Y7233096D02*
X60109547Y7090239D01*
X60109547Y7090239D02*
X60014309Y6995000D01*
X60014309Y6995000D02*
X59871452Y6947381D01*
X59871452Y6947381D02*
X59776214Y6947381D01*
X61157166Y6947381D02*
X60585738Y6947381D01*
X60871452Y6947381D02*
X60871452Y7947381D01*
X60871452Y7947381D02*
X60776214Y7804524D01*
X60776214Y7804524D02*
X60680976Y7709286D01*
X60680976Y7709286D02*
X60585738Y7661667D01*
X62014309Y7614048D02*
X62014309Y6947381D01*
X61776214Y7995000D02*
X61538119Y7280715D01*
X61538119Y7280715D02*
X62157166Y7280715D01*
X47079309Y540001D02*
X46079309Y540001D01*
X46079309Y540001D02*
X46079309Y920953D01*
X46079309Y920953D02*
X46126928Y1016191D01*
X46126928Y1016191D02*
X46174547Y1063810D01*
X46174547Y1063810D02*
X46269785Y1111429D01*
X46269785Y1111429D02*
X46412642Y1111429D01*
X46412642Y1111429D02*
X46507880Y1063810D01*
X46507880Y1063810D02*
X46555499Y1016191D01*
X46555499Y1016191D02*
X46603118Y920953D01*
X46603118Y920953D02*
X46603118Y540001D01*
X47079309Y2016191D02*
X47079309Y1540001D01*
X47079309Y1540001D02*
X46079309Y1540001D01*
X46793594Y2301906D02*
X46793594Y2778096D01*
X47079309Y2206668D02*
X46079309Y2540001D01*
X46079309Y2540001D02*
X47079309Y2873334D01*
X46603118Y3397144D02*
X47079309Y3397144D01*
X46079309Y3063811D02*
X46603118Y3397144D01*
X46603118Y3397144D02*
X46079309Y3730477D01*
X46412642Y4492382D02*
X47079309Y4492382D01*
X46031690Y4254287D02*
X46745975Y4016192D01*
X46745975Y4016192D02*
X46745975Y4635239D01*
X60157166Y15567381D02*
X60157166Y14853096D01*
X60157166Y14853096D02*
X60109547Y14710239D01*
X60109547Y14710239D02*
X60014309Y14615000D01*
X60014309Y14615000D02*
X59871452Y14567381D01*
X59871452Y14567381D02*
X59776214Y14567381D01*
X61157166Y14567381D02*
X60585738Y14567381D01*
X60871452Y14567381D02*
X60871452Y15567381D01*
X60871452Y15567381D02*
X60776214Y15424524D01*
X60776214Y15424524D02*
X60680976Y15329286D01*
X60680976Y15329286D02*
X60585738Y15281667D01*
X61490500Y15567381D02*
X62109547Y15567381D01*
X62109547Y15567381D02*
X61776214Y15186429D01*
X61776214Y15186429D02*
X61919071Y15186429D01*
X61919071Y15186429D02*
X62014309Y15138810D01*
X62014309Y15138810D02*
X62061928Y15091191D01*
X62061928Y15091191D02*
X62109547Y14995953D01*
X62109547Y14995953D02*
X62109547Y14757858D01*
X62109547Y14757858D02*
X62061928Y14662620D01*
X62061928Y14662620D02*
X62014309Y14615000D01*
X62014309Y14615000D02*
X61919071Y14567381D01*
X61919071Y14567381D02*
X61633357Y14567381D01*
X61633357Y14567381D02*
X61538119Y14615000D01*
X61538119Y14615000D02*
X61490500Y14662620D01*
X29043333Y14142381D02*
X28710000Y14618572D01*
X28471905Y14142381D02*
X28471905Y15142381D01*
X28471905Y15142381D02*
X28852857Y15142381D01*
X28852857Y15142381D02*
X28948095Y15094762D01*
X28948095Y15094762D02*
X28995714Y15047143D01*
X28995714Y15047143D02*
X29043333Y14951905D01*
X29043333Y14951905D02*
X29043333Y14809048D01*
X29043333Y14809048D02*
X28995714Y14713810D01*
X28995714Y14713810D02*
X28948095Y14666191D01*
X28948095Y14666191D02*
X28852857Y14618572D01*
X28852857Y14618572D02*
X28471905Y14618572D01*
X29519524Y14142381D02*
X29710000Y14142381D01*
X29710000Y14142381D02*
X29805238Y14190000D01*
X29805238Y14190000D02*
X29852857Y14237620D01*
X29852857Y14237620D02*
X29948095Y14380477D01*
X29948095Y14380477D02*
X29995714Y14570953D01*
X29995714Y14570953D02*
X29995714Y14951905D01*
X29995714Y14951905D02*
X29948095Y15047143D01*
X29948095Y15047143D02*
X29900476Y15094762D01*
X29900476Y15094762D02*
X29805238Y15142381D01*
X29805238Y15142381D02*
X29614762Y15142381D01*
X29614762Y15142381D02*
X29519524Y15094762D01*
X29519524Y15094762D02*
X29471905Y15047143D01*
X29471905Y15047143D02*
X29424286Y14951905D01*
X29424286Y14951905D02*
X29424286Y14713810D01*
X29424286Y14713810D02*
X29471905Y14618572D01*
X29471905Y14618572D02*
X29519524Y14570953D01*
X29519524Y14570953D02*
X29614762Y14523334D01*
X29614762Y14523334D02*
X29805238Y14523334D01*
X29805238Y14523334D02*
X29900476Y14570953D01*
X29900476Y14570953D02*
X29948095Y14618572D01*
X29948095Y14618572D02*
X29995714Y14713810D01*
X46552573Y16197898D02*
X46457335Y16245517D01*
X46457335Y16245517D02*
X46362097Y16340755D01*
X46362097Y16340755D02*
X46219240Y16483613D01*
X46219240Y16483613D02*
X46124002Y16531232D01*
X46124002Y16531232D02*
X46028764Y16531232D01*
X46076383Y16293136D02*
X45981145Y16340755D01*
X45981145Y16340755D02*
X45885907Y16435994D01*
X45885907Y16435994D02*
X45838288Y16626470D01*
X45838288Y16626470D02*
X45838288Y16959803D01*
X45838288Y16959803D02*
X45885907Y17150279D01*
X45885907Y17150279D02*
X45981145Y17245517D01*
X45981145Y17245517D02*
X46076383Y17293136D01*
X46076383Y17293136D02*
X46266859Y17293136D01*
X46266859Y17293136D02*
X46362097Y17245517D01*
X46362097Y17245517D02*
X46457335Y17150279D01*
X46457335Y17150279D02*
X46504954Y16959803D01*
X46504954Y16959803D02*
X46504954Y16626470D01*
X46504954Y16626470D02*
X46457335Y16435994D01*
X46457335Y16435994D02*
X46362097Y16340755D01*
X46362097Y16340755D02*
X46266859Y16293136D01*
X46266859Y16293136D02*
X46076383Y16293136D01*
X46838288Y17293136D02*
X47457335Y17293136D01*
X47457335Y17293136D02*
X47124002Y16912184D01*
X47124002Y16912184D02*
X47266859Y16912184D01*
X47266859Y16912184D02*
X47362097Y16864565D01*
X47362097Y16864565D02*
X47409716Y16816946D01*
X47409716Y16816946D02*
X47457335Y16721708D01*
X47457335Y16721708D02*
X47457335Y16483613D01*
X47457335Y16483613D02*
X47409716Y16388375D01*
X47409716Y16388375D02*
X47362097Y16340755D01*
X47362097Y16340755D02*
X47266859Y16293136D01*
X47266859Y16293136D02*
X46981145Y16293136D01*
X46981145Y16293136D02*
X46885907Y16340755D01*
X46885907Y16340755D02*
X46838288Y16388375D01*
X44972619Y27606667D02*
X45686904Y27606667D01*
X45686904Y27606667D02*
X45829761Y27559048D01*
X45829761Y27559048D02*
X45925000Y27463810D01*
X45925000Y27463810D02*
X45972619Y27320953D01*
X45972619Y27320953D02*
X45972619Y27225715D01*
X45401190Y28225715D02*
X45353571Y28130477D01*
X45353571Y28130477D02*
X45305952Y28082858D01*
X45305952Y28082858D02*
X45210714Y28035239D01*
X45210714Y28035239D02*
X45163095Y28035239D01*
X45163095Y28035239D02*
X45067857Y28082858D01*
X45067857Y28082858D02*
X45020238Y28130477D01*
X45020238Y28130477D02*
X44972619Y28225715D01*
X44972619Y28225715D02*
X44972619Y28416191D01*
X44972619Y28416191D02*
X45020238Y28511429D01*
X45020238Y28511429D02*
X45067857Y28559048D01*
X45067857Y28559048D02*
X45163095Y28606667D01*
X45163095Y28606667D02*
X45210714Y28606667D01*
X45210714Y28606667D02*
X45305952Y28559048D01*
X45305952Y28559048D02*
X45353571Y28511429D01*
X45353571Y28511429D02*
X45401190Y28416191D01*
X45401190Y28416191D02*
X45401190Y28225715D01*
X45401190Y28225715D02*
X45448809Y28130477D01*
X45448809Y28130477D02*
X45496428Y28082858D01*
X45496428Y28082858D02*
X45591666Y28035239D01*
X45591666Y28035239D02*
X45782142Y28035239D01*
X45782142Y28035239D02*
X45877380Y28082858D01*
X45877380Y28082858D02*
X45925000Y28130477D01*
X45925000Y28130477D02*
X45972619Y28225715D01*
X45972619Y28225715D02*
X45972619Y28416191D01*
X45972619Y28416191D02*
X45925000Y28511429D01*
X45925000Y28511429D02*
X45877380Y28559048D01*
X45877380Y28559048D02*
X45782142Y28606667D01*
X45782142Y28606667D02*
X45591666Y28606667D01*
X45591666Y28606667D02*
X45496428Y28559048D01*
X45496428Y28559048D02*
X45448809Y28511429D01*
X45448809Y28511429D02*
X45401190Y28416191D01*
D12*
X21900000Y19572500D02*
X23820000Y19572500D01*
X23820000Y19572500D02*
X23820000Y22257500D01*
X21900000Y22257500D02*
X21900000Y19572500D01*
X52076690Y5715000D02*
X52076690Y4445000D01*
X52076690Y4445000D02*
X52711690Y3810000D01*
X52076690Y3175000D02*
X52076690Y1905000D01*
X52076690Y1905000D02*
X52711690Y1270000D01*
X52711690Y6350000D02*
X52076690Y5715000D01*
X52711690Y3810000D02*
X52076690Y3175000D01*
X52711690Y1270000D02*
X53981690Y1270000D01*
X53981690Y6350000D02*
X52711690Y6350000D01*
X53981690Y3810000D02*
X54616690Y4445000D01*
X53981690Y1270000D02*
X54616690Y1905000D01*
X54616690Y5715000D02*
X53981690Y6350000D01*
X54616690Y4445000D02*
X54616690Y5715000D01*
X54616690Y3175000D02*
X53981690Y3810000D01*
X54616690Y1905000D02*
X54616690Y3175000D01*
X23237500Y14554564D02*
X23237500Y14100436D01*
X21767500Y14554564D02*
X21767500Y14100436D01*
X33555000Y22278748D02*
X33555000Y22801252D01*
X35025000Y22278748D02*
X35025000Y22801252D01*
X43721690Y6097936D02*
X43721690Y6552064D01*
X45191690Y6097936D02*
X45191690Y6552064D01*
X6985000Y9520000D02*
X6985000Y10790000D01*
X6985000Y10790000D02*
X6350000Y11425000D01*
X6985000Y12060000D02*
X6985000Y13330000D01*
X6985000Y13330000D02*
X6350000Y13965000D01*
X6350000Y8885000D02*
X6985000Y9520000D01*
X6350000Y11425000D02*
X6985000Y12060000D01*
X6350000Y13965000D02*
X5080000Y13965000D01*
X5080000Y8885000D02*
X6350000Y8885000D01*
X5080000Y11425000D02*
X4445000Y10790000D01*
X5080000Y13965000D02*
X4445000Y13330000D01*
X4445000Y9520000D02*
X5080000Y8885000D01*
X4445000Y10790000D02*
X4445000Y9520000D01*
X4445000Y12060000D02*
X5080000Y11425000D01*
X4445000Y13330000D02*
X4445000Y12060000D01*
X27525000Y17470000D02*
X27525000Y15550000D01*
X27525000Y15550000D02*
X30210000Y15550000D01*
X30210000Y17470000D02*
X27525000Y17470000D01*
X27940000Y10180000D02*
X24490000Y10180000D01*
X27940000Y10180000D02*
X29890000Y10180000D01*
X27940000Y5060000D02*
X25990000Y5060000D01*
X27940000Y5060000D02*
X29890000Y5060000D01*
X73660000Y9525000D02*
X73660000Y10795000D01*
X73660000Y10795000D02*
X73025000Y11430000D01*
X73660000Y12065000D02*
X73660000Y13335000D01*
X73660000Y13335000D02*
X73025000Y13970000D01*
X73025000Y8890000D02*
X73660000Y9525000D01*
X73025000Y11430000D02*
X73660000Y12065000D01*
X73025000Y13970000D02*
X71755000Y13970000D01*
X71755000Y8890000D02*
X73025000Y8890000D01*
X71755000Y11430000D02*
X71120000Y10795000D01*
X71755000Y13970000D02*
X71120000Y13335000D01*
X71120000Y9525000D02*
X71755000Y8890000D01*
X71120000Y10795000D02*
X71120000Y9525000D01*
X71120000Y12065000D02*
X71755000Y11430000D01*
X71120000Y13335000D02*
X71120000Y12065000D01*
X8399749Y18565000D02*
X7799749Y18565000D01*
X8099749Y18265000D02*
X8099749Y18865000D01*
X8180000Y20320000D02*
G75*
G03*
X8180000Y20320000I-3120000J0D01*
G01*
X40640000Y22880000D02*
X37190000Y22880000D01*
X40640000Y22880000D02*
X42590000Y22880000D01*
X40640000Y17760000D02*
X38690000Y17760000D01*
X40640000Y17760000D02*
X42590000Y17760000D01*
X12700000Y27305000D02*
X12700000Y28575000D01*
X12700000Y28575000D02*
X12065000Y29210000D01*
X12700000Y29845000D02*
X12700000Y31115000D01*
X12700000Y31115000D02*
X12065000Y31750000D01*
X12065000Y26670000D02*
X12700000Y27305000D01*
X12065000Y29210000D02*
X12700000Y29845000D01*
X12065000Y31750000D02*
X10795000Y31750000D01*
X10795000Y26670000D02*
X12065000Y26670000D01*
X10795000Y29210000D02*
X10160000Y28575000D01*
X10795000Y31750000D02*
X10160000Y31115000D01*
X10160000Y27305000D02*
X10795000Y26670000D01*
X10160000Y28575000D02*
X10160000Y27305000D01*
X10160000Y29845000D02*
X10795000Y29210000D01*
X10160000Y31115000D02*
X10160000Y29845000D01*
X33555000Y15012936D02*
X33555000Y15467064D01*
X35025000Y15012936D02*
X35025000Y15467064D01*
X16510000Y27305000D02*
X16510000Y28575000D01*
X16510000Y28575000D02*
X15875000Y29210000D01*
X16510000Y29845000D02*
X16510000Y31115000D01*
X16510000Y31115000D02*
X15875000Y31750000D01*
X15875000Y26670000D02*
X16510000Y27305000D01*
X15875000Y29210000D02*
X16510000Y29845000D01*
X15875000Y31750000D02*
X14605000Y31750000D01*
X14605000Y26670000D02*
X15875000Y26670000D01*
X14605000Y29210000D02*
X13970000Y28575000D01*
X14605000Y31750000D02*
X13970000Y31115000D01*
X13970000Y27305000D02*
X14605000Y26670000D01*
X13970000Y28575000D02*
X13970000Y27305000D01*
X13970000Y29845000D02*
X14605000Y29210000D01*
X13970000Y31115000D02*
X13970000Y29845000D01*
X43496690Y855000D02*
X45416690Y855000D01*
X45416690Y855000D02*
X45416690Y3540000D01*
X43496690Y3540000D02*
X43496690Y855000D01*
X12590000Y20380000D02*
X12590000Y2480000D01*
X12590000Y2480000D02*
X17890000Y2480000D01*
X14240000Y20380000D02*
X12590000Y20380000D01*
X17890000Y20380000D02*
X16240000Y20380000D01*
X17890000Y2480000D02*
X17890000Y20380000D01*
X14240000Y20380000D02*
G75*
G03*
X16240000Y20380000I1000000J0D01*
G01*
X17862500Y23170000D02*
X17862500Y25090000D01*
X17862500Y25090000D02*
X15177500Y25090000D01*
X15177500Y23170000D02*
X17862500Y23170000D01*
X63500000Y5722566D02*
X63500000Y4452566D01*
X63500000Y4452566D02*
X64135000Y3817566D01*
X63500000Y3182566D02*
X63500000Y1912566D01*
X63500000Y1912566D02*
X64135000Y1277566D01*
X64135000Y6357566D02*
X63500000Y5722566D01*
X64135000Y3817566D02*
X63500000Y3182566D01*
X64135000Y1277566D02*
X65405000Y1277566D01*
X65405000Y6357566D02*
X64135000Y6357566D01*
X65405000Y3817566D02*
X66040000Y4452566D01*
X65405000Y1277566D02*
X66040000Y1912566D01*
X66040000Y5722566D02*
X65405000Y6357566D01*
X66040000Y4452566D02*
X66040000Y5722566D01*
X66040000Y3182566D02*
X65405000Y3817566D01*
X66040000Y1912566D02*
X66040000Y3182566D01*
X55886690Y5715000D02*
X55886690Y4445000D01*
X55886690Y4445000D02*
X56521690Y3810000D01*
X55886690Y3175000D02*
X55886690Y1905000D01*
X55886690Y1905000D02*
X56521690Y1270000D01*
X56521690Y6350000D02*
X55886690Y5715000D01*
X56521690Y3810000D02*
X55886690Y3175000D01*
X56521690Y1270000D02*
X57791690Y1270000D01*
X57791690Y6350000D02*
X56521690Y6350000D01*
X57791690Y3810000D02*
X58426690Y4445000D01*
X57791690Y1270000D02*
X58426690Y1905000D01*
X58426690Y5715000D02*
X57791690Y6350000D01*
X58426690Y4445000D02*
X58426690Y5715000D01*
X58426690Y3175000D02*
X57791690Y3810000D01*
X58426690Y1905000D02*
X58426690Y3175000D01*
X52076690Y13335000D02*
X52076690Y12065000D01*
X52076690Y12065000D02*
X52711690Y11430000D01*
X52076690Y10795000D02*
X52076690Y9525000D01*
X52076690Y9525000D02*
X52711690Y8890000D01*
X52711690Y13970000D02*
X52076690Y13335000D01*
X52711690Y11430000D02*
X52076690Y10795000D01*
X52711690Y8890000D02*
X53981690Y8890000D01*
X53981690Y13970000D02*
X52711690Y13970000D01*
X53981690Y11430000D02*
X54616690Y12065000D01*
X53981690Y8890000D02*
X54616690Y9525000D01*
X54616690Y13335000D02*
X53981690Y13970000D01*
X54616690Y12065000D02*
X54616690Y13335000D01*
X54616690Y10795000D02*
X53981690Y11430000D01*
X54616690Y9525000D02*
X54616690Y10795000D01*
X47725000Y21459564D02*
X47725000Y21005436D01*
X46255000Y21459564D02*
X46255000Y21005436D01*
X32914564Y27205000D02*
X32460436Y27205000D01*
X32914564Y28675000D02*
X32460436Y28675000D01*
X63506690Y13335000D02*
X63506690Y12065000D01*
X63506690Y12065000D02*
X64141690Y11430000D01*
X63506690Y10795000D02*
X63506690Y9525000D01*
X63506690Y9525000D02*
X64141690Y8890000D01*
X64141690Y13970000D02*
X63506690Y13335000D01*
X64141690Y11430000D02*
X63506690Y10795000D01*
X64141690Y8890000D02*
X65411690Y8890000D01*
X65411690Y13970000D02*
X64141690Y13970000D01*
X65411690Y11430000D02*
X66046690Y12065000D01*
X65411690Y8890000D02*
X66046690Y9525000D01*
X66046690Y13335000D02*
X65411690Y13970000D01*
X66046690Y12065000D02*
X66046690Y13335000D01*
X66046690Y10795000D02*
X65411690Y11430000D01*
X66046690Y9525000D02*
X66046690Y10795000D01*
X36830000Y12065000D02*
X36830000Y10795000D01*
X36830000Y10795000D02*
X37465000Y10160000D01*
X36830000Y9525000D02*
X36830000Y8255000D01*
X36830000Y8255000D02*
X37465000Y7620000D01*
X37465000Y12700000D02*
X36830000Y12065000D01*
X37465000Y10160000D02*
X36830000Y9525000D01*
X37465000Y7620000D02*
X38735000Y7620000D01*
X38735000Y12700000D02*
X37465000Y12700000D01*
X38735000Y10160000D02*
X39370000Y10795000D01*
X38735000Y7620000D02*
X39370000Y8255000D01*
X39370000Y12065000D02*
X38735000Y12700000D01*
X39370000Y10795000D02*
X39370000Y12065000D01*
X39370000Y9525000D02*
X38735000Y10160000D01*
X39370000Y8255000D02*
X39370000Y9525000D01*
D11*
X56900000Y25400000D02*
X58833000Y25400000D01*
X56900000Y25400000D02*
X56900000Y15240000D01*
X56900000Y15240000D02*
X58833000Y15240000D01*
X50465000Y22864000D02*
G75*
G03*
X50465000Y22864000I-92000J0D01*
G01*
D12*
X55886690Y13335000D02*
X55886690Y12065000D01*
X55886690Y12065000D02*
X56521690Y11430000D01*
X55886690Y10795000D02*
X55886690Y9525000D01*
X55886690Y9525000D02*
X56521690Y8890000D01*
X56521690Y13970000D02*
X55886690Y13335000D01*
X56521690Y11430000D02*
X55886690Y10795000D01*
X56521690Y8890000D02*
X57791690Y8890000D01*
X57791690Y13970000D02*
X56521690Y13970000D01*
X57791690Y11430000D02*
X58426690Y12065000D01*
X57791690Y8890000D02*
X58426690Y9525000D01*
X58426690Y13335000D02*
X57791690Y13970000D01*
X58426690Y12065000D02*
X58426690Y13335000D01*
X58426690Y10795000D02*
X57791690Y11430000D01*
X58426690Y9525000D02*
X58426690Y10795000D01*
X47531690Y6097936D02*
X47531690Y6552064D01*
X49001690Y6097936D02*
X49001690Y6552064D01*
X36830000Y6985000D02*
X36830000Y5715000D01*
X36830000Y5715000D02*
X37465000Y5080000D01*
X36830000Y4445000D02*
X36830000Y3175000D01*
X36830000Y3175000D02*
X37465000Y2540000D01*
X37465000Y7620000D02*
X36830000Y6985000D01*
X37465000Y5080000D02*
X36830000Y4445000D01*
X37465000Y2540000D02*
X38735000Y2540000D01*
X38735000Y7620000D02*
X37465000Y7620000D01*
X38735000Y5080000D02*
X39370000Y5715000D01*
X38735000Y2540000D02*
X39370000Y3175000D01*
X39370000Y6985000D02*
X38735000Y7620000D01*
X39370000Y5715000D02*
X39370000Y6985000D01*
X39370000Y4445000D02*
X38735000Y5080000D01*
X39370000Y3175000D02*
X39370000Y4445000D01*
X59696690Y5715000D02*
X59696690Y4445000D01*
X59696690Y4445000D02*
X60331690Y3810000D01*
X59696690Y3175000D02*
X59696690Y1905000D01*
X59696690Y1905000D02*
X60331690Y1270000D01*
X60331690Y6350000D02*
X59696690Y5715000D01*
X60331690Y3810000D02*
X59696690Y3175000D01*
X60331690Y1270000D02*
X61601690Y1270000D01*
X61601690Y6350000D02*
X60331690Y6350000D01*
X61601690Y3810000D02*
X62236690Y4445000D01*
X61601690Y1270000D02*
X62236690Y1905000D01*
X62236690Y5715000D02*
X61601690Y6350000D01*
X62236690Y4445000D02*
X62236690Y5715000D01*
X62236690Y3175000D02*
X61601690Y3810000D01*
X62236690Y1905000D02*
X62236690Y3175000D01*
X47306690Y855000D02*
X49226690Y855000D01*
X49226690Y855000D02*
X49226690Y3540000D01*
X47306690Y3540000D02*
X47306690Y855000D01*
X59696690Y13335000D02*
X59696690Y12065000D01*
X59696690Y12065000D02*
X60331690Y11430000D01*
X59696690Y10795000D02*
X59696690Y9525000D01*
X59696690Y9525000D02*
X60331690Y8890000D01*
X60331690Y13970000D02*
X59696690Y13335000D01*
X60331690Y11430000D02*
X59696690Y10795000D01*
X60331690Y8890000D02*
X61601690Y8890000D01*
X61601690Y13970000D02*
X60331690Y13970000D01*
X61601690Y11430000D02*
X62236690Y12065000D01*
X61601690Y8890000D02*
X62236690Y9525000D01*
X62236690Y13335000D02*
X61601690Y13970000D01*
X62236690Y12065000D02*
X62236690Y13335000D01*
X62236690Y10795000D02*
X61601690Y11430000D01*
X62236690Y9525000D02*
X62236690Y10795000D01*
X29437064Y18315000D02*
X28982936Y18315000D01*
X29437064Y19785000D02*
X28982936Y19785000D01*
X46664190Y15850000D02*
X44989190Y15850000D01*
X46664190Y15850000D02*
X47314190Y15850000D01*
X46664190Y12730000D02*
X46014190Y12730000D01*
X46664190Y12730000D02*
X47314190Y12730000D01*
X43815000Y29210000D02*
X42545000Y29210000D01*
X42545000Y29210000D02*
X41910000Y28575000D01*
X41275000Y29210000D02*
X40005000Y29210000D01*
X40005000Y29210000D02*
X39370000Y28575000D01*
X44450000Y28575000D02*
X43815000Y29210000D01*
X41910000Y28575000D02*
X41275000Y29210000D01*
X39370000Y28575000D02*
X39370000Y27305000D01*
X44450000Y27305000D02*
X44450000Y28575000D01*
X41910000Y27305000D02*
X42545000Y26670000D01*
X39370000Y27305000D02*
X40005000Y26670000D01*
X43815000Y26670000D02*
X44450000Y27305000D01*
X42545000Y26670000D02*
X43815000Y26670000D01*
X41275000Y26670000D02*
X41910000Y27305000D01*
X40005000Y26670000D02*
X41275000Y26670000D01*
M02*
