G04 #@! TF.GenerationSoftware,KiCad,Pcbnew,7.0.2-6a45011f42~172~ubuntu22.04.1*
G04 #@! TF.CreationDate,2023-04-28T22:36:37-05:00*
G04 #@! TF.ProjectId,laser,6c617365-722e-46b6-9963-61645f706362,rev?*
G04 #@! TF.SameCoordinates,PXc1c960PY791ddc0*
G04 #@! TF.FileFunction,AssemblyDrawing,Top*
%FSLAX46Y46*%
G04 Gerber Fmt 4.6, Leading zero omitted, Abs format (unit mm)*
G04 Created by KiCad (PCBNEW 7.0.2-6a45011f42~172~ubuntu22.04.1) date 2023-04-28 22:36:37*
%MOMM*%
%LPD*%
G01*
G04 APERTURE LIST*
%ADD10C,0.150000*%
%ADD11C,0.080000*%
%ADD12C,0.254000*%
%ADD13C,0.050000*%
%ADD14C,0.100000*%
G04 APERTURE END LIST*
D10*
X24972619Y20686072D02*
X24496428Y20352739D01*
X24972619Y20114644D02*
X23972619Y20114644D01*
X23972619Y20114644D02*
X23972619Y20495596D01*
X23972619Y20495596D02*
X24020238Y20590834D01*
X24020238Y20590834D02*
X24067857Y20638453D01*
X24067857Y20638453D02*
X24163095Y20686072D01*
X24163095Y20686072D02*
X24305952Y20686072D01*
X24305952Y20686072D02*
X24401190Y20638453D01*
X24401190Y20638453D02*
X24448809Y20590834D01*
X24448809Y20590834D02*
X24496428Y20495596D01*
X24496428Y20495596D02*
X24496428Y20114644D01*
X24925000Y21495596D02*
X24972619Y21400358D01*
X24972619Y21400358D02*
X24972619Y21209882D01*
X24972619Y21209882D02*
X24925000Y21114644D01*
X24925000Y21114644D02*
X24829761Y21067025D01*
X24829761Y21067025D02*
X24448809Y21067025D01*
X24448809Y21067025D02*
X24353571Y21114644D01*
X24353571Y21114644D02*
X24305952Y21209882D01*
X24305952Y21209882D02*
X24305952Y21400358D01*
X24305952Y21400358D02*
X24353571Y21495596D01*
X24353571Y21495596D02*
X24448809Y21543215D01*
X24448809Y21543215D02*
X24544047Y21543215D01*
X24544047Y21543215D02*
X24639285Y21067025D01*
X24972619Y22400358D02*
X23972619Y22400358D01*
X24925000Y22400358D02*
X24972619Y22305120D01*
X24972619Y22305120D02*
X24972619Y22114644D01*
X24972619Y22114644D02*
X24925000Y22019406D01*
X24925000Y22019406D02*
X24877380Y21971787D01*
X24877380Y21971787D02*
X24782142Y21924168D01*
X24782142Y21924168D02*
X24496428Y21924168D01*
X24496428Y21924168D02*
X24401190Y21971787D01*
X24401190Y21971787D02*
X24353571Y22019406D01*
X24353571Y22019406D02*
X24305952Y22114644D01*
X24305952Y22114644D02*
X24305952Y22305120D01*
X24305952Y22305120D02*
X24353571Y22400358D01*
D11*
X23091309Y20697977D02*
X22853214Y20531311D01*
X23091309Y20412263D02*
X22591309Y20412263D01*
X22591309Y20412263D02*
X22591309Y20602739D01*
X22591309Y20602739D02*
X22615119Y20650358D01*
X22615119Y20650358D02*
X22638928Y20674168D01*
X22638928Y20674168D02*
X22686547Y20697977D01*
X22686547Y20697977D02*
X22757976Y20697977D01*
X22757976Y20697977D02*
X22805595Y20674168D01*
X22805595Y20674168D02*
X22829404Y20650358D01*
X22829404Y20650358D02*
X22853214Y20602739D01*
X22853214Y20602739D02*
X22853214Y20412263D01*
X22829404Y20912263D02*
X22829404Y21078930D01*
X23091309Y21150358D02*
X23091309Y20912263D01*
X23091309Y20912263D02*
X22591309Y20912263D01*
X22591309Y20912263D02*
X22591309Y21150358D01*
X23043690Y21650358D02*
X23067500Y21626549D01*
X23067500Y21626549D02*
X23091309Y21555120D01*
X23091309Y21555120D02*
X23091309Y21507501D01*
X23091309Y21507501D02*
X23067500Y21436073D01*
X23067500Y21436073D02*
X23019880Y21388454D01*
X23019880Y21388454D02*
X22972261Y21364644D01*
X22972261Y21364644D02*
X22877023Y21340835D01*
X22877023Y21340835D02*
X22805595Y21340835D01*
X22805595Y21340835D02*
X22710357Y21364644D01*
X22710357Y21364644D02*
X22662738Y21388454D01*
X22662738Y21388454D02*
X22615119Y21436073D01*
X22615119Y21436073D02*
X22591309Y21507501D01*
X22591309Y21507501D02*
X22591309Y21555120D01*
X22591309Y21555120D02*
X22615119Y21626549D01*
X22615119Y21626549D02*
X22638928Y21650358D01*
X23091309Y22126549D02*
X23091309Y21840835D01*
X23091309Y21983692D02*
X22591309Y21983692D01*
X22591309Y21983692D02*
X22662738Y21936073D01*
X22662738Y21936073D02*
X22710357Y21888454D01*
X22710357Y21888454D02*
X22734166Y21840835D01*
D10*
X52703832Y-252619D02*
X52227642Y-252619D01*
X52227642Y-252619D02*
X52227642Y747381D01*
X53037166Y271191D02*
X53370499Y271191D01*
X53513356Y-252619D02*
X53037166Y-252619D01*
X53037166Y-252619D02*
X53037166Y747381D01*
X53037166Y747381D02*
X53513356Y747381D01*
X53941928Y-252619D02*
X53941928Y747381D01*
X53941928Y747381D02*
X54180023Y747381D01*
X54180023Y747381D02*
X54322880Y699762D01*
X54322880Y699762D02*
X54418118Y604524D01*
X54418118Y604524D02*
X54465737Y509286D01*
X54465737Y509286D02*
X54513356Y318810D01*
X54513356Y318810D02*
X54513356Y175953D01*
X54513356Y175953D02*
X54465737Y-14523D01*
X54465737Y-14523D02*
X54418118Y-109761D01*
X54418118Y-109761D02*
X54322880Y-205000D01*
X54322880Y-205000D02*
X54180023Y-252619D01*
X54180023Y-252619D02*
X53941928Y-252619D01*
X52809309Y3000477D02*
X53523594Y3000477D01*
X53523594Y3000477D02*
X53666451Y2952858D01*
X53666451Y2952858D02*
X53761690Y2857620D01*
X53761690Y2857620D02*
X53809309Y2714763D01*
X53809309Y2714763D02*
X53809309Y2619525D01*
X53809309Y4000477D02*
X53809309Y3429049D01*
X53809309Y3714763D02*
X52809309Y3714763D01*
X52809309Y3714763D02*
X52952166Y3619525D01*
X52952166Y3619525D02*
X53047404Y3524287D01*
X53047404Y3524287D02*
X53095023Y3429049D01*
X52809309Y4619525D02*
X52809309Y4714763D01*
X52809309Y4714763D02*
X52856928Y4810001D01*
X52856928Y4810001D02*
X52904547Y4857620D01*
X52904547Y4857620D02*
X52999785Y4905239D01*
X52999785Y4905239D02*
X53190261Y4952858D01*
X53190261Y4952858D02*
X53428356Y4952858D01*
X53428356Y4952858D02*
X53618832Y4905239D01*
X53618832Y4905239D02*
X53714070Y4857620D01*
X53714070Y4857620D02*
X53761690Y4810001D01*
X53761690Y4810001D02*
X53809309Y4714763D01*
X53809309Y4714763D02*
X53809309Y4619525D01*
X53809309Y4619525D02*
X53761690Y4524287D01*
X53761690Y4524287D02*
X53714070Y4476668D01*
X53714070Y4476668D02*
X53618832Y4429049D01*
X53618832Y4429049D02*
X53428356Y4381430D01*
X53428356Y4381430D02*
X53190261Y4381430D01*
X53190261Y4381430D02*
X52999785Y4429049D01*
X52999785Y4429049D02*
X52904547Y4476668D01*
X52904547Y4476668D02*
X52856928Y4524287D01*
X52856928Y4524287D02*
X52809309Y4619525D01*
X21315119Y13732262D02*
X21315119Y13160834D01*
X21315119Y13446548D02*
X20315119Y13446548D01*
X20315119Y13446548D02*
X20457976Y13351310D01*
X20457976Y13351310D02*
X20553214Y13256072D01*
X20553214Y13256072D02*
X20600833Y13160834D01*
X20315119Y14351310D02*
X20315119Y14446548D01*
X20315119Y14446548D02*
X20362738Y14541786D01*
X20362738Y14541786D02*
X20410357Y14589405D01*
X20410357Y14589405D02*
X20505595Y14637024D01*
X20505595Y14637024D02*
X20696071Y14684643D01*
X20696071Y14684643D02*
X20934166Y14684643D01*
X20934166Y14684643D02*
X21124642Y14637024D01*
X21124642Y14637024D02*
X21219880Y14589405D01*
X21219880Y14589405D02*
X21267500Y14541786D01*
X21267500Y14541786D02*
X21315119Y14446548D01*
X21315119Y14446548D02*
X21315119Y14351310D01*
X21315119Y14351310D02*
X21267500Y14256072D01*
X21267500Y14256072D02*
X21219880Y14208453D01*
X21219880Y14208453D02*
X21124642Y14160834D01*
X21124642Y14160834D02*
X20934166Y14113215D01*
X20934166Y14113215D02*
X20696071Y14113215D01*
X20696071Y14113215D02*
X20505595Y14160834D01*
X20505595Y14160834D02*
X20410357Y14208453D01*
X20410357Y14208453D02*
X20362738Y14256072D01*
X20362738Y14256072D02*
X20315119Y14351310D01*
X21315119Y15113215D02*
X20315119Y15113215D01*
X20934166Y15208453D02*
X21315119Y15494167D01*
X20648452Y15494167D02*
X21029404Y15113215D01*
D11*
X22733809Y14244167D02*
X22495714Y14077501D01*
X22733809Y13958453D02*
X22233809Y13958453D01*
X22233809Y13958453D02*
X22233809Y14148929D01*
X22233809Y14148929D02*
X22257619Y14196548D01*
X22257619Y14196548D02*
X22281428Y14220358D01*
X22281428Y14220358D02*
X22329047Y14244167D01*
X22329047Y14244167D02*
X22400476Y14244167D01*
X22400476Y14244167D02*
X22448095Y14220358D01*
X22448095Y14220358D02*
X22471904Y14196548D01*
X22471904Y14196548D02*
X22495714Y14148929D01*
X22495714Y14148929D02*
X22495714Y13958453D01*
X22448095Y14529882D02*
X22424285Y14482263D01*
X22424285Y14482263D02*
X22400476Y14458453D01*
X22400476Y14458453D02*
X22352857Y14434644D01*
X22352857Y14434644D02*
X22329047Y14434644D01*
X22329047Y14434644D02*
X22281428Y14458453D01*
X22281428Y14458453D02*
X22257619Y14482263D01*
X22257619Y14482263D02*
X22233809Y14529882D01*
X22233809Y14529882D02*
X22233809Y14625120D01*
X22233809Y14625120D02*
X22257619Y14672739D01*
X22257619Y14672739D02*
X22281428Y14696548D01*
X22281428Y14696548D02*
X22329047Y14720358D01*
X22329047Y14720358D02*
X22352857Y14720358D01*
X22352857Y14720358D02*
X22400476Y14696548D01*
X22400476Y14696548D02*
X22424285Y14672739D01*
X22424285Y14672739D02*
X22448095Y14625120D01*
X22448095Y14625120D02*
X22448095Y14529882D01*
X22448095Y14529882D02*
X22471904Y14482263D01*
X22471904Y14482263D02*
X22495714Y14458453D01*
X22495714Y14458453D02*
X22543333Y14434644D01*
X22543333Y14434644D02*
X22638571Y14434644D01*
X22638571Y14434644D02*
X22686190Y14458453D01*
X22686190Y14458453D02*
X22710000Y14482263D01*
X22710000Y14482263D02*
X22733809Y14529882D01*
X22733809Y14529882D02*
X22733809Y14625120D01*
X22733809Y14625120D02*
X22710000Y14672739D01*
X22710000Y14672739D02*
X22686190Y14696548D01*
X22686190Y14696548D02*
X22638571Y14720358D01*
X22638571Y14720358D02*
X22543333Y14720358D01*
X22543333Y14720358D02*
X22495714Y14696548D01*
X22495714Y14696548D02*
X22471904Y14672739D01*
X22471904Y14672739D02*
X22448095Y14625120D01*
D10*
X36432619Y21873334D02*
X36432619Y21301906D01*
X36432619Y21587620D02*
X35432619Y21587620D01*
X35432619Y21587620D02*
X35575476Y21492382D01*
X35575476Y21492382D02*
X35670714Y21397144D01*
X35670714Y21397144D02*
X35718333Y21301906D01*
X35432619Y22492382D02*
X35432619Y22587620D01*
X35432619Y22587620D02*
X35480238Y22682858D01*
X35480238Y22682858D02*
X35527857Y22730477D01*
X35527857Y22730477D02*
X35623095Y22778096D01*
X35623095Y22778096D02*
X35813571Y22825715D01*
X35813571Y22825715D02*
X36051666Y22825715D01*
X36051666Y22825715D02*
X36242142Y22778096D01*
X36242142Y22778096D02*
X36337380Y22730477D01*
X36337380Y22730477D02*
X36385000Y22682858D01*
X36385000Y22682858D02*
X36432619Y22587620D01*
X36432619Y22587620D02*
X36432619Y22492382D01*
X36432619Y22492382D02*
X36385000Y22397144D01*
X36385000Y22397144D02*
X36337380Y22349525D01*
X36337380Y22349525D02*
X36242142Y22301906D01*
X36242142Y22301906D02*
X36051666Y22254287D01*
X36051666Y22254287D02*
X35813571Y22254287D01*
X35813571Y22254287D02*
X35623095Y22301906D01*
X35623095Y22301906D02*
X35527857Y22349525D01*
X35527857Y22349525D02*
X35480238Y22397144D01*
X35480238Y22397144D02*
X35432619Y22492382D01*
X35432619Y23682858D02*
X35432619Y23492382D01*
X35432619Y23492382D02*
X35480238Y23397144D01*
X35480238Y23397144D02*
X35527857Y23349525D01*
X35527857Y23349525D02*
X35670714Y23254287D01*
X35670714Y23254287D02*
X35861190Y23206668D01*
X35861190Y23206668D02*
X36242142Y23206668D01*
X36242142Y23206668D02*
X36337380Y23254287D01*
X36337380Y23254287D02*
X36385000Y23301906D01*
X36385000Y23301906D02*
X36432619Y23397144D01*
X36432619Y23397144D02*
X36432619Y23587620D01*
X36432619Y23587620D02*
X36385000Y23682858D01*
X36385000Y23682858D02*
X36337380Y23730477D01*
X36337380Y23730477D02*
X36242142Y23778096D01*
X36242142Y23778096D02*
X36004047Y23778096D01*
X36004047Y23778096D02*
X35908809Y23730477D01*
X35908809Y23730477D02*
X35861190Y23682858D01*
X35861190Y23682858D02*
X35813571Y23587620D01*
X35813571Y23587620D02*
X35813571Y23397144D01*
X35813571Y23397144D02*
X35861190Y23301906D01*
X35861190Y23301906D02*
X35908809Y23254287D01*
X35908809Y23254287D02*
X36004047Y23206668D01*
D11*
X34473690Y22218572D02*
X34497500Y22194763D01*
X34497500Y22194763D02*
X34521309Y22123334D01*
X34521309Y22123334D02*
X34521309Y22075715D01*
X34521309Y22075715D02*
X34497500Y22004287D01*
X34497500Y22004287D02*
X34449880Y21956668D01*
X34449880Y21956668D02*
X34402261Y21932858D01*
X34402261Y21932858D02*
X34307023Y21909049D01*
X34307023Y21909049D02*
X34235595Y21909049D01*
X34235595Y21909049D02*
X34140357Y21932858D01*
X34140357Y21932858D02*
X34092738Y21956668D01*
X34092738Y21956668D02*
X34045119Y22004287D01*
X34045119Y22004287D02*
X34021309Y22075715D01*
X34021309Y22075715D02*
X34021309Y22123334D01*
X34021309Y22123334D02*
X34045119Y22194763D01*
X34045119Y22194763D02*
X34068928Y22218572D01*
X34521309Y22694763D02*
X34521309Y22409049D01*
X34521309Y22551906D02*
X34021309Y22551906D01*
X34021309Y22551906D02*
X34092738Y22504287D01*
X34092738Y22504287D02*
X34140357Y22456668D01*
X34140357Y22456668D02*
X34164166Y22409049D01*
X34021309Y22861429D02*
X34021309Y23170953D01*
X34021309Y23170953D02*
X34211785Y23004286D01*
X34211785Y23004286D02*
X34211785Y23075715D01*
X34211785Y23075715D02*
X34235595Y23123334D01*
X34235595Y23123334D02*
X34259404Y23147143D01*
X34259404Y23147143D02*
X34307023Y23170953D01*
X34307023Y23170953D02*
X34426071Y23170953D01*
X34426071Y23170953D02*
X34473690Y23147143D01*
X34473690Y23147143D02*
X34497500Y23123334D01*
X34497500Y23123334D02*
X34521309Y23075715D01*
X34521309Y23075715D02*
X34521309Y22932858D01*
X34521309Y22932858D02*
X34497500Y22885239D01*
X34497500Y22885239D02*
X34473690Y22861429D01*
D10*
X45664547Y4134525D02*
X45616928Y4182144D01*
X45616928Y4182144D02*
X45569309Y4277382D01*
X45569309Y4277382D02*
X45569309Y4515477D01*
X45569309Y4515477D02*
X45616928Y4610715D01*
X45616928Y4610715D02*
X45664547Y4658334D01*
X45664547Y4658334D02*
X45759785Y4705953D01*
X45759785Y4705953D02*
X45855023Y4705953D01*
X45855023Y4705953D02*
X45997880Y4658334D01*
X45997880Y4658334D02*
X46569309Y4086906D01*
X46569309Y4086906D02*
X46569309Y4705953D01*
X45569309Y5325001D02*
X45569309Y5420239D01*
X45569309Y5420239D02*
X45616928Y5515477D01*
X45616928Y5515477D02*
X45664547Y5563096D01*
X45664547Y5563096D02*
X45759785Y5610715D01*
X45759785Y5610715D02*
X45950261Y5658334D01*
X45950261Y5658334D02*
X46188356Y5658334D01*
X46188356Y5658334D02*
X46378832Y5610715D01*
X46378832Y5610715D02*
X46474070Y5563096D01*
X46474070Y5563096D02*
X46521690Y5515477D01*
X46521690Y5515477D02*
X46569309Y5420239D01*
X46569309Y5420239D02*
X46569309Y5325001D01*
X46569309Y5325001D02*
X46521690Y5229763D01*
X46521690Y5229763D02*
X46474070Y5182144D01*
X46474070Y5182144D02*
X46378832Y5134525D01*
X46378832Y5134525D02*
X46188356Y5086906D01*
X46188356Y5086906D02*
X45950261Y5086906D01*
X45950261Y5086906D02*
X45759785Y5134525D01*
X45759785Y5134525D02*
X45664547Y5182144D01*
X45664547Y5182144D02*
X45616928Y5229763D01*
X45616928Y5229763D02*
X45569309Y5325001D01*
X45569309Y6277382D02*
X45569309Y6372620D01*
X45569309Y6372620D02*
X45616928Y6467858D01*
X45616928Y6467858D02*
X45664547Y6515477D01*
X45664547Y6515477D02*
X45759785Y6563096D01*
X45759785Y6563096D02*
X45950261Y6610715D01*
X45950261Y6610715D02*
X46188356Y6610715D01*
X46188356Y6610715D02*
X46378832Y6563096D01*
X46378832Y6563096D02*
X46474070Y6515477D01*
X46474070Y6515477D02*
X46521690Y6467858D01*
X46521690Y6467858D02*
X46569309Y6372620D01*
X46569309Y6372620D02*
X46569309Y6277382D01*
X46569309Y6277382D02*
X46521690Y6182144D01*
X46521690Y6182144D02*
X46474070Y6134525D01*
X46474070Y6134525D02*
X46378832Y6086906D01*
X46378832Y6086906D02*
X46188356Y6039287D01*
X46188356Y6039287D02*
X45950261Y6039287D01*
X45950261Y6039287D02*
X45759785Y6086906D01*
X45759785Y6086906D02*
X45664547Y6134525D01*
X45664547Y6134525D02*
X45616928Y6182144D01*
X45616928Y6182144D02*
X45569309Y6277382D01*
X46569309Y7753573D02*
X46569309Y7991668D01*
X46569309Y7991668D02*
X46378832Y7991668D01*
X46378832Y7991668D02*
X46331213Y7896430D01*
X46331213Y7896430D02*
X46235975Y7801192D01*
X46235975Y7801192D02*
X46093118Y7753573D01*
X46093118Y7753573D02*
X45855023Y7753573D01*
X45855023Y7753573D02*
X45712166Y7801192D01*
X45712166Y7801192D02*
X45616928Y7896430D01*
X45616928Y7896430D02*
X45569309Y8039287D01*
X45569309Y8039287D02*
X45569309Y8229763D01*
X45569309Y8229763D02*
X45616928Y8372620D01*
X45616928Y8372620D02*
X45712166Y8467858D01*
X45712166Y8467858D02*
X45855023Y8515477D01*
X45855023Y8515477D02*
X46093118Y8515477D01*
X46093118Y8515477D02*
X46235975Y8467858D01*
X46235975Y8467858D02*
X46331213Y8372620D01*
X46331213Y8372620D02*
X46378832Y8277382D01*
X46378832Y8277382D02*
X46569309Y8277382D01*
X46569309Y8277382D02*
X46569309Y8515477D01*
D11*
X44687999Y6003572D02*
X44449904Y5836906D01*
X44687999Y5717858D02*
X44187999Y5717858D01*
X44187999Y5717858D02*
X44187999Y5908334D01*
X44187999Y5908334D02*
X44211809Y5955953D01*
X44211809Y5955953D02*
X44235618Y5979763D01*
X44235618Y5979763D02*
X44283237Y6003572D01*
X44283237Y6003572D02*
X44354666Y6003572D01*
X44354666Y6003572D02*
X44402285Y5979763D01*
X44402285Y5979763D02*
X44426094Y5955953D01*
X44426094Y5955953D02*
X44449904Y5908334D01*
X44449904Y5908334D02*
X44449904Y5717858D01*
X44687999Y6479763D02*
X44687999Y6194049D01*
X44687999Y6336906D02*
X44187999Y6336906D01*
X44187999Y6336906D02*
X44259428Y6289287D01*
X44259428Y6289287D02*
X44307047Y6241668D01*
X44307047Y6241668D02*
X44330856Y6194049D01*
X44187999Y6646429D02*
X44187999Y6979762D01*
X44187999Y6979762D02*
X44687999Y6765477D01*
D10*
X4715000Y14562381D02*
X4715000Y15562381D01*
X4715000Y15562381D02*
X5048333Y14848096D01*
X5048333Y14848096D02*
X5381666Y15562381D01*
X5381666Y15562381D02*
X5381666Y14562381D01*
X5857857Y14562381D02*
X5857857Y15229048D01*
X5857857Y15562381D02*
X5810238Y15514762D01*
X5810238Y15514762D02*
X5857857Y15467143D01*
X5857857Y15467143D02*
X5905476Y15514762D01*
X5905476Y15514762D02*
X5857857Y15562381D01*
X5857857Y15562381D02*
X5857857Y15467143D01*
X6762618Y14610000D02*
X6667380Y14562381D01*
X6667380Y14562381D02*
X6476904Y14562381D01*
X6476904Y14562381D02*
X6381666Y14610000D01*
X6381666Y14610000D02*
X6334047Y14657620D01*
X6334047Y14657620D02*
X6286428Y14752858D01*
X6286428Y14752858D02*
X6286428Y15038572D01*
X6286428Y15038572D02*
X6334047Y15133810D01*
X6334047Y15133810D02*
X6381666Y15181429D01*
X6381666Y15181429D02*
X6476904Y15229048D01*
X6476904Y15229048D02*
X6667380Y15229048D01*
X6667380Y15229048D02*
X6762618Y15181429D01*
X5177619Y11091667D02*
X5891904Y11091667D01*
X5891904Y11091667D02*
X6034761Y11044048D01*
X6034761Y11044048D02*
X6130000Y10948810D01*
X6130000Y10948810D02*
X6177619Y10805953D01*
X6177619Y10805953D02*
X6177619Y10710715D01*
X5510952Y11996429D02*
X6177619Y11996429D01*
X5130000Y11758334D02*
X5844285Y11520239D01*
X5844285Y11520239D02*
X5844285Y12139286D01*
X27852856Y15349762D02*
X27757618Y15397381D01*
X27757618Y15397381D02*
X27614761Y15397381D01*
X27614761Y15397381D02*
X27471904Y15349762D01*
X27471904Y15349762D02*
X27376666Y15254524D01*
X27376666Y15254524D02*
X27329047Y15159286D01*
X27329047Y15159286D02*
X27281428Y14968810D01*
X27281428Y14968810D02*
X27281428Y14825953D01*
X27281428Y14825953D02*
X27329047Y14635477D01*
X27329047Y14635477D02*
X27376666Y14540239D01*
X27376666Y14540239D02*
X27471904Y14445000D01*
X27471904Y14445000D02*
X27614761Y14397381D01*
X27614761Y14397381D02*
X27709999Y14397381D01*
X27709999Y14397381D02*
X27852856Y14445000D01*
X27852856Y14445000D02*
X27900475Y14492620D01*
X27900475Y14492620D02*
X27900475Y14825953D01*
X27900475Y14825953D02*
X27709999Y14825953D01*
X28329047Y14397381D02*
X28329047Y15064048D01*
X28329047Y14873572D02*
X28376666Y14968810D01*
X28376666Y14968810D02*
X28424285Y15016429D01*
X28424285Y15016429D02*
X28519523Y15064048D01*
X28519523Y15064048D02*
X28614761Y15064048D01*
X29329047Y14445000D02*
X29233809Y14397381D01*
X29233809Y14397381D02*
X29043333Y14397381D01*
X29043333Y14397381D02*
X28948095Y14445000D01*
X28948095Y14445000D02*
X28900476Y14540239D01*
X28900476Y14540239D02*
X28900476Y14921191D01*
X28900476Y14921191D02*
X28948095Y15016429D01*
X28948095Y15016429D02*
X29043333Y15064048D01*
X29043333Y15064048D02*
X29233809Y15064048D01*
X29233809Y15064048D02*
X29329047Y15016429D01*
X29329047Y15016429D02*
X29376666Y14921191D01*
X29376666Y14921191D02*
X29376666Y14825953D01*
X29376666Y14825953D02*
X28900476Y14730715D01*
X30186190Y14445000D02*
X30090952Y14397381D01*
X30090952Y14397381D02*
X29900476Y14397381D01*
X29900476Y14397381D02*
X29805238Y14445000D01*
X29805238Y14445000D02*
X29757619Y14540239D01*
X29757619Y14540239D02*
X29757619Y14921191D01*
X29757619Y14921191D02*
X29805238Y15016429D01*
X29805238Y15016429D02*
X29900476Y15064048D01*
X29900476Y15064048D02*
X30090952Y15064048D01*
X30090952Y15064048D02*
X30186190Y15016429D01*
X30186190Y15016429D02*
X30233809Y14921191D01*
X30233809Y14921191D02*
X30233809Y14825953D01*
X30233809Y14825953D02*
X29757619Y14730715D01*
X30662381Y15064048D02*
X30662381Y14397381D01*
X30662381Y14968810D02*
X30710000Y15016429D01*
X30710000Y15016429D02*
X30805238Y15064048D01*
X30805238Y15064048D02*
X30948095Y15064048D01*
X30948095Y15064048D02*
X31043333Y15016429D01*
X31043333Y15016429D02*
X31090952Y14921191D01*
X31090952Y14921191D02*
X31090952Y14397381D01*
D11*
X28305238Y16278691D02*
X28305238Y16778691D01*
X28305238Y16778691D02*
X28495714Y16778691D01*
X28495714Y16778691D02*
X28543333Y16754881D01*
X28543333Y16754881D02*
X28567143Y16731072D01*
X28567143Y16731072D02*
X28590952Y16683453D01*
X28590952Y16683453D02*
X28590952Y16612024D01*
X28590952Y16612024D02*
X28567143Y16564405D01*
X28567143Y16564405D02*
X28543333Y16540596D01*
X28543333Y16540596D02*
X28495714Y16516786D01*
X28495714Y16516786D02*
X28305238Y16516786D01*
X28757619Y16778691D02*
X28876667Y16278691D01*
X28876667Y16278691D02*
X28971905Y16635834D01*
X28971905Y16635834D02*
X29067143Y16278691D01*
X29067143Y16278691D02*
X29186191Y16778691D01*
X29662381Y16278691D02*
X29495715Y16516786D01*
X29376667Y16278691D02*
X29376667Y16778691D01*
X29376667Y16778691D02*
X29567143Y16778691D01*
X29567143Y16778691D02*
X29614762Y16754881D01*
X29614762Y16754881D02*
X29638572Y16731072D01*
X29638572Y16731072D02*
X29662381Y16683453D01*
X29662381Y16683453D02*
X29662381Y16612024D01*
X29662381Y16612024D02*
X29638572Y16564405D01*
X29638572Y16564405D02*
X29614762Y16540596D01*
X29614762Y16540596D02*
X29567143Y16516786D01*
X29567143Y16516786D02*
X29376667Y16516786D01*
X30138572Y16278691D02*
X29852858Y16278691D01*
X29995715Y16278691D02*
X29995715Y16778691D01*
X29995715Y16778691D02*
X29948096Y16707262D01*
X29948096Y16707262D02*
X29900477Y16659643D01*
X29900477Y16659643D02*
X29852858Y16635834D01*
D10*
X22297142Y3757381D02*
X21820952Y3757381D01*
X21820952Y3757381D02*
X21820952Y4757381D01*
X22630476Y3757381D02*
X22630476Y4757381D01*
X22630476Y4757381D02*
X22963809Y4043096D01*
X22963809Y4043096D02*
X23297142Y4757381D01*
X23297142Y4757381D02*
X23297142Y3757381D01*
X24201904Y4424048D02*
X24201904Y3757381D01*
X23963809Y4805000D02*
X23725714Y4090715D01*
X23725714Y4090715D02*
X24344761Y4090715D01*
X24868571Y4328810D02*
X24773333Y4376429D01*
X24773333Y4376429D02*
X24725714Y4424048D01*
X24725714Y4424048D02*
X24678095Y4519286D01*
X24678095Y4519286D02*
X24678095Y4566905D01*
X24678095Y4566905D02*
X24725714Y4662143D01*
X24725714Y4662143D02*
X24773333Y4709762D01*
X24773333Y4709762D02*
X24868571Y4757381D01*
X24868571Y4757381D02*
X25059047Y4757381D01*
X25059047Y4757381D02*
X25154285Y4709762D01*
X25154285Y4709762D02*
X25201904Y4662143D01*
X25201904Y4662143D02*
X25249523Y4566905D01*
X25249523Y4566905D02*
X25249523Y4519286D01*
X25249523Y4519286D02*
X25201904Y4424048D01*
X25201904Y4424048D02*
X25154285Y4376429D01*
X25154285Y4376429D02*
X25059047Y4328810D01*
X25059047Y4328810D02*
X24868571Y4328810D01*
X24868571Y4328810D02*
X24773333Y4281191D01*
X24773333Y4281191D02*
X24725714Y4233572D01*
X24725714Y4233572D02*
X24678095Y4138334D01*
X24678095Y4138334D02*
X24678095Y3947858D01*
X24678095Y3947858D02*
X24725714Y3852620D01*
X24725714Y3852620D02*
X24773333Y3805000D01*
X24773333Y3805000D02*
X24868571Y3757381D01*
X24868571Y3757381D02*
X25059047Y3757381D01*
X25059047Y3757381D02*
X25154285Y3805000D01*
X25154285Y3805000D02*
X25201904Y3852620D01*
X25201904Y3852620D02*
X25249523Y3947858D01*
X25249523Y3947858D02*
X25249523Y4138334D01*
X25249523Y4138334D02*
X25201904Y4233572D01*
X25201904Y4233572D02*
X25154285Y4281191D01*
X25154285Y4281191D02*
X25059047Y4328810D01*
X25582857Y4757381D02*
X26249523Y4757381D01*
X26249523Y4757381D02*
X25820952Y3757381D01*
X27154285Y3757381D02*
X26582857Y3757381D01*
X26868571Y3757381D02*
X26868571Y4757381D01*
X26868571Y4757381D02*
X26773333Y4614524D01*
X26773333Y4614524D02*
X26678095Y4519286D01*
X26678095Y4519286D02*
X26582857Y4471667D01*
X27582857Y3757381D02*
X27582857Y4757381D01*
X27582857Y4757381D02*
X27916190Y4043096D01*
X27916190Y4043096D02*
X28249523Y4757381D01*
X28249523Y4757381D02*
X28249523Y3757381D01*
X28630476Y4757381D02*
X29297142Y3757381D01*
X29297142Y4757381D02*
X28630476Y3757381D01*
X29440000Y3662143D02*
X30201904Y3662143D01*
X30440000Y3757381D02*
X30440000Y4757381D01*
X30440000Y4757381D02*
X31011428Y3757381D01*
X31011428Y3757381D02*
X31011428Y4757381D01*
X31678095Y4757381D02*
X31868571Y4757381D01*
X31868571Y4757381D02*
X31963809Y4709762D01*
X31963809Y4709762D02*
X32059047Y4614524D01*
X32059047Y4614524D02*
X32106666Y4424048D01*
X32106666Y4424048D02*
X32106666Y4090715D01*
X32106666Y4090715D02*
X32059047Y3900239D01*
X32059047Y3900239D02*
X31963809Y3805000D01*
X31963809Y3805000D02*
X31868571Y3757381D01*
X31868571Y3757381D02*
X31678095Y3757381D01*
X31678095Y3757381D02*
X31582857Y3805000D01*
X31582857Y3805000D02*
X31487619Y3900239D01*
X31487619Y3900239D02*
X31440000Y4090715D01*
X31440000Y4090715D02*
X31440000Y4424048D01*
X31440000Y4424048D02*
X31487619Y4614524D01*
X31487619Y4614524D02*
X31582857Y4709762D01*
X31582857Y4709762D02*
X31678095Y4757381D01*
X32535238Y3757381D02*
X32535238Y4757381D01*
X32535238Y4757381D02*
X32916190Y4757381D01*
X32916190Y4757381D02*
X33011428Y4709762D01*
X33011428Y4709762D02*
X33059047Y4662143D01*
X33059047Y4662143D02*
X33106666Y4566905D01*
X33106666Y4566905D02*
X33106666Y4424048D01*
X33106666Y4424048D02*
X33059047Y4328810D01*
X33059047Y4328810D02*
X33011428Y4281191D01*
X33011428Y4281191D02*
X32916190Y4233572D01*
X32916190Y4233572D02*
X32535238Y4233572D01*
X33868571Y4281191D02*
X34011428Y4233572D01*
X34011428Y4233572D02*
X34059047Y4185953D01*
X34059047Y4185953D02*
X34106666Y4090715D01*
X34106666Y4090715D02*
X34106666Y3947858D01*
X34106666Y3947858D02*
X34059047Y3852620D01*
X34059047Y3852620D02*
X34011428Y3805000D01*
X34011428Y3805000D02*
X33916190Y3757381D01*
X33916190Y3757381D02*
X33535238Y3757381D01*
X33535238Y3757381D02*
X33535238Y4757381D01*
X33535238Y4757381D02*
X33868571Y4757381D01*
X33868571Y4757381D02*
X33963809Y4709762D01*
X33963809Y4709762D02*
X34011428Y4662143D01*
X34011428Y4662143D02*
X34059047Y4566905D01*
X34059047Y4566905D02*
X34059047Y4471667D01*
X34059047Y4471667D02*
X34011428Y4376429D01*
X34011428Y4376429D02*
X33963809Y4328810D01*
X33963809Y4328810D02*
X33868571Y4281191D01*
X33868571Y4281191D02*
X33535238Y4281191D01*
X26983333Y7166634D02*
X26983333Y8146634D01*
X28010000Y7259967D02*
X27963333Y7213300D01*
X27963333Y7213300D02*
X27823333Y7166634D01*
X27823333Y7166634D02*
X27730000Y7166634D01*
X27730000Y7166634D02*
X27590000Y7213300D01*
X27590000Y7213300D02*
X27496667Y7306634D01*
X27496667Y7306634D02*
X27450000Y7399967D01*
X27450000Y7399967D02*
X27403333Y7586634D01*
X27403333Y7586634D02*
X27403333Y7726634D01*
X27403333Y7726634D02*
X27450000Y7913300D01*
X27450000Y7913300D02*
X27496667Y8006634D01*
X27496667Y8006634D02*
X27590000Y8099967D01*
X27590000Y8099967D02*
X27730000Y8146634D01*
X27730000Y8146634D02*
X27823333Y8146634D01*
X27823333Y8146634D02*
X27963333Y8099967D01*
X27963333Y8099967D02*
X28010000Y8053300D01*
X28943333Y7166634D02*
X28383333Y7166634D01*
X28663333Y7166634D02*
X28663333Y8146634D01*
X28663333Y8146634D02*
X28570000Y8006634D01*
X28570000Y8006634D02*
X28476667Y7913300D01*
X28476667Y7913300D02*
X28383333Y7866634D01*
X70413809Y14567381D02*
X70413809Y15567381D01*
X70413809Y15567381D02*
X70794761Y15567381D01*
X70794761Y15567381D02*
X70889999Y15519762D01*
X70889999Y15519762D02*
X70937618Y15472143D01*
X70937618Y15472143D02*
X70985237Y15376905D01*
X70985237Y15376905D02*
X70985237Y15234048D01*
X70985237Y15234048D02*
X70937618Y15138810D01*
X70937618Y15138810D02*
X70889999Y15091191D01*
X70889999Y15091191D02*
X70794761Y15043572D01*
X70794761Y15043572D02*
X70413809Y15043572D01*
X71556666Y14567381D02*
X71461428Y14615000D01*
X71461428Y14615000D02*
X71413809Y14662620D01*
X71413809Y14662620D02*
X71366190Y14757858D01*
X71366190Y14757858D02*
X71366190Y15043572D01*
X71366190Y15043572D02*
X71413809Y15138810D01*
X71413809Y15138810D02*
X71461428Y15186429D01*
X71461428Y15186429D02*
X71556666Y15234048D01*
X71556666Y15234048D02*
X71699523Y15234048D01*
X71699523Y15234048D02*
X71794761Y15186429D01*
X71794761Y15186429D02*
X71842380Y15138810D01*
X71842380Y15138810D02*
X71889999Y15043572D01*
X71889999Y15043572D02*
X71889999Y14757858D01*
X71889999Y14757858D02*
X71842380Y14662620D01*
X71842380Y14662620D02*
X71794761Y14615000D01*
X71794761Y14615000D02*
X71699523Y14567381D01*
X71699523Y14567381D02*
X71556666Y14567381D01*
X72223333Y15234048D02*
X72413809Y14567381D01*
X72413809Y14567381D02*
X72604285Y15043572D01*
X72604285Y15043572D02*
X72794761Y14567381D01*
X72794761Y14567381D02*
X72985237Y15234048D01*
X73747142Y14615000D02*
X73651904Y14567381D01*
X73651904Y14567381D02*
X73461428Y14567381D01*
X73461428Y14567381D02*
X73366190Y14615000D01*
X73366190Y14615000D02*
X73318571Y14710239D01*
X73318571Y14710239D02*
X73318571Y15091191D01*
X73318571Y15091191D02*
X73366190Y15186429D01*
X73366190Y15186429D02*
X73461428Y15234048D01*
X73461428Y15234048D02*
X73651904Y15234048D01*
X73651904Y15234048D02*
X73747142Y15186429D01*
X73747142Y15186429D02*
X73794761Y15091191D01*
X73794761Y15091191D02*
X73794761Y14995953D01*
X73794761Y14995953D02*
X73318571Y14900715D01*
X74223333Y14567381D02*
X74223333Y15234048D01*
X74223333Y15043572D02*
X74270952Y15138810D01*
X74270952Y15138810D02*
X74318571Y15186429D01*
X74318571Y15186429D02*
X74413809Y15234048D01*
X74413809Y15234048D02*
X74509047Y15234048D01*
X71852619Y11096667D02*
X72566904Y11096667D01*
X72566904Y11096667D02*
X72709761Y11049048D01*
X72709761Y11049048D02*
X72805000Y10953810D01*
X72805000Y10953810D02*
X72852619Y10810953D01*
X72852619Y10810953D02*
X72852619Y10715715D01*
X72852619Y12096667D02*
X72852619Y11525239D01*
X72852619Y11810953D02*
X71852619Y11810953D01*
X71852619Y11810953D02*
X71995476Y11715715D01*
X71995476Y11715715D02*
X72090714Y11620477D01*
X72090714Y11620477D02*
X72138333Y11525239D01*
X603571Y23937143D02*
X651190Y23984762D01*
X651190Y23984762D02*
X746428Y24032381D01*
X746428Y24032381D02*
X984523Y24032381D01*
X984523Y24032381D02*
X1079761Y23984762D01*
X1079761Y23984762D02*
X1127380Y23937143D01*
X1127380Y23937143D02*
X1174999Y23841905D01*
X1174999Y23841905D02*
X1174999Y23746667D01*
X1174999Y23746667D02*
X1127380Y23603810D01*
X1127380Y23603810D02*
X555952Y23032381D01*
X555952Y23032381D02*
X1174999Y23032381D01*
X1555952Y23937143D02*
X1603571Y23984762D01*
X1603571Y23984762D02*
X1698809Y24032381D01*
X1698809Y24032381D02*
X1936904Y24032381D01*
X1936904Y24032381D02*
X2032142Y23984762D01*
X2032142Y23984762D02*
X2079761Y23937143D01*
X2079761Y23937143D02*
X2127380Y23841905D01*
X2127380Y23841905D02*
X2127380Y23746667D01*
X2127380Y23746667D02*
X2079761Y23603810D01*
X2079761Y23603810D02*
X1508333Y23032381D01*
X1508333Y23032381D02*
X2127380Y23032381D01*
X2746428Y24032381D02*
X2841666Y24032381D01*
X2841666Y24032381D02*
X2936904Y23984762D01*
X2936904Y23984762D02*
X2984523Y23937143D01*
X2984523Y23937143D02*
X3032142Y23841905D01*
X3032142Y23841905D02*
X3079761Y23651429D01*
X3079761Y23651429D02*
X3079761Y23413334D01*
X3079761Y23413334D02*
X3032142Y23222858D01*
X3032142Y23222858D02*
X2984523Y23127620D01*
X2984523Y23127620D02*
X2936904Y23080000D01*
X2936904Y23080000D02*
X2841666Y23032381D01*
X2841666Y23032381D02*
X2746428Y23032381D01*
X2746428Y23032381D02*
X2651190Y23080000D01*
X2651190Y23080000D02*
X2603571Y23127620D01*
X2603571Y23127620D02*
X2555952Y23222858D01*
X2555952Y23222858D02*
X2508333Y23413334D01*
X2508333Y23413334D02*
X2508333Y23651429D01*
X2508333Y23651429D02*
X2555952Y23841905D01*
X2555952Y23841905D02*
X2603571Y23937143D01*
X2603571Y23937143D02*
X2651190Y23984762D01*
X2651190Y23984762D02*
X2746428Y24032381D01*
X4270238Y23699048D02*
X4270238Y22699048D01*
X4746428Y23175239D02*
X4794047Y23080000D01*
X4794047Y23080000D02*
X4889285Y23032381D01*
X4270238Y23175239D02*
X4317857Y23080000D01*
X4317857Y23080000D02*
X4413095Y23032381D01*
X4413095Y23032381D02*
X4603571Y23032381D01*
X4603571Y23032381D02*
X4698809Y23080000D01*
X4698809Y23080000D02*
X4746428Y23175239D01*
X4746428Y23175239D02*
X4746428Y23699048D01*
X5651190Y23556191D02*
X5317857Y23556191D01*
X5317857Y23032381D02*
X5317857Y24032381D01*
X5317857Y24032381D02*
X5794047Y24032381D01*
X4893333Y19952620D02*
X4845714Y19905000D01*
X4845714Y19905000D02*
X4702857Y19857381D01*
X4702857Y19857381D02*
X4607619Y19857381D01*
X4607619Y19857381D02*
X4464762Y19905000D01*
X4464762Y19905000D02*
X4369524Y20000239D01*
X4369524Y20000239D02*
X4321905Y20095477D01*
X4321905Y20095477D02*
X4274286Y20285953D01*
X4274286Y20285953D02*
X4274286Y20428810D01*
X4274286Y20428810D02*
X4321905Y20619286D01*
X4321905Y20619286D02*
X4369524Y20714524D01*
X4369524Y20714524D02*
X4464762Y20809762D01*
X4464762Y20809762D02*
X4607619Y20857381D01*
X4607619Y20857381D02*
X4702857Y20857381D01*
X4702857Y20857381D02*
X4845714Y20809762D01*
X4845714Y20809762D02*
X4893333Y20762143D01*
X5226667Y20857381D02*
X5845714Y20857381D01*
X5845714Y20857381D02*
X5512381Y20476429D01*
X5512381Y20476429D02*
X5655238Y20476429D01*
X5655238Y20476429D02*
X5750476Y20428810D01*
X5750476Y20428810D02*
X5798095Y20381191D01*
X5798095Y20381191D02*
X5845714Y20285953D01*
X5845714Y20285953D02*
X5845714Y20047858D01*
X5845714Y20047858D02*
X5798095Y19952620D01*
X5798095Y19952620D02*
X5750476Y19905000D01*
X5750476Y19905000D02*
X5655238Y19857381D01*
X5655238Y19857381D02*
X5369524Y19857381D01*
X5369524Y19857381D02*
X5274286Y19905000D01*
X5274286Y19905000D02*
X5226667Y19952620D01*
X37973333Y16457381D02*
X37973333Y17457381D01*
X37973333Y17457381D02*
X38544761Y16457381D01*
X38544761Y16457381D02*
X38544761Y17457381D01*
X39020952Y16981191D02*
X39354285Y16981191D01*
X39497142Y16457381D02*
X39020952Y16457381D01*
X39020952Y16457381D02*
X39020952Y17457381D01*
X39020952Y17457381D02*
X39497142Y17457381D01*
X40401904Y17457381D02*
X39925714Y17457381D01*
X39925714Y17457381D02*
X39878095Y16981191D01*
X39878095Y16981191D02*
X39925714Y17028810D01*
X39925714Y17028810D02*
X40020952Y17076429D01*
X40020952Y17076429D02*
X40259047Y17076429D01*
X40259047Y17076429D02*
X40354285Y17028810D01*
X40354285Y17028810D02*
X40401904Y16981191D01*
X40401904Y16981191D02*
X40449523Y16885953D01*
X40449523Y16885953D02*
X40449523Y16647858D01*
X40449523Y16647858D02*
X40401904Y16552620D01*
X40401904Y16552620D02*
X40354285Y16505000D01*
X40354285Y16505000D02*
X40259047Y16457381D01*
X40259047Y16457381D02*
X40020952Y16457381D01*
X40020952Y16457381D02*
X39925714Y16505000D01*
X39925714Y16505000D02*
X39878095Y16552620D01*
X41354285Y17457381D02*
X40878095Y17457381D01*
X40878095Y17457381D02*
X40830476Y16981191D01*
X40830476Y16981191D02*
X40878095Y17028810D01*
X40878095Y17028810D02*
X40973333Y17076429D01*
X40973333Y17076429D02*
X41211428Y17076429D01*
X41211428Y17076429D02*
X41306666Y17028810D01*
X41306666Y17028810D02*
X41354285Y16981191D01*
X41354285Y16981191D02*
X41401904Y16885953D01*
X41401904Y16885953D02*
X41401904Y16647858D01*
X41401904Y16647858D02*
X41354285Y16552620D01*
X41354285Y16552620D02*
X41306666Y16505000D01*
X41306666Y16505000D02*
X41211428Y16457381D01*
X41211428Y16457381D02*
X40973333Y16457381D01*
X40973333Y16457381D02*
X40878095Y16505000D01*
X40878095Y16505000D02*
X40830476Y16552620D01*
X42306666Y17457381D02*
X41830476Y17457381D01*
X41830476Y17457381D02*
X41782857Y16981191D01*
X41782857Y16981191D02*
X41830476Y17028810D01*
X41830476Y17028810D02*
X41925714Y17076429D01*
X41925714Y17076429D02*
X42163809Y17076429D01*
X42163809Y17076429D02*
X42259047Y17028810D01*
X42259047Y17028810D02*
X42306666Y16981191D01*
X42306666Y16981191D02*
X42354285Y16885953D01*
X42354285Y16885953D02*
X42354285Y16647858D01*
X42354285Y16647858D02*
X42306666Y16552620D01*
X42306666Y16552620D02*
X42259047Y16505000D01*
X42259047Y16505000D02*
X42163809Y16457381D01*
X42163809Y16457381D02*
X41925714Y16457381D01*
X41925714Y16457381D02*
X41830476Y16505000D01*
X41830476Y16505000D02*
X41782857Y16552620D01*
X42782857Y16457381D02*
X42782857Y17457381D01*
X42782857Y17457381D02*
X43020952Y17457381D01*
X43020952Y17457381D02*
X43163809Y17409762D01*
X43163809Y17409762D02*
X43259047Y17314524D01*
X43259047Y17314524D02*
X43306666Y17219286D01*
X43306666Y17219286D02*
X43354285Y17028810D01*
X43354285Y17028810D02*
X43354285Y16885953D01*
X43354285Y16885953D02*
X43306666Y16695477D01*
X43306666Y16695477D02*
X43259047Y16600239D01*
X43259047Y16600239D02*
X43163809Y16505000D01*
X43163809Y16505000D02*
X43020952Y16457381D01*
X43020952Y16457381D02*
X42782857Y16457381D01*
X39893333Y20846634D02*
X39893333Y20053300D01*
X39893333Y20053300D02*
X39940000Y19959967D01*
X39940000Y19959967D02*
X39986666Y19913300D01*
X39986666Y19913300D02*
X40080000Y19866634D01*
X40080000Y19866634D02*
X40266666Y19866634D01*
X40266666Y19866634D02*
X40360000Y19913300D01*
X40360000Y19913300D02*
X40406666Y19959967D01*
X40406666Y19959967D02*
X40453333Y20053300D01*
X40453333Y20053300D02*
X40453333Y20846634D01*
X40826667Y20846634D02*
X41433333Y20846634D01*
X41433333Y20846634D02*
X41106667Y20473300D01*
X41106667Y20473300D02*
X41246667Y20473300D01*
X41246667Y20473300D02*
X41340000Y20426634D01*
X41340000Y20426634D02*
X41386667Y20379967D01*
X41386667Y20379967D02*
X41433333Y20286634D01*
X41433333Y20286634D02*
X41433333Y20053300D01*
X41433333Y20053300D02*
X41386667Y19959967D01*
X41386667Y19959967D02*
X41340000Y19913300D01*
X41340000Y19913300D02*
X41246667Y19866634D01*
X41246667Y19866634D02*
X40966667Y19866634D01*
X40966667Y19866634D02*
X40873333Y19913300D01*
X40873333Y19913300D02*
X40826667Y19959967D01*
X9352619Y28662381D02*
X8876428Y28329048D01*
X9352619Y28090953D02*
X8352619Y28090953D01*
X8352619Y28090953D02*
X8352619Y28471905D01*
X8352619Y28471905D02*
X8400238Y28567143D01*
X8400238Y28567143D02*
X8447857Y28614762D01*
X8447857Y28614762D02*
X8543095Y28662381D01*
X8543095Y28662381D02*
X8685952Y28662381D01*
X8685952Y28662381D02*
X8781190Y28614762D01*
X8781190Y28614762D02*
X8828809Y28567143D01*
X8828809Y28567143D02*
X8876428Y28471905D01*
X8876428Y28471905D02*
X8876428Y28090953D01*
X9305000Y29471905D02*
X9352619Y29376667D01*
X9352619Y29376667D02*
X9352619Y29186191D01*
X9352619Y29186191D02*
X9305000Y29090953D01*
X9305000Y29090953D02*
X9209761Y29043334D01*
X9209761Y29043334D02*
X8828809Y29043334D01*
X8828809Y29043334D02*
X8733571Y29090953D01*
X8733571Y29090953D02*
X8685952Y29186191D01*
X8685952Y29186191D02*
X8685952Y29376667D01*
X8685952Y29376667D02*
X8733571Y29471905D01*
X8733571Y29471905D02*
X8828809Y29519524D01*
X8828809Y29519524D02*
X8924047Y29519524D01*
X8924047Y29519524D02*
X9019285Y29043334D01*
X9305000Y30376667D02*
X9352619Y30281429D01*
X9352619Y30281429D02*
X9352619Y30090953D01*
X9352619Y30090953D02*
X9305000Y29995715D01*
X9305000Y29995715D02*
X9257380Y29948096D01*
X9257380Y29948096D02*
X9162142Y29900477D01*
X9162142Y29900477D02*
X8876428Y29900477D01*
X8876428Y29900477D02*
X8781190Y29948096D01*
X8781190Y29948096D02*
X8733571Y29995715D01*
X8733571Y29995715D02*
X8685952Y30090953D01*
X8685952Y30090953D02*
X8685952Y30281429D01*
X8685952Y30281429D02*
X8733571Y30376667D01*
X11096666Y25937381D02*
X11096666Y25223096D01*
X11096666Y25223096D02*
X11049047Y25080239D01*
X11049047Y25080239D02*
X10953809Y24985000D01*
X10953809Y24985000D02*
X10810952Y24937381D01*
X10810952Y24937381D02*
X10715714Y24937381D01*
X11525238Y25842143D02*
X11572857Y25889762D01*
X11572857Y25889762D02*
X11668095Y25937381D01*
X11668095Y25937381D02*
X11906190Y25937381D01*
X11906190Y25937381D02*
X12001428Y25889762D01*
X12001428Y25889762D02*
X12049047Y25842143D01*
X12049047Y25842143D02*
X12096666Y25746905D01*
X12096666Y25746905D02*
X12096666Y25651667D01*
X12096666Y25651667D02*
X12049047Y25508810D01*
X12049047Y25508810D02*
X11477619Y24937381D01*
X11477619Y24937381D02*
X12096666Y24937381D01*
X36402619Y14168572D02*
X36402619Y13597144D01*
X36402619Y13882858D02*
X35402619Y13882858D01*
X35402619Y13882858D02*
X35545476Y13787620D01*
X35545476Y13787620D02*
X35640714Y13692382D01*
X35640714Y13692382D02*
X35688333Y13597144D01*
X35402619Y14787620D02*
X35402619Y14882858D01*
X35402619Y14882858D02*
X35450238Y14978096D01*
X35450238Y14978096D02*
X35497857Y15025715D01*
X35497857Y15025715D02*
X35593095Y15073334D01*
X35593095Y15073334D02*
X35783571Y15120953D01*
X35783571Y15120953D02*
X36021666Y15120953D01*
X36021666Y15120953D02*
X36212142Y15073334D01*
X36212142Y15073334D02*
X36307380Y15025715D01*
X36307380Y15025715D02*
X36355000Y14978096D01*
X36355000Y14978096D02*
X36402619Y14882858D01*
X36402619Y14882858D02*
X36402619Y14787620D01*
X36402619Y14787620D02*
X36355000Y14692382D01*
X36355000Y14692382D02*
X36307380Y14644763D01*
X36307380Y14644763D02*
X36212142Y14597144D01*
X36212142Y14597144D02*
X36021666Y14549525D01*
X36021666Y14549525D02*
X35783571Y14549525D01*
X35783571Y14549525D02*
X35593095Y14597144D01*
X35593095Y14597144D02*
X35497857Y14644763D01*
X35497857Y14644763D02*
X35450238Y14692382D01*
X35450238Y14692382D02*
X35402619Y14787620D01*
X35402619Y15740001D02*
X35402619Y15835239D01*
X35402619Y15835239D02*
X35450238Y15930477D01*
X35450238Y15930477D02*
X35497857Y15978096D01*
X35497857Y15978096D02*
X35593095Y16025715D01*
X35593095Y16025715D02*
X35783571Y16073334D01*
X35783571Y16073334D02*
X36021666Y16073334D01*
X36021666Y16073334D02*
X36212142Y16025715D01*
X36212142Y16025715D02*
X36307380Y15978096D01*
X36307380Y15978096D02*
X36355000Y15930477D01*
X36355000Y15930477D02*
X36402619Y15835239D01*
X36402619Y15835239D02*
X36402619Y15740001D01*
X36402619Y15740001D02*
X36355000Y15644763D01*
X36355000Y15644763D02*
X36307380Y15597144D01*
X36307380Y15597144D02*
X36212142Y15549525D01*
X36212142Y15549525D02*
X36021666Y15501906D01*
X36021666Y15501906D02*
X35783571Y15501906D01*
X35783571Y15501906D02*
X35593095Y15549525D01*
X35593095Y15549525D02*
X35497857Y15597144D01*
X35497857Y15597144D02*
X35450238Y15644763D01*
X35450238Y15644763D02*
X35402619Y15740001D01*
X36402619Y16501906D02*
X35402619Y16501906D01*
X36021666Y16597144D02*
X36402619Y16882858D01*
X35735952Y16882858D02*
X36116904Y16501906D01*
D11*
X34521309Y14918572D02*
X34283214Y14751906D01*
X34521309Y14632858D02*
X34021309Y14632858D01*
X34021309Y14632858D02*
X34021309Y14823334D01*
X34021309Y14823334D02*
X34045119Y14870953D01*
X34045119Y14870953D02*
X34068928Y14894763D01*
X34068928Y14894763D02*
X34116547Y14918572D01*
X34116547Y14918572D02*
X34187976Y14918572D01*
X34187976Y14918572D02*
X34235595Y14894763D01*
X34235595Y14894763D02*
X34259404Y14870953D01*
X34259404Y14870953D02*
X34283214Y14823334D01*
X34283214Y14823334D02*
X34283214Y14632858D01*
X34521309Y15394763D02*
X34521309Y15109049D01*
X34521309Y15251906D02*
X34021309Y15251906D01*
X34021309Y15251906D02*
X34092738Y15204287D01*
X34092738Y15204287D02*
X34140357Y15156668D01*
X34140357Y15156668D02*
X34164166Y15109049D01*
X34187976Y15823334D02*
X34521309Y15823334D01*
X33997500Y15704286D02*
X34354642Y15585239D01*
X34354642Y15585239D02*
X34354642Y15894762D01*
D10*
X17692857Y30017381D02*
X17692857Y31017381D01*
X17692857Y31017381D02*
X18073809Y31017381D01*
X18073809Y31017381D02*
X18169047Y30969762D01*
X18169047Y30969762D02*
X18216666Y30922143D01*
X18216666Y30922143D02*
X18264285Y30826905D01*
X18264285Y30826905D02*
X18264285Y30684048D01*
X18264285Y30684048D02*
X18216666Y30588810D01*
X18216666Y30588810D02*
X18169047Y30541191D01*
X18169047Y30541191D02*
X18073809Y30493572D01*
X18073809Y30493572D02*
X17692857Y30493572D01*
X18835714Y30017381D02*
X18740476Y30065000D01*
X18740476Y30065000D02*
X18692857Y30160239D01*
X18692857Y30160239D02*
X18692857Y31017381D01*
X19645238Y30017381D02*
X19645238Y30541191D01*
X19645238Y30541191D02*
X19597619Y30636429D01*
X19597619Y30636429D02*
X19502381Y30684048D01*
X19502381Y30684048D02*
X19311905Y30684048D01*
X19311905Y30684048D02*
X19216667Y30636429D01*
X19645238Y30065000D02*
X19550000Y30017381D01*
X19550000Y30017381D02*
X19311905Y30017381D01*
X19311905Y30017381D02*
X19216667Y30065000D01*
X19216667Y30065000D02*
X19169048Y30160239D01*
X19169048Y30160239D02*
X19169048Y30255477D01*
X19169048Y30255477D02*
X19216667Y30350715D01*
X19216667Y30350715D02*
X19311905Y30398334D01*
X19311905Y30398334D02*
X19550000Y30398334D01*
X19550000Y30398334D02*
X19645238Y30445953D01*
X20026191Y30684048D02*
X20264286Y30017381D01*
X20502381Y30684048D02*
X20264286Y30017381D01*
X20264286Y30017381D02*
X20169048Y29779286D01*
X20169048Y29779286D02*
X20121429Y29731667D01*
X20121429Y29731667D02*
X20026191Y29684048D01*
X17242619Y27606667D02*
X17956904Y27606667D01*
X17956904Y27606667D02*
X18099761Y27559048D01*
X18099761Y27559048D02*
X18195000Y27463810D01*
X18195000Y27463810D02*
X18242619Y27320953D01*
X18242619Y27320953D02*
X18242619Y27225715D01*
X17242619Y27987620D02*
X17242619Y28606667D01*
X17242619Y28606667D02*
X17623571Y28273334D01*
X17623571Y28273334D02*
X17623571Y28416191D01*
X17623571Y28416191D02*
X17671190Y28511429D01*
X17671190Y28511429D02*
X17718809Y28559048D01*
X17718809Y28559048D02*
X17814047Y28606667D01*
X17814047Y28606667D02*
X18052142Y28606667D01*
X18052142Y28606667D02*
X18147380Y28559048D01*
X18147380Y28559048D02*
X18195000Y28511429D01*
X18195000Y28511429D02*
X18242619Y28416191D01*
X18242619Y28416191D02*
X18242619Y28130477D01*
X18242619Y28130477D02*
X18195000Y28035239D01*
X18195000Y28035239D02*
X18147380Y27987620D01*
X41886428Y648572D02*
X41886428Y172381D01*
X41553095Y1172381D02*
X41886428Y648572D01*
X41886428Y648572D02*
X42219761Y1172381D01*
X42934047Y220000D02*
X42838809Y172381D01*
X42838809Y172381D02*
X42648333Y172381D01*
X42648333Y172381D02*
X42553095Y220000D01*
X42553095Y220000D02*
X42505476Y315239D01*
X42505476Y315239D02*
X42505476Y696191D01*
X42505476Y696191D02*
X42553095Y791429D01*
X42553095Y791429D02*
X42648333Y839048D01*
X42648333Y839048D02*
X42838809Y839048D01*
X42838809Y839048D02*
X42934047Y791429D01*
X42934047Y791429D02*
X42981666Y696191D01*
X42981666Y696191D02*
X42981666Y600953D01*
X42981666Y600953D02*
X42505476Y505715D01*
X43553095Y172381D02*
X43457857Y220000D01*
X43457857Y220000D02*
X43410238Y315239D01*
X43410238Y315239D02*
X43410238Y1172381D01*
X44076905Y172381D02*
X43981667Y220000D01*
X43981667Y220000D02*
X43934048Y315239D01*
X43934048Y315239D02*
X43934048Y1172381D01*
X44600715Y172381D02*
X44505477Y220000D01*
X44505477Y220000D02*
X44457858Y267620D01*
X44457858Y267620D02*
X44410239Y362858D01*
X44410239Y362858D02*
X44410239Y648572D01*
X44410239Y648572D02*
X44457858Y743810D01*
X44457858Y743810D02*
X44505477Y791429D01*
X44505477Y791429D02*
X44600715Y839048D01*
X44600715Y839048D02*
X44743572Y839048D01*
X44743572Y839048D02*
X44838810Y791429D01*
X44838810Y791429D02*
X44886429Y743810D01*
X44886429Y743810D02*
X44934048Y648572D01*
X44934048Y648572D02*
X44934048Y362858D01*
X44934048Y362858D02*
X44886429Y267620D01*
X44886429Y267620D02*
X44838810Y220000D01*
X44838810Y220000D02*
X44743572Y172381D01*
X44743572Y172381D02*
X44600715Y172381D01*
X45267382Y839048D02*
X45457858Y172381D01*
X45457858Y172381D02*
X45648334Y648572D01*
X45648334Y648572D02*
X45838810Y172381D01*
X45838810Y172381D02*
X46029286Y839048D01*
D11*
X44687999Y1540001D02*
X44187999Y1540001D01*
X44187999Y1540001D02*
X44187999Y1730477D01*
X44187999Y1730477D02*
X44211809Y1778096D01*
X44211809Y1778096D02*
X44235618Y1801906D01*
X44235618Y1801906D02*
X44283237Y1825715D01*
X44283237Y1825715D02*
X44354666Y1825715D01*
X44354666Y1825715D02*
X44402285Y1801906D01*
X44402285Y1801906D02*
X44426094Y1778096D01*
X44426094Y1778096D02*
X44449904Y1730477D01*
X44449904Y1730477D02*
X44449904Y1540001D01*
X44687999Y2278096D02*
X44687999Y2040001D01*
X44687999Y2040001D02*
X44187999Y2040001D01*
X44545142Y2420954D02*
X44545142Y2659049D01*
X44687999Y2373335D02*
X44187999Y2540001D01*
X44187999Y2540001D02*
X44687999Y2706668D01*
X44449904Y2968572D02*
X44687999Y2968572D01*
X44187999Y2801906D02*
X44449904Y2968572D01*
X44449904Y2968572D02*
X44187999Y3135239D01*
X44187999Y3516191D02*
X44187999Y3420953D01*
X44187999Y3420953D02*
X44211809Y3373334D01*
X44211809Y3373334D02*
X44235618Y3349524D01*
X44235618Y3349524D02*
X44307047Y3301905D01*
X44307047Y3301905D02*
X44402285Y3278096D01*
X44402285Y3278096D02*
X44592761Y3278096D01*
X44592761Y3278096D02*
X44640380Y3301905D01*
X44640380Y3301905D02*
X44664190Y3325715D01*
X44664190Y3325715D02*
X44687999Y3373334D01*
X44687999Y3373334D02*
X44687999Y3468572D01*
X44687999Y3468572D02*
X44664190Y3516191D01*
X44664190Y3516191D02*
X44640380Y3540000D01*
X44640380Y3540000D02*
X44592761Y3563810D01*
X44592761Y3563810D02*
X44473713Y3563810D01*
X44473713Y3563810D02*
X44426094Y3540000D01*
X44426094Y3540000D02*
X44402285Y3516191D01*
X44402285Y3516191D02*
X44378475Y3468572D01*
X44378475Y3468572D02*
X44378475Y3373334D01*
X44378475Y3373334D02*
X44402285Y3325715D01*
X44402285Y3325715D02*
X44426094Y3301905D01*
X44426094Y3301905D02*
X44473713Y3278096D01*
D10*
X12359048Y1017381D02*
X12359048Y2017381D01*
X12787619Y1065000D02*
X12930476Y1017381D01*
X12930476Y1017381D02*
X13168571Y1017381D01*
X13168571Y1017381D02*
X13263809Y1065000D01*
X13263809Y1065000D02*
X13311428Y1112620D01*
X13311428Y1112620D02*
X13359047Y1207858D01*
X13359047Y1207858D02*
X13359047Y1303096D01*
X13359047Y1303096D02*
X13311428Y1398334D01*
X13311428Y1398334D02*
X13263809Y1445953D01*
X13263809Y1445953D02*
X13168571Y1493572D01*
X13168571Y1493572D02*
X12978095Y1541191D01*
X12978095Y1541191D02*
X12882857Y1588810D01*
X12882857Y1588810D02*
X12835238Y1636429D01*
X12835238Y1636429D02*
X12787619Y1731667D01*
X12787619Y1731667D02*
X12787619Y1826905D01*
X12787619Y1826905D02*
X12835238Y1922143D01*
X12835238Y1922143D02*
X12882857Y1969762D01*
X12882857Y1969762D02*
X12978095Y2017381D01*
X12978095Y2017381D02*
X13216190Y2017381D01*
X13216190Y2017381D02*
X13359047Y1969762D01*
X13787619Y1017381D02*
X13787619Y2017381D01*
X13787619Y2017381D02*
X14025714Y2017381D01*
X14025714Y2017381D02*
X14168571Y1969762D01*
X14168571Y1969762D02*
X14263809Y1874524D01*
X14263809Y1874524D02*
X14311428Y1779286D01*
X14311428Y1779286D02*
X14359047Y1588810D01*
X14359047Y1588810D02*
X14359047Y1445953D01*
X14359047Y1445953D02*
X14311428Y1255477D01*
X14311428Y1255477D02*
X14263809Y1160239D01*
X14263809Y1160239D02*
X14168571Y1065000D01*
X14168571Y1065000D02*
X14025714Y1017381D01*
X14025714Y1017381D02*
X13787619Y1017381D01*
X15311428Y1017381D02*
X14740000Y1017381D01*
X15025714Y1017381D02*
X15025714Y2017381D01*
X15025714Y2017381D02*
X14930476Y1874524D01*
X14930476Y1874524D02*
X14835238Y1779286D01*
X14835238Y1779286D02*
X14740000Y1731667D01*
X15882857Y1588810D02*
X15787619Y1636429D01*
X15787619Y1636429D02*
X15740000Y1684048D01*
X15740000Y1684048D02*
X15692381Y1779286D01*
X15692381Y1779286D02*
X15692381Y1826905D01*
X15692381Y1826905D02*
X15740000Y1922143D01*
X15740000Y1922143D02*
X15787619Y1969762D01*
X15787619Y1969762D02*
X15882857Y2017381D01*
X15882857Y2017381D02*
X16073333Y2017381D01*
X16073333Y2017381D02*
X16168571Y1969762D01*
X16168571Y1969762D02*
X16216190Y1922143D01*
X16216190Y1922143D02*
X16263809Y1826905D01*
X16263809Y1826905D02*
X16263809Y1779286D01*
X16263809Y1779286D02*
X16216190Y1684048D01*
X16216190Y1684048D02*
X16168571Y1636429D01*
X16168571Y1636429D02*
X16073333Y1588810D01*
X16073333Y1588810D02*
X15882857Y1588810D01*
X15882857Y1588810D02*
X15787619Y1541191D01*
X15787619Y1541191D02*
X15740000Y1493572D01*
X15740000Y1493572D02*
X15692381Y1398334D01*
X15692381Y1398334D02*
X15692381Y1207858D01*
X15692381Y1207858D02*
X15740000Y1112620D01*
X15740000Y1112620D02*
X15787619Y1065000D01*
X15787619Y1065000D02*
X15882857Y1017381D01*
X15882857Y1017381D02*
X16073333Y1017381D01*
X16073333Y1017381D02*
X16168571Y1065000D01*
X16168571Y1065000D02*
X16216190Y1112620D01*
X16216190Y1112620D02*
X16263809Y1207858D01*
X16263809Y1207858D02*
X16263809Y1398334D01*
X16263809Y1398334D02*
X16216190Y1493572D01*
X16216190Y1493572D02*
X16168571Y1541191D01*
X16168571Y1541191D02*
X16073333Y1588810D01*
X16644762Y1922143D02*
X16692381Y1969762D01*
X16692381Y1969762D02*
X16787619Y2017381D01*
X16787619Y2017381D02*
X17025714Y2017381D01*
X17025714Y2017381D02*
X17120952Y1969762D01*
X17120952Y1969762D02*
X17168571Y1922143D01*
X17168571Y1922143D02*
X17216190Y1826905D01*
X17216190Y1826905D02*
X17216190Y1731667D01*
X17216190Y1731667D02*
X17168571Y1588810D01*
X17168571Y1588810D02*
X16597143Y1017381D01*
X16597143Y1017381D02*
X17216190Y1017381D01*
X17835238Y2017381D02*
X17930476Y2017381D01*
X17930476Y2017381D02*
X18025714Y1969762D01*
X18025714Y1969762D02*
X18073333Y1922143D01*
X18073333Y1922143D02*
X18120952Y1826905D01*
X18120952Y1826905D02*
X18168571Y1636429D01*
X18168571Y1636429D02*
X18168571Y1398334D01*
X18168571Y1398334D02*
X18120952Y1207858D01*
X18120952Y1207858D02*
X18073333Y1112620D01*
X18073333Y1112620D02*
X18025714Y1065000D01*
X18025714Y1065000D02*
X17930476Y1017381D01*
X17930476Y1017381D02*
X17835238Y1017381D01*
X17835238Y1017381D02*
X17740000Y1065000D01*
X17740000Y1065000D02*
X17692381Y1112620D01*
X17692381Y1112620D02*
X17644762Y1207858D01*
X17644762Y1207858D02*
X17597143Y1398334D01*
X17597143Y1398334D02*
X17597143Y1636429D01*
X17597143Y1636429D02*
X17644762Y1826905D01*
X17644762Y1826905D02*
X17692381Y1922143D01*
X17692381Y1922143D02*
X17740000Y1969762D01*
X17740000Y1969762D02*
X17835238Y2017381D01*
X14478095Y11967381D02*
X14478095Y11157858D01*
X14478095Y11157858D02*
X14525714Y11062620D01*
X14525714Y11062620D02*
X14573333Y11015000D01*
X14573333Y11015000D02*
X14668571Y10967381D01*
X14668571Y10967381D02*
X14859047Y10967381D01*
X14859047Y10967381D02*
X14954285Y11015000D01*
X14954285Y11015000D02*
X15001904Y11062620D01*
X15001904Y11062620D02*
X15049523Y11157858D01*
X15049523Y11157858D02*
X15049523Y11967381D01*
X15478095Y11872143D02*
X15525714Y11919762D01*
X15525714Y11919762D02*
X15620952Y11967381D01*
X15620952Y11967381D02*
X15859047Y11967381D01*
X15859047Y11967381D02*
X15954285Y11919762D01*
X15954285Y11919762D02*
X16001904Y11872143D01*
X16001904Y11872143D02*
X16049523Y11776905D01*
X16049523Y11776905D02*
X16049523Y11681667D01*
X16049523Y11681667D02*
X16001904Y11538810D01*
X16001904Y11538810D02*
X15430476Y10967381D01*
X15430476Y10967381D02*
X16049523Y10967381D01*
X15106071Y25841191D02*
X15248928Y25793572D01*
X15248928Y25793572D02*
X15296547Y25745953D01*
X15296547Y25745953D02*
X15344166Y25650715D01*
X15344166Y25650715D02*
X15344166Y25507858D01*
X15344166Y25507858D02*
X15296547Y25412620D01*
X15296547Y25412620D02*
X15248928Y25365000D01*
X15248928Y25365000D02*
X15153690Y25317381D01*
X15153690Y25317381D02*
X14772738Y25317381D01*
X14772738Y25317381D02*
X14772738Y26317381D01*
X14772738Y26317381D02*
X15106071Y26317381D01*
X15106071Y26317381D02*
X15201309Y26269762D01*
X15201309Y26269762D02*
X15248928Y26222143D01*
X15248928Y26222143D02*
X15296547Y26126905D01*
X15296547Y26126905D02*
X15296547Y26031667D01*
X15296547Y26031667D02*
X15248928Y25936429D01*
X15248928Y25936429D02*
X15201309Y25888810D01*
X15201309Y25888810D02*
X15106071Y25841191D01*
X15106071Y25841191D02*
X14772738Y25841191D01*
X15915595Y25317381D02*
X15820357Y25365000D01*
X15820357Y25365000D02*
X15772738Y25460239D01*
X15772738Y25460239D02*
X15772738Y26317381D01*
X16725119Y25984048D02*
X16725119Y25317381D01*
X16296548Y25984048D02*
X16296548Y25460239D01*
X16296548Y25460239D02*
X16344167Y25365000D01*
X16344167Y25365000D02*
X16439405Y25317381D01*
X16439405Y25317381D02*
X16582262Y25317381D01*
X16582262Y25317381D02*
X16677500Y25365000D01*
X16677500Y25365000D02*
X16725119Y25412620D01*
X17582262Y25365000D02*
X17487024Y25317381D01*
X17487024Y25317381D02*
X17296548Y25317381D01*
X17296548Y25317381D02*
X17201310Y25365000D01*
X17201310Y25365000D02*
X17153691Y25460239D01*
X17153691Y25460239D02*
X17153691Y25841191D01*
X17153691Y25841191D02*
X17201310Y25936429D01*
X17201310Y25936429D02*
X17296548Y25984048D01*
X17296548Y25984048D02*
X17487024Y25984048D01*
X17487024Y25984048D02*
X17582262Y25936429D01*
X17582262Y25936429D02*
X17629881Y25841191D01*
X17629881Y25841191D02*
X17629881Y25745953D01*
X17629881Y25745953D02*
X17153691Y25650715D01*
D11*
X15177500Y23898691D02*
X15177500Y24398691D01*
X15177500Y24398691D02*
X15367976Y24398691D01*
X15367976Y24398691D02*
X15415595Y24374881D01*
X15415595Y24374881D02*
X15439405Y24351072D01*
X15439405Y24351072D02*
X15463214Y24303453D01*
X15463214Y24303453D02*
X15463214Y24232024D01*
X15463214Y24232024D02*
X15439405Y24184405D01*
X15439405Y24184405D02*
X15415595Y24160596D01*
X15415595Y24160596D02*
X15367976Y24136786D01*
X15367976Y24136786D02*
X15177500Y24136786D01*
X15915595Y23898691D02*
X15677500Y23898691D01*
X15677500Y23898691D02*
X15677500Y24398691D01*
X16058453Y24041548D02*
X16296548Y24041548D01*
X16010834Y23898691D02*
X16177500Y24398691D01*
X16177500Y24398691D02*
X16344167Y23898691D01*
X16606071Y24136786D02*
X16606071Y23898691D01*
X16439405Y24398691D02*
X16606071Y24136786D01*
X16606071Y24136786D02*
X16772738Y24398691D01*
X17201309Y23898691D02*
X16915595Y23898691D01*
X17058452Y23898691D02*
X17058452Y24398691D01*
X17058452Y24398691D02*
X17010833Y24327262D01*
X17010833Y24327262D02*
X16963214Y24279643D01*
X16963214Y24279643D02*
X16915595Y24255834D01*
D10*
X64127142Y-245053D02*
X63650952Y-245053D01*
X63650952Y-245053D02*
X63650952Y754947D01*
X64460476Y278757D02*
X64793809Y278757D01*
X64936666Y-245053D02*
X64460476Y-245053D01*
X64460476Y-245053D02*
X64460476Y754947D01*
X64460476Y754947D02*
X64936666Y754947D01*
X65365238Y-245053D02*
X65365238Y754947D01*
X65365238Y754947D02*
X65603333Y754947D01*
X65603333Y754947D02*
X65746190Y707328D01*
X65746190Y707328D02*
X65841428Y612090D01*
X65841428Y612090D02*
X65889047Y516852D01*
X65889047Y516852D02*
X65936666Y326376D01*
X65936666Y326376D02*
X65936666Y183519D01*
X65936666Y183519D02*
X65889047Y-6957D01*
X65889047Y-6957D02*
X65841428Y-102195D01*
X65841428Y-102195D02*
X65746190Y-197434D01*
X65746190Y-197434D02*
X65603333Y-245053D01*
X65603333Y-245053D02*
X65365238Y-245053D01*
X64232619Y3008043D02*
X64946904Y3008043D01*
X64946904Y3008043D02*
X65089761Y2960424D01*
X65089761Y2960424D02*
X65185000Y2865186D01*
X65185000Y2865186D02*
X65232619Y2722329D01*
X65232619Y2722329D02*
X65232619Y2627091D01*
X65232619Y4008043D02*
X65232619Y3436615D01*
X65232619Y3722329D02*
X64232619Y3722329D01*
X64232619Y3722329D02*
X64375476Y3627091D01*
X64375476Y3627091D02*
X64470714Y3531853D01*
X64470714Y3531853D02*
X64518333Y3436615D01*
X64232619Y4865186D02*
X64232619Y4674710D01*
X64232619Y4674710D02*
X64280238Y4579472D01*
X64280238Y4579472D02*
X64327857Y4531853D01*
X64327857Y4531853D02*
X64470714Y4436615D01*
X64470714Y4436615D02*
X64661190Y4388996D01*
X64661190Y4388996D02*
X65042142Y4388996D01*
X65042142Y4388996D02*
X65137380Y4436615D01*
X65137380Y4436615D02*
X65185000Y4484234D01*
X65185000Y4484234D02*
X65232619Y4579472D01*
X65232619Y4579472D02*
X65232619Y4769948D01*
X65232619Y4769948D02*
X65185000Y4865186D01*
X65185000Y4865186D02*
X65137380Y4912805D01*
X65137380Y4912805D02*
X65042142Y4960424D01*
X65042142Y4960424D02*
X64804047Y4960424D01*
X64804047Y4960424D02*
X64708809Y4912805D01*
X64708809Y4912805D02*
X64661190Y4865186D01*
X64661190Y4865186D02*
X64613571Y4769948D01*
X64613571Y4769948D02*
X64613571Y4579472D01*
X64613571Y4579472D02*
X64661190Y4484234D01*
X64661190Y4484234D02*
X64708809Y4436615D01*
X64708809Y4436615D02*
X64804047Y4388996D01*
X56513832Y-252619D02*
X56037642Y-252619D01*
X56037642Y-252619D02*
X56037642Y747381D01*
X56847166Y271191D02*
X57180499Y271191D01*
X57323356Y-252619D02*
X56847166Y-252619D01*
X56847166Y-252619D02*
X56847166Y747381D01*
X56847166Y747381D02*
X57323356Y747381D01*
X57751928Y-252619D02*
X57751928Y747381D01*
X57751928Y747381D02*
X57990023Y747381D01*
X57990023Y747381D02*
X58132880Y699762D01*
X58132880Y699762D02*
X58228118Y604524D01*
X58228118Y604524D02*
X58275737Y509286D01*
X58275737Y509286D02*
X58323356Y318810D01*
X58323356Y318810D02*
X58323356Y175953D01*
X58323356Y175953D02*
X58275737Y-14523D01*
X58275737Y-14523D02*
X58228118Y-109761D01*
X58228118Y-109761D02*
X58132880Y-205000D01*
X58132880Y-205000D02*
X57990023Y-252619D01*
X57990023Y-252619D02*
X57751928Y-252619D01*
X56619309Y3000477D02*
X57333594Y3000477D01*
X57333594Y3000477D02*
X57476451Y2952858D01*
X57476451Y2952858D02*
X57571690Y2857620D01*
X57571690Y2857620D02*
X57619309Y2714763D01*
X57619309Y2714763D02*
X57619309Y2619525D01*
X57619309Y4000477D02*
X57619309Y3429049D01*
X57619309Y3714763D02*
X56619309Y3714763D01*
X56619309Y3714763D02*
X56762166Y3619525D01*
X56762166Y3619525D02*
X56857404Y3524287D01*
X56857404Y3524287D02*
X56905023Y3429049D01*
X56714547Y4381430D02*
X56666928Y4429049D01*
X56666928Y4429049D02*
X56619309Y4524287D01*
X56619309Y4524287D02*
X56619309Y4762382D01*
X56619309Y4762382D02*
X56666928Y4857620D01*
X56666928Y4857620D02*
X56714547Y4905239D01*
X56714547Y4905239D02*
X56809785Y4952858D01*
X56809785Y4952858D02*
X56905023Y4952858D01*
X56905023Y4952858D02*
X57047880Y4905239D01*
X57047880Y4905239D02*
X57619309Y4333811D01*
X57619309Y4333811D02*
X57619309Y4952858D01*
X52703832Y7367381D02*
X52227642Y7367381D01*
X52227642Y7367381D02*
X52227642Y8367381D01*
X53037166Y7891191D02*
X53370499Y7891191D01*
X53513356Y7367381D02*
X53037166Y7367381D01*
X53037166Y7367381D02*
X53037166Y8367381D01*
X53037166Y8367381D02*
X53513356Y8367381D01*
X53941928Y7367381D02*
X53941928Y8367381D01*
X53941928Y8367381D02*
X54180023Y8367381D01*
X54180023Y8367381D02*
X54322880Y8319762D01*
X54322880Y8319762D02*
X54418118Y8224524D01*
X54418118Y8224524D02*
X54465737Y8129286D01*
X54465737Y8129286D02*
X54513356Y7938810D01*
X54513356Y7938810D02*
X54513356Y7795953D01*
X54513356Y7795953D02*
X54465737Y7605477D01*
X54465737Y7605477D02*
X54418118Y7510239D01*
X54418118Y7510239D02*
X54322880Y7415000D01*
X54322880Y7415000D02*
X54180023Y7367381D01*
X54180023Y7367381D02*
X53941928Y7367381D01*
X52809309Y11096667D02*
X53523594Y11096667D01*
X53523594Y11096667D02*
X53666451Y11049048D01*
X53666451Y11049048D02*
X53761690Y10953810D01*
X53761690Y10953810D02*
X53809309Y10810953D01*
X53809309Y10810953D02*
X53809309Y10715715D01*
X53809309Y11620477D02*
X53809309Y11810953D01*
X53809309Y11810953D02*
X53761690Y11906191D01*
X53761690Y11906191D02*
X53714070Y11953810D01*
X53714070Y11953810D02*
X53571213Y12049048D01*
X53571213Y12049048D02*
X53380737Y12096667D01*
X53380737Y12096667D02*
X52999785Y12096667D01*
X52999785Y12096667D02*
X52904547Y12049048D01*
X52904547Y12049048D02*
X52856928Y12001429D01*
X52856928Y12001429D02*
X52809309Y11906191D01*
X52809309Y11906191D02*
X52809309Y11715715D01*
X52809309Y11715715D02*
X52856928Y11620477D01*
X52856928Y11620477D02*
X52904547Y11572858D01*
X52904547Y11572858D02*
X52999785Y11525239D01*
X52999785Y11525239D02*
X53237880Y11525239D01*
X53237880Y11525239D02*
X53333118Y11572858D01*
X53333118Y11572858D02*
X53380737Y11620477D01*
X53380737Y11620477D02*
X53428356Y11715715D01*
X53428356Y11715715D02*
X53428356Y11906191D01*
X53428356Y11906191D02*
X53380737Y12001429D01*
X53380737Y12001429D02*
X53333118Y12049048D01*
X53333118Y12049048D02*
X53237880Y12096667D01*
X45802619Y21113453D02*
X45802619Y20542025D01*
X45802619Y20827739D02*
X44802619Y20827739D01*
X44802619Y20827739D02*
X44945476Y20732501D01*
X44945476Y20732501D02*
X45040714Y20637263D01*
X45040714Y20637263D02*
X45088333Y20542025D01*
X45802619Y21542025D02*
X44802619Y21542025D01*
X45421666Y21637263D02*
X45802619Y21922977D01*
X45135952Y21922977D02*
X45516904Y21542025D01*
D11*
X47221309Y20911072D02*
X46983214Y20744406D01*
X47221309Y20625358D02*
X46721309Y20625358D01*
X46721309Y20625358D02*
X46721309Y20815834D01*
X46721309Y20815834D02*
X46745119Y20863453D01*
X46745119Y20863453D02*
X46768928Y20887263D01*
X46768928Y20887263D02*
X46816547Y20911072D01*
X46816547Y20911072D02*
X46887976Y20911072D01*
X46887976Y20911072D02*
X46935595Y20887263D01*
X46935595Y20887263D02*
X46959404Y20863453D01*
X46959404Y20863453D02*
X46983214Y20815834D01*
X46983214Y20815834D02*
X46983214Y20625358D01*
X47221309Y21387263D02*
X47221309Y21101549D01*
X47221309Y21244406D02*
X46721309Y21244406D01*
X46721309Y21244406D02*
X46792738Y21196787D01*
X46792738Y21196787D02*
X46840357Y21149168D01*
X46840357Y21149168D02*
X46864166Y21101549D01*
X46768928Y21577739D02*
X46745119Y21601548D01*
X46745119Y21601548D02*
X46721309Y21649167D01*
X46721309Y21649167D02*
X46721309Y21768215D01*
X46721309Y21768215D02*
X46745119Y21815834D01*
X46745119Y21815834D02*
X46768928Y21839643D01*
X46768928Y21839643D02*
X46816547Y21863453D01*
X46816547Y21863453D02*
X46864166Y21863453D01*
X46864166Y21863453D02*
X46935595Y21839643D01*
X46935595Y21839643D02*
X47221309Y21553929D01*
X47221309Y21553929D02*
X47221309Y21863453D01*
D10*
X32568452Y29127381D02*
X31997024Y29127381D01*
X32282738Y29127381D02*
X32282738Y30127381D01*
X32282738Y30127381D02*
X32187500Y29984524D01*
X32187500Y29984524D02*
X32092262Y29889286D01*
X32092262Y29889286D02*
X31997024Y29841667D01*
X32997024Y29127381D02*
X32997024Y30127381D01*
X33092262Y29508334D02*
X33377976Y29127381D01*
X33377976Y29794048D02*
X32997024Y29413096D01*
D11*
X32366071Y27708691D02*
X32199405Y27946786D01*
X32080357Y27708691D02*
X32080357Y28208691D01*
X32080357Y28208691D02*
X32270833Y28208691D01*
X32270833Y28208691D02*
X32318452Y28184881D01*
X32318452Y28184881D02*
X32342262Y28161072D01*
X32342262Y28161072D02*
X32366071Y28113453D01*
X32366071Y28113453D02*
X32366071Y28042024D01*
X32366071Y28042024D02*
X32342262Y27994405D01*
X32342262Y27994405D02*
X32318452Y27970596D01*
X32318452Y27970596D02*
X32270833Y27946786D01*
X32270833Y27946786D02*
X32080357Y27946786D01*
X32842262Y27708691D02*
X32556548Y27708691D01*
X32699405Y27708691D02*
X32699405Y28208691D01*
X32699405Y28208691D02*
X32651786Y28137262D01*
X32651786Y28137262D02*
X32604167Y28089643D01*
X32604167Y28089643D02*
X32556548Y28065834D01*
X33080357Y27708691D02*
X33175595Y27708691D01*
X33175595Y27708691D02*
X33223214Y27732500D01*
X33223214Y27732500D02*
X33247023Y27756310D01*
X33247023Y27756310D02*
X33294642Y27827739D01*
X33294642Y27827739D02*
X33318452Y27922977D01*
X33318452Y27922977D02*
X33318452Y28113453D01*
X33318452Y28113453D02*
X33294642Y28161072D01*
X33294642Y28161072D02*
X33270833Y28184881D01*
X33270833Y28184881D02*
X33223214Y28208691D01*
X33223214Y28208691D02*
X33127976Y28208691D01*
X33127976Y28208691D02*
X33080357Y28184881D01*
X33080357Y28184881D02*
X33056547Y28161072D01*
X33056547Y28161072D02*
X33032738Y28113453D01*
X33032738Y28113453D02*
X33032738Y27994405D01*
X33032738Y27994405D02*
X33056547Y27946786D01*
X33056547Y27946786D02*
X33080357Y27922977D01*
X33080357Y27922977D02*
X33127976Y27899167D01*
X33127976Y27899167D02*
X33223214Y27899167D01*
X33223214Y27899167D02*
X33270833Y27922977D01*
X33270833Y27922977D02*
X33294642Y27946786D01*
X33294642Y27946786D02*
X33318452Y27994405D01*
D10*
X64133832Y7367381D02*
X63657642Y7367381D01*
X63657642Y7367381D02*
X63657642Y8367381D01*
X64467166Y7891191D02*
X64800499Y7891191D01*
X64943356Y7367381D02*
X64467166Y7367381D01*
X64467166Y7367381D02*
X64467166Y8367381D01*
X64467166Y8367381D02*
X64943356Y8367381D01*
X65371928Y7367381D02*
X65371928Y8367381D01*
X65371928Y8367381D02*
X65610023Y8367381D01*
X65610023Y8367381D02*
X65752880Y8319762D01*
X65752880Y8319762D02*
X65848118Y8224524D01*
X65848118Y8224524D02*
X65895737Y8129286D01*
X65895737Y8129286D02*
X65943356Y7938810D01*
X65943356Y7938810D02*
X65943356Y7795953D01*
X65943356Y7795953D02*
X65895737Y7605477D01*
X65895737Y7605477D02*
X65848118Y7510239D01*
X65848118Y7510239D02*
X65752880Y7415000D01*
X65752880Y7415000D02*
X65610023Y7367381D01*
X65610023Y7367381D02*
X65371928Y7367381D01*
X64239309Y10620477D02*
X64953594Y10620477D01*
X64953594Y10620477D02*
X65096451Y10572858D01*
X65096451Y10572858D02*
X65191690Y10477620D01*
X65191690Y10477620D02*
X65239309Y10334763D01*
X65239309Y10334763D02*
X65239309Y10239525D01*
X65239309Y11620477D02*
X65239309Y11049049D01*
X65239309Y11334763D02*
X64239309Y11334763D01*
X64239309Y11334763D02*
X64382166Y11239525D01*
X64382166Y11239525D02*
X64477404Y11144287D01*
X64477404Y11144287D02*
X64525023Y11049049D01*
X64239309Y12525239D02*
X64239309Y12049049D01*
X64239309Y12049049D02*
X64715499Y12001430D01*
X64715499Y12001430D02*
X64667880Y12049049D01*
X64667880Y12049049D02*
X64620261Y12144287D01*
X64620261Y12144287D02*
X64620261Y12382382D01*
X64620261Y12382382D02*
X64667880Y12477620D01*
X64667880Y12477620D02*
X64715499Y12525239D01*
X64715499Y12525239D02*
X64810737Y12572858D01*
X64810737Y12572858D02*
X65048832Y12572858D01*
X65048832Y12572858D02*
X65144070Y12525239D01*
X65144070Y12525239D02*
X65191690Y12477620D01*
X65191690Y12477620D02*
X65239309Y12382382D01*
X65239309Y12382382D02*
X65239309Y12144287D01*
X65239309Y12144287D02*
X65191690Y12049049D01*
X65191690Y12049049D02*
X65144070Y12001430D01*
X41055000Y8033096D02*
X41102619Y8175953D01*
X41102619Y8175953D02*
X41102619Y8414048D01*
X41102619Y8414048D02*
X41055000Y8509286D01*
X41055000Y8509286D02*
X41007380Y8556905D01*
X41007380Y8556905D02*
X40912142Y8604524D01*
X40912142Y8604524D02*
X40816904Y8604524D01*
X40816904Y8604524D02*
X40721666Y8556905D01*
X40721666Y8556905D02*
X40674047Y8509286D01*
X40674047Y8509286D02*
X40626428Y8414048D01*
X40626428Y8414048D02*
X40578809Y8223572D01*
X40578809Y8223572D02*
X40531190Y8128334D01*
X40531190Y8128334D02*
X40483571Y8080715D01*
X40483571Y8080715D02*
X40388333Y8033096D01*
X40388333Y8033096D02*
X40293095Y8033096D01*
X40293095Y8033096D02*
X40197857Y8080715D01*
X40197857Y8080715D02*
X40150238Y8128334D01*
X40150238Y8128334D02*
X40102619Y8223572D01*
X40102619Y8223572D02*
X40102619Y8461667D01*
X40102619Y8461667D02*
X40150238Y8604524D01*
X40435952Y9033096D02*
X41435952Y9033096D01*
X40483571Y9033096D02*
X40435952Y9128334D01*
X40435952Y9128334D02*
X40435952Y9318810D01*
X40435952Y9318810D02*
X40483571Y9414048D01*
X40483571Y9414048D02*
X40531190Y9461667D01*
X40531190Y9461667D02*
X40626428Y9509286D01*
X40626428Y9509286D02*
X40912142Y9509286D01*
X40912142Y9509286D02*
X41007380Y9461667D01*
X41007380Y9461667D02*
X41055000Y9414048D01*
X41055000Y9414048D02*
X41102619Y9318810D01*
X41102619Y9318810D02*
X41102619Y9128334D01*
X41102619Y9128334D02*
X41055000Y9033096D01*
X41055000Y10318810D02*
X41102619Y10223572D01*
X41102619Y10223572D02*
X41102619Y10033096D01*
X41102619Y10033096D02*
X41055000Y9937858D01*
X41055000Y9937858D02*
X40959761Y9890239D01*
X40959761Y9890239D02*
X40578809Y9890239D01*
X40578809Y9890239D02*
X40483571Y9937858D01*
X40483571Y9937858D02*
X40435952Y10033096D01*
X40435952Y10033096D02*
X40435952Y10223572D01*
X40435952Y10223572D02*
X40483571Y10318810D01*
X40483571Y10318810D02*
X40578809Y10366429D01*
X40578809Y10366429D02*
X40674047Y10366429D01*
X40674047Y10366429D02*
X40769285Y9890239D01*
X41102619Y11223572D02*
X40578809Y11223572D01*
X40578809Y11223572D02*
X40483571Y11175953D01*
X40483571Y11175953D02*
X40435952Y11080715D01*
X40435952Y11080715D02*
X40435952Y10890239D01*
X40435952Y10890239D02*
X40483571Y10795001D01*
X41055000Y11223572D02*
X41102619Y11128334D01*
X41102619Y11128334D02*
X41102619Y10890239D01*
X41102619Y10890239D02*
X41055000Y10795001D01*
X41055000Y10795001D02*
X40959761Y10747382D01*
X40959761Y10747382D02*
X40864523Y10747382D01*
X40864523Y10747382D02*
X40769285Y10795001D01*
X40769285Y10795001D02*
X40721666Y10890239D01*
X40721666Y10890239D02*
X40721666Y11128334D01*
X40721666Y11128334D02*
X40674047Y11223572D01*
X41102619Y11699763D02*
X40102619Y11699763D01*
X40721666Y11795001D02*
X41102619Y12080715D01*
X40435952Y12080715D02*
X40816904Y11699763D01*
X41055000Y12890239D02*
X41102619Y12795001D01*
X41102619Y12795001D02*
X41102619Y12604525D01*
X41102619Y12604525D02*
X41055000Y12509287D01*
X41055000Y12509287D02*
X40959761Y12461668D01*
X40959761Y12461668D02*
X40578809Y12461668D01*
X40578809Y12461668D02*
X40483571Y12509287D01*
X40483571Y12509287D02*
X40435952Y12604525D01*
X40435952Y12604525D02*
X40435952Y12795001D01*
X40435952Y12795001D02*
X40483571Y12890239D01*
X40483571Y12890239D02*
X40578809Y12937858D01*
X40578809Y12937858D02*
X40674047Y12937858D01*
X40674047Y12937858D02*
X40769285Y12461668D01*
X41102619Y13366430D02*
X40435952Y13366430D01*
X40626428Y13366430D02*
X40531190Y13414049D01*
X40531190Y13414049D02*
X40483571Y13461668D01*
X40483571Y13461668D02*
X40435952Y13556906D01*
X40435952Y13556906D02*
X40435952Y13652144D01*
X37562619Y9826667D02*
X38276904Y9826667D01*
X38276904Y9826667D02*
X38419761Y9779048D01*
X38419761Y9779048D02*
X38515000Y9683810D01*
X38515000Y9683810D02*
X38562619Y9540953D01*
X38562619Y9540953D02*
X38562619Y9445715D01*
X37562619Y10731429D02*
X37562619Y10540953D01*
X37562619Y10540953D02*
X37610238Y10445715D01*
X37610238Y10445715D02*
X37657857Y10398096D01*
X37657857Y10398096D02*
X37800714Y10302858D01*
X37800714Y10302858D02*
X37991190Y10255239D01*
X37991190Y10255239D02*
X38372142Y10255239D01*
X38372142Y10255239D02*
X38467380Y10302858D01*
X38467380Y10302858D02*
X38515000Y10350477D01*
X38515000Y10350477D02*
X38562619Y10445715D01*
X38562619Y10445715D02*
X38562619Y10636191D01*
X38562619Y10636191D02*
X38515000Y10731429D01*
X38515000Y10731429D02*
X38467380Y10779048D01*
X38467380Y10779048D02*
X38372142Y10826667D01*
X38372142Y10826667D02*
X38134047Y10826667D01*
X38134047Y10826667D02*
X38038809Y10779048D01*
X38038809Y10779048D02*
X37991190Y10731429D01*
X37991190Y10731429D02*
X37943571Y10636191D01*
X37943571Y10636191D02*
X37943571Y10445715D01*
X37943571Y10445715D02*
X37991190Y10350477D01*
X37991190Y10350477D02*
X38038809Y10302858D01*
X38038809Y10302858D02*
X38134047Y10255239D01*
D12*
X57367526Y19706381D02*
X58395621Y19706381D01*
X58395621Y19706381D02*
X58516573Y19766858D01*
X58516573Y19766858D02*
X58577050Y19827334D01*
X58577050Y19827334D02*
X58637526Y19948286D01*
X58637526Y19948286D02*
X58637526Y20190191D01*
X58637526Y20190191D02*
X58577050Y20311143D01*
X58577050Y20311143D02*
X58516573Y20371620D01*
X58516573Y20371620D02*
X58395621Y20432096D01*
X58395621Y20432096D02*
X57367526Y20432096D01*
X58637526Y21702096D02*
X58637526Y20976381D01*
X58637526Y21339238D02*
X57367526Y21339238D01*
X57367526Y21339238D02*
X57548954Y21218286D01*
X57548954Y21218286D02*
X57669907Y21097334D01*
X57669907Y21097334D02*
X57730383Y20976381D01*
D10*
X56513832Y7367381D02*
X56037642Y7367381D01*
X56037642Y7367381D02*
X56037642Y8367381D01*
X56847166Y7891191D02*
X57180499Y7891191D01*
X57323356Y7367381D02*
X56847166Y7367381D01*
X56847166Y7367381D02*
X56847166Y8367381D01*
X56847166Y8367381D02*
X57323356Y8367381D01*
X57751928Y7367381D02*
X57751928Y8367381D01*
X57751928Y8367381D02*
X57990023Y8367381D01*
X57990023Y8367381D02*
X58132880Y8319762D01*
X58132880Y8319762D02*
X58228118Y8224524D01*
X58228118Y8224524D02*
X58275737Y8129286D01*
X58275737Y8129286D02*
X58323356Y7938810D01*
X58323356Y7938810D02*
X58323356Y7795953D01*
X58323356Y7795953D02*
X58275737Y7605477D01*
X58275737Y7605477D02*
X58228118Y7510239D01*
X58228118Y7510239D02*
X58132880Y7415000D01*
X58132880Y7415000D02*
X57990023Y7367381D01*
X57990023Y7367381D02*
X57751928Y7367381D01*
X56619309Y10620477D02*
X57333594Y10620477D01*
X57333594Y10620477D02*
X57476451Y10572858D01*
X57476451Y10572858D02*
X57571690Y10477620D01*
X57571690Y10477620D02*
X57619309Y10334763D01*
X57619309Y10334763D02*
X57619309Y10239525D01*
X57619309Y11620477D02*
X57619309Y11049049D01*
X57619309Y11334763D02*
X56619309Y11334763D01*
X56619309Y11334763D02*
X56762166Y11239525D01*
X56762166Y11239525D02*
X56857404Y11144287D01*
X56857404Y11144287D02*
X56905023Y11049049D01*
X57619309Y12572858D02*
X57619309Y12001430D01*
X57619309Y12287144D02*
X56619309Y12287144D01*
X56619309Y12287144D02*
X56762166Y12191906D01*
X56762166Y12191906D02*
X56857404Y12096668D01*
X56857404Y12096668D02*
X56905023Y12001430D01*
X49474547Y4134525D02*
X49426928Y4182144D01*
X49426928Y4182144D02*
X49379309Y4277382D01*
X49379309Y4277382D02*
X49379309Y4515477D01*
X49379309Y4515477D02*
X49426928Y4610715D01*
X49426928Y4610715D02*
X49474547Y4658334D01*
X49474547Y4658334D02*
X49569785Y4705953D01*
X49569785Y4705953D02*
X49665023Y4705953D01*
X49665023Y4705953D02*
X49807880Y4658334D01*
X49807880Y4658334D02*
X50379309Y4086906D01*
X50379309Y4086906D02*
X50379309Y4705953D01*
X49379309Y5325001D02*
X49379309Y5420239D01*
X49379309Y5420239D02*
X49426928Y5515477D01*
X49426928Y5515477D02*
X49474547Y5563096D01*
X49474547Y5563096D02*
X49569785Y5610715D01*
X49569785Y5610715D02*
X49760261Y5658334D01*
X49760261Y5658334D02*
X49998356Y5658334D01*
X49998356Y5658334D02*
X50188832Y5610715D01*
X50188832Y5610715D02*
X50284070Y5563096D01*
X50284070Y5563096D02*
X50331690Y5515477D01*
X50331690Y5515477D02*
X50379309Y5420239D01*
X50379309Y5420239D02*
X50379309Y5325001D01*
X50379309Y5325001D02*
X50331690Y5229763D01*
X50331690Y5229763D02*
X50284070Y5182144D01*
X50284070Y5182144D02*
X50188832Y5134525D01*
X50188832Y5134525D02*
X49998356Y5086906D01*
X49998356Y5086906D02*
X49760261Y5086906D01*
X49760261Y5086906D02*
X49569785Y5134525D01*
X49569785Y5134525D02*
X49474547Y5182144D01*
X49474547Y5182144D02*
X49426928Y5229763D01*
X49426928Y5229763D02*
X49379309Y5325001D01*
X49379309Y6277382D02*
X49379309Y6372620D01*
X49379309Y6372620D02*
X49426928Y6467858D01*
X49426928Y6467858D02*
X49474547Y6515477D01*
X49474547Y6515477D02*
X49569785Y6563096D01*
X49569785Y6563096D02*
X49760261Y6610715D01*
X49760261Y6610715D02*
X49998356Y6610715D01*
X49998356Y6610715D02*
X50188832Y6563096D01*
X50188832Y6563096D02*
X50284070Y6515477D01*
X50284070Y6515477D02*
X50331690Y6467858D01*
X50331690Y6467858D02*
X50379309Y6372620D01*
X50379309Y6372620D02*
X50379309Y6277382D01*
X50379309Y6277382D02*
X50331690Y6182144D01*
X50331690Y6182144D02*
X50284070Y6134525D01*
X50284070Y6134525D02*
X50188832Y6086906D01*
X50188832Y6086906D02*
X49998356Y6039287D01*
X49998356Y6039287D02*
X49760261Y6039287D01*
X49760261Y6039287D02*
X49569785Y6086906D01*
X49569785Y6086906D02*
X49474547Y6134525D01*
X49474547Y6134525D02*
X49426928Y6182144D01*
X49426928Y6182144D02*
X49379309Y6277382D01*
X50379309Y7753573D02*
X50379309Y7991668D01*
X50379309Y7991668D02*
X50188832Y7991668D01*
X50188832Y7991668D02*
X50141213Y7896430D01*
X50141213Y7896430D02*
X50045975Y7801192D01*
X50045975Y7801192D02*
X49903118Y7753573D01*
X49903118Y7753573D02*
X49665023Y7753573D01*
X49665023Y7753573D02*
X49522166Y7801192D01*
X49522166Y7801192D02*
X49426928Y7896430D01*
X49426928Y7896430D02*
X49379309Y8039287D01*
X49379309Y8039287D02*
X49379309Y8229763D01*
X49379309Y8229763D02*
X49426928Y8372620D01*
X49426928Y8372620D02*
X49522166Y8467858D01*
X49522166Y8467858D02*
X49665023Y8515477D01*
X49665023Y8515477D02*
X49903118Y8515477D01*
X49903118Y8515477D02*
X50045975Y8467858D01*
X50045975Y8467858D02*
X50141213Y8372620D01*
X50141213Y8372620D02*
X50188832Y8277382D01*
X50188832Y8277382D02*
X50379309Y8277382D01*
X50379309Y8277382D02*
X50379309Y8515477D01*
D11*
X48497999Y6003572D02*
X48259904Y5836906D01*
X48497999Y5717858D02*
X47997999Y5717858D01*
X47997999Y5717858D02*
X47997999Y5908334D01*
X47997999Y5908334D02*
X48021809Y5955953D01*
X48021809Y5955953D02*
X48045618Y5979763D01*
X48045618Y5979763D02*
X48093237Y6003572D01*
X48093237Y6003572D02*
X48164666Y6003572D01*
X48164666Y6003572D02*
X48212285Y5979763D01*
X48212285Y5979763D02*
X48236094Y5955953D01*
X48236094Y5955953D02*
X48259904Y5908334D01*
X48259904Y5908334D02*
X48259904Y5717858D01*
X48497999Y6479763D02*
X48497999Y6194049D01*
X48497999Y6336906D02*
X47997999Y6336906D01*
X47997999Y6336906D02*
X48069428Y6289287D01*
X48069428Y6289287D02*
X48117047Y6241668D01*
X48117047Y6241668D02*
X48140856Y6194049D01*
X47997999Y6932143D02*
X47997999Y6694048D01*
X47997999Y6694048D02*
X48236094Y6670239D01*
X48236094Y6670239D02*
X48212285Y6694048D01*
X48212285Y6694048D02*
X48188475Y6741667D01*
X48188475Y6741667D02*
X48188475Y6860715D01*
X48188475Y6860715D02*
X48212285Y6908334D01*
X48212285Y6908334D02*
X48236094Y6932143D01*
X48236094Y6932143D02*
X48283713Y6955953D01*
X48283713Y6955953D02*
X48402761Y6955953D01*
X48402761Y6955953D02*
X48450380Y6932143D01*
X48450380Y6932143D02*
X48474190Y6908334D01*
X48474190Y6908334D02*
X48497999Y6860715D01*
X48497999Y6860715D02*
X48497999Y6741667D01*
X48497999Y6741667D02*
X48474190Y6694048D01*
X48474190Y6694048D02*
X48450380Y6670239D01*
D10*
X41102619Y1802143D02*
X41102619Y1230715D01*
X41102619Y1516429D02*
X40102619Y1516429D01*
X40102619Y1516429D02*
X40245476Y1421191D01*
X40245476Y1421191D02*
X40340714Y1325953D01*
X40340714Y1325953D02*
X40388333Y1230715D01*
X40102619Y2421191D02*
X40102619Y2516429D01*
X40102619Y2516429D02*
X40150238Y2611667D01*
X40150238Y2611667D02*
X40197857Y2659286D01*
X40197857Y2659286D02*
X40293095Y2706905D01*
X40293095Y2706905D02*
X40483571Y2754524D01*
X40483571Y2754524D02*
X40721666Y2754524D01*
X40721666Y2754524D02*
X40912142Y2706905D01*
X40912142Y2706905D02*
X41007380Y2659286D01*
X41007380Y2659286D02*
X41055000Y2611667D01*
X41055000Y2611667D02*
X41102619Y2516429D01*
X41102619Y2516429D02*
X41102619Y2421191D01*
X41102619Y2421191D02*
X41055000Y2325953D01*
X41055000Y2325953D02*
X41007380Y2278334D01*
X41007380Y2278334D02*
X40912142Y2230715D01*
X40912142Y2230715D02*
X40721666Y2183096D01*
X40721666Y2183096D02*
X40483571Y2183096D01*
X40483571Y2183096D02*
X40293095Y2230715D01*
X40293095Y2230715D02*
X40197857Y2278334D01*
X40197857Y2278334D02*
X40150238Y2325953D01*
X40150238Y2325953D02*
X40102619Y2421191D01*
X40102619Y3373572D02*
X40102619Y3468810D01*
X40102619Y3468810D02*
X40150238Y3564048D01*
X40150238Y3564048D02*
X40197857Y3611667D01*
X40197857Y3611667D02*
X40293095Y3659286D01*
X40293095Y3659286D02*
X40483571Y3706905D01*
X40483571Y3706905D02*
X40721666Y3706905D01*
X40721666Y3706905D02*
X40912142Y3659286D01*
X40912142Y3659286D02*
X41007380Y3611667D01*
X41007380Y3611667D02*
X41055000Y3564048D01*
X41055000Y3564048D02*
X41102619Y3468810D01*
X41102619Y3468810D02*
X41102619Y3373572D01*
X41102619Y3373572D02*
X41055000Y3278334D01*
X41055000Y3278334D02*
X41007380Y3230715D01*
X41007380Y3230715D02*
X40912142Y3183096D01*
X40912142Y3183096D02*
X40721666Y3135477D01*
X40721666Y3135477D02*
X40483571Y3135477D01*
X40483571Y3135477D02*
X40293095Y3183096D01*
X40293095Y3183096D02*
X40197857Y3230715D01*
X40197857Y3230715D02*
X40150238Y3278334D01*
X40150238Y3278334D02*
X40102619Y3373572D01*
X41102619Y4135477D02*
X40102619Y4135477D01*
X40721666Y4230715D02*
X41102619Y4516429D01*
X40435952Y4516429D02*
X40816904Y4135477D01*
X40435952Y5706906D02*
X41435952Y5706906D01*
X40483571Y5706906D02*
X40435952Y5802144D01*
X40435952Y5802144D02*
X40435952Y5992620D01*
X40435952Y5992620D02*
X40483571Y6087858D01*
X40483571Y6087858D02*
X40531190Y6135477D01*
X40531190Y6135477D02*
X40626428Y6183096D01*
X40626428Y6183096D02*
X40912142Y6183096D01*
X40912142Y6183096D02*
X41007380Y6135477D01*
X41007380Y6135477D02*
X41055000Y6087858D01*
X41055000Y6087858D02*
X41102619Y5992620D01*
X41102619Y5992620D02*
X41102619Y5802144D01*
X41102619Y5802144D02*
X41055000Y5706906D01*
X41102619Y6754525D02*
X41055000Y6659287D01*
X41055000Y6659287D02*
X41007380Y6611668D01*
X41007380Y6611668D02*
X40912142Y6564049D01*
X40912142Y6564049D02*
X40626428Y6564049D01*
X40626428Y6564049D02*
X40531190Y6611668D01*
X40531190Y6611668D02*
X40483571Y6659287D01*
X40483571Y6659287D02*
X40435952Y6754525D01*
X40435952Y6754525D02*
X40435952Y6897382D01*
X40435952Y6897382D02*
X40483571Y6992620D01*
X40483571Y6992620D02*
X40531190Y7040239D01*
X40531190Y7040239D02*
X40626428Y7087858D01*
X40626428Y7087858D02*
X40912142Y7087858D01*
X40912142Y7087858D02*
X41007380Y7040239D01*
X41007380Y7040239D02*
X41055000Y6992620D01*
X41055000Y6992620D02*
X41102619Y6897382D01*
X41102619Y6897382D02*
X41102619Y6754525D01*
X40435952Y7373573D02*
X40435952Y7754525D01*
X40102619Y7516430D02*
X40959761Y7516430D01*
X40959761Y7516430D02*
X41055000Y7564049D01*
X41055000Y7564049D02*
X41102619Y7659287D01*
X41102619Y7659287D02*
X41102619Y7754525D01*
X37562619Y4746667D02*
X38276904Y4746667D01*
X38276904Y4746667D02*
X38419761Y4699048D01*
X38419761Y4699048D02*
X38515000Y4603810D01*
X38515000Y4603810D02*
X38562619Y4460953D01*
X38562619Y4460953D02*
X38562619Y4365715D01*
X37562619Y5127620D02*
X37562619Y5794286D01*
X37562619Y5794286D02*
X38562619Y5365715D01*
X60323832Y-252619D02*
X59847642Y-252619D01*
X59847642Y-252619D02*
X59847642Y747381D01*
X60657166Y271191D02*
X60990499Y271191D01*
X61133356Y-252619D02*
X60657166Y-252619D01*
X60657166Y-252619D02*
X60657166Y747381D01*
X60657166Y747381D02*
X61133356Y747381D01*
X61561928Y-252619D02*
X61561928Y747381D01*
X61561928Y747381D02*
X61800023Y747381D01*
X61800023Y747381D02*
X61942880Y699762D01*
X61942880Y699762D02*
X62038118Y604524D01*
X62038118Y604524D02*
X62085737Y509286D01*
X62085737Y509286D02*
X62133356Y318810D01*
X62133356Y318810D02*
X62133356Y175953D01*
X62133356Y175953D02*
X62085737Y-14523D01*
X62085737Y-14523D02*
X62038118Y-109761D01*
X62038118Y-109761D02*
X61942880Y-205000D01*
X61942880Y-205000D02*
X61800023Y-252619D01*
X61800023Y-252619D02*
X61561928Y-252619D01*
X60429309Y3000477D02*
X61143594Y3000477D01*
X61143594Y3000477D02*
X61286451Y2952858D01*
X61286451Y2952858D02*
X61381690Y2857620D01*
X61381690Y2857620D02*
X61429309Y2714763D01*
X61429309Y2714763D02*
X61429309Y2619525D01*
X61429309Y4000477D02*
X61429309Y3429049D01*
X61429309Y3714763D02*
X60429309Y3714763D01*
X60429309Y3714763D02*
X60572166Y3619525D01*
X60572166Y3619525D02*
X60667404Y3524287D01*
X60667404Y3524287D02*
X60715023Y3429049D01*
X60762642Y4857620D02*
X61429309Y4857620D01*
X60381690Y4619525D02*
X61095975Y4381430D01*
X61095975Y4381430D02*
X61095975Y5000477D01*
X46966428Y648572D02*
X46966428Y172381D01*
X46633095Y1172381D02*
X46966428Y648572D01*
X46966428Y648572D02*
X47299761Y1172381D01*
X48014047Y220000D02*
X47918809Y172381D01*
X47918809Y172381D02*
X47728333Y172381D01*
X47728333Y172381D02*
X47633095Y220000D01*
X47633095Y220000D02*
X47585476Y315239D01*
X47585476Y315239D02*
X47585476Y696191D01*
X47585476Y696191D02*
X47633095Y791429D01*
X47633095Y791429D02*
X47728333Y839048D01*
X47728333Y839048D02*
X47918809Y839048D01*
X47918809Y839048D02*
X48014047Y791429D01*
X48014047Y791429D02*
X48061666Y696191D01*
X48061666Y696191D02*
X48061666Y600953D01*
X48061666Y600953D02*
X47585476Y505715D01*
X48633095Y172381D02*
X48537857Y220000D01*
X48537857Y220000D02*
X48490238Y315239D01*
X48490238Y315239D02*
X48490238Y1172381D01*
X49156905Y172381D02*
X49061667Y220000D01*
X49061667Y220000D02*
X49014048Y315239D01*
X49014048Y315239D02*
X49014048Y1172381D01*
X49680715Y172381D02*
X49585477Y220000D01*
X49585477Y220000D02*
X49537858Y267620D01*
X49537858Y267620D02*
X49490239Y362858D01*
X49490239Y362858D02*
X49490239Y648572D01*
X49490239Y648572D02*
X49537858Y743810D01*
X49537858Y743810D02*
X49585477Y791429D01*
X49585477Y791429D02*
X49680715Y839048D01*
X49680715Y839048D02*
X49823572Y839048D01*
X49823572Y839048D02*
X49918810Y791429D01*
X49918810Y791429D02*
X49966429Y743810D01*
X49966429Y743810D02*
X50014048Y648572D01*
X50014048Y648572D02*
X50014048Y362858D01*
X50014048Y362858D02*
X49966429Y267620D01*
X49966429Y267620D02*
X49918810Y220000D01*
X49918810Y220000D02*
X49823572Y172381D01*
X49823572Y172381D02*
X49680715Y172381D01*
X50347382Y839048D02*
X50537858Y172381D01*
X50537858Y172381D02*
X50728334Y648572D01*
X50728334Y648572D02*
X50918810Y172381D01*
X50918810Y172381D02*
X51109286Y839048D01*
D11*
X48497999Y1540001D02*
X47997999Y1540001D01*
X47997999Y1540001D02*
X47997999Y1730477D01*
X47997999Y1730477D02*
X48021809Y1778096D01*
X48021809Y1778096D02*
X48045618Y1801906D01*
X48045618Y1801906D02*
X48093237Y1825715D01*
X48093237Y1825715D02*
X48164666Y1825715D01*
X48164666Y1825715D02*
X48212285Y1801906D01*
X48212285Y1801906D02*
X48236094Y1778096D01*
X48236094Y1778096D02*
X48259904Y1730477D01*
X48259904Y1730477D02*
X48259904Y1540001D01*
X48497999Y2278096D02*
X48497999Y2040001D01*
X48497999Y2040001D02*
X47997999Y2040001D01*
X48355142Y2420954D02*
X48355142Y2659049D01*
X48497999Y2373335D02*
X47997999Y2540001D01*
X47997999Y2540001D02*
X48497999Y2706668D01*
X48259904Y2968572D02*
X48497999Y2968572D01*
X47997999Y2801906D02*
X48259904Y2968572D01*
X48259904Y2968572D02*
X47997999Y3135239D01*
X48164666Y3516191D02*
X48497999Y3516191D01*
X47974190Y3397143D02*
X48331332Y3278096D01*
X48331332Y3278096D02*
X48331332Y3587619D01*
D10*
X60323832Y7367381D02*
X59847642Y7367381D01*
X59847642Y7367381D02*
X59847642Y8367381D01*
X60657166Y7891191D02*
X60990499Y7891191D01*
X61133356Y7367381D02*
X60657166Y7367381D01*
X60657166Y7367381D02*
X60657166Y8367381D01*
X60657166Y8367381D02*
X61133356Y8367381D01*
X61561928Y7367381D02*
X61561928Y8367381D01*
X61561928Y8367381D02*
X61800023Y8367381D01*
X61800023Y8367381D02*
X61942880Y8319762D01*
X61942880Y8319762D02*
X62038118Y8224524D01*
X62038118Y8224524D02*
X62085737Y8129286D01*
X62085737Y8129286D02*
X62133356Y7938810D01*
X62133356Y7938810D02*
X62133356Y7795953D01*
X62133356Y7795953D02*
X62085737Y7605477D01*
X62085737Y7605477D02*
X62038118Y7510239D01*
X62038118Y7510239D02*
X61942880Y7415000D01*
X61942880Y7415000D02*
X61800023Y7367381D01*
X61800023Y7367381D02*
X61561928Y7367381D01*
X60429309Y10620477D02*
X61143594Y10620477D01*
X61143594Y10620477D02*
X61286451Y10572858D01*
X61286451Y10572858D02*
X61381690Y10477620D01*
X61381690Y10477620D02*
X61429309Y10334763D01*
X61429309Y10334763D02*
X61429309Y10239525D01*
X61429309Y11620477D02*
X61429309Y11049049D01*
X61429309Y11334763D02*
X60429309Y11334763D01*
X60429309Y11334763D02*
X60572166Y11239525D01*
X60572166Y11239525D02*
X60667404Y11144287D01*
X60667404Y11144287D02*
X60715023Y11049049D01*
X60429309Y11953811D02*
X60429309Y12572858D01*
X60429309Y12572858D02*
X60810261Y12239525D01*
X60810261Y12239525D02*
X60810261Y12382382D01*
X60810261Y12382382D02*
X60857880Y12477620D01*
X60857880Y12477620D02*
X60905499Y12525239D01*
X60905499Y12525239D02*
X61000737Y12572858D01*
X61000737Y12572858D02*
X61238832Y12572858D01*
X61238832Y12572858D02*
X61334070Y12525239D01*
X61334070Y12525239D02*
X61381690Y12477620D01*
X61381690Y12477620D02*
X61429309Y12382382D01*
X61429309Y12382382D02*
X61429309Y12096668D01*
X61429309Y12096668D02*
X61381690Y12001430D01*
X61381690Y12001430D02*
X61334070Y11953811D01*
X29090952Y20237381D02*
X28519524Y20237381D01*
X28805238Y20237381D02*
X28805238Y21237381D01*
X28805238Y21237381D02*
X28710000Y21094524D01*
X28710000Y21094524D02*
X28614762Y20999286D01*
X28614762Y20999286D02*
X28519524Y20951667D01*
X29519524Y20237381D02*
X29519524Y21237381D01*
X29614762Y20618334D02*
X29900476Y20237381D01*
X29900476Y20904048D02*
X29519524Y20523096D01*
D11*
X29126666Y18818691D02*
X28960000Y19056786D01*
X28840952Y18818691D02*
X28840952Y19318691D01*
X28840952Y19318691D02*
X29031428Y19318691D01*
X29031428Y19318691D02*
X29079047Y19294881D01*
X29079047Y19294881D02*
X29102857Y19271072D01*
X29102857Y19271072D02*
X29126666Y19223453D01*
X29126666Y19223453D02*
X29126666Y19152024D01*
X29126666Y19152024D02*
X29102857Y19104405D01*
X29102857Y19104405D02*
X29079047Y19080596D01*
X29079047Y19080596D02*
X29031428Y19056786D01*
X29031428Y19056786D02*
X28840952Y19056786D01*
X29364762Y18818691D02*
X29460000Y18818691D01*
X29460000Y18818691D02*
X29507619Y18842500D01*
X29507619Y18842500D02*
X29531428Y18866310D01*
X29531428Y18866310D02*
X29579047Y18937739D01*
X29579047Y18937739D02*
X29602857Y19032977D01*
X29602857Y19032977D02*
X29602857Y19223453D01*
X29602857Y19223453D02*
X29579047Y19271072D01*
X29579047Y19271072D02*
X29555238Y19294881D01*
X29555238Y19294881D02*
X29507619Y19318691D01*
X29507619Y19318691D02*
X29412381Y19318691D01*
X29412381Y19318691D02*
X29364762Y19294881D01*
X29364762Y19294881D02*
X29340952Y19271072D01*
X29340952Y19271072D02*
X29317143Y19223453D01*
X29317143Y19223453D02*
X29317143Y19104405D01*
X29317143Y19104405D02*
X29340952Y19056786D01*
X29340952Y19056786D02*
X29364762Y19032977D01*
X29364762Y19032977D02*
X29412381Y19009167D01*
X29412381Y19009167D02*
X29507619Y19009167D01*
X29507619Y19009167D02*
X29555238Y19032977D01*
X29555238Y19032977D02*
X29579047Y19056786D01*
X29579047Y19056786D02*
X29602857Y19104405D01*
D10*
X42616571Y11427381D02*
X42616571Y12427381D01*
X42616571Y12427381D02*
X42997523Y12427381D01*
X42997523Y12427381D02*
X43092761Y12379762D01*
X43092761Y12379762D02*
X43140380Y12332143D01*
X43140380Y12332143D02*
X43187999Y12236905D01*
X43187999Y12236905D02*
X43187999Y12094048D01*
X43187999Y12094048D02*
X43140380Y11998810D01*
X43140380Y11998810D02*
X43092761Y11951191D01*
X43092761Y11951191D02*
X42997523Y11903572D01*
X42997523Y11903572D02*
X42616571Y11903572D01*
X43616571Y11427381D02*
X43616571Y12427381D01*
X43616571Y12427381D02*
X43949904Y11713096D01*
X43949904Y11713096D02*
X44283237Y12427381D01*
X44283237Y12427381D02*
X44283237Y11427381D01*
X45092761Y11951191D02*
X45235618Y11903572D01*
X45235618Y11903572D02*
X45283237Y11855953D01*
X45283237Y11855953D02*
X45330856Y11760715D01*
X45330856Y11760715D02*
X45330856Y11617858D01*
X45330856Y11617858D02*
X45283237Y11522620D01*
X45283237Y11522620D02*
X45235618Y11475000D01*
X45235618Y11475000D02*
X45140380Y11427381D01*
X45140380Y11427381D02*
X44759428Y11427381D01*
X44759428Y11427381D02*
X44759428Y12427381D01*
X44759428Y12427381D02*
X45092761Y12427381D01*
X45092761Y12427381D02*
X45187999Y12379762D01*
X45187999Y12379762D02*
X45235618Y12332143D01*
X45235618Y12332143D02*
X45283237Y12236905D01*
X45283237Y12236905D02*
X45283237Y12141667D01*
X45283237Y12141667D02*
X45235618Y12046429D01*
X45235618Y12046429D02*
X45187999Y11998810D01*
X45187999Y11998810D02*
X45092761Y11951191D01*
X45092761Y11951191D02*
X44759428Y11951191D01*
X45616571Y12427381D02*
X46187999Y12427381D01*
X45902285Y11427381D02*
X45902285Y12427381D01*
X46473714Y12332143D02*
X46521333Y12379762D01*
X46521333Y12379762D02*
X46616571Y12427381D01*
X46616571Y12427381D02*
X46854666Y12427381D01*
X46854666Y12427381D02*
X46949904Y12379762D01*
X46949904Y12379762D02*
X46997523Y12332143D01*
X46997523Y12332143D02*
X47045142Y12236905D01*
X47045142Y12236905D02*
X47045142Y12141667D01*
X47045142Y12141667D02*
X46997523Y11998810D01*
X46997523Y11998810D02*
X46426095Y11427381D01*
X46426095Y11427381D02*
X47045142Y11427381D01*
X47426095Y12332143D02*
X47473714Y12379762D01*
X47473714Y12379762D02*
X47568952Y12427381D01*
X47568952Y12427381D02*
X47807047Y12427381D01*
X47807047Y12427381D02*
X47902285Y12379762D01*
X47902285Y12379762D02*
X47949904Y12332143D01*
X47949904Y12332143D02*
X47997523Y12236905D01*
X47997523Y12236905D02*
X47997523Y12141667D01*
X47997523Y12141667D02*
X47949904Y11998810D01*
X47949904Y11998810D02*
X47378476Y11427381D01*
X47378476Y11427381D02*
X47997523Y11427381D01*
X48378476Y12332143D02*
X48426095Y12379762D01*
X48426095Y12379762D02*
X48521333Y12427381D01*
X48521333Y12427381D02*
X48759428Y12427381D01*
X48759428Y12427381D02*
X48854666Y12379762D01*
X48854666Y12379762D02*
X48902285Y12332143D01*
X48902285Y12332143D02*
X48949904Y12236905D01*
X48949904Y12236905D02*
X48949904Y12141667D01*
X48949904Y12141667D02*
X48902285Y11998810D01*
X48902285Y11998810D02*
X48330857Y11427381D01*
X48330857Y11427381D02*
X48949904Y11427381D01*
X49330857Y12332143D02*
X49378476Y12379762D01*
X49378476Y12379762D02*
X49473714Y12427381D01*
X49473714Y12427381D02*
X49711809Y12427381D01*
X49711809Y12427381D02*
X49807047Y12379762D01*
X49807047Y12379762D02*
X49854666Y12332143D01*
X49854666Y12332143D02*
X49902285Y12236905D01*
X49902285Y12236905D02*
X49902285Y12141667D01*
X49902285Y12141667D02*
X49854666Y11998810D01*
X49854666Y11998810D02*
X49283238Y11427381D01*
X49283238Y11427381D02*
X49902285Y11427381D01*
X50283238Y11713096D02*
X50759428Y11713096D01*
X50188000Y11427381D02*
X50521333Y12427381D01*
X50521333Y12427381D02*
X50854666Y11427381D01*
D13*
X46633713Y14111486D02*
X46603237Y14126724D01*
X46603237Y14126724D02*
X46572761Y14157200D01*
X46572761Y14157200D02*
X46527047Y14202915D01*
X46527047Y14202915D02*
X46496570Y14218153D01*
X46496570Y14218153D02*
X46466094Y14218153D01*
X46481332Y14141962D02*
X46450856Y14157200D01*
X46450856Y14157200D02*
X46420380Y14187677D01*
X46420380Y14187677D02*
X46405142Y14248629D01*
X46405142Y14248629D02*
X46405142Y14355296D01*
X46405142Y14355296D02*
X46420380Y14416248D01*
X46420380Y14416248D02*
X46450856Y14446724D01*
X46450856Y14446724D02*
X46481332Y14461962D01*
X46481332Y14461962D02*
X46542285Y14461962D01*
X46542285Y14461962D02*
X46572761Y14446724D01*
X46572761Y14446724D02*
X46603237Y14416248D01*
X46603237Y14416248D02*
X46618475Y14355296D01*
X46618475Y14355296D02*
X46618475Y14248629D01*
X46618475Y14248629D02*
X46603237Y14187677D01*
X46603237Y14187677D02*
X46572761Y14157200D01*
X46572761Y14157200D02*
X46542285Y14141962D01*
X46542285Y14141962D02*
X46481332Y14141962D01*
X46725142Y14461962D02*
X46923237Y14461962D01*
X46923237Y14461962D02*
X46816570Y14340058D01*
X46816570Y14340058D02*
X46862285Y14340058D01*
X46862285Y14340058D02*
X46892761Y14324820D01*
X46892761Y14324820D02*
X46907999Y14309581D01*
X46907999Y14309581D02*
X46923237Y14279105D01*
X46923237Y14279105D02*
X46923237Y14202915D01*
X46923237Y14202915D02*
X46907999Y14172439D01*
X46907999Y14172439D02*
X46892761Y14157200D01*
X46892761Y14157200D02*
X46862285Y14141962D01*
X46862285Y14141962D02*
X46770856Y14141962D01*
X46770856Y14141962D02*
X46740380Y14157200D01*
X46740380Y14157200D02*
X46725142Y14172439D01*
D10*
X38772619Y24027143D02*
X38772619Y23455715D01*
X38772619Y23741429D02*
X37772619Y23741429D01*
X37772619Y23741429D02*
X37915476Y23646191D01*
X37915476Y23646191D02*
X38010714Y23550953D01*
X38010714Y23550953D02*
X38058333Y23455715D01*
X37772619Y24646191D02*
X37772619Y24741429D01*
X37772619Y24741429D02*
X37820238Y24836667D01*
X37820238Y24836667D02*
X37867857Y24884286D01*
X37867857Y24884286D02*
X37963095Y24931905D01*
X37963095Y24931905D02*
X38153571Y24979524D01*
X38153571Y24979524D02*
X38391666Y24979524D01*
X38391666Y24979524D02*
X38582142Y24931905D01*
X38582142Y24931905D02*
X38677380Y24884286D01*
X38677380Y24884286D02*
X38725000Y24836667D01*
X38725000Y24836667D02*
X38772619Y24741429D01*
X38772619Y24741429D02*
X38772619Y24646191D01*
X38772619Y24646191D02*
X38725000Y24550953D01*
X38725000Y24550953D02*
X38677380Y24503334D01*
X38677380Y24503334D02*
X38582142Y24455715D01*
X38582142Y24455715D02*
X38391666Y24408096D01*
X38391666Y24408096D02*
X38153571Y24408096D01*
X38153571Y24408096D02*
X37963095Y24455715D01*
X37963095Y24455715D02*
X37867857Y24503334D01*
X37867857Y24503334D02*
X37820238Y24550953D01*
X37820238Y24550953D02*
X37772619Y24646191D01*
X37772619Y25598572D02*
X37772619Y25693810D01*
X37772619Y25693810D02*
X37820238Y25789048D01*
X37820238Y25789048D02*
X37867857Y25836667D01*
X37867857Y25836667D02*
X37963095Y25884286D01*
X37963095Y25884286D02*
X38153571Y25931905D01*
X38153571Y25931905D02*
X38391666Y25931905D01*
X38391666Y25931905D02*
X38582142Y25884286D01*
X38582142Y25884286D02*
X38677380Y25836667D01*
X38677380Y25836667D02*
X38725000Y25789048D01*
X38725000Y25789048D02*
X38772619Y25693810D01*
X38772619Y25693810D02*
X38772619Y25598572D01*
X38772619Y25598572D02*
X38725000Y25503334D01*
X38725000Y25503334D02*
X38677380Y25455715D01*
X38677380Y25455715D02*
X38582142Y25408096D01*
X38582142Y25408096D02*
X38391666Y25360477D01*
X38391666Y25360477D02*
X38153571Y25360477D01*
X38153571Y25360477D02*
X37963095Y25408096D01*
X37963095Y25408096D02*
X37867857Y25455715D01*
X37867857Y25455715D02*
X37820238Y25503334D01*
X37820238Y25503334D02*
X37772619Y25598572D01*
X38772619Y26360477D02*
X37772619Y26360477D01*
X38391666Y26455715D02*
X38772619Y26741429D01*
X38105952Y26741429D02*
X38486904Y26360477D01*
X38105952Y27931906D02*
X39105952Y27931906D01*
X38153571Y27931906D02*
X38105952Y28027144D01*
X38105952Y28027144D02*
X38105952Y28217620D01*
X38105952Y28217620D02*
X38153571Y28312858D01*
X38153571Y28312858D02*
X38201190Y28360477D01*
X38201190Y28360477D02*
X38296428Y28408096D01*
X38296428Y28408096D02*
X38582142Y28408096D01*
X38582142Y28408096D02*
X38677380Y28360477D01*
X38677380Y28360477D02*
X38725000Y28312858D01*
X38725000Y28312858D02*
X38772619Y28217620D01*
X38772619Y28217620D02*
X38772619Y28027144D01*
X38772619Y28027144D02*
X38725000Y27931906D01*
X38772619Y28979525D02*
X38725000Y28884287D01*
X38725000Y28884287D02*
X38677380Y28836668D01*
X38677380Y28836668D02*
X38582142Y28789049D01*
X38582142Y28789049D02*
X38296428Y28789049D01*
X38296428Y28789049D02*
X38201190Y28836668D01*
X38201190Y28836668D02*
X38153571Y28884287D01*
X38153571Y28884287D02*
X38105952Y28979525D01*
X38105952Y28979525D02*
X38105952Y29122382D01*
X38105952Y29122382D02*
X38153571Y29217620D01*
X38153571Y29217620D02*
X38201190Y29265239D01*
X38201190Y29265239D02*
X38296428Y29312858D01*
X38296428Y29312858D02*
X38582142Y29312858D01*
X38582142Y29312858D02*
X38677380Y29265239D01*
X38677380Y29265239D02*
X38725000Y29217620D01*
X38725000Y29217620D02*
X38772619Y29122382D01*
X38772619Y29122382D02*
X38772619Y28979525D01*
X38105952Y29598573D02*
X38105952Y29979525D01*
X37772619Y29741430D02*
X38629761Y29741430D01*
X38629761Y29741430D02*
X38725000Y29789049D01*
X38725000Y29789049D02*
X38772619Y29884287D01*
X38772619Y29884287D02*
X38772619Y29979525D01*
X41576666Y28477381D02*
X41576666Y27763096D01*
X41576666Y27763096D02*
X41529047Y27620239D01*
X41529047Y27620239D02*
X41433809Y27525000D01*
X41433809Y27525000D02*
X41290952Y27477381D01*
X41290952Y27477381D02*
X41195714Y27477381D01*
X42195714Y28048810D02*
X42100476Y28096429D01*
X42100476Y28096429D02*
X42052857Y28144048D01*
X42052857Y28144048D02*
X42005238Y28239286D01*
X42005238Y28239286D02*
X42005238Y28286905D01*
X42005238Y28286905D02*
X42052857Y28382143D01*
X42052857Y28382143D02*
X42100476Y28429762D01*
X42100476Y28429762D02*
X42195714Y28477381D01*
X42195714Y28477381D02*
X42386190Y28477381D01*
X42386190Y28477381D02*
X42481428Y28429762D01*
X42481428Y28429762D02*
X42529047Y28382143D01*
X42529047Y28382143D02*
X42576666Y28286905D01*
X42576666Y28286905D02*
X42576666Y28239286D01*
X42576666Y28239286D02*
X42529047Y28144048D01*
X42529047Y28144048D02*
X42481428Y28096429D01*
X42481428Y28096429D02*
X42386190Y28048810D01*
X42386190Y28048810D02*
X42195714Y28048810D01*
X42195714Y28048810D02*
X42100476Y28001191D01*
X42100476Y28001191D02*
X42052857Y27953572D01*
X42052857Y27953572D02*
X42005238Y27858334D01*
X42005238Y27858334D02*
X42005238Y27667858D01*
X42005238Y27667858D02*
X42052857Y27572620D01*
X42052857Y27572620D02*
X42100476Y27525000D01*
X42100476Y27525000D02*
X42195714Y27477381D01*
X42195714Y27477381D02*
X42386190Y27477381D01*
X42386190Y27477381D02*
X42481428Y27525000D01*
X42481428Y27525000D02*
X42529047Y27572620D01*
X42529047Y27572620D02*
X42576666Y27667858D01*
X42576666Y27667858D02*
X42576666Y27858334D01*
X42576666Y27858334D02*
X42529047Y27953572D01*
X42529047Y27953572D02*
X42481428Y28001191D01*
X42481428Y28001191D02*
X42386190Y28048810D01*
D14*
X22560000Y20257500D02*
X23460000Y20257500D01*
X23460000Y20257500D02*
X23460000Y22257500D01*
X22260000Y20557500D02*
X22560000Y20257500D01*
X22260000Y22257500D02*
X22260000Y20557500D01*
X23460000Y22257500D02*
X22260000Y22257500D01*
X52076690Y5715000D02*
X52711690Y6350000D01*
X52076690Y1270000D02*
X52076690Y5715000D01*
X52711690Y6350000D02*
X54616690Y6350000D01*
X54616690Y6350000D02*
X54616690Y1270000D01*
X54616690Y1270000D02*
X52076690Y1270000D01*
X23127500Y15327500D02*
X23127500Y13327500D01*
X21877500Y15327500D02*
X23127500Y15327500D01*
X23127500Y13327500D02*
X21877500Y13327500D01*
X21877500Y13327500D02*
X21877500Y15327500D01*
X33665000Y21540000D02*
X33665000Y23540000D01*
X34915000Y21540000D02*
X33665000Y21540000D01*
X33665000Y23540000D02*
X34915000Y23540000D01*
X34915000Y23540000D02*
X34915000Y21540000D01*
X43831690Y5325000D02*
X43831690Y7325000D01*
X45081690Y5325000D02*
X43831690Y5325000D01*
X43831690Y7325000D02*
X45081690Y7325000D01*
X45081690Y7325000D02*
X45081690Y5325000D01*
X6985000Y9520000D02*
X6350000Y8885000D01*
X6985000Y13965000D02*
X6985000Y9520000D01*
X6350000Y8885000D02*
X4445000Y8885000D01*
X4445000Y8885000D02*
X4445000Y13965000D01*
X4445000Y13965000D02*
X6985000Y13965000D01*
X28210000Y16810000D02*
X28210000Y15910000D01*
X28210000Y15910000D02*
X30210000Y15910000D01*
X28510000Y17110000D02*
X28210000Y16810000D01*
X30210000Y17110000D02*
X28510000Y17110000D01*
X30210000Y15910000D02*
X30210000Y17110000D01*
X25990000Y9095000D02*
X26965000Y10070000D01*
X25990000Y5170000D02*
X25990000Y9095000D01*
X26965000Y10070000D02*
X29890000Y10070000D01*
X29890000Y10070000D02*
X29890000Y5170000D01*
X29890000Y5170000D02*
X25990000Y5170000D01*
X73660000Y9525000D02*
X73025000Y8890000D01*
X73660000Y13970000D02*
X73660000Y9525000D01*
X73025000Y8890000D02*
X71120000Y8890000D01*
X71120000Y8890000D02*
X71120000Y13970000D01*
X71120000Y13970000D02*
X73660000Y13970000D01*
X7624656Y19012500D02*
X7024656Y19012500D01*
X7324656Y18712500D02*
X7324656Y19312500D01*
X8060000Y20320000D02*
G75*
G03*
X8060000Y20320000I-3000000J0D01*
G01*
X38690000Y21795000D02*
X39665000Y22770000D01*
X38690000Y17870000D02*
X38690000Y21795000D01*
X39665000Y22770000D02*
X42590000Y22770000D01*
X42590000Y22770000D02*
X42590000Y17870000D01*
X42590000Y17870000D02*
X38690000Y17870000D01*
X12700000Y27305000D02*
X12065000Y26670000D01*
X12700000Y31750000D02*
X12700000Y27305000D01*
X12065000Y26670000D02*
X10160000Y26670000D01*
X10160000Y26670000D02*
X10160000Y31750000D01*
X10160000Y31750000D02*
X12700000Y31750000D01*
X33665000Y14240000D02*
X33665000Y16240000D01*
X34915000Y14240000D02*
X33665000Y14240000D01*
X33665000Y16240000D02*
X34915000Y16240000D01*
X34915000Y16240000D02*
X34915000Y14240000D01*
X16510000Y27305000D02*
X15875000Y26670000D01*
X16510000Y31750000D02*
X16510000Y27305000D01*
X15875000Y26670000D02*
X13970000Y26670000D01*
X13970000Y26670000D02*
X13970000Y31750000D01*
X13970000Y31750000D02*
X16510000Y31750000D01*
X44156690Y1540000D02*
X45056690Y1540000D01*
X45056690Y1540000D02*
X45056690Y3540000D01*
X43856690Y1840000D02*
X44156690Y1540000D01*
X43856690Y3540000D02*
X43856690Y1840000D01*
X45056690Y3540000D02*
X43856690Y3540000D01*
X12065000Y19320000D02*
X13065000Y20320000D01*
X12065000Y2540000D02*
X12065000Y19320000D01*
X13065000Y20320000D02*
X18415000Y20320000D01*
X18415000Y20320000D02*
X18415000Y2540000D01*
X18415000Y2540000D02*
X12065000Y2540000D01*
X17177500Y23830000D02*
X17177500Y24730000D01*
X17177500Y24730000D02*
X15177500Y24730000D01*
X16877500Y23530000D02*
X17177500Y23830000D01*
X15177500Y23530000D02*
X16877500Y23530000D01*
X15177500Y24730000D02*
X15177500Y23530000D01*
X63500000Y5722566D02*
X64135000Y6357566D01*
X63500000Y1277566D02*
X63500000Y5722566D01*
X64135000Y6357566D02*
X66040000Y6357566D01*
X66040000Y6357566D02*
X66040000Y1277566D01*
X66040000Y1277566D02*
X63500000Y1277566D01*
X55886690Y5715000D02*
X56521690Y6350000D01*
X55886690Y1270000D02*
X55886690Y5715000D01*
X56521690Y6350000D02*
X58426690Y6350000D01*
X58426690Y6350000D02*
X58426690Y1270000D01*
X58426690Y1270000D02*
X55886690Y1270000D01*
X52076690Y13335000D02*
X52711690Y13970000D01*
X52076690Y8890000D02*
X52076690Y13335000D01*
X52711690Y13970000D02*
X54616690Y13970000D01*
X54616690Y13970000D02*
X54616690Y8890000D01*
X54616690Y8890000D02*
X52076690Y8890000D01*
X47615000Y22232500D02*
X47615000Y20232500D01*
X46365000Y22232500D02*
X47615000Y22232500D01*
X47615000Y20232500D02*
X46365000Y20232500D01*
X46365000Y20232500D02*
X46365000Y22232500D01*
X33687500Y27315000D02*
X31687500Y27315000D01*
X33687500Y28565000D02*
X33687500Y27315000D01*
X31687500Y27315000D02*
X31687500Y28565000D01*
X31687500Y28565000D02*
X33687500Y28565000D01*
X63506690Y13335000D02*
X64141690Y13970000D01*
X63506690Y8890000D02*
X63506690Y13335000D01*
X64141690Y13970000D02*
X66046690Y13970000D01*
X66046690Y13970000D02*
X66046690Y8890000D01*
X66046690Y8890000D02*
X63506690Y8890000D01*
X36830000Y12065000D02*
X37465000Y12700000D01*
X36830000Y7620000D02*
X36830000Y12065000D01*
X37465000Y12700000D02*
X39370000Y12700000D01*
X39370000Y12700000D02*
X39370000Y7620000D01*
X39370000Y7620000D02*
X36830000Y7620000D01*
D12*
X65900000Y25400000D02*
X65900000Y15240000D01*
X56900000Y25400000D02*
X65900000Y25400000D01*
X65900000Y15240000D02*
X56900000Y15240000D01*
X56900000Y15240000D02*
X56900000Y25400000D01*
D14*
X55886690Y13335000D02*
X56521690Y13970000D01*
X55886690Y8890000D02*
X55886690Y13335000D01*
X56521690Y13970000D02*
X58426690Y13970000D01*
X58426690Y13970000D02*
X58426690Y8890000D01*
X58426690Y8890000D02*
X55886690Y8890000D01*
X47641690Y5325000D02*
X47641690Y7325000D01*
X48891690Y5325000D02*
X47641690Y5325000D01*
X47641690Y7325000D02*
X48891690Y7325000D01*
X48891690Y7325000D02*
X48891690Y5325000D01*
X36830000Y6985000D02*
X37465000Y7620000D01*
X36830000Y2540000D02*
X36830000Y6985000D01*
X37465000Y7620000D02*
X39370000Y7620000D01*
X39370000Y7620000D02*
X39370000Y2540000D01*
X39370000Y2540000D02*
X36830000Y2540000D01*
X59696690Y5715000D02*
X60331690Y6350000D01*
X59696690Y1270000D02*
X59696690Y5715000D01*
X60331690Y6350000D02*
X62236690Y6350000D01*
X62236690Y6350000D02*
X62236690Y1270000D01*
X62236690Y1270000D02*
X59696690Y1270000D01*
X47966690Y1540000D02*
X48866690Y1540000D01*
X48866690Y1540000D02*
X48866690Y3540000D01*
X47666690Y1840000D02*
X47966690Y1540000D01*
X47666690Y3540000D02*
X47666690Y1840000D01*
X48866690Y3540000D02*
X47666690Y3540000D01*
X59696690Y13335000D02*
X60331690Y13970000D01*
X59696690Y8890000D02*
X59696690Y13335000D01*
X60331690Y13970000D02*
X62236690Y13970000D01*
X62236690Y13970000D02*
X62236690Y8890000D01*
X62236690Y8890000D02*
X59696690Y8890000D01*
X30210000Y18425000D02*
X28210000Y18425000D01*
X30210000Y19675000D02*
X30210000Y18425000D01*
X28210000Y18425000D02*
X28210000Y19675000D01*
X28210000Y19675000D02*
X30210000Y19675000D01*
X46014190Y15415000D02*
X46339190Y15740000D01*
X46014190Y12840000D02*
X46014190Y15415000D01*
X46339190Y15740000D02*
X47314190Y15740000D01*
X47314190Y15740000D02*
X47314190Y12840000D01*
X47314190Y12840000D02*
X46014190Y12840000D01*
X43815000Y29210000D02*
X44450000Y28575000D01*
X39370000Y29210000D02*
X43815000Y29210000D01*
X44450000Y28575000D02*
X44450000Y26670000D01*
X44450000Y26670000D02*
X39370000Y26670000D01*
X39370000Y26670000D02*
X39370000Y29210000D01*
M02*
