M48
; DRILL file {KiCad 7.0.2-6a45011f42~172~ubuntu22.04.1} date Fri 28 Apr 2023 10:37:42 PM CDT
; FORMAT={-:-/ absolute / metric / decimal}
; #@! TF.CreationDate,2023-04-28T22:37:42-05:00
; #@! TF.GenerationSoftware,Kicad,Pcbnew,7.0.2-6a45011f42~172~ubuntu22.04.1
; #@! TF.FileFunction,Plated,1,2,PTH
FMAT,2
METRIC
; #@! TA.AperFunction,Plated,PTH,ViaDrill
T1C0.400
; #@! TA.AperFunction,Plated,PTH,ComponentDrill
T2C0.800
; #@! TA.AperFunction,Plated,PTH,ComponentDrill
T3C1.000
%
G90
G05
T1
X8.89Y24.13
X12.7Y22.86
X15.24Y21.59
X19.05Y21.59
X20.32Y25.4
X22.86Y25.4
X22.86Y17.78
X22.86Y11.43
X22.86Y7.62
X22.86Y5.08
X25.4Y12.7
X27.94Y21.59
X29.21Y27.94
X31.75Y13.97
X33.02Y11.43
X34.29Y19.05
X34.29Y8.89
X34.29Y6.35
X34.29Y3.81
X35.56Y27.94
X38.1Y27.94
X38.1Y24.13
X38.1Y16.51
X41.917Y10.16
X42.545Y12.7
X45.72Y27.94
X46.99Y24.13
X46.997Y10.16
X49.537Y10.16
X54.61Y26.67
X57.15Y17.78
X60.96Y24.13
X60.96Y16.51
X62.23Y21.59
X62.23Y19.05
X63.5Y24.13
X63.5Y16.51
X64.77Y21.59
X64.77Y19.05
X66.04Y24.13
X66.04Y16.51
T2
X3.81Y20.32
X6.31Y20.32
X11.43Y19.05
X11.43Y16.51
X11.43Y13.97
X11.43Y11.43
X11.43Y8.89
X11.43Y6.35
X11.43Y3.81
X19.05Y19.05
X19.05Y16.51
X19.05Y13.97
X19.05Y11.43
X19.05Y8.89
X19.05Y6.35
X19.05Y3.81
T3
X5.715Y12.695
X5.715Y10.155
X11.43Y30.48
X11.43Y27.94
X15.24Y30.48
X15.24Y27.94
X38.1Y11.43
X38.1Y8.89
X38.1Y6.35
X38.1Y3.81
X40.64Y27.94
X43.18Y27.94
X53.347Y12.7
X53.347Y10.16
X53.347Y5.08
X53.347Y2.54
X57.157Y12.7
X57.157Y10.16
X57.157Y5.08
X57.157Y2.54
X60.967Y12.7
X60.967Y10.16
X60.967Y5.08
X60.967Y2.54
X64.77Y5.088
X64.77Y2.548
X64.777Y12.7
X64.777Y10.16
X72.39Y12.7
X72.39Y10.16
T0
M30
