G04 #@! TF.GenerationSoftware,KiCad,Pcbnew,7.0.2-6a45011f42~172~ubuntu22.04.1*
G04 #@! TF.CreationDate,2023-04-28T22:36:36-05:00*
G04 #@! TF.ProjectId,laser,6c617365-722e-46b6-9963-61645f706362,rev?*
G04 #@! TF.SameCoordinates,PXc1c960PY791ddc0*
G04 #@! TF.FileFunction,Copper,L2,Bot*
G04 #@! TF.FilePolarity,Positive*
%FSLAX46Y46*%
G04 Gerber Fmt 4.6, Leading zero omitted, Abs format (unit mm)*
G04 Created by KiCad (PCBNEW 7.0.2-6a45011f42~172~ubuntu22.04.1) date 2023-04-28 22:36:36*
%MOMM*%
%LPD*%
G01*
G04 APERTURE LIST*
G04 Aperture macros list*
%AMRoundRect*
0 Rectangle with rounded corners*
0 $1 Rounding radius*
0 $2 $3 $4 $5 $6 $7 $8 $9 X,Y pos of 4 corners*
0 Add a 4 corners polygon primitive as box body*
4,1,4,$2,$3,$4,$5,$6,$7,$8,$9,$2,$3,0*
0 Add four circle primitives for the rounded corners*
1,1,$1+$1,$2,$3*
1,1,$1+$1,$4,$5*
1,1,$1+$1,$6,$7*
1,1,$1+$1,$8,$9*
0 Add four rect primitives between the rounded corners*
20,1,$1+$1,$2,$3,$4,$5,0*
20,1,$1+$1,$4,$5,$6,$7,0*
20,1,$1+$1,$6,$7,$8,$9,0*
20,1,$1+$1,$8,$9,$2,$3,0*%
G04 Aperture macros list end*
G04 #@! TA.AperFunction,ComponentPad*
%ADD10O,3.000000X1.700000*%
G04 #@! TD*
G04 #@! TA.AperFunction,ComponentPad*
%ADD11R,1.600000X1.600000*%
G04 #@! TD*
G04 #@! TA.AperFunction,ComponentPad*
%ADD12C,1.600000*%
G04 #@! TD*
G04 #@! TA.AperFunction,ComponentPad*
%ADD13O,1.600000X1.600000*%
G04 #@! TD*
G04 #@! TA.AperFunction,ComponentPad*
%ADD14O,1.700000X3.000000*%
G04 #@! TD*
G04 #@! TA.AperFunction,SMDPad,CuDef*
%ADD15RoundRect,0.250000X0.250000X0.475000X-0.250000X0.475000X-0.250000X-0.475000X0.250000X-0.475000X0*%
G04 #@! TD*
G04 #@! TA.AperFunction,SMDPad,CuDef*
%ADD16RoundRect,0.150000X0.587500X0.150000X-0.587500X0.150000X-0.587500X-0.150000X0.587500X-0.150000X0*%
G04 #@! TD*
G04 #@! TA.AperFunction,SMDPad,CuDef*
%ADD17RoundRect,0.250000X0.262500X0.450000X-0.262500X0.450000X-0.262500X-0.450000X0.262500X-0.450000X0*%
G04 #@! TD*
G04 #@! TA.AperFunction,SMDPad,CuDef*
%ADD18RoundRect,0.250000X-0.475000X0.250000X-0.475000X-0.250000X0.475000X-0.250000X0.475000X0.250000X0*%
G04 #@! TD*
G04 #@! TA.AperFunction,SMDPad,CuDef*
%ADD19RoundRect,0.250000X-0.250000X-0.475000X0.250000X-0.475000X0.250000X0.475000X-0.250000X0.475000X0*%
G04 #@! TD*
G04 #@! TA.AperFunction,SMDPad,CuDef*
%ADD20RoundRect,0.250000X0.450000X-0.262500X0.450000X0.262500X-0.450000X0.262500X-0.450000X-0.262500X0*%
G04 #@! TD*
G04 #@! TA.AperFunction,SMDPad,CuDef*
%ADD21RoundRect,0.150000X-0.587500X-0.150000X0.587500X-0.150000X0.587500X0.150000X-0.587500X0.150000X0*%
G04 #@! TD*
G04 #@! TA.AperFunction,SMDPad,CuDef*
%ADD22RoundRect,0.250000X-0.262500X-0.450000X0.262500X-0.450000X0.262500X0.450000X-0.262500X0.450000X0*%
G04 #@! TD*
G04 #@! TA.AperFunction,SMDPad,CuDef*
%ADD23RoundRect,0.243750X-0.243750X-0.456250X0.243750X-0.456250X0.243750X0.456250X-0.243750X0.456250X0*%
G04 #@! TD*
G04 #@! TA.AperFunction,SMDPad,CuDef*
%ADD24RoundRect,0.250000X-0.450000X0.262500X-0.450000X-0.262500X0.450000X-0.262500X0.450000X0.262500X0*%
G04 #@! TD*
G04 #@! TA.AperFunction,SMDPad,CuDef*
%ADD25RoundRect,0.243750X0.456250X-0.243750X0.456250X0.243750X-0.456250X0.243750X-0.456250X-0.243750X0*%
G04 #@! TD*
G04 #@! TA.AperFunction,SMDPad,CuDef*
%ADD26RoundRect,0.250000X0.475000X-0.250000X0.475000X0.250000X-0.475000X0.250000X-0.475000X-0.250000X0*%
G04 #@! TD*
G04 #@! TA.AperFunction,ViaPad*
%ADD27C,0.800000*%
G04 #@! TD*
G04 #@! TA.AperFunction,Conductor*
%ADD28C,0.508000*%
G04 #@! TD*
G04 #@! TA.AperFunction,Conductor*
%ADD29C,0.635000*%
G04 #@! TD*
G04 #@! TA.AperFunction,Conductor*
%ADD30C,1.016000*%
G04 #@! TD*
G04 APERTURE END LIST*
D10*
X53346690Y5080000D03*
X53346690Y2540000D03*
X5715000Y10155000D03*
X5715000Y12695000D03*
X72390000Y10160000D03*
X72390000Y12700000D03*
D11*
X6310000Y20320000D03*
D12*
X3810000Y20320000D03*
D10*
X11430000Y27940000D03*
X11430000Y30480000D03*
X15240000Y27940000D03*
X15240000Y30480000D03*
D11*
X11430000Y19050000D03*
D13*
X11430000Y16510000D03*
X11430000Y13970000D03*
X11430000Y11430000D03*
X11430000Y8890000D03*
X11430000Y6350000D03*
X11430000Y3810000D03*
X19050000Y3810000D03*
X19050000Y6350000D03*
X19050000Y8890000D03*
X19050000Y11430000D03*
X19050000Y13970000D03*
X19050000Y16510000D03*
X19050000Y19050000D03*
D10*
X64770000Y5087566D03*
X64770000Y2547566D03*
X57156690Y5080000D03*
X57156690Y2540000D03*
X53346690Y12700000D03*
X53346690Y10160000D03*
X64776690Y12700000D03*
X64776690Y10160000D03*
X38100000Y11430000D03*
X38100000Y8890000D03*
X57156690Y12700000D03*
X57156690Y10160000D03*
X38100000Y6350000D03*
X38100000Y3810000D03*
X60966690Y5080000D03*
X60966690Y2540000D03*
X60966690Y12700000D03*
X60966690Y10160000D03*
D14*
X43180000Y27940000D03*
X40640000Y27940000D03*
D15*
X17140000Y11430000D03*
X15240000Y11430000D03*
D16*
X47934190Y14920000D03*
X47934190Y13020000D03*
X46059190Y13970000D03*
D17*
X7262500Y17780000D03*
X5437500Y17780000D03*
D18*
X57150000Y27620000D03*
X57150000Y25720000D03*
D19*
X27940000Y12700000D03*
X29840000Y12700000D03*
D17*
X17065000Y3810000D03*
X15240000Y3810000D03*
D20*
X22860000Y20320000D03*
X22860000Y22145000D03*
X2540000Y13057500D03*
X2540000Y14882500D03*
D19*
X13970000Y19050000D03*
X15870000Y19050000D03*
D21*
X21922500Y28260000D03*
X21922500Y30160000D03*
X23797500Y29210000D03*
D22*
X18137500Y27940000D03*
X19962500Y27940000D03*
D19*
X13970000Y13970000D03*
X15870000Y13970000D03*
D23*
X31750000Y27940000D03*
X33625000Y27940000D03*
D19*
X26670000Y7620000D03*
X28570000Y7620000D03*
D24*
X43180000Y17422500D03*
X43180000Y15597500D03*
D25*
X44456690Y1627500D03*
X44456690Y3502500D03*
D18*
X8890000Y6350000D03*
X8890000Y4450000D03*
D23*
X28272500Y16510000D03*
X30147500Y16510000D03*
D26*
X57150000Y20320000D03*
X57150000Y22220000D03*
D19*
X13970000Y16510000D03*
X15870000Y16510000D03*
D26*
X2540000Y9530000D03*
X2540000Y11430000D03*
D15*
X17140000Y6350000D03*
X15240000Y6350000D03*
D20*
X44456690Y5437500D03*
X44456690Y7262500D03*
D17*
X6270000Y23495000D03*
X4445000Y23495000D03*
X17065000Y8890000D03*
X15240000Y8890000D03*
D20*
X48266690Y5437500D03*
X48266690Y7262500D03*
D22*
X15240000Y24130000D03*
X17065000Y24130000D03*
D15*
X7300000Y15748000D03*
X5400000Y15748000D03*
D25*
X48266690Y1627500D03*
X48266690Y3502500D03*
D17*
X30122500Y19050000D03*
X28297500Y19050000D03*
D27*
X42545000Y12700000D03*
X38100000Y24130000D03*
X64770000Y19050000D03*
X66040000Y24130000D03*
X19050000Y21590000D03*
X66040000Y16510000D03*
X62230000Y21590000D03*
X60960000Y24130000D03*
X34290000Y8890000D03*
X64770000Y21590000D03*
X62230000Y19050000D03*
X31750000Y13970000D03*
X63500000Y24130000D03*
X60960000Y16510000D03*
X63500000Y16510000D03*
X27940000Y21590000D03*
X57150000Y17780000D03*
X25400000Y12700000D03*
X20320000Y25400000D03*
X22860000Y7620000D03*
X12700000Y22860000D03*
X22860000Y25400000D03*
X22860000Y17780000D03*
X34290000Y3810000D03*
X22860000Y5080000D03*
X54610000Y26670000D03*
X22860000Y11430000D03*
X8890000Y24130000D03*
X41916690Y10160000D03*
X15240000Y21590000D03*
X46990000Y24130000D03*
X29210000Y27940000D03*
X46996690Y10160000D03*
X34290000Y19050000D03*
X34290000Y6350000D03*
X33020000Y11430000D03*
X38100000Y27940000D03*
X45720000Y27940000D03*
X49536690Y10160000D03*
X38100000Y16510000D03*
X35560000Y27940000D03*
D28*
X3175000Y20320000D02*
X3810000Y20320000D01*
X15240000Y11430000D02*
X15240000Y8890000D01*
X11430000Y27940000D02*
X10795000Y27305000D01*
X11430000Y19050000D02*
X13970000Y19050000D01*
X10795000Y19685000D02*
X11430000Y19050000D01*
X10795000Y27305000D02*
X10795000Y19685000D01*
D29*
X7620000Y29210000D02*
X8890000Y30480000D01*
X7620000Y25400000D02*
X6270000Y24050000D01*
D28*
X20955000Y21590000D02*
X22225000Y20320000D01*
D29*
X52070000Y24130000D02*
X55880000Y20320000D01*
D30*
X57150000Y20320000D02*
X57150000Y17780000D01*
D28*
X26670000Y29210000D02*
X25400000Y30480000D01*
X26670000Y13970000D02*
X25400000Y12700000D01*
X27940000Y12700000D02*
X26670000Y13970000D01*
X26670000Y22860000D02*
X27940000Y21590000D01*
X27940000Y21590000D02*
X27940000Y19407500D01*
D29*
X52070000Y26670000D02*
X52070000Y24130000D01*
X6270000Y24050000D02*
X6270000Y23495000D01*
D28*
X23495000Y9525000D02*
X22225000Y9525000D01*
X27940000Y19407500D02*
X28297500Y19050000D01*
D29*
X15240000Y30480000D02*
X21602500Y30480000D01*
D28*
X26670000Y29210000D02*
X26670000Y22860000D01*
D29*
X7620000Y25400000D02*
X7620000Y29210000D01*
X21922500Y30160000D02*
X22242500Y30480000D01*
X8890000Y30480000D02*
X11430000Y30480000D01*
X11430000Y30480000D02*
X15240000Y30480000D01*
D28*
X20320000Y11430000D02*
X19050000Y11430000D01*
X17140000Y11430000D02*
X19050000Y11430000D01*
D29*
X22242500Y30480000D02*
X48260000Y30480000D01*
X21602500Y30480000D02*
X21922500Y30160000D01*
D28*
X27940000Y21590000D02*
X26670000Y20320000D01*
X25400000Y11430000D02*
X23495000Y9525000D01*
X22225000Y9525000D02*
X20320000Y11430000D01*
X26670000Y20320000D02*
X26670000Y13970000D01*
X25400000Y12700000D02*
X25400000Y11430000D01*
X20955000Y23495000D02*
X20955000Y21590000D01*
D29*
X55880000Y20320000D02*
X57150000Y20320000D01*
D28*
X26670000Y29210000D02*
X27940000Y30480000D01*
X22225000Y20320000D02*
X22860000Y20320000D01*
D29*
X48260000Y30480000D02*
X52070000Y26670000D01*
D28*
X20320000Y24130000D02*
X20955000Y23495000D01*
X20320000Y24130000D02*
X20320000Y25400000D01*
X22860000Y7620000D02*
X26670000Y7620000D01*
X13970000Y24130000D02*
X12700000Y22860000D01*
X15240000Y24130000D02*
X13970000Y24130000D01*
X30122500Y16535000D02*
X30147500Y16510000D01*
X30122500Y19050000D02*
X30122500Y16535000D01*
X21922500Y28260000D02*
X20282500Y28260000D01*
X20282500Y28260000D02*
X19962500Y27940000D01*
X22860000Y22145000D02*
X22860000Y25400000D01*
X21590000Y16510000D02*
X22860000Y17780000D01*
X19050000Y16510000D02*
X21590000Y16510000D01*
X35560000Y3810000D02*
X38100000Y3810000D01*
X18335000Y5080000D02*
X17065000Y3810000D01*
X22860000Y5080000D02*
X18335000Y5080000D01*
X34290000Y3810000D02*
X35560000Y3810000D01*
X5400000Y15748000D02*
X5400000Y13010000D01*
X5400000Y13010000D02*
X5715000Y12695000D01*
X5400000Y15240000D02*
X5400000Y17742500D01*
X5400000Y17742500D02*
X5437500Y17780000D01*
X2540000Y11430000D02*
X3302000Y11430000D01*
X3302000Y11430000D02*
X4577000Y10155000D01*
X4577000Y10155000D02*
X5715000Y10155000D01*
X2540000Y11430000D02*
X2540000Y13057500D01*
X5339000Y9901000D02*
X6096000Y9901000D01*
D30*
X72390000Y20320000D02*
X65090000Y27620000D01*
X54610000Y26670000D02*
X55560000Y27620000D01*
X55560000Y27620000D02*
X57150000Y27620000D01*
X72390000Y12700000D02*
X72390000Y20320000D01*
X65090000Y27620000D02*
X57150000Y27620000D01*
D28*
X22860000Y11430000D02*
X22860000Y13970000D01*
X22860000Y13970000D02*
X25400000Y16510000D01*
X25400000Y22860000D02*
X25400000Y27940000D01*
X23797500Y29210000D02*
X24765000Y29210000D01*
X25400000Y16510000D02*
X25400000Y22860000D01*
X25400000Y28575000D02*
X25400000Y27940000D01*
X24765000Y29210000D02*
X25400000Y28575000D01*
X19050000Y6350000D02*
X17140000Y6350000D01*
X46996690Y10160000D02*
X46996690Y12082500D01*
X9525000Y18415000D02*
X9525000Y15240000D01*
X10795000Y13970000D02*
X11430000Y13970000D01*
X44450000Y21590000D02*
X46990000Y24130000D01*
X60966690Y12700000D02*
X64776690Y12700000D01*
X32385000Y17145000D02*
X36195000Y13335000D01*
X32385000Y22225000D02*
X32385000Y17145000D01*
X17065000Y22780000D02*
X17065000Y24130000D01*
X18137500Y27940000D02*
X18137500Y27187500D01*
X40005000Y13335000D02*
X40640000Y12700000D01*
X40646690Y11423310D02*
X40646690Y12700000D01*
X53346690Y12700000D02*
X57156690Y12700000D01*
X15240000Y21590000D02*
X15875000Y21590000D01*
X9525000Y15240000D02*
X10795000Y13970000D01*
X17065000Y26115000D02*
X15240000Y27940000D01*
X8890000Y19050000D02*
X9525000Y18415000D01*
X46996690Y12082500D02*
X47934190Y13020000D01*
X15875000Y21590000D02*
X17065000Y22780000D01*
X17065000Y24130000D02*
X17065000Y26115000D01*
X29210000Y27940000D02*
X29210000Y25400000D01*
X18137500Y27940000D02*
X15240000Y27940000D01*
X41910000Y10160000D02*
X40646690Y11423310D01*
X36830000Y21590000D02*
X44450000Y21590000D01*
X18137500Y27187500D02*
X17065000Y26115000D01*
X29210000Y25400000D02*
X32385000Y22225000D01*
X34290000Y19050000D02*
X36830000Y21590000D01*
X57156690Y12700000D02*
X60966690Y12700000D01*
X8890000Y24130000D02*
X8890000Y19050000D01*
X48254190Y12700000D02*
X53346690Y12700000D01*
X36195000Y13335000D02*
X40005000Y13335000D01*
X47934190Y13020000D02*
X48254190Y12700000D01*
X13970000Y13970000D02*
X11430000Y13970000D01*
X15240000Y3810000D02*
X15240000Y6350000D01*
X34290000Y6350000D02*
X38100000Y6350000D01*
X38100000Y6350000D02*
X38100000Y8890000D01*
X33020000Y11430000D02*
X38100000Y11430000D01*
X10160000Y11430000D02*
X8636000Y12954000D01*
X8636000Y14224000D02*
X7620000Y15240000D01*
X11430000Y11430000D02*
X10160000Y11430000D01*
X8636000Y12954000D02*
X8636000Y14224000D01*
X7620000Y15240000D02*
X7300000Y15240000D01*
X8128000Y8128000D02*
X3942000Y8128000D01*
X3942000Y8128000D02*
X2540000Y9530000D01*
X11430000Y8890000D02*
X8890000Y8890000D01*
X8890000Y8890000D02*
X8128000Y8128000D01*
X11430000Y6350000D02*
X8890000Y6350000D01*
X38100000Y27940000D02*
X40640000Y27940000D01*
X43180000Y27940000D02*
X45720000Y27940000D01*
X57156690Y10160000D02*
X53346690Y10160000D01*
X60966690Y10160000D02*
X57156690Y10160000D01*
X64776690Y10160000D02*
X60966690Y10160000D01*
X49536690Y10160000D02*
X53346690Y10160000D01*
X48266690Y7262500D02*
X44456690Y7262500D01*
X57156690Y5080000D02*
X53346690Y5080000D01*
X44456690Y12367500D02*
X46059190Y13970000D01*
X49894190Y7262500D02*
X52076690Y5080000D01*
X60974256Y5087566D02*
X60966690Y5080000D01*
X48266690Y7262500D02*
X49894190Y7262500D01*
X64770000Y5087566D02*
X60974256Y5087566D01*
X44456690Y7262500D02*
X44456690Y12367500D01*
X60966690Y5080000D02*
X57156690Y5080000D01*
X52076690Y5080000D02*
X53346690Y5080000D01*
X45362500Y15597500D02*
X43180000Y15597500D01*
X46040000Y14920000D02*
X45362500Y15597500D01*
X47934190Y14920000D02*
X46040000Y14920000D01*
X38100000Y16510000D02*
X39012500Y17422500D01*
X39012500Y17422500D02*
X43180000Y17422500D01*
X4445000Y22225000D02*
X5080000Y21590000D01*
X6310000Y20320000D02*
X6310000Y20995000D01*
X6310000Y20995000D02*
X5715000Y21590000D01*
X7262500Y17780000D02*
X7262500Y19367500D01*
X4445000Y23495000D02*
X4445000Y22225000D01*
X7262500Y19367500D02*
X6310000Y20320000D01*
X5080000Y21590000D02*
X5715000Y21590000D01*
X13970000Y16510000D02*
X11430000Y16510000D01*
X35560000Y27940000D02*
X33625000Y27940000D01*
X48266690Y3502500D02*
X48266690Y5437500D01*
X44456690Y3502500D02*
X44456690Y5437500D01*
X17065000Y8890000D02*
X19050000Y8890000D01*
G04 #@! TA.AperFunction,Conductor*
G36*
X8061528Y31730242D02*
G01*
X8143607Y31675398D01*
X8198451Y31593319D01*
X8217709Y31496500D01*
X8198451Y31399681D01*
X8143607Y31317602D01*
X8121106Y31297630D01*
X8114979Y31292813D01*
X8077139Y31249143D01*
X8064835Y31235928D01*
X6910389Y30081482D01*
X6888675Y30063114D01*
X6822140Y29993334D01*
X6817942Y29989035D01*
X6796054Y29967146D01*
X6796045Y29967137D01*
X6791800Y29962891D01*
X6787981Y29958267D01*
X6784556Y29954499D01*
X6777080Y29946076D01*
X6737195Y29904245D01*
X6723630Y29883138D01*
X6705896Y29858852D01*
X6689919Y29839501D01*
X6662220Y29788776D01*
X6653010Y29773254D01*
X6621763Y29724632D01*
X6612438Y29701338D01*
X6599618Y29674128D01*
X6587592Y29652104D01*
X6569992Y29597046D01*
X6563884Y29580055D01*
X6542406Y29526406D01*
X6537657Y29501768D01*
X6530220Y29472629D01*
X6522579Y29448727D01*
X6515720Y29391358D01*
X6512939Y29373522D01*
X6502000Y29316758D01*
X6502000Y29291671D01*
X6500211Y29261636D01*
X6497232Y29236727D01*
X6501355Y29179097D01*
X6502000Y29161046D01*
X6502000Y25967888D01*
X6482742Y25871069D01*
X6427898Y25788990D01*
X5560388Y24921481D01*
X5538677Y24903115D01*
X5537985Y24902388D01*
X5537002Y24901698D01*
X5528268Y24894308D01*
X5514877Y24884770D01*
X5514226Y24885684D01*
X5457231Y24845611D01*
X5360897Y24824058D01*
X5263648Y24841012D01*
X5235624Y24853861D01*
X5111451Y24920234D01*
X4913436Y24980300D01*
X4765273Y24994893D01*
X4765268Y24994894D01*
X4759108Y24995500D01*
X4130892Y24995500D01*
X4124732Y24994894D01*
X4124726Y24994893D01*
X3976563Y24980300D01*
X3778548Y24920234D01*
X3596049Y24822685D01*
X3436089Y24691411D01*
X3304815Y24531451D01*
X3207266Y24348952D01*
X3147200Y24150937D01*
X3133572Y24012566D01*
X3132000Y23996608D01*
X3132000Y22993392D01*
X3132606Y22987232D01*
X3132607Y22987227D01*
X3147200Y22839064D01*
X3207266Y22641049D01*
X3304815Y22458550D01*
X3330820Y22426862D01*
X3377354Y22339802D01*
X3387029Y22241568D01*
X3385398Y22225006D01*
X3385398Y22225003D01*
X3385398Y22225000D01*
X3393215Y22145634D01*
X3405758Y22018280D01*
X3466053Y21819509D01*
X3529729Y21700382D01*
X3563973Y21636316D01*
X3695748Y21475748D01*
X3726378Y21450611D01*
X3744775Y21433937D01*
X4288934Y20889778D01*
X4305609Y20871380D01*
X4330747Y20840748D01*
X4443641Y20748100D01*
X4472712Y20724242D01*
X4491317Y20708973D01*
X4564683Y20669758D01*
X4575764Y20663835D01*
X4652072Y20601210D01*
X4698606Y20514151D01*
X4709500Y20440709D01*
X4709500Y19475046D01*
X4710294Y19467998D01*
X4710295Y19467983D01*
X4722453Y19360076D01*
X4714156Y19261710D01*
X4668846Y19174007D01*
X4593423Y19110319D01*
X4590311Y19108627D01*
X4588551Y19107687D01*
X4428589Y18976411D01*
X4297315Y18816451D01*
X4199766Y18633952D01*
X4139700Y18435937D01*
X4126983Y18306815D01*
X4124500Y18281608D01*
X4124500Y17278392D01*
X4125106Y17272232D01*
X4125107Y17272227D01*
X4139700Y17124064D01*
X4199766Y16926048D01*
X4203454Y16919150D01*
X4232110Y16824685D01*
X4222434Y16726444D01*
X4203454Y16680623D01*
X4174767Y16626955D01*
X4114700Y16428937D01*
X4100865Y16288464D01*
X4099500Y16274608D01*
X4099500Y15221392D01*
X4100106Y15215232D01*
X4100107Y15215227D01*
X4114700Y15067064D01*
X4174767Y14869047D01*
X4210437Y14802314D01*
X4272315Y14686550D01*
X4288072Y14667350D01*
X4334605Y14580295D01*
X4345500Y14506850D01*
X4345500Y14331530D01*
X4326242Y14234711D01*
X4271398Y14152632D01*
X4224693Y14115813D01*
X4074884Y14024009D01*
X4074118Y14025259D01*
X4008381Y13988448D01*
X3910349Y13976850D01*
X3815341Y14003650D01*
X3755718Y14050658D01*
X3755673Y14050602D01*
X3752845Y14052923D01*
X3737821Y14064768D01*
X3736525Y14066316D01*
X3576450Y14197685D01*
X3393951Y14295234D01*
X3195936Y14355300D01*
X3047773Y14369893D01*
X3047768Y14369894D01*
X3041608Y14370500D01*
X2038392Y14370500D01*
X2032232Y14369894D01*
X2032226Y14369893D01*
X1884063Y14355300D01*
X1686048Y14295234D01*
X1503549Y14197685D01*
X1343589Y14066411D01*
X1212315Y13906451D01*
X1114766Y13723952D01*
X1054700Y13525937D01*
X1040419Y13380934D01*
X1039500Y13371608D01*
X1039500Y12743392D01*
X1040106Y12737232D01*
X1040107Y12737227D01*
X1054700Y12589064D01*
X1114767Y12391046D01*
X1120592Y12380149D01*
X1149248Y12285684D01*
X1139572Y12187444D01*
X1120592Y12141623D01*
X1089767Y12083955D01*
X1029700Y11885937D01*
X1022501Y11812840D01*
X1014500Y11731608D01*
X1014500Y11128392D01*
X1015106Y11122232D01*
X1015107Y11122227D01*
X1029700Y10974064D01*
X1089767Y10776046D01*
X1184260Y10599263D01*
X1212916Y10504798D01*
X1203240Y10406558D01*
X1184260Y10360737D01*
X1089767Y10183955D01*
X1029700Y9985937D01*
X1017029Y9857282D01*
X1014500Y9831608D01*
X1014500Y9228392D01*
X1015106Y9222232D01*
X1015107Y9222227D01*
X1029700Y9074064D01*
X1089766Y8876049D01*
X1187315Y8693550D01*
X1318589Y8533590D01*
X1377896Y8484919D01*
X1478550Y8402315D01*
X1617781Y8327894D01*
X1661048Y8304767D01*
X1814354Y8258263D01*
X1859066Y8244700D01*
X2013392Y8229500D01*
X2244416Y8229500D01*
X2341235Y8210242D01*
X2423313Y8155399D01*
X2794400Y7784311D01*
X3150939Y7427772D01*
X3167612Y7409376D01*
X3192747Y7378749D01*
X3192748Y7378748D01*
X3232982Y7345729D01*
X3232984Y7345727D01*
X3253433Y7328945D01*
X3353317Y7246973D01*
X3536508Y7149055D01*
X3674983Y7107050D01*
X3735281Y7088758D01*
X3942000Y7068398D01*
X3976049Y7071752D01*
X3981436Y7072282D01*
X4006233Y7073500D01*
X7126911Y7073500D01*
X7223730Y7054242D01*
X7305809Y6999398D01*
X7360653Y6917319D01*
X7379911Y6820500D01*
X7378693Y6795720D01*
X7364500Y6651608D01*
X7364500Y6048392D01*
X7365106Y6042232D01*
X7365107Y6042227D01*
X7379700Y5894064D01*
X7439766Y5696049D01*
X7537315Y5513550D01*
X7668589Y5353590D01*
X7769528Y5270753D01*
X7828550Y5222315D01*
X7986433Y5137924D01*
X8011048Y5124767D01*
X8133686Y5087566D01*
X8209066Y5064700D01*
X8363392Y5049500D01*
X8369593Y5049500D01*
X9410407Y5049500D01*
X9416608Y5049500D01*
X9570934Y5064700D01*
X9768954Y5124768D01*
X9836333Y5160784D01*
X9930794Y5189438D01*
X10029034Y5179764D01*
X10116094Y5133230D01*
X10178720Y5056923D01*
X10207376Y4962458D01*
X10197702Y4864218D01*
X10151168Y4777158D01*
X10147980Y4773350D01*
X10131168Y4753666D01*
X9999532Y4538858D01*
X9909547Y4321610D01*
X9903127Y4306111D01*
X9877800Y4200615D01*
X9844316Y4061145D01*
X9824551Y3810000D01*
X9844316Y3558856D01*
X9844317Y3558852D01*
X9903127Y3313889D01*
X9903128Y3313887D01*
X9999532Y3081143D01*
X10131166Y2866338D01*
X10156342Y2836861D01*
X10294776Y2674776D01*
X10404663Y2580924D01*
X10472254Y2523195D01*
X10486341Y2511164D01*
X10552555Y2470588D01*
X10701142Y2379533D01*
X10749232Y2359614D01*
X10933889Y2283127D01*
X11178852Y2224317D01*
X11430000Y2204551D01*
X11681148Y2224317D01*
X11926111Y2283127D01*
X12158859Y2379534D01*
X12373659Y2511164D01*
X12565224Y2674776D01*
X12728836Y2866341D01*
X12860466Y3081141D01*
X12956873Y3313889D01*
X13015683Y3558852D01*
X13035449Y3810000D01*
X13015683Y4061148D01*
X12956873Y4306111D01*
X12899215Y4445311D01*
X12860467Y4538858D01*
X12769253Y4687705D01*
X12728836Y4753659D01*
X12713985Y4771047D01*
X12633831Y4864895D01*
X12590448Y4915690D01*
X12542214Y5001818D01*
X12530611Y5099850D01*
X12557406Y5194859D01*
X12590449Y5244311D01*
X12728836Y5406341D01*
X12860466Y5621141D01*
X12956873Y5853889D01*
X13015683Y6098852D01*
X13035449Y6350000D01*
X13015683Y6601148D01*
X12956873Y6846111D01*
X12870663Y7054242D01*
X12860467Y7078858D01*
X12795745Y7184473D01*
X12728836Y7293659D01*
X12713065Y7312124D01*
X12619578Y7421584D01*
X12590448Y7455690D01*
X12542214Y7541818D01*
X12530611Y7639850D01*
X12557406Y7734859D01*
X12590449Y7784311D01*
X12622476Y7821810D01*
X12728836Y7946341D01*
X12860466Y8161141D01*
X12861418Y8163438D01*
X12889033Y8230108D01*
X12956873Y8393889D01*
X13015683Y8638852D01*
X13035449Y8890000D01*
X13015683Y9141148D01*
X12956873Y9386111D01*
X12896173Y9532654D01*
X12860467Y9618858D01*
X12764658Y9775203D01*
X12728836Y9833659D01*
X12725321Y9837774D01*
X12634169Y9944500D01*
X12590448Y9995690D01*
X12542214Y10081818D01*
X12530611Y10179850D01*
X12557406Y10274859D01*
X12590449Y10324311D01*
X12613033Y10350753D01*
X12728836Y10486341D01*
X12860466Y10701141D01*
X12956873Y10933889D01*
X13015683Y11178852D01*
X13035449Y11430000D01*
X13015683Y11681148D01*
X12956873Y11926111D01*
X12880316Y12110937D01*
X12860467Y12158858D01*
X12809372Y12242236D01*
X12796626Y12263036D01*
X12762460Y12355649D01*
X12766335Y12454288D01*
X12807663Y12543936D01*
X12880152Y12610945D01*
X12972767Y12645112D01*
X13071406Y12641237D01*
X13131610Y12618352D01*
X13133549Y12617316D01*
X13133550Y12617315D01*
X13316046Y12519768D01*
X13514066Y12459700D01*
X13668392Y12444500D01*
X13674593Y12444500D01*
X14265407Y12444500D01*
X14271608Y12444500D01*
X14425934Y12459700D01*
X14623954Y12519768D01*
X14806450Y12617315D01*
X14966410Y12748590D01*
X15097685Y12908550D01*
X15195232Y13091046D01*
X15199614Y13105490D01*
X15215714Y13158566D01*
X15255300Y13289066D01*
X15270500Y13443392D01*
X15270500Y14496608D01*
X15255300Y14650934D01*
X15195232Y14848954D01*
X15097685Y15031450D01*
X15058252Y15079499D01*
X15011718Y15166557D01*
X15002042Y15264798D01*
X15030698Y15359263D01*
X15058253Y15400502D01*
X15061378Y15404310D01*
X15097685Y15448550D01*
X15195232Y15631046D01*
X15255300Y15829066D01*
X15270500Y15983392D01*
X15270500Y17036608D01*
X15255300Y17190934D01*
X15215471Y17322235D01*
X15195233Y17388952D01*
X15148871Y17475688D01*
X15097685Y17571450D01*
X15082654Y17589766D01*
X15058252Y17619500D01*
X15011718Y17706560D01*
X15002042Y17804801D01*
X15030698Y17899265D01*
X15058250Y17940499D01*
X15097685Y17988550D01*
X15195232Y18171046D01*
X15255300Y18369066D01*
X15270500Y18523392D01*
X15270500Y19576608D01*
X15255300Y19730934D01*
X15214916Y19864064D01*
X15195233Y19928952D01*
X15148044Y20017236D01*
X15119388Y20111701D01*
X15129064Y20209941D01*
X15175598Y20297001D01*
X15251906Y20359626D01*
X15328626Y20382900D01*
X15328198Y20385192D01*
X15351243Y20389500D01*
X15569940Y20430382D01*
X15777401Y20510753D01*
X15777402Y20510754D01*
X15781409Y20512306D01*
X15850550Y20524407D01*
X15850201Y20527956D01*
X15874997Y20530399D01*
X15875000Y20530398D01*
X16081718Y20550758D01*
X16280493Y20611055D01*
X16463683Y20708973D01*
X16482288Y20724242D01*
X16624252Y20840748D01*
X16649397Y20871389D01*
X16666053Y20889767D01*
X17765234Y21988948D01*
X17783611Y22005603D01*
X17814252Y22030748D01*
X17946027Y22191317D01*
X17988788Y22271317D01*
X18043945Y22374507D01*
X18104242Y22573281D01*
X18124602Y22780000D01*
X18120718Y22819436D01*
X18119500Y22844233D01*
X18119500Y22898618D01*
X18138758Y22995437D01*
X18176929Y23059120D01*
X18205185Y23093550D01*
X18302732Y23276046D01*
X18362800Y23474066D01*
X18378000Y23628392D01*
X18378000Y24631608D01*
X18362800Y24785934D01*
X18346699Y24839013D01*
X18302733Y24983952D01*
X18296560Y24995500D01*
X18205185Y25166450D01*
X18183165Y25193282D01*
X18176926Y25200885D01*
X18130393Y25287946D01*
X18119500Y25361384D01*
X18119500Y25573417D01*
X18138758Y25670236D01*
X18193600Y25752313D01*
X18837734Y26396448D01*
X18856111Y26413103D01*
X18886752Y26438248D01*
X18923480Y26483003D01*
X18999785Y26545626D01*
X19094250Y26574282D01*
X19192490Y26564608D01*
X19238314Y26545627D01*
X19259112Y26534510D01*
X19292605Y26516607D01*
X19368912Y26453982D01*
X19415445Y26366922D01*
X19425119Y26268681D01*
X19396462Y26174216D01*
X19375237Y26141017D01*
X19294942Y26034690D01*
X19195770Y25835528D01*
X19134884Y25621537D01*
X19114356Y25400000D01*
X19134884Y25178464D01*
X19195771Y24964471D01*
X19238976Y24877705D01*
X19264893Y24782453D01*
X19265500Y24764933D01*
X19265500Y24194233D01*
X19264282Y24169436D01*
X19260398Y24130000D01*
X19261296Y24120881D01*
X19280758Y23923280D01*
X19341053Y23724510D01*
X19424168Y23569015D01*
X19438973Y23541317D01*
X19570748Y23380748D01*
X19601378Y23355611D01*
X19619775Y23338937D01*
X19826400Y23132312D01*
X19881241Y23050236D01*
X19900500Y22953418D01*
X19900500Y21654233D01*
X19899282Y21629436D01*
X19895398Y21590000D01*
X19897231Y21571387D01*
X19915758Y21383280D01*
X19976053Y21184510D01*
X20057860Y21031462D01*
X20073973Y21001317D01*
X20205748Y20840748D01*
X20236378Y20815611D01*
X20254775Y20798937D01*
X21433935Y19619777D01*
X21450607Y19601382D01*
X21469336Y19578561D01*
X21496889Y19537327D01*
X21532315Y19471050D01*
X21532316Y19471049D01*
X21663589Y19311090D01*
X21781106Y19214648D01*
X21823550Y19179815D01*
X21958491Y19107687D01*
X22005717Y19082444D01*
X22082025Y19019819D01*
X22128559Y18932759D01*
X22138235Y18834519D01*
X22109579Y18740054D01*
X22056899Y18672350D01*
X21969017Y18592236D01*
X21834944Y18414693D01*
X21735769Y18215527D01*
X21726523Y18183028D01*
X21681503Y18095176D01*
X21662080Y18073370D01*
X21227314Y17638602D01*
X21145235Y17583759D01*
X21048417Y17564500D01*
X20370803Y17564500D01*
X20273984Y17583758D01*
X20200721Y17632712D01*
X20200364Y17632293D01*
X20196830Y17635311D01*
X20191905Y17638602D01*
X20187883Y17642953D01*
X19993662Y17808834D01*
X19778857Y17940468D01*
X19546113Y18036872D01*
X19546111Y18036873D01*
X19301148Y18095683D01*
X19301144Y18095684D01*
X19050000Y18115449D01*
X18798855Y18095684D01*
X18705911Y18073370D01*
X18553889Y18036873D01*
X18553887Y18036873D01*
X18553886Y18036872D01*
X18321142Y17940468D01*
X18106337Y17808834D01*
X17914776Y17645224D01*
X17751166Y17453663D01*
X17619532Y17238858D01*
X17527867Y17017554D01*
X17523127Y17006111D01*
X17503906Y16926048D01*
X17464316Y16761145D01*
X17444551Y16510000D01*
X17464316Y16258856D01*
X17464317Y16258852D01*
X17523127Y16013889D01*
X17526689Y16005290D01*
X17619532Y15781143D01*
X17685348Y15673742D01*
X17751164Y15566341D01*
X17751166Y15566339D01*
X17889551Y15404310D01*
X17937785Y15318181D01*
X17949388Y15220150D01*
X17922593Y15125140D01*
X17889551Y15075690D01*
X17751166Y14913662D01*
X17619532Y14698858D01*
X17526563Y14474406D01*
X17523127Y14466111D01*
X17497596Y14359767D01*
X17464316Y14221145D01*
X17444551Y13970000D01*
X17464316Y13718856D01*
X17464317Y13718852D01*
X17523127Y13473889D01*
X17523128Y13473887D01*
X17592951Y13305318D01*
X17612209Y13208499D01*
X17592950Y13111680D01*
X17538106Y13029601D01*
X17456027Y12974758D01*
X17359209Y12955500D01*
X16838392Y12955500D01*
X16832232Y12954894D01*
X16832226Y12954893D01*
X16684063Y12940300D01*
X16486048Y12880234D01*
X16303549Y12782685D01*
X16143589Y12651411D01*
X16012315Y12491451D01*
X15914766Y12308952D01*
X15854700Y12110937D01*
X15840647Y11968249D01*
X15839500Y11956608D01*
X15839500Y10903392D01*
X15840106Y10897232D01*
X15840107Y10897227D01*
X15854700Y10749064D01*
X15914766Y10551049D01*
X16012315Y10368550D01*
X16018258Y10361308D01*
X16064790Y10274248D01*
X16074464Y10176007D01*
X16045807Y10081543D01*
X16018256Y10040310D01*
X15924815Y9926451D01*
X15827266Y9743952D01*
X15767200Y9545937D01*
X15752985Y9401604D01*
X15752000Y9391608D01*
X15752000Y8388392D01*
X15752606Y8382232D01*
X15752607Y8382227D01*
X15767200Y8234064D01*
X15776945Y8201941D01*
X15786621Y8103700D01*
X15757964Y8009235D01*
X15695339Y7932928D01*
X15608280Y7886394D01*
X15534839Y7875500D01*
X14938392Y7875500D01*
X14932232Y7874894D01*
X14932226Y7874893D01*
X14784063Y7860300D01*
X14586048Y7800234D01*
X14403549Y7702685D01*
X14243589Y7571411D01*
X14112315Y7411451D01*
X14014766Y7228952D01*
X13954700Y7030937D01*
X13943510Y6917319D01*
X13939500Y6876608D01*
X13939500Y5823392D01*
X13940106Y5817232D01*
X13940107Y5817227D01*
X13954700Y5669064D01*
X14014767Y5471047D01*
X14061170Y5384235D01*
X14112315Y5288550D01*
X14128072Y5269350D01*
X14174605Y5182295D01*
X14185500Y5108846D01*
X14185499Y5041380D01*
X14166239Y4944562D01*
X14128075Y4880888D01*
X14099816Y4846454D01*
X14002266Y4663952D01*
X13942200Y4465937D01*
X13927985Y4321604D01*
X13927000Y4311608D01*
X13927000Y3308392D01*
X13927606Y3302232D01*
X13927607Y3302227D01*
X13942200Y3154064D01*
X14002266Y2956049D01*
X14099815Y2773550D01*
X14231089Y2613590D01*
X14355897Y2511164D01*
X14391050Y2482315D01*
X14541257Y2402027D01*
X14573548Y2384767D01*
X14734699Y2335884D01*
X14771566Y2324700D01*
X14925892Y2309500D01*
X14932093Y2309500D01*
X15547907Y2309500D01*
X15554108Y2309500D01*
X15708434Y2324700D01*
X15906454Y2384768D01*
X16033240Y2452538D01*
X16127698Y2481191D01*
X16225938Y2471517D01*
X16271763Y2452536D01*
X16398546Y2384768D01*
X16596566Y2324700D01*
X16750892Y2309500D01*
X16757093Y2309500D01*
X17372907Y2309500D01*
X17379108Y2309500D01*
X17533434Y2324700D01*
X17731454Y2384768D01*
X17913950Y2482315D01*
X18073910Y2613590D01*
X18205185Y2773550D01*
X18302732Y2956046D01*
X18362800Y3154066D01*
X18378000Y3308392D01*
X18378000Y3526917D01*
X18397258Y3623736D01*
X18452099Y3705812D01*
X18697685Y3951398D01*
X18779766Y4006242D01*
X18876584Y4025500D01*
X22211425Y4025500D01*
X22302819Y4008416D01*
X22322598Y4000754D01*
X22322599Y4000753D01*
X22530060Y3920382D01*
X22748757Y3879500D01*
X22971243Y3879500D01*
X23189940Y3920382D01*
X23397401Y4000753D01*
X23586562Y4117876D01*
X23750981Y4267764D01*
X23885058Y4445311D01*
X23984229Y4644472D01*
X24045115Y4858464D01*
X24065643Y5080000D01*
X24045115Y5301536D01*
X24030304Y5353590D01*
X23984229Y5515528D01*
X23961835Y5560500D01*
X23885058Y5714689D01*
X23807625Y5817227D01*
X23750982Y5892235D01*
X23748973Y5894066D01*
X23586562Y6042124D01*
X23507615Y6091006D01*
X23497296Y6097395D01*
X23425117Y6164737D01*
X23384203Y6254575D01*
X23380783Y6353232D01*
X23415378Y6445687D01*
X23482720Y6517866D01*
X23572558Y6558780D01*
X23630483Y6565500D01*
X25416951Y6565500D01*
X25513770Y6546242D01*
X25595849Y6491398D01*
X25612524Y6473000D01*
X25673590Y6398589D01*
X25762462Y6325655D01*
X25833550Y6267315D01*
X25992911Y6182134D01*
X26016048Y6169767D01*
X26177199Y6120884D01*
X26214066Y6109700D01*
X26368392Y6094500D01*
X26374593Y6094500D01*
X26965407Y6094500D01*
X26971608Y6094500D01*
X27125934Y6109700D01*
X27323954Y6169768D01*
X27506450Y6267315D01*
X27666410Y6398590D01*
X27797685Y6558550D01*
X27895232Y6741046D01*
X27955300Y6939066D01*
X27970500Y7093392D01*
X27970500Y8146608D01*
X27955300Y8300934D01*
X27924547Y8402315D01*
X27895233Y8498952D01*
X27877816Y8531536D01*
X27797685Y8681450D01*
X27742575Y8748602D01*
X27666410Y8841411D01*
X27506450Y8972685D01*
X27323951Y9070234D01*
X27125936Y9130300D01*
X26977773Y9144893D01*
X26977768Y9144894D01*
X26971608Y9145500D01*
X26368392Y9145500D01*
X26362232Y9144894D01*
X26362226Y9144893D01*
X26214063Y9130300D01*
X26016048Y9070234D01*
X25833549Y8972685D01*
X25673590Y8841412D01*
X25612524Y8767000D01*
X25536216Y8704375D01*
X25441751Y8675718D01*
X25416951Y8674500D01*
X24746583Y8674500D01*
X24649764Y8693758D01*
X24567685Y8748602D01*
X24512841Y8830681D01*
X24493583Y8927500D01*
X24512841Y9024319D01*
X24567685Y9106398D01*
X25330233Y9868946D01*
X26100234Y10638948D01*
X26118611Y10655603D01*
X26149252Y10680748D01*
X26281027Y10841317D01*
X26378945Y11024508D01*
X26439242Y11223282D01*
X26454500Y11378199D01*
X26455865Y11392064D01*
X26484515Y11486529D01*
X26547134Y11562841D01*
X26634191Y11609380D01*
X26732431Y11619062D01*
X26826898Y11590412D01*
X26903211Y11527793D01*
X26943590Y11478590D01*
X27103550Y11347315D01*
X27265611Y11260691D01*
X27286048Y11249767D01*
X27447199Y11200884D01*
X27484066Y11189700D01*
X27638392Y11174500D01*
X27644593Y11174500D01*
X28235407Y11174500D01*
X28241608Y11174500D01*
X28395934Y11189700D01*
X28593954Y11249768D01*
X28776450Y11347315D01*
X28936410Y11478590D01*
X29067685Y11638550D01*
X29165232Y11821046D01*
X29225300Y12019066D01*
X29240500Y12173392D01*
X29240500Y13226608D01*
X29225300Y13380934D01*
X29204576Y13449253D01*
X29165233Y13578952D01*
X29120776Y13662124D01*
X29067685Y13761450D01*
X29003841Y13839245D01*
X28936410Y13921411D01*
X28776450Y14052685D01*
X28593951Y14150234D01*
X28395936Y14210300D01*
X28247773Y14224893D01*
X28247768Y14224894D01*
X28241608Y14225500D01*
X28235407Y14225500D01*
X28010584Y14225500D01*
X27913765Y14244758D01*
X27831686Y14299602D01*
X27798602Y14332686D01*
X27743758Y14414765D01*
X27724500Y14511584D01*
X27724500Y17296790D01*
X27743758Y17393609D01*
X27798602Y17475688D01*
X27880681Y17530532D01*
X27977500Y17549790D01*
X27981429Y17549694D01*
X27983392Y17549500D01*
X27989287Y17549500D01*
X28605407Y17549500D01*
X28611608Y17549500D01*
X28624248Y17550745D01*
X28722489Y17541072D01*
X28809550Y17494540D01*
X28872177Y17418234D01*
X28900835Y17323770D01*
X28891162Y17225529D01*
X28891161Y17225525D01*
X28874609Y17170961D01*
X28860766Y17030407D01*
X28859500Y17017554D01*
X28859500Y16002446D01*
X28860106Y15996287D01*
X28860107Y15996279D01*
X28874609Y15849039D01*
X28934318Y15652202D01*
X29031287Y15470786D01*
X29161780Y15311781D01*
X29320785Y15181288D01*
X29320786Y15181288D01*
X29320788Y15181286D01*
X29502199Y15084320D01*
X29502201Y15084319D01*
X29654273Y15038189D01*
X29699041Y15024609D01*
X29852446Y15009500D01*
X29858648Y15009500D01*
X30436352Y15009500D01*
X30442554Y15009500D01*
X30595959Y15024609D01*
X30792801Y15084320D01*
X30974212Y15181286D01*
X31133219Y15311781D01*
X31263714Y15470788D01*
X31360680Y15652199D01*
X31420391Y15849041D01*
X31435500Y16002446D01*
X31435500Y16005953D01*
X31459316Y16101049D01*
X31518118Y16180340D01*
X31602788Y16231093D01*
X31700434Y16245582D01*
X31796193Y16221600D01*
X31866928Y16171784D01*
X35122314Y12916398D01*
X35177158Y12834319D01*
X35196416Y12737500D01*
X35177158Y12640681D01*
X35122314Y12558602D01*
X35040235Y12503758D01*
X34943416Y12484500D01*
X33668575Y12484500D01*
X33577181Y12501584D01*
X33530245Y12519767D01*
X33349940Y12589618D01*
X33349939Y12589619D01*
X33349937Y12589619D01*
X33131243Y12630500D01*
X32908757Y12630500D01*
X32690062Y12589619D01*
X32482596Y12509246D01*
X32293437Y12392124D01*
X32129017Y12242235D01*
X31994944Y12064693D01*
X31895770Y11865528D01*
X31834884Y11651537D01*
X31814356Y11430000D01*
X31834884Y11208464D01*
X31895770Y10994473D01*
X31906843Y10972236D01*
X31994942Y10795311D01*
X31994943Y10795310D01*
X31994944Y10795308D01*
X32106393Y10647725D01*
X32129019Y10617764D01*
X32293438Y10467876D01*
X32482599Y10350753D01*
X32690060Y10270382D01*
X32908757Y10229500D01*
X33131243Y10229500D01*
X33349940Y10270382D01*
X33557401Y10350753D01*
X33557402Y10350754D01*
X33577181Y10358416D01*
X33668575Y10375500D01*
X35999386Y10375500D01*
X36096205Y10356242D01*
X36178284Y10301398D01*
X36233128Y10219319D01*
X36252386Y10122500D01*
X36233128Y10025681D01*
X36191770Y9958193D01*
X36167045Y9929242D01*
X36110588Y9863140D01*
X35974847Y9641632D01*
X35919649Y9508370D01*
X35881032Y9415140D01*
X35875425Y9401604D01*
X35814778Y9148997D01*
X35794396Y8890001D01*
X35814778Y8631004D01*
X35875425Y8378397D01*
X35875427Y8378390D01*
X35945076Y8210242D01*
X35974847Y8138369D01*
X36037551Y8036046D01*
X36110588Y7916860D01*
X36191770Y7821809D01*
X36240003Y7735681D01*
X36251606Y7637650D01*
X36224811Y7542640D01*
X36163696Y7465117D01*
X36077567Y7416883D01*
X35999386Y7404500D01*
X34938575Y7404500D01*
X34847181Y7421584D01*
X34759143Y7455690D01*
X34619940Y7509618D01*
X34619939Y7509619D01*
X34619937Y7509619D01*
X34401243Y7550500D01*
X34178757Y7550500D01*
X33960062Y7509619D01*
X33752596Y7429246D01*
X33563437Y7312124D01*
X33399017Y7162235D01*
X33264944Y6984693D01*
X33165770Y6785528D01*
X33104884Y6571537D01*
X33084356Y6350000D01*
X33104884Y6128464D01*
X33165770Y5914473D01*
X33208035Y5829594D01*
X33264942Y5715311D01*
X33264943Y5715310D01*
X33264944Y5715308D01*
X33381849Y5560500D01*
X33399019Y5537764D01*
X33563438Y5387876D01*
X33702881Y5301537D01*
X33713269Y5295105D01*
X33785447Y5227762D01*
X33826361Y5137924D01*
X33829781Y5039268D01*
X33795186Y4946812D01*
X33727843Y4874634D01*
X33713269Y4864895D01*
X33563435Y4772122D01*
X33399017Y4622235D01*
X33264944Y4444693D01*
X33165770Y4245528D01*
X33104884Y4031537D01*
X33084356Y3810000D01*
X33104884Y3588464D01*
X33165770Y3374473D01*
X33215154Y3275297D01*
X33264942Y3175311D01*
X33264943Y3175310D01*
X33264944Y3175308D01*
X33356520Y3054041D01*
X33399019Y2997764D01*
X33563438Y2847876D01*
X33752599Y2730753D01*
X33960060Y2650382D01*
X34178757Y2609500D01*
X34401243Y2609500D01*
X34619940Y2650382D01*
X34827401Y2730753D01*
X34827402Y2730754D01*
X34847181Y2738416D01*
X34938575Y2755500D01*
X35508199Y2755500D01*
X36063442Y2755500D01*
X36160261Y2736242D01*
X36242340Y2681398D01*
X36255819Y2666816D01*
X36279311Y2639311D01*
X36476860Y2470588D01*
X36613463Y2386878D01*
X36698368Y2334848D01*
X36698370Y2334848D01*
X36698372Y2334846D01*
X36938390Y2235427D01*
X37025557Y2214500D01*
X37191003Y2174779D01*
X37233999Y2171396D01*
X37385147Y2159500D01*
X37390119Y2159500D01*
X38809881Y2159500D01*
X38814853Y2159500D01*
X38980331Y2172524D01*
X39008996Y2174779D01*
X39113493Y2199868D01*
X39261610Y2235427D01*
X39501628Y2334846D01*
X39723140Y2470588D01*
X39920689Y2639311D01*
X40089412Y2836860D01*
X40225154Y3058372D01*
X40324573Y3298390D01*
X40360132Y3446507D01*
X40385221Y3551004D01*
X40390945Y3623736D01*
X40405604Y3810000D01*
X40385839Y4061145D01*
X40385221Y4068997D01*
X40324574Y4321604D01*
X40324573Y4321610D01*
X40225154Y4561628D01*
X40208656Y4588550D01*
X40147894Y4687705D01*
X40089412Y4783140D01*
X39976202Y4915692D01*
X39927969Y5001819D01*
X39916366Y5099850D01*
X39943161Y5194860D01*
X39976203Y5244310D01*
X39976204Y5244311D01*
X40089412Y5376860D01*
X40225154Y5598372D01*
X40324573Y5838390D01*
X40360132Y5986507D01*
X40385221Y6091004D01*
X40390160Y6153758D01*
X40405604Y6350000D01*
X40385839Y6601145D01*
X40385221Y6608997D01*
X40340397Y6795700D01*
X40324573Y6861610D01*
X40225154Y7101628D01*
X40221831Y7107050D01*
X40147129Y7228954D01*
X40089412Y7323140D01*
X39976202Y7455692D01*
X39927969Y7541819D01*
X39916366Y7639850D01*
X39943161Y7734860D01*
X39976203Y7784310D01*
X39989802Y7800232D01*
X40089412Y7916860D01*
X40225154Y8138372D01*
X40324573Y8378390D01*
X40370575Y8570000D01*
X40385221Y8631004D01*
X40390143Y8693550D01*
X40405604Y8890000D01*
X40385839Y9141145D01*
X40385221Y9148997D01*
X40347588Y9305743D01*
X40324573Y9401610D01*
X40225154Y9641628D01*
X40215304Y9657701D01*
X40181137Y9750314D01*
X40185012Y9848954D01*
X40226340Y9938602D01*
X40298828Y10005611D01*
X40391442Y10039779D01*
X40490082Y10035904D01*
X40579730Y9994576D01*
X40609920Y9968792D01*
X40721430Y9857282D01*
X40776274Y9775203D01*
X40785873Y9747625D01*
X40786917Y9743954D01*
X40792461Y9724472D01*
X40891632Y9525311D01*
X40891633Y9525310D01*
X40891634Y9525308D01*
X40996750Y9386111D01*
X41025709Y9347764D01*
X41190128Y9197876D01*
X41379289Y9080753D01*
X41586750Y9000382D01*
X41805447Y8959500D01*
X42027933Y8959500D01*
X42246630Y9000382D01*
X42454091Y9080753D01*
X42643252Y9197876D01*
X42807671Y9347764D01*
X42941748Y9525311D01*
X42941749Y9525314D01*
X42947291Y9532652D01*
X43021006Y9598310D01*
X43114236Y9630760D01*
X43212787Y9625062D01*
X43301656Y9582085D01*
X43367314Y9508370D01*
X43399764Y9415140D01*
X43402190Y9380186D01*
X43402190Y8507533D01*
X43382932Y8410714D01*
X43328088Y8328635D01*
X43309691Y8311961D01*
X43260279Y8271411D01*
X43129005Y8111451D01*
X43031456Y7928952D01*
X42971390Y7730937D01*
X42960464Y7620000D01*
X42956190Y7576608D01*
X42956190Y6948392D01*
X42956796Y6942232D01*
X42956797Y6942227D01*
X42971390Y6794064D01*
X43031456Y6596049D01*
X43099225Y6469264D01*
X43127881Y6374799D01*
X43118205Y6276559D01*
X43099225Y6230736D01*
X43031456Y6103952D01*
X42971390Y5905937D01*
X42964817Y5839194D01*
X42956190Y5751608D01*
X42956190Y5123392D01*
X42956796Y5117232D01*
X42956797Y5117227D01*
X42971390Y4969064D01*
X43031457Y4771046D01*
X43134051Y4579107D01*
X43162707Y4484642D01*
X43153031Y4386402D01*
X43134052Y4340582D01*
X43031009Y4147801D01*
X42971299Y3950962D01*
X42957416Y3810000D01*
X42956190Y3797554D01*
X42956190Y3207446D01*
X42956796Y3201287D01*
X42956797Y3201279D01*
X42971299Y3054039D01*
X43031008Y2857202D01*
X43127977Y2675786D01*
X43258470Y2516781D01*
X43417475Y2386288D01*
X43417476Y2386288D01*
X43417478Y2386286D01*
X43561135Y2309500D01*
X43598891Y2289319D01*
X43709832Y2255666D01*
X43795731Y2229609D01*
X43949136Y2214500D01*
X43955338Y2214500D01*
X44958042Y2214500D01*
X44964244Y2214500D01*
X45117649Y2229609D01*
X45314491Y2289320D01*
X45495902Y2386286D01*
X45654909Y2516781D01*
X45785404Y2675788D01*
X45882370Y2857199D01*
X45942081Y3054041D01*
X45957190Y3207446D01*
X45957190Y3797554D01*
X45942081Y3950959D01*
X45906275Y4068997D01*
X45882371Y4147799D01*
X45830134Y4245528D01*
X45785404Y4329212D01*
X45785402Y4329215D01*
X45779327Y4340580D01*
X45750671Y4435045D01*
X45760347Y4533286D01*
X45779328Y4579109D01*
X45784373Y4588548D01*
X45784375Y4588550D01*
X45881922Y4771046D01*
X45941990Y4969066D01*
X45957190Y5123392D01*
X45957190Y5751608D01*
X45941990Y5905934D01*
X45941988Y5905939D01*
X45939599Y5930200D01*
X45949275Y6028441D01*
X45995808Y6115500D01*
X46072116Y6178125D01*
X46166581Y6206782D01*
X46191381Y6208000D01*
X46531999Y6208000D01*
X46628818Y6188742D01*
X46710897Y6133898D01*
X46765741Y6051819D01*
X46784999Y5955000D01*
X46783781Y5930200D01*
X46781391Y5905938D01*
X46781390Y5905934D01*
X46766190Y5751608D01*
X46766190Y5123392D01*
X46766796Y5117232D01*
X46766797Y5117227D01*
X46781390Y4969064D01*
X46841457Y4771046D01*
X46944051Y4579107D01*
X46972707Y4484642D01*
X46963031Y4386402D01*
X46944052Y4340582D01*
X46841009Y4147801D01*
X46781299Y3950962D01*
X46767416Y3810000D01*
X46766190Y3797554D01*
X46766190Y3207446D01*
X46766796Y3201287D01*
X46766797Y3201279D01*
X46781299Y3054039D01*
X46841008Y2857202D01*
X46937977Y2675786D01*
X47068470Y2516781D01*
X47227475Y2386288D01*
X47227476Y2386288D01*
X47227478Y2386286D01*
X47371135Y2309500D01*
X47408891Y2289319D01*
X47519832Y2255666D01*
X47605731Y2229609D01*
X47759136Y2214500D01*
X47765338Y2214500D01*
X48768042Y2214500D01*
X48774244Y2214500D01*
X48927649Y2229609D01*
X49124491Y2289320D01*
X49305902Y2386286D01*
X49464909Y2516781D01*
X49595404Y2675788D01*
X49692370Y2857199D01*
X49752081Y3054041D01*
X49767190Y3207446D01*
X49767190Y3797554D01*
X49752081Y3950959D01*
X49716275Y4068997D01*
X49692371Y4147799D01*
X49640134Y4245528D01*
X49595404Y4329212D01*
X49595402Y4329215D01*
X49589327Y4340580D01*
X49560671Y4435045D01*
X49570347Y4533286D01*
X49589328Y4579109D01*
X49594373Y4588548D01*
X49594375Y4588550D01*
X49691922Y4771046D01*
X49751990Y4969066D01*
X49767190Y5123392D01*
X49767190Y5287417D01*
X49786448Y5384235D01*
X49841292Y5466314D01*
X49923371Y5521158D01*
X50020190Y5540416D01*
X50117009Y5521158D01*
X50199088Y5466314D01*
X51104284Y4561118D01*
X51159126Y4479041D01*
X51197499Y4386402D01*
X51221537Y4328369D01*
X51299825Y4200615D01*
X51357278Y4106860D01*
X51526001Y3909311D01*
X51723550Y3740588D01*
X51876188Y3647052D01*
X51945058Y3604848D01*
X51945060Y3604848D01*
X51945062Y3604846D01*
X52185080Y3505427D01*
X52280947Y3482412D01*
X52437693Y3444779D01*
X52480689Y3441396D01*
X52631837Y3429500D01*
X52636809Y3429500D01*
X54056571Y3429500D01*
X54061543Y3429500D01*
X54227021Y3442524D01*
X54255686Y3444779D01*
X54360183Y3469868D01*
X54508300Y3505427D01*
X54748318Y3604846D01*
X54969830Y3740588D01*
X55087384Y3840989D01*
X55173509Y3889220D01*
X55271540Y3900823D01*
X55366549Y3874028D01*
X55415992Y3840992D01*
X55533550Y3740588D01*
X55590295Y3705815D01*
X55755058Y3604848D01*
X55755060Y3604848D01*
X55755062Y3604846D01*
X55995080Y3505427D01*
X56090947Y3482412D01*
X56247693Y3444779D01*
X56290689Y3441396D01*
X56441837Y3429500D01*
X56446809Y3429500D01*
X57866571Y3429500D01*
X57871543Y3429500D01*
X58037021Y3442524D01*
X58065686Y3444779D01*
X58170183Y3469868D01*
X58318300Y3505427D01*
X58558318Y3604846D01*
X58779830Y3740588D01*
X58897384Y3840989D01*
X58983509Y3889220D01*
X59081540Y3900823D01*
X59176549Y3874028D01*
X59225992Y3840992D01*
X59343550Y3740588D01*
X59400295Y3705815D01*
X59565058Y3604848D01*
X59565060Y3604848D01*
X59565062Y3604846D01*
X59805080Y3505427D01*
X59900947Y3482412D01*
X60057693Y3444779D01*
X60100689Y3441396D01*
X60251837Y3429500D01*
X60256809Y3429500D01*
X61676571Y3429500D01*
X61681543Y3429500D01*
X61847021Y3442524D01*
X61875686Y3444779D01*
X61980183Y3469868D01*
X62128300Y3505427D01*
X62368318Y3604846D01*
X62589830Y3740588D01*
X62708465Y3841913D01*
X62794592Y3890146D01*
X62892624Y3901749D01*
X62987633Y3874954D01*
X63037082Y3841914D01*
X63146860Y3748154D01*
X63260005Y3678819D01*
X63368368Y3612414D01*
X63368370Y3612414D01*
X63368372Y3612412D01*
X63608390Y3512993D01*
X63704257Y3489978D01*
X63861003Y3452345D01*
X63903999Y3448962D01*
X64055147Y3437066D01*
X64060119Y3437066D01*
X65479881Y3437066D01*
X65484853Y3437066D01*
X65650331Y3450090D01*
X65678996Y3452345D01*
X65783493Y3477434D01*
X65931610Y3512993D01*
X66171628Y3612412D01*
X66393140Y3748154D01*
X66590689Y3916877D01*
X66759412Y4114426D01*
X66895154Y4335938D01*
X66994573Y4575956D01*
X67041410Y4771046D01*
X67055221Y4828570D01*
X67064349Y4944562D01*
X67075604Y5087566D01*
X67055221Y5346560D01*
X67055221Y5346563D01*
X67014655Y5515528D01*
X66994573Y5599176D01*
X66895154Y5839194D01*
X66886150Y5853887D01*
X66849023Y5914473D01*
X66759412Y6060706D01*
X66590689Y6258255D01*
X66393140Y6426978D01*
X66288016Y6491398D01*
X66171631Y6562719D01*
X66078862Y6601145D01*
X65931610Y6662139D01*
X65931604Y6662141D01*
X65931603Y6662141D01*
X65678996Y6722788D01*
X65489810Y6737676D01*
X65489806Y6737677D01*
X65484853Y6738066D01*
X64055147Y6738066D01*
X64050194Y6737677D01*
X64050189Y6737676D01*
X63861003Y6722788D01*
X63608396Y6662141D01*
X63608392Y6662140D01*
X63608390Y6662139D01*
X63506410Y6619898D01*
X63368368Y6562719D01*
X63146860Y6426978D01*
X63028224Y6325654D01*
X62942095Y6277420D01*
X62844063Y6265818D01*
X62749054Y6292614D01*
X62699605Y6325655D01*
X62674885Y6346768D01*
X62589830Y6419412D01*
X62472359Y6491398D01*
X62368321Y6555153D01*
X62269596Y6596046D01*
X62128300Y6654573D01*
X62128294Y6654575D01*
X62128293Y6654575D01*
X61875686Y6715222D01*
X61686500Y6730110D01*
X61686496Y6730111D01*
X61681543Y6730500D01*
X60251837Y6730500D01*
X60246884Y6730111D01*
X60246879Y6730110D01*
X60057693Y6715222D01*
X59805086Y6654575D01*
X59805082Y6654574D01*
X59805080Y6654573D01*
X59703100Y6612332D01*
X59565058Y6555153D01*
X59343550Y6419412D01*
X59226000Y6319015D01*
X59139870Y6270780D01*
X59041839Y6259178D01*
X58946830Y6285974D01*
X58897380Y6319015D01*
X58832065Y6374799D01*
X58779830Y6419412D01*
X58662359Y6491398D01*
X58558321Y6555153D01*
X58459596Y6596046D01*
X58318300Y6654573D01*
X58318294Y6654575D01*
X58318293Y6654575D01*
X58065686Y6715222D01*
X57876500Y6730110D01*
X57876496Y6730111D01*
X57871543Y6730500D01*
X56441837Y6730500D01*
X56436884Y6730111D01*
X56436879Y6730110D01*
X56247693Y6715222D01*
X55995086Y6654575D01*
X55995082Y6654574D01*
X55995080Y6654573D01*
X55893100Y6612332D01*
X55755058Y6555153D01*
X55533550Y6419412D01*
X55416000Y6319015D01*
X55329870Y6270780D01*
X55231839Y6259178D01*
X55136830Y6285974D01*
X55087380Y6319015D01*
X55022065Y6374799D01*
X54969830Y6419412D01*
X54852359Y6491398D01*
X54748321Y6555153D01*
X54649596Y6596046D01*
X54508300Y6654573D01*
X54508294Y6654575D01*
X54508293Y6654575D01*
X54255686Y6715222D01*
X54066500Y6730110D01*
X54066496Y6730111D01*
X54061543Y6730500D01*
X52631837Y6730500D01*
X52626884Y6730111D01*
X52626879Y6730110D01*
X52437698Y6715222D01*
X52168284Y6650541D01*
X52069645Y6646666D01*
X51977031Y6680833D01*
X51930325Y6717653D01*
X50685253Y7962725D01*
X50668579Y7981122D01*
X50643442Y8011752D01*
X50482874Y8143527D01*
X50449919Y8161141D01*
X50445622Y8163438D01*
X50373589Y8201941D01*
X50299679Y8241448D01*
X50100912Y8301741D01*
X50100910Y8301742D01*
X50100908Y8301742D01*
X49894190Y8322102D01*
X49894188Y8322102D01*
X49854754Y8318218D01*
X49829957Y8317000D01*
X49498073Y8317000D01*
X49401254Y8336258D01*
X49337573Y8374427D01*
X49303140Y8402685D01*
X49149292Y8484919D01*
X49120644Y8500232D01*
X49120643Y8500233D01*
X49120640Y8500234D01*
X49094621Y8508127D01*
X49063790Y8524607D01*
X49021054Y8530442D01*
X48922626Y8560300D01*
X48774463Y8574893D01*
X48774458Y8574894D01*
X48768298Y8575500D01*
X47765082Y8575500D01*
X47758922Y8574894D01*
X47758916Y8574893D01*
X47709240Y8570000D01*
X47610756Y8560300D01*
X47610753Y8560300D01*
X47610751Y8560299D01*
X47512324Y8530442D01*
X47479770Y8527236D01*
X47438759Y8508127D01*
X47412738Y8500234D01*
X47230239Y8402685D01*
X47195807Y8374427D01*
X47108748Y8327894D01*
X47035307Y8317000D01*
X45764189Y8317000D01*
X45667370Y8336258D01*
X45585291Y8391102D01*
X45530447Y8473181D01*
X45511189Y8570000D01*
X45511189Y9380187D01*
X45530447Y9477006D01*
X45585291Y9559085D01*
X45667370Y9613929D01*
X45764189Y9633187D01*
X45861008Y9613929D01*
X45943087Y9559085D01*
X45966087Y9532654D01*
X45971631Y9525312D01*
X45971632Y9525311D01*
X46105709Y9347764D01*
X46270128Y9197876D01*
X46459289Y9080753D01*
X46666750Y9000382D01*
X46885447Y8959500D01*
X47107932Y8959500D01*
X47107933Y8959500D01*
X47318830Y8998924D01*
X47330909Y8998785D01*
X47347486Y9008462D01*
X47534091Y9080753D01*
X47723252Y9197876D01*
X47887671Y9347764D01*
X48021748Y9525311D01*
X48040214Y9562397D01*
X48100609Y9640480D01*
X48186289Y9689509D01*
X48284209Y9702017D01*
X48379462Y9676100D01*
X48457546Y9615705D01*
X48493165Y9562398D01*
X48501363Y9545934D01*
X48511633Y9525309D01*
X48617282Y9385407D01*
X48645709Y9347764D01*
X48810128Y9197876D01*
X48999289Y9080753D01*
X49185890Y9008464D01*
X49199906Y8999560D01*
X49214547Y8998925D01*
X49425447Y8959500D01*
X49425448Y8959500D01*
X49647933Y8959500D01*
X49866630Y9000382D01*
X50074091Y9080753D01*
X50074092Y9080754D01*
X50093871Y9088416D01*
X50185265Y9105500D01*
X51310132Y9105500D01*
X51406951Y9086242D01*
X51489030Y9031398D01*
X51502509Y9016816D01*
X51526001Y8989311D01*
X51723550Y8820588D01*
X51841021Y8748602D01*
X51945058Y8684848D01*
X51945060Y8684848D01*
X51945062Y8684846D01*
X52185080Y8585427D01*
X52249338Y8570000D01*
X52437693Y8524779D01*
X52480689Y8521396D01*
X52631837Y8509500D01*
X52636809Y8509500D01*
X54056571Y8509500D01*
X54061543Y8509500D01*
X54227021Y8522524D01*
X54255686Y8524779D01*
X54360183Y8549868D01*
X54508300Y8585427D01*
X54748318Y8684846D01*
X54969830Y8820588D01*
X55087384Y8920989D01*
X55173509Y8969220D01*
X55271540Y8980823D01*
X55366549Y8954028D01*
X55415992Y8920992D01*
X55533550Y8820588D01*
X55541057Y8815988D01*
X55755058Y8684848D01*
X55755060Y8684848D01*
X55755062Y8684846D01*
X55995080Y8585427D01*
X56059338Y8570000D01*
X56247693Y8524779D01*
X56290689Y8521396D01*
X56441837Y8509500D01*
X56446809Y8509500D01*
X57866571Y8509500D01*
X57871543Y8509500D01*
X58037021Y8522524D01*
X58065686Y8524779D01*
X58170183Y8549868D01*
X58318300Y8585427D01*
X58558318Y8684846D01*
X58779830Y8820588D01*
X58897384Y8920989D01*
X58983509Y8969220D01*
X59081540Y8980823D01*
X59176549Y8954028D01*
X59225992Y8920992D01*
X59343550Y8820588D01*
X59351057Y8815988D01*
X59565058Y8684848D01*
X59565060Y8684848D01*
X59565062Y8684846D01*
X59805080Y8585427D01*
X59869338Y8570000D01*
X60057693Y8524779D01*
X60100689Y8521396D01*
X60251837Y8509500D01*
X60256809Y8509500D01*
X61676571Y8509500D01*
X61681543Y8509500D01*
X61847021Y8522524D01*
X61875686Y8524779D01*
X61980183Y8549868D01*
X62128300Y8585427D01*
X62368318Y8684846D01*
X62589830Y8820588D01*
X62707384Y8920989D01*
X62793509Y8969220D01*
X62891540Y8980823D01*
X62986549Y8954028D01*
X63035992Y8920992D01*
X63153550Y8820588D01*
X63161057Y8815988D01*
X63375058Y8684848D01*
X63375060Y8684848D01*
X63375062Y8684846D01*
X63615080Y8585427D01*
X63679338Y8570000D01*
X63867693Y8524779D01*
X63910689Y8521396D01*
X64061837Y8509500D01*
X64066809Y8509500D01*
X65486571Y8509500D01*
X65491543Y8509500D01*
X65657021Y8522524D01*
X65685686Y8524779D01*
X65790183Y8549868D01*
X65938300Y8585427D01*
X66178318Y8684846D01*
X66399830Y8820588D01*
X66597379Y8989311D01*
X66766102Y9186860D01*
X66901844Y9408372D01*
X67001263Y9648390D01*
X67045250Y9831608D01*
X67061911Y9901004D01*
X67069275Y9994576D01*
X67082294Y10160000D01*
X67061911Y10418994D01*
X67061911Y10418997D01*
X67006997Y10647725D01*
X67001263Y10671610D01*
X66901844Y10911628D01*
X66766102Y11133140D01*
X66652892Y11265692D01*
X66604659Y11351819D01*
X66593056Y11449850D01*
X66619851Y11544860D01*
X66652893Y11594310D01*
X66665764Y11609380D01*
X66766102Y11726860D01*
X66901844Y11948372D01*
X67001263Y12188390D01*
X67042504Y12360170D01*
X67061911Y12441004D01*
X67065609Y12487992D01*
X67082294Y12700000D01*
X67061911Y12958994D01*
X67061911Y12958997D01*
X67013998Y13158566D01*
X67001263Y13211610D01*
X66901844Y13451628D01*
X66766102Y13673140D01*
X66597379Y13870689D01*
X66399830Y14039412D01*
X66293911Y14104319D01*
X66178321Y14175153D01*
X66127328Y14196275D01*
X65938300Y14274573D01*
X65938294Y14274575D01*
X65938293Y14274575D01*
X65685686Y14335222D01*
X65496500Y14350110D01*
X65496496Y14350111D01*
X65491543Y14350500D01*
X64061837Y14350500D01*
X64056884Y14350111D01*
X64056879Y14350110D01*
X63867693Y14335222D01*
X63615086Y14274575D01*
X63615082Y14274574D01*
X63615080Y14274573D01*
X63541879Y14244252D01*
X63375058Y14175153D01*
X63153550Y14039412D01*
X63036000Y13939015D01*
X62949870Y13890780D01*
X62851839Y13879178D01*
X62756830Y13905974D01*
X62707380Y13939015D01*
X62668448Y13972266D01*
X62589830Y14039412D01*
X62483911Y14104319D01*
X62368321Y14175153D01*
X62317328Y14196275D01*
X62128300Y14274573D01*
X62128294Y14274575D01*
X62128293Y14274575D01*
X61875686Y14335222D01*
X61686500Y14350110D01*
X61686496Y14350111D01*
X61681543Y14350500D01*
X60251837Y14350500D01*
X60246884Y14350111D01*
X60246879Y14350110D01*
X60057693Y14335222D01*
X59805086Y14274575D01*
X59805082Y14274574D01*
X59805080Y14274573D01*
X59731879Y14244252D01*
X59565058Y14175153D01*
X59343550Y14039412D01*
X59226000Y13939015D01*
X59139870Y13890780D01*
X59041839Y13879178D01*
X58946830Y13905974D01*
X58897380Y13939015D01*
X58858448Y13972266D01*
X58779830Y14039412D01*
X58673911Y14104319D01*
X58558321Y14175153D01*
X58507328Y14196275D01*
X58318300Y14274573D01*
X58318294Y14274575D01*
X58318293Y14274575D01*
X58065686Y14335222D01*
X57876500Y14350110D01*
X57876496Y14350111D01*
X57871543Y14350500D01*
X56441837Y14350500D01*
X56436884Y14350111D01*
X56436879Y14350110D01*
X56247693Y14335222D01*
X55995086Y14274575D01*
X55995082Y14274574D01*
X55995080Y14274573D01*
X55921879Y14244252D01*
X55755058Y14175153D01*
X55533550Y14039412D01*
X55416000Y13939015D01*
X55329870Y13890780D01*
X55231839Y13879178D01*
X55136830Y13905974D01*
X55087380Y13939015D01*
X55048448Y13972266D01*
X54969830Y14039412D01*
X54863911Y14104319D01*
X54748321Y14175153D01*
X54697328Y14196275D01*
X54508300Y14274573D01*
X54508294Y14274575D01*
X54508293Y14274575D01*
X54255686Y14335222D01*
X54066500Y14350110D01*
X54066496Y14350111D01*
X54061543Y14350500D01*
X52631837Y14350500D01*
X52626884Y14350111D01*
X52626879Y14350110D01*
X52437693Y14335222D01*
X52185086Y14274575D01*
X52185082Y14274574D01*
X52185080Y14274573D01*
X52111879Y14244252D01*
X51945058Y14175153D01*
X51731058Y14044013D01*
X51723550Y14039412D01*
X51526001Y13870689D01*
X51504549Y13845571D01*
X51502515Y13843190D01*
X51424992Y13782075D01*
X51329982Y13755280D01*
X51310132Y13754500D01*
X49452825Y13754500D01*
X49356006Y13773758D01*
X49273927Y13828602D01*
X49219083Y13910681D01*
X49199825Y14007500D01*
X49219083Y14104319D01*
X49256743Y14167379D01*
X49319424Y14244249D01*
X49408927Y14415594D01*
X49462107Y14601448D01*
X49472190Y14714862D01*
X49472190Y15125138D01*
X49462107Y15238552D01*
X49462107Y15238554D01*
X49408927Y15424406D01*
X49353218Y15531055D01*
X49319424Y15595751D01*
X49290642Y15631049D01*
X49197261Y15745572D01*
X49047441Y15867734D01*
X48876095Y15957238D01*
X48690243Y16010418D01*
X48582408Y16020004D01*
X48582406Y16020005D01*
X48576828Y16020500D01*
X47291552Y16020500D01*
X47285974Y16020005D01*
X47285971Y16020004D01*
X47178137Y16010418D01*
X47086731Y15984262D01*
X47017131Y15974500D01*
X46581584Y15974500D01*
X46484765Y15993758D01*
X46402686Y16048602D01*
X46153563Y16297725D01*
X46136889Y16316122D01*
X46111752Y16346752D01*
X45951184Y16478527D01*
X45932458Y16488536D01*
X45916151Y16497252D01*
X45866764Y16523650D01*
X45767991Y16576447D01*
X45569222Y16636741D01*
X45569220Y16636742D01*
X45569218Y16636742D01*
X45362500Y16657102D01*
X45362498Y16657102D01*
X45323064Y16653218D01*
X45298267Y16652000D01*
X44914691Y16652000D01*
X44817872Y16671258D01*
X44735793Y16726102D01*
X44680949Y16808181D01*
X44661691Y16905000D01*
X44662909Y16929800D01*
X44665298Y16954062D01*
X44665300Y16954066D01*
X44680500Y17108392D01*
X44680500Y17736608D01*
X44665300Y17890934D01*
X44644765Y17958629D01*
X44605233Y18088952D01*
X44587181Y18122724D01*
X44507685Y18271450D01*
X44427576Y18369064D01*
X44376410Y18431411D01*
X44216450Y18562685D01*
X44033951Y18660234D01*
X43835936Y18720300D01*
X43687773Y18734893D01*
X43687768Y18734894D01*
X43681608Y18735500D01*
X42678392Y18735500D01*
X42672232Y18734894D01*
X42672226Y18734893D01*
X42524063Y18720300D01*
X42326048Y18660234D01*
X42143549Y18562685D01*
X42109117Y18534427D01*
X42022058Y18487894D01*
X41948617Y18477000D01*
X39076733Y18477000D01*
X39051936Y18478218D01*
X39012500Y18482102D01*
X38960697Y18477000D01*
X38805779Y18461742D01*
X38607010Y18401447D01*
X38423816Y18303527D01*
X38263246Y18171751D01*
X38238103Y18141115D01*
X38221434Y18122724D01*
X37804972Y17706262D01*
X37722893Y17651418D01*
X37717470Y17649245D01*
X37654289Y17624768D01*
X37562599Y17589247D01*
X37562598Y17589247D01*
X37562597Y17589246D01*
X37373437Y17472124D01*
X37209017Y17322235D01*
X37074944Y17144693D01*
X36975770Y16945528D01*
X36914884Y16731537D01*
X36894356Y16510000D01*
X36914884Y16288464D01*
X36975770Y16074473D01*
X37021124Y15983392D01*
X37074942Y15875311D01*
X37074943Y15875310D01*
X37074944Y15875308D01*
X37172916Y15745571D01*
X37209019Y15697764D01*
X37373438Y15547876D01*
X37562599Y15430753D01*
X37770060Y15350382D01*
X37988757Y15309500D01*
X38211243Y15309500D01*
X38429940Y15350382D01*
X38637401Y15430753D01*
X38826562Y15547876D01*
X38990981Y15697764D01*
X39125058Y15875311D01*
X39224229Y16074472D01*
X39233476Y16106974D01*
X39278492Y16194822D01*
X39297910Y16216624D01*
X39375186Y16293900D01*
X39457268Y16348743D01*
X39554084Y16368000D01*
X41445309Y16368000D01*
X41542128Y16348742D01*
X41624207Y16293898D01*
X41679051Y16211819D01*
X41698309Y16115000D01*
X41697091Y16090200D01*
X41694701Y16065938D01*
X41694700Y16065934D01*
X41679500Y15911608D01*
X41679500Y15283392D01*
X41680106Y15277232D01*
X41680107Y15277227D01*
X41694700Y15129064D01*
X41754766Y14931049D01*
X41852315Y14748550D01*
X41983589Y14588590D01*
X42083191Y14506850D01*
X42143550Y14457315D01*
X42298969Y14374241D01*
X42326048Y14359767D01*
X42477099Y14313947D01*
X42524066Y14299700D01*
X42678392Y14284500D01*
X42684593Y14284500D01*
X43675407Y14284500D01*
X43681608Y14284500D01*
X43835934Y14299700D01*
X44033954Y14359768D01*
X44150019Y14421807D01*
X44244485Y14450464D01*
X44342726Y14440788D01*
X44429785Y14394254D01*
X44492410Y14317947D01*
X44521067Y14223482D01*
X44521296Y14176710D01*
X44521935Y14186328D01*
X44521686Y14180719D01*
X44521190Y14175138D01*
X44521190Y14169538D01*
X44521190Y14169537D01*
X44521190Y14028085D01*
X44501932Y13931266D01*
X44447088Y13849187D01*
X43756466Y13158566D01*
X43738075Y13141897D01*
X43707439Y13116754D01*
X43604282Y12991055D01*
X43575662Y12956183D01*
X43477744Y12772993D01*
X43417448Y12574221D01*
X43397087Y12367495D01*
X43400971Y12328061D01*
X43402189Y12303268D01*
X43402190Y10939815D01*
X43382932Y10842996D01*
X43328088Y10760917D01*
X43246009Y10706074D01*
X43149190Y10686815D01*
X43052371Y10706073D01*
X42970292Y10760917D01*
X42947292Y10787348D01*
X42807670Y10972237D01*
X42643252Y11122124D01*
X42454090Y11239248D01*
X42288297Y11303477D01*
X42204973Y11356410D01*
X42200794Y11360494D01*
X41775292Y11785996D01*
X41720448Y11868075D01*
X41701190Y11964894D01*
X41701190Y12328061D01*
X41701190Y12751801D01*
X41685932Y12906718D01*
X41670073Y12958997D01*
X41625636Y13105490D01*
X41606176Y13141897D01*
X41527717Y13288683D01*
X41459663Y13371608D01*
X41395942Y13449253D01*
X41328002Y13505009D01*
X41309605Y13521683D01*
X40796063Y14035225D01*
X40779389Y14053622D01*
X40768971Y14066316D01*
X40754252Y14084252D01*
X40593683Y14216027D01*
X40484152Y14274573D01*
X40479439Y14277092D01*
X40410491Y14313947D01*
X40211722Y14374241D01*
X40211720Y14374242D01*
X40211718Y14374242D01*
X40005000Y14394602D01*
X40004998Y14394602D01*
X39965564Y14390718D01*
X39940767Y14389500D01*
X36736584Y14389500D01*
X36639765Y14408758D01*
X36557686Y14463602D01*
X33513602Y17507687D01*
X33458758Y17589766D01*
X33439500Y17686585D01*
X33439500Y17722714D01*
X33458758Y17819533D01*
X33513602Y17901612D01*
X33595681Y17956456D01*
X33692500Y17975714D01*
X33783894Y17958629D01*
X33911635Y17909142D01*
X33960060Y17890382D01*
X34178757Y17849500D01*
X34401243Y17849500D01*
X34619940Y17890382D01*
X34827401Y17970753D01*
X35016562Y18087876D01*
X35180981Y18237764D01*
X35315058Y18415311D01*
X35414229Y18614472D01*
X35423475Y18646970D01*
X35468493Y18734822D01*
X35487910Y18756623D01*
X37192686Y20461398D01*
X37274766Y20516242D01*
X37371585Y20535500D01*
X44385767Y20535500D01*
X44410564Y20534282D01*
X44416511Y20533697D01*
X44450000Y20530398D01*
X44656718Y20550758D01*
X44855493Y20611055D01*
X45038683Y20708973D01*
X45057288Y20724242D01*
X45199252Y20840748D01*
X45224397Y20871389D01*
X45241053Y20889767D01*
X47285028Y22933741D01*
X47367105Y22988583D01*
X47372482Y22990738D01*
X47527401Y23050753D01*
X47716562Y23167876D01*
X47880981Y23317764D01*
X48015058Y23495311D01*
X48114229Y23694472D01*
X48175115Y23908464D01*
X48195643Y24130000D01*
X48181996Y24277276D01*
X48175115Y24351537D01*
X48114229Y24565528D01*
X48088238Y24617725D01*
X48015058Y24764689D01*
X47979846Y24811317D01*
X47880982Y24942235D01*
X47823642Y24994507D01*
X47716562Y25092124D01*
X47592012Y25169242D01*
X47527403Y25209246D01*
X47527401Y25209247D01*
X47319940Y25289618D01*
X47319939Y25289619D01*
X47319937Y25289619D01*
X47101243Y25330500D01*
X46878757Y25330500D01*
X46660062Y25289619D01*
X46452596Y25209246D01*
X46263437Y25092124D01*
X46099017Y24942235D01*
X45964944Y24764693D01*
X45865770Y24565527D01*
X45856523Y24533027D01*
X45811502Y24445175D01*
X45792080Y24423370D01*
X44087314Y22718602D01*
X44005235Y22663759D01*
X43908416Y22644500D01*
X36894233Y22644500D01*
X36869436Y22645718D01*
X36830001Y22649602D01*
X36830000Y22649602D01*
X36790565Y22645718D01*
X36623278Y22629242D01*
X36562983Y22610951D01*
X36424506Y22568945D01*
X36241318Y22471029D01*
X36221187Y22454507D01*
X36123707Y22374507D01*
X36080745Y22339250D01*
X36055607Y22308620D01*
X36038938Y22290229D01*
X33994972Y20246262D01*
X33912893Y20191419D01*
X33907470Y20189245D01*
X33876212Y20177136D01*
X33783893Y20141371D01*
X33686658Y20124353D01*
X33590310Y20145842D01*
X33509519Y20202566D01*
X33456585Y20285890D01*
X33439500Y20377286D01*
X33439500Y22160768D01*
X33440718Y22185565D01*
X33441579Y22194309D01*
X33444602Y22225000D01*
X33424242Y22431718D01*
X33382615Y22568945D01*
X33363946Y22630491D01*
X33311161Y22729244D01*
X33266027Y22813683D01*
X33228016Y22860000D01*
X33196323Y22898618D01*
X33134253Y22974252D01*
X33103620Y22999391D01*
X33085222Y23016066D01*
X30338602Y25762686D01*
X30283758Y25844765D01*
X30264500Y25941584D01*
X30264500Y27304933D01*
X30283758Y27401752D01*
X30291024Y27417705D01*
X30316819Y27469509D01*
X30334229Y27504472D01*
X30395115Y27718464D01*
X30415643Y27940000D01*
X30403487Y28071182D01*
X30395115Y28161537D01*
X30334229Y28375528D01*
X30296344Y28451610D01*
X30235058Y28574689D01*
X30165958Y28666192D01*
X30100982Y28752235D01*
X30062538Y28787281D01*
X29936562Y28902124D01*
X29919237Y28917918D01*
X29921474Y28920373D01*
X29877676Y28961234D01*
X29836760Y29051071D01*
X29833339Y29149727D01*
X29867932Y29242183D01*
X29935273Y29314363D01*
X30025110Y29355279D01*
X30083039Y29362000D01*
X32291286Y29362000D01*
X32388105Y29342742D01*
X32470184Y29287898D01*
X32525028Y29205819D01*
X32544286Y29109000D01*
X32525028Y29012181D01*
X32514412Y28989736D01*
X32508788Y28979215D01*
X32508786Y28979212D01*
X32477382Y28920459D01*
X32411818Y28797799D01*
X32352109Y28600962D01*
X32338832Y28466153D01*
X32337000Y28447554D01*
X32337000Y27432446D01*
X32337606Y27426287D01*
X32337607Y27426279D01*
X32352109Y27279039D01*
X32411818Y27082202D01*
X32508787Y26900786D01*
X32639280Y26741781D01*
X32798285Y26611288D01*
X32798286Y26611288D01*
X32798288Y26611286D01*
X32975420Y26516607D01*
X32979701Y26514319D01*
X33095320Y26479247D01*
X33176541Y26454609D01*
X33329946Y26439500D01*
X33336148Y26439500D01*
X33913852Y26439500D01*
X33920054Y26439500D01*
X34073459Y26454609D01*
X34270301Y26514320D01*
X34451712Y26611286D01*
X34610719Y26741781D01*
X34652755Y26793003D01*
X34729062Y26855626D01*
X34823527Y26884282D01*
X34848326Y26885500D01*
X34911425Y26885500D01*
X35002819Y26868416D01*
X35022598Y26860754D01*
X35022599Y26860753D01*
X35230060Y26780382D01*
X35448757Y26739500D01*
X35671243Y26739500D01*
X35889940Y26780382D01*
X36097401Y26860753D01*
X36286562Y26977876D01*
X36450981Y27127764D01*
X36585058Y27305311D01*
X36603524Y27342397D01*
X36663919Y27420480D01*
X36749599Y27469509D01*
X36847519Y27482017D01*
X36942772Y27456100D01*
X37020856Y27395705D01*
X37056476Y27342396D01*
X37074943Y27305309D01*
X37194635Y27146811D01*
X37209019Y27127764D01*
X37373438Y26977876D01*
X37562599Y26860753D01*
X37770060Y26780382D01*
X37988757Y26739500D01*
X38211243Y26739500D01*
X38429940Y26780382D01*
X38637401Y26860753D01*
X38637402Y26860754D01*
X38657181Y26868416D01*
X38748575Y26885500D01*
X38852012Y26885500D01*
X38948831Y26866242D01*
X39030910Y26811398D01*
X39085751Y26729324D01*
X39097489Y26700986D01*
X39164846Y26538371D01*
X39226202Y26438248D01*
X39300588Y26316860D01*
X39469311Y26119311D01*
X39666860Y25950588D01*
X39802218Y25867641D01*
X39888368Y25814848D01*
X39888370Y25814848D01*
X39888372Y25814846D01*
X40128390Y25715427D01*
X40224257Y25692412D01*
X40381003Y25654779D01*
X40433836Y25650622D01*
X40640000Y25634396D01*
X40866016Y25652184D01*
X40898996Y25654779D01*
X41003493Y25679868D01*
X41151610Y25715427D01*
X41391628Y25814846D01*
X41613140Y25950588D01*
X41745697Y26063803D01*
X41831816Y26112032D01*
X41929847Y26123635D01*
X42024857Y26096840D01*
X42074305Y26063801D01*
X42206860Y25950588D01*
X42342218Y25867641D01*
X42428368Y25814848D01*
X42428370Y25814848D01*
X42428372Y25814846D01*
X42668390Y25715427D01*
X42764257Y25692412D01*
X42921003Y25654779D01*
X42973836Y25650622D01*
X43180000Y25634396D01*
X43406016Y25652184D01*
X43438996Y25654779D01*
X43543493Y25679868D01*
X43691610Y25715427D01*
X43931628Y25814846D01*
X44153140Y25950588D01*
X44350689Y26119311D01*
X44519412Y26316860D01*
X44655154Y26538372D01*
X44734247Y26729321D01*
X44789089Y26811397D01*
X44871168Y26866241D01*
X44967987Y26885500D01*
X45071425Y26885500D01*
X45162819Y26868416D01*
X45182598Y26860754D01*
X45182599Y26860753D01*
X45390060Y26780382D01*
X45608757Y26739500D01*
X45831243Y26739500D01*
X46049940Y26780382D01*
X46257401Y26860753D01*
X46446562Y26977876D01*
X46610981Y27127764D01*
X46745058Y27305311D01*
X46844229Y27504472D01*
X46905115Y27718464D01*
X46925643Y27940000D01*
X46913487Y28071182D01*
X46905115Y28161537D01*
X46844229Y28375528D01*
X46806344Y28451610D01*
X46745058Y28574689D01*
X46675958Y28666192D01*
X46610982Y28752235D01*
X46572538Y28787281D01*
X46446562Y28902124D01*
X46429237Y28917918D01*
X46431474Y28920373D01*
X46387676Y28961234D01*
X46346760Y29051071D01*
X46343339Y29149727D01*
X46377932Y29242183D01*
X46445273Y29314363D01*
X46535110Y29355279D01*
X46593039Y29362000D01*
X47692114Y29362000D01*
X47788933Y29342742D01*
X47871012Y29287898D01*
X50877897Y26281013D01*
X50932741Y26198934D01*
X50951999Y26102115D01*
X50951999Y24244454D01*
X50949633Y24216118D01*
X50951928Y24119758D01*
X50952000Y24113737D01*
X50952000Y24076749D01*
X50952571Y24070762D01*
X50952815Y24065643D01*
X50953482Y24054440D01*
X50954857Y23996671D01*
X50960191Y23972151D01*
X50964824Y23942438D01*
X50967209Y23917462D01*
X50967210Y23917456D01*
X50967211Y23917455D01*
X50983494Y23861996D01*
X50987955Y23844520D01*
X51000243Y23788034D01*
X51010118Y23764973D01*
X51020293Y23736670D01*
X51027364Y23712591D01*
X51053847Y23661220D01*
X51061542Y23644889D01*
X51084292Y23591763D01*
X51098354Y23570986D01*
X51113702Y23545117D01*
X51125200Y23522814D01*
X51160923Y23477389D01*
X51171573Y23462804D01*
X51203965Y23414945D01*
X51221703Y23397207D01*
X51241676Y23374704D01*
X51257184Y23354984D01*
X51300863Y23317136D01*
X51314081Y23304829D01*
X55008515Y19610394D01*
X55026881Y19588682D01*
X55031228Y19584537D01*
X55031229Y19584536D01*
X55046047Y19570407D01*
X55096664Y19522144D01*
X55100972Y19517937D01*
X55127109Y19491800D01*
X55131753Y19487966D01*
X55135583Y19484484D01*
X55143934Y19477072D01*
X55185755Y19437196D01*
X55206856Y19423635D01*
X55231151Y19405896D01*
X55250503Y19389918D01*
X55301216Y19362227D01*
X55316750Y19353010D01*
X55335835Y19340745D01*
X55365373Y19321762D01*
X55388659Y19312440D01*
X55415880Y19299615D01*
X55437898Y19287592D01*
X55457283Y19281396D01*
X55492947Y19269995D01*
X55509939Y19263888D01*
X55563590Y19242408D01*
X55577188Y19239788D01*
X55588223Y19237660D01*
X55617369Y19230222D01*
X55641272Y19222581D01*
X55641274Y19222581D01*
X55664285Y19215225D01*
X55662880Y19210832D01*
X55712284Y19194739D01*
X55787300Y19130573D01*
X55832052Y19042584D01*
X55841500Y18974089D01*
X55841500Y17722873D01*
X55841980Y17717381D01*
X55841981Y17717370D01*
X55856456Y17551915D01*
X55915716Y17330757D01*
X56012477Y17123250D01*
X56143801Y16935701D01*
X56305700Y16773802D01*
X56493249Y16642478D01*
X56493250Y16642478D01*
X56493251Y16642477D01*
X56700757Y16545716D01*
X56921913Y16486457D01*
X57150000Y16466502D01*
X57378087Y16486457D01*
X57599243Y16545716D01*
X57806749Y16642477D01*
X57994300Y16773802D01*
X58156198Y16935700D01*
X58287523Y17123251D01*
X58384284Y17330757D01*
X58443543Y17551913D01*
X58458500Y17722873D01*
X58458500Y19339186D01*
X58477758Y19436005D01*
X58492564Y19460707D01*
X58490939Y19461575D01*
X58549111Y19570407D01*
X58600232Y19666046D01*
X58660300Y19864066D01*
X58675500Y20018392D01*
X58675500Y20621608D01*
X58660300Y20775934D01*
X58618054Y20915203D01*
X58600233Y20973952D01*
X58598738Y20976749D01*
X58502685Y21156450D01*
X58440273Y21232500D01*
X58371410Y21316411D01*
X58211450Y21447685D01*
X58028951Y21545234D01*
X57830936Y21605300D01*
X57682773Y21619893D01*
X57682768Y21619894D01*
X57676608Y21620500D01*
X57670407Y21620500D01*
X57309611Y21620500D01*
X57287561Y21621463D01*
X57150000Y21633498D01*
X57012439Y21621463D01*
X56990389Y21620500D01*
X56623392Y21620500D01*
X56617232Y21619894D01*
X56617226Y21619893D01*
X56469064Y21605300D01*
X56389158Y21581061D01*
X56290917Y21571387D01*
X56196453Y21600044D01*
X56136821Y21644270D01*
X53262102Y24518989D01*
X53207258Y24601068D01*
X53188000Y24697887D01*
X53188000Y25633899D01*
X53207258Y25730718D01*
X53262102Y25812797D01*
X53344181Y25867641D01*
X53441000Y25886899D01*
X53537819Y25867641D01*
X53619898Y25812797D01*
X53634809Y25796524D01*
X53671904Y25752315D01*
X53681217Y25741217D01*
X53856609Y25594045D01*
X54042570Y25486681D01*
X54054894Y25479566D01*
X54270043Y25401257D01*
X54495518Y25361500D01*
X54495521Y25361500D01*
X54724482Y25361500D01*
X54949956Y25401257D01*
X55104989Y25457685D01*
X55165108Y25479567D01*
X55363391Y25594045D01*
X55494854Y25704356D01*
X56027895Y26237399D01*
X56109975Y26292242D01*
X56206794Y26311500D01*
X57092873Y26311500D01*
X64443206Y26311500D01*
X64540025Y26292242D01*
X64622104Y26237398D01*
X71007398Y19852104D01*
X71062242Y19770025D01*
X71081500Y19673206D01*
X71081500Y14373911D01*
X71062242Y14277092D01*
X71007398Y14195013D01*
X70960693Y14158194D01*
X70766862Y14039414D01*
X70569311Y13870689D01*
X70400588Y13673140D01*
X70264847Y13451632D01*
X70229132Y13365407D01*
X70171640Y13226608D01*
X70165425Y13211604D01*
X70104778Y12958997D01*
X70084396Y12700001D01*
X70104778Y12441004D01*
X70165425Y12188397D01*
X70165427Y12188390D01*
X70216509Y12065068D01*
X70264847Y11948369D01*
X70339677Y11826259D01*
X70400588Y11726860D01*
X70569311Y11529311D01*
X70766860Y11360588D01*
X70919498Y11267052D01*
X70988368Y11224848D01*
X70988370Y11224848D01*
X70988372Y11224846D01*
X71228390Y11125427D01*
X71324257Y11102412D01*
X71481003Y11064779D01*
X71523999Y11061396D01*
X71675147Y11049500D01*
X71680119Y11049500D01*
X73099881Y11049500D01*
X73104853Y11049500D01*
X73270331Y11062524D01*
X73298996Y11064779D01*
X73403493Y11089868D01*
X73551610Y11125427D01*
X73791628Y11224846D01*
X74013140Y11360588D01*
X74210689Y11529311D01*
X74379412Y11726860D01*
X74460782Y11859647D01*
X74527790Y11932134D01*
X74617438Y11973463D01*
X74716078Y11977338D01*
X74808692Y11943171D01*
X74881181Y11876163D01*
X74922510Y11786515D01*
X74929500Y11727453D01*
X74929500Y7724297D01*
X74910242Y7627478D01*
X74855398Y7545399D01*
X72525495Y5215497D01*
X72443416Y5160653D01*
X72346597Y5141395D01*
X72249778Y5160653D01*
X72188855Y5196591D01*
X72108858Y5260386D01*
X71947423Y5353590D01*
X71881643Y5391568D01*
X71637416Y5487420D01*
X71381630Y5545802D01*
X71381629Y5545803D01*
X71190196Y5560148D01*
X71190186Y5560149D01*
X71185494Y5560500D01*
X71054506Y5560500D01*
X71049814Y5560149D01*
X71049803Y5560148D01*
X70858369Y5545802D01*
X70725732Y5515528D01*
X70602584Y5487420D01*
X70358357Y5391568D01*
X70358355Y5391568D01*
X70358355Y5391567D01*
X70131144Y5260388D01*
X69971694Y5133230D01*
X69929838Y5099850D01*
X69926018Y5096804D01*
X69747564Y4904477D01*
X69599771Y4687705D01*
X69492973Y4465934D01*
X69485937Y4451323D01*
X69408604Y4200615D01*
X69369500Y3941182D01*
X69369500Y3678818D01*
X69408604Y3419385D01*
X69473978Y3207446D01*
X69485938Y3168675D01*
X69599771Y2932296D01*
X69742164Y2723445D01*
X69780792Y2632601D01*
X69781715Y2533890D01*
X69744793Y2442339D01*
X69712024Y2402027D01*
X67384602Y74603D01*
X67302523Y19760D01*
X67205704Y501D01*
X7724295Y501D01*
X7627476Y19759D01*
X7545397Y74603D01*
X5217974Y2402026D01*
X5163130Y2484105D01*
X5143872Y2580924D01*
X5163130Y2677743D01*
X5187828Y2723435D01*
X5330228Y2932296D01*
X5444063Y3168677D01*
X5521396Y3419385D01*
X5560500Y3678818D01*
X5560500Y3941182D01*
X5521396Y4200615D01*
X5444063Y4451323D01*
X5361756Y4622236D01*
X5330228Y4687705D01*
X5182435Y4904477D01*
X5158420Y4930359D01*
X5003981Y5096805D01*
X4819016Y5244310D01*
X4798855Y5260388D01*
X4584344Y5384235D01*
X4571643Y5391568D01*
X4327416Y5487420D01*
X4071630Y5545802D01*
X4071629Y5545802D01*
X3880196Y5560148D01*
X3880186Y5560149D01*
X3875494Y5560500D01*
X3744506Y5560500D01*
X3739814Y5560149D01*
X3739803Y5560148D01*
X3548369Y5545802D01*
X3415732Y5515528D01*
X3292584Y5487420D01*
X3048357Y5391568D01*
X3048355Y5391568D01*
X3048355Y5391567D01*
X2821145Y5260388D01*
X2741145Y5196590D01*
X2653441Y5151282D01*
X2555075Y5142985D01*
X2461021Y5172963D01*
X2404504Y5215496D01*
X74602Y7545399D01*
X19758Y7627478D01*
X500Y7724297D01*
X500Y24025705D01*
X19758Y24122524D01*
X74599Y24204600D01*
X2404509Y26534510D01*
X2486582Y26589349D01*
X2583401Y26608607D01*
X2680220Y26589349D01*
X2741144Y26553410D01*
X2821140Y26489615D01*
X2912822Y26436683D01*
X3048357Y26358432D01*
X3292584Y26262580D01*
X3548370Y26204198D01*
X3744506Y26189500D01*
X3749227Y26189500D01*
X3870773Y26189500D01*
X3875494Y26189500D01*
X4071630Y26204198D01*
X4327416Y26262580D01*
X4571643Y26358432D01*
X4798857Y26489614D01*
X5003981Y26653195D01*
X5182433Y26845521D01*
X5330228Y27062296D01*
X5444063Y27298677D01*
X5521396Y27549385D01*
X5560500Y27808818D01*
X5560500Y28071182D01*
X5521396Y28330615D01*
X5444063Y28581323D01*
X5349784Y28777096D01*
X5330228Y28817705D01*
X5187834Y29026558D01*
X5149206Y29117402D01*
X5148283Y29216113D01*
X5185205Y29307664D01*
X5217965Y29347966D01*
X7545397Y31675398D01*
X7627477Y31730242D01*
X7724296Y31749500D01*
X7964709Y31749500D01*
X8061528Y31730242D01*
G37*
G04 #@! TD.AperFunction*
M02*
