G04 #@! TF.GenerationSoftware,KiCad,Pcbnew,7.0.2-6a45011f42~172~ubuntu22.04.1*
G04 #@! TF.CreationDate,2023-04-28T22:36:36-05:00*
G04 #@! TF.ProjectId,laser,6c617365-722e-46b6-9963-61645f706362,rev?*
G04 #@! TF.SameCoordinates,PXc1c960PY791ddc0*
G04 #@! TF.FileFunction,Copper,L1,Top*
G04 #@! TF.FilePolarity,Positive*
%FSLAX46Y46*%
G04 Gerber Fmt 4.6, Leading zero omitted, Abs format (unit mm)*
G04 Created by KiCad (PCBNEW 7.0.2-6a45011f42~172~ubuntu22.04.1) date 2023-04-28 22:36:36*
%MOMM*%
%LPD*%
G01*
G04 APERTURE LIST*
G04 Aperture macros list*
%AMRoundRect*
0 Rectangle with rounded corners*
0 $1 Rounding radius*
0 $2 $3 $4 $5 $6 $7 $8 $9 X,Y pos of 4 corners*
0 Add a 4 corners polygon primitive as box body*
4,1,4,$2,$3,$4,$5,$6,$7,$8,$9,$2,$3,0*
0 Add four circle primitives for the rounded corners*
1,1,$1+$1,$2,$3*
1,1,$1+$1,$4,$5*
1,1,$1+$1,$6,$7*
1,1,$1+$1,$8,$9*
0 Add four rect primitives between the rounded corners*
20,1,$1+$1,$2,$3,$4,$5,0*
20,1,$1+$1,$4,$5,$6,$7,0*
20,1,$1+$1,$6,$7,$8,$9,0*
20,1,$1+$1,$8,$9,$2,$3,0*%
G04 Aperture macros list end*
G04 #@! TA.AperFunction,SMDPad,CuDef*
%ADD10RoundRect,0.243750X0.456250X-0.243750X0.456250X0.243750X-0.456250X0.243750X-0.456250X-0.243750X0*%
G04 #@! TD*
G04 #@! TA.AperFunction,ComponentPad*
%ADD11O,3.000000X1.700000*%
G04 #@! TD*
G04 #@! TA.AperFunction,SMDPad,CuDef*
%ADD12RoundRect,0.250000X-0.450000X0.262500X-0.450000X-0.262500X0.450000X-0.262500X0.450000X0.262500X0*%
G04 #@! TD*
G04 #@! TA.AperFunction,SMDPad,CuDef*
%ADD13RoundRect,0.250000X0.475000X-0.250000X0.475000X0.250000X-0.475000X0.250000X-0.475000X-0.250000X0*%
G04 #@! TD*
G04 #@! TA.AperFunction,SMDPad,CuDef*
%ADD14RoundRect,0.250000X0.450000X-0.262500X0.450000X0.262500X-0.450000X0.262500X-0.450000X-0.262500X0*%
G04 #@! TD*
G04 #@! TA.AperFunction,SMDPad,CuDef*
%ADD15RoundRect,0.243750X-0.243750X-0.456250X0.243750X-0.456250X0.243750X0.456250X-0.243750X0.456250X0*%
G04 #@! TD*
G04 #@! TA.AperFunction,SMDPad,CuDef*
%ADD16RoundRect,0.150000X-0.825000X-0.150000X0.825000X-0.150000X0.825000X0.150000X-0.825000X0.150000X0*%
G04 #@! TD*
G04 #@! TA.AperFunction,ComponentPad*
%ADD17R,1.600000X1.600000*%
G04 #@! TD*
G04 #@! TA.AperFunction,ComponentPad*
%ADD18C,1.600000*%
G04 #@! TD*
G04 #@! TA.AperFunction,ComponentPad*
%ADD19O,1.600000X1.600000*%
G04 #@! TD*
G04 #@! TA.AperFunction,SMDPad,CuDef*
%ADD20RoundRect,0.243750X0.243750X0.456250X-0.243750X0.456250X-0.243750X-0.456250X0.243750X-0.456250X0*%
G04 #@! TD*
G04 #@! TA.AperFunction,SMDPad,CuDef*
%ADD21RoundRect,0.250000X0.262500X0.450000X-0.262500X0.450000X-0.262500X-0.450000X0.262500X-0.450000X0*%
G04 #@! TD*
G04 #@! TA.AperFunction,SMDPad,CuDef*
%ADD22R,3.400000X1.000000*%
G04 #@! TD*
G04 #@! TA.AperFunction,SMDPad,CuDef*
%ADD23R,8.600000X10.700000*%
G04 #@! TD*
G04 #@! TA.AperFunction,SMDPad,CuDef*
%ADD24RoundRect,0.150000X-0.587500X-0.150000X0.587500X-0.150000X0.587500X0.150000X-0.587500X0.150000X0*%
G04 #@! TD*
G04 #@! TA.AperFunction,ComponentPad*
%ADD25O,1.700000X3.000000*%
G04 #@! TD*
G04 #@! TA.AperFunction,ViaPad*
%ADD26C,0.800000*%
G04 #@! TD*
G04 #@! TA.AperFunction,Conductor*
%ADD27C,0.508000*%
G04 #@! TD*
G04 #@! TA.AperFunction,Conductor*
%ADD28C,1.016000*%
G04 #@! TD*
G04 APERTURE END LIST*
D10*
X22860000Y20320000D03*
X22860000Y22195000D03*
D11*
X53346690Y5080000D03*
X53346690Y2540000D03*
D12*
X22502500Y15240000D03*
X22502500Y13415000D03*
D13*
X34290000Y21590000D03*
X34290000Y23490000D03*
D14*
X44456690Y5412500D03*
X44456690Y7237500D03*
D11*
X5715000Y10155000D03*
X5715000Y12695000D03*
D15*
X28272500Y16510000D03*
X30147500Y16510000D03*
D16*
X25465000Y9525000D03*
X25465000Y8255000D03*
X25465000Y6985000D03*
X25465000Y5715000D03*
X30415000Y5715000D03*
X30415000Y6985000D03*
X30415000Y8255000D03*
X30415000Y9525000D03*
D11*
X72390000Y10160000D03*
X72390000Y12700000D03*
D17*
X6310000Y20320000D03*
D18*
X3810000Y20320000D03*
D16*
X38165000Y22225000D03*
X38165000Y20955000D03*
X38165000Y19685000D03*
X38165000Y18415000D03*
X43115000Y18415000D03*
X43115000Y19685000D03*
X43115000Y20955000D03*
X43115000Y22225000D03*
D11*
X11430000Y27940000D03*
X11430000Y30480000D03*
D14*
X34290000Y14327500D03*
X34290000Y16152500D03*
D11*
X15240000Y27940000D03*
X15240000Y30480000D03*
D10*
X44456690Y1602500D03*
X44456690Y3477500D03*
D17*
X11430000Y19050000D03*
D19*
X11430000Y16510000D03*
X11430000Y13970000D03*
X11430000Y11430000D03*
X11430000Y8890000D03*
X11430000Y6350000D03*
X11430000Y3810000D03*
X19050000Y3810000D03*
X19050000Y6350000D03*
X19050000Y8890000D03*
X19050000Y11430000D03*
X19050000Y13970000D03*
X19050000Y16510000D03*
X19050000Y19050000D03*
D20*
X17115000Y24130000D03*
X15240000Y24130000D03*
D11*
X64770000Y5087566D03*
X64770000Y2547566D03*
X57156690Y5080000D03*
X57156690Y2540000D03*
X53346690Y12700000D03*
X53346690Y10160000D03*
D12*
X46990000Y22145000D03*
X46990000Y20320000D03*
D21*
X33600000Y27940000D03*
X31775000Y27940000D03*
D11*
X64776690Y12700000D03*
X64776690Y10160000D03*
X38100000Y11430000D03*
X38100000Y8890000D03*
D22*
X52900000Y22860000D03*
X52900000Y20320000D03*
X52900000Y17780000D03*
D23*
X63500000Y20320000D03*
D11*
X57156690Y12700000D03*
X57156690Y10160000D03*
D14*
X48266690Y5412500D03*
X48266690Y7237500D03*
D11*
X38100000Y6350000D03*
X38100000Y3810000D03*
X60966690Y5080000D03*
X60966690Y2540000D03*
D10*
X48266690Y1602500D03*
X48266690Y3477500D03*
D11*
X60966690Y12700000D03*
X60966690Y10160000D03*
D21*
X30122500Y19050000D03*
X28297500Y19050000D03*
D24*
X45726690Y15240000D03*
X45726690Y13340000D03*
X47601690Y14290000D03*
D25*
X43180000Y27940000D03*
X40640000Y27940000D03*
D26*
X42545000Y12700000D03*
X38100000Y24130000D03*
X64770000Y19050000D03*
X66040000Y24130000D03*
X19050000Y21590000D03*
X66040000Y16510000D03*
X62230000Y21590000D03*
X60960000Y24130000D03*
X34290000Y8890000D03*
X64770000Y21590000D03*
X62230000Y19050000D03*
X31750000Y13970000D03*
X63500000Y24130000D03*
X60960000Y16510000D03*
X63500000Y16510000D03*
X27940000Y21590000D03*
X57150000Y17780000D03*
X25400000Y12700000D03*
X20320000Y25400000D03*
X22860000Y7620000D03*
X12700000Y22860000D03*
X22860000Y25400000D03*
X22860000Y17780000D03*
X34290000Y3810000D03*
X22860000Y5080000D03*
X54610000Y26670000D03*
X22860000Y11430000D03*
X8890000Y24130000D03*
X41916690Y10160000D03*
X15240000Y21590000D03*
X46990000Y24130000D03*
X29210000Y27940000D03*
X46996690Y10160000D03*
X34290000Y19050000D03*
X34290000Y6350000D03*
X33020000Y11430000D03*
X38100000Y27940000D03*
X45720000Y27940000D03*
X49536690Y10160000D03*
X38100000Y16510000D03*
X35560000Y27940000D03*
D27*
X18082500Y24130000D02*
X17115000Y24130000D01*
X24765000Y16510000D02*
X28272500Y16510000D01*
D28*
X52900000Y20320000D02*
X63500000Y20320000D01*
D27*
X23495000Y15240000D02*
X24765000Y16510000D01*
X34610000Y24130000D02*
X38100000Y24130000D01*
X32385000Y8255000D02*
X33020000Y8890000D01*
X33020000Y8890000D02*
X34290000Y8890000D01*
X34290000Y23490000D02*
X34290000Y23810000D01*
X28272500Y14907500D02*
X29210000Y13970000D01*
X30415000Y8255000D02*
X32385000Y8255000D01*
X19050000Y21590000D02*
X19050000Y23162500D01*
X34290000Y23810000D02*
X34610000Y24130000D01*
X43180000Y13335000D02*
X42545000Y12700000D01*
X29210000Y13970000D02*
X31750000Y13970000D01*
X38165000Y24065000D02*
X38100000Y24130000D01*
X38100000Y22290000D02*
X38165000Y22225000D01*
X22502500Y15240000D02*
X23495000Y15240000D01*
X19050000Y23162500D02*
X18082500Y24130000D01*
X28272500Y16510000D02*
X28272500Y14907500D01*
X43180000Y13335000D02*
X45726690Y13340000D01*
X38100000Y24130000D02*
X38100000Y22290000D01*
X26670000Y12700000D02*
X27940000Y11430000D01*
X25400000Y12700000D02*
X26670000Y12700000D01*
X25400000Y26670000D02*
X25400000Y22860000D01*
X21590000Y27940000D02*
X24130000Y27940000D01*
X28575000Y6985000D02*
X30415000Y6985000D01*
X27940000Y7620000D02*
X28575000Y6985000D01*
X20320000Y25400000D02*
X20320000Y26670000D01*
D28*
X57150000Y17780000D02*
X52900000Y17780000D01*
D27*
X26670000Y21590000D02*
X27940000Y21590000D01*
X24130000Y27940000D02*
X25400000Y26670000D01*
X27940000Y21590000D02*
X27940000Y19407500D01*
X27940000Y19407500D02*
X28297500Y19050000D01*
X27940000Y11430000D02*
X27940000Y7620000D01*
X20320000Y26670000D02*
X21590000Y27940000D01*
X25400000Y22860000D02*
X26670000Y21590000D01*
X25465000Y6985000D02*
X23495000Y6985000D01*
X25465000Y8255000D02*
X23495000Y8255000D01*
X23495000Y6985000D02*
X22860000Y7620000D01*
X23495000Y8255000D02*
X22860000Y7620000D01*
X13970000Y24130000D02*
X15240000Y24130000D01*
X12700000Y22860000D02*
X13970000Y24130000D01*
X30147500Y16510000D02*
X30147500Y19025000D01*
X30147500Y19025000D02*
X30122500Y19050000D01*
X22860000Y25400000D02*
X22860000Y22195000D01*
X22860000Y17780000D02*
X22860000Y20320000D01*
X34290000Y3810000D02*
X27940000Y3810000D01*
X23495000Y5715000D02*
X25465000Y5715000D01*
X22860000Y5080000D02*
X23495000Y5715000D01*
X27940000Y3810000D02*
X26035000Y5715000D01*
X26035000Y5715000D02*
X25465000Y5715000D01*
D28*
X52900000Y22860000D02*
X52900000Y24960000D01*
X52900000Y24960000D02*
X54610000Y26670000D01*
D27*
X23495000Y9525000D02*
X22860000Y10160000D01*
X22860000Y13057500D02*
X22502500Y13415000D01*
X22860000Y10160000D02*
X22860000Y11430000D01*
X22860000Y11430000D02*
X22860000Y13057500D01*
X25465000Y9525000D02*
X23495000Y9525000D01*
X9525000Y23495000D02*
X10160000Y23495000D01*
X38165000Y18415000D02*
X34925000Y18415000D01*
X18542000Y29210000D02*
X17272000Y27940000D01*
X10795000Y20955000D02*
X14605000Y20955000D01*
X29210000Y27940000D02*
X26670000Y30480000D01*
X33020000Y19050000D02*
X34290000Y19050000D01*
X17272000Y27940000D02*
X16256000Y26924000D01*
X11430000Y25400000D02*
X10160000Y24130000D01*
X26670000Y30480000D02*
X22860000Y30480000D01*
X29210000Y27940000D02*
X31775000Y27940000D01*
X14224000Y26924000D02*
X12700000Y25400000D01*
X10160000Y23495000D02*
X10160000Y21590000D01*
X46990000Y24130000D02*
X46736000Y23876000D01*
X22860000Y30480000D02*
X21590000Y29210000D01*
X15240000Y27940000D02*
X17272000Y27940000D01*
X29210000Y24130000D02*
X31750000Y21590000D01*
X43115000Y22795000D02*
X43115000Y22225000D01*
X10160000Y24130000D02*
X10160000Y23495000D01*
X44456690Y7237500D02*
X48266690Y7237500D01*
X48266690Y7237500D02*
X46996690Y8507500D01*
X46990000Y24130000D02*
X46990000Y22145000D01*
X46736000Y23876000D02*
X44196000Y23876000D01*
X8890000Y24130000D02*
X9525000Y23495000D01*
X12700000Y25400000D02*
X11430000Y25400000D01*
X46996690Y10160000D02*
X41916690Y10160000D01*
X44196000Y23876000D02*
X43115000Y22795000D01*
X29210000Y27940000D02*
X29210000Y24130000D01*
X10160000Y21590000D02*
X10795000Y20955000D01*
X46996690Y8507500D02*
X46996690Y10160000D01*
X31750000Y21590000D02*
X31750000Y20320000D01*
X21590000Y29210000D02*
X18542000Y29210000D01*
X34925000Y18415000D02*
X34290000Y19050000D01*
X16256000Y26924000D02*
X14224000Y26924000D01*
X31750000Y20320000D02*
X33020000Y19050000D01*
X14605000Y20955000D02*
X15240000Y21590000D01*
X33655000Y5715000D02*
X34290000Y6350000D01*
X30415000Y5715000D02*
X33655000Y5715000D01*
X31115000Y9525000D02*
X33020000Y11430000D01*
X30415000Y9525000D02*
X31115000Y9525000D01*
X40640000Y21590000D02*
X40005000Y20955000D01*
X40640000Y25400000D02*
X40640000Y21590000D01*
X35245000Y20955000D02*
X34290000Y21590000D01*
X38165000Y20955000D02*
X35245000Y20955000D01*
X40005000Y20955000D02*
X38165000Y20955000D01*
X41275000Y19685000D02*
X40005000Y20955000D01*
X38100000Y27940000D02*
X40640000Y25400000D01*
X43115000Y19685000D02*
X41275000Y19685000D01*
X45720000Y20320000D02*
X46990000Y20320000D01*
X49530000Y21590000D02*
X48260000Y20320000D01*
X43115000Y20955000D02*
X45085000Y20955000D01*
X48260000Y20320000D02*
X46990000Y20320000D01*
X46990000Y27940000D02*
X49530000Y25400000D01*
X45085000Y20955000D02*
X45720000Y20320000D01*
X45720000Y27940000D02*
X46990000Y27940000D01*
X49530000Y25400000D02*
X49530000Y21590000D01*
X50806690Y2540000D02*
X49869190Y1602500D01*
X48266690Y1602500D02*
X44456690Y1602500D01*
X49536690Y13970000D02*
X49536690Y10160000D01*
X50806690Y8890000D02*
X50806690Y2540000D01*
X49536690Y10160000D02*
X50806690Y8890000D01*
X47601690Y14290000D02*
X49216690Y14290000D01*
X49216690Y14290000D02*
X49536690Y13970000D01*
X49869190Y1602500D02*
X48266690Y1602500D01*
X34647500Y13970000D02*
X40640000Y13970000D01*
X41910000Y15240000D02*
X45726690Y15240000D01*
X40640000Y13970000D02*
X41910000Y15240000D01*
X34290000Y14327500D02*
X34647500Y13970000D01*
X38100000Y16510000D02*
X39370000Y16510000D01*
X40640000Y19050000D02*
X40005000Y19685000D01*
X38100000Y16510000D02*
X37742500Y16152500D01*
X39370000Y16510000D02*
X40640000Y17780000D01*
X37742500Y16152500D02*
X34290000Y16152500D01*
X40640000Y17780000D02*
X40640000Y19050000D01*
X40005000Y19685000D02*
X38165000Y19685000D01*
X33600000Y27940000D02*
X35560000Y27940000D01*
X48266690Y5412500D02*
X48266690Y3477500D01*
X44456690Y3477500D02*
X44456690Y5412500D01*
M02*
