G04 #@! TF.GenerationSoftware,KiCad,Pcbnew,7.0.2-6a45011f42~172~ubuntu22.04.1*
G04 #@! TF.CreationDate,2023-04-28T22:36:37-05:00*
G04 #@! TF.ProjectId,laser,6c617365-722e-46b6-9963-61645f706362,rev?*
G04 #@! TF.SameCoordinates,PXc1c960PY791ddc0*
G04 #@! TF.FileFunction,AssemblyDrawing,Bot*
%FSLAX46Y46*%
G04 Gerber Fmt 4.6, Leading zero omitted, Abs format (unit mm)*
G04 Created by KiCad (PCBNEW 7.0.2-6a45011f42~172~ubuntu22.04.1) date 2023-04-28 22:36:37*
%MOMM*%
%LPD*%
G01*
G04 APERTURE LIST*
%ADD10C,0.150000*%
%ADD11C,0.080000*%
%ADD12C,0.050000*%
%ADD13C,0.100000*%
G04 APERTURE END LIST*
D10*
X23526666Y10967381D02*
X24098094Y10967381D01*
X23812380Y10967381D02*
X23812380Y11967381D01*
X23812380Y11967381D02*
X23907618Y11824524D01*
X23907618Y11824524D02*
X24002856Y11729286D01*
X24002856Y11729286D02*
X24098094Y11681667D01*
X22907618Y11967381D02*
X22812380Y11967381D01*
X22812380Y11967381D02*
X22717142Y11919762D01*
X22717142Y11919762D02*
X22669523Y11872143D01*
X22669523Y11872143D02*
X22621904Y11776905D01*
X22621904Y11776905D02*
X22574285Y11586429D01*
X22574285Y11586429D02*
X22574285Y11348334D01*
X22574285Y11348334D02*
X22621904Y11157858D01*
X22621904Y11157858D02*
X22669523Y11062620D01*
X22669523Y11062620D02*
X22717142Y11015000D01*
X22717142Y11015000D02*
X22812380Y10967381D01*
X22812380Y10967381D02*
X22907618Y10967381D01*
X22907618Y10967381D02*
X23002856Y11015000D01*
X23002856Y11015000D02*
X23050475Y11062620D01*
X23050475Y11062620D02*
X23098094Y11157858D01*
X23098094Y11157858D02*
X23145713Y11348334D01*
X23145713Y11348334D02*
X23145713Y11586429D01*
X23145713Y11586429D02*
X23098094Y11776905D01*
X23098094Y11776905D02*
X23050475Y11872143D01*
X23050475Y11872143D02*
X23002856Y11919762D01*
X23002856Y11919762D02*
X22907618Y11967381D01*
X21717142Y11634048D02*
X21717142Y10967381D01*
X21955237Y12015000D02*
X22193332Y11300715D01*
X22193332Y11300715D02*
X21574285Y11300715D01*
D11*
X16273333Y11246310D02*
X16297142Y11222500D01*
X16297142Y11222500D02*
X16368571Y11198691D01*
X16368571Y11198691D02*
X16416190Y11198691D01*
X16416190Y11198691D02*
X16487618Y11222500D01*
X16487618Y11222500D02*
X16535237Y11270120D01*
X16535237Y11270120D02*
X16559047Y11317739D01*
X16559047Y11317739D02*
X16582856Y11412977D01*
X16582856Y11412977D02*
X16582856Y11484405D01*
X16582856Y11484405D02*
X16559047Y11579643D01*
X16559047Y11579643D02*
X16535237Y11627262D01*
X16535237Y11627262D02*
X16487618Y11674881D01*
X16487618Y11674881D02*
X16416190Y11698691D01*
X16416190Y11698691D02*
X16368571Y11698691D01*
X16368571Y11698691D02*
X16297142Y11674881D01*
X16297142Y11674881D02*
X16273333Y11651072D01*
X16035237Y11198691D02*
X15939999Y11198691D01*
X15939999Y11198691D02*
X15892380Y11222500D01*
X15892380Y11222500D02*
X15868571Y11246310D01*
X15868571Y11246310D02*
X15820952Y11317739D01*
X15820952Y11317739D02*
X15797142Y11412977D01*
X15797142Y11412977D02*
X15797142Y11603453D01*
X15797142Y11603453D02*
X15820952Y11651072D01*
X15820952Y11651072D02*
X15844761Y11674881D01*
X15844761Y11674881D02*
X15892380Y11698691D01*
X15892380Y11698691D02*
X15987618Y11698691D01*
X15987618Y11698691D02*
X16035237Y11674881D01*
X16035237Y11674881D02*
X16059047Y11651072D01*
X16059047Y11651072D02*
X16082856Y11603453D01*
X16082856Y11603453D02*
X16082856Y11484405D01*
X16082856Y11484405D02*
X16059047Y11436786D01*
X16059047Y11436786D02*
X16035237Y11412977D01*
X16035237Y11412977D02*
X15987618Y11389167D01*
X15987618Y11389167D02*
X15892380Y11389167D01*
X15892380Y11389167D02*
X15844761Y11412977D01*
X15844761Y11412977D02*
X15820952Y11436786D01*
X15820952Y11436786D02*
X15797142Y11484405D01*
D10*
X51020499Y12012143D02*
X50972880Y12059762D01*
X50972880Y12059762D02*
X50877642Y12107381D01*
X50877642Y12107381D02*
X50639547Y12107381D01*
X50639547Y12107381D02*
X50544309Y12059762D01*
X50544309Y12059762D02*
X50496690Y12012143D01*
X50496690Y12012143D02*
X50449071Y11916905D01*
X50449071Y11916905D02*
X50449071Y11821667D01*
X50449071Y11821667D02*
X50496690Y11678810D01*
X50496690Y11678810D02*
X51068118Y11107381D01*
X51068118Y11107381D02*
X50449071Y11107381D01*
X50020499Y11107381D02*
X50020499Y12107381D01*
X50020499Y12107381D02*
X49639547Y12107381D01*
X49639547Y12107381D02*
X49544309Y12059762D01*
X49544309Y12059762D02*
X49496690Y12012143D01*
X49496690Y12012143D02*
X49449071Y11916905D01*
X49449071Y11916905D02*
X49449071Y11774048D01*
X49449071Y11774048D02*
X49496690Y11678810D01*
X49496690Y11678810D02*
X49544309Y11631191D01*
X49544309Y11631191D02*
X49639547Y11583572D01*
X49639547Y11583572D02*
X50020499Y11583572D01*
X48687166Y11631191D02*
X48544309Y11583572D01*
X48544309Y11583572D02*
X48496690Y11535953D01*
X48496690Y11535953D02*
X48449071Y11440715D01*
X48449071Y11440715D02*
X48449071Y11297858D01*
X48449071Y11297858D02*
X48496690Y11202620D01*
X48496690Y11202620D02*
X48544309Y11155000D01*
X48544309Y11155000D02*
X48639547Y11107381D01*
X48639547Y11107381D02*
X49020499Y11107381D01*
X49020499Y11107381D02*
X49020499Y12107381D01*
X49020499Y12107381D02*
X48687166Y12107381D01*
X48687166Y12107381D02*
X48591928Y12059762D01*
X48591928Y12059762D02*
X48544309Y12012143D01*
X48544309Y12012143D02*
X48496690Y11916905D01*
X48496690Y11916905D02*
X48496690Y11821667D01*
X48496690Y11821667D02*
X48544309Y11726429D01*
X48544309Y11726429D02*
X48591928Y11678810D01*
X48591928Y11678810D02*
X48687166Y11631191D01*
X48687166Y11631191D02*
X49020499Y11631191D01*
X48115737Y12107381D02*
X47449071Y12107381D01*
X47449071Y12107381D02*
X47877642Y11107381D01*
X46877642Y12107381D02*
X46782404Y12107381D01*
X46782404Y12107381D02*
X46687166Y12059762D01*
X46687166Y12059762D02*
X46639547Y12012143D01*
X46639547Y12012143D02*
X46591928Y11916905D01*
X46591928Y11916905D02*
X46544309Y11726429D01*
X46544309Y11726429D02*
X46544309Y11488334D01*
X46544309Y11488334D02*
X46591928Y11297858D01*
X46591928Y11297858D02*
X46639547Y11202620D01*
X46639547Y11202620D02*
X46687166Y11155000D01*
X46687166Y11155000D02*
X46782404Y11107381D01*
X46782404Y11107381D02*
X46877642Y11107381D01*
X46877642Y11107381D02*
X46972880Y11155000D01*
X46972880Y11155000D02*
X47020499Y11202620D01*
X47020499Y11202620D02*
X47068118Y11297858D01*
X47068118Y11297858D02*
X47115737Y11488334D01*
X47115737Y11488334D02*
X47115737Y11726429D01*
X47115737Y11726429D02*
X47068118Y11916905D01*
X47068118Y11916905D02*
X47020499Y12012143D01*
X47020499Y12012143D02*
X46972880Y12059762D01*
X46972880Y12059762D02*
X46877642Y12107381D01*
X46068118Y11107381D02*
X45877642Y11107381D01*
X45877642Y11107381D02*
X45782404Y11155000D01*
X45782404Y11155000D02*
X45734785Y11202620D01*
X45734785Y11202620D02*
X45639547Y11345477D01*
X45639547Y11345477D02*
X45591928Y11535953D01*
X45591928Y11535953D02*
X45591928Y11916905D01*
X45591928Y11916905D02*
X45639547Y12012143D01*
X45639547Y12012143D02*
X45687166Y12059762D01*
X45687166Y12059762D02*
X45782404Y12107381D01*
X45782404Y12107381D02*
X45972880Y12107381D01*
X45972880Y12107381D02*
X46068118Y12059762D01*
X46068118Y12059762D02*
X46115737Y12012143D01*
X46115737Y12012143D02*
X46163356Y11916905D01*
X46163356Y11916905D02*
X46163356Y11678810D01*
X46163356Y11678810D02*
X46115737Y11583572D01*
X46115737Y11583572D02*
X46068118Y11535953D01*
X46068118Y11535953D02*
X45972880Y11488334D01*
X45972880Y11488334D02*
X45782404Y11488334D01*
X45782404Y11488334D02*
X45687166Y11535953D01*
X45687166Y11535953D02*
X45639547Y11583572D01*
X45639547Y11583572D02*
X45591928Y11678810D01*
X45210975Y11393096D02*
X44734785Y11393096D01*
X45306213Y11107381D02*
X44972880Y12107381D01*
X44972880Y12107381D02*
X44639547Y11107381D01*
X44401451Y12107381D02*
X43734785Y11107381D01*
X43734785Y12107381D02*
X44401451Y11107381D01*
X42877642Y11107381D02*
X43353832Y11107381D01*
X43353832Y11107381D02*
X43353832Y12107381D01*
D12*
X47027166Y13791486D02*
X47057642Y13806724D01*
X47057642Y13806724D02*
X47088118Y13837200D01*
X47088118Y13837200D02*
X47133832Y13882915D01*
X47133832Y13882915D02*
X47164309Y13898153D01*
X47164309Y13898153D02*
X47194785Y13898153D01*
X47179547Y13821962D02*
X47210023Y13837200D01*
X47210023Y13837200D02*
X47240499Y13867677D01*
X47240499Y13867677D02*
X47255737Y13928629D01*
X47255737Y13928629D02*
X47255737Y14035296D01*
X47255737Y14035296D02*
X47240499Y14096248D01*
X47240499Y14096248D02*
X47210023Y14126724D01*
X47210023Y14126724D02*
X47179547Y14141962D01*
X47179547Y14141962D02*
X47118594Y14141962D01*
X47118594Y14141962D02*
X47088118Y14126724D01*
X47088118Y14126724D02*
X47057642Y14096248D01*
X47057642Y14096248D02*
X47042404Y14035296D01*
X47042404Y14035296D02*
X47042404Y13928629D01*
X47042404Y13928629D02*
X47057642Y13867677D01*
X47057642Y13867677D02*
X47088118Y13837200D01*
X47088118Y13837200D02*
X47118594Y13821962D01*
X47118594Y13821962D02*
X47179547Y13821962D01*
X46920499Y14111486D02*
X46905261Y14126724D01*
X46905261Y14126724D02*
X46874785Y14141962D01*
X46874785Y14141962D02*
X46798594Y14141962D01*
X46798594Y14141962D02*
X46768118Y14126724D01*
X46768118Y14126724D02*
X46752880Y14111486D01*
X46752880Y14111486D02*
X46737642Y14081010D01*
X46737642Y14081010D02*
X46737642Y14050534D01*
X46737642Y14050534D02*
X46752880Y14004820D01*
X46752880Y14004820D02*
X46935737Y13821962D01*
X46935737Y13821962D02*
X46737642Y13821962D01*
D10*
X3826071Y17984048D02*
X3826071Y17317381D01*
X4064166Y18365000D02*
X4302261Y17650715D01*
X4302261Y17650715D02*
X3683214Y17650715D01*
X3302261Y17412620D02*
X3254642Y17365000D01*
X3254642Y17365000D02*
X3302261Y17317381D01*
X3302261Y17317381D02*
X3349880Y17365000D01*
X3349880Y17365000D02*
X3302261Y17412620D01*
X3302261Y17412620D02*
X3302261Y17317381D01*
X2921309Y18317381D02*
X2254643Y18317381D01*
X2254643Y18317381D02*
X2683214Y17317381D01*
X1873690Y17317381D02*
X1873690Y18317381D01*
X1778452Y17698334D02*
X1492738Y17317381D01*
X1492738Y17984048D02*
X1873690Y17603096D01*
D11*
X6433333Y17548691D02*
X6599999Y17786786D01*
X6719047Y17548691D02*
X6719047Y18048691D01*
X6719047Y18048691D02*
X6528571Y18048691D01*
X6528571Y18048691D02*
X6480952Y18024881D01*
X6480952Y18024881D02*
X6457142Y18001072D01*
X6457142Y18001072D02*
X6433333Y17953453D01*
X6433333Y17953453D02*
X6433333Y17882024D01*
X6433333Y17882024D02*
X6457142Y17834405D01*
X6457142Y17834405D02*
X6480952Y17810596D01*
X6480952Y17810596D02*
X6528571Y17786786D01*
X6528571Y17786786D02*
X6719047Y17786786D01*
X6242856Y18001072D02*
X6219047Y18024881D01*
X6219047Y18024881D02*
X6171428Y18048691D01*
X6171428Y18048691D02*
X6052380Y18048691D01*
X6052380Y18048691D02*
X6004761Y18024881D01*
X6004761Y18024881D02*
X5980952Y18001072D01*
X5980952Y18001072D02*
X5957142Y17953453D01*
X5957142Y17953453D02*
X5957142Y17905834D01*
X5957142Y17905834D02*
X5980952Y17834405D01*
X5980952Y17834405D02*
X6266666Y17548691D01*
X6266666Y17548691D02*
X5957142Y17548691D01*
D10*
X58292619Y27955714D02*
X58292619Y27336667D01*
X58292619Y27336667D02*
X58673571Y27670000D01*
X58673571Y27670000D02*
X58673571Y27527143D01*
X58673571Y27527143D02*
X58721190Y27431905D01*
X58721190Y27431905D02*
X58768809Y27384286D01*
X58768809Y27384286D02*
X58864047Y27336667D01*
X58864047Y27336667D02*
X59102142Y27336667D01*
X59102142Y27336667D02*
X59197380Y27384286D01*
X59197380Y27384286D02*
X59245000Y27431905D01*
X59245000Y27431905D02*
X59292619Y27527143D01*
X59292619Y27527143D02*
X59292619Y27812857D01*
X59292619Y27812857D02*
X59245000Y27908095D01*
X59245000Y27908095D02*
X59197380Y27955714D01*
X58292619Y27003333D02*
X58292619Y26384286D01*
X58292619Y26384286D02*
X58673571Y26717619D01*
X58673571Y26717619D02*
X58673571Y26574762D01*
X58673571Y26574762D02*
X58721190Y26479524D01*
X58721190Y26479524D02*
X58768809Y26431905D01*
X58768809Y26431905D02*
X58864047Y26384286D01*
X58864047Y26384286D02*
X59102142Y26384286D01*
X59102142Y26384286D02*
X59197380Y26431905D01*
X59197380Y26431905D02*
X59245000Y26479524D01*
X59245000Y26479524D02*
X59292619Y26574762D01*
X59292619Y26574762D02*
X59292619Y26860476D01*
X59292619Y26860476D02*
X59245000Y26955714D01*
X59245000Y26955714D02*
X59197380Y27003333D01*
X58625952Y25527143D02*
X59292619Y25527143D01*
X58245000Y25765238D02*
X58959285Y26003333D01*
X58959285Y26003333D02*
X58959285Y25384286D01*
D11*
X57333690Y26753334D02*
X57357500Y26777143D01*
X57357500Y26777143D02*
X57381309Y26848572D01*
X57381309Y26848572D02*
X57381309Y26896191D01*
X57381309Y26896191D02*
X57357500Y26967619D01*
X57357500Y26967619D02*
X57309880Y27015238D01*
X57309880Y27015238D02*
X57262261Y27039048D01*
X57262261Y27039048D02*
X57167023Y27062857D01*
X57167023Y27062857D02*
X57095595Y27062857D01*
X57095595Y27062857D02*
X57000357Y27039048D01*
X57000357Y27039048D02*
X56952738Y27015238D01*
X56952738Y27015238D02*
X56905119Y26967619D01*
X56905119Y26967619D02*
X56881309Y26896191D01*
X56881309Y26896191D02*
X56881309Y26848572D01*
X56881309Y26848572D02*
X56905119Y26777143D01*
X56905119Y26777143D02*
X56928928Y26753334D01*
X57381309Y26277143D02*
X57381309Y26562857D01*
X57381309Y26420000D02*
X56881309Y26420000D01*
X56881309Y26420000D02*
X56952738Y26467619D01*
X56952738Y26467619D02*
X57000357Y26515238D01*
X57000357Y26515238D02*
X57024166Y26562857D01*
D10*
X29556666Y13917381D02*
X30128094Y13917381D01*
X29842380Y13917381D02*
X29842380Y14917381D01*
X29842380Y14917381D02*
X29937618Y14774524D01*
X29937618Y14774524D02*
X30032856Y14679286D01*
X30032856Y14679286D02*
X30128094Y14631667D01*
X28937618Y14917381D02*
X28842380Y14917381D01*
X28842380Y14917381D02*
X28747142Y14869762D01*
X28747142Y14869762D02*
X28699523Y14822143D01*
X28699523Y14822143D02*
X28651904Y14726905D01*
X28651904Y14726905D02*
X28604285Y14536429D01*
X28604285Y14536429D02*
X28604285Y14298334D01*
X28604285Y14298334D02*
X28651904Y14107858D01*
X28651904Y14107858D02*
X28699523Y14012620D01*
X28699523Y14012620D02*
X28747142Y13965000D01*
X28747142Y13965000D02*
X28842380Y13917381D01*
X28842380Y13917381D02*
X28937618Y13917381D01*
X28937618Y13917381D02*
X29032856Y13965000D01*
X29032856Y13965000D02*
X29080475Y14012620D01*
X29080475Y14012620D02*
X29128094Y14107858D01*
X29128094Y14107858D02*
X29175713Y14298334D01*
X29175713Y14298334D02*
X29175713Y14536429D01*
X29175713Y14536429D02*
X29128094Y14726905D01*
X29128094Y14726905D02*
X29080475Y14822143D01*
X29080475Y14822143D02*
X29032856Y14869762D01*
X29032856Y14869762D02*
X28937618Y14917381D01*
X27699523Y14917381D02*
X28175713Y14917381D01*
X28175713Y14917381D02*
X28223332Y14441191D01*
X28223332Y14441191D02*
X28175713Y14488810D01*
X28175713Y14488810D02*
X28080475Y14536429D01*
X28080475Y14536429D02*
X27842380Y14536429D01*
X27842380Y14536429D02*
X27747142Y14488810D01*
X27747142Y14488810D02*
X27699523Y14441191D01*
X27699523Y14441191D02*
X27651904Y14345953D01*
X27651904Y14345953D02*
X27651904Y14107858D01*
X27651904Y14107858D02*
X27699523Y14012620D01*
X27699523Y14012620D02*
X27747142Y13965000D01*
X27747142Y13965000D02*
X27842380Y13917381D01*
X27842380Y13917381D02*
X28080475Y13917381D01*
X28080475Y13917381D02*
X28175713Y13965000D01*
X28175713Y13965000D02*
X28223332Y14012620D01*
D11*
X29211428Y12516310D02*
X29235237Y12492500D01*
X29235237Y12492500D02*
X29306666Y12468691D01*
X29306666Y12468691D02*
X29354285Y12468691D01*
X29354285Y12468691D02*
X29425713Y12492500D01*
X29425713Y12492500D02*
X29473332Y12540120D01*
X29473332Y12540120D02*
X29497142Y12587739D01*
X29497142Y12587739D02*
X29520951Y12682977D01*
X29520951Y12682977D02*
X29520951Y12754405D01*
X29520951Y12754405D02*
X29497142Y12849643D01*
X29497142Y12849643D02*
X29473332Y12897262D01*
X29473332Y12897262D02*
X29425713Y12944881D01*
X29425713Y12944881D02*
X29354285Y12968691D01*
X29354285Y12968691D02*
X29306666Y12968691D01*
X29306666Y12968691D02*
X29235237Y12944881D01*
X29235237Y12944881D02*
X29211428Y12921072D01*
X28735237Y12468691D02*
X29020951Y12468691D01*
X28878094Y12468691D02*
X28878094Y12968691D01*
X28878094Y12968691D02*
X28925713Y12897262D01*
X28925713Y12897262D02*
X28973332Y12849643D01*
X28973332Y12849643D02*
X29020951Y12825834D01*
X28544761Y12921072D02*
X28520952Y12944881D01*
X28520952Y12944881D02*
X28473333Y12968691D01*
X28473333Y12968691D02*
X28354285Y12968691D01*
X28354285Y12968691D02*
X28306666Y12944881D01*
X28306666Y12944881D02*
X28282857Y12921072D01*
X28282857Y12921072D02*
X28259047Y12873453D01*
X28259047Y12873453D02*
X28259047Y12825834D01*
X28259047Y12825834D02*
X28282857Y12754405D01*
X28282857Y12754405D02*
X28568571Y12468691D01*
X28568571Y12468691D02*
X28259047Y12468691D01*
D10*
X16747738Y1697381D02*
X17319166Y1697381D01*
X17033452Y1697381D02*
X17033452Y2697381D01*
X17033452Y2697381D02*
X17128690Y2554524D01*
X17128690Y2554524D02*
X17223928Y2459286D01*
X17223928Y2459286D02*
X17319166Y2411667D01*
X16128690Y2697381D02*
X16033452Y2697381D01*
X16033452Y2697381D02*
X15938214Y2649762D01*
X15938214Y2649762D02*
X15890595Y2602143D01*
X15890595Y2602143D02*
X15842976Y2506905D01*
X15842976Y2506905D02*
X15795357Y2316429D01*
X15795357Y2316429D02*
X15795357Y2078334D01*
X15795357Y2078334D02*
X15842976Y1887858D01*
X15842976Y1887858D02*
X15890595Y1792620D01*
X15890595Y1792620D02*
X15938214Y1745000D01*
X15938214Y1745000D02*
X16033452Y1697381D01*
X16033452Y1697381D02*
X16128690Y1697381D01*
X16128690Y1697381D02*
X16223928Y1745000D01*
X16223928Y1745000D02*
X16271547Y1792620D01*
X16271547Y1792620D02*
X16319166Y1887858D01*
X16319166Y1887858D02*
X16366785Y2078334D01*
X16366785Y2078334D02*
X16366785Y2316429D01*
X16366785Y2316429D02*
X16319166Y2506905D01*
X16319166Y2506905D02*
X16271547Y2602143D01*
X16271547Y2602143D02*
X16223928Y2649762D01*
X16223928Y2649762D02*
X16128690Y2697381D01*
X15366785Y1697381D02*
X15366785Y2697381D01*
X15271547Y2078334D02*
X14985833Y1697381D01*
X14985833Y2364048D02*
X15366785Y1983096D01*
D11*
X16473928Y3578691D02*
X16640594Y3816786D01*
X16759642Y3578691D02*
X16759642Y4078691D01*
X16759642Y4078691D02*
X16569166Y4078691D01*
X16569166Y4078691D02*
X16521547Y4054881D01*
X16521547Y4054881D02*
X16497737Y4031072D01*
X16497737Y4031072D02*
X16473928Y3983453D01*
X16473928Y3983453D02*
X16473928Y3912024D01*
X16473928Y3912024D02*
X16497737Y3864405D01*
X16497737Y3864405D02*
X16521547Y3840596D01*
X16521547Y3840596D02*
X16569166Y3816786D01*
X16569166Y3816786D02*
X16759642Y3816786D01*
X15997737Y3578691D02*
X16283451Y3578691D01*
X16140594Y3578691D02*
X16140594Y4078691D01*
X16140594Y4078691D02*
X16188213Y4007262D01*
X16188213Y4007262D02*
X16235832Y3959643D01*
X16235832Y3959643D02*
X16283451Y3935834D01*
X15521547Y3578691D02*
X15807261Y3578691D01*
X15664404Y3578691D02*
X15664404Y4078691D01*
X15664404Y4078691D02*
X15712023Y4007262D01*
X15712023Y4007262D02*
X15759642Y3959643D01*
X15759642Y3959643D02*
X15807261Y3935834D01*
D10*
X21672619Y21351548D02*
X21672619Y21922976D01*
X21672619Y21637262D02*
X20672619Y21637262D01*
X20672619Y21637262D02*
X20815476Y21732500D01*
X20815476Y21732500D02*
X20910714Y21827738D01*
X20910714Y21827738D02*
X20958333Y21922976D01*
X21672619Y20922976D02*
X20672619Y20922976D01*
X21291666Y20827738D02*
X21672619Y20542024D01*
X21005952Y20542024D02*
X21386904Y20922976D01*
D11*
X23091309Y21315834D02*
X22853214Y21482500D01*
X23091309Y21601548D02*
X22591309Y21601548D01*
X22591309Y21601548D02*
X22591309Y21411072D01*
X22591309Y21411072D02*
X22615119Y21363453D01*
X22615119Y21363453D02*
X22638928Y21339643D01*
X22638928Y21339643D02*
X22686547Y21315834D01*
X22686547Y21315834D02*
X22757976Y21315834D01*
X22757976Y21315834D02*
X22805595Y21339643D01*
X22805595Y21339643D02*
X22829404Y21363453D01*
X22829404Y21363453D02*
X22853214Y21411072D01*
X22853214Y21411072D02*
X22853214Y21601548D01*
X22757976Y20887262D02*
X23091309Y20887262D01*
X22567500Y21006310D02*
X22924642Y21125357D01*
X22924642Y21125357D02*
X22924642Y20815834D01*
D10*
X685952Y15176072D02*
X1352619Y15176072D01*
X305000Y15414167D02*
X1019285Y15652262D01*
X1019285Y15652262D02*
X1019285Y15033215D01*
X1257380Y14652262D02*
X1305000Y14604643D01*
X1305000Y14604643D02*
X1352619Y14652262D01*
X1352619Y14652262D02*
X1305000Y14699881D01*
X1305000Y14699881D02*
X1257380Y14652262D01*
X1257380Y14652262D02*
X1352619Y14652262D01*
X352619Y14271310D02*
X352619Y13604644D01*
X352619Y13604644D02*
X1352619Y14033215D01*
X1352619Y13223691D02*
X352619Y13223691D01*
X971666Y13128453D02*
X1352619Y12842739D01*
X685952Y12842739D02*
X1066904Y13223691D01*
D11*
X2771309Y14053334D02*
X2533214Y14220000D01*
X2771309Y14339048D02*
X2271309Y14339048D01*
X2271309Y14339048D02*
X2271309Y14148572D01*
X2271309Y14148572D02*
X2295119Y14100953D01*
X2295119Y14100953D02*
X2318928Y14077143D01*
X2318928Y14077143D02*
X2366547Y14053334D01*
X2366547Y14053334D02*
X2437976Y14053334D01*
X2437976Y14053334D02*
X2485595Y14077143D01*
X2485595Y14077143D02*
X2509404Y14100953D01*
X2509404Y14100953D02*
X2533214Y14148572D01*
X2533214Y14148572D02*
X2533214Y14339048D01*
X2271309Y13886667D02*
X2271309Y13577143D01*
X2271309Y13577143D02*
X2461785Y13743810D01*
X2461785Y13743810D02*
X2461785Y13672381D01*
X2461785Y13672381D02*
X2485595Y13624762D01*
X2485595Y13624762D02*
X2509404Y13600953D01*
X2509404Y13600953D02*
X2557023Y13577143D01*
X2557023Y13577143D02*
X2676071Y13577143D01*
X2676071Y13577143D02*
X2723690Y13600953D01*
X2723690Y13600953D02*
X2747500Y13624762D01*
X2747500Y13624762D02*
X2771309Y13672381D01*
X2771309Y13672381D02*
X2771309Y13815238D01*
X2771309Y13815238D02*
X2747500Y13862857D01*
X2747500Y13862857D02*
X2723690Y13886667D01*
D10*
X15586666Y20267381D02*
X16158094Y20267381D01*
X15872380Y20267381D02*
X15872380Y21267381D01*
X15872380Y21267381D02*
X15967618Y21124524D01*
X15967618Y21124524D02*
X16062856Y21029286D01*
X16062856Y21029286D02*
X16158094Y20981667D01*
X14967618Y21267381D02*
X14872380Y21267381D01*
X14872380Y21267381D02*
X14777142Y21219762D01*
X14777142Y21219762D02*
X14729523Y21172143D01*
X14729523Y21172143D02*
X14681904Y21076905D01*
X14681904Y21076905D02*
X14634285Y20886429D01*
X14634285Y20886429D02*
X14634285Y20648334D01*
X14634285Y20648334D02*
X14681904Y20457858D01*
X14681904Y20457858D02*
X14729523Y20362620D01*
X14729523Y20362620D02*
X14777142Y20315000D01*
X14777142Y20315000D02*
X14872380Y20267381D01*
X14872380Y20267381D02*
X14967618Y20267381D01*
X14967618Y20267381D02*
X15062856Y20315000D01*
X15062856Y20315000D02*
X15110475Y20362620D01*
X15110475Y20362620D02*
X15158094Y20457858D01*
X15158094Y20457858D02*
X15205713Y20648334D01*
X15205713Y20648334D02*
X15205713Y20886429D01*
X15205713Y20886429D02*
X15158094Y21076905D01*
X15158094Y21076905D02*
X15110475Y21172143D01*
X15110475Y21172143D02*
X15062856Y21219762D01*
X15062856Y21219762D02*
X14967618Y21267381D01*
X14253332Y21172143D02*
X14205713Y21219762D01*
X14205713Y21219762D02*
X14110475Y21267381D01*
X14110475Y21267381D02*
X13872380Y21267381D01*
X13872380Y21267381D02*
X13777142Y21219762D01*
X13777142Y21219762D02*
X13729523Y21172143D01*
X13729523Y21172143D02*
X13681904Y21076905D01*
X13681904Y21076905D02*
X13681904Y20981667D01*
X13681904Y20981667D02*
X13729523Y20838810D01*
X13729523Y20838810D02*
X14300951Y20267381D01*
X14300951Y20267381D02*
X13681904Y20267381D01*
D11*
X15003333Y18866310D02*
X15027142Y18842500D01*
X15027142Y18842500D02*
X15098571Y18818691D01*
X15098571Y18818691D02*
X15146190Y18818691D01*
X15146190Y18818691D02*
X15217618Y18842500D01*
X15217618Y18842500D02*
X15265237Y18890120D01*
X15265237Y18890120D02*
X15289047Y18937739D01*
X15289047Y18937739D02*
X15312856Y19032977D01*
X15312856Y19032977D02*
X15312856Y19104405D01*
X15312856Y19104405D02*
X15289047Y19199643D01*
X15289047Y19199643D02*
X15265237Y19247262D01*
X15265237Y19247262D02*
X15217618Y19294881D01*
X15217618Y19294881D02*
X15146190Y19318691D01*
X15146190Y19318691D02*
X15098571Y19318691D01*
X15098571Y19318691D02*
X15027142Y19294881D01*
X15027142Y19294881D02*
X15003333Y19271072D01*
X14836666Y19318691D02*
X14503333Y19318691D01*
X14503333Y19318691D02*
X14717618Y18818691D01*
D10*
X26883809Y32052143D02*
X26836190Y32099762D01*
X26836190Y32099762D02*
X26740952Y32147381D01*
X26740952Y32147381D02*
X26502857Y32147381D01*
X26502857Y32147381D02*
X26407619Y32099762D01*
X26407619Y32099762D02*
X26360000Y32052143D01*
X26360000Y32052143D02*
X26312381Y31956905D01*
X26312381Y31956905D02*
X26312381Y31861667D01*
X26312381Y31861667D02*
X26360000Y31718810D01*
X26360000Y31718810D02*
X26931428Y31147381D01*
X26931428Y31147381D02*
X26312381Y31147381D01*
X25883809Y31147381D02*
X25883809Y32147381D01*
X25883809Y32147381D02*
X25502857Y32147381D01*
X25502857Y32147381D02*
X25407619Y32099762D01*
X25407619Y32099762D02*
X25360000Y32052143D01*
X25360000Y32052143D02*
X25312381Y31956905D01*
X25312381Y31956905D02*
X25312381Y31814048D01*
X25312381Y31814048D02*
X25360000Y31718810D01*
X25360000Y31718810D02*
X25407619Y31671191D01*
X25407619Y31671191D02*
X25502857Y31623572D01*
X25502857Y31623572D02*
X25883809Y31623572D01*
X24550476Y31671191D02*
X24407619Y31623572D01*
X24407619Y31623572D02*
X24360000Y31575953D01*
X24360000Y31575953D02*
X24312381Y31480715D01*
X24312381Y31480715D02*
X24312381Y31337858D01*
X24312381Y31337858D02*
X24360000Y31242620D01*
X24360000Y31242620D02*
X24407619Y31195000D01*
X24407619Y31195000D02*
X24502857Y31147381D01*
X24502857Y31147381D02*
X24883809Y31147381D01*
X24883809Y31147381D02*
X24883809Y32147381D01*
X24883809Y32147381D02*
X24550476Y32147381D01*
X24550476Y32147381D02*
X24455238Y32099762D01*
X24455238Y32099762D02*
X24407619Y32052143D01*
X24407619Y32052143D02*
X24360000Y31956905D01*
X24360000Y31956905D02*
X24360000Y31861667D01*
X24360000Y31861667D02*
X24407619Y31766429D01*
X24407619Y31766429D02*
X24455238Y31718810D01*
X24455238Y31718810D02*
X24550476Y31671191D01*
X24550476Y31671191D02*
X24883809Y31671191D01*
X23979047Y32147381D02*
X23312381Y32147381D01*
X23312381Y32147381D02*
X23740952Y31147381D01*
X22740952Y32147381D02*
X22645714Y32147381D01*
X22645714Y32147381D02*
X22550476Y32099762D01*
X22550476Y32099762D02*
X22502857Y32052143D01*
X22502857Y32052143D02*
X22455238Y31956905D01*
X22455238Y31956905D02*
X22407619Y31766429D01*
X22407619Y31766429D02*
X22407619Y31528334D01*
X22407619Y31528334D02*
X22455238Y31337858D01*
X22455238Y31337858D02*
X22502857Y31242620D01*
X22502857Y31242620D02*
X22550476Y31195000D01*
X22550476Y31195000D02*
X22645714Y31147381D01*
X22645714Y31147381D02*
X22740952Y31147381D01*
X22740952Y31147381D02*
X22836190Y31195000D01*
X22836190Y31195000D02*
X22883809Y31242620D01*
X22883809Y31242620D02*
X22931428Y31337858D01*
X22931428Y31337858D02*
X22979047Y31528334D01*
X22979047Y31528334D02*
X22979047Y31766429D01*
X22979047Y31766429D02*
X22931428Y31956905D01*
X22931428Y31956905D02*
X22883809Y32052143D01*
X22883809Y32052143D02*
X22836190Y32099762D01*
X22836190Y32099762D02*
X22740952Y32147381D01*
X21931428Y31147381D02*
X21740952Y31147381D01*
X21740952Y31147381D02*
X21645714Y31195000D01*
X21645714Y31195000D02*
X21598095Y31242620D01*
X21598095Y31242620D02*
X21502857Y31385477D01*
X21502857Y31385477D02*
X21455238Y31575953D01*
X21455238Y31575953D02*
X21455238Y31956905D01*
X21455238Y31956905D02*
X21502857Y32052143D01*
X21502857Y32052143D02*
X21550476Y32099762D01*
X21550476Y32099762D02*
X21645714Y32147381D01*
X21645714Y32147381D02*
X21836190Y32147381D01*
X21836190Y32147381D02*
X21931428Y32099762D01*
X21931428Y32099762D02*
X21979047Y32052143D01*
X21979047Y32052143D02*
X22026666Y31956905D01*
X22026666Y31956905D02*
X22026666Y31718810D01*
X22026666Y31718810D02*
X21979047Y31623572D01*
X21979047Y31623572D02*
X21931428Y31575953D01*
X21931428Y31575953D02*
X21836190Y31528334D01*
X21836190Y31528334D02*
X21645714Y31528334D01*
X21645714Y31528334D02*
X21550476Y31575953D01*
X21550476Y31575953D02*
X21502857Y31623572D01*
X21502857Y31623572D02*
X21455238Y31718810D01*
X21074285Y31433096D02*
X20598095Y31433096D01*
X21169523Y31147381D02*
X20836190Y32147381D01*
X20836190Y32147381D02*
X20502857Y31147381D01*
X20264761Y32147381D02*
X19598095Y31147381D01*
X19598095Y32147381D02*
X20264761Y31147381D01*
X18740952Y31147381D02*
X19217142Y31147381D01*
X19217142Y31147381D02*
X19217142Y32147381D01*
D12*
X22890476Y29031486D02*
X22920952Y29046724D01*
X22920952Y29046724D02*
X22951428Y29077200D01*
X22951428Y29077200D02*
X22997142Y29122915D01*
X22997142Y29122915D02*
X23027619Y29138153D01*
X23027619Y29138153D02*
X23058095Y29138153D01*
X23042857Y29061962D02*
X23073333Y29077200D01*
X23073333Y29077200D02*
X23103809Y29107677D01*
X23103809Y29107677D02*
X23119047Y29168629D01*
X23119047Y29168629D02*
X23119047Y29275296D01*
X23119047Y29275296D02*
X23103809Y29336248D01*
X23103809Y29336248D02*
X23073333Y29366724D01*
X23073333Y29366724D02*
X23042857Y29381962D01*
X23042857Y29381962D02*
X22981904Y29381962D01*
X22981904Y29381962D02*
X22951428Y29366724D01*
X22951428Y29366724D02*
X22920952Y29336248D01*
X22920952Y29336248D02*
X22905714Y29275296D01*
X22905714Y29275296D02*
X22905714Y29168629D01*
X22905714Y29168629D02*
X22920952Y29107677D01*
X22920952Y29107677D02*
X22951428Y29077200D01*
X22951428Y29077200D02*
X22981904Y29061962D01*
X22981904Y29061962D02*
X23042857Y29061962D01*
X22600952Y29061962D02*
X22783809Y29061962D01*
X22692381Y29061962D02*
X22692381Y29381962D01*
X22692381Y29381962D02*
X22722857Y29336248D01*
X22722857Y29336248D02*
X22753333Y29305772D01*
X22753333Y29305772D02*
X22783809Y29290534D01*
D10*
X20121428Y29127381D02*
X20692856Y29127381D01*
X20407142Y29127381D02*
X20407142Y30127381D01*
X20407142Y30127381D02*
X20502380Y29984524D01*
X20502380Y29984524D02*
X20597618Y29889286D01*
X20597618Y29889286D02*
X20692856Y29841667D01*
X19502380Y30127381D02*
X19407142Y30127381D01*
X19407142Y30127381D02*
X19311904Y30079762D01*
X19311904Y30079762D02*
X19264285Y30032143D01*
X19264285Y30032143D02*
X19216666Y29936905D01*
X19216666Y29936905D02*
X19169047Y29746429D01*
X19169047Y29746429D02*
X19169047Y29508334D01*
X19169047Y29508334D02*
X19216666Y29317858D01*
X19216666Y29317858D02*
X19264285Y29222620D01*
X19264285Y29222620D02*
X19311904Y29175000D01*
X19311904Y29175000D02*
X19407142Y29127381D01*
X19407142Y29127381D02*
X19502380Y29127381D01*
X19502380Y29127381D02*
X19597618Y29175000D01*
X19597618Y29175000D02*
X19645237Y29222620D01*
X19645237Y29222620D02*
X19692856Y29317858D01*
X19692856Y29317858D02*
X19740475Y29508334D01*
X19740475Y29508334D02*
X19740475Y29746429D01*
X19740475Y29746429D02*
X19692856Y29936905D01*
X19692856Y29936905D02*
X19645237Y30032143D01*
X19645237Y30032143D02*
X19597618Y30079762D01*
X19597618Y30079762D02*
X19502380Y30127381D01*
X18549999Y30127381D02*
X18454761Y30127381D01*
X18454761Y30127381D02*
X18359523Y30079762D01*
X18359523Y30079762D02*
X18311904Y30032143D01*
X18311904Y30032143D02*
X18264285Y29936905D01*
X18264285Y29936905D02*
X18216666Y29746429D01*
X18216666Y29746429D02*
X18216666Y29508334D01*
X18216666Y29508334D02*
X18264285Y29317858D01*
X18264285Y29317858D02*
X18311904Y29222620D01*
X18311904Y29222620D02*
X18359523Y29175000D01*
X18359523Y29175000D02*
X18454761Y29127381D01*
X18454761Y29127381D02*
X18549999Y29127381D01*
X18549999Y29127381D02*
X18645237Y29175000D01*
X18645237Y29175000D02*
X18692856Y29222620D01*
X18692856Y29222620D02*
X18740475Y29317858D01*
X18740475Y29317858D02*
X18788094Y29508334D01*
X18788094Y29508334D02*
X18788094Y29746429D01*
X18788094Y29746429D02*
X18740475Y29936905D01*
X18740475Y29936905D02*
X18692856Y30032143D01*
X18692856Y30032143D02*
X18645237Y30079762D01*
X18645237Y30079762D02*
X18549999Y30127381D01*
X17788094Y29127381D02*
X17788094Y30127381D01*
X17692856Y29508334D02*
X17407142Y29127381D01*
X17407142Y29794048D02*
X17788094Y29413096D01*
D11*
X19133333Y27708691D02*
X19299999Y27946786D01*
X19419047Y27708691D02*
X19419047Y28208691D01*
X19419047Y28208691D02*
X19228571Y28208691D01*
X19228571Y28208691D02*
X19180952Y28184881D01*
X19180952Y28184881D02*
X19157142Y28161072D01*
X19157142Y28161072D02*
X19133333Y28113453D01*
X19133333Y28113453D02*
X19133333Y28042024D01*
X19133333Y28042024D02*
X19157142Y27994405D01*
X19157142Y27994405D02*
X19180952Y27970596D01*
X19180952Y27970596D02*
X19228571Y27946786D01*
X19228571Y27946786D02*
X19419047Y27946786D01*
X18966666Y28208691D02*
X18633333Y28208691D01*
X18633333Y28208691D02*
X18847618Y27708691D01*
D10*
X15586666Y15187381D02*
X16158094Y15187381D01*
X15872380Y15187381D02*
X15872380Y16187381D01*
X15872380Y16187381D02*
X15967618Y16044524D01*
X15967618Y16044524D02*
X16062856Y15949286D01*
X16062856Y15949286D02*
X16158094Y15901667D01*
X14967618Y16187381D02*
X14872380Y16187381D01*
X14872380Y16187381D02*
X14777142Y16139762D01*
X14777142Y16139762D02*
X14729523Y16092143D01*
X14729523Y16092143D02*
X14681904Y15996905D01*
X14681904Y15996905D02*
X14634285Y15806429D01*
X14634285Y15806429D02*
X14634285Y15568334D01*
X14634285Y15568334D02*
X14681904Y15377858D01*
X14681904Y15377858D02*
X14729523Y15282620D01*
X14729523Y15282620D02*
X14777142Y15235000D01*
X14777142Y15235000D02*
X14872380Y15187381D01*
X14872380Y15187381D02*
X14967618Y15187381D01*
X14967618Y15187381D02*
X15062856Y15235000D01*
X15062856Y15235000D02*
X15110475Y15282620D01*
X15110475Y15282620D02*
X15158094Y15377858D01*
X15158094Y15377858D02*
X15205713Y15568334D01*
X15205713Y15568334D02*
X15205713Y15806429D01*
X15205713Y15806429D02*
X15158094Y15996905D01*
X15158094Y15996905D02*
X15110475Y16092143D01*
X15110475Y16092143D02*
X15062856Y16139762D01*
X15062856Y16139762D02*
X14967618Y16187381D01*
X14253332Y16092143D02*
X14205713Y16139762D01*
X14205713Y16139762D02*
X14110475Y16187381D01*
X14110475Y16187381D02*
X13872380Y16187381D01*
X13872380Y16187381D02*
X13777142Y16139762D01*
X13777142Y16139762D02*
X13729523Y16092143D01*
X13729523Y16092143D02*
X13681904Y15996905D01*
X13681904Y15996905D02*
X13681904Y15901667D01*
X13681904Y15901667D02*
X13729523Y15758810D01*
X13729523Y15758810D02*
X14300951Y15187381D01*
X14300951Y15187381D02*
X13681904Y15187381D01*
D11*
X15003333Y13786310D02*
X15027142Y13762500D01*
X15027142Y13762500D02*
X15098571Y13738691D01*
X15098571Y13738691D02*
X15146190Y13738691D01*
X15146190Y13738691D02*
X15217618Y13762500D01*
X15217618Y13762500D02*
X15265237Y13810120D01*
X15265237Y13810120D02*
X15289047Y13857739D01*
X15289047Y13857739D02*
X15312856Y13952977D01*
X15312856Y13952977D02*
X15312856Y14024405D01*
X15312856Y14024405D02*
X15289047Y14119643D01*
X15289047Y14119643D02*
X15265237Y14167262D01*
X15265237Y14167262D02*
X15217618Y14214881D01*
X15217618Y14214881D02*
X15146190Y14238691D01*
X15146190Y14238691D02*
X15098571Y14238691D01*
X15098571Y14238691D02*
X15027142Y14214881D01*
X15027142Y14214881D02*
X15003333Y14191072D01*
X14574761Y14238691D02*
X14669999Y14238691D01*
X14669999Y14238691D02*
X14717618Y14214881D01*
X14717618Y14214881D02*
X14741428Y14191072D01*
X14741428Y14191072D02*
X14789047Y14119643D01*
X14789047Y14119643D02*
X14812856Y14024405D01*
X14812856Y14024405D02*
X14812856Y13833929D01*
X14812856Y13833929D02*
X14789047Y13786310D01*
X14789047Y13786310D02*
X14765237Y13762500D01*
X14765237Y13762500D02*
X14717618Y13738691D01*
X14717618Y13738691D02*
X14622380Y13738691D01*
X14622380Y13738691D02*
X14574761Y13762500D01*
X14574761Y13762500D02*
X14550952Y13786310D01*
X14550952Y13786310D02*
X14527142Y13833929D01*
X14527142Y13833929D02*
X14527142Y13952977D01*
X14527142Y13952977D02*
X14550952Y14000596D01*
X14550952Y14000596D02*
X14574761Y14024405D01*
X14574761Y14024405D02*
X14622380Y14048215D01*
X14622380Y14048215D02*
X14717618Y14048215D01*
X14717618Y14048215D02*
X14765237Y14024405D01*
X14765237Y14024405D02*
X14789047Y14000596D01*
X14789047Y14000596D02*
X14812856Y13952977D01*
D10*
X33758928Y29651191D02*
X33616071Y29603572D01*
X33616071Y29603572D02*
X33568452Y29555953D01*
X33568452Y29555953D02*
X33520833Y29460715D01*
X33520833Y29460715D02*
X33520833Y29317858D01*
X33520833Y29317858D02*
X33568452Y29222620D01*
X33568452Y29222620D02*
X33616071Y29175000D01*
X33616071Y29175000D02*
X33711309Y29127381D01*
X33711309Y29127381D02*
X34092261Y29127381D01*
X34092261Y29127381D02*
X34092261Y30127381D01*
X34092261Y30127381D02*
X33758928Y30127381D01*
X33758928Y30127381D02*
X33663690Y30079762D01*
X33663690Y30079762D02*
X33616071Y30032143D01*
X33616071Y30032143D02*
X33568452Y29936905D01*
X33568452Y29936905D02*
X33568452Y29841667D01*
X33568452Y29841667D02*
X33616071Y29746429D01*
X33616071Y29746429D02*
X33663690Y29698810D01*
X33663690Y29698810D02*
X33758928Y29651191D01*
X33758928Y29651191D02*
X34092261Y29651191D01*
X32949404Y29127381D02*
X33044642Y29175000D01*
X33044642Y29175000D02*
X33092261Y29270239D01*
X33092261Y29270239D02*
X33092261Y30127381D01*
X32139880Y29794048D02*
X32139880Y29127381D01*
X32568451Y29794048D02*
X32568451Y29270239D01*
X32568451Y29270239D02*
X32520832Y29175000D01*
X32520832Y29175000D02*
X32425594Y29127381D01*
X32425594Y29127381D02*
X32282737Y29127381D01*
X32282737Y29127381D02*
X32187499Y29175000D01*
X32187499Y29175000D02*
X32139880Y29222620D01*
X31282737Y29175000D02*
X31377975Y29127381D01*
X31377975Y29127381D02*
X31568451Y29127381D01*
X31568451Y29127381D02*
X31663689Y29175000D01*
X31663689Y29175000D02*
X31711308Y29270239D01*
X31711308Y29270239D02*
X31711308Y29651191D01*
X31711308Y29651191D02*
X31663689Y29746429D01*
X31663689Y29746429D02*
X31568451Y29794048D01*
X31568451Y29794048D02*
X31377975Y29794048D01*
X31377975Y29794048D02*
X31282737Y29746429D01*
X31282737Y29746429D02*
X31235118Y29651191D01*
X31235118Y29651191D02*
X31235118Y29555953D01*
X31235118Y29555953D02*
X31711308Y29460715D01*
D11*
X33687499Y27708691D02*
X33687499Y28208691D01*
X33687499Y28208691D02*
X33497023Y28208691D01*
X33497023Y28208691D02*
X33449404Y28184881D01*
X33449404Y28184881D02*
X33425594Y28161072D01*
X33425594Y28161072D02*
X33401785Y28113453D01*
X33401785Y28113453D02*
X33401785Y28042024D01*
X33401785Y28042024D02*
X33425594Y27994405D01*
X33425594Y27994405D02*
X33449404Y27970596D01*
X33449404Y27970596D02*
X33497023Y27946786D01*
X33497023Y27946786D02*
X33687499Y27946786D01*
X32949404Y27708691D02*
X33187499Y27708691D01*
X33187499Y27708691D02*
X33187499Y28208691D01*
X32806546Y27851548D02*
X32568451Y27851548D01*
X32854165Y27708691D02*
X32687499Y28208691D01*
X32687499Y28208691D02*
X32520832Y27708691D01*
X32258928Y27946786D02*
X32258928Y27708691D01*
X32425594Y28208691D02*
X32258928Y27946786D01*
X32258928Y27946786D02*
X32092261Y28208691D01*
X31949404Y28161072D02*
X31925595Y28184881D01*
X31925595Y28184881D02*
X31877976Y28208691D01*
X31877976Y28208691D02*
X31758928Y28208691D01*
X31758928Y28208691D02*
X31711309Y28184881D01*
X31711309Y28184881D02*
X31687500Y28161072D01*
X31687500Y28161072D02*
X31663690Y28113453D01*
X31663690Y28113453D02*
X31663690Y28065834D01*
X31663690Y28065834D02*
X31687500Y27994405D01*
X31687500Y27994405D02*
X31973214Y27708691D01*
X31973214Y27708691D02*
X31663690Y27708691D01*
D10*
X28286666Y8837381D02*
X28858094Y8837381D01*
X28572380Y8837381D02*
X28572380Y9837381D01*
X28572380Y9837381D02*
X28667618Y9694524D01*
X28667618Y9694524D02*
X28762856Y9599286D01*
X28762856Y9599286D02*
X28858094Y9551667D01*
X27667618Y9837381D02*
X27572380Y9837381D01*
X27572380Y9837381D02*
X27477142Y9789762D01*
X27477142Y9789762D02*
X27429523Y9742143D01*
X27429523Y9742143D02*
X27381904Y9646905D01*
X27381904Y9646905D02*
X27334285Y9456429D01*
X27334285Y9456429D02*
X27334285Y9218334D01*
X27334285Y9218334D02*
X27381904Y9027858D01*
X27381904Y9027858D02*
X27429523Y8932620D01*
X27429523Y8932620D02*
X27477142Y8885000D01*
X27477142Y8885000D02*
X27572380Y8837381D01*
X27572380Y8837381D02*
X27667618Y8837381D01*
X27667618Y8837381D02*
X27762856Y8885000D01*
X27762856Y8885000D02*
X27810475Y8932620D01*
X27810475Y8932620D02*
X27858094Y9027858D01*
X27858094Y9027858D02*
X27905713Y9218334D01*
X27905713Y9218334D02*
X27905713Y9456429D01*
X27905713Y9456429D02*
X27858094Y9646905D01*
X27858094Y9646905D02*
X27810475Y9742143D01*
X27810475Y9742143D02*
X27762856Y9789762D01*
X27762856Y9789762D02*
X27667618Y9837381D01*
X26429523Y9837381D02*
X26905713Y9837381D01*
X26905713Y9837381D02*
X26953332Y9361191D01*
X26953332Y9361191D02*
X26905713Y9408810D01*
X26905713Y9408810D02*
X26810475Y9456429D01*
X26810475Y9456429D02*
X26572380Y9456429D01*
X26572380Y9456429D02*
X26477142Y9408810D01*
X26477142Y9408810D02*
X26429523Y9361191D01*
X26429523Y9361191D02*
X26381904Y9265953D01*
X26381904Y9265953D02*
X26381904Y9027858D01*
X26381904Y9027858D02*
X26429523Y8932620D01*
X26429523Y8932620D02*
X26477142Y8885000D01*
X26477142Y8885000D02*
X26572380Y8837381D01*
X26572380Y8837381D02*
X26810475Y8837381D01*
X26810475Y8837381D02*
X26905713Y8885000D01*
X26905713Y8885000D02*
X26953332Y8932620D01*
D11*
X27941428Y7436310D02*
X27965237Y7412500D01*
X27965237Y7412500D02*
X28036666Y7388691D01*
X28036666Y7388691D02*
X28084285Y7388691D01*
X28084285Y7388691D02*
X28155713Y7412500D01*
X28155713Y7412500D02*
X28203332Y7460120D01*
X28203332Y7460120D02*
X28227142Y7507739D01*
X28227142Y7507739D02*
X28250951Y7602977D01*
X28250951Y7602977D02*
X28250951Y7674405D01*
X28250951Y7674405D02*
X28227142Y7769643D01*
X28227142Y7769643D02*
X28203332Y7817262D01*
X28203332Y7817262D02*
X28155713Y7864881D01*
X28155713Y7864881D02*
X28084285Y7888691D01*
X28084285Y7888691D02*
X28036666Y7888691D01*
X28036666Y7888691D02*
X27965237Y7864881D01*
X27965237Y7864881D02*
X27941428Y7841072D01*
X27465237Y7388691D02*
X27750951Y7388691D01*
X27608094Y7388691D02*
X27608094Y7888691D01*
X27608094Y7888691D02*
X27655713Y7817262D01*
X27655713Y7817262D02*
X27703332Y7769643D01*
X27703332Y7769643D02*
X27750951Y7745834D01*
X26989047Y7388691D02*
X27274761Y7388691D01*
X27131904Y7388691D02*
X27131904Y7888691D01*
X27131904Y7888691D02*
X27179523Y7817262D01*
X27179523Y7817262D02*
X27227142Y7769643D01*
X27227142Y7769643D02*
X27274761Y7745834D01*
D10*
X45292619Y17581429D02*
X45292619Y18152857D01*
X45292619Y17867143D02*
X44292619Y17867143D01*
X44292619Y17867143D02*
X44435476Y17962381D01*
X44435476Y17962381D02*
X44530714Y18057619D01*
X44530714Y18057619D02*
X44578333Y18152857D01*
X44292619Y16962381D02*
X44292619Y16867143D01*
X44292619Y16867143D02*
X44340238Y16771905D01*
X44340238Y16771905D02*
X44387857Y16724286D01*
X44387857Y16724286D02*
X44483095Y16676667D01*
X44483095Y16676667D02*
X44673571Y16629048D01*
X44673571Y16629048D02*
X44911666Y16629048D01*
X44911666Y16629048D02*
X45102142Y16676667D01*
X45102142Y16676667D02*
X45197380Y16724286D01*
X45197380Y16724286D02*
X45245000Y16771905D01*
X45245000Y16771905D02*
X45292619Y16867143D01*
X45292619Y16867143D02*
X45292619Y16962381D01*
X45292619Y16962381D02*
X45245000Y17057619D01*
X45245000Y17057619D02*
X45197380Y17105238D01*
X45197380Y17105238D02*
X45102142Y17152857D01*
X45102142Y17152857D02*
X44911666Y17200476D01*
X44911666Y17200476D02*
X44673571Y17200476D01*
X44673571Y17200476D02*
X44483095Y17152857D01*
X44483095Y17152857D02*
X44387857Y17105238D01*
X44387857Y17105238D02*
X44340238Y17057619D01*
X44340238Y17057619D02*
X44292619Y16962381D01*
X44292619Y16010000D02*
X44292619Y15914762D01*
X44292619Y15914762D02*
X44340238Y15819524D01*
X44340238Y15819524D02*
X44387857Y15771905D01*
X44387857Y15771905D02*
X44483095Y15724286D01*
X44483095Y15724286D02*
X44673571Y15676667D01*
X44673571Y15676667D02*
X44911666Y15676667D01*
X44911666Y15676667D02*
X45102142Y15724286D01*
X45102142Y15724286D02*
X45197380Y15771905D01*
X45197380Y15771905D02*
X45245000Y15819524D01*
X45245000Y15819524D02*
X45292619Y15914762D01*
X45292619Y15914762D02*
X45292619Y16010000D01*
X45292619Y16010000D02*
X45245000Y16105238D01*
X45245000Y16105238D02*
X45197380Y16152857D01*
X45197380Y16152857D02*
X45102142Y16200476D01*
X45102142Y16200476D02*
X44911666Y16248095D01*
X44911666Y16248095D02*
X44673571Y16248095D01*
X44673571Y16248095D02*
X44483095Y16200476D01*
X44483095Y16200476D02*
X44387857Y16152857D01*
X44387857Y16152857D02*
X44340238Y16105238D01*
X44340238Y16105238D02*
X44292619Y16010000D01*
X45292619Y15248095D02*
X44292619Y15248095D01*
X44911666Y15152857D02*
X45292619Y14867143D01*
X44625952Y14867143D02*
X45006904Y15248095D01*
D11*
X43411309Y16831429D02*
X43173214Y16998095D01*
X43411309Y17117143D02*
X42911309Y17117143D01*
X42911309Y17117143D02*
X42911309Y16926667D01*
X42911309Y16926667D02*
X42935119Y16879048D01*
X42935119Y16879048D02*
X42958928Y16855238D01*
X42958928Y16855238D02*
X43006547Y16831429D01*
X43006547Y16831429D02*
X43077976Y16831429D01*
X43077976Y16831429D02*
X43125595Y16855238D01*
X43125595Y16855238D02*
X43149404Y16879048D01*
X43149404Y16879048D02*
X43173214Y16926667D01*
X43173214Y16926667D02*
X43173214Y17117143D01*
X43411309Y16355238D02*
X43411309Y16640952D01*
X43411309Y16498095D02*
X42911309Y16498095D01*
X42911309Y16498095D02*
X42982738Y16545714D01*
X42982738Y16545714D02*
X43030357Y16593333D01*
X43030357Y16593333D02*
X43054166Y16640952D01*
X42911309Y16188572D02*
X42911309Y15879048D01*
X42911309Y15879048D02*
X43101785Y16045715D01*
X43101785Y16045715D02*
X43101785Y15974286D01*
X43101785Y15974286D02*
X43125595Y15926667D01*
X43125595Y15926667D02*
X43149404Y15902858D01*
X43149404Y15902858D02*
X43197023Y15879048D01*
X43197023Y15879048D02*
X43316071Y15879048D01*
X43316071Y15879048D02*
X43363690Y15902858D01*
X43363690Y15902858D02*
X43387500Y15926667D01*
X43387500Y15926667D02*
X43411309Y15974286D01*
X43411309Y15974286D02*
X43411309Y16117143D01*
X43411309Y16117143D02*
X43387500Y16164762D01*
X43387500Y16164762D02*
X43363690Y16188572D01*
D10*
X42568571Y1283572D02*
X42568571Y807381D01*
X42901904Y1807381D02*
X42568571Y1283572D01*
X42568571Y1283572D02*
X42235238Y1807381D01*
X41520952Y855000D02*
X41616190Y807381D01*
X41616190Y807381D02*
X41806666Y807381D01*
X41806666Y807381D02*
X41901904Y855000D01*
X41901904Y855000D02*
X41949523Y950239D01*
X41949523Y950239D02*
X41949523Y1331191D01*
X41949523Y1331191D02*
X41901904Y1426429D01*
X41901904Y1426429D02*
X41806666Y1474048D01*
X41806666Y1474048D02*
X41616190Y1474048D01*
X41616190Y1474048D02*
X41520952Y1426429D01*
X41520952Y1426429D02*
X41473333Y1331191D01*
X41473333Y1331191D02*
X41473333Y1235953D01*
X41473333Y1235953D02*
X41949523Y1140715D01*
X40901904Y807381D02*
X40997142Y855000D01*
X40997142Y855000D02*
X41044761Y950239D01*
X41044761Y950239D02*
X41044761Y1807381D01*
X40378094Y807381D02*
X40473332Y855000D01*
X40473332Y855000D02*
X40520951Y950239D01*
X40520951Y950239D02*
X40520951Y1807381D01*
X39854284Y807381D02*
X39949522Y855000D01*
X39949522Y855000D02*
X39997141Y902620D01*
X39997141Y902620D02*
X40044760Y997858D01*
X40044760Y997858D02*
X40044760Y1283572D01*
X40044760Y1283572D02*
X39997141Y1378810D01*
X39997141Y1378810D02*
X39949522Y1426429D01*
X39949522Y1426429D02*
X39854284Y1474048D01*
X39854284Y1474048D02*
X39711427Y1474048D01*
X39711427Y1474048D02*
X39616189Y1426429D01*
X39616189Y1426429D02*
X39568570Y1378810D01*
X39568570Y1378810D02*
X39520951Y1283572D01*
X39520951Y1283572D02*
X39520951Y997858D01*
X39520951Y997858D02*
X39568570Y902620D01*
X39568570Y902620D02*
X39616189Y855000D01*
X39616189Y855000D02*
X39711427Y807381D01*
X39711427Y807381D02*
X39854284Y807381D01*
X39187617Y1474048D02*
X38997141Y807381D01*
X38997141Y807381D02*
X38806665Y1283572D01*
X38806665Y1283572D02*
X38616189Y807381D01*
X38616189Y807381D02*
X38425713Y1474048D01*
D11*
X44687999Y3565000D02*
X44187999Y3565000D01*
X44187999Y3565000D02*
X44187999Y3374524D01*
X44187999Y3374524D02*
X44211809Y3326905D01*
X44211809Y3326905D02*
X44235618Y3303095D01*
X44235618Y3303095D02*
X44283237Y3279286D01*
X44283237Y3279286D02*
X44354666Y3279286D01*
X44354666Y3279286D02*
X44402285Y3303095D01*
X44402285Y3303095D02*
X44426094Y3326905D01*
X44426094Y3326905D02*
X44449904Y3374524D01*
X44449904Y3374524D02*
X44449904Y3565000D01*
X44687999Y2826905D02*
X44687999Y3065000D01*
X44687999Y3065000D02*
X44187999Y3065000D01*
X44545142Y2684047D02*
X44545142Y2445952D01*
X44687999Y2731666D02*
X44187999Y2565000D01*
X44187999Y2565000D02*
X44687999Y2398333D01*
X44449904Y2136429D02*
X44687999Y2136429D01*
X44187999Y2303095D02*
X44449904Y2136429D01*
X44449904Y2136429D02*
X44187999Y1969762D01*
X44187999Y1565001D02*
X44187999Y1803096D01*
X44187999Y1803096D02*
X44426094Y1826905D01*
X44426094Y1826905D02*
X44402285Y1803096D01*
X44402285Y1803096D02*
X44378475Y1755477D01*
X44378475Y1755477D02*
X44378475Y1636429D01*
X44378475Y1636429D02*
X44402285Y1588810D01*
X44402285Y1588810D02*
X44426094Y1565001D01*
X44426094Y1565001D02*
X44473713Y1541191D01*
X44473713Y1541191D02*
X44592761Y1541191D01*
X44592761Y1541191D02*
X44640380Y1565001D01*
X44640380Y1565001D02*
X44664190Y1588810D01*
X44664190Y1588810D02*
X44687999Y1636429D01*
X44687999Y1636429D02*
X44687999Y1755477D01*
X44687999Y1755477D02*
X44664190Y1803096D01*
X44664190Y1803096D02*
X44640380Y1826905D01*
D10*
X6780952Y6161905D02*
X7447619Y6161905D01*
X6400000Y6400000D02*
X7114285Y6638095D01*
X7114285Y6638095D02*
X7114285Y6019048D01*
X6447619Y5733333D02*
X6447619Y5066667D01*
X6447619Y5066667D02*
X7447619Y5495238D01*
X6447619Y4209524D02*
X6447619Y4685714D01*
X6447619Y4685714D02*
X6923809Y4733333D01*
X6923809Y4733333D02*
X6876190Y4685714D01*
X6876190Y4685714D02*
X6828571Y4590476D01*
X6828571Y4590476D02*
X6828571Y4352381D01*
X6828571Y4352381D02*
X6876190Y4257143D01*
X6876190Y4257143D02*
X6923809Y4209524D01*
X6923809Y4209524D02*
X7019047Y4161905D01*
X7019047Y4161905D02*
X7257142Y4161905D01*
X7257142Y4161905D02*
X7352380Y4209524D01*
X7352380Y4209524D02*
X7400000Y4257143D01*
X7400000Y4257143D02*
X7447619Y4352381D01*
X7447619Y4352381D02*
X7447619Y4590476D01*
X7447619Y4590476D02*
X7400000Y4685714D01*
X7400000Y4685714D02*
X7352380Y4733333D01*
D11*
X9073690Y5483334D02*
X9097500Y5507143D01*
X9097500Y5507143D02*
X9121309Y5578572D01*
X9121309Y5578572D02*
X9121309Y5626191D01*
X9121309Y5626191D02*
X9097500Y5697619D01*
X9097500Y5697619D02*
X9049880Y5745238D01*
X9049880Y5745238D02*
X9002261Y5769048D01*
X9002261Y5769048D02*
X8907023Y5792857D01*
X8907023Y5792857D02*
X8835595Y5792857D01*
X8835595Y5792857D02*
X8740357Y5769048D01*
X8740357Y5769048D02*
X8692738Y5745238D01*
X8692738Y5745238D02*
X8645119Y5697619D01*
X8645119Y5697619D02*
X8621309Y5626191D01*
X8621309Y5626191D02*
X8621309Y5578572D01*
X8621309Y5578572D02*
X8645119Y5507143D01*
X8645119Y5507143D02*
X8668928Y5483334D01*
X8835595Y5197619D02*
X8811785Y5245238D01*
X8811785Y5245238D02*
X8787976Y5269048D01*
X8787976Y5269048D02*
X8740357Y5292857D01*
X8740357Y5292857D02*
X8716547Y5292857D01*
X8716547Y5292857D02*
X8668928Y5269048D01*
X8668928Y5269048D02*
X8645119Y5245238D01*
X8645119Y5245238D02*
X8621309Y5197619D01*
X8621309Y5197619D02*
X8621309Y5102381D01*
X8621309Y5102381D02*
X8645119Y5054762D01*
X8645119Y5054762D02*
X8668928Y5030953D01*
X8668928Y5030953D02*
X8716547Y5007143D01*
X8716547Y5007143D02*
X8740357Y5007143D01*
X8740357Y5007143D02*
X8787976Y5030953D01*
X8787976Y5030953D02*
X8811785Y5054762D01*
X8811785Y5054762D02*
X8835595Y5102381D01*
X8835595Y5102381D02*
X8835595Y5197619D01*
X8835595Y5197619D02*
X8859404Y5245238D01*
X8859404Y5245238D02*
X8883214Y5269048D01*
X8883214Y5269048D02*
X8930833Y5292857D01*
X8930833Y5292857D02*
X9026071Y5292857D01*
X9026071Y5292857D02*
X9073690Y5269048D01*
X9073690Y5269048D02*
X9097500Y5245238D01*
X9097500Y5245238D02*
X9121309Y5197619D01*
X9121309Y5197619D02*
X9121309Y5102381D01*
X9121309Y5102381D02*
X9097500Y5054762D01*
X9097500Y5054762D02*
X9073690Y5030953D01*
X9073690Y5030953D02*
X9026071Y5007143D01*
X9026071Y5007143D02*
X8930833Y5007143D01*
X8930833Y5007143D02*
X8883214Y5030953D01*
X8883214Y5030953D02*
X8859404Y5054762D01*
X8859404Y5054762D02*
X8835595Y5102381D01*
D10*
X26757143Y16999762D02*
X26852381Y17047381D01*
X26852381Y17047381D02*
X26995238Y17047381D01*
X26995238Y17047381D02*
X27138095Y16999762D01*
X27138095Y16999762D02*
X27233333Y16904524D01*
X27233333Y16904524D02*
X27280952Y16809286D01*
X27280952Y16809286D02*
X27328571Y16618810D01*
X27328571Y16618810D02*
X27328571Y16475953D01*
X27328571Y16475953D02*
X27280952Y16285477D01*
X27280952Y16285477D02*
X27233333Y16190239D01*
X27233333Y16190239D02*
X27138095Y16095000D01*
X27138095Y16095000D02*
X26995238Y16047381D01*
X26995238Y16047381D02*
X26900000Y16047381D01*
X26900000Y16047381D02*
X26757143Y16095000D01*
X26757143Y16095000D02*
X26709524Y16142620D01*
X26709524Y16142620D02*
X26709524Y16475953D01*
X26709524Y16475953D02*
X26900000Y16475953D01*
X26280952Y16047381D02*
X26280952Y16714048D01*
X26280952Y16523572D02*
X26233333Y16618810D01*
X26233333Y16618810D02*
X26185714Y16666429D01*
X26185714Y16666429D02*
X26090476Y16714048D01*
X26090476Y16714048D02*
X25995238Y16714048D01*
X25280952Y16095000D02*
X25376190Y16047381D01*
X25376190Y16047381D02*
X25566666Y16047381D01*
X25566666Y16047381D02*
X25661904Y16095000D01*
X25661904Y16095000D02*
X25709523Y16190239D01*
X25709523Y16190239D02*
X25709523Y16571191D01*
X25709523Y16571191D02*
X25661904Y16666429D01*
X25661904Y16666429D02*
X25566666Y16714048D01*
X25566666Y16714048D02*
X25376190Y16714048D01*
X25376190Y16714048D02*
X25280952Y16666429D01*
X25280952Y16666429D02*
X25233333Y16571191D01*
X25233333Y16571191D02*
X25233333Y16475953D01*
X25233333Y16475953D02*
X25709523Y16380715D01*
X24423809Y16095000D02*
X24519047Y16047381D01*
X24519047Y16047381D02*
X24709523Y16047381D01*
X24709523Y16047381D02*
X24804761Y16095000D01*
X24804761Y16095000D02*
X24852380Y16190239D01*
X24852380Y16190239D02*
X24852380Y16571191D01*
X24852380Y16571191D02*
X24804761Y16666429D01*
X24804761Y16666429D02*
X24709523Y16714048D01*
X24709523Y16714048D02*
X24519047Y16714048D01*
X24519047Y16714048D02*
X24423809Y16666429D01*
X24423809Y16666429D02*
X24376190Y16571191D01*
X24376190Y16571191D02*
X24376190Y16475953D01*
X24376190Y16475953D02*
X24852380Y16380715D01*
X23947618Y16714048D02*
X23947618Y16047381D01*
X23947618Y16618810D02*
X23899999Y16666429D01*
X23899999Y16666429D02*
X23804761Y16714048D01*
X23804761Y16714048D02*
X23661904Y16714048D01*
X23661904Y16714048D02*
X23566666Y16666429D01*
X23566666Y16666429D02*
X23519047Y16571191D01*
X23519047Y16571191D02*
X23519047Y16047381D01*
D11*
X30114761Y16278691D02*
X30114761Y16778691D01*
X30114761Y16778691D02*
X29924285Y16778691D01*
X29924285Y16778691D02*
X29876666Y16754881D01*
X29876666Y16754881D02*
X29852856Y16731072D01*
X29852856Y16731072D02*
X29829047Y16683453D01*
X29829047Y16683453D02*
X29829047Y16612024D01*
X29829047Y16612024D02*
X29852856Y16564405D01*
X29852856Y16564405D02*
X29876666Y16540596D01*
X29876666Y16540596D02*
X29924285Y16516786D01*
X29924285Y16516786D02*
X30114761Y16516786D01*
X29662380Y16778691D02*
X29543332Y16278691D01*
X29543332Y16278691D02*
X29448094Y16635834D01*
X29448094Y16635834D02*
X29352856Y16278691D01*
X29352856Y16278691D02*
X29233809Y16778691D01*
X28757618Y16278691D02*
X28924284Y16516786D01*
X29043332Y16278691D02*
X29043332Y16778691D01*
X29043332Y16778691D02*
X28852856Y16778691D01*
X28852856Y16778691D02*
X28805237Y16754881D01*
X28805237Y16754881D02*
X28781427Y16731072D01*
X28781427Y16731072D02*
X28757618Y16683453D01*
X28757618Y16683453D02*
X28757618Y16612024D01*
X28757618Y16612024D02*
X28781427Y16564405D01*
X28781427Y16564405D02*
X28805237Y16540596D01*
X28805237Y16540596D02*
X28852856Y16516786D01*
X28852856Y16516786D02*
X29043332Y16516786D01*
X28567141Y16731072D02*
X28543332Y16754881D01*
X28543332Y16754881D02*
X28495713Y16778691D01*
X28495713Y16778691D02*
X28376665Y16778691D01*
X28376665Y16778691D02*
X28329046Y16754881D01*
X28329046Y16754881D02*
X28305237Y16731072D01*
X28305237Y16731072D02*
X28281427Y16683453D01*
X28281427Y16683453D02*
X28281427Y16635834D01*
X28281427Y16635834D02*
X28305237Y16564405D01*
X28305237Y16564405D02*
X28590951Y16278691D01*
X28590951Y16278691D02*
X28281427Y16278691D01*
D10*
X55932619Y21936667D02*
X55932619Y22508095D01*
X55932619Y22222381D02*
X54932619Y22222381D01*
X54932619Y22222381D02*
X55075476Y22317619D01*
X55075476Y22317619D02*
X55170714Y22412857D01*
X55170714Y22412857D02*
X55218333Y22508095D01*
X54932619Y21317619D02*
X54932619Y21222381D01*
X54932619Y21222381D02*
X54980238Y21127143D01*
X54980238Y21127143D02*
X55027857Y21079524D01*
X55027857Y21079524D02*
X55123095Y21031905D01*
X55123095Y21031905D02*
X55313571Y20984286D01*
X55313571Y20984286D02*
X55551666Y20984286D01*
X55551666Y20984286D02*
X55742142Y21031905D01*
X55742142Y21031905D02*
X55837380Y21079524D01*
X55837380Y21079524D02*
X55885000Y21127143D01*
X55885000Y21127143D02*
X55932619Y21222381D01*
X55932619Y21222381D02*
X55932619Y21317619D01*
X55932619Y21317619D02*
X55885000Y21412857D01*
X55885000Y21412857D02*
X55837380Y21460476D01*
X55837380Y21460476D02*
X55742142Y21508095D01*
X55742142Y21508095D02*
X55551666Y21555714D01*
X55551666Y21555714D02*
X55313571Y21555714D01*
X55313571Y21555714D02*
X55123095Y21508095D01*
X55123095Y21508095D02*
X55027857Y21460476D01*
X55027857Y21460476D02*
X54980238Y21412857D01*
X54980238Y21412857D02*
X54932619Y21317619D01*
X55265952Y20127143D02*
X55932619Y20127143D01*
X54885000Y20365238D02*
X55599285Y20603333D01*
X55599285Y20603333D02*
X55599285Y19984286D01*
D11*
X57333690Y21353334D02*
X57357500Y21377143D01*
X57357500Y21377143D02*
X57381309Y21448572D01*
X57381309Y21448572D02*
X57381309Y21496191D01*
X57381309Y21496191D02*
X57357500Y21567619D01*
X57357500Y21567619D02*
X57309880Y21615238D01*
X57309880Y21615238D02*
X57262261Y21639048D01*
X57262261Y21639048D02*
X57167023Y21662857D01*
X57167023Y21662857D02*
X57095595Y21662857D01*
X57095595Y21662857D02*
X57000357Y21639048D01*
X57000357Y21639048D02*
X56952738Y21615238D01*
X56952738Y21615238D02*
X56905119Y21567619D01*
X56905119Y21567619D02*
X56881309Y21496191D01*
X56881309Y21496191D02*
X56881309Y21448572D01*
X56881309Y21448572D02*
X56905119Y21377143D01*
X56905119Y21377143D02*
X56928928Y21353334D01*
X56928928Y21162857D02*
X56905119Y21139048D01*
X56905119Y21139048D02*
X56881309Y21091429D01*
X56881309Y21091429D02*
X56881309Y20972381D01*
X56881309Y20972381D02*
X56905119Y20924762D01*
X56905119Y20924762D02*
X56928928Y20900953D01*
X56928928Y20900953D02*
X56976547Y20877143D01*
X56976547Y20877143D02*
X57024166Y20877143D01*
X57024166Y20877143D02*
X57095595Y20900953D01*
X57095595Y20900953D02*
X57381309Y21186667D01*
X57381309Y21186667D02*
X57381309Y20877143D01*
D10*
X15586666Y17727381D02*
X16158094Y17727381D01*
X15872380Y17727381D02*
X15872380Y18727381D01*
X15872380Y18727381D02*
X15967618Y18584524D01*
X15967618Y18584524D02*
X16062856Y18489286D01*
X16062856Y18489286D02*
X16158094Y18441667D01*
X14967618Y18727381D02*
X14872380Y18727381D01*
X14872380Y18727381D02*
X14777142Y18679762D01*
X14777142Y18679762D02*
X14729523Y18632143D01*
X14729523Y18632143D02*
X14681904Y18536905D01*
X14681904Y18536905D02*
X14634285Y18346429D01*
X14634285Y18346429D02*
X14634285Y18108334D01*
X14634285Y18108334D02*
X14681904Y17917858D01*
X14681904Y17917858D02*
X14729523Y17822620D01*
X14729523Y17822620D02*
X14777142Y17775000D01*
X14777142Y17775000D02*
X14872380Y17727381D01*
X14872380Y17727381D02*
X14967618Y17727381D01*
X14967618Y17727381D02*
X15062856Y17775000D01*
X15062856Y17775000D02*
X15110475Y17822620D01*
X15110475Y17822620D02*
X15158094Y17917858D01*
X15158094Y17917858D02*
X15205713Y18108334D01*
X15205713Y18108334D02*
X15205713Y18346429D01*
X15205713Y18346429D02*
X15158094Y18536905D01*
X15158094Y18536905D02*
X15110475Y18632143D01*
X15110475Y18632143D02*
X15062856Y18679762D01*
X15062856Y18679762D02*
X14967618Y18727381D01*
X14253332Y18632143D02*
X14205713Y18679762D01*
X14205713Y18679762D02*
X14110475Y18727381D01*
X14110475Y18727381D02*
X13872380Y18727381D01*
X13872380Y18727381D02*
X13777142Y18679762D01*
X13777142Y18679762D02*
X13729523Y18632143D01*
X13729523Y18632143D02*
X13681904Y18536905D01*
X13681904Y18536905D02*
X13681904Y18441667D01*
X13681904Y18441667D02*
X13729523Y18298810D01*
X13729523Y18298810D02*
X14300951Y17727381D01*
X14300951Y17727381D02*
X13681904Y17727381D01*
D11*
X15241428Y16326310D02*
X15265237Y16302500D01*
X15265237Y16302500D02*
X15336666Y16278691D01*
X15336666Y16278691D02*
X15384285Y16278691D01*
X15384285Y16278691D02*
X15455713Y16302500D01*
X15455713Y16302500D02*
X15503332Y16350120D01*
X15503332Y16350120D02*
X15527142Y16397739D01*
X15527142Y16397739D02*
X15550951Y16492977D01*
X15550951Y16492977D02*
X15550951Y16564405D01*
X15550951Y16564405D02*
X15527142Y16659643D01*
X15527142Y16659643D02*
X15503332Y16707262D01*
X15503332Y16707262D02*
X15455713Y16754881D01*
X15455713Y16754881D02*
X15384285Y16778691D01*
X15384285Y16778691D02*
X15336666Y16778691D01*
X15336666Y16778691D02*
X15265237Y16754881D01*
X15265237Y16754881D02*
X15241428Y16731072D01*
X14765237Y16278691D02*
X15050951Y16278691D01*
X14908094Y16278691D02*
X14908094Y16778691D01*
X14908094Y16778691D02*
X14955713Y16707262D01*
X14955713Y16707262D02*
X15003332Y16659643D01*
X15003332Y16659643D02*
X15050951Y16635834D01*
X14336666Y16612024D02*
X14336666Y16278691D01*
X14455714Y16802500D02*
X14574761Y16445358D01*
X14574761Y16445358D02*
X14265238Y16445358D01*
D10*
X1322619Y10191667D02*
X1322619Y10763095D01*
X1322619Y10477381D02*
X322619Y10477381D01*
X322619Y10477381D02*
X465476Y10572619D01*
X465476Y10572619D02*
X560714Y10667857D01*
X560714Y10667857D02*
X608333Y10763095D01*
X322619Y9572619D02*
X322619Y9477381D01*
X322619Y9477381D02*
X370238Y9382143D01*
X370238Y9382143D02*
X417857Y9334524D01*
X417857Y9334524D02*
X513095Y9286905D01*
X513095Y9286905D02*
X703571Y9239286D01*
X703571Y9239286D02*
X941666Y9239286D01*
X941666Y9239286D02*
X1132142Y9286905D01*
X1132142Y9286905D02*
X1227380Y9334524D01*
X1227380Y9334524D02*
X1275000Y9382143D01*
X1275000Y9382143D02*
X1322619Y9477381D01*
X1322619Y9477381D02*
X1322619Y9572619D01*
X1322619Y9572619D02*
X1275000Y9667857D01*
X1275000Y9667857D02*
X1227380Y9715476D01*
X1227380Y9715476D02*
X1132142Y9763095D01*
X1132142Y9763095D02*
X941666Y9810714D01*
X941666Y9810714D02*
X703571Y9810714D01*
X703571Y9810714D02*
X513095Y9763095D01*
X513095Y9763095D02*
X417857Y9715476D01*
X417857Y9715476D02*
X370238Y9667857D01*
X370238Y9667857D02*
X322619Y9572619D01*
X655952Y8382143D02*
X1322619Y8382143D01*
X275000Y8620238D02*
X989285Y8858333D01*
X989285Y8858333D02*
X989285Y8239286D01*
D11*
X2723690Y10563334D02*
X2747500Y10587143D01*
X2747500Y10587143D02*
X2771309Y10658572D01*
X2771309Y10658572D02*
X2771309Y10706191D01*
X2771309Y10706191D02*
X2747500Y10777619D01*
X2747500Y10777619D02*
X2699880Y10825238D01*
X2699880Y10825238D02*
X2652261Y10849048D01*
X2652261Y10849048D02*
X2557023Y10872857D01*
X2557023Y10872857D02*
X2485595Y10872857D01*
X2485595Y10872857D02*
X2390357Y10849048D01*
X2390357Y10849048D02*
X2342738Y10825238D01*
X2342738Y10825238D02*
X2295119Y10777619D01*
X2295119Y10777619D02*
X2271309Y10706191D01*
X2271309Y10706191D02*
X2271309Y10658572D01*
X2271309Y10658572D02*
X2295119Y10587143D01*
X2295119Y10587143D02*
X2318928Y10563334D01*
X2271309Y10110953D02*
X2271309Y10349048D01*
X2271309Y10349048D02*
X2509404Y10372857D01*
X2509404Y10372857D02*
X2485595Y10349048D01*
X2485595Y10349048D02*
X2461785Y10301429D01*
X2461785Y10301429D02*
X2461785Y10182381D01*
X2461785Y10182381D02*
X2485595Y10134762D01*
X2485595Y10134762D02*
X2509404Y10110953D01*
X2509404Y10110953D02*
X2557023Y10087143D01*
X2557023Y10087143D02*
X2676071Y10087143D01*
X2676071Y10087143D02*
X2723690Y10110953D01*
X2723690Y10110953D02*
X2747500Y10134762D01*
X2747500Y10134762D02*
X2771309Y10182381D01*
X2771309Y10182381D02*
X2771309Y10301429D01*
X2771309Y10301429D02*
X2747500Y10349048D01*
X2747500Y10349048D02*
X2723690Y10372857D01*
D10*
X24780713Y6887381D02*
X24161666Y6887381D01*
X24161666Y6887381D02*
X24494999Y6506429D01*
X24494999Y6506429D02*
X24352142Y6506429D01*
X24352142Y6506429D02*
X24256904Y6458810D01*
X24256904Y6458810D02*
X24209285Y6411191D01*
X24209285Y6411191D02*
X24161666Y6315953D01*
X24161666Y6315953D02*
X24161666Y6077858D01*
X24161666Y6077858D02*
X24209285Y5982620D01*
X24209285Y5982620D02*
X24256904Y5935000D01*
X24256904Y5935000D02*
X24352142Y5887381D01*
X24352142Y5887381D02*
X24637856Y5887381D01*
X24637856Y5887381D02*
X24733094Y5935000D01*
X24733094Y5935000D02*
X24780713Y5982620D01*
X23685475Y5887381D02*
X23494999Y5887381D01*
X23494999Y5887381D02*
X23399761Y5935000D01*
X23399761Y5935000D02*
X23352142Y5982620D01*
X23352142Y5982620D02*
X23256904Y6125477D01*
X23256904Y6125477D02*
X23209285Y6315953D01*
X23209285Y6315953D02*
X23209285Y6696905D01*
X23209285Y6696905D02*
X23256904Y6792143D01*
X23256904Y6792143D02*
X23304523Y6839762D01*
X23304523Y6839762D02*
X23399761Y6887381D01*
X23399761Y6887381D02*
X23590237Y6887381D01*
X23590237Y6887381D02*
X23685475Y6839762D01*
X23685475Y6839762D02*
X23733094Y6792143D01*
X23733094Y6792143D02*
X23780713Y6696905D01*
X23780713Y6696905D02*
X23780713Y6458810D01*
X23780713Y6458810D02*
X23733094Y6363572D01*
X23733094Y6363572D02*
X23685475Y6315953D01*
X23685475Y6315953D02*
X23590237Y6268334D01*
X23590237Y6268334D02*
X23399761Y6268334D01*
X23399761Y6268334D02*
X23304523Y6315953D01*
X23304523Y6315953D02*
X23256904Y6363572D01*
X23256904Y6363572D02*
X23209285Y6458810D01*
X22352142Y6554048D02*
X22352142Y5887381D01*
X22590237Y6935000D02*
X22828332Y6220715D01*
X22828332Y6220715D02*
X22209285Y6220715D01*
D11*
X16511428Y6166310D02*
X16535237Y6142500D01*
X16535237Y6142500D02*
X16606666Y6118691D01*
X16606666Y6118691D02*
X16654285Y6118691D01*
X16654285Y6118691D02*
X16725713Y6142500D01*
X16725713Y6142500D02*
X16773332Y6190120D01*
X16773332Y6190120D02*
X16797142Y6237739D01*
X16797142Y6237739D02*
X16820951Y6332977D01*
X16820951Y6332977D02*
X16820951Y6404405D01*
X16820951Y6404405D02*
X16797142Y6499643D01*
X16797142Y6499643D02*
X16773332Y6547262D01*
X16773332Y6547262D02*
X16725713Y6594881D01*
X16725713Y6594881D02*
X16654285Y6618691D01*
X16654285Y6618691D02*
X16606666Y6618691D01*
X16606666Y6618691D02*
X16535237Y6594881D01*
X16535237Y6594881D02*
X16511428Y6571072D01*
X16035237Y6118691D02*
X16320951Y6118691D01*
X16178094Y6118691D02*
X16178094Y6618691D01*
X16178094Y6618691D02*
X16225713Y6547262D01*
X16225713Y6547262D02*
X16273332Y6499643D01*
X16273332Y6499643D02*
X16320951Y6475834D01*
X15725714Y6618691D02*
X15678095Y6618691D01*
X15678095Y6618691D02*
X15630476Y6594881D01*
X15630476Y6594881D02*
X15606666Y6571072D01*
X15606666Y6571072D02*
X15582857Y6523453D01*
X15582857Y6523453D02*
X15559047Y6428215D01*
X15559047Y6428215D02*
X15559047Y6309167D01*
X15559047Y6309167D02*
X15582857Y6213929D01*
X15582857Y6213929D02*
X15606666Y6166310D01*
X15606666Y6166310D02*
X15630476Y6142500D01*
X15630476Y6142500D02*
X15678095Y6118691D01*
X15678095Y6118691D02*
X15725714Y6118691D01*
X15725714Y6118691D02*
X15773333Y6142500D01*
X15773333Y6142500D02*
X15797142Y6166310D01*
X15797142Y6166310D02*
X15820952Y6213929D01*
X15820952Y6213929D02*
X15844761Y6309167D01*
X15844761Y6309167D02*
X15844761Y6428215D01*
X15844761Y6428215D02*
X15820952Y6523453D01*
X15820952Y6523453D02*
X15797142Y6571072D01*
X15797142Y6571072D02*
X15773333Y6594881D01*
X15773333Y6594881D02*
X15725714Y6618691D01*
D10*
X42364547Y8540476D02*
X42316928Y8492857D01*
X42316928Y8492857D02*
X42269309Y8397619D01*
X42269309Y8397619D02*
X42269309Y8159524D01*
X42269309Y8159524D02*
X42316928Y8064286D01*
X42316928Y8064286D02*
X42364547Y8016667D01*
X42364547Y8016667D02*
X42459785Y7969048D01*
X42459785Y7969048D02*
X42555023Y7969048D01*
X42555023Y7969048D02*
X42697880Y8016667D01*
X42697880Y8016667D02*
X43269309Y8588095D01*
X43269309Y8588095D02*
X43269309Y7969048D01*
X42269309Y7350000D02*
X42269309Y7254762D01*
X42269309Y7254762D02*
X42316928Y7159524D01*
X42316928Y7159524D02*
X42364547Y7111905D01*
X42364547Y7111905D02*
X42459785Y7064286D01*
X42459785Y7064286D02*
X42650261Y7016667D01*
X42650261Y7016667D02*
X42888356Y7016667D01*
X42888356Y7016667D02*
X43078832Y7064286D01*
X43078832Y7064286D02*
X43174070Y7111905D01*
X43174070Y7111905D02*
X43221690Y7159524D01*
X43221690Y7159524D02*
X43269309Y7254762D01*
X43269309Y7254762D02*
X43269309Y7350000D01*
X43269309Y7350000D02*
X43221690Y7445238D01*
X43221690Y7445238D02*
X43174070Y7492857D01*
X43174070Y7492857D02*
X43078832Y7540476D01*
X43078832Y7540476D02*
X42888356Y7588095D01*
X42888356Y7588095D02*
X42650261Y7588095D01*
X42650261Y7588095D02*
X42459785Y7540476D01*
X42459785Y7540476D02*
X42364547Y7492857D01*
X42364547Y7492857D02*
X42316928Y7445238D01*
X42316928Y7445238D02*
X42269309Y7350000D01*
X42269309Y6397619D02*
X42269309Y6302381D01*
X42269309Y6302381D02*
X42316928Y6207143D01*
X42316928Y6207143D02*
X42364547Y6159524D01*
X42364547Y6159524D02*
X42459785Y6111905D01*
X42459785Y6111905D02*
X42650261Y6064286D01*
X42650261Y6064286D02*
X42888356Y6064286D01*
X42888356Y6064286D02*
X43078832Y6111905D01*
X43078832Y6111905D02*
X43174070Y6159524D01*
X43174070Y6159524D02*
X43221690Y6207143D01*
X43221690Y6207143D02*
X43269309Y6302381D01*
X43269309Y6302381D02*
X43269309Y6397619D01*
X43269309Y6397619D02*
X43221690Y6492857D01*
X43221690Y6492857D02*
X43174070Y6540476D01*
X43174070Y6540476D02*
X43078832Y6588095D01*
X43078832Y6588095D02*
X42888356Y6635714D01*
X42888356Y6635714D02*
X42650261Y6635714D01*
X42650261Y6635714D02*
X42459785Y6588095D01*
X42459785Y6588095D02*
X42364547Y6540476D01*
X42364547Y6540476D02*
X42316928Y6492857D01*
X42316928Y6492857D02*
X42269309Y6397619D01*
X43269309Y4921428D02*
X43269309Y4683333D01*
X43269309Y4683333D02*
X43078832Y4683333D01*
X43078832Y4683333D02*
X43031213Y4778571D01*
X43031213Y4778571D02*
X42935975Y4873809D01*
X42935975Y4873809D02*
X42793118Y4921428D01*
X42793118Y4921428D02*
X42555023Y4921428D01*
X42555023Y4921428D02*
X42412166Y4873809D01*
X42412166Y4873809D02*
X42316928Y4778571D01*
X42316928Y4778571D02*
X42269309Y4635714D01*
X42269309Y4635714D02*
X42269309Y4445238D01*
X42269309Y4445238D02*
X42316928Y4302381D01*
X42316928Y4302381D02*
X42412166Y4207143D01*
X42412166Y4207143D02*
X42555023Y4159524D01*
X42555023Y4159524D02*
X42793118Y4159524D01*
X42793118Y4159524D02*
X42935975Y4207143D01*
X42935975Y4207143D02*
X43031213Y4302381D01*
X43031213Y4302381D02*
X43078832Y4397619D01*
X43078832Y4397619D02*
X43269309Y4397619D01*
X43269309Y4397619D02*
X43269309Y4159524D01*
D11*
X44687999Y6671429D02*
X44449904Y6838095D01*
X44687999Y6957143D02*
X44187999Y6957143D01*
X44187999Y6957143D02*
X44187999Y6766667D01*
X44187999Y6766667D02*
X44211809Y6719048D01*
X44211809Y6719048D02*
X44235618Y6695238D01*
X44235618Y6695238D02*
X44283237Y6671429D01*
X44283237Y6671429D02*
X44354666Y6671429D01*
X44354666Y6671429D02*
X44402285Y6695238D01*
X44402285Y6695238D02*
X44426094Y6719048D01*
X44426094Y6719048D02*
X44449904Y6766667D01*
X44449904Y6766667D02*
X44449904Y6957143D01*
X44687999Y6195238D02*
X44687999Y6480952D01*
X44687999Y6338095D02*
X44187999Y6338095D01*
X44187999Y6338095D02*
X44259428Y6385714D01*
X44259428Y6385714D02*
X44307047Y6433333D01*
X44307047Y6433333D02*
X44330856Y6480952D01*
X44402285Y5909524D02*
X44378475Y5957143D01*
X44378475Y5957143D02*
X44354666Y5980953D01*
X44354666Y5980953D02*
X44307047Y6004762D01*
X44307047Y6004762D02*
X44283237Y6004762D01*
X44283237Y6004762D02*
X44235618Y5980953D01*
X44235618Y5980953D02*
X44211809Y5957143D01*
X44211809Y5957143D02*
X44187999Y5909524D01*
X44187999Y5909524D02*
X44187999Y5814286D01*
X44187999Y5814286D02*
X44211809Y5766667D01*
X44211809Y5766667D02*
X44235618Y5742858D01*
X44235618Y5742858D02*
X44283237Y5719048D01*
X44283237Y5719048D02*
X44307047Y5719048D01*
X44307047Y5719048D02*
X44354666Y5742858D01*
X44354666Y5742858D02*
X44378475Y5766667D01*
X44378475Y5766667D02*
X44402285Y5814286D01*
X44402285Y5814286D02*
X44402285Y5909524D01*
X44402285Y5909524D02*
X44426094Y5957143D01*
X44426094Y5957143D02*
X44449904Y5980953D01*
X44449904Y5980953D02*
X44497523Y6004762D01*
X44497523Y6004762D02*
X44592761Y6004762D01*
X44592761Y6004762D02*
X44640380Y5980953D01*
X44640380Y5980953D02*
X44664190Y5957143D01*
X44664190Y5957143D02*
X44687999Y5909524D01*
X44687999Y5909524D02*
X44687999Y5814286D01*
X44687999Y5814286D02*
X44664190Y5766667D01*
X44664190Y5766667D02*
X44640380Y5742858D01*
X44640380Y5742858D02*
X44592761Y5719048D01*
X44592761Y5719048D02*
X44497523Y5719048D01*
X44497523Y5719048D02*
X44449904Y5742858D01*
X44449904Y5742858D02*
X44426094Y5766667D01*
X44426094Y5766667D02*
X44402285Y5814286D01*
D10*
X4484047Y24937381D02*
X5055475Y24937381D01*
X4769761Y24937381D02*
X4769761Y25937381D01*
X4769761Y25937381D02*
X4864999Y25794524D01*
X4864999Y25794524D02*
X4960237Y25699286D01*
X4960237Y25699286D02*
X5055475Y25651667D01*
X4055475Y24937381D02*
X4055475Y25937381D01*
X3960237Y25318334D02*
X3674523Y24937381D01*
X3674523Y25604048D02*
X4055475Y25223096D01*
D11*
X5440833Y23263691D02*
X5607499Y23501786D01*
X5726547Y23263691D02*
X5726547Y23763691D01*
X5726547Y23763691D02*
X5536071Y23763691D01*
X5536071Y23763691D02*
X5488452Y23739881D01*
X5488452Y23739881D02*
X5464642Y23716072D01*
X5464642Y23716072D02*
X5440833Y23668453D01*
X5440833Y23668453D02*
X5440833Y23597024D01*
X5440833Y23597024D02*
X5464642Y23549405D01*
X5464642Y23549405D02*
X5488452Y23525596D01*
X5488452Y23525596D02*
X5536071Y23501786D01*
X5536071Y23501786D02*
X5726547Y23501786D01*
X4964642Y23263691D02*
X5250356Y23263691D01*
X5107499Y23263691D02*
X5107499Y23763691D01*
X5107499Y23763691D02*
X5155118Y23692262D01*
X5155118Y23692262D02*
X5202737Y23644643D01*
X5202737Y23644643D02*
X5250356Y23620834D01*
D10*
X14311190Y8998810D02*
X14406428Y9046429D01*
X14406428Y9046429D02*
X14454047Y9094048D01*
X14454047Y9094048D02*
X14501666Y9189286D01*
X14501666Y9189286D02*
X14501666Y9236905D01*
X14501666Y9236905D02*
X14454047Y9332143D01*
X14454047Y9332143D02*
X14406428Y9379762D01*
X14406428Y9379762D02*
X14311190Y9427381D01*
X14311190Y9427381D02*
X14120714Y9427381D01*
X14120714Y9427381D02*
X14025476Y9379762D01*
X14025476Y9379762D02*
X13977857Y9332143D01*
X13977857Y9332143D02*
X13930238Y9236905D01*
X13930238Y9236905D02*
X13930238Y9189286D01*
X13930238Y9189286D02*
X13977857Y9094048D01*
X13977857Y9094048D02*
X14025476Y9046429D01*
X14025476Y9046429D02*
X14120714Y8998810D01*
X14120714Y8998810D02*
X14311190Y8998810D01*
X14311190Y8998810D02*
X14406428Y8951191D01*
X14406428Y8951191D02*
X14454047Y8903572D01*
X14454047Y8903572D02*
X14501666Y8808334D01*
X14501666Y8808334D02*
X14501666Y8617858D01*
X14501666Y8617858D02*
X14454047Y8522620D01*
X14454047Y8522620D02*
X14406428Y8475000D01*
X14406428Y8475000D02*
X14311190Y8427381D01*
X14311190Y8427381D02*
X14120714Y8427381D01*
X14120714Y8427381D02*
X14025476Y8475000D01*
X14025476Y8475000D02*
X13977857Y8522620D01*
X13977857Y8522620D02*
X13930238Y8617858D01*
X13930238Y8617858D02*
X13930238Y8808334D01*
X13930238Y8808334D02*
X13977857Y8903572D01*
X13977857Y8903572D02*
X14025476Y8951191D01*
X14025476Y8951191D02*
X14120714Y8998810D01*
X13311190Y9427381D02*
X13215952Y9427381D01*
X13215952Y9427381D02*
X13120714Y9379762D01*
X13120714Y9379762D02*
X13073095Y9332143D01*
X13073095Y9332143D02*
X13025476Y9236905D01*
X13025476Y9236905D02*
X12977857Y9046429D01*
X12977857Y9046429D02*
X12977857Y8808334D01*
X12977857Y8808334D02*
X13025476Y8617858D01*
X13025476Y8617858D02*
X13073095Y8522620D01*
X13073095Y8522620D02*
X13120714Y8475000D01*
X13120714Y8475000D02*
X13215952Y8427381D01*
X13215952Y8427381D02*
X13311190Y8427381D01*
X13311190Y8427381D02*
X13406428Y8475000D01*
X13406428Y8475000D02*
X13454047Y8522620D01*
X13454047Y8522620D02*
X13501666Y8617858D01*
X13501666Y8617858D02*
X13549285Y8808334D01*
X13549285Y8808334D02*
X13549285Y9046429D01*
X13549285Y9046429D02*
X13501666Y9236905D01*
X13501666Y9236905D02*
X13454047Y9332143D01*
X13454047Y9332143D02*
X13406428Y9379762D01*
X13406428Y9379762D02*
X13311190Y9427381D01*
X12549285Y8427381D02*
X12549285Y9427381D01*
X12454047Y8808334D02*
X12168333Y8427381D01*
X12168333Y9094048D02*
X12549285Y8713096D01*
D11*
X16235833Y8658691D02*
X16402499Y8896786D01*
X16521547Y8658691D02*
X16521547Y9158691D01*
X16521547Y9158691D02*
X16331071Y9158691D01*
X16331071Y9158691D02*
X16283452Y9134881D01*
X16283452Y9134881D02*
X16259642Y9111072D01*
X16259642Y9111072D02*
X16235833Y9063453D01*
X16235833Y9063453D02*
X16235833Y8992024D01*
X16235833Y8992024D02*
X16259642Y8944405D01*
X16259642Y8944405D02*
X16283452Y8920596D01*
X16283452Y8920596D02*
X16331071Y8896786D01*
X16331071Y8896786D02*
X16521547Y8896786D01*
X15783452Y9158691D02*
X16021547Y9158691D01*
X16021547Y9158691D02*
X16045356Y8920596D01*
X16045356Y8920596D02*
X16021547Y8944405D01*
X16021547Y8944405D02*
X15973928Y8968215D01*
X15973928Y8968215D02*
X15854880Y8968215D01*
X15854880Y8968215D02*
X15807261Y8944405D01*
X15807261Y8944405D02*
X15783452Y8920596D01*
X15783452Y8920596D02*
X15759642Y8872977D01*
X15759642Y8872977D02*
X15759642Y8753929D01*
X15759642Y8753929D02*
X15783452Y8706310D01*
X15783452Y8706310D02*
X15807261Y8682500D01*
X15807261Y8682500D02*
X15854880Y8658691D01*
X15854880Y8658691D02*
X15973928Y8658691D01*
X15973928Y8658691D02*
X16021547Y8682500D01*
X16021547Y8682500D02*
X16045356Y8706310D01*
D10*
X46174547Y8540476D02*
X46126928Y8492857D01*
X46126928Y8492857D02*
X46079309Y8397619D01*
X46079309Y8397619D02*
X46079309Y8159524D01*
X46079309Y8159524D02*
X46126928Y8064286D01*
X46126928Y8064286D02*
X46174547Y8016667D01*
X46174547Y8016667D02*
X46269785Y7969048D01*
X46269785Y7969048D02*
X46365023Y7969048D01*
X46365023Y7969048D02*
X46507880Y8016667D01*
X46507880Y8016667D02*
X47079309Y8588095D01*
X47079309Y8588095D02*
X47079309Y7969048D01*
X46079309Y7350000D02*
X46079309Y7254762D01*
X46079309Y7254762D02*
X46126928Y7159524D01*
X46126928Y7159524D02*
X46174547Y7111905D01*
X46174547Y7111905D02*
X46269785Y7064286D01*
X46269785Y7064286D02*
X46460261Y7016667D01*
X46460261Y7016667D02*
X46698356Y7016667D01*
X46698356Y7016667D02*
X46888832Y7064286D01*
X46888832Y7064286D02*
X46984070Y7111905D01*
X46984070Y7111905D02*
X47031690Y7159524D01*
X47031690Y7159524D02*
X47079309Y7254762D01*
X47079309Y7254762D02*
X47079309Y7350000D01*
X47079309Y7350000D02*
X47031690Y7445238D01*
X47031690Y7445238D02*
X46984070Y7492857D01*
X46984070Y7492857D02*
X46888832Y7540476D01*
X46888832Y7540476D02*
X46698356Y7588095D01*
X46698356Y7588095D02*
X46460261Y7588095D01*
X46460261Y7588095D02*
X46269785Y7540476D01*
X46269785Y7540476D02*
X46174547Y7492857D01*
X46174547Y7492857D02*
X46126928Y7445238D01*
X46126928Y7445238D02*
X46079309Y7350000D01*
X46079309Y6397619D02*
X46079309Y6302381D01*
X46079309Y6302381D02*
X46126928Y6207143D01*
X46126928Y6207143D02*
X46174547Y6159524D01*
X46174547Y6159524D02*
X46269785Y6111905D01*
X46269785Y6111905D02*
X46460261Y6064286D01*
X46460261Y6064286D02*
X46698356Y6064286D01*
X46698356Y6064286D02*
X46888832Y6111905D01*
X46888832Y6111905D02*
X46984070Y6159524D01*
X46984070Y6159524D02*
X47031690Y6207143D01*
X47031690Y6207143D02*
X47079309Y6302381D01*
X47079309Y6302381D02*
X47079309Y6397619D01*
X47079309Y6397619D02*
X47031690Y6492857D01*
X47031690Y6492857D02*
X46984070Y6540476D01*
X46984070Y6540476D02*
X46888832Y6588095D01*
X46888832Y6588095D02*
X46698356Y6635714D01*
X46698356Y6635714D02*
X46460261Y6635714D01*
X46460261Y6635714D02*
X46269785Y6588095D01*
X46269785Y6588095D02*
X46174547Y6540476D01*
X46174547Y6540476D02*
X46126928Y6492857D01*
X46126928Y6492857D02*
X46079309Y6397619D01*
X47079309Y4921428D02*
X47079309Y4683333D01*
X47079309Y4683333D02*
X46888832Y4683333D01*
X46888832Y4683333D02*
X46841213Y4778571D01*
X46841213Y4778571D02*
X46745975Y4873809D01*
X46745975Y4873809D02*
X46603118Y4921428D01*
X46603118Y4921428D02*
X46365023Y4921428D01*
X46365023Y4921428D02*
X46222166Y4873809D01*
X46222166Y4873809D02*
X46126928Y4778571D01*
X46126928Y4778571D02*
X46079309Y4635714D01*
X46079309Y4635714D02*
X46079309Y4445238D01*
X46079309Y4445238D02*
X46126928Y4302381D01*
X46126928Y4302381D02*
X46222166Y4207143D01*
X46222166Y4207143D02*
X46365023Y4159524D01*
X46365023Y4159524D02*
X46603118Y4159524D01*
X46603118Y4159524D02*
X46745975Y4207143D01*
X46745975Y4207143D02*
X46841213Y4302381D01*
X46841213Y4302381D02*
X46888832Y4397619D01*
X46888832Y4397619D02*
X47079309Y4397619D01*
X47079309Y4397619D02*
X47079309Y4159524D01*
D11*
X48497999Y6671429D02*
X48259904Y6838095D01*
X48497999Y6957143D02*
X47997999Y6957143D01*
X47997999Y6957143D02*
X47997999Y6766667D01*
X47997999Y6766667D02*
X48021809Y6719048D01*
X48021809Y6719048D02*
X48045618Y6695238D01*
X48045618Y6695238D02*
X48093237Y6671429D01*
X48093237Y6671429D02*
X48164666Y6671429D01*
X48164666Y6671429D02*
X48212285Y6695238D01*
X48212285Y6695238D02*
X48236094Y6719048D01*
X48236094Y6719048D02*
X48259904Y6766667D01*
X48259904Y6766667D02*
X48259904Y6957143D01*
X48497999Y6195238D02*
X48497999Y6480952D01*
X48497999Y6338095D02*
X47997999Y6338095D01*
X47997999Y6338095D02*
X48069428Y6385714D01*
X48069428Y6385714D02*
X48117047Y6433333D01*
X48117047Y6433333D02*
X48140856Y6480952D01*
X47997999Y5766667D02*
X47997999Y5861905D01*
X47997999Y5861905D02*
X48021809Y5909524D01*
X48021809Y5909524D02*
X48045618Y5933334D01*
X48045618Y5933334D02*
X48117047Y5980953D01*
X48117047Y5980953D02*
X48212285Y6004762D01*
X48212285Y6004762D02*
X48402761Y6004762D01*
X48402761Y6004762D02*
X48450380Y5980953D01*
X48450380Y5980953D02*
X48474190Y5957143D01*
X48474190Y5957143D02*
X48497999Y5909524D01*
X48497999Y5909524D02*
X48497999Y5814286D01*
X48497999Y5814286D02*
X48474190Y5766667D01*
X48474190Y5766667D02*
X48450380Y5742858D01*
X48450380Y5742858D02*
X48402761Y5719048D01*
X48402761Y5719048D02*
X48283713Y5719048D01*
X48283713Y5719048D02*
X48236094Y5742858D01*
X48236094Y5742858D02*
X48212285Y5766667D01*
X48212285Y5766667D02*
X48188475Y5814286D01*
X48188475Y5814286D02*
X48188475Y5909524D01*
X48188475Y5909524D02*
X48212285Y5957143D01*
X48212285Y5957143D02*
X48236094Y5980953D01*
X48236094Y5980953D02*
X48283713Y6004762D01*
D10*
X16271547Y25317381D02*
X16842975Y25317381D01*
X16557261Y25317381D02*
X16557261Y26317381D01*
X16557261Y26317381D02*
X16652499Y26174524D01*
X16652499Y26174524D02*
X16747737Y26079286D01*
X16747737Y26079286D02*
X16842975Y26031667D01*
X15842975Y25317381D02*
X15842975Y26317381D01*
X15747737Y25698334D02*
X15462023Y25317381D01*
X15462023Y25984048D02*
X15842975Y25603096D01*
D11*
X16235833Y23898691D02*
X16402499Y24136786D01*
X16521547Y23898691D02*
X16521547Y24398691D01*
X16521547Y24398691D02*
X16331071Y24398691D01*
X16331071Y24398691D02*
X16283452Y24374881D01*
X16283452Y24374881D02*
X16259642Y24351072D01*
X16259642Y24351072D02*
X16235833Y24303453D01*
X16235833Y24303453D02*
X16235833Y24232024D01*
X16235833Y24232024D02*
X16259642Y24184405D01*
X16259642Y24184405D02*
X16283452Y24160596D01*
X16283452Y24160596D02*
X16331071Y24136786D01*
X16331071Y24136786D02*
X16521547Y24136786D01*
X15807261Y24398691D02*
X15902499Y24398691D01*
X15902499Y24398691D02*
X15950118Y24374881D01*
X15950118Y24374881D02*
X15973928Y24351072D01*
X15973928Y24351072D02*
X16021547Y24279643D01*
X16021547Y24279643D02*
X16045356Y24184405D01*
X16045356Y24184405D02*
X16045356Y23993929D01*
X16045356Y23993929D02*
X16021547Y23946310D01*
X16021547Y23946310D02*
X15997737Y23922500D01*
X15997737Y23922500D02*
X15950118Y23898691D01*
X15950118Y23898691D02*
X15854880Y23898691D01*
X15854880Y23898691D02*
X15807261Y23922500D01*
X15807261Y23922500D02*
X15783452Y23946310D01*
X15783452Y23946310D02*
X15759642Y23993929D01*
X15759642Y23993929D02*
X15759642Y24112977D01*
X15759642Y24112977D02*
X15783452Y24160596D01*
X15783452Y24160596D02*
X15807261Y24184405D01*
X15807261Y24184405D02*
X15854880Y24208215D01*
X15854880Y24208215D02*
X15950118Y24208215D01*
X15950118Y24208215D02*
X15997737Y24184405D01*
X15997737Y24184405D02*
X16021547Y24160596D01*
X16021547Y24160596D02*
X16045356Y24112977D01*
D10*
X2891666Y15920381D02*
X3463094Y15920381D01*
X3177380Y15920381D02*
X3177380Y16920381D01*
X3177380Y16920381D02*
X3272618Y16777524D01*
X3272618Y16777524D02*
X3367856Y16682286D01*
X3367856Y16682286D02*
X3463094Y16634667D01*
X2272618Y16920381D02*
X2177380Y16920381D01*
X2177380Y16920381D02*
X2082142Y16872762D01*
X2082142Y16872762D02*
X2034523Y16825143D01*
X2034523Y16825143D02*
X1986904Y16729905D01*
X1986904Y16729905D02*
X1939285Y16539429D01*
X1939285Y16539429D02*
X1939285Y16301334D01*
X1939285Y16301334D02*
X1986904Y16110858D01*
X1986904Y16110858D02*
X2034523Y16015620D01*
X2034523Y16015620D02*
X2082142Y15968000D01*
X2082142Y15968000D02*
X2177380Y15920381D01*
X2177380Y15920381D02*
X2272618Y15920381D01*
X2272618Y15920381D02*
X2367856Y15968000D01*
X2367856Y15968000D02*
X2415475Y16015620D01*
X2415475Y16015620D02*
X2463094Y16110858D01*
X2463094Y16110858D02*
X2510713Y16301334D01*
X2510713Y16301334D02*
X2510713Y16539429D01*
X2510713Y16539429D02*
X2463094Y16729905D01*
X2463094Y16729905D02*
X2415475Y16825143D01*
X2415475Y16825143D02*
X2367856Y16872762D01*
X2367856Y16872762D02*
X2272618Y16920381D01*
X1082142Y16587048D02*
X1082142Y15920381D01*
X1320237Y16968000D02*
X1558332Y16253715D01*
X1558332Y16253715D02*
X939285Y16253715D01*
D11*
X6433333Y15564310D02*
X6457142Y15540500D01*
X6457142Y15540500D02*
X6528571Y15516691D01*
X6528571Y15516691D02*
X6576190Y15516691D01*
X6576190Y15516691D02*
X6647618Y15540500D01*
X6647618Y15540500D02*
X6695237Y15588120D01*
X6695237Y15588120D02*
X6719047Y15635739D01*
X6719047Y15635739D02*
X6742856Y15730977D01*
X6742856Y15730977D02*
X6742856Y15802405D01*
X6742856Y15802405D02*
X6719047Y15897643D01*
X6719047Y15897643D02*
X6695237Y15945262D01*
X6695237Y15945262D02*
X6647618Y15992881D01*
X6647618Y15992881D02*
X6576190Y16016691D01*
X6576190Y16016691D02*
X6528571Y16016691D01*
X6528571Y16016691D02*
X6457142Y15992881D01*
X6457142Y15992881D02*
X6433333Y15969072D01*
X6004761Y15850024D02*
X6004761Y15516691D01*
X6123809Y16040500D02*
X6242856Y15683358D01*
X6242856Y15683358D02*
X5933333Y15683358D01*
D10*
X53998571Y648572D02*
X53998571Y172381D01*
X54331904Y1172381D02*
X53998571Y648572D01*
X53998571Y648572D02*
X53665238Y1172381D01*
X52950952Y220000D02*
X53046190Y172381D01*
X53046190Y172381D02*
X53236666Y172381D01*
X53236666Y172381D02*
X53331904Y220000D01*
X53331904Y220000D02*
X53379523Y315239D01*
X53379523Y315239D02*
X53379523Y696191D01*
X53379523Y696191D02*
X53331904Y791429D01*
X53331904Y791429D02*
X53236666Y839048D01*
X53236666Y839048D02*
X53046190Y839048D01*
X53046190Y839048D02*
X52950952Y791429D01*
X52950952Y791429D02*
X52903333Y696191D01*
X52903333Y696191D02*
X52903333Y600953D01*
X52903333Y600953D02*
X53379523Y505715D01*
X52331904Y172381D02*
X52427142Y220000D01*
X52427142Y220000D02*
X52474761Y315239D01*
X52474761Y315239D02*
X52474761Y1172381D01*
X51808094Y172381D02*
X51903332Y220000D01*
X51903332Y220000D02*
X51950951Y315239D01*
X51950951Y315239D02*
X51950951Y1172381D01*
X51284284Y172381D02*
X51379522Y220000D01*
X51379522Y220000D02*
X51427141Y267620D01*
X51427141Y267620D02*
X51474760Y362858D01*
X51474760Y362858D02*
X51474760Y648572D01*
X51474760Y648572D02*
X51427141Y743810D01*
X51427141Y743810D02*
X51379522Y791429D01*
X51379522Y791429D02*
X51284284Y839048D01*
X51284284Y839048D02*
X51141427Y839048D01*
X51141427Y839048D02*
X51046189Y791429D01*
X51046189Y791429D02*
X50998570Y743810D01*
X50998570Y743810D02*
X50950951Y648572D01*
X50950951Y648572D02*
X50950951Y362858D01*
X50950951Y362858D02*
X50998570Y267620D01*
X50998570Y267620D02*
X51046189Y220000D01*
X51046189Y220000D02*
X51141427Y172381D01*
X51141427Y172381D02*
X51284284Y172381D01*
X50617617Y839048D02*
X50427141Y172381D01*
X50427141Y172381D02*
X50236665Y648572D01*
X50236665Y648572D02*
X50046189Y172381D01*
X50046189Y172381D02*
X49855713Y839048D01*
D11*
X48497999Y3565000D02*
X47997999Y3565000D01*
X47997999Y3565000D02*
X47997999Y3374524D01*
X47997999Y3374524D02*
X48021809Y3326905D01*
X48021809Y3326905D02*
X48045618Y3303095D01*
X48045618Y3303095D02*
X48093237Y3279286D01*
X48093237Y3279286D02*
X48164666Y3279286D01*
X48164666Y3279286D02*
X48212285Y3303095D01*
X48212285Y3303095D02*
X48236094Y3326905D01*
X48236094Y3326905D02*
X48259904Y3374524D01*
X48259904Y3374524D02*
X48259904Y3565000D01*
X48497999Y2826905D02*
X48497999Y3065000D01*
X48497999Y3065000D02*
X47997999Y3065000D01*
X48355142Y2684047D02*
X48355142Y2445952D01*
X48497999Y2731666D02*
X47997999Y2565000D01*
X47997999Y2565000D02*
X48497999Y2398333D01*
X48259904Y2136429D02*
X48497999Y2136429D01*
X47997999Y2303095D02*
X48259904Y2136429D01*
X48259904Y2136429D02*
X47997999Y1969762D01*
X47997999Y1850715D02*
X47997999Y1541191D01*
X47997999Y1541191D02*
X48188475Y1707858D01*
X48188475Y1707858D02*
X48188475Y1636429D01*
X48188475Y1636429D02*
X48212285Y1588810D01*
X48212285Y1588810D02*
X48236094Y1565001D01*
X48236094Y1565001D02*
X48283713Y1541191D01*
X48283713Y1541191D02*
X48402761Y1541191D01*
X48402761Y1541191D02*
X48450380Y1565001D01*
X48450380Y1565001D02*
X48474190Y1588810D01*
X48474190Y1588810D02*
X48497999Y1636429D01*
X48497999Y1636429D02*
X48497999Y1779286D01*
X48497999Y1779286D02*
X48474190Y1826905D01*
X48474190Y1826905D02*
X48450380Y1850715D01*
D10*
X29329047Y20492381D02*
X29900475Y20492381D01*
X29614761Y20492381D02*
X29614761Y21492381D01*
X29614761Y21492381D02*
X29709999Y21349524D01*
X29709999Y21349524D02*
X29805237Y21254286D01*
X29805237Y21254286D02*
X29900475Y21206667D01*
X28900475Y20492381D02*
X28900475Y21492381D01*
X28805237Y20873334D02*
X28519523Y20492381D01*
X28519523Y21159048D02*
X28900475Y20778096D01*
D11*
X29531428Y18818691D02*
X29698094Y19056786D01*
X29817142Y18818691D02*
X29817142Y19318691D01*
X29817142Y19318691D02*
X29626666Y19318691D01*
X29626666Y19318691D02*
X29579047Y19294881D01*
X29579047Y19294881D02*
X29555237Y19271072D01*
X29555237Y19271072D02*
X29531428Y19223453D01*
X29531428Y19223453D02*
X29531428Y19152024D01*
X29531428Y19152024D02*
X29555237Y19104405D01*
X29555237Y19104405D02*
X29579047Y19080596D01*
X29579047Y19080596D02*
X29626666Y19056786D01*
X29626666Y19056786D02*
X29817142Y19056786D01*
X29055237Y18818691D02*
X29340951Y18818691D01*
X29198094Y18818691D02*
X29198094Y19318691D01*
X29198094Y19318691D02*
X29245713Y19247262D01*
X29245713Y19247262D02*
X29293332Y19199643D01*
X29293332Y19199643D02*
X29340951Y19175834D01*
X28745714Y19318691D02*
X28698095Y19318691D01*
X28698095Y19318691D02*
X28650476Y19294881D01*
X28650476Y19294881D02*
X28626666Y19271072D01*
X28626666Y19271072D02*
X28602857Y19223453D01*
X28602857Y19223453D02*
X28579047Y19128215D01*
X28579047Y19128215D02*
X28579047Y19009167D01*
X28579047Y19009167D02*
X28602857Y18913929D01*
X28602857Y18913929D02*
X28626666Y18866310D01*
X28626666Y18866310D02*
X28650476Y18842500D01*
X28650476Y18842500D02*
X28698095Y18818691D01*
X28698095Y18818691D02*
X28745714Y18818691D01*
X28745714Y18818691D02*
X28793333Y18842500D01*
X28793333Y18842500D02*
X28817142Y18866310D01*
X28817142Y18866310D02*
X28840952Y18913929D01*
X28840952Y18913929D02*
X28864761Y19009167D01*
X28864761Y19009167D02*
X28864761Y19128215D01*
X28864761Y19128215D02*
X28840952Y19223453D01*
X28840952Y19223453D02*
X28817142Y19271072D01*
X28817142Y19271072D02*
X28793333Y19294881D01*
X28793333Y19294881D02*
X28745714Y19318691D01*
D13*
X17190000Y10805000D02*
X17190000Y12055000D01*
X17190000Y12055000D02*
X15190000Y12055000D01*
X15190000Y10805000D02*
X17190000Y10805000D01*
X15190000Y12055000D02*
X15190000Y10805000D01*
X47646690Y12520000D02*
X47646690Y15095000D01*
X47646690Y15095000D02*
X47321690Y15420000D01*
X47321690Y15420000D02*
X46346690Y15420000D01*
X46346690Y12520000D02*
X47646690Y12520000D01*
X46346690Y15420000D02*
X46346690Y12520000D01*
X7350000Y17155000D02*
X7350000Y18405000D01*
X7350000Y18405000D02*
X5350000Y18405000D01*
X5350000Y17155000D02*
X7350000Y17155000D01*
X5350000Y18405000D02*
X5350000Y17155000D01*
X57775000Y27670000D02*
X56525000Y27670000D01*
X56525000Y27670000D02*
X56525000Y25670000D01*
X57775000Y25670000D02*
X57775000Y27670000D01*
X56525000Y25670000D02*
X57775000Y25670000D01*
X27890000Y13325000D02*
X27890000Y12075000D01*
X27890000Y12075000D02*
X29890000Y12075000D01*
X29890000Y13325000D02*
X27890000Y13325000D01*
X29890000Y12075000D02*
X29890000Y13325000D01*
X17152500Y3185000D02*
X17152500Y4435000D01*
X17152500Y4435000D02*
X15152500Y4435000D01*
X15152500Y3185000D02*
X17152500Y3185000D01*
X15152500Y4435000D02*
X15152500Y3185000D01*
X22235000Y20232500D02*
X23485000Y20232500D01*
X23485000Y20232500D02*
X23485000Y22232500D01*
X22235000Y22232500D02*
X22235000Y20232500D01*
X23485000Y22232500D02*
X22235000Y22232500D01*
X1915000Y12970000D02*
X3165000Y12970000D01*
X3165000Y12970000D02*
X3165000Y14970000D01*
X1915000Y14970000D02*
X1915000Y12970000D01*
X3165000Y14970000D02*
X1915000Y14970000D01*
X13920000Y19675000D02*
X13920000Y18425000D01*
X13920000Y18425000D02*
X15920000Y18425000D01*
X15920000Y19675000D02*
X13920000Y19675000D01*
X15920000Y18425000D02*
X15920000Y19675000D01*
X22210000Y30660000D02*
X22210000Y28085000D01*
X22210000Y28085000D02*
X22535000Y27760000D01*
X22535000Y27760000D02*
X23510000Y27760000D01*
X23510000Y30660000D02*
X22210000Y30660000D01*
X23510000Y27760000D02*
X23510000Y30660000D01*
X18050000Y28565000D02*
X18050000Y27315000D01*
X18050000Y27315000D02*
X20050000Y27315000D01*
X20050000Y28565000D02*
X18050000Y28565000D01*
X20050000Y27315000D02*
X20050000Y28565000D01*
X13920000Y14595000D02*
X13920000Y13345000D01*
X13920000Y13345000D02*
X15920000Y13345000D01*
X15920000Y14595000D02*
X13920000Y14595000D01*
X15920000Y13345000D02*
X15920000Y14595000D01*
X31687500Y28540000D02*
X33687500Y28540000D01*
X31687500Y27640000D02*
X31687500Y28540000D01*
X31987500Y27340000D02*
X31687500Y27640000D01*
X33687500Y28540000D02*
X33687500Y27340000D01*
X33687500Y27340000D02*
X31987500Y27340000D01*
X26620000Y8245000D02*
X26620000Y6995000D01*
X26620000Y6995000D02*
X28620000Y6995000D01*
X28620000Y8245000D02*
X26620000Y8245000D01*
X28620000Y6995000D02*
X28620000Y8245000D01*
X43805000Y17510000D02*
X42555000Y17510000D01*
X42555000Y17510000D02*
X42555000Y15510000D01*
X43805000Y15510000D02*
X43805000Y17510000D01*
X42555000Y15510000D02*
X43805000Y15510000D01*
X43856690Y1565000D02*
X43856690Y3565000D01*
X44756690Y1565000D02*
X43856690Y1565000D01*
X45056690Y1865000D02*
X44756690Y1565000D01*
X43856690Y3565000D02*
X45056690Y3565000D01*
X45056690Y3565000D02*
X45056690Y1865000D01*
X9515000Y6400000D02*
X8265000Y6400000D01*
X8265000Y6400000D02*
X8265000Y4400000D01*
X9515000Y4400000D02*
X9515000Y6400000D01*
X8265000Y4400000D02*
X9515000Y4400000D01*
X28210000Y17110000D02*
X30210000Y17110000D01*
X28210000Y16210000D02*
X28210000Y17110000D01*
X28510000Y15910000D02*
X28210000Y16210000D01*
X30210000Y17110000D02*
X30210000Y15910000D01*
X30210000Y15910000D02*
X28510000Y15910000D01*
X56525000Y20270000D02*
X57775000Y20270000D01*
X57775000Y20270000D02*
X57775000Y22270000D01*
X56525000Y22270000D02*
X56525000Y20270000D01*
X57775000Y22270000D02*
X56525000Y22270000D01*
X13920000Y17135000D02*
X13920000Y15885000D01*
X13920000Y15885000D02*
X15920000Y15885000D01*
X15920000Y17135000D02*
X13920000Y17135000D01*
X15920000Y15885000D02*
X15920000Y17135000D01*
X1915000Y9480000D02*
X3165000Y9480000D01*
X3165000Y9480000D02*
X3165000Y11480000D01*
X1915000Y11480000D02*
X1915000Y9480000D01*
X3165000Y11480000D02*
X1915000Y11480000D01*
X17190000Y5725000D02*
X17190000Y6975000D01*
X17190000Y6975000D02*
X15190000Y6975000D01*
X15190000Y5725000D02*
X17190000Y5725000D01*
X15190000Y6975000D02*
X15190000Y5725000D01*
X43831690Y5350000D02*
X45081690Y5350000D01*
X45081690Y5350000D02*
X45081690Y7350000D01*
X43831690Y7350000D02*
X43831690Y5350000D01*
X45081690Y7350000D02*
X43831690Y7350000D01*
X6357500Y22870000D02*
X6357500Y24120000D01*
X6357500Y24120000D02*
X4357500Y24120000D01*
X4357500Y22870000D02*
X6357500Y22870000D01*
X4357500Y24120000D02*
X4357500Y22870000D01*
X17152500Y8265000D02*
X17152500Y9515000D01*
X17152500Y9515000D02*
X15152500Y9515000D01*
X15152500Y8265000D02*
X17152500Y8265000D01*
X15152500Y9515000D02*
X15152500Y8265000D01*
X47641690Y5350000D02*
X48891690Y5350000D01*
X48891690Y5350000D02*
X48891690Y7350000D01*
X47641690Y7350000D02*
X47641690Y5350000D01*
X48891690Y7350000D02*
X47641690Y7350000D01*
X15152500Y24755000D02*
X15152500Y23505000D01*
X15152500Y23505000D02*
X17152500Y23505000D01*
X17152500Y24755000D02*
X15152500Y24755000D01*
X17152500Y23505000D02*
X17152500Y24755000D01*
X7350000Y15123000D02*
X7350000Y16373000D01*
X7350000Y16373000D02*
X5350000Y16373000D01*
X5350000Y15123000D02*
X7350000Y15123000D01*
X5350000Y16373000D02*
X5350000Y15123000D01*
X47666690Y1565000D02*
X47666690Y3565000D01*
X48566690Y1565000D02*
X47666690Y1565000D01*
X48866690Y1865000D02*
X48566690Y1565000D01*
X47666690Y3565000D02*
X48866690Y3565000D01*
X48866690Y3565000D02*
X48866690Y1865000D01*
X30210000Y18425000D02*
X30210000Y19675000D01*
X30210000Y19675000D02*
X28210000Y19675000D01*
X28210000Y18425000D02*
X30210000Y18425000D01*
X28210000Y19675000D02*
X28210000Y18425000D01*
M02*
