999
dxfrw 0.6.3
  0
SECTION
  2
HEADER
  9
$ACADVER
  1
AC1021
  9
$DWGCODEPAGE
  3
ANSI_1252
  9
$INSBASE
 10
0
 20
0
 30
0
  9
$EXTMIN
 10
-5
 20
-5
 30
0
  9
$EXTMAX
 10
172.8
 20
122
 30
0
  9
$LIMMIN
 10
0
 20
0
  9
$LIMMAX
 10
420
 20
297
  9
$ORTHOMODE
 70
    0
  9
$REGENMODE
 70
    1
  9
$FILLMODE
 70
    1
  9
$QTEXTMODE
 70
    0
  9
$MIRRTEXT
 70
    0
  9
$LTSCALE
 40
1
  9
$ATTMODE
 70
    0
  9
$TEXTSIZE
 40
2.5
  9
$TRACEWID
 40
15.68
  9
$TEXTSTYLE
  7
STANDARD
  9
$CLAYER
  8
construction
  9
$CELTYPE
  6
BYLAYER
  9
$CECOLOR
 62
  256
  9
$CELTSCALE
 40
1
  9
$DISPSILH
 70
    0
  9
$DIMSCALE
 40
1
  9
$DIMASZ
 40
2.5
  9
$DIMEXO
 40
0.025
  9
$DIMDLI
 40
3.75
  9
$DIMRND
 40
0
  9
$DIMDLE
 40
0
  9
$DIMEXE
 40
1.25
  9
$DIMTP
 40
0
  9
$DIMTM
 40
0
  9
$DIMTXT
 40
2
  9
$DIMCEN
 40
2.5
  9
$DIMTSZ
 40
0
  9
$DIMTOL
 70
    0
  9
$DIMLIM
 70
    0
  9
$DIMTIH
 70
    0
  9
$DIMTOH
 70
    0
  9
$DIMSE1
 70
    0
  9
$DIMSE2
 70
    0
  9
$DIMTAD
 70
    1
  9
$DIMZIN
 70
    8
  9
$DIMBLK
  1

  9
$DIMASO
 70
    1
  9
$DIMSHO
 70
    1
  9
$DIMPOST
  1

  9
$DIMAPOST
  1

  9
$DIMALT
 70
    0
  9
$DIMALTD
 70
    3
  9
$DIMALTF
 40
0.03937
  9
$DIMLFAC
 40
1
  9
$DIMTOFL
 70
    1
  9
$DIMTVP
 40
0
  9
$DIMTIX
 70
    0
  9
$DIMSOXD
 70
    0
  9
$DIMSAH
 70
    0
  9
$DIMBLK1
  1

  9
$DIMBLK2
  1

  9
$DIMSTYLE
  2
STANDARD
  9
$DIMCLRD
 70
    0
  9
$DIMCLRE
 70
    0
  9
$DIMCLRT
 70
    0
  9
$DIMTFAC
 40
1
  9
$DIMGAP
 40
0.5
  9
$DIMJUST
 70
    0
  9
$DIMSD1
 70
    0
  9
$DIMSD2
 70
    0
  9
$DIMTOLJ
 70
    0
  9
$DIMTZIN
 70
    8
  9
$DIMALTZ
 70
    0
  9
$DIMALTTZ
 70
    0
  9
$DIMUPT
 70
    0
  9
$DIMDEC
 70
    2
  9
$DIMTDEC
 70
    2
  9
$DIMALTU
 70
    2
  9
$DIMALTTD
 70
    3
  9
$DIMTXSTY
  7
standard
  9
$DIMAUNIT
 70
    0
  9
$DIMADEC
 70
    0
  9
$DIMALTRND
 40
0
  9
$DIMAZIN
 70
    0
  9
$DIMDSEP
 70
    0
  9
$DIMATFIT
 70
    3
  9
$DIMFRAC
 70
    0
  9
$DIMLDRBLK
  1
STANDARD
  9
$DIMLUNIT
 70
    2
  9
$DIMLWD
 70
   -2
  9
$DIMLWE
 70
   -2
  9
$DIMTMOVE
 70
    0
  9
$DIMFXL
 40
1
  9
$DIMFXLON
 70
    0
  9
$DIMJOGANG
 40
0.7854
  9
$DIMTFILL
 70
    0
  9
$DIMTFILLCLR
 70
    0
  9
$DIMARCSYM
 70
    0
  9
$DIMLTYPE
  6

  9
$DIMLTEX1
  6

  9
$DIMLTEX2
  6

  9
$LUNITS
 70
    2
  9
$LUPREC
 70
    4
  9
$SKETCHINC
 40
1
  9
$FILLETRAD
 40
0
  9
$AUNITS
 70
    0
  9
$AUPREC
 70
    2
  9
$MENU
  1
.
  9
$ELEVATION
 40
0
  9
$PELEVATION
 40
0
  9
$THICKNESS
 40
0
  9
$LIMCHECK
 70
    0
  9
$CHAMFERA
 40
0
  9
$CHAMFERB
 40
0
  9
$CHAMFERC
 40
0
  9
$CHAMFERD
 40
0
  9
$SKPOLY
 70
    0
  9
$USRTIMER
 70
    1
  9
$ANGBASE
 50
0
  9
$ANGDIR
 70
    0
  9
$PDMODE
 70
   34
  9
$PDSIZE
 40
0
  9
$PLINEWID
 40
0
  9
$SPLFRAME
 70
    0
  9
$SPLINETYPE
 70
    2
  9
$SPLINESEGS
 70
    8
  9
$HANDSEED
  5
20000
  9
$SURFTAB1
 70
    6
  9
$SURFTAB2
 70
    6
  9
$SURFTYPE
 70
    6
  9
$SURFU
 70
    6
  9
$SURFV
 70
    6
  9
$UCSBASE
  2

  9
$UCSNAME
  2

  9
$UCSORG
 10
0
 20
0
 30
0
  9
$UCSXDIR
 10
1
 20
0
 30
0
  9
$UCSYDIR
 10
0
 20
1
 30
0
  9
$UCSORTHOREF
  2

  9
$UCSORTHOVIEW
 70
    0
  9
$UCSORGTOP
 10
0
 20
0
 30
0
  9
$UCSORGBOTTOM
 10
0
 20
0
 30
0
  9
$UCSORGLEFT
 10
0
 20
0
 30
0
  9
$UCSORGRIGHT
 10
0
 20
0
 30
0
  9
$UCSORGFRONT
 10
0
 20
0
 30
0
  9
$UCSORGBACK
 10
0
 20
0
 30
0
  9
$PUCSBASE
  2

  9
$PUCSNAME
  2

  9
$PUCSORG
 10
0
 20
0
 30
0
  9
$PUCSXDIR
 10
1
 20
0
 30
0
  9
$PUCSYDIR
 10
0
 20
1
 30
0
  9
$PUCSORTHOREF
  2

  9
$PUCSORTHOVIEW
 70
    0
  9
$PUCSORGTOP
 10
0
 20
0
 30
0
  9
$PUCSORGBOTTOM
 10
0
 20
0
 30
0
  9
$PUCSORGLEFT
 10
0
 20
0
 30
0
  9
$PUCSORGRIGHT
 10
0
 20
0
 30
0
  9
$PUCSORGFRONT
 10
0
 20
0
 30
0
  9
$PUCSORGBACK
 10
0
 20
0
 30
0
  9
$USERI1
 70
    0
  9
$USERI2
 70
    0
  9
$USERI3
 70
    0
  9
$USERI4
 70
    0
  9
$USERI5
 70
    0
  9
$USERR1
 40
0
  9
$USERR2
 40
0
  9
$USERR3
 40
0
  9
$USERR4
 40
0
  9
$USERR5
 40
0
  9
$WORLDVIEW
 70
    1
  9
$SHADEDGE
 70
    3
  9
$SHADEDIF
 70
   70
  9
$TILEMODE
 70
    1
  9
$MAXACTVP
 70
   64
  9
$PINSBASE
 10
0
 20
0
 30
0
  9
$PLIMCHECK
 70
    0
  9
$PEXTMIN
 10
0
 20
0
 30
0
  9
$PEXTMAX
 10
0
 20
0
 30
0
  9
$GRIDMODE
 70
    1
  9
$SNAPSTYLE
 70
    0
  9
$GRIDUNIT
 10
0
 20
0
  9
$PLIMMIN
 10
0
 20
0
  9
$PLIMMAX
 10
7.820100000000001e-007
 20
1.106e-006
  9
$UNITMODE
 70
    0
  9
$VISRETAIN
 70
    1
  9
$PLINEGEN
 70
    0
  9
$PSLTSCALE
 70
    1
  9
$TREEDEPTH
 70
 3020
  9
$CMLSTYLE
  2
Standard
  9
$CMLJUST
 70
    0
  9
$CMLSCALE
 40
20
  9
$PROXYGRAPHICS
 70
    1
  9
$MEASUREMENT
 70
    1
  9
$CELWEIGHT
370
   -1
  9
$ENDCAPS
280
    0
  9
$JOINSTYLE
280
    0
  9
$LWDISPLAY
290
    0
  9
$INSUNITS
 70
    4
  9
$HYPERLINKBASE
  1

  9
$STYLESHEET
  1

  9
$XEDIT
290
    1
  9
$CEPSNTYPE
380
    0
  9
$PSTYLEMODE
290
    1
  9
$EXTNAMES
290
    1
  9
$PSVPSCALE
 40
1
  9
$OLESTARTUP
290
    0
  9
$SORTENTS
280
  127
  9
$INDEXCTL
280
    0
  9
$HIDETEXT
280
    1
  9
$XCLIPFRAME
290
    0
  9
$HALOGAP
280
    0
  9
$OBSCOLOR
 70
  257
  9
$OBSLTYPE
280
    0
  9
$INTERSECTIONDISPLAY
280
    0
  9
$INTERSECTIONCOLOR
 70
  257
  9
$DIMASSOC
280
    1
  9
$PROJECTNAME
  1

  9
$CAMERADISPLAY
290
    0
  9
$LENSLENGTH
 40
50
  9
$CAMERAHEIGHT
 40
0
  9
$STEPSPERSEC
 40
2
  9
$STEPSIZE
 40
50
  9
$3DDWFPREC
 40
2
  9
$PSOLWIDTH
 40
5
  9
$PSOLHEIGHT
 40
80
  9
$LOFTANG1
 40
1.570796326794897
  9
$LOFTANG2
 40
1.570796326794897
  9
$LOFTMAG1
 40
0
  9
$LOFTMAG2
 40
0
  9
$LOFTPARAM
 70
    7
  9
$LOFTNORMALS
280
    1
  9
$LATITUDE
 40
1
  9
$LONGITUDE
 40
1
  9
$NORTHDIRECTION
 40
0
  9
$TIMEZONE
 70
-8000
  9
$LIGHTGLYPHDISPLAY
280
    1
  9
$TILEMODELIGHTSYNCH
280
    1
  9
$SOLIDHIST
280
    1
  9
$SHOWHIST
280
    1
  9
$DWFFRAME
280
    2
  9
$DGNFRAME
280
    0
  9
$REALWORLDSCALE
290
    1
  9
$INTERFERECOLOR
 62
    1
  9
$CSHADOW
280
    0
  9
$SHADOWPLANELOCATION
 40
0
  0
ENDSEC
  0
SECTION
  2
CLASSES
  0
ENDSEC
  0
SECTION
  2
TABLES
  0
TABLE
  2
VPORT
  5
8
330
0
100
AcDbSymbolTable
 70
    1
  0
VPORT
  5
31
330
2
100
AcDbSymbolTableRecord
100
AcDbViewportTableRecord
  2
*ACTIVE
 70
    0
 10
0
 20
0
 11
1
 21
1
 12
97.84119154872144
 22
55.97221318327758
 13
0
 23
0
 14
10
 24
10
 15
10
 25
10
 16
0
 26
0
 36
1
 17
0
 27
0
 37
0
 40
179.81624392738
 41
1.26062091503268
 42
50
 43
0
 44
0
 50
0
 51
0
 71
    0
 72
  100
 73
    1
 74
    3
 75
    0
 76
    1
 77
    0
 78
    0
281
    0
 65
    1
110
0
120
0
130
0
111
1
121
0
131
0
112
0
122
1
132
0
 79
    0
146
0
348
10020
 60
    7
 61
    5
292
1
282
    1
141
0
142
0
 63
  250
421
3358443
  0
ENDTAB
  0
TABLE
  2
LTYPE
  5
5
330
0
100
AcDbSymbolTable
 70
    4
  0
LTYPE
  5
14
330
5
100
AcDbSymbolTableRecord
100
AcDbLinetypeTableRecord
  2
ByBlock
 70
    0
  3

 72
   65
 73
    0
 40
0
  0
LTYPE
  5
15
330
5
100
AcDbSymbolTableRecord
100
AcDbLinetypeTableRecord
  2
ByLayer
 70
    0
  3

 72
   65
 73
    0
 40
0
  0
LTYPE
  5
16
330
5
100
AcDbSymbolTableRecord
100
AcDbLinetypeTableRecord
  2
Continuous
 70
    0
  3
Solid line
 72
   65
 73
    0
 40
0
  0
LTYPE
  5
32
330
5
100
AcDbSymbolTableRecord
100
AcDbLinetypeTableRecord
  2
DOT
 70
    0
  3
Dot . . . . . . . . . . . . . . . . . . . . . .
 72
   65
 73
    2
 40
6.35
 49
0
 74
    0
 49
-6.35
 74
    0
  0
LTYPE
  5
33
330
5
100
AcDbSymbolTableRecord
100
AcDbLinetypeTableRecord
  2
DOTTINY
 70
    0
  3
Dot (.15x) .....................................
 72
   65
 73
    2
 40
0.9525
 49
0
 74
    0
 49
-0.9525
 74
    0
  0
LTYPE
  5
34
330
5
100
AcDbSymbolTableRecord
100
AcDbLinetypeTableRecord
  2
DOT2
 70
    0
  3
Dot (.5x) .....................................
 72
   65
 73
    2
 40
3.175
 49
0
 74
    0
 49
-3.175
 74
    0
  0
LTYPE
  5
35
330
5
100
AcDbSymbolTableRecord
100
AcDbLinetypeTableRecord
  2
DOTX2
 70
    0
  3
Dot (2x) .  .  .  .  .  .  .  .  .  .  .  .  .
 72
   65
 73
    2
 40
12.7
 49
0
 74
    0
 49
-12.7
 74
    0
  0
LTYPE
  5
36
330
5
100
AcDbSymbolTableRecord
100
AcDbLinetypeTableRecord
  2
DASHED
 70
    0
  3
Dashed _ _ _ _ _ _ _ _ _ _ _ _ _ _ _ _ _
 72
   65
 73
    2
 40
19.05
 49
12.7
 74
    0
 49
-6.35
 74
    0
  0
LTYPE
  5
37
330
5
100
AcDbSymbolTableRecord
100
AcDbLinetypeTableRecord
  2
DASHEDTINY
 70
    0
  3
Dashed (.15x) _ _ _ _ _ _ _ _ _ _ _ _ _ _ _ _ _
 72
   65
 73
    2
 40
2.8575
 49
1.905
 74
    0
 49
-0.9525
 74
    0
  0
LTYPE
  5
38
330
5
100
AcDbSymbolTableRecord
100
AcDbLinetypeTableRecord
  2
DASHED2
 70
    0
  3
Dashed (.5x) _ _ _ _ _ _ _ _ _ _ _ _ _ _ _ _ _
 72
   65
 73
    2
 40
9.524999999999999
 49
6.35
 74
    0
 49
-3.175
 74
    0
  0
LTYPE
  5
39
330
5
100
AcDbSymbolTableRecord
100
AcDbLinetypeTableRecord
  2
DASHEDX2
 70
    0
  3
Dashed (2x) ____  ____  ____  ____  ____  ___
 72
   65
 73
    2
 40
38.09999999999999
 49
25.4
 74
    0
 49
-12.7
 74
    0
  0
LTYPE
  5
3A
330
5
100
AcDbSymbolTableRecord
100
AcDbLinetypeTableRecord
  2
DASHDOT
 70
    0
  3
Dash dot __ . __ . __ . __ . __ . __ . __ . __
 72
   65
 73
    4
 40
25.4
 49
12.7
 74
    0
 49
-6.35
 74
    0
 49
0
 74
    0
 49
-6.35
 74
    0
  0
LTYPE
  5
3B
330
5
100
AcDbSymbolTableRecord
100
AcDbLinetypeTableRecord
  2
DASHDOTTINY
 70
    0
  3
Dash dot (.15x) _._._._._._._._._._._._._._._.
 72
   65
 73
    4
 40
3.81
 49
1.905
 74
    0
 49
-0.9525
 74
    0
 49
0
 74
    0
 49
-0.9525
 74
    0
  0
LTYPE
  5
3C
330
5
100
AcDbSymbolTableRecord
100
AcDbLinetypeTableRecord
  2
DASHDOT2
 70
    0
  3
Dash dot (.5x) _._._._._._._._._._._._._._._.
 72
   65
 73
    4
 40
12.7
 49
6.35
 74
    0
 49
-3.175
 74
    0
 49
0
 74
    0
 49
-3.175
 74
    0
  0
LTYPE
  5
3D
330
5
100
AcDbSymbolTableRecord
100
AcDbLinetypeTableRecord
  2
DASHDOTX2
 70
    0
  3
Dash dot (2x) ____  .  ____  .  ____  .  ___
 72
   65
 73
    4
 40
50.8
 49
25.4
 74
    0
 49
-12.7
 74
    0
 49
0
 74
    0
 49
-12.7
 74
    0
  0
LTYPE
  5
3E
330
5
100
AcDbSymbolTableRecord
100
AcDbLinetypeTableRecord
  2
DIVIDE
 70
    0
  3
Divide ____ . . ____ . . ____ . . ____ . . ____
 72
   65
 73
    6
 40
31.75
 49
12.7
 74
    0
 49
-6.35
 74
    0
 49
0
 74
    0
 49
-6.35
 74
    0
 49
0
 74
    0
 49
-6.35
 74
    0
  0
LTYPE
  5
3F
330
5
100
AcDbSymbolTableRecord
100
AcDbLinetypeTableRecord
  2
DIVIDETINY
 70
    0
  3
Divide (.15x) __..__..__..__..__..__..__..__.._
 72
   65
 73
    6
 40
4.7625
 49
1.905
 74
    0
 49
-0.9525
 74
    0
 49
0
 74
    0
 49
-0.9525
 74
    0
 49
0
 74
    0
 49
-0.9525
 74
    0
  0
LTYPE
  5
40
330
5
100
AcDbSymbolTableRecord
100
AcDbLinetypeTableRecord
  2
DIVIDE2
 70
    0
  3
Divide (.5x) __..__..__..__..__..__..__..__.._
 72
   65
 73
    6
 40
15.875
 49
6.35
 74
    0
 49
-3.175
 74
    0
 49
0
 74
    0
 49
-3.175
 74
    0
 49
0
 74
    0
 49
-3.175
 74
    0
  0
LTYPE
  5
41
330
5
100
AcDbSymbolTableRecord
100
AcDbLinetypeTableRecord
  2
DIVIDEX2
 70
    0
  3
Divide (2x) ________  .  .  ________  .  .  _
 72
   65
 73
    6
 40
63.5
 49
25.4
 74
    0
 49
-12.7
 74
    0
 49
0
 74
    0
 49
-12.7
 74
    0
 49
0
 74
    0
 49
-12.7
 74
    0
  0
LTYPE
  5
42
330
5
100
AcDbSymbolTableRecord
100
AcDbLinetypeTableRecord
  2
BORDER
 70
    0
  3
Border __ __ . __ __ . __ __ . __ __ . __ __ .
 72
   65
 73
    6
 40
44.45
 49
12.7
 74
    0
 49
-6.35
 74
    0
 49
12.7
 74
    0
 49
-6.35
 74
    0
 49
0
 74
    0
 49
-6.35
 74
    0
  0
LTYPE
  5
43
330
5
100
AcDbSymbolTableRecord
100
AcDbLinetypeTableRecord
  2
BORDERTINY
 70
    0
  3
Border (.15x) __.__.__.__.__.__.__.__.__.__.__.
 72
   65
 73
    6
 40
6.6675
 49
1.905
 74
    0
 49
-0.9525
 74
    0
 49
1.905
 74
    0
 49
-0.9525
 74
    0
 49
0
 74
    0
 49
-0.9525
 74
    0
  0
LTYPE
  5
44
330
5
100
AcDbSymbolTableRecord
100
AcDbLinetypeTableRecord
  2
BORDER2
 70
    0
  3
Border (.5x) __.__.__.__.__.__.__.__.__.__.__.
 72
   65
 73
    6
 40
22.225
 49
6.35
 74
    0
 49
-3.175
 74
    0
 49
6.35
 74
    0
 49
-3.175
 74
    0
 49
0
 74
    0
 49
-3.175
 74
    0
  0
LTYPE
  5
45
330
5
100
AcDbSymbolTableRecord
100
AcDbLinetypeTableRecord
  2
BORDERX2
 70
    0
  3
Border (2x) ____  ____  .  ____  ____  .  ___
 72
   65
 73
    6
 40
88.89999999999999
 49
25.4
 74
    0
 49
-12.7
 74
    0
 49
25.4
 74
    0
 49
-12.7
 74
    0
 49
0
 74
    0
 49
-12.7
 74
    0
  0
LTYPE
  5
46
330
5
100
AcDbSymbolTableRecord
100
AcDbLinetypeTableRecord
  2
CENTER
 70
    0
  3
Center ____ _ ____ _ ____ _ ____ _ ____ _ ____
 72
   65
 73
    4
 40
50.8
 49
31.75
 74
    0
 49
-6.35
 74
    0
 49
6.35
 74
    0
 49
-6.35
 74
    0
  0
LTYPE
  5
47
330
5
100
AcDbSymbolTableRecord
100
AcDbLinetypeTableRecord
  2
CENTERTINY
 70
    0
  3
Center (.15x) ___ _ ___ _ ___ _ ___ _ ___ _ ___
 72
   65
 73
    4
 40
7.62
 49
4.7625
 74
    0
 49
-0.9525
 74
    0
 49
0.9525
 74
    0
 49
-0.9525
 74
    0
  0
LTYPE
  5
48
330
5
100
AcDbSymbolTableRecord
100
AcDbLinetypeTableRecord
  2
CENTER2
 70
    0
  3
Center (.5x) ___ _ ___ _ ___ _ ___ _ ___ _ ___
 72
   65
 73
    4
 40
28.575
 49
19.05
 74
    0
 49
-3.175
 74
    0
 49
3.175
 74
    0
 49
-3.175
 74
    0
  0
LTYPE
  5
49
330
5
100
AcDbSymbolTableRecord
100
AcDbLinetypeTableRecord
  2
CENTERX2
 70
    0
  3
Center (2x) ________  __  ________  __  _____
 72
   65
 73
    4
 40
101.6
 49
63.5
 74
    0
 49
-12.7
 74
    0
 49
12.7
 74
    0
 49
-12.7
 74
    0
  0
ENDTAB
  0
TABLE
  2
LAYER
  5
2
330
0
100
AcDbSymbolTable
 70
    1
  0
LAYER
  5
10
330
2
100
AcDbSymbolTableRecord
100
AcDbLayerTableRecord
  2
0
 70
    1
 62
    7
  6
CONTINUOUS
370
    0
390
F
  0
LAYER
  5
4A
330
2
100
AcDbSymbolTableRecord
100
AcDbLayerTableRecord
  2
board
 70
    0
 62
   34
420
11162880
  6
CONTINUOUS
370
    0
390
F
  0
LAYER
  5
4B
330
2
100
AcDbSymbolTableRecord
100
AcDbLayerTableRecord
  2
construction
 70
    0
 62
    2
  6
CONTINUOUS
370
    0
390
F
  0
LAYER
  5
4C
330
2
100
AcDbSymbolTableRecord
100
AcDbLayerTableRecord
  2
handle1
 70
    0
 62
    7
  6
CONTINUOUS
370
    0
390
F
  0
LAYER
  5
4D
330
2
100
AcDbSymbolTableRecord
100
AcDbLayerTableRecord
  2
handle4-back
 70
    0
 62
    7
  6
CONTINUOUS
370
    0
390
F
  0
LAYER
  5
4E
330
2
100
AcDbSymbolTableRecord
100
AcDbLayerTableRecord
  2
handle2
 70
    0
 62
    7
  6
CONTINUOUS
370
    0
390
F
  0
LAYER
  5
4F
330
2
100
AcDbSymbolTableRecord
100
AcDbLayerTableRecord
  2
handle3
 70
    0
 62
    7
  6
CONTINUOUS
370
    0
390
F
  0
LAYER
  5
50
330
2
100
AcDbSymbolTableRecord
100
AcDbLayerTableRecord
  2
spacer tabs1
 70
    0
 62
    7
  6
CONTINUOUS
370
   -3
390
F
  0
LAYER
  5
51
330
2
100
AcDbSymbolTableRecord
100
AcDbLayerTableRecord
  2
spacer tabs2
 70
    0
 62
    7
  6
CONTINUOUS
370
    0
390
F
  0
ENDTAB
  0
TABLE
  2
STYLE
  5
3
330
0
100
AcDbSymbolTable
 70
    3
  0
STYLE
  5
52
330
2
100
AcDbSymbolTableRecord
100
AcDbTextStyleTableRecord
  2
Standard
 70
    0
 40
0
 41
1
 50
0
 71
    0
 42
1
  3
txt
  4

  0
ENDTAB
  0
TABLE
  2
VIEW
  5
6
330
0
100
AcDbSymbolTable
 70
    0
  0
ENDTAB
  0
TABLE
  2
UCS
  5
7
330
0
100
AcDbSymbolTable
 70
    0
  0
ENDTAB
  0
TABLE
  2
APPID
  5
9
330
0
100
AcDbSymbolTable
 70
    1
  0
APPID
  5
12
330
9
100
AcDbSymbolTableRecord
100
AcDbRegAppTableRecord
  2
ACAD
 70
    0
  0
APPID
  5
53
330
9
100
AcDbSymbolTableRecord
100
AcDbRegAppTableRecord
  2
LibreCad
 70
    0
  0
ENDTAB
  0
TABLE
  2
DIMSTYLE
  5
A
330
0
100
AcDbSymbolTable
 70
    1
100
AcDbDimStyleTable
 71
    1
  0
DIMSTYLE
105
54
330
A
100
AcDbSymbolTableRecord
100
AcDbDimStyleTableRecord
  2
Standard
 70
    0
 40
1
 41
2.5
 42
0.025
 43
0.38
 44
1.25
 45
0
 46
0
 47
0
 48
0
 49
1
140
2
141
0.09
142
0
143
25.4
144
1
145
0
146
1
147
0.5
148
0
 71
    0
 72
    0
 73
    0
 74
    1
 75
    0
 76
    0
 77
    0
 78
    8
 79
    0
170
    0
171
    2
172
    0
173
    0
174
    0
175
    0
176
    0
177
    0
178
    0
179
    0
271
    2
272
    4
273
    2
274
    2
275
    0
276
    0
277
    2
278
    0
279
    0
280
    0
281
    0
282
    0
283
    1
284
    0
285
    0
286
    0
288
    0
289
    3
340
standard
341

371
   -2
372
   -2
  0
ENDTAB
  0
TABLE
  2
BLOCK_RECORD
  5
1
330
0
100
AcDbSymbolTable
 70
    2
  0
BLOCK_RECORD
  5
1F
330
1
100
AcDbSymbolTableRecord
100
AcDbBlockTableRecord
  2
*Model_Space
 70
    0
280
    1
281
    0
  0
BLOCK_RECORD
  5
1E
330
1
100
AcDbSymbolTableRecord
100
AcDbBlockTableRecord
  2
*Paper_Space
 70
    0
280
    1
281
    0
  0
BLOCK_RECORD
  5
55
330
1
100
AcDbSymbolTableRecord
100
AcDbBlockTableRecord
  2
button-block
 70
    0
280
    1
281
    0
  0
BLOCK_RECORD
  5
58
330
1
100
AcDbSymbolTableRecord
100
AcDbBlockTableRecord
  2
potentiometer
 70
    0
280
    1
281
    0
  0
BLOCK_RECORD
  5
5B
330
1
100
AcDbSymbolTableRecord
100
AcDbBlockTableRecord
  2
spacers
 70
    0
280
    1
281
    0
  0
BLOCK_RECORD
  5
5E
330
1
100
AcDbSymbolTableRecord
100
AcDbBlockTableRecord
  2
5x7
 70
    0
280
    1
281
    0
  0
BLOCK_RECORD
  5
61
330
1
100
AcDbSymbolTableRecord
100
AcDbBlockTableRecord
  2
slot
 70
    0
280
    1
281
    0
  0
BLOCK_RECORD
  5
64
330
1
100
AcDbSymbolTableRecord
100
AcDbBlockTableRecord
  2
20mm spacer
 70
    0
280
    1
281
    0
  0
BLOCK_RECORD
  5
67
330
1
100
AcDbSymbolTableRecord
100
AcDbBlockTableRecord
  2
large LED
 70
    0
280
    1
281
    0
  0
BLOCK_RECORD
  5
6A
330
1
100
AcDbSymbolTableRecord
100
AcDbBlockTableRecord
  2
button-block-0
 70
    0
280
    1
281
    0
  0
BLOCK_RECORD
  5
6D
330
1
100
AcDbSymbolTableRecord
100
AcDbBlockTableRecord
  2
potentiometer-0
 70
    0
280
    1
281
    0
  0
BLOCK_RECORD
  5
70
330
1
100
AcDbSymbolTableRecord
100
AcDbBlockTableRecord
  2
spacers-0
 70
    0
280
    1
281
    0
  0
BLOCK_RECORD
  5
73
330
1
100
AcDbSymbolTableRecord
100
AcDbBlockTableRecord
  2
5x7-0
 70
    0
280
    1
281
    0
  0
BLOCK_RECORD
  5
76
330
1
100
AcDbSymbolTableRecord
100
AcDbBlockTableRecord
  2
slot-0
 70
    0
280
    1
281
    0
  0
BLOCK_RECORD
  5
79
330
1
100
AcDbSymbolTableRecord
100
AcDbBlockTableRecord
  2
20mm spacer-0
 70
    0
280
    1
281
    0
  0
BLOCK_RECORD
  5
7C
330
1
100
AcDbSymbolTableRecord
100
AcDbBlockTableRecord
  2
large LED-0
 70
    0
280
    1
281
    0
  0
BLOCK_RECORD
  5
7F
330
1
100
AcDbSymbolTableRecord
100
AcDbBlockTableRecord
  2
spacers-1
 70
    0
280
    1
281
    0
  0
BLOCK_RECORD
  5
82
330
1
100
AcDbSymbolTableRecord
100
AcDbBlockTableRecord
  2
button-block-1
 70
    0
280
    1
281
    0
  0
BLOCK_RECORD
  5
85
330
1
100
AcDbSymbolTableRecord
100
AcDbBlockTableRecord
  2
potentiometer-1
 70
    0
280
    1
281
    0
  0
BLOCK_RECORD
  5
88
330
1
100
AcDbSymbolTableRecord
100
AcDbBlockTableRecord
  2
spacers-2
 70
    0
280
    1
281
    0
  0
BLOCK_RECORD
  5
8B
330
1
100
AcDbSymbolTableRecord
100
AcDbBlockTableRecord
  2
5x7-1
 70
    0
280
    1
281
    0
  0
BLOCK_RECORD
  5
8E
330
1
100
AcDbSymbolTableRecord
100
AcDbBlockTableRecord
  2
slot-1
 70
    0
280
    1
281
    0
  0
BLOCK_RECORD
  5
91
330
1
100
AcDbSymbolTableRecord
100
AcDbBlockTableRecord
  2
20mm spacer-1
 70
    0
280
    1
281
    0
  0
BLOCK_RECORD
  5
94
330
1
100
AcDbSymbolTableRecord
100
AcDbBlockTableRecord
  2
large LED-1
 70
    0
280
    1
281
    0
  0
BLOCK_RECORD
  5
97
330
1
100
AcDbSymbolTableRecord
100
AcDbBlockTableRecord
  2
plot-spacers
 70
    0
280
    1
281
    0
  0
ENDTAB
  0
ENDSEC
  0
SECTION
  2
BLOCKS
  0
BLOCK
  5
20
330
1F
100
AcDbEntity
  8
0
100
AcDbBlockBegin
  2
*Model_Space
 70
    0
 10
0
 20
0
 30
0
  3
*Model_Space
  1

  0
ENDBLK
  5
21
330
1F
100
AcDbEntity
  8
0
100
AcDbBlockEnd
  0
BLOCK
  5
1C
330
1B
100
AcDbEntity
  8
0
100
AcDbBlockBegin
  2
*Paper_Space
 70
    0
 10
0
 20
0
 30
0
  3
*Paper_Space
  1

  0
ENDBLK
  5
1D
330
1F
100
AcDbEntity
  8
0
100
AcDbBlockEnd
  0
BLOCK
  5
56
330
55
100
AcDbEntity
  8
0
100
AcDbBlockBegin
  2
button-block
 70
    0
 10
0
 20
0
  3
button-block
  1

  0
LWPOLYLINE
  5
9A
100
AcDbEntity
  8
0
  6
ByLayer
 62
  256
370
   -1
100
AcDbPolyline
 90
    4
 70
    1
 43
0
 10
-12.5
 20
3.000000000000001
 10
-12.5
 20
3.000000000000001
 10
-12.5
 20
3.000000000000001
 10
-12.5
 20
3.000000000000001
  0
LWPOLYLINE
  5
9B
100
AcDbEntity
  8
0
  6
ByLayer
 62
    1
370
   -1
100
AcDbPolyline
 90
    4
 70
    1
 43
0
 10
-12.5
 20
-2.999999999999999
 10
-9
 20
-2.999999999999999
 10
-9
 20
3.000000000000001
 10
-12.5
 20
3.000000000000001
  0
LINE
  5
9C
100
AcDbEntity
  8
0
  6
ByLayer
 62
    8
370
   -1
100
AcDbLine
 10
2
 20
-3.499999999999999
 11
8.25
 21
-3.499999999999999
  0
LINE
  5
9D
100
AcDbEntity
  8
0
  6
ByLayer
 62
    8
370
   -1
100
AcDbLine
 10
8.25
 20
3.500000000000001
 11
2
 21
3.500000000000001
  0
LINE
  5
9E
100
AcDbEntity
  8
0
  6
ByLayer
 62
  253
420
10526884
370
   -1
100
AcDbLine
 10
-9
 20
-1.999999999999999
 11
-6.5
 21
-1.999999999999999
  0
LINE
  5
9F
100
AcDbEntity
  8
0
  6
ByLayer
 62
  253
420
10526884
370
   -1
100
AcDbLine
 10
-6.5
 20
2.000000000000001
 11
-9
 21
2.000000000000001
  0
LWPOLYLINE
  5
A0
100
AcDbEntity
  8
0
  6
ByLayer
 62
    7
370
   -1
100
AcDbPolyline
 90
    4
 70
    1
 43
0
 10
0
 20
-4.999999999999999
 10
2
 20
-4.999999999999999
 10
2
 20
5.000000000000001
 10
0
 20
5.000000000000001
  0
LINE
  5
A1
100
AcDbEntity
  8
0
  6
ByLayer
 62
    7
370
   -1
100
AcDbLine
 10
8.25
 20
-3.499999999999999
 11
8.25
 21
3.500000000000001
  0
LINE
  5
A2
100
AcDbEntity
  8
0
  6
ByLayer
 62
    7
370
   -1
100
AcDbLine
 10
-6.5
 20
-3.539999999999999
 11
0
 21
-3.539999999999999
  0
LINE
  5
A3
100
AcDbEntity
  8
0
  6
ByLayer
 62
    7
370
   -1
100
AcDbLine
 10
0
 20
3.540000000000001
 11
-6.5
 21
3.540000000000001
  0
LINE
  5
A4
100
AcDbEntity
  8
0
  6
ByLayer
 62
    7
370
   -1
100
AcDbLine
 10
-6.5
 20
3.540000000000001
 11
-6.5
 21
-3.539999999999999
  0
CIRCLE
  5
A5
100
AcDbEntity
  8
0
  6
ByLayer
 62
    7
370
   -1
100
AcDbCircle
 10
13.5
 20
1.127570259384925e-015
 40
0.5
  0
LINE
  5
A6
100
AcDbEntity
  8
0
  6
ByLayer
 62
    7
370
   -1
100
AcDbLine
 10
13.5
 20
1.000000000000001
 11
8.25
 21
1.000000000000001
  0
LINE
  5
A7
100
AcDbEntity
  8
0
  6
ByLayer
 62
    7
370
   -1
100
AcDbLine
 10
8.25
 20
-0.999999999999999
 11
13.49999973529911
 21
-0.999999999999999
  0
ARC
  5
A8
100
AcDbEntity
  8
0
  6
ByLayer
 62
    7
370
   -1
100
AcDbCircle
 10
13.5
 20
1.127570259384925e-015
 40
1
100
AcDbArc
 50
270.0000245596733
 51
90
  0
LINE
  5
A9
100
AcDbEntity
  8
0
  6
ByLayer
 62
    7
370
   -1
100
AcDbLine
 10
-5.5575
 20
-3.539999999999999
 11
-5.5
 21
-3.999999999999999
  0
LINE
  5
AA
100
AcDbEntity
  8
0
  6
ByLayer
 62
    7
370
   -1
100
AcDbLine
 10
-4.5
 20
-3.999999999999999
 11
-4.5575
 21
-3.539999999999999
  0
LINE
  5
AB
100
AcDbEntity
  8
0
  6
ByLayer
 62
    7
370
   -1
100
AcDbLine
 10
-3.557499999999999
 20
-3.539999999999999
 11
-3.5
 21
-3.999999999999999
  0
LINE
  5
AC
100
AcDbEntity
  8
0
  6
ByLayer
 62
    7
370
   -1
100
AcDbLine
 10
-2.557499999999999
 20
-3.539999999999999
 11
-2.5
 21
-3.999999999999999
  0
LINE
  5
AD
100
AcDbEntity
  8
0
  6
ByLayer
 62
    7
370
   -1
100
AcDbLine
 10
-1.557499999999999
 20
-3.539999999999999
 11
-1.5
 21
-3.999999999999999
  0
LINE
  5
AE
100
AcDbEntity
  8
0
  6
ByLayer
 62
    7
370
   -1
100
AcDbLine
 10
-0.5574999999999992
 20
-3.539999999999999
 11
-0.5
 21
-3.999999999999999
  0
LINE
  5
AF
100
AcDbEntity
  8
0
  6
ByLayer
 62
    7
370
   -1
100
AcDbLine
 10
-0.5
 20
4.000000000000001
 11
-0.4425000000000008
 21
3.540000000000001
  0
LINE
  5
B0
100
AcDbEntity
  8
0
  6
ByLayer
 62
    7
370
   -1
100
AcDbLine
 10
-0.4425000000000008
 20
3.540000000000001
 11
0
 21
1.002670169114595e-015
  0
LINE
  5
B1
100
AcDbEntity
  8
0
  6
ByLayer
 62
    7
370
   -1
100
AcDbLine
 10
-1.5
 20
4.000000000000001
 11
-1.442499999999999
 21
3.540000000000001
  0
LINE
  5
B2
100
AcDbEntity
  8
0
  6
ByLayer
 62
    7
370
   -1
100
AcDbLine
 10
-1.442499999999999
 20
3.540000000000001
 11
-0.5574999999999992
 21
-3.539999999999999
  0
LINE
  5
B3
100
AcDbEntity
  8
0
  6
ByLayer
 62
    7
370
   -1
100
AcDbLine
 10
-2.5
 20
4.000000000000001
 11
-2.442500000000001
 21
3.540000000000001
  0
LINE
  5
B4
100
AcDbEntity
  8
0
  6
ByLayer
 62
    7
370
   -1
100
AcDbLine
 10
-2.442500000000001
 20
3.540000000000001
 11
-1.557499999999999
 21
-3.539999999999999
  0
LINE
  5
B5
100
AcDbEntity
  8
0
  6
ByLayer
 62
    7
370
   -1
100
AcDbLine
 10
-3.5
 20
4.000000000000001
 11
-3.442499999999999
 21
3.540000000000001
  0
LINE
  5
B6
100
AcDbEntity
  8
0
  6
ByLayer
 62
    7
370
   -1
100
AcDbLine
 10
-3.442499999999999
 20
3.540000000000001
 11
-2.557499999999999
 21
-3.539999999999999
  0
LINE
  5
B7
100
AcDbEntity
  8
0
  6
ByLayer
 62
    7
370
   -1
100
AcDbLine
 10
-4.5
 20
4.000000000000001
 11
-4.442500000000001
 21
3.540000000000001
  0
LINE
  5
B8
100
AcDbEntity
  8
0
  6
ByLayer
 62
    7
370
   -1
100
AcDbLine
 10
-4.442500000000001
 20
3.540000000000001
 11
-3.557499999999999
 21
-3.539999999999999
  0
LINE
  5
B9
100
AcDbEntity
  8
0
  6
ByLayer
 62
    7
370
   -1
100
AcDbLine
 10
-4.5575
 20
-3.539999999999999
 11
-5.4425
 21
3.540000000000001
  0
LINE
  5
BA
100
AcDbEntity
  8
0
  6
ByLayer
 62
    7
370
   -1
100
AcDbLine
 10
-5.4425
 20
3.540000000000001
 11
-5.5
 21
4.000000000000001
  0
LINE
  5
BB
100
AcDbEntity
  8
0
  6
ByLayer
 62
    7
370
   -1
100
AcDbLine
 10
-6.4425
 20
3.540000000000001
 11
-5.5575
 21
-3.539999999999999
  0
ENDBLK
  5
57
330
55
100
AcDbEntity
  8
0
100
AcDbBlockEnd
  0
BLOCK
  5
59
330
58
100
AcDbEntity
  8
0
100
AcDbBlockBegin
  2
potentiometer
 70
    0
 10
0
 20
0
  3
potentiometer
  1

  0
LINE
  5
BC
100
AcDbEntity
  8
0
  6
ByLayer
 62
  256
370
   -1
100
AcDbLine
 10
-3.5
 20
7.5
 11
-3.5
 21
-7.5
  0
LWPOLYLINE
  5
BD
100
AcDbEntity
  8
0
  6
ByLayer
 62
   56
420
8421376
370
   -1
100
AcDbPolyline
 90
    4
 70
    1
 43
0
 10
-9
 20
-8.5
 10
-3.5
 20
-8.5
 10
-3.5
 20
8.5
 10
-9
 20
8.5
  0
LINE
  5
BE
100
AcDbEntity
  8
0
  6
ByLayer
 62
   34
420
11162880
370
   -1
100
AcDbLine
 10
-2
 20
7.5
 11
-3.5
 21
7.5
  0
LINE
  5
BF
100
AcDbEntity
  8
0
  6
ByLayer
 62
   34
420
11162880
370
   -1
100
AcDbLine
 10
-2
 20
-12
 11
-3.5
 21
-12
  0
LINE
  5
C0
100
AcDbEntity
  8
0
  6
ByLayer
 62
   34
420
11162880
370
   -1
100
AcDbLine
 10
-3.5
 20
-12
 11
-3.5
 21
-8.5
  0
LINE
  5
C1
100
AcDbEntity
  8
0
  6
ByLayer
 62
   34
420
11162880
370
   -1
100
AcDbLine
 10
-2
 20
-12
 11
-2
 21
7.5
  0
LINE
  5
C2
100
AcDbEntity
  8
0
  6
ByLayer
 62
  253
420
10526884
370
   -1
100
AcDbLine
 10
-3.920000000000002
 20
-8.5
 11
-3.920000000000002
 21
-17
  0
LINE
  5
C3
100
AcDbEntity
  8
0
  6
ByLayer
 62
  253
420
10526884
370
   -1
100
AcDbLine
 10
-3.920000000000002
 20
-17
 11
-3.5
 21
-17
  0
LINE
  5
C4
100
AcDbEntity
  8
0
  6
ByLayer
 62
  253
420
10526884
370
   -1
100
AcDbLine
 10
-3.5
 20
-17
 11
-3.5
 21
-12
  0
LWPOLYLINE
  5
C5
100
AcDbEntity
  8
0
  6
ByLayer
 62
  253
420
10526884
370
   -1
100
AcDbPolyline
 90
    4
 70
    1
 43
0
 10
6.5
 20
-3
 10
15
 20
-3
 10
15
 20
3
 10
6.5
 20
3
  0
LINE
  5
C6
100
AcDbEntity
  8
0
  6
ByLayer
 62
  253
420
10526884
370
   -1
100
AcDbLine
 10
7
 20
2
 11
14
 21
2
  0
LINE
  5
C7
100
AcDbEntity
  8
0
  6
ByLayer
 62
  253
420
10526884
370
   -1
100
AcDbLine
 10
7
 20
1
 11
14
 21
1
  0
LINE
  5
C8
100
AcDbEntity
  8
0
  6
ByLayer
 62
  253
420
10526884
370
   -1
100
AcDbLine
 10
7
 20
0
 11
14
 21
0
  0
LINE
  5
C9
100
AcDbEntity
  8
0
  6
ByLayer
 62
  253
420
10526884
370
   -1
100
AcDbLine
 10
7
 20
-1
 11
14
 21
-1
  0
LINE
  5
CA
100
AcDbEntity
  8
0
  6
ByLayer
 62
  253
420
10526884
370
   -1
100
AcDbLine
 10
7
 20
-2
 11
14
 21
-2
  0
LWPOLYLINE
  5
CB
100
AcDbEntity
  8
0
  6
ByLayer
 62
    7
370
   -1
100
AcDbPolyline
 90
    4
 70
    1
 43
0
 10
0
 20
-3.5
 10
6.5
 20
-3.5
 10
6.5
 20
3.5
 10
0
 20
3.5
  0
LINE
  5
CC
100
AcDbEntity
  8
0
  6
ByLayer
 62
    7
370
   -1
100
AcDbLine
 10
0
 20
3.5
 11
1
 21
-4
  0
LINE
  5
CD
100
AcDbEntity
  8
0
  6
ByLayer
 62
    7
370
   -1
100
AcDbLine
 10
6
 20
-4
 11
5
 21
4
  0
LINE
  5
CE
100
AcDbEntity
  8
0
  6
ByLayer
 62
    7
370
   -1
100
AcDbLine
 10
5
 20
-4
 11
4
 21
4
  0
LINE
  5
CF
100
AcDbEntity
  8
0
  6
ByLayer
 62
    7
370
   -1
100
AcDbLine
 10
3
 20
4
 11
4
 21
-4
  0
LINE
  5
D0
100
AcDbEntity
  8
0
  6
ByLayer
 62
    7
370
   -1
100
AcDbLine
 10
3
 20
-4
 11
2
 21
4
  0
LINE
  5
D1
100
AcDbEntity
  8
0
  6
ByLayer
 62
    7
370
   -1
100
AcDbLine
 10
1
 20
4
 11
2
 21
-4
  0
LINE
  5
D2
100
AcDbEntity
  8
0
  6
ByLayer
 62
    7
370
   -1
100
AcDbLine
 10
6
 20
4
 11
6.5
 21
0
  0
LINE
  5
D3
100
AcDbEntity
  8
0
  6
ByLayer
 62
    7
370
   -1
100
AcDbLine
 10
0
 20
-5
 11
0
 21
5
  0
LINE
  5
D4
100
AcDbEntity
  8
0
  6
ByLayer
 62
    7
370
   -1
100
AcDbLine
 10
0
 20
5
 11
-2
 21
5
  0
LINE
  5
D5
100
AcDbEntity
  8
0
  6
ByLayer
 62
    7
370
   -1
100
AcDbLine
 10
-2
 20
-5
 11
0
 21
-5
  0
ENDBLK
  5
5A
330
58
100
AcDbEntity
  8
0
100
AcDbBlockEnd
  0
BLOCK
  5
5C
330
5B
100
AcDbEntity
  8
0
100
AcDbBlockBegin
  2
spacers
 70
    0
 10
0
 20
0
  3
spacers
  1

  0
ENDBLK
  5
5D
330
5B
100
AcDbEntity
  8
0
100
AcDbBlockEnd
  0
BLOCK
  5
5F
330
5E
100
AcDbEntity
  8
0
100
AcDbBlockBegin
  2
5x7
 70
    0
 10
0
 20
0
  3
5x7
  1

  0
LWPOLYLINE
  5
D6
100
AcDbEntity
  8
board
  6
ByLayer
 62
  256
370
   -1
100
AcDbPolyline
 90
    4
 70
    1
 43
0
 10
-220
 20
-120
 10
-42.19999999999999
 20
-120
 10
-42.19999999999999
 20
7
 10
-220
 20
7
  0
LWPOLYLINE
  5
D7
100
AcDbEntity
  8
board
  6
ByLayer
 62
   16
420
8388608
370
   -1
100
AcDbPolyline
 90
    4
 70
    1
 43
0
 10
-215
 20
-115
 10
-47.19999999999999
 20
-115
 10
-47.19999999999999
 20
2
 10
-215
 20
2
  0
ENDBLK
  5
60
330
5E
100
AcDbEntity
  8
0
100
AcDbBlockEnd
  0
BLOCK
  5
62
330
61
100
AcDbEntity
  8
0
100
AcDbBlockBegin
  2
slot
 70
    0
 10
0
 20
0
  3
slot
  1

  0
ENDBLK
  5
63
330
61
100
AcDbEntity
  8
0
100
AcDbBlockEnd
  0
BLOCK
  5
65
330
64
100
AcDbEntity
  8
0
100
AcDbBlockBegin
  2
20mm spacer
 70
    0
 10
0
 20
0
  3
20mm spacer
  1

  0
ENDBLK
  5
66
330
64
100
AcDbEntity
  8
0
100
AcDbBlockEnd
  0
BLOCK
  5
68
330
67
100
AcDbEntity
  8
0
100
AcDbBlockBegin
  2
large LED
 70
    0
 10
0
 20
0
  3
large LED
  1

  0
LINE
  5
D8
100
AcDbEntity
  8
0
  6
ByLayer
 62
  256
370
   -1
100
AcDbLine
 10
0
 20
5
 11
0
 21
0
  0
LINE
  5
D9
100
AcDbEntity
  8
0
  6
ByLayer
 62
  256
370
   -1
100
AcDbLine
 10
0
 20
-0.25
 11
1.2
 21
-0.25
  0
LINE
  5
DA
100
AcDbEntity
  8
0
  6
ByLayer
 62
  256
370
   -1
100
AcDbLine
 10
1.2
 20
5.25
 11
0
 21
5.25
  0
LINE
  5
DB
100
AcDbEntity
  8
0
  6
ByLayer
 62
  256
370
   -1
100
AcDbLine
 10
0
 20
5.25
 11
0
 21
-0.25
  0
LINE
  5
DC
100
AcDbEntity
  8
0
  6
ByLayer
 62
  256
370
   -1
100
AcDbLine
 10
1.2
 20
5
 11
1.2
 21
5.25
  0
LINE
  5
DD
100
AcDbEntity
  8
0
  6
ByLayer
 62
  256
370
   -1
100
AcDbLine
 10
1.2
 20
-0.25
 11
1.2
 21
0
  0
ARC
  5
DE
100
AcDbEntity
  8
0
  6
ByLayer
 62
  256
370
   -1
100
AcDbCircle
 10
6.25
 20
2.5
 40
2.5
100
AcDbArc
 50
269.9999964939658
 51
449.9999964939658
  0
LINE
  5
DF
100
AcDbEntity
  8
0
  6
ByLayer
 62
  256
370
   -1
100
AcDbLine
 10
6.249999847020401
 20
5
 11
1.2
 21
5
  0
LINE
  5
E0
100
AcDbEntity
  8
0
  6
ByLayer
 62
  256
370
   -1
100
AcDbLine
 10
1.2
 20
0
 11
6.249999847020397
 21
4.884981308350689e-015
  0
LINE
  5
E1
100
AcDbEntity
  8
0
  6
ByLayer
 62
  256
370
   -1
100
AcDbLine
 10
9.194034422677078e-017
 20
3.999999999999997
 11
-6
 21
3.999999999999997
  0
LINE
  5
E2
100
AcDbEntity
  8
0
  6
ByLayer
 62
  256
370
   -1
100
AcDbLine
 10
-9.194034422677078e-017
 20
0.9999999999999973
 11
-8
 21
0.9999999999999973
  0
ENDBLK
  5
69
330
67
100
AcDbEntity
  8
0
100
AcDbBlockEnd
  0
BLOCK
  5
6B
330
6A
100
AcDbEntity
  8
0
100
AcDbBlockBegin
  2
button-block-0
 70
    0
 10
0
 20
0
  3
button-block-0
  1

  0
LWPOLYLINE
  5
E3
100
AcDbEntity
  8
0
  6
ByLayer
 62
  256
370
   -1
100
AcDbPolyline
 90
    4
 70
    1
 43
0
 10
-12.5
 20
3.000000000000001
 10
-12.5
 20
3.000000000000001
 10
-12.5
 20
3.000000000000001
 10
-12.5
 20
3.000000000000001
  0
LWPOLYLINE
  5
E4
100
AcDbEntity
  8
0
  6
ByLayer
 62
    1
370
   -1
100
AcDbPolyline
 90
    4
 70
    1
 43
0
 10
-12.5
 20
-2.999999999999999
 10
-9
 20
-2.999999999999999
 10
-9
 20
3.000000000000001
 10
-12.5
 20
3.000000000000001
  0
LINE
  5
E5
100
AcDbEntity
  8
0
  6
ByLayer
 62
    8
370
   -1
100
AcDbLine
 10
2
 20
-3.499999999999999
 11
8.25
 21
-3.499999999999999
  0
LINE
  5
E6
100
AcDbEntity
  8
0
  6
ByLayer
 62
    8
370
   -1
100
AcDbLine
 10
8.25
 20
3.500000000000001
 11
2
 21
3.500000000000001
  0
LINE
  5
E7
100
AcDbEntity
  8
0
  6
ByLayer
 62
  253
420
10526884
370
   -1
100
AcDbLine
 10
-9
 20
-1.999999999999999
 11
-6.5
 21
-1.999999999999999
  0
LINE
  5
E8
100
AcDbEntity
  8
0
  6
ByLayer
 62
  253
420
10526884
370
   -1
100
AcDbLine
 10
-6.5
 20
2.000000000000001
 11
-9
 21
2.000000000000001
  0
LWPOLYLINE
  5
E9
100
AcDbEntity
  8
0
  6
ByLayer
 62
    7
370
   -1
100
AcDbPolyline
 90
    4
 70
    1
 43
0
 10
0
 20
-4.999999999999999
 10
2
 20
-4.999999999999999
 10
2
 20
5.000000000000001
 10
0
 20
5.000000000000001
  0
LINE
  5
EA
100
AcDbEntity
  8
0
  6
ByLayer
 62
    7
370
   -1
100
AcDbLine
 10
8.25
 20
-3.499999999999999
 11
8.25
 21
3.500000000000001
  0
LINE
  5
EB
100
AcDbEntity
  8
0
  6
ByLayer
 62
    7
370
   -1
100
AcDbLine
 10
-6.5
 20
-3.539999999999999
 11
0
 21
-3.539999999999999
  0
LINE
  5
EC
100
AcDbEntity
  8
0
  6
ByLayer
 62
    7
370
   -1
100
AcDbLine
 10
0
 20
3.540000000000001
 11
-6.5
 21
3.540000000000001
  0
LINE
  5
ED
100
AcDbEntity
  8
0
  6
ByLayer
 62
    7
370
   -1
100
AcDbLine
 10
-6.5
 20
3.540000000000001
 11
-6.5
 21
-3.539999999999999
  0
CIRCLE
  5
EE
100
AcDbEntity
  8
0
  6
ByLayer
 62
    7
370
   -1
100
AcDbCircle
 10
13.5
 20
1.127570259384925e-015
 40
0.5
  0
LINE
  5
EF
100
AcDbEntity
  8
0
  6
ByLayer
 62
    7
370
   -1
100
AcDbLine
 10
13.5
 20
1.000000000000001
 11
8.25
 21
1.000000000000001
  0
LINE
  5
F0
100
AcDbEntity
  8
0
  6
ByLayer
 62
    7
370
   -1
100
AcDbLine
 10
8.25
 20
-0.999999999999999
 11
13.49999973529911
 21
-0.999999999999999
  0
ARC
  5
F1
100
AcDbEntity
  8
0
  6
ByLayer
 62
    7
370
   -1
100
AcDbCircle
 10
13.5
 20
1.127570259384925e-015
 40
1
100
AcDbArc
 50
270.0000245596733
 51
90
  0
LINE
  5
F2
100
AcDbEntity
  8
0
  6
ByLayer
 62
    7
370
   -1
100
AcDbLine
 10
-5.5575
 20
-3.539999999999999
 11
-5.5
 21
-3.999999999999999
  0
LINE
  5
F3
100
AcDbEntity
  8
0
  6
ByLayer
 62
    7
370
   -1
100
AcDbLine
 10
-4.5
 20
-3.999999999999999
 11
-4.5575
 21
-3.539999999999999
  0
LINE
  5
F4
100
AcDbEntity
  8
0
  6
ByLayer
 62
    7
370
   -1
100
AcDbLine
 10
-3.557499999999999
 20
-3.539999999999999
 11
-3.5
 21
-3.999999999999999
  0
LINE
  5
F5
100
AcDbEntity
  8
0
  6
ByLayer
 62
    7
370
   -1
100
AcDbLine
 10
-2.557499999999999
 20
-3.539999999999999
 11
-2.5
 21
-3.999999999999999
  0
LINE
  5
F6
100
AcDbEntity
  8
0
  6
ByLayer
 62
    7
370
   -1
100
AcDbLine
 10
-1.557499999999999
 20
-3.539999999999999
 11
-1.5
 21
-3.999999999999999
  0
LINE
  5
F7
100
AcDbEntity
  8
0
  6
ByLayer
 62
    7
370
   -1
100
AcDbLine
 10
-0.5574999999999992
 20
-3.539999999999999
 11
-0.5
 21
-3.999999999999999
  0
LINE
  5
F8
100
AcDbEntity
  8
0
  6
ByLayer
 62
    7
370
   -1
100
AcDbLine
 10
-0.5
 20
4.000000000000001
 11
-0.4425000000000008
 21
3.540000000000001
  0
LINE
  5
F9
100
AcDbEntity
  8
0
  6
ByLayer
 62
    7
370
   -1
100
AcDbLine
 10
-0.4425000000000008
 20
3.540000000000001
 11
0
 21
1.002670169114595e-015
  0
LINE
  5
FA
100
AcDbEntity
  8
0
  6
ByLayer
 62
    7
370
   -1
100
AcDbLine
 10
-1.5
 20
4.000000000000001
 11
-1.442499999999999
 21
3.540000000000001
  0
LINE
  5
FB
100
AcDbEntity
  8
0
  6
ByLayer
 62
    7
370
   -1
100
AcDbLine
 10
-1.442499999999999
 20
3.540000000000001
 11
-0.5574999999999992
 21
-3.539999999999999
  0
LINE
  5
FC
100
AcDbEntity
  8
0
  6
ByLayer
 62
    7
370
   -1
100
AcDbLine
 10
-2.5
 20
4.000000000000001
 11
-2.442500000000001
 21
3.540000000000001
  0
LINE
  5
FD
100
AcDbEntity
  8
0
  6
ByLayer
 62
    7
370
   -1
100
AcDbLine
 10
-2.442500000000001
 20
3.540000000000001
 11
-1.557499999999999
 21
-3.539999999999999
  0
LINE
  5
FE
100
AcDbEntity
  8
0
  6
ByLayer
 62
    7
370
   -1
100
AcDbLine
 10
-3.5
 20
4.000000000000001
 11
-3.442499999999999
 21
3.540000000000001
  0
LINE
  5
FF
100
AcDbEntity
  8
0
  6
ByLayer
 62
    7
370
   -1
100
AcDbLine
 10
-3.442499999999999
 20
3.540000000000001
 11
-2.557499999999999
 21
-3.539999999999999
  0
LINE
  5
100
100
AcDbEntity
  8
0
  6
ByLayer
 62
    7
370
   -1
100
AcDbLine
 10
-4.5
 20
4.000000000000001
 11
-4.442500000000001
 21
3.540000000000001
  0
LINE
  5
101
100
AcDbEntity
  8
0
  6
ByLayer
 62
    7
370
   -1
100
AcDbLine
 10
-4.442500000000001
 20
3.540000000000001
 11
-3.557499999999999
 21
-3.539999999999999
  0
LINE
  5
102
100
AcDbEntity
  8
0
  6
ByLayer
 62
    7
370
   -1
100
AcDbLine
 10
-4.5575
 20
-3.539999999999999
 11
-5.4425
 21
3.540000000000001
  0
LINE
  5
103
100
AcDbEntity
  8
0
  6
ByLayer
 62
    7
370
   -1
100
AcDbLine
 10
-5.4425
 20
3.540000000000001
 11
-5.5
 21
4.000000000000001
  0
LINE
  5
104
100
AcDbEntity
  8
0
  6
ByLayer
 62
    7
370
   -1
100
AcDbLine
 10
-6.4425
 20
3.540000000000001
 11
-5.5575
 21
-3.539999999999999
  0
ENDBLK
  5
6C
330
6A
100
AcDbEntity
  8
0
100
AcDbBlockEnd
  0
BLOCK
  5
6E
330
6D
100
AcDbEntity
  8
0
100
AcDbBlockBegin
  2
potentiometer-0
 70
    0
 10
0
 20
0
  3
potentiometer-0
  1

  0
LINE
  5
105
100
AcDbEntity
  8
0
  6
ByLayer
 62
  256
370
   -1
100
AcDbLine
 10
-3.5
 20
7.5
 11
-3.5
 21
-7.5
  0
LWPOLYLINE
  5
106
100
AcDbEntity
  8
0
  6
ByLayer
 62
   56
420
8421376
370
   -1
100
AcDbPolyline
 90
    4
 70
    1
 43
0
 10
-9
 20
-8.5
 10
-3.5
 20
-8.5
 10
-3.5
 20
8.5
 10
-9
 20
8.5
  0
LINE
  5
107
100
AcDbEntity
  8
0
  6
ByLayer
 62
   34
420
11162880
370
   -1
100
AcDbLine
 10
-2
 20
7.5
 11
-3.5
 21
7.5
  0
LINE
  5
108
100
AcDbEntity
  8
0
  6
ByLayer
 62
   34
420
11162880
370
   -1
100
AcDbLine
 10
-2
 20
-12
 11
-3.5
 21
-12
  0
LINE
  5
109
100
AcDbEntity
  8
0
  6
ByLayer
 62
   34
420
11162880
370
   -1
100
AcDbLine
 10
-3.5
 20
-12
 11
-3.5
 21
-8.5
  0
LINE
  5
10A
100
AcDbEntity
  8
0
  6
ByLayer
 62
   34
420
11162880
370
   -1
100
AcDbLine
 10
-2
 20
-12
 11
-2
 21
7.5
  0
LINE
  5
10B
100
AcDbEntity
  8
0
  6
ByLayer
 62
  253
420
10526884
370
   -1
100
AcDbLine
 10
-3.920000000000002
 20
-8.5
 11
-3.920000000000002
 21
-17
  0
LINE
  5
10C
100
AcDbEntity
  8
0
  6
ByLayer
 62
  253
420
10526884
370
   -1
100
AcDbLine
 10
-3.920000000000002
 20
-17
 11
-3.5
 21
-17
  0
LINE
  5
10D
100
AcDbEntity
  8
0
  6
ByLayer
 62
  253
420
10526884
370
   -1
100
AcDbLine
 10
-3.5
 20
-17
 11
-3.5
 21
-12
  0
LWPOLYLINE
  5
10E
100
AcDbEntity
  8
0
  6
ByLayer
 62
  253
420
10526884
370
   -1
100
AcDbPolyline
 90
    4
 70
    1
 43
0
 10
6.5
 20
-3
 10
15
 20
-3
 10
15
 20
3
 10
6.5
 20
3
  0
LINE
  5
10F
100
AcDbEntity
  8
0
  6
ByLayer
 62
  253
420
10526884
370
   -1
100
AcDbLine
 10
7
 20
2
 11
14
 21
2
  0
LINE
  5
110
100
AcDbEntity
  8
0
  6
ByLayer
 62
  253
420
10526884
370
   -1
100
AcDbLine
 10
7
 20
1
 11
14
 21
1
  0
LINE
  5
111
100
AcDbEntity
  8
0
  6
ByLayer
 62
  253
420
10526884
370
   -1
100
AcDbLine
 10
7
 20
0
 11
14
 21
0
  0
LINE
  5
112
100
AcDbEntity
  8
0
  6
ByLayer
 62
  253
420
10526884
370
   -1
100
AcDbLine
 10
7
 20
-1
 11
14
 21
-1
  0
LINE
  5
113
100
AcDbEntity
  8
0
  6
ByLayer
 62
  253
420
10526884
370
   -1
100
AcDbLine
 10
7
 20
-2
 11
14
 21
-2
  0
LWPOLYLINE
  5
114
100
AcDbEntity
  8
0
  6
ByLayer
 62
    7
370
   -1
100
AcDbPolyline
 90
    4
 70
    1
 43
0
 10
0
 20
-3.5
 10
6.5
 20
-3.5
 10
6.5
 20
3.5
 10
0
 20
3.5
  0
LINE
  5
115
100
AcDbEntity
  8
0
  6
ByLayer
 62
    7
370
   -1
100
AcDbLine
 10
0
 20
3.5
 11
1
 21
-4
  0
LINE
  5
116
100
AcDbEntity
  8
0
  6
ByLayer
 62
    7
370
   -1
100
AcDbLine
 10
6
 20
-4
 11
5
 21
4
  0
LINE
  5
117
100
AcDbEntity
  8
0
  6
ByLayer
 62
    7
370
   -1
100
AcDbLine
 10
5
 20
-4
 11
4
 21
4
  0
LINE
  5
118
100
AcDbEntity
  8
0
  6
ByLayer
 62
    7
370
   -1
100
AcDbLine
 10
3
 20
4
 11
4
 21
-4
  0
LINE
  5
119
100
AcDbEntity
  8
0
  6
ByLayer
 62
    7
370
   -1
100
AcDbLine
 10
3
 20
-4
 11
2
 21
4
  0
LINE
  5
11A
100
AcDbEntity
  8
0
  6
ByLayer
 62
    7
370
   -1
100
AcDbLine
 10
1
 20
4
 11
2
 21
-4
  0
LINE
  5
11B
100
AcDbEntity
  8
0
  6
ByLayer
 62
    7
370
   -1
100
AcDbLine
 10
6
 20
4
 11
6.5
 21
0
  0
LINE
  5
11C
100
AcDbEntity
  8
0
  6
ByLayer
 62
    7
370
   -1
100
AcDbLine
 10
0
 20
-5
 11
0
 21
5
  0
LINE
  5
11D
100
AcDbEntity
  8
0
  6
ByLayer
 62
    7
370
   -1
100
AcDbLine
 10
0
 20
5
 11
-2
 21
5
  0
LINE
  5
11E
100
AcDbEntity
  8
0
  6
ByLayer
 62
    7
370
   -1
100
AcDbLine
 10
-2
 20
-5
 11
0
 21
-5
  0
ENDBLK
  5
6F
330
6D
100
AcDbEntity
  8
0
100
AcDbBlockEnd
  0
BLOCK
  5
71
330
70
100
AcDbEntity
  8
0
100
AcDbBlockBegin
  2
spacers-0
 70
    0
 10
0
 20
0
  3
spacers-0
  1

  0
ENDBLK
  5
72
330
70
100
AcDbEntity
  8
0
100
AcDbBlockEnd
  0
BLOCK
  5
74
330
73
100
AcDbEntity
  8
0
100
AcDbBlockBegin
  2
5x7-0
 70
    0
 10
0
 20
0
  3
5x7-0
  1

  0
ENDBLK
  5
75
330
73
100
AcDbEntity
  8
0
100
AcDbBlockEnd
  0
BLOCK
  5
77
330
76
100
AcDbEntity
  8
0
100
AcDbBlockBegin
  2
slot-0
 70
    0
 10
0
 20
0
  3
slot-0
  1

  0
ENDBLK
  5
78
330
76
100
AcDbEntity
  8
0
100
AcDbBlockEnd
  0
BLOCK
  5
7A
330
79
100
AcDbEntity
  8
0
100
AcDbBlockBegin
  2
20mm spacer-0
 70
    0
 10
0
 20
0
  3
20mm spacer-0
  1

  0
ENDBLK
  5
7B
330
79
100
AcDbEntity
  8
0
100
AcDbBlockEnd
  0
BLOCK
  5
7D
330
7C
100
AcDbEntity
  8
0
100
AcDbBlockBegin
  2
large LED-0
 70
    0
 10
0
 20
0
  3
large LED-0
  1

  0
LINE
  5
11F
100
AcDbEntity
  8
0
  6
ByLayer
 62
  256
370
   -1
100
AcDbLine
 10
0
 20
5
 11
0
 21
0
  0
LINE
  5
120
100
AcDbEntity
  8
0
  6
ByLayer
 62
  256
370
   -1
100
AcDbLine
 10
0
 20
-0.25
 11
1.2
 21
-0.25
  0
LINE
  5
121
100
AcDbEntity
  8
0
  6
ByLayer
 62
  256
370
   -1
100
AcDbLine
 10
1.2
 20
5.25
 11
0
 21
5.25
  0
LINE
  5
122
100
AcDbEntity
  8
0
  6
ByLayer
 62
  256
370
   -1
100
AcDbLine
 10
0
 20
5.25
 11
0
 21
-0.25
  0
LINE
  5
123
100
AcDbEntity
  8
0
  6
ByLayer
 62
  256
370
   -1
100
AcDbLine
 10
1.2
 20
5
 11
1.2
 21
5.25
  0
LINE
  5
124
100
AcDbEntity
  8
0
  6
ByLayer
 62
  256
370
   -1
100
AcDbLine
 10
1.2
 20
-0.25
 11
1.2
 21
0
  0
ARC
  5
125
100
AcDbEntity
  8
0
  6
ByLayer
 62
  256
370
   -1
100
AcDbCircle
 10
6.25
 20
2.5
 40
2.5
100
AcDbArc
 50
269.9999964939658
 51
449.9999964939658
  0
LINE
  5
126
100
AcDbEntity
  8
0
  6
ByLayer
 62
  256
370
   -1
100
AcDbLine
 10
6.249999847020401
 20
5
 11
1.2
 21
5
  0
LINE
  5
127
100
AcDbEntity
  8
0
  6
ByLayer
 62
  256
370
   -1
100
AcDbLine
 10
1.2
 20
0
 11
6.249999847020397
 21
4.884981308350689e-015
  0
LINE
  5
128
100
AcDbEntity
  8
0
  6
ByLayer
 62
  256
370
   -1
100
AcDbLine
 10
9.194034422677078e-017
 20
3.999999999999997
 11
-6
 21
3.999999999999997
  0
LINE
  5
129
100
AcDbEntity
  8
0
  6
ByLayer
 62
  256
370
   -1
100
AcDbLine
 10
-9.194034422677078e-017
 20
0.9999999999999973
 11
-8
 21
0.9999999999999973
  0
ENDBLK
  5
7E
330
7C
100
AcDbEntity
  8
0
100
AcDbBlockEnd
  0
BLOCK
  5
80
330
7F
100
AcDbEntity
  8
0
100
AcDbBlockBegin
  2
spacers-1
 70
    0
 10
0
 20
0
  3
spacers-1
  1

  0
ENDBLK
  5
81
330
7F
100
AcDbEntity
  8
0
100
AcDbBlockEnd
  0
BLOCK
  5
83
330
82
100
AcDbEntity
  8
0
100
AcDbBlockBegin
  2
button-block-1
 70
    0
 10
0
 20
0
  3
button-block-1
  1

  0
LWPOLYLINE
  5
12A
100
AcDbEntity
  8
0
  6
ByLayer
 62
  256
370
   -1
100
AcDbPolyline
 90
    4
 70
    1
 43
0
 10
-12.5
 20
3.000000000000001
 10
-12.5
 20
3.000000000000001
 10
-12.5
 20
3.000000000000001
 10
-12.5
 20
3.000000000000001
  0
LWPOLYLINE
  5
12B
100
AcDbEntity
  8
0
  6
ByLayer
 62
    1
370
   -1
100
AcDbPolyline
 90
    4
 70
    1
 43
0
 10
-12.5
 20
-2.999999999999999
 10
-9
 20
-2.999999999999999
 10
-9
 20
3.000000000000001
 10
-12.5
 20
3.000000000000001
  0
LINE
  5
12C
100
AcDbEntity
  8
0
  6
ByLayer
 62
    8
370
   -1
100
AcDbLine
 10
2
 20
-3.499999999999999
 11
8.25
 21
-3.499999999999999
  0
LINE
  5
12D
100
AcDbEntity
  8
0
  6
ByLayer
 62
    8
370
   -1
100
AcDbLine
 10
8.25
 20
3.500000000000001
 11
2
 21
3.500000000000001
  0
LINE
  5
12E
100
AcDbEntity
  8
0
  6
ByLayer
 62
  253
420
10526884
370
   -1
100
AcDbLine
 10
-9
 20
-1.999999999999999
 11
-6.5
 21
-1.999999999999999
  0
LINE
  5
12F
100
AcDbEntity
  8
0
  6
ByLayer
 62
  253
420
10526884
370
   -1
100
AcDbLine
 10
-6.5
 20
2.000000000000001
 11
-9
 21
2.000000000000001
  0
LWPOLYLINE
  5
130
100
AcDbEntity
  8
0
  6
ByLayer
 62
    7
370
   -1
100
AcDbPolyline
 90
    4
 70
    1
 43
0
 10
0
 20
-4.999999999999999
 10
2
 20
-4.999999999999999
 10
2
 20
5.000000000000001
 10
0
 20
5.000000000000001
  0
LINE
  5
131
100
AcDbEntity
  8
0
  6
ByLayer
 62
    7
370
   -1
100
AcDbLine
 10
8.25
 20
-3.499999999999999
 11
8.25
 21
3.500000000000001
  0
LINE
  5
132
100
AcDbEntity
  8
0
  6
ByLayer
 62
    7
370
   -1
100
AcDbLine
 10
-6.5
 20
-3.539999999999999
 11
0
 21
-3.539999999999999
  0
LINE
  5
133
100
AcDbEntity
  8
0
  6
ByLayer
 62
    7
370
   -1
100
AcDbLine
 10
0
 20
3.540000000000001
 11
-6.5
 21
3.540000000000001
  0
LINE
  5
134
100
AcDbEntity
  8
0
  6
ByLayer
 62
    7
370
   -1
100
AcDbLine
 10
-6.5
 20
3.540000000000001
 11
-6.5
 21
-3.539999999999999
  0
CIRCLE
  5
135
100
AcDbEntity
  8
0
  6
ByLayer
 62
    7
370
   -1
100
AcDbCircle
 10
13.5
 20
1.127570259384925e-015
 40
0.5
  0
LINE
  5
136
100
AcDbEntity
  8
0
  6
ByLayer
 62
    7
370
   -1
100
AcDbLine
 10
13.5
 20
1.000000000000001
 11
8.25
 21
1.000000000000001
  0
LINE
  5
137
100
AcDbEntity
  8
0
  6
ByLayer
 62
    7
370
   -1
100
AcDbLine
 10
8.25
 20
-0.999999999999999
 11
13.49999973529911
 21
-0.999999999999999
  0
ARC
  5
138
100
AcDbEntity
  8
0
  6
ByLayer
 62
    7
370
   -1
100
AcDbCircle
 10
13.5
 20
1.127570259384925e-015
 40
1
100
AcDbArc
 50
270.0000245596733
 51
90
  0
LINE
  5
139
100
AcDbEntity
  8
0
  6
ByLayer
 62
    7
370
   -1
100
AcDbLine
 10
-5.5575
 20
-3.539999999999999
 11
-5.5
 21
-3.999999999999999
  0
LINE
  5
13A
100
AcDbEntity
  8
0
  6
ByLayer
 62
    7
370
   -1
100
AcDbLine
 10
-4.5
 20
-3.999999999999999
 11
-4.5575
 21
-3.539999999999999
  0
LINE
  5
13B
100
AcDbEntity
  8
0
  6
ByLayer
 62
    7
370
   -1
100
AcDbLine
 10
-3.557499999999999
 20
-3.539999999999999
 11
-3.5
 21
-3.999999999999999
  0
LINE
  5
13C
100
AcDbEntity
  8
0
  6
ByLayer
 62
    7
370
   -1
100
AcDbLine
 10
-2.557499999999999
 20
-3.539999999999999
 11
-2.5
 21
-3.999999999999999
  0
LINE
  5
13D
100
AcDbEntity
  8
0
  6
ByLayer
 62
    7
370
   -1
100
AcDbLine
 10
-1.557499999999999
 20
-3.539999999999999
 11
-1.5
 21
-3.999999999999999
  0
LINE
  5
13E
100
AcDbEntity
  8
0
  6
ByLayer
 62
    7
370
   -1
100
AcDbLine
 10
-0.5574999999999992
 20
-3.539999999999999
 11
-0.5
 21
-3.999999999999999
  0
LINE
  5
13F
100
AcDbEntity
  8
0
  6
ByLayer
 62
    7
370
   -1
100
AcDbLine
 10
-0.5
 20
4.000000000000001
 11
-0.4425000000000008
 21
3.540000000000001
  0
LINE
  5
140
100
AcDbEntity
  8
0
  6
ByLayer
 62
    7
370
   -1
100
AcDbLine
 10
-0.4425000000000008
 20
3.540000000000001
 11
0
 21
1.002670169114595e-015
  0
LINE
  5
141
100
AcDbEntity
  8
0
  6
ByLayer
 62
    7
370
   -1
100
AcDbLine
 10
-1.5
 20
4.000000000000001
 11
-1.442499999999999
 21
3.540000000000001
  0
LINE
  5
142
100
AcDbEntity
  8
0
  6
ByLayer
 62
    7
370
   -1
100
AcDbLine
 10
-1.442499999999999
 20
3.540000000000001
 11
-0.5574999999999992
 21
-3.539999999999999
  0
LINE
  5
143
100
AcDbEntity
  8
0
  6
ByLayer
 62
    7
370
   -1
100
AcDbLine
 10
-2.5
 20
4.000000000000001
 11
-2.442500000000001
 21
3.540000000000001
  0
LINE
  5
144
100
AcDbEntity
  8
0
  6
ByLayer
 62
    7
370
   -1
100
AcDbLine
 10
-2.442500000000001
 20
3.540000000000001
 11
-1.557499999999999
 21
-3.539999999999999
  0
LINE
  5
145
100
AcDbEntity
  8
0
  6
ByLayer
 62
    7
370
   -1
100
AcDbLine
 10
-3.5
 20
4.000000000000001
 11
-3.442499999999999
 21
3.540000000000001
  0
LINE
  5
146
100
AcDbEntity
  8
0
  6
ByLayer
 62
    7
370
   -1
100
AcDbLine
 10
-3.442499999999999
 20
3.540000000000001
 11
-2.557499999999999
 21
-3.539999999999999
  0
LINE
  5
147
100
AcDbEntity
  8
0
  6
ByLayer
 62
    7
370
   -1
100
AcDbLine
 10
-4.5
 20
4.000000000000001
 11
-4.442500000000001
 21
3.540000000000001
  0
LINE
  5
148
100
AcDbEntity
  8
0
  6
ByLayer
 62
    7
370
   -1
100
AcDbLine
 10
-4.442500000000001
 20
3.540000000000001
 11
-3.557499999999999
 21
-3.539999999999999
  0
LINE
  5
149
100
AcDbEntity
  8
0
  6
ByLayer
 62
    7
370
   -1
100
AcDbLine
 10
-4.5575
 20
-3.539999999999999
 11
-5.4425
 21
3.540000000000001
  0
LINE
  5
14A
100
AcDbEntity
  8
0
  6
ByLayer
 62
    7
370
   -1
100
AcDbLine
 10
-5.4425
 20
3.540000000000001
 11
-5.5
 21
4.000000000000001
  0
LINE
  5
14B
100
AcDbEntity
  8
0
  6
ByLayer
 62
    7
370
   -1
100
AcDbLine
 10
-6.4425
 20
3.540000000000001
 11
-5.5575
 21
-3.539999999999999
  0
ENDBLK
  5
84
330
82
100
AcDbEntity
  8
0
100
AcDbBlockEnd
  0
BLOCK
  5
86
330
85
100
AcDbEntity
  8
0
100
AcDbBlockBegin
  2
potentiometer-1
 70
    0
 10
0
 20
0
  3
potentiometer-1
  1

  0
LINE
  5
14C
100
AcDbEntity
  8
0
  6
ByLayer
 62
  256
370
   -1
100
AcDbLine
 10
-3.5
 20
7.5
 11
-3.5
 21
-7.5
  0
LWPOLYLINE
  5
14D
100
AcDbEntity
  8
0
  6
ByLayer
 62
   56
420
8421376
370
   -1
100
AcDbPolyline
 90
    4
 70
    1
 43
0
 10
-9
 20
-8.5
 10
-3.5
 20
-8.5
 10
-3.5
 20
8.5
 10
-9
 20
8.5
  0
LINE
  5
14E
100
AcDbEntity
  8
0
  6
ByLayer
 62
   34
420
11162880
370
   -1
100
AcDbLine
 10
-2
 20
7.5
 11
-3.5
 21
7.5
  0
LINE
  5
14F
100
AcDbEntity
  8
0
  6
ByLayer
 62
   34
420
11162880
370
   -1
100
AcDbLine
 10
-2
 20
-12
 11
-3.5
 21
-12
  0
LINE
  5
150
100
AcDbEntity
  8
0
  6
ByLayer
 62
   34
420
11162880
370
   -1
100
AcDbLine
 10
-3.5
 20
-12
 11
-3.5
 21
-8.5
  0
LINE
  5
151
100
AcDbEntity
  8
0
  6
ByLayer
 62
   34
420
11162880
370
   -1
100
AcDbLine
 10
-2
 20
-12
 11
-2
 21
7.5
  0
LINE
  5
152
100
AcDbEntity
  8
0
  6
ByLayer
 62
  253
420
10526884
370
   -1
100
AcDbLine
 10
-3.920000000000002
 20
-8.5
 11
-3.920000000000002
 21
-17
  0
LINE
  5
153
100
AcDbEntity
  8
0
  6
ByLayer
 62
  253
420
10526884
370
   -1
100
AcDbLine
 10
-3.920000000000002
 20
-17
 11
-3.5
 21
-17
  0
LINE
  5
154
100
AcDbEntity
  8
0
  6
ByLayer
 62
  253
420
10526884
370
   -1
100
AcDbLine
 10
-3.5
 20
-17
 11
-3.5
 21
-12
  0
LWPOLYLINE
  5
155
100
AcDbEntity
  8
0
  6
ByLayer
 62
  253
420
10526884
370
   -1
100
AcDbPolyline
 90
    4
 70
    1
 43
0
 10
6.5
 20
-3
 10
15
 20
-3
 10
15
 20
3
 10
6.5
 20
3
  0
LINE
  5
156
100
AcDbEntity
  8
0
  6
ByLayer
 62
  253
420
10526884
370
   -1
100
AcDbLine
 10
7
 20
2
 11
14
 21
2
  0
LINE
  5
157
100
AcDbEntity
  8
0
  6
ByLayer
 62
  253
420
10526884
370
   -1
100
AcDbLine
 10
7
 20
1
 11
14
 21
1
  0
LINE
  5
158
100
AcDbEntity
  8
0
  6
ByLayer
 62
  253
420
10526884
370
   -1
100
AcDbLine
 10
7
 20
0
 11
14
 21
0
  0
LINE
  5
159
100
AcDbEntity
  8
0
  6
ByLayer
 62
  253
420
10526884
370
   -1
100
AcDbLine
 10
7
 20
-1
 11
14
 21
-1
  0
LINE
  5
15A
100
AcDbEntity
  8
0
  6
ByLayer
 62
  253
420
10526884
370
   -1
100
AcDbLine
 10
7
 20
-2
 11
14
 21
-2
  0
LWPOLYLINE
  5
15B
100
AcDbEntity
  8
0
  6
ByLayer
 62
    7
370
   -1
100
AcDbPolyline
 90
    4
 70
    1
 43
0
 10
0
 20
-3.5
 10
6.5
 20
-3.5
 10
6.5
 20
3.5
 10
0
 20
3.5
  0
LINE
  5
15C
100
AcDbEntity
  8
0
  6
ByLayer
 62
    7
370
   -1
100
AcDbLine
 10
0
 20
3.5
 11
1
 21
-4
  0
LINE
  5
15D
100
AcDbEntity
  8
0
  6
ByLayer
 62
    7
370
   -1
100
AcDbLine
 10
6
 20
-4
 11
5
 21
4
  0
LINE
  5
15E
100
AcDbEntity
  8
0
  6
ByLayer
 62
    7
370
   -1
100
AcDbLine
 10
5
 20
-4
 11
4
 21
4
  0
LINE
  5
15F
100
AcDbEntity
  8
0
  6
ByLayer
 62
    7
370
   -1
100
AcDbLine
 10
3
 20
4
 11
4
 21
-4
  0
LINE
  5
160
100
AcDbEntity
  8
0
  6
ByLayer
 62
    7
370
   -1
100
AcDbLine
 10
3
 20
-4
 11
2
 21
4
  0
LINE
  5
161
100
AcDbEntity
  8
0
  6
ByLayer
 62
    7
370
   -1
100
AcDbLine
 10
1
 20
4
 11
2
 21
-4
  0
LINE
  5
162
100
AcDbEntity
  8
0
  6
ByLayer
 62
    7
370
   -1
100
AcDbLine
 10
6
 20
4
 11
6.5
 21
0
  0
LINE
  5
163
100
AcDbEntity
  8
0
  6
ByLayer
 62
    7
370
   -1
100
AcDbLine
 10
0
 20
-5
 11
0
 21
5
  0
LINE
  5
164
100
AcDbEntity
  8
0
  6
ByLayer
 62
    7
370
   -1
100
AcDbLine
 10
0
 20
5
 11
-2
 21
5
  0
LINE
  5
165
100
AcDbEntity
  8
0
  6
ByLayer
 62
    7
370
   -1
100
AcDbLine
 10
-2
 20
-5
 11
0
 21
-5
  0
ENDBLK
  5
87
330
85
100
AcDbEntity
  8
0
100
AcDbBlockEnd
  0
BLOCK
  5
89
330
88
100
AcDbEntity
  8
0
100
AcDbBlockBegin
  2
spacers-2
 70
    0
 10
0
 20
0
  3
spacers-2
  1

  0
ENDBLK
  5
8A
330
88
100
AcDbEntity
  8
0
100
AcDbBlockEnd
  0
BLOCK
  5
8C
330
8B
100
AcDbEntity
  8
0
100
AcDbBlockBegin
  2
5x7-1
 70
    0
 10
0
 20
0
  3
5x7-1
  1

  0
ENDBLK
  5
8D
330
8B
100
AcDbEntity
  8
0
100
AcDbBlockEnd
  0
BLOCK
  5
8F
330
8E
100
AcDbEntity
  8
0
100
AcDbBlockBegin
  2
slot-1
 70
    0
 10
0
 20
0
  3
slot-1
  1

  0
ENDBLK
  5
90
330
8E
100
AcDbEntity
  8
0
100
AcDbBlockEnd
  0
BLOCK
  5
92
330
91
100
AcDbEntity
  8
0
100
AcDbBlockBegin
  2
20mm spacer-1
 70
    0
 10
0
 20
0
  3
20mm spacer-1
  1

  0
CIRCLE
  5
166
100
AcDbEntity
  8
spacer tabs1
  6
ByLayer
 62
  256
370
   -1
100
AcDbCircle
 10
0
 20
0
 40
3.556
  0
LINE
  5
167
100
AcDbEntity
  8
spacer tabs1
  6
ByLayer
 62
  256
370
   -1
100
AcDbLine
 10
10.00008034360491
 20
6.000236465529213
 11
-9.999919656395093
 21
6.000236465529213
  0
LINE
  5
168
100
AcDbEntity
  8
spacer tabs1
  6
ByLayer
 62
  256
370
   -1
100
AcDbLine
 10
-9.999919656395093
 20
-5.999763534470787
 11
10.00008034360491
 21
-5.999763534470787
  0
LINE
  5
169
100
AcDbEntity
  8
spacer tabs1
  6
ByLayer
 62
  256
370
   -1
100
AcDbLine
 10
-9.999919656395093
 20
-2.999763534470787
 11
-9.999919656395093
 21
-5.999763534470787
  0
LINE
  5
16A
100
AcDbEntity
  8
spacer tabs1
  6
ByLayer
 62
  256
370
   -1
100
AcDbLine
 10
10.00008034360491
 20
-2.999763534470787
 11
10.00008034360491
 21
-5.999763534470787
  0
LINE
  5
16B
100
AcDbEntity
  8
spacer tabs1
  6
ByLayer
 62
  256
370
   -1
100
AcDbLine
 10
10.00008034360491
 20
6.000236465529213
 11
10.00008034360491
 21
3.000236465529213
  0
LINE
  5
16C
100
AcDbEntity
  8
spacer tabs1
  6
ByLayer
 62
  256
370
   -1
100
AcDbLine
 10
-9.999919656395093
 20
6.000236465529213
 11
-9.999919656395093
 21
3.000236465529213
  0
LINE
  5
16D
100
AcDbEntity
  8
spacer tabs1
  6
ByLayer
 62
  256
370
   -1
100
AcDbLine
 10
10.00008034360491
 20
3.000236465529213
 11
12.75008034360491
 21
3.000236465529213
  0
LINE
  5
16E
100
AcDbEntity
  8
spacer tabs1
  6
ByLayer
 62
  256
370
   -1
100
AcDbLine
 10
10.00008034360491
 20
-2.999763534470787
 11
12.75008034360491
 21
-2.999763534470787
  0
LINE
  5
16F
100
AcDbEntity
  8
spacer tabs1
  6
ByLayer
 62
  256
370
   -1
100
AcDbLine
 10
-9.999919656395093
 20
3.000236465529213
 11
-12.74991965639509
 21
3.000236465529213
  0
LINE
  5
170
100
AcDbEntity
  8
spacer tabs1
  6
ByLayer
 62
  256
370
   -1
100
AcDbLine
 10
12.75008034360491
 20
3.000236465529213
 11
12.75008034360491
 21
-2.999763534470787
  0
LINE
  5
171
100
AcDbEntity
  8
spacer tabs1
  6
ByLayer
 62
  256
370
   -1
100
AcDbLine
 10
-9.999919656395093
 20
-2.999763534470787
 11
-12.74991965639509
 21
-2.999763534470787
  0
LINE
  5
172
100
AcDbEntity
  8
spacer tabs1
  6
ByLayer
 62
  256
370
   -1
100
AcDbLine
 10
-12.74991965639509
 20
3.000236465529213
 11
-12.74991965639509
 21
-2.999763534470787
  0
ENDBLK
  5
93
330
91
100
AcDbEntity
  8
0
100
AcDbBlockEnd
  0
BLOCK
  5
95
330
94
100
AcDbEntity
  8
0
100
AcDbBlockBegin
  2
large LED-1
 70
    0
 10
0
 20
0
  3
large LED-1
  1

  0
LINE
  5
173
100
AcDbEntity
  8
0
  6
ByLayer
 62
  256
370
   -1
100
AcDbLine
 10
0
 20
5
 11
0
 21
0
  0
LINE
  5
174
100
AcDbEntity
  8
0
  6
ByLayer
 62
  256
370
   -1
100
AcDbLine
 10
0
 20
-0.25
 11
1.2
 21
-0.25
  0
LINE
  5
175
100
AcDbEntity
  8
0
  6
ByLayer
 62
  256
370
   -1
100
AcDbLine
 10
1.2
 20
5.25
 11
0
 21
5.25
  0
LINE
  5
176
100
AcDbEntity
  8
0
  6
ByLayer
 62
  256
370
   -1
100
AcDbLine
 10
0
 20
5.25
 11
0
 21
-0.25
  0
LINE
  5
177
100
AcDbEntity
  8
0
  6
ByLayer
 62
  256
370
   -1
100
AcDbLine
 10
1.2
 20
5
 11
1.2
 21
5.25
  0
LINE
  5
178
100
AcDbEntity
  8
0
  6
ByLayer
 62
  256
370
   -1
100
AcDbLine
 10
1.2
 20
-0.25
 11
1.2
 21
0
  0
ARC
  5
179
100
AcDbEntity
  8
0
  6
ByLayer
 62
  256
370
   -1
100
AcDbCircle
 10
6.25
 20
2.5
 40
2.5
100
AcDbArc
 50
269.9999964939658
 51
449.9999964939658
  0
LINE
  5
17A
100
AcDbEntity
  8
0
  6
ByLayer
 62
  256
370
   -1
100
AcDbLine
 10
6.249999847020401
 20
5
 11
1.2
 21
5
  0
LINE
  5
17B
100
AcDbEntity
  8
0
  6
ByLayer
 62
  256
370
   -1
100
AcDbLine
 10
1.2
 20
0
 11
6.249999847020397
 21
4.884981308350689e-015
  0
LINE
  5
17C
100
AcDbEntity
  8
0
  6
ByLayer
 62
  256
370
   -1
100
AcDbLine
 10
9.194034422677078e-017
 20
3.999999999999997
 11
-6
 21
3.999999999999997
  0
LINE
  5
17D
100
AcDbEntity
  8
0
  6
ByLayer
 62
  256
370
   -1
100
AcDbLine
 10
-9.194034422677078e-017
 20
0.9999999999999973
 11
-8
 21
0.9999999999999973
  0
ENDBLK
  5
96
330
94
100
AcDbEntity
  8
0
100
AcDbBlockEnd
  0
BLOCK
  5
98
330
97
100
AcDbEntity
  8
0
100
AcDbBlockBegin
  2
plot-spacers
 70
    0
 10
0
 20
0
  3
plot-spacers
  1

  0
LINE
  5
17E
100
AcDbEntity
  8
board
  6
ByLayer
 62
  256
370
   -1
100
AcDbLine
 10
0
 20
0
 11
50.8
 21
0
  0
LINE
  5
17F
100
AcDbEntity
  8
board
  6
ByLayer
 62
  256
370
   -1
100
AcDbLine
 10
0
 20
0
 11
3.094746681142624e-015
 21
50.5
  0
LINE
  5
180
100
AcDbEntity
  8
board
  6
ByLayer
 62
  256
370
   -1
100
AcDbLine
 10
50.8
 20
0
 11
50.8
 21
50.5
  0
LINE
  5
181
100
AcDbEntity
  8
board
  6
ByLayer
 62
  256
370
   -1
100
AcDbLine
 10
3.094746681142624e-015
 20
50.5
 11
50.8
 21
50.5
  0
CIRCLE
  5
182
100
AcDbEntity
  8
spacer tabs1
  6
ByLayer
 62
  256
370
   -1
100
AcDbCircle
 10
14.99991965639509
 20
8.999763534470789
 40
3.556
  0
LINE
  5
183
100
AcDbEntity
  8
spacer tabs2
  6
ByLayer
 62
  256
370
   -1
100
AcDbLine
 10
6
 20
6
 11
6
 21
3
  0
LINE
  5
184
100
AcDbEntity
  8
spacer tabs2
  6
ByLayer
 62
  256
370
   -1
100
AcDbLine
 10
6
 20
15
 11
6
 21
12
  0
LINE
  5
185
100
AcDbEntity
  8
spacer tabs2
  6
ByLayer
 62
  256
370
   -1
100
AcDbLine
 10
6
 20
12
 11
3.25
 21
12
  0
LINE
  5
186
100
AcDbEntity
  8
spacer tabs2
  6
ByLayer
 62
  256
370
   -1
100
AcDbLine
 10
6
 20
6
 11
3.25
 21
6
  0
LINE
  5
187
100
AcDbEntity
  8
spacer tabs2
  6
ByLayer
 62
  256
370
   -1
100
AcDbLine
 10
3.25
 20
12
 11
3.25
 21
6
  0
LINE
  5
188
100
AcDbEntity
  8
spacer tabs2
  6
ByLayer
 62
  256
370
   -1
100
AcDbLine
 10
24
 20
15
 11
6
 21
15
  0
LINE
  5
189
100
AcDbEntity
  8
spacer tabs2
  6
ByLayer
 62
  256
370
   -1
100
AcDbLine
 10
6
 20
3
 11
24
 21
3
  0
LINE
  5
18A
100
AcDbEntity
  8
spacer tabs2
  6
ByLayer
 62
  256
370
   -1
100
AcDbLine
 10
24
 20
6
 11
24
 21
3
  0
LINE
  5
18B
100
AcDbEntity
  8
spacer tabs2
  6
ByLayer
 62
  256
370
   -1
100
AcDbLine
 10
24
 20
15
 11
24
 21
12
  0
LINE
  5
18C
100
AcDbEntity
  8
spacer tabs2
  6
ByLayer
 62
  256
370
   -1
100
AcDbLine
 10
24
 20
12
 11
26.75
 21
12
  0
LINE
  5
18D
100
AcDbEntity
  8
spacer tabs2
  6
ByLayer
 62
  256
370
   -1
100
AcDbLine
 10
24
 20
6
 11
26.75
 21
6
  0
LINE
  5
18E
100
AcDbEntity
  8
spacer tabs2
  6
ByLayer
 62
  256
370
   -1
100
AcDbLine
 10
26.75
 20
12
 11
26.75
 21
6
  0
CIRCLE
  5
18F
100
AcDbEntity
  8
spacer tabs1
  6
ByLayer
 62
  256
370
   -1
100
AcDbCircle
 10
15
 20
25
 40
1.5
  0
LINE
  5
190
100
AcDbEntity
  8
spacer tabs2
  6
ByLayer
 62
  256
370
   -1
100
AcDbLine
 10
6.000000000000007
 20
22
 11
6.000000000000007
 21
19
  0
LINE
  5
191
100
AcDbEntity
  8
spacer tabs2
  6
ByLayer
 62
  256
370
   -1
100
AcDbLine
 10
6.000000000000007
 20
31
 11
6.000000000000007
 21
28
  0
LINE
  5
192
100
AcDbEntity
  8
spacer tabs2
  6
ByLayer
 62
  256
370
   -1
100
AcDbLine
 10
6.000000000000007
 20
28
 11
3.250000000000007
 21
28
  0
LINE
  5
193
100
AcDbEntity
  8
spacer tabs2
  6
ByLayer
 62
  256
370
   -1
100
AcDbLine
 10
6.000000000000007
 20
22
 11
3.250000000000007
 21
22
  0
LINE
  5
194
100
AcDbEntity
  8
spacer tabs2
  6
ByLayer
 62
  256
370
   -1
100
AcDbLine
 10
3.250000000000007
 20
28
 11
3.250000000000007
 21
22
  0
LINE
  5
195
100
AcDbEntity
  8
spacer tabs2
  6
ByLayer
 62
  256
370
   -1
100
AcDbLine
 10
24
 20
31
 11
6.000000000000007
 21
31
  0
LINE
  5
196
100
AcDbEntity
  8
spacer tabs2
  6
ByLayer
 62
  256
370
   -1
100
AcDbLine
 10
6.000000000000007
 20
19
 11
24
 21
19
  0
LINE
  5
197
100
AcDbEntity
  8
spacer tabs2
  6
ByLayer
 62
  256
370
   -1
100
AcDbLine
 10
24
 20
22
 11
24
 21
19
  0
LINE
  5
198
100
AcDbEntity
  8
spacer tabs2
  6
ByLayer
 62
  256
370
   -1
100
AcDbLine
 10
24
 20
31
 11
24
 21
28
  0
LINE
  5
199
100
AcDbEntity
  8
spacer tabs2
  6
ByLayer
 62
  256
370
   -1
100
AcDbLine
 10
24
 20
28
 11
26.75
 21
28
  0
LINE
  5
19A
100
AcDbEntity
  8
spacer tabs2
  6
ByLayer
 62
  256
370
   -1
100
AcDbLine
 10
24
 20
22
 11
26.75
 21
22
  0
LINE
  5
19B
100
AcDbEntity
  8
spacer tabs2
  6
ByLayer
 62
  256
370
   -1
100
AcDbLine
 10
26.75
 20
28
 11
26.75
 21
22
  0
CIRCLE
  5
19C
100
AcDbEntity
  8
spacer tabs1
  6
ByLayer
 62
  256
370
   -1
100
AcDbCircle
 10
17.74999999999999
 20
41
 40
3.556
  0
LINE
  5
19D
100
AcDbEntity
  8
spacer tabs2
  6
ByLayer
 62
  256
370
   -1
100
AcDbLine
 10
6
 20
38
 11
6
 21
35
  0
LINE
  5
19E
100
AcDbEntity
  8
spacer tabs2
  6
ByLayer
 62
  256
370
   -1
100
AcDbLine
 10
6
 20
47
 11
6
 21
44
  0
LINE
  5
19F
100
AcDbEntity
  8
spacer tabs2
  6
ByLayer
 62
  256
370
   -1
100
AcDbLine
 10
6
 20
44
 11
3.25
 21
44
  0
LINE
  5
1A0
100
AcDbEntity
  8
spacer tabs2
  6
ByLayer
 62
  256
370
   -1
100
AcDbLine
 10
6
 20
38
 11
3.25
 21
38
  0
LINE
  5
1A1
100
AcDbEntity
  8
spacer tabs2
  6
ByLayer
 62
  256
370
   -1
100
AcDbLine
 10
3.25
 20
44
 11
3.25
 21
38
  0
LINE
  5
1A2
100
AcDbEntity
  8
spacer tabs2
  6
ByLayer
 62
  256
370
   -1
100
AcDbLine
 10
29.50000000000001
 20
47
 11
6
 21
47
  0
LINE
  5
1A3
100
AcDbEntity
  8
spacer tabs2
  6
ByLayer
 62
  256
370
   -1
100
AcDbLine
 10
6
 20
35
 11
29.50000000000001
 21
35
  0
LINE
  5
1A4
100
AcDbEntity
  8
spacer tabs2
  6
ByLayer
 62
  256
370
   -1
100
AcDbLine
 10
29.50000000000001
 20
38
 11
29.50000000000001
 21
35
  0
LINE
  5
1A5
100
AcDbEntity
  8
spacer tabs2
  6
ByLayer
 62
  256
370
   -1
100
AcDbLine
 10
29.50000000000001
 20
47
 11
29.50000000000001
 21
44
  0
LINE
  5
1A6
100
AcDbEntity
  8
spacer tabs2
  6
ByLayer
 62
  256
370
   -1
100
AcDbLine
 10
29.50000000000001
 20
44
 11
32.25000000000001
 21
44
  0
LINE
  5
1A7
100
AcDbEntity
  8
spacer tabs2
  6
ByLayer
 62
  256
370
   -1
100
AcDbLine
 10
29.50000000000001
 20
38
 11
32.25000000000001
 21
38
  0
LINE
  5
1A8
100
AcDbEntity
  8
spacer tabs2
  6
ByLayer
 62
  256
370
   -1
100
AcDbLine
 10
32.25000000000001
 20
44
 11
32.25000000000001
 21
38
  0
CIRCLE
  5
1A9
100
AcDbEntity
  8
spacer tabs1
  6
ByLayer
 62
  256
370
   -1
100
AcDbCircle
 10
40.00023646552921
 20
14.74991965639509
 40
1.5
  0
LINE
  5
1AA
100
AcDbEntity
  8
spacer tabs2
  6
ByLayer
 62
  256
370
   -1
100
AcDbLine
 10
43
 20
5.75
 11
46
 21
5.75
  0
LINE
  5
1AB
100
AcDbEntity
  8
spacer tabs2
  6
ByLayer
 62
  256
370
   -1
100
AcDbLine
 10
34
 20
5.75
 11
37
 21
5.75
  0
LINE
  5
1AC
100
AcDbEntity
  8
spacer tabs2
  6
ByLayer
 62
  256
370
   -1
100
AcDbLine
 10
37
 20
5.75
 11
37
 21
3
  0
LINE
  5
1AD
100
AcDbEntity
  8
spacer tabs2
  6
ByLayer
 62
  256
370
   -1
100
AcDbLine
 10
43
 20
5.75
 11
43
 21
3
  0
LINE
  5
1AE
100
AcDbEntity
  8
spacer tabs2
  6
ByLayer
 62
  256
370
   -1
100
AcDbLine
 10
37
 20
3
 11
43
 21
3
  0
LINE
  5
1AF
100
AcDbEntity
  8
spacer tabs2
  6
ByLayer
 62
  256
370
   -1
100
AcDbLine
 10
34
 20
23.75
 11
34
 21
5.75
  0
LINE
  5
1B0
100
AcDbEntity
  8
spacer tabs2
  6
ByLayer
 62
  256
370
   -1
100
AcDbLine
 10
46
 20
5.75
 11
46
 21
23.75
  0
LINE
  5
1B1
100
AcDbEntity
  8
spacer tabs2
  6
ByLayer
 62
  256
370
   -1
100
AcDbLine
 10
43
 20
23.75
 11
46
 21
23.75
  0
LINE
  5
1B2
100
AcDbEntity
  8
spacer tabs2
  6
ByLayer
 62
  256
370
   -1
100
AcDbLine
 10
34
 20
23.75
 11
37
 21
23.75
  0
LINE
  5
1B3
100
AcDbEntity
  8
spacer tabs2
  6
ByLayer
 62
  256
370
   -1
100
AcDbLine
 10
37
 20
23.75
 11
37
 21
26.5
  0
LINE
  5
1B4
100
AcDbEntity
  8
spacer tabs2
  6
ByLayer
 62
  256
370
   -1
100
AcDbLine
 10
43
 20
23.75
 11
43
 21
26.5
  0
LINE
  5
1B5
100
AcDbEntity
  8
spacer tabs2
  6
ByLayer
 62
  256
370
   -1
100
AcDbLine
 10
37
 20
26.5
 11
43
 21
26.5
  0
ENDBLK
  5
99
330
97
100
AcDbEntity
  8
0
100
AcDbBlockEnd
  0
ENDSEC
  0
SECTION
  2
ENTITIES
  0
INSERT
  5
1B6
100
AcDbEntity
  8
board
  6
ByLayer
 62
  256
370
   -1
100
AcDbBlockReference
  2
5x7
 10
215
 20
115
 30
0
 41
1
 42
1
 43
0
 50
0
 70
    1
 71
    1
 44
0
 45
0
  0
ARC
  5
1B7
100
AcDbEntity
  8
handle3
  6
ByLayer
 62
  256
370
   -1
100
AcDbCircle
 10
48.96136771740377
 20
137.9575280689152
 40
32.52597293708969
100
AcDbArc
 50
220.115616205215
 51
270.9221760707858
  0
SPLINE
  5
1B8
100
AcDbEntity
  8
handle3
  6
ByLayer
 62
  256
370
   -1
100
AcDbSpline
210
0
220
0
230
0
 70
    8
 71
    2
 72
   10
 73
    7
 74
    0
 42
1e-007
 43
1e-007
 40
0
 40
0
 40
0
 40
0.2
 40
0.4
 40
0.6
 40
0.8
 40
1
 40
1
 40
1
 10
31.22145439635206
 20
63.64471536392504
 30
0
 10
31.42523974191814
 20
68.42086656197128
 30
0
 10
31.6541579307824
 20
72.9273683479377
 30
0
 10
32.1438805139163
 20
75.00571979360751
 30
0
 10
34.95107748605015
 20
75.31140633970486
 30
0
 10
44.82759337990412
 20
73.47144219623775
 30
0
 10
52.6139700064051
 20
69.57201726243488
 30
0
  0
ARC
  5
1B9
100
AcDbEntity
  8
handle3
  6
ByLayer
 62
  256
370
   -1
100
AcDbCircle
 10
112.7769467890364
 20
2.122000617544941
 40
145.1303352441764
100
AcDbArc
 50
127.6693484542792
 51
133.1941414835552
  0
LINE
  5
1BA
100
AcDbEntity
  8
handle3
  6
ByLayer
 62
  256
370
   -1
100
AcDbLine
 10
31.00544229626847
 20
60.44021987582804
 11
31.22145439635206
 21
63.64471536392504
  0
LINE
  5
1BB
100
AcDbEntity
  8
handle3
  6
ByLayer
 62
  256
370
   -1
100
AcDbLine
 10
23.2721702894174
 20
52.83651095851762
 11
10.97665300121983
 21
102.8200664000729
  0
ARC
  5
1BC
100
AcDbEntity
  8
handle3
  6
ByLayer
 62
  256
370
   -1
100
AcDbCircle
 10
14.37533329384042
 20
103.6561120139916
 40
3.5
100
AcDbArc
 50
139.1940748295368
 51
193.8198668018734
  0
SPLINE
  5
1BD
100
AcDbEntity
  8
handle3
  6
ByLayer
 62
  256
370
   -1
100
AcDbSpline
210
0
220
0
230
0
 70
    8
 71
    2
 72
    8
 73
    5
 74
    0
 42
1e-007
 43
1e-007
 40
0
 40
0
 40
0
 40
0.3333333333333333
 40
0.6666666666666666
 40
1
 40
1
 40
1
 10
31.00544229626847
 20
60.44021987582804
 30
0
 10
30.87565621516772
 20
58.62447440669604
 30
0
 10
30.6276023449634
 20
56.21224948712326
 30
0
 10
30.41221071185989
 20
54.01003075201258
 30
0
 10
30.00434197603627
 20
52.60586302406382
 30
0
  0
ARC
  5
1BE
100
AcDbEntity
  8
handle3
  6
ByLayer
 62
  256
370
   -1
100
AcDbCircle
 10
26.67085058203796
 20
53.67255657243624
 40
3.5
100
AcDbArc
 50
193.8198933408114
 51
342.255697855265
  0
LINE
  5
1BF
100
AcDbEntity
  8
handle3
  6
ByLayer
 62
  256
370
   -1
100
AcDbLine
 10
13.43921396287372
 20
107.9276197738305
 11
11.72608711755048
 21
105.9433581086244
  0
CIRCLE
  5
1C0
100
AcDbEntity
  8
handle1
  6
ByLayer
 62
  256
370
   -1
100
AcDbCircle
 10
49.86328926206023
 20
99.9478918250328
 40
1.6
  0
CIRCLE
  5
1C1
100
AcDbEntity
  8
handle1
  6
ByLayer
 62
  256
370
   -1
100
AcDbCircle
 10
52.03628861832244
 20
75.04250939878455
 40
1.6
  0
CIRCLE
  5
1C2
100
AcDbEntity
  8
handle1
  6
ByLayer
 62
  256
370
   -1
100
AcDbCircle
 10
115.578996531017
 20
113.3104728083686
 40
1.6
  0
CIRCLE
  5
1C3
100
AcDbEntity
  8
handle1
  6
ByLayer
 62
  256
370
   -1
100
AcDbCircle
 10
119.0731794958862
 20
73.26261786696598
 40
1.6
  0
CIRCLE
  5
1C4
100
AcDbEntity
  8
handle1
  6
ByLayer
 62
  256
370
   -1
100
AcDbCircle
 10
22.05682345980738
 20
110.3643386854146
 40
1.6
  0
CIRCLE
  5
1C5
100
AcDbEntity
  8
handle1
  6
ByLayer
 62
  256
370
   -1
100
AcDbCircle
 10
14.37533329384042
 20
103.6561120139916
 40
1.6
  0
CIRCLE
  5
1C6
100
AcDbEntity
  8
handle1
  6
ByLayer
 62
  256
370
   -1
100
AcDbCircle
 10
26.67085058203796
 20
53.67255657243624
 40
1.6
  0
LINE
  5
1C7
100
AcDbEntity
  8
handle2
  6
ByLayer
 62
  256
370
   -1
100
AcDbLine
 10
47.11296022958508
 20
77.2218583276386
 11
41.37554702227947
 21
78.9774464594723
  0
LINE
  5
1C8
100
AcDbEntity
  8
handle2
  6
ByLayer
 62
  256
370
   -1
100
AcDbLine
 10
40.61479216515153
 20
76.4912340696399
 11
46.35220537245713
 21
74.73564593780618
  0
LINE
  5
1C9
100
AcDbEntity
  8
handle3
  6
ByLayer
 62
  256
370
   -1
100
AcDbLine
 10
109.1580957434448
 20
111.1354711103977
 11
49.48485093338758
 21
105.4357679562326
  0
ARC
  5
1CA
100
AcDbEntity
  8
handle3
  6
ByLayer
 62
  256
370
   -1
100
AcDbCircle
 10
109.0069645614507
 20
112.7283174199422
 40
1.6
100
AcDbArc
 50
275.4200670196897
 51
339.9534652789849
  0
SPLINE
  5
1CB
100
AcDbEntity
  8
handle3
  6
ByLayer
 62
  256
370
   -1
100
AcDbSpline
210
0
220
0
230
0
 70
    8
 71
    2
 72
    8
 73
    5
 74
    0
 42
1e-007
 43
1e-007
 40
0
 40
0
 40
0
 40
0.3333333333333333
 40
0.6666666666666666
 40
1
 40
1
 40
1
 10
124.4352847675184
 20
93.90682410736193
 30
0
 10
123.0670887539445
 20
109.5880489542939
 30
0
 10
118.0043998208584
 20
117.4992295615646
 30
0
 10
111.9738730169848
 20
116.3594339330353
 30
0
 10
110.5100278055539
 20
112.1798642457982
 30
0
  0
ARC
  5
1CC
100
AcDbEntity
  8
handle3
  6
ByLayer
 62
  256
370
   -1
100
AcDbCircle
 10
112.4996331624353
 20
72.69781904680956
 40
1.6
100
AcDbArc
 50
30.01941472101536
 51
94.55281298031052
  0
SPLINE
  5
1CD
100
AcDbEntity
  8
handle3
  6
ByLayer
 62
  256
370
   -1
100
AcDbSpline
210
0
220
0
230
0
 70
    8
 71
    2
 72
    8
 73
    5
 74
    0
 42
1e-007
 43
1e-007
 40
0
 40
0
 40
0
 40
0.3333333333333333
 40
0.6666666666666666
 40
1
 40
1
 40
1
 10
124.4352847675184
 20
93.90682410736198
 30
0
 10
125.8034685512074
 20
78.22559819337019
 30
0
 10
122.187351883402
 20
69.55719014581791
 30
0
 10
116.0505552229185
 20
69.63538448660248
 30
0
 10
113.8850026483028
 20
73.49828852632123
 30
0
  0
LINE
  5
1CE
100
AcDbEntity
  8
handle3
  6
ByLayer
 62
  256
370
   -1
100
AcDbLine
 10
52.6139700064051
 20
69.57201726243488
 11
112.3726283925454
 21
74.29277039040133
  0
LINE
  5
1CF
100
AcDbEntity
  8
handle2
  6
ByLayer
 62
  256
370
   -1
100
AcDbLine
 10
46.35220537245713
 20
74.73564593780618
 11
47.11296022958508
 21
77.2218583276386
  0
LINE
  5
1D0
100
AcDbEntity
  8
handle2
  6
ByLayer
 62
  256
370
   -1
100
AcDbLine
 10
41.37554702227947
 20
78.9774464594723
 11
40.61479216515153
 21
76.4912340696399
  0
CIRCLE
  5
1D1
100
AcDbEntity
  8
handle4-back
  6
ByLayer
 62
  256
370
   -1
100
AcDbCircle
 10
152.1186607612458
 20
22.32797026115433
 40
1.6
  0
ARC
  5
1D2
100
AcDbEntity
  8
handle3
  6
ByLayer
 62
  256
370
   -1
100
AcDbCircle
 10
120.4217169154686
 20
-20.96261569230425
 40
32.52597293708969
100
AcDbArc
 50
40.12733620521498
 51
90.93389607078579
  0
SPLINE
  5
1D3
100
AcDbEntity
  8
handle3
  6
ByLayer
 62
  256
370
   -1
100
AcDbSpline
210
0
220
0
230
0
 70
    8
 71
    2
 72
   10
 73
    7
 74
    0
 42
1e-007
 43
1e-007
 40
0
 40
0
 40
0
 40
0.2
 40
0.4
 40
0.6
 40
0.8
 40
1
 40
1
 40
1
 10
138.1464289873065
 20
53.35382420315779
 30
0
 10
137.9436206200868
 20
48.57763142021322
 30
0
 10
137.7156242526099
 20
44.07108290271906
 30
0
 10
137.2263268118862
 20
41.99263132650894
 30
0
 10
134.4191924274551
 20
41.68637056740421
 30
0
 10
124.5423003708012
 20
43.52431440550195
 30
0
 10
116.7551262697404
 20
47.42214653424384
 30
0
  0
ARC
  5
1D4
100
AcDbEntity
  8
handle3
  6
ByLayer
 62
  256
370
   -1
100
AcDbCircle
 10
56.57835367037994
 20
114.8598552754831
 40
145.1303352441764
100
AcDbArc
 50
307.6810684542793
 51
313.2058614835552
  0
LINE
  5
1D5
100
AcDbEntity
  8
handle3
  6
ByLayer
 62
  256
370
   -1
100
AcDbLine
 10
138.3617855950291
 20
56.55836381004779
 11
138.1464289873065
 21
53.35382420315779
  0
LINE
  5
1D6
100
AcDbEntity
  8
handle3
  6
ByLayer
 62
  256
370
   -1
100
AcDbLine
 10
146.0935020817642
 20
64.16365442907619
 11
158.3992433782971
 21
14.18261511308952
  0
ARC
  5
1D7
100
AcDbEntity
  8
handle3
  6
ByLayer
 62
  256
370
   -1
100
AcDbCircle
 10
155.000734172073
 20
13.34587430781569
 40
3.5
100
AcDbArc
 50
319.2057948295368
 51
13.83158680187342
  0
SPLINE
  5
1D8
100
AcDbEntity
  8
handle3
  6
ByLayer
 62
  256
370
   -1
100
AcDbSpline
210
0
220
0
230
0
 70
    8
 71
    2
 72
    8
 73
    5
 74
    0
 42
1e-007
 43
1e-007
 40
0
 40
0
 40
0
 40
0.3333333333333333
 40
0.6666666666666666
 40
1
 40
1
 40
1
 10
138.3617855950291
 20
56.55836381004779
 30
0
 10
138.4912002579817
 20
58.37413578927143
 30
0
 10
138.738760696149
 20
60.78641139843918
 30
0
 10
138.9537018552072
 20
62.98867414639326
 30
0
 10
139.3612833563566
 20
64.39292527557063
 30
0
  0
ARC
  5
1D9
100
AcDbEntity
  8
handle3
  6
ByLayer
 62
  256
370
   -1
100
AcDbCircle
 10
142.6949928755401
 20
63.32691362380245
 40
3.5
100
AcDbArc
 50
13.83161334081139
 51
162.267417855265
  0
LINE
  5
1DA
100
AcDbEntity
  8
handle3
  6
ByLayer
 62
  256
370
   -1
100
AcDbLine
 10
155.9377272314175
 20
9.074558122971318
 11
157.6504481550439
 21
11.05917017119284
  0
CIRCLE
  5
1DB
100
AcDbEntity
  8
handle1
  6
ByLayer
 62
  256
370
   -1
100
AcDbCircle
 10
119.51202042026
 20
17.04683526599796
 40
1.6
  0
CIRCLE
  5
1DC
100
AcDbEntity
  8
handle1
  6
ByLayer
 62
  256
370
   -1
100
AcDbCircle
 10
117.3339266490556
 20
41.95177267856402
 40
1.6
  0
CIRCLE
  5
1DD
100
AcDbEntity
  8
handle1
  6
ByLayer
 62
  256
370
   -1
100
AcDbCircle
 10
53.79904787664155
 20
3.670812244296831
 40
1.6
  0
CIRCLE
  5
1DE
100
AcDbEntity
  8
handle1
  6
ByLayer
 62
  256
370
   -1
100
AcDbCircle
 10
50.29667309254538
 20
43.71795160369845
 40
1.6
  0
CIRCLE
  5
1DF
100
AcDbEntity
  8
handle1
  6
ByLayer
 62
  256
370
   -1
100
AcDbCircle
 10
147.3206163519287
 20
6.636076508049955
 40
1.6
  0
CIRCLE
  5
1E0
100
AcDbEntity
  8
handle1
  6
ByLayer
 62
  256
370
   -1
100
AcDbCircle
 10
155.000734172073
 20
13.34587430781569
 40
1.6
  0
CIRCLE
  5
1E1
100
AcDbEntity
  8
handle1
  6
ByLayer
 62
  256
370
   -1
100
AcDbCircle
 10
142.6949928755401
 20
63.32691362380245
 40
1.6
  0
LINE
  5
1E2
100
AcDbEntity
  8
handle2
  6
ByLayer
 62
  256
370
   -1
100
AcDbLine
 10
122.2577007262538
 20
39.77343087486197
 11
127.9954729236216
 21
38.01901638247041
  0
LINE
  5
1E3
100
AcDbEntity
  8
handle2
  6
ByLayer
 62
  256
370
   -1
100
AcDbLine
 10
128.7557192036579
 20
40.5053843346631
 11
123.0179470062901
 21
42.25979882705466
  0
LINE
  5
1E4
100
AcDbEntity
  8
handle3
  6
ByLayer
 62
  256
370
   -1
100
AcDbLine
 10
60.21950362765902
 20
5.847127308631122
 11
119.8915813002746
 21
11.55903666014849
  0
ARC
  5
1E5
100
AcDbEntity
  8
handle3
  6
ByLayer
 62
  256
370
   -1
100
AcDbCircle
 10
60.37096062732446
 20
4.254311946684614
 40
1.6
100
AcDbArc
 50
95.43178701968971
 51
159.9651852789849
  0
SPLINE
  5
1E6
100
AcDbEntity
  8
handle3
  6
ByLayer
 62
  256
370
   -1
100
AcDbSpline
210
0
220
0
230
0
 70
    8
 71
    2
 72
    8
 73
    5
 74
    0
 42
1e-007
 43
1e-007
 40
0
 40
0
 40
0
 40
0.3333333333333333
 40
0.6666666666666666
 40
1
 40
1
 40
1
 10
44.93879075888429
 20
23.07264896269291
 30
0
 10
46.31019437894266
 20
7.391704311859912
 30
0
 10
51.37450145857153
 20
-0.5184405437839512
 30
0
 10
57.40479498813682
 20
0.6225886207580004
 30
0
 10
58.86778522715117
 20
4.802457653879614
 30
0
  0
ARC
  5
1E7
100
AcDbEntity
  8
handle3
  6
ByLayer
 62
  256
370
   -1
100
AcDbCircle
 10
56.87010375741217
 20
44.28409504794647
 40
1.6
100
AcDbArc
 50
210.0311347210153
 51
274.5645329803105
  0
SPLINE
  5
1E8
100
AcDbEntity
  8
handle3
  6
ByLayer
 62
  256
370
   -1
100
AcDbSpline
210
0
220
0
230
0
 70
    8
 71
    2
 72
    8
 73
    5
 74
    0
 42
1e-007
 43
1e-007
 40
0
 40
0
 40
0
 40
0.3333333333333333
 40
0.6666666666666666
 40
1
 40
1
 40
1
 10
44.9387907588843
 20
23.07264896269285
 30
0
 10
43.56739936849238
 20
38.75359468308726
 30
0
 10
47.18174281535484
 20
47.42274223530776
 30
0
 10
53.31855534230586
 20
47.34580319379132
 30
0
 10
55.48489803863061
 20
43.48334220426914
 30
0
  0
LINE
  5
1E9
100
AcDbEntity
  8
handle3
  6
ByLayer
 62
  256
370
   -1
100
AcDbLine
 10
116.7551262697404
 20
47.42214653424384
 11
56.99743477606832
 21
42.6891697168767
  0
LINE
  5
1EA
100
AcDbEntity
  8
handle2
  6
ByLayer
 62
  256
370
   -1
100
AcDbLine
 10
123.0179470062901
 20
42.25979882705466
 11
122.2577007262538
 21
39.77343087486197
  0
LINE
  5
1EB
100
AcDbEntity
  8
handle2
  6
ByLayer
 62
  256
370
   -1
100
AcDbLine
 10
127.9954729236216
 20
38.01901638247041
 11
128.7557192036579
 21
40.5053843346631
  0
CIRCLE
  5
1EC
100
AcDbEntity
  8
spacer tabs1
  6
ByLayer
 62
  256
370
   -1
100
AcDbCircle
 10
141.0646099833729
 20
103.5774707592196
 40
3.556
  0
LINE
  5
1ED
100
AcDbEntity
  8
spacer tabs2
  6
ByLayer
 62
  256
370
   -1
100
AcDbLine
 10
144.0643735178436
 20
94.57755110282454
 11
147.0643735178436
 21
94.57755110282454
  0
LINE
  5
1EE
100
AcDbEntity
  8
spacer tabs2
  6
ByLayer
 62
  256
370
   -1
100
AcDbLine
 10
135.0643735178436
 20
94.57755110282454
 11
138.0643735178436
 21
94.57755110282454
  0
LINE
  5
1EF
100
AcDbEntity
  8
spacer tabs2
  6
ByLayer
 62
  256
370
   -1
100
AcDbLine
 10
138.0643735178436
 20
94.57755110282454
 11
138.0643735178436
 21
91.82755110282454
  0
LINE
  5
1F0
100
AcDbEntity
  8
spacer tabs2
  6
ByLayer
 62
  256
370
   -1
100
AcDbLine
 10
144.0643735178436
 20
94.57755110282454
 11
144.0643735178436
 21
91.82755110282454
  0
LINE
  5
1F1
100
AcDbEntity
  8
spacer tabs2
  6
ByLayer
 62
  256
370
   -1
100
AcDbLine
 10
138.0643735178436
 20
91.82755110282454
 11
144.0643735178436
 21
91.82755110282454
  0
LINE
  5
1F2
100
AcDbEntity
  8
spacer tabs2
  6
ByLayer
 62
  256
370
   -1
100
AcDbLine
 10
135.0643735178436
 20
112.5775511028245
 11
135.0643735178436
 21
94.57755110282454
  0
LINE
  5
1F3
100
AcDbEntity
  8
spacer tabs2
  6
ByLayer
 62
  256
370
   -1
100
AcDbLine
 10
147.0643735178436
 20
94.57755110282454
 11
147.0643735178436
 21
112.5775511028245
  0
LINE
  5
1F4
100
AcDbEntity
  8
spacer tabs2
  6
ByLayer
 62
  256
370
   -1
100
AcDbLine
 10
144.0643735178436
 20
112.5775511028245
 11
147.0643735178436
 21
112.5775511028245
  0
LINE
  5
1F5
100
AcDbEntity
  8
spacer tabs2
  6
ByLayer
 62
  256
370
   -1
100
AcDbLine
 10
135.0643735178436
 20
112.5775511028245
 11
138.0643735178436
 21
112.5775511028245
  0
LINE
  5
1F6
100
AcDbEntity
  8
spacer tabs2
  6
ByLayer
 62
  256
370
   -1
100
AcDbLine
 10
138.0643735178436
 20
112.5775511028245
 11
138.0643735178436
 21
115.3275511028245
  0
LINE
  5
1F7
100
AcDbEntity
  8
spacer tabs2
  6
ByLayer
 62
  256
370
   -1
100
AcDbLine
 10
144.0643735178436
 20
112.5775511028245
 11
144.0643735178436
 21
115.3275511028245
  0
LINE
  5
1F8
100
AcDbEntity
  8
spacer tabs2
  6
ByLayer
 62
  256
370
   -1
100
AcDbLine
 10
138.0643735178436
 20
115.3275511028245
 11
144.0643735178436
 21
115.3275511028245
  0
CIRCLE
  5
1F9
100
AcDbEntity
  8
spacer tabs1
  6
ByLayer
 62
  256
370
   -1
100
AcDbCircle
 10
159.7648574550327
 20
104.4907217327506
 40
1.5
  0
LINE
  5
1FA
100
AcDbEntity
  8
spacer tabs2
  6
ByLayer
 62
  256
370
   -1
100
AcDbLine
 10
162.7648574550326
 20
95.49072173275057
 11
165.7648574550326
 21
95.49072173275057
  0
LINE
  5
1FB
100
AcDbEntity
  8
spacer tabs2
  6
ByLayer
 62
  256
370
   -1
100
AcDbLine
 10
153.7648574550326
 20
95.49072173275057
 11
156.7648574550326
 21
95.49072173275057
  0
LINE
  5
1FC
100
AcDbEntity
  8
spacer tabs2
  6
ByLayer
 62
  256
370
   -1
100
AcDbLine
 10
156.7648574550326
 20
95.49072173275057
 11
156.7648574550326
 21
92.74072173275057
  0
LINE
  5
1FD
100
AcDbEntity
  8
spacer tabs2
  6
ByLayer
 62
  256
370
   -1
100
AcDbLine
 10
162.7648574550326
 20
95.49072173275057
 11
162.7648574550326
 21
92.74072173275057
  0
LINE
  5
1FE
100
AcDbEntity
  8
spacer tabs2
  6
ByLayer
 62
  256
370
   -1
100
AcDbLine
 10
156.7648574550326
 20
92.74072173275057
 11
162.7648574550326
 21
92.74072173275057
  0
LINE
  5
1FF
100
AcDbEntity
  8
spacer tabs2
  6
ByLayer
 62
  256
370
   -1
100
AcDbLine
 10
153.7648574550327
 20
113.4907217327506
 11
153.7648574550326
 21
95.49072173275057
  0
LINE
  5
200
100
AcDbEntity
  8
spacer tabs2
  6
ByLayer
 62
  256
370
   -1
100
AcDbLine
 10
165.7648574550326
 20
95.49072173275057
 11
165.7648574550327
 21
113.4907217327506
  0
LINE
  5
201
100
AcDbEntity
  8
spacer tabs2
  6
ByLayer
 62
  256
370
   -1
100
AcDbLine
 10
162.7648574550327
 20
113.4907217327506
 11
165.7648574550327
 21
113.4907217327506
  0
LINE
  5
202
100
AcDbEntity
  8
spacer tabs2
  6
ByLayer
 62
  256
370
   -1
100
AcDbLine
 10
153.7648574550327
 20
113.4907217327506
 11
156.7648574550327
 21
113.4907217327506
  0
LINE
  5
203
100
AcDbEntity
  8
spacer tabs2
  6
ByLayer
 62
  256
370
   -1
100
AcDbLine
 10
156.7648574550327
 20
113.4907217327506
 11
156.7648574550327
 21
116.2407217327506
  0
LINE
  5
204
100
AcDbEntity
  8
spacer tabs2
  6
ByLayer
 62
  256
370
   -1
100
AcDbLine
 10
162.7648574550327
 20
113.4907217327506
 11
162.7648574550327
 21
116.2407217327506
  0
LINE
  5
205
100
AcDbEntity
  8
spacer tabs2
  6
ByLayer
 62
  256
370
   -1
100
AcDbLine
 10
156.7648574550327
 20
116.2407217327506
 11
162.7648574550327
 21
116.2407217327506
  0
CIRCLE
  5
206
100
AcDbEntity
  8
spacer tabs1
  6
ByLayer
 62
  256
370
   -1
100
AcDbCircle
 10
6.912026264939627
 20
15.49573886995079
 40
3.556
  0
LINE
  5
207
100
AcDbEntity
  8
spacer tabs2
  6
ByLayer
 62
  256
370
   -1
100
AcDbLine
 10
9.912026264939627
 20
3.745738869950789
 11
12.91202626493963
 21
3.745738869950788
  0
LINE
  5
208
100
AcDbEntity
  8
spacer tabs2
  6
ByLayer
 62
  256
370
   -1
100
AcDbLine
 10
0.912026264939626
 20
3.745738869950789
 11
3.912026264939626
 21
3.745738869950789
  0
LINE
  5
209
100
AcDbEntity
  8
spacer tabs2
  6
ByLayer
 62
  256
370
   -1
100
AcDbLine
 10
3.912026264939626
 20
3.745738869950789
 11
3.912026264939626
 21
0.9957388699507889
  0
LINE
  5
20A
100
AcDbEntity
  8
spacer tabs2
  6
ByLayer
 62
  256
370
   -1
100
AcDbLine
 10
9.912026264939627
 20
3.745738869950789
 11
9.912026264939627
 21
0.9957388699507884
  0
LINE
  5
20B
100
AcDbEntity
  8
spacer tabs2
  6
ByLayer
 62
  256
370
   -1
100
AcDbLine
 10
3.912026264939626
 20
0.9957388699507889
 11
9.912026264939627
 21
0.9957388699507884
  0
LINE
  5
20C
100
AcDbEntity
  8
spacer tabs2
  6
ByLayer
 62
  256
370
   -1
100
AcDbLine
 10
0.9120262649396275
 20
27.24573886995079
 11
0.912026264939626
 21
3.745738869950789
  0
LINE
  5
20D
100
AcDbEntity
  8
spacer tabs2
  6
ByLayer
 62
  256
370
   -1
100
AcDbLine
 10
12.91202626493963
 20
3.745738869950788
 11
12.91202626493963
 21
27.24573886995079
  0
LINE
  5
20E
100
AcDbEntity
  8
spacer tabs2
  6
ByLayer
 62
  256
370
   -1
100
AcDbLine
 10
9.912026264939627
 20
27.24573886995079
 11
12.91202626493963
 21
27.24573886995079
  0
LINE
  5
20F
100
AcDbEntity
  8
spacer tabs2
  6
ByLayer
 62
  256
370
   -1
100
AcDbLine
 10
0.9120262649396275
 20
27.24573886995079
 11
3.912026264939628
 21
27.24573886995079
  0
LINE
  5
210
100
AcDbEntity
  8
spacer tabs2
  6
ByLayer
 62
  256
370
   -1
100
AcDbLine
 10
3.912026264939628
 20
27.24573886995079
 11
3.912026264939628
 21
29.99573886995079
  0
LINE
  5
211
100
AcDbEntity
  8
spacer tabs2
  6
ByLayer
 62
  256
370
   -1
100
AcDbLine
 10
9.912026264939627
 20
27.24573886995079
 11
9.912026264939628
 21
29.99573886995079
  0
LINE
  5
212
100
AcDbEntity
  8
spacer tabs2
  6
ByLayer
 62
  256
370
   -1
100
AcDbLine
 10
3.912026264939628
 20
29.99573886995079
 11
9.912026264939628
 21
29.99573886995079
  0
LINE
  5
213
100
AcDbEntity
  8
spacer tabs2
  6
ByLayer
 62
  256
370
   -1
100
AcDbLine
 10
29.7253254976762
 20
3.583334777879148
 11
32.7253254976762
 21
3.583334777879148
  0
LINE
  5
214
100
AcDbEntity
  8
spacer tabs2
  6
ByLayer
 62
  256
370
   -1
100
AcDbLine
 10
20.7253254976762
 20
3.583334777879148
 11
23.7253254976762
 21
3.583334777879148
  0
LINE
  5
215
100
AcDbEntity
  8
spacer tabs2
  6
ByLayer
 62
  256
370
   -1
100
AcDbLine
 10
23.7253254976762
 20
3.583334777879148
 11
23.7253254976762
 21
0.8333347778791481
  0
LINE
  5
216
100
AcDbEntity
  8
spacer tabs2
  6
ByLayer
 62
  256
370
   -1
100
AcDbLine
 10
29.7253254976762
 20
3.583334777879148
 11
29.7253254976762
 21
0.8333347778791477
  0
LINE
  5
217
100
AcDbEntity
  8
spacer tabs2
  6
ByLayer
 62
  256
370
   -1
100
AcDbLine
 10
23.7253254976762
 20
0.8333347778791481
 11
29.7253254976762
 21
0.8333347778791477
  0
LINE
  5
218
100
AcDbEntity
  8
spacer tabs2
  6
ByLayer
 62
  256
370
   -1
100
AcDbLine
 10
20.7253254976762
 20
25.58333477787915
 11
20.7253254976762
 21
3.583334777879148
  0
LINE
  5
219
100
AcDbEntity
  8
spacer tabs2
  6
ByLayer
 62
  256
370
   -1
100
AcDbLine
 10
32.7253254976762
 20
3.583334777879148
 11
32.7253254976762
 21
25.58333477787915
  0
LINE
  5
21A
100
AcDbEntity
  8
spacer tabs2
  6
ByLayer
 62
  256
370
   -1
100
AcDbLine
 10
29.7253254976762
 20
25.58333477787915
 11
32.7253254976762
 21
25.58333477787915
  0
LINE
  5
21B
100
AcDbEntity
  8
spacer tabs2
  6
ByLayer
 62
  256
370
   -1
100
AcDbLine
 10
20.7253254976762
 20
25.58333477787915
 11
23.7253254976762
 21
25.58333477787915
  0
LINE
  5
21C
100
AcDbEntity
  8
spacer tabs2
  6
ByLayer
 62
  256
370
   -1
100
AcDbLine
 10
23.7253254976762
 20
25.58333477787915
 11
23.7253254976762
 21
28.33333477787915
  0
LINE
  5
21D
100
AcDbEntity
  8
spacer tabs2
  6
ByLayer
 62
  256
370
   -1
100
AcDbLine
 10
29.7253254976762
 20
25.58333477787915
 11
29.7253254976762
 21
28.33333477787915
  0
LINE
  5
21E
100
AcDbEntity
  8
spacer tabs2
  6
ByLayer
 62
  256
370
   -1
100
AcDbLine
 10
23.7253254976762
 20
28.33333477787915
 11
29.7253254976762
 21
28.33333477787915
  0
CIRCLE
  5
21F
100
AcDbEntity
  8
spacer tabs1
  6
ByLayer
 62
  256
370
   -1
100
AcDbCircle
 10
26.7253254976762
 20
14.58333477787915
 40
3.556
  0
MTEXT
  5
220
100
AcDbEntity
  8
construction
  6
ByLayer
 62
  256
370
   -1
100
AcDbMText
 10
70
 20
90
 30
0
 40
3
 41
9.666666666666806
 71
    1
 72
    1
  1
front
  7

210
0
220
0
230
1
 50
0
 73
    2
 44
1
  0
MTEXT
  5
221
100
AcDbEntity
  8
construction
  6
ByLayer
 62
  256
370
   -1
100
AcDbMText
 10
60
 20
20
 30
0
 40
3
 41
8.000000000000279
 71
    1
 72
    1
  1
back
  7

210
0
220
0
230
1
 50
0
 73
    2
 44
1
  0
LINE
  5
222
100
AcDbEntity
  8
construction
  6
ByLayer
 62
  256
370
   -1
100
AcDbLine
 10
119.51202042026
 20
17.04683526599796
 11
114.5310317212892
 21
16.61123042129985
  0
LINE
  5
223
100
AcDbEntity
  8
handle4-back
  6
ByLayer
 62
  256
370
   -1
100
AcDbLine
 10
101.2698443096647
 20
30.50874489093702
 11
102.576658843759
 21
15.5657787940244
  0
LINE
  5
224
100
AcDbEntity
  8
handle4-back
  6
ByLayer
 62
  256
370
   -1
100
AcDbLine
 10
101.2698443096647
 20
30.50874489093702
 11
113.2242171871948
 21
31.55419651821247
  0
LINE
  5
225
100
AcDbEntity
  8
handle4-back
  6
ByLayer
 62
  256
370
   -1
100
AcDbLine
 10
102.576658843759
 20
15.5657787940244
 11
114.5310317212891
 21
16.61123042129985
  0
LINE
  5
226
100
AcDbEntity
  8
handle4-back
  6
ByLayer
 62
  256
370
   -1
100
AcDbLine
 10
113.2242171871948
 20
31.55419651821247
 11
114.5310317212891
 21
16.61123042129985
  0
ENDSEC
  0
SECTION
  2
OBJECTS
  0
DICTIONARY
  5
C
330
0
100
AcDbDictionary
281
    1
  3
ACAD_GROUP
350
D
  0
DICTIONARY
  5
D
330
C
100
AcDbDictionary
281
    1
  0
ENDSEC
  0
EOF
