999
dxfrw 0.6.3
  0
SECTION
  2
HEADER
  9
$ACADVER
  1
AC1021
  9
$DWGCODEPAGE
  3
ANSI_1252
  9
$INSBASE
 10
0
 20
0
 30
0
  9
$EXTMIN
 10
-4.499999844583306
 20
-10.25
 30
0
  9
$EXTMAX
 10
31.99976353447079
 20
32.66666666666679
 30
0
  9
$LIMMIN
 10
0
 20
0
  9
$LIMMAX
 10
420
 20
297
  9
$ORTHOMODE
 70
    0
  9
$REGENMODE
 70
    1
  9
$FILLMODE
 70
    1
  9
$QTEXTMODE
 70
    0
  9
$MIRRTEXT
 70
    0
  9
$LTSCALE
 40
1
  9
$ATTMODE
 70
    0
  9
$TEXTSIZE
 40
2.5
  9
$TRACEWID
 40
15.68
  9
$TEXTSTYLE
  7
STANDARD
  9
$CLAYER
  8
trigger-construction
  9
$CELTYPE
  6
BYLAYER
  9
$CECOLOR
 62
  256
  9
$CELTSCALE
 40
1
  9
$DISPSILH
 70
    0
  9
$DIMSCALE
 40
1
  9
$DIMASZ
 40
2.5
  9
$DIMEXO
 40
0.025
  9
$DIMDLI
 40
3.75
  9
$DIMRND
 40
0
  9
$DIMDLE
 40
0
  9
$DIMEXE
 40
1.25
  9
$DIMTP
 40
0
  9
$DIMTM
 40
0
  9
$DIMTXT
 40
2
  9
$DIMCEN
 40
2.5
  9
$DIMTSZ
 40
0
  9
$DIMTOL
 70
    0
  9
$DIMLIM
 70
    0
  9
$DIMTIH
 70
    0
  9
$DIMTOH
 70
    0
  9
$DIMSE1
 70
    0
  9
$DIMSE2
 70
    0
  9
$DIMTAD
 70
    1
  9
$DIMZIN
 70
    8
  9
$DIMBLK
  1

  9
$DIMASO
 70
    1
  9
$DIMSHO
 70
    1
  9
$DIMPOST
  1

  9
$DIMAPOST
  1

  9
$DIMALT
 70
    0
  9
$DIMALTD
 70
    3
  9
$DIMALTF
 40
0.03937
  9
$DIMLFAC
 40
1
  9
$DIMTOFL
 70
    1
  9
$DIMTVP
 40
0
  9
$DIMTIX
 70
    0
  9
$DIMSOXD
 70
    0
  9
$DIMSAH
 70
    0
  9
$DIMBLK1
  1

  9
$DIMBLK2
  1

  9
$DIMSTYLE
  2
STANDARD
  9
$DIMCLRD
 70
    0
  9
$DIMCLRE
 70
    0
  9
$DIMCLRT
 70
    0
  9
$DIMTFAC
 40
1
  9
$DIMGAP
 40
0.5
  9
$DIMJUST
 70
    0
  9
$DIMSD1
 70
    0
  9
$DIMSD2
 70
    0
  9
$DIMTOLJ
 70
    0
  9
$DIMTZIN
 70
    8
  9
$DIMALTZ
 70
    0
  9
$DIMALTTZ
 70
    0
  9
$DIMUPT
 70
    0
  9
$DIMDEC
 70
    2
  9
$DIMTDEC
 70
    2
  9
$DIMALTU
 70
    2
  9
$DIMALTTD
 70
    3
  9
$DIMTXSTY
  7
standard
  9
$DIMAUNIT
 70
    0
  9
$DIMADEC
 70
    0
  9
$DIMALTRND
 40
0
  9
$DIMAZIN
 70
    0
  9
$DIMDSEP
 70
    0
  9
$DIMATFIT
 70
    3
  9
$DIMFRAC
 70
    0
  9
$DIMLDRBLK
  1
STANDARD
  9
$DIMLUNIT
 70
    2
  9
$DIMLWD
 70
   -2
  9
$DIMLWE
 70
   -2
  9
$DIMTMOVE
 70
    0
  9
$DIMFXL
 40
1
  9
$DIMFXLON
 70
    0
  9
$DIMJOGANG
 40
0.7854
  9
$DIMTFILL
 70
    0
  9
$DIMTFILLCLR
 70
    0
  9
$DIMARCSYM
 70
    0
  9
$DIMLTYPE
  6

  9
$DIMLTEX1
  6

  9
$DIMLTEX2
  6

  9
$LUNITS
 70
    2
  9
$LUPREC
 70
    4
  9
$SKETCHINC
 40
1
  9
$FILLETRAD
 40
0
  9
$AUNITS
 70
    0
  9
$AUPREC
 70
    2
  9
$MENU
  1
.
  9
$ELEVATION
 40
0
  9
$PELEVATION
 40
0
  9
$THICKNESS
 40
0
  9
$LIMCHECK
 70
    0
  9
$CHAMFERA
 40
0
  9
$CHAMFERB
 40
0
  9
$CHAMFERC
 40
0
  9
$CHAMFERD
 40
0
  9
$SKPOLY
 70
    0
  9
$USRTIMER
 70
    1
  9
$ANGBASE
 50
0
  9
$ANGDIR
 70
    0
  9
$PDMODE
 70
   34
  9
$PDSIZE
 40
0
  9
$PLINEWID
 40
0
  9
$SPLFRAME
 70
    0
  9
$SPLINETYPE
 70
    2
  9
$SPLINESEGS
 70
    8
  9
$HANDSEED
  5
20000
  9
$SURFTAB1
 70
    6
  9
$SURFTAB2
 70
    6
  9
$SURFTYPE
 70
    6
  9
$SURFU
 70
    6
  9
$SURFV
 70
    6
  9
$UCSBASE
  2

  9
$UCSNAME
  2

  9
$UCSORG
 10
0
 20
0
 30
0
  9
$UCSXDIR
 10
1
 20
0
 30
0
  9
$UCSYDIR
 10
0
 20
1
 30
0
  9
$UCSORTHOREF
  2

  9
$UCSORTHOVIEW
 70
    0
  9
$UCSORGTOP
 10
0
 20
0
 30
0
  9
$UCSORGBOTTOM
 10
0
 20
0
 30
0
  9
$UCSORGLEFT
 10
0
 20
0
 30
0
  9
$UCSORGRIGHT
 10
0
 20
0
 30
0
  9
$UCSORGFRONT
 10
0
 20
0
 30
0
  9
$UCSORGBACK
 10
0
 20
0
 30
0
  9
$PUCSBASE
  2

  9
$PUCSNAME
  2

  9
$PUCSORG
 10
0
 20
0
 30
0
  9
$PUCSXDIR
 10
1
 20
0
 30
0
  9
$PUCSYDIR
 10
0
 20
1
 30
0
  9
$PUCSORTHOREF
  2

  9
$PUCSORTHOVIEW
 70
    0
  9
$PUCSORGTOP
 10
0
 20
0
 30
0
  9
$PUCSORGBOTTOM
 10
0
 20
0
 30
0
  9
$PUCSORGLEFT
 10
0
 20
0
 30
0
  9
$PUCSORGRIGHT
 10
0
 20
0
 30
0
  9
$PUCSORGFRONT
 10
0
 20
0
 30
0
  9
$PUCSORGBACK
 10
0
 20
0
 30
0
  9
$USERI1
 70
    0
  9
$USERI2
 70
    0
  9
$USERI3
 70
    0
  9
$USERI4
 70
    0
  9
$USERI5
 70
    0
  9
$USERR1
 40
0
  9
$USERR2
 40
0
  9
$USERR3
 40
0
  9
$USERR4
 40
0
  9
$USERR5
 40
0
  9
$WORLDVIEW
 70
    1
  9
$SHADEDGE
 70
    3
  9
$SHADEDIF
 70
   70
  9
$TILEMODE
 70
    1
  9
$MAXACTVP
 70
   64
  9
$PINSBASE
 10
0
 20
0
 30
0
  9
$PLIMCHECK
 70
    0
  9
$PEXTMIN
 10
0
 20
0
 30
0
  9
$PEXTMAX
 10
0
 20
0
 30
0
  9
$GRIDMODE
 70
    1
  9
$SNAPSTYLE
 70
    0
  9
$GRIDUNIT
 10
0
 20
0
  9
$PLIMMIN
 10
0
 20
0
  9
$PLIMMAX
 10
7.820100000000001e-007
 20
1.106e-006
  9
$UNITMODE
 70
    0
  9
$VISRETAIN
 70
    1
  9
$PLINEGEN
 70
    0
  9
$PSLTSCALE
 70
    1
  9
$TREEDEPTH
 70
 3020
  9
$CMLSTYLE
  2
Standard
  9
$CMLJUST
 70
    0
  9
$CMLSCALE
 40
20
  9
$PROXYGRAPHICS
 70
    1
  9
$MEASUREMENT
 70
    1
  9
$CELWEIGHT
370
   -1
  9
$ENDCAPS
280
    0
  9
$JOINSTYLE
280
    0
  9
$LWDISPLAY
290
    0
  9
$INSUNITS
 70
    4
  9
$HYPERLINKBASE
  1

  9
$STYLESHEET
  1

  9
$XEDIT
290
    1
  9
$CEPSNTYPE
380
    0
  9
$PSTYLEMODE
290
    1
  9
$EXTNAMES
290
    1
  9
$PSVPSCALE
 40
1
  9
$OLESTARTUP
290
    0
  9
$SORTENTS
280
  127
  9
$INDEXCTL
280
    0
  9
$HIDETEXT
280
    1
  9
$XCLIPFRAME
290
    0
  9
$HALOGAP
280
    0
  9
$OBSCOLOR
 70
  257
  9
$OBSLTYPE
280
    0
  9
$INTERSECTIONDISPLAY
280
    0
  9
$INTERSECTIONCOLOR
 70
  257
  9
$DIMASSOC
280
    1
  9
$PROJECTNAME
  1

  9
$CAMERADISPLAY
290
    0
  9
$LENSLENGTH
 40
50
  9
$CAMERAHEIGHT
 40
0
  9
$STEPSPERSEC
 40
2
  9
$STEPSIZE
 40
50
  9
$3DDWFPREC
 40
2
  9
$PSOLWIDTH
 40
5
  9
$PSOLHEIGHT
 40
80
  9
$LOFTANG1
 40
1.570796326794897
  9
$LOFTANG2
 40
1.570796326794897
  9
$LOFTMAG1
 40
0
  9
$LOFTMAG2
 40
0
  9
$LOFTPARAM
 70
    7
  9
$LOFTNORMALS
280
    1
  9
$LATITUDE
 40
1
  9
$LONGITUDE
 40
1
  9
$NORTHDIRECTION
 40
0
  9
$TIMEZONE
 70
-8000
  9
$LIGHTGLYPHDISPLAY
280
    1
  9
$TILEMODELIGHTSYNCH
280
    1
  9
$SOLIDHIST
280
    1
  9
$SHOWHIST
280
    1
  9
$DWFFRAME
280
    2
  9
$DGNFRAME
280
    0
  9
$REALWORLDSCALE
290
    1
  9
$INTERFERECOLOR
 62
    1
  9
$CSHADOW
280
    0
  9
$SHADOWPLANELOCATION
 40
0
  0
ENDSEC
  0
SECTION
  2
CLASSES
  0
ENDSEC
  0
SECTION
  2
TABLES
  0
TABLE
  2
VPORT
  5
8
330
0
100
AcDbSymbolTable
 70
    1
  0
VPORT
  5
31
330
2
100
AcDbSymbolTableRecord
100
AcDbViewportTableRecord
  2
*ACTIVE
 70
    0
 10
0
 20
0
 11
1
 21
1
 12
52.47914065134609
 22
26.05079643843799
 13
0
 23
0
 14
10
 24
10
 15
10
 25
10
 16
0
 26
0
 36
1
 17
0
 27
0
 37
0
 40
85.54153861565767
 41
2.018915510718789
 42
50
 43
0
 44
0
 50
0
 51
0
 71
    0
 72
  100
 73
    1
 74
    3
 75
    0
 76
    1
 77
    0
 78
    0
281
    0
 65
    1
110
0
120
0
130
0
111
1
121
0
131
0
112
0
122
1
132
0
 79
    0
146
0
348
10020
 60
    7
 61
    5
292
1
282
    1
141
0
142
0
 63
  250
421
3358443
  0
ENDTAB
  0
TABLE
  2
LTYPE
  5
5
330
0
100
AcDbSymbolTable
 70
    4
  0
LTYPE
  5
14
330
5
100
AcDbSymbolTableRecord
100
AcDbLinetypeTableRecord
  2
ByBlock
 70
    0
  3

 72
   65
 73
    0
 40
0
  0
LTYPE
  5
15
330
5
100
AcDbSymbolTableRecord
100
AcDbLinetypeTableRecord
  2
ByLayer
 70
    0
  3

 72
   65
 73
    0
 40
0
  0
LTYPE
  5
16
330
5
100
AcDbSymbolTableRecord
100
AcDbLinetypeTableRecord
  2
Continuous
 70
    0
  3
Solid line
 72
   65
 73
    0
 40
0
  0
LTYPE
  5
32
330
5
100
AcDbSymbolTableRecord
100
AcDbLinetypeTableRecord
  2
DOT
 70
    0
  3
Dot . . . . . . . . . . . . . . . . . . . . . .
 72
   65
 73
    2
 40
6.35
 49
0
 74
    0
 49
-6.35
 74
    0
  0
LTYPE
  5
33
330
5
100
AcDbSymbolTableRecord
100
AcDbLinetypeTableRecord
  2
DOTTINY
 70
    0
  3
Dot (.15x) .....................................
 72
   65
 73
    2
 40
0.9525
 49
0
 74
    0
 49
-0.9525
 74
    0
  0
LTYPE
  5
34
330
5
100
AcDbSymbolTableRecord
100
AcDbLinetypeTableRecord
  2
DOT2
 70
    0
  3
Dot (.5x) .....................................
 72
   65
 73
    2
 40
3.175
 49
0
 74
    0
 49
-3.175
 74
    0
  0
LTYPE
  5
35
330
5
100
AcDbSymbolTableRecord
100
AcDbLinetypeTableRecord
  2
DOTX2
 70
    0
  3
Dot (2x) .  .  .  .  .  .  .  .  .  .  .  .  .
 72
   65
 73
    2
 40
12.7
 49
0
 74
    0
 49
-12.7
 74
    0
  0
LTYPE
  5
36
330
5
100
AcDbSymbolTableRecord
100
AcDbLinetypeTableRecord
  2
DASHED
 70
    0
  3
Dashed _ _ _ _ _ _ _ _ _ _ _ _ _ _ _ _ _
 72
   65
 73
    2
 40
19.05
 49
12.7
 74
    0
 49
-6.35
 74
    0
  0
LTYPE
  5
37
330
5
100
AcDbSymbolTableRecord
100
AcDbLinetypeTableRecord
  2
DASHEDTINY
 70
    0
  3
Dashed (.15x) _ _ _ _ _ _ _ _ _ _ _ _ _ _ _ _ _
 72
   65
 73
    2
 40
2.8575
 49
1.905
 74
    0
 49
-0.9525
 74
    0
  0
LTYPE
  5
38
330
5
100
AcDbSymbolTableRecord
100
AcDbLinetypeTableRecord
  2
DASHED2
 70
    0
  3
Dashed (.5x) _ _ _ _ _ _ _ _ _ _ _ _ _ _ _ _ _
 72
   65
 73
    2
 40
9.524999999999999
 49
6.35
 74
    0
 49
-3.175
 74
    0
  0
LTYPE
  5
39
330
5
100
AcDbSymbolTableRecord
100
AcDbLinetypeTableRecord
  2
DASHEDX2
 70
    0
  3
Dashed (2x) ____  ____  ____  ____  ____  ___
 72
   65
 73
    2
 40
38.09999999999999
 49
25.4
 74
    0
 49
-12.7
 74
    0
  0
LTYPE
  5
3A
330
5
100
AcDbSymbolTableRecord
100
AcDbLinetypeTableRecord
  2
DASHDOT
 70
    0
  3
Dash dot __ . __ . __ . __ . __ . __ . __ . __
 72
   65
 73
    4
 40
25.4
 49
12.7
 74
    0
 49
-6.35
 74
    0
 49
0
 74
    0
 49
-6.35
 74
    0
  0
LTYPE
  5
3B
330
5
100
AcDbSymbolTableRecord
100
AcDbLinetypeTableRecord
  2
DASHDOTTINY
 70
    0
  3
Dash dot (.15x) _._._._._._._._._._._._._._._.
 72
   65
 73
    4
 40
3.81
 49
1.905
 74
    0
 49
-0.9525
 74
    0
 49
0
 74
    0
 49
-0.9525
 74
    0
  0
LTYPE
  5
3C
330
5
100
AcDbSymbolTableRecord
100
AcDbLinetypeTableRecord
  2
DASHDOT2
 70
    0
  3
Dash dot (.5x) _._._._._._._._._._._._._._._.
 72
   65
 73
    4
 40
12.7
 49
6.35
 74
    0
 49
-3.175
 74
    0
 49
0
 74
    0
 49
-3.175
 74
    0
  0
LTYPE
  5
3D
330
5
100
AcDbSymbolTableRecord
100
AcDbLinetypeTableRecord
  2
DASHDOTX2
 70
    0
  3
Dash dot (2x) ____  .  ____  .  ____  .  ___
 72
   65
 73
    4
 40
50.8
 49
25.4
 74
    0
 49
-12.7
 74
    0
 49
0
 74
    0
 49
-12.7
 74
    0
  0
LTYPE
  5
3E
330
5
100
AcDbSymbolTableRecord
100
AcDbLinetypeTableRecord
  2
DIVIDE
 70
    0
  3
Divide ____ . . ____ . . ____ . . ____ . . ____
 72
   65
 73
    6
 40
31.75
 49
12.7
 74
    0
 49
-6.35
 74
    0
 49
0
 74
    0
 49
-6.35
 74
    0
 49
0
 74
    0
 49
-6.35
 74
    0
  0
LTYPE
  5
3F
330
5
100
AcDbSymbolTableRecord
100
AcDbLinetypeTableRecord
  2
DIVIDETINY
 70
    0
  3
Divide (.15x) __..__..__..__..__..__..__..__.._
 72
   65
 73
    6
 40
4.7625
 49
1.905
 74
    0
 49
-0.9525
 74
    0
 49
0
 74
    0
 49
-0.9525
 74
    0
 49
0
 74
    0
 49
-0.9525
 74
    0
  0
LTYPE
  5
40
330
5
100
AcDbSymbolTableRecord
100
AcDbLinetypeTableRecord
  2
DIVIDE2
 70
    0
  3
Divide (.5x) __..__..__..__..__..__..__..__.._
 72
   65
 73
    6
 40
15.875
 49
6.35
 74
    0
 49
-3.175
 74
    0
 49
0
 74
    0
 49
-3.175
 74
    0
 49
0
 74
    0
 49
-3.175
 74
    0
  0
LTYPE
  5
41
330
5
100
AcDbSymbolTableRecord
100
AcDbLinetypeTableRecord
  2
DIVIDEX2
 70
    0
  3
Divide (2x) ________  .  .  ________  .  .  _
 72
   65
 73
    6
 40
63.5
 49
25.4
 74
    0
 49
-12.7
 74
    0
 49
0
 74
    0
 49
-12.7
 74
    0
 49
0
 74
    0
 49
-12.7
 74
    0
  0
LTYPE
  5
42
330
5
100
AcDbSymbolTableRecord
100
AcDbLinetypeTableRecord
  2
BORDER
 70
    0
  3
Border __ __ . __ __ . __ __ . __ __ . __ __ .
 72
   65
 73
    6
 40
44.45
 49
12.7
 74
    0
 49
-6.35
 74
    0
 49
12.7
 74
    0
 49
-6.35
 74
    0
 49
0
 74
    0
 49
-6.35
 74
    0
  0
LTYPE
  5
43
330
5
100
AcDbSymbolTableRecord
100
AcDbLinetypeTableRecord
  2
BORDERTINY
 70
    0
  3
Border (.15x) __.__.__.__.__.__.__.__.__.__.__.
 72
   65
 73
    6
 40
6.6675
 49
1.905
 74
    0
 49
-0.9525
 74
    0
 49
1.905
 74
    0
 49
-0.9525
 74
    0
 49
0
 74
    0
 49
-0.9525
 74
    0
  0
LTYPE
  5
44
330
5
100
AcDbSymbolTableRecord
100
AcDbLinetypeTableRecord
  2
BORDER2
 70
    0
  3
Border (.5x) __.__.__.__.__.__.__.__.__.__.__.
 72
   65
 73
    6
 40
22.225
 49
6.35
 74
    0
 49
-3.175
 74
    0
 49
6.35
 74
    0
 49
-3.175
 74
    0
 49
0
 74
    0
 49
-3.175
 74
    0
  0
LTYPE
  5
45
330
5
100
AcDbSymbolTableRecord
100
AcDbLinetypeTableRecord
  2
BORDERX2
 70
    0
  3
Border (2x) ____  ____  .  ____  ____  .  ___
 72
   65
 73
    6
 40
88.89999999999999
 49
25.4
 74
    0
 49
-12.7
 74
    0
 49
25.4
 74
    0
 49
-12.7
 74
    0
 49
0
 74
    0
 49
-12.7
 74
    0
  0
LTYPE
  5
46
330
5
100
AcDbSymbolTableRecord
100
AcDbLinetypeTableRecord
  2
CENTER
 70
    0
  3
Center ____ _ ____ _ ____ _ ____ _ ____ _ ____
 72
   65
 73
    4
 40
50.8
 49
31.75
 74
    0
 49
-6.35
 74
    0
 49
6.35
 74
    0
 49
-6.35
 74
    0
  0
LTYPE
  5
47
330
5
100
AcDbSymbolTableRecord
100
AcDbLinetypeTableRecord
  2
CENTERTINY
 70
    0
  3
Center (.15x) ___ _ ___ _ ___ _ ___ _ ___ _ ___
 72
   65
 73
    4
 40
7.62
 49
4.7625
 74
    0
 49
-0.9525
 74
    0
 49
0.9525
 74
    0
 49
-0.9525
 74
    0
  0
LTYPE
  5
48
330
5
100
AcDbSymbolTableRecord
100
AcDbLinetypeTableRecord
  2
CENTER2
 70
    0
  3
Center (.5x) ___ _ ___ _ ___ _ ___ _ ___ _ ___
 72
   65
 73
    4
 40
28.575
 49
19.05
 74
    0
 49
-3.175
 74
    0
 49
3.175
 74
    0
 49
-3.175
 74
    0
  0
LTYPE
  5
49
330
5
100
AcDbSymbolTableRecord
100
AcDbLinetypeTableRecord
  2
CENTERX2
 70
    0
  3
Center (2x) ________  __  ________  __  _____
 72
   65
 73
    4
 40
101.6
 49
63.5
 74
    0
 49
-12.7
 74
    0
 49
12.7
 74
    0
 49
-12.7
 74
    0
  0
ENDTAB
  0
TABLE
  2
LAYER
  5
2
330
0
100
AcDbSymbolTable
 70
    1
  0
LAYER
  5
10
330
2
100
AcDbSymbolTableRecord
100
AcDbLayerTableRecord
  2
0
 70
    0
 62
    7
  6
CONTINUOUS
370
    0
390
F
  0
LAYER
  5
4A
330
2
100
AcDbSymbolTableRecord
100
AcDbLayerTableRecord
  2
construction1
 70
    1
 62
    2
  6
CONTINUOUS
370
    0
390
F
  0
LAYER
  5
4B
330
2
100
AcDbSymbolTableRecord
100
AcDbLayerTableRecord
  2
construction2
 70
    1
 62
    3
  6
CONTINUOUS
370
    0
390
F
  0
LAYER
  5
4C
330
2
100
AcDbSymbolTableRecord
100
AcDbLayerTableRecord
  2
spacer tabs
 70
    1
 62
    7
  6
CONTINUOUS
370
   -3
390
F
  0
LAYER
  5
4D
330
2
100
AcDbSymbolTableRecord
100
AcDbLayerTableRecord
  2
trigger
 70
    0
 62
    7
  6
CONTINUOUS
370
    0
390
F
  0
LAYER
  5
4E
330
2
100
AcDbSymbolTableRecord
100
AcDbLayerTableRecord
  2
trigger-construction
 70
    1
 62
    2
  6
CONTINUOUS
370
    0
390
F
  0
ENDTAB
  0
TABLE
  2
STYLE
  5
3
330
0
100
AcDbSymbolTable
 70
    3
  0
STYLE
  5
4F
330
2
100
AcDbSymbolTableRecord
100
AcDbTextStyleTableRecord
  2
standard
 70
    0
 40
0
 41
1
 50
0
 71
    0
 42
1
  3
standard
  4

  0
ENDTAB
  0
TABLE
  2
VIEW
  5
6
330
0
100
AcDbSymbolTable
 70
    0
  0
ENDTAB
  0
TABLE
  2
UCS
  5
7
330
0
100
AcDbSymbolTable
 70
    0
  0
ENDTAB
  0
TABLE
  2
APPID
  5
9
330
0
100
AcDbSymbolTable
 70
    1
  0
APPID
  5
12
330
9
100
AcDbSymbolTableRecord
100
AcDbRegAppTableRecord
  2
ACAD
 70
    0
  0
APPID
  5
50
330
9
100
AcDbSymbolTableRecord
100
AcDbRegAppTableRecord
  2
LibreCad
 70
    0
  0
ENDTAB
  0
TABLE
  2
DIMSTYLE
  5
A
330
0
100
AcDbSymbolTable
 70
    1
100
AcDbDimStyleTable
 71
    1
  0
DIMSTYLE
105
51
330
A
100
AcDbSymbolTableRecord
100
AcDbDimStyleTableRecord
  2
Standard
 70
    0
 40
1
 41
2.5
 42
0.025
 43
0.38
 44
1.25
 45
0
 46
0
 47
0
 48
0
 49
1
140
2
141
0.09
142
0
143
25.4
144
1
145
0
146
1
147
0.5
148
0
 71
    0
 72
    0
 73
    0
 74
    1
 75
    0
 76
    0
 77
    0
 78
    8
 79
    0
170
    0
171
    2
172
    0
173
    0
174
    0
175
    0
176
    0
177
    0
178
    0
179
    0
271
    2
272
    4
273
    2
274
    2
275
    0
276
    0
277
    2
278
    0
279
    0
280
    0
281
    0
282
    0
283
    1
284
    0
285
    0
286
    0
288
    0
289
    3
340
standard
341

371
   -2
372
   -2
  0
ENDTAB
  0
TABLE
  2
BLOCK_RECORD
  5
1
330
0
100
AcDbSymbolTable
 70
    2
  0
BLOCK_RECORD
  5
1F
330
1
100
AcDbSymbolTableRecord
100
AcDbBlockTableRecord
  2
*Model_Space
 70
    0
280
    1
281
    0
  0
BLOCK_RECORD
  5
1E
330
1
100
AcDbSymbolTableRecord
100
AcDbBlockTableRecord
  2
*Paper_Space
 70
    0
280
    1
281
    0
  0
BLOCK_RECORD
  5
52
330
1
100
AcDbSymbolTableRecord
100
AcDbBlockTableRecord
  2
*D11
 70
    0
280
    1
281
    0
  0
BLOCK_RECORD
  5
55
330
1
100
AcDbSymbolTableRecord
100
AcDbBlockTableRecord
  2
*D6
 70
    0
280
    1
281
    0
  0
BLOCK_RECORD
  5
58
330
1
100
AcDbSymbolTableRecord
100
AcDbBlockTableRecord
  2
*D8
 70
    0
280
    1
281
    0
  0
BLOCK_RECORD
  5
5B
330
1
100
AcDbSymbolTableRecord
100
AcDbBlockTableRecord
  2
*D12
 70
    0
280
    1
281
    0
  0
BLOCK_RECORD
  5
5E
330
1
100
AcDbSymbolTableRecord
100
AcDbBlockTableRecord
  2
*D13
 70
    0
280
    1
281
    0
  0
BLOCK_RECORD
  5
61
330
1
100
AcDbSymbolTableRecord
100
AcDbBlockTableRecord
  2
*D1
 70
    0
280
    1
281
    0
  0
BLOCK_RECORD
  5
64
330
1
100
AcDbSymbolTableRecord
100
AcDbBlockTableRecord
  2
*D10
 70
    0
280
    1
281
    0
  0
BLOCK_RECORD
  5
67
330
1
100
AcDbSymbolTableRecord
100
AcDbBlockTableRecord
  2
*D2
 70
    0
280
    1
281
    0
  0
BLOCK_RECORD
  5
6A
330
1
100
AcDbSymbolTableRecord
100
AcDbBlockTableRecord
  2
*D4
 70
    0
280
    1
281
    0
  0
BLOCK_RECORD
  5
6D
330
1
100
AcDbSymbolTableRecord
100
AcDbBlockTableRecord
  2
*D5
 70
    0
280
    1
281
    0
  0
BLOCK_RECORD
  5
70
330
1
100
AcDbSymbolTableRecord
100
AcDbBlockTableRecord
  2
*D7
 70
    0
280
    1
281
    0
  0
BLOCK_RECORD
  5
73
330
1
100
AcDbSymbolTableRecord
100
AcDbBlockTableRecord
  2
*D9
 70
    0
280
    1
281
    0
  0
BLOCK_RECORD
  5
76
330
1
100
AcDbSymbolTableRecord
100
AcDbBlockTableRecord
  2
*D3
 70
    0
280
    1
281
    0
  0
BLOCK_RECORD
  5
79
330
1
100
AcDbSymbolTableRecord
100
AcDbBlockTableRecord
  2
button-block
 70
    0
280
    1
281
    0
  0
BLOCK_RECORD
  5
7C
330
1
100
AcDbSymbolTableRecord
100
AcDbBlockTableRecord
  2
potentiometer
 70
    0
280
    1
281
    0
  0
BLOCK_RECORD
  5
7F
330
1
100
AcDbSymbolTableRecord
100
AcDbBlockTableRecord
  2
spacers
 70
    0
280
    1
281
    0
  0
BLOCK_RECORD
  5
82
330
1
100
AcDbSymbolTableRecord
100
AcDbBlockTableRecord
  2
5x7
 70
    0
280
    1
281
    0
  0
BLOCK_RECORD
  5
85
330
1
100
AcDbSymbolTableRecord
100
AcDbBlockTableRecord
  2
slot
 70
    0
280
    1
281
    0
  0
BLOCK_RECORD
  5
88
330
1
100
AcDbSymbolTableRecord
100
AcDbBlockTableRecord
  2
20mm spacer
 70
    0
280
    1
281
    0
  0
BLOCK_RECORD
  5
8B
330
1
100
AcDbSymbolTableRecord
100
AcDbBlockTableRecord
  2
large LED
 70
    0
280
    1
281
    0
  0
ENDTAB
  0
ENDSEC
  0
SECTION
  2
BLOCKS
  0
BLOCK
  5
20
330
1F
100
AcDbEntity
  8
0
100
AcDbBlockBegin
  2
*Model_Space
 70
    0
 10
0
 20
0
 30
0
  3
*Model_Space
  1

  0
ENDBLK
  5
21
330
1F
100
AcDbEntity
  8
0
100
AcDbBlockEnd
  0
BLOCK
  5
1C
330
1B
100
AcDbEntity
  8
0
100
AcDbBlockBegin
  2
*Paper_Space
 70
    0
 10
0
 20
0
 30
0
  3
*Paper_Space
  1

  0
ENDBLK
  5
1D
330
1F
100
AcDbEntity
  8
0
100
AcDbBlockEnd
  0
BLOCK
  5
53
330
52
100
AcDbEntity
  8
0
100
AcDbBlockBegin
  2
*D11
 70
    1
 10
0
 20
0
  3
*D11
  1

  0
LINE
  5
8E
100
AcDbEntity
  8
trigger-construction
  6
ByBlock
 62
    0
370
   -2
100
AcDbLine
 10
6.025
 20
10.194
 11
19.25
 21
10.194
  0
LINE
  5
8F
100
AcDbEntity
  8
trigger-construction
  6
ByBlock
 62
    0
370
   -2
100
AcDbLine
 10
6.025000000000001
 20
17.306
 11
19.25
 21
17.306
  0
LINE
  5
90
100
AcDbEntity
  8
trigger-construction
  6
ByBlock
 62
    0
370
   -2
100
AcDbLine
 10
18
 20
10.194
 11
18
 21
17.306
  0
SOLID
  5
91
100
AcDbEntity
  8
trigger-construction
  6
ByBlock
 62
    0
370
   -2
100
AcDbTrace
 10
18
 20
10.194
 30
0
 11
17.58371534222716
 21
12.694
 31
0
 12
18.41628465777284
 22
12.694
 32
0
 13
18.41628465777284
 23
12.694
 33
0
  0
SOLID
  5
92
100
AcDbEntity
  8
trigger-construction
  6
ByBlock
 62
    0
370
   -2
100
AcDbTrace
 10
18
 20
17.306
 30
0
 11
18.41628465777284
 21
14.806
 31
0
 12
17.58371534222716
 22
14.806
 32
0
 13
17.58371534222716
 23
14.806
 33
0
  0
MTEXT
  5
93
100
AcDbEntity
  8
trigger-construction
  6
CONTINUOUS
 62
    0
370
   -2
100
AcDbMText
 10
16.5
 20
13.75
 30
0
 40
2
 41
3.777777777777778
 71
    5
 72
    1
  1
7.11
  7
standard
210
0
220
0
230
1
 50
90
 73
    2
 44
1
  0
ENDBLK
  5
54
330
52
100
AcDbEntity
  8
0
100
AcDbBlockEnd
  0
BLOCK
  5
56
330
55
100
AcDbEntity
  8
0
100
AcDbBlockBegin
  2
*D6
 70
    1
 10
0
 20
0
  3
*D6
  1

  0
LINE
  5
94
100
AcDbEntity
  8
construction1
  6
ByBlock
 62
    0
370
   -2
100
AcDbLine
 10
3
 20
29.52500000000001
 11
3
 21
32.25
  0
LINE
  5
95
100
AcDbEntity
  8
construction1
  6
ByBlock
 62
    0
370
   -2
100
AcDbLine
 10
9
 20
29.52500000000001
 11
9
 21
32.25
  0
LINE
  5
96
100
AcDbEntity
  8
construction1
  6
ByBlock
 62
    0
370
   -2
100
AcDbLine
 10
-2
 20
31
 11
14
 21
31
  0
SOLID
  5
97
100
AcDbEntity
  8
construction1
  6
ByBlock
 62
    0
370
   -2
100
AcDbTrace
 10
3
 20
31
 30
0
 11
0.4999999999999999
 21
30.58371534222716
 31
0
 12
0.5
 22
31.41628465777284
 32
0
 13
0.5
 23
31.41628465777284
 33
0
  0
SOLID
  5
98
100
AcDbEntity
  8
construction1
  6
ByBlock
 62
    0
370
   -2
100
AcDbTrace
 10
9
 20
31
 30
0
 11
11.5
 21
31.41628465777284
 31
0
 12
11.5
 22
30.58371534222716
 32
0
 13
11.5
 23
30.58371534222716
 33
0
  0
MTEXT
  5
99
100
AcDbEntity
  8
construction1
  6
CONTINUOUS
 62
    0
370
   -2
100
AcDbMText
 10
6
 20
32.5
 30
0
 40
2
 41
0.8888888888890129
 71
    5
 72
    1
  1
6
  7
standard
210
0
220
0
230
1
 50
0
 73
    2
 44
1
  0
ENDBLK
  5
57
330
55
100
AcDbEntity
  8
0
100
AcDbBlockEnd
  0
BLOCK
  5
59
330
58
100
AcDbEntity
  8
0
100
AcDbBlockBegin
  2
*D8
 70
    1
 10
0
 20
0
  3
*D8
  1

  0
LINE
  5
9A
100
AcDbEntity
  8
trigger-construction
  6
ByBlock
 62
    0
370
   -2
100
AcDbLine
 10
3
 20
-1.025
 11
2.999999999999999
 21
-6.25
  0
LINE
  5
9B
100
AcDbEntity
  8
trigger-construction
  6
ByBlock
 62
    0
370
   -2
100
AcDbLine
 10
9
 20
-1.025
 11
9
 21
-6.25
  0
LINE
  5
9C
100
AcDbEntity
  8
trigger-construction
  6
ByBlock
 62
    0
370
   -2
100
AcDbLine
 10
-2.000000000000001
 20
-4.999999999999999
 11
14
 21
-5.000000000000001
  0
SOLID
  5
9D
100
AcDbEntity
  8
trigger-construction
  6
ByBlock
 62
    0
370
   -2
100
AcDbTrace
 10
2.999999999999999
 20
-5
 30
0
 11
0.4999999999999991
 21
-5.416284657772841
 31
0
 12
0.4999999999999991
 22
-4.583715342227159
 32
0
 13
0.4999999999999991
 23
-4.583715342227159
 33
0
  0
SOLID
  5
9E
100
AcDbEntity
  8
trigger-construction
  6
ByBlock
 62
    0
370
   -2
100
AcDbTrace
 10
9
 20
-5
 30
0
 11
11.5
 21
-4.58371534222716
 31
0
 12
11.5
 22
-5.416284657772841
 32
0
 13
11.5
 23
-5.416284657772841
 33
0
  0
MTEXT
  5
9F
100
AcDbEntity
  8
trigger-construction
  6
CONTINUOUS
 62
    0
370
   -2
100
AcDbMText
 10
6.000000000000001
 20
-3.5
 30
0
 40
2
 41
0.8888888888890129
 71
    5
 72
    1
  1
6
  7
standard
210
0
220
0
230
1
 50
360
 73
    2
 44
1
  0
ENDBLK
  5
5A
330
58
100
AcDbEntity
  8
0
100
AcDbBlockEnd
  0
BLOCK
  5
5C
330
5B
100
AcDbEntity
  8
0
100
AcDbBlockBegin
  2
*D12
 70
    1
 10
0
 20
0
  3
*D12
  1

  0
LINE
  5
A0
100
AcDbEntity
  8
trigger-construction
  6
ByBlock
 62
    0
370
   -2
100
AcDbLine
 10
12.025
 20
24.75
 11
19.25
 21
24.75
  0
LINE
  5
A1
100
AcDbEntity
  8
trigger-construction
  6
ByBlock
 62
    0
370
   -2
100
AcDbLine
 10
12.025
 20
27.5
 11
19.25
 21
27.5
  0
LINE
  5
A2
100
AcDbEntity
  8
trigger-construction
  6
ByBlock
 62
    0
370
   -2
100
AcDbLine
 10
18
 20
19.75
 11
18
 21
32.5
  0
SOLID
  5
A3
100
AcDbEntity
  8
trigger-construction
  6
ByBlock
 62
    0
370
   -2
100
AcDbTrace
 10
18
 20
24.75
 30
0
 11
18.41628465777284
 21
22.25
 31
0
 12
17.58371534222716
 22
22.25
 32
0
 13
17.58371534222716
 23
22.25
 33
0
  0
SOLID
  5
A4
100
AcDbEntity
  8
trigger-construction
  6
ByBlock
 62
    0
370
   -2
100
AcDbTrace
 10
18
 20
27.5
 30
0
 11
17.58371534222716
 21
30
 31
0
 12
18.41628465777284
 22
30
 32
0
 13
18.41628465777284
 23
30
 33
0
  0
MTEXT
  5
A5
100
AcDbEntity
  8
trigger-construction
  6
CONTINUOUS
 62
    0
370
   -2
100
AcDbMText
 10
16.5
 20
30.3333333333334
 30
0
 40
2
 41
4.66666666666679
 71
    5
 72
    1
  1
2.75
  7
standard
210
0
220
0
230
1
 50
90
 73
    2
 44
1
  0
ENDBLK
  5
5D
330
5B
100
AcDbEntity
  8
0
100
AcDbBlockEnd
  0
BLOCK
  5
5F
330
5E
100
AcDbEntity
  8
0
100
AcDbBlockBegin
  2
*D13
 70
    1
 10
0
 20
0
  3
*D13
  1

  0
LINE
  5
A6
100
AcDbEntity
  8
trigger-construction
  6
ByBlock
 62
    0
370
   -2
100
AcDbLine
 10
12.025
 20
2.75
 11
19.25
 21
2.749999999999998
  0
LINE
  5
A7
100
AcDbEntity
  8
trigger-construction
  6
ByBlock
 62
    0
370
   -2
100
AcDbLine
 10
12.025
 20
-6.123031769111886e-018
 11
19.25
 21
-1.775679213042447e-015
  0
LINE
  5
A8
100
AcDbEntity
  8
trigger-construction
  6
ByBlock
 62
    0
370
   -2
100
AcDbLine
 10
18
 20
7.749999999999998
 11
18
 21
-5.000000000000002
  0
SOLID
  5
A9
100
AcDbEntity
  8
trigger-construction
  6
ByBlock
 62
    0
370
   -2
100
AcDbTrace
 10
18
 20
2.749999999999999
 30
0
 11
17.58371534222716
 21
5.249999999999999
 31
0
 12
18.41628465777284
 22
5.249999999999998
 32
0
 13
18.41628465777284
 23
5.249999999999998
 33
0
  0
SOLID
  5
AA
100
AcDbEntity
  8
trigger-construction
  6
ByBlock
 62
    0
370
   -2
100
AcDbTrace
 10
18
 20
-1.469527624586853e-015
 30
0
 11
18.41628465777284
 21
-2.500000000000001
 31
0
 12
17.58371534222716
 22
-2.500000000000001
 32
0
 13
17.58371534222716
 23
-2.500000000000001
 33
0
  0
MTEXT
  5
AB
100
AcDbEntity
  8
trigger-construction
  6
CONTINUOUS
 62
    0
370
   -2
100
AcDbMText
 10
16.5
 20
5.583333333333393
 30
0
 40
2
 41
4.66666666666679
 71
    5
 72
    1
  1
2.75
  7
standard
210
0
220
0
230
1
 50
90
 73
    2
 44
1
  0
ENDBLK
  5
60
330
5E
100
AcDbEntity
  8
0
100
AcDbBlockEnd
  0
BLOCK
  5
62
330
61
100
AcDbEntity
  8
0
100
AcDbBlockBegin
  2
*D1
 70
    1
 10
0
 20
0
  3
*D1
  1

  0
LINE
  5
AC
100
AcDbEntity
  8
construction1
  6
ByBlock
 62
    0
370
   -2
100
AcDbLine
 10
12.025
 20
3.25
 11
17.25047293105843
 21
3.25
  0
LINE
  5
AD
100
AcDbEntity
  8
construction1
  6
ByBlock
 62
    0
370
   -2
100
AcDbLine
 10
12.025
 20
0.5000000000000071
 11
17.25047293105843
 21
0.5000000000000071
  0
LINE
  5
AE
100
AcDbEntity
  8
construction1
  6
ByBlock
 62
    0
370
   -2
100
AcDbLine
 10
16.00047293105843
 20
8.25
 11
16.00047293105843
 21
-4.499999999999993
  0
SOLID
  5
AF
100
AcDbEntity
  8
construction1
  6
ByBlock
 62
    0
370
   -2
100
AcDbTrace
 10
16.00047293105843
 20
3.25
 30
0
 11
15.58418827328559
 21
5.75
 31
0
 12
16.41675758883127
 22
5.75
 32
0
 13
16.41675758883127
 23
5.75
 33
0
  0
SOLID
  5
B0
100
AcDbEntity
  8
construction1
  6
ByBlock
 62
    0
370
   -2
100
AcDbTrace
 10
16.00047293105843
 20
0.5000000000000071
 30
0
 11
16.41675758883127
 21
-1.999999999999993
 31
0
 12
15.58418827328559
 22
-1.999999999999993
 32
0
 13
15.58418827328559
 23
-1.999999999999993
 33
0
  0
MTEXT
  5
B1
100
AcDbEntity
  8
construction1
  6
CONTINUOUS
 62
    0
370
   -2
100
AcDbMText
 10
14.50047293105843
 20
6.083333333333392
 30
0
 40
2
 41
4.66666666666679
 71
    5
 72
    1
  1
2.75
  7
standard
210
0
220
0
230
1
 50
90
 73
    2
 44
1
  0
ENDBLK
  5
63
330
61
100
AcDbEntity
  8
0
100
AcDbBlockEnd
  0
BLOCK
  5
65
330
64
100
AcDbEntity
  8
0
100
AcDbBlockBegin
  2
*D10
 70
    1
 10
0
 20
0
  3
*D10
  1

  0
LINE
  5
B2
100
AcDbEntity
  8
trigger-construction
  6
ByBlock
 62
    0
370
   -2
100
AcDbLine
 10
-0.025
 20
2.75
 11
-3.250000000000001
 21
2.75
  0
LINE
  5
B3
100
AcDbEntity
  8
trigger-construction
  6
ByBlock
 62
    0
370
   -2
100
AcDbLine
 10
-0.02499999999999866
 20
24.75
 11
-3.25
 21
24.75
  0
LINE
  5
B4
100
AcDbEntity
  8
trigger-construction
  6
ByBlock
 62
    0
370
   -2
100
AcDbLine
 10
-2.000000000000001
 20
2.75
 11
-2
 21
24.75
  0
SOLID
  5
B5
100
AcDbEntity
  8
trigger-construction
  6
ByBlock
 62
    0
370
   -2
100
AcDbTrace
 10
-2.000000000000001
 20
2.75
 30
0
 11
-2.416284657772841
 21
5.250000000000001
 31
0
 12
-1.58371534222716
 22
5.25
 32
0
 13
-1.58371534222716
 23
5.25
 33
0
  0
SOLID
  5
B6
100
AcDbEntity
  8
trigger-construction
  6
ByBlock
 62
    0
370
   -2
100
AcDbTrace
 10
-2
 20
24.75
 30
0
 11
-1.583715342227159
 21
22.25
 31
0
 12
-2.41628465777284
 22
22.25
 32
0
 13
-2.41628465777284
 23
22.25
 33
0
  0
MTEXT
  5
B7
100
AcDbEntity
  8
trigger-construction
  6
CONTINUOUS
 62
    0
370
   -2
100
AcDbMText
 10
-3.5
 20
13.75
 30
0
 40
2
 41
2.444444444444444
 71
    5
 72
    1
  1
22
  7
standard
210
0
220
0
230
1
 50
90
 73
    2
 44
1
  0
ENDBLK
  5
66
330
64
100
AcDbEntity
  8
0
100
AcDbBlockEnd
  0
BLOCK
  5
68
330
67
100
AcDbEntity
  8
0
100
AcDbBlockBegin
  2
*D2
 70
    1
 10
0
 20
0
  3
*D2
  1

  0
LINE
  5
B8
100
AcDbEntity
  8
construction1
  6
ByBlock
 62
    0
370
   -2
100
AcDbLine
 10
6.024763534470788
 20
11.4440000078622
 11
17.25000000000001
 21
11.4440000078622
  0
LINE
  5
B9
100
AcDbEntity
  8
construction1
  6
ByBlock
 62
    0
370
   -2
100
AcDbLine
 10
6.024763534470788
 20
18.5559999921378
 11
17.25000000000001
 21
18.5559999921378
  0
LINE
  5
BA
100
AcDbEntity
  8
construction1
  6
ByBlock
 62
    0
370
   -2
100
AcDbLine
 10
16.00000000000001
 20
11.4440000078622
 11
16.00000000000001
 21
18.5559999921378
  0
SOLID
  5
BB
100
AcDbEntity
  8
construction1
  6
ByBlock
 62
    0
370
   -2
100
AcDbTrace
 10
16.00000000000001
 20
11.4440000078622
 30
0
 11
15.58371534222717
 21
13.9440000078622
 31
0
 12
16.41628465777285
 22
13.9440000078622
 32
0
 13
16.41628465777285
 23
13.9440000078622
 33
0
  0
SOLID
  5
BC
100
AcDbEntity
  8
construction1
  6
ByBlock
 62
    0
370
   -2
100
AcDbTrace
 10
16.00000000000001
 20
18.5559999921378
 30
0
 11
16.41628465777285
 21
16.0559999921378
 31
0
 12
15.58371534222717
 22
16.0559999921378
 32
0
 13
15.58371534222717
 23
16.0559999921378
 33
0
  0
MTEXT
  5
BD
100
AcDbEntity
  8
construction1
  6
CONTINUOUS
 62
    0
370
   -2
100
AcDbMText
 10
14.50000000000001
 20
15
 30
0
 40
2
 41
3.777777777777778
 71
    5
 72
    1
  1
7.11
  7
standard
210
0
220
0
230
1
 50
90
 73
    2
 44
1
  0
ENDBLK
  5
69
330
67
100
AcDbEntity
  8
0
100
AcDbBlockEnd
  0
BLOCK
  5
6B
330
6A
100
AcDbEntity
  8
0
100
AcDbBlockBegin
  2
*D4
 70
    1
 10
0
 20
0
  3
*D4
  1

  0
LINE
  5
BE
100
AcDbEntity
  8
construction1
  6
ByBlock
 62
    0
370
   -2
100
AcDbLine
 10
2.975
 20
0.5000000000000071
 11
-6.249527068941574
 21
0.5000000000000082
  0
LINE
  5
BF
100
AcDbEntity
  8
construction1
  6
ByBlock
 62
    0
370
   -2
100
AcDbLine
 10
2.975
 20
29.50000000000001
 11
-6.249527068941574
 21
29.50000000000001
  0
LINE
  5
C0
100
AcDbEntity
  8
construction1
  6
ByBlock
 62
    0
370
   -2
100
AcDbLine
 10
-4.999527068941574
 20
0.5000000000000081
 11
-4.999527068941574
 21
29.50000000000001
  0
SOLID
  5
C1
100
AcDbEntity
  8
construction1
  6
ByBlock
 62
    0
370
   -2
100
AcDbTrace
 10
-4.999527068941574
 20
0.5000000000000081
 30
0
 11
-5.415811726714414
 21
3.000000000000008
 31
0
 12
-4.583242411168733
 22
3.000000000000008
 32
0
 13
-4.583242411168733
 23
3.000000000000008
 33
0
  0
SOLID
  5
C2
100
AcDbEntity
  8
construction1
  6
ByBlock
 62
    0
370
   -2
100
AcDbTrace
 10
-4.999527068941574
 20
29.50000000000001
 30
0
 11
-4.583242411168733
 21
27.00000000000001
 31
0
 12
-5.415811726714415
 22
27.00000000000001
 32
0
 13
-5.415811726714415
 23
27.00000000000001
 33
0
  0
MTEXT
  5
C3
100
AcDbEntity
  8
construction1
  6
CONTINUOUS
 62
    0
370
   -2
100
AcDbMText
 10
-6.499527068941575
 20
15.00000000000001
 30
0
 40
2
 41
2.444444444444445
 71
    5
 72
    1
  1
29
  7
standard
210
0
220
0
230
1
 50
90
 73
    2
 44
1
  0
ENDBLK
  5
6C
330
6A
100
AcDbEntity
  8
0
100
AcDbBlockEnd
  0
BLOCK
  5
6E
330
6D
100
AcDbEntity
  8
0
100
AcDbBlockBegin
  2
*D5
 70
    1
 10
0
 20
0
  3
*D5
  1

  0
LINE
  5
C4
100
AcDbEntity
  8
construction1
  6
ByBlock
 62
    0
370
   -2
100
AcDbLine
 10
9.025
 20
26.75000000000001
 11
17.25047293105843
 21
26.75000000000001
  0
LINE
  5
C5
100
AcDbEntity
  8
construction1
  6
ByBlock
 62
    0
370
   -2
100
AcDbLine
 10
9.025
 20
29.50000000000001
 11
17.25047293105843
 21
29.50000000000001
  0
LINE
  5
C6
100
AcDbEntity
  8
construction1
  6
ByBlock
 62
    0
370
   -2
100
AcDbLine
 10
16.00047293105843
 20
21.75000000000001
 11
16.00047293105843
 21
34.50000000000001
  0
SOLID
  5
C7
100
AcDbEntity
  8
construction1
  6
ByBlock
 62
    0
370
   -2
100
AcDbTrace
 10
16.00047293105843
 20
26.75000000000001
 30
0
 11
16.41675758883127
 21
24.25000000000001
 31
0
 12
15.58418827328559
 22
24.25000000000001
 32
0
 13
15.58418827328559
 23
24.25000000000001
 33
0
  0
SOLID
  5
C8
100
AcDbEntity
  8
construction1
  6
ByBlock
 62
    0
370
   -2
100
AcDbTrace
 10
16.00047293105843
 20
29.50000000000001
 30
0
 11
15.58418827328559
 21
32.00000000000001
 31
0
 12
16.41675758883127
 22
32.00000000000001
 32
0
 13
16.41675758883127
 23
32.00000000000001
 33
0
  0
MTEXT
  5
C9
100
AcDbEntity
  8
construction1
  6
CONTINUOUS
 62
    0
370
   -2
100
AcDbMText
 10
14.50047293105843
 20
32.33333333333341
 30
0
 40
2
 41
4.66666666666679
 71
    5
 72
    1
  1
2.75
  7
standard
210
0
220
0
230
1
 50
90
 73
    2
 44
1
  0
ENDBLK
  5
6F
330
6D
100
AcDbEntity
  8
0
100
AcDbBlockEnd
  0
BLOCK
  5
71
330
70
100
AcDbEntity
  8
0
100
AcDbBlockBegin
  2
*D7
 70
    1
 10
0
 20
0
  3
*D7
  1

  0
LINE
  5
CA
100
AcDbEntity
  8
construction1
  6
ByBlock
 62
    0
370
   -2
100
AcDbLine
 10
1.530757942277972e-018
 20
26.77500000000001
 11
7.041486534478662e-016
 21
38.25
  0
LINE
  5
CB
100
AcDbEntity
  8
construction1
  6
ByBlock
 62
    0
370
   -2
100
AcDbLine
 10
12
 20
26.77500000000001
 11
12
 21
38.25
  0
LINE
  5
CC
100
AcDbEntity
  8
construction1
  6
ByBlock
 62
    0
370
   -2
100
AcDbLine
 10
6.276107563339677e-016
 20
37
 11
12
 21
37
  0
SOLID
  5
CD
100
AcDbEntity
  8
construction1
  6
ByBlock
 62
    0
370
   -2
100
AcDbTrace
 10
6.276107563339677e-016
 20
37
 30
0
 11
2.500000000000001
 21
37.41628465777284
 31
0
 12
2.5
 22
36.58371534222716
 32
0
 13
2.5
 23
36.58371534222716
 33
0
  0
SOLID
  5
CE
100
AcDbEntity
  8
construction1
  6
ByBlock
 62
    0
370
   -2
100
AcDbTrace
 10
12
 20
37
 30
0
 11
9.5
 21
36.58371534222716
 31
0
 12
9.5
 22
37.41628465777284
 32
0
 13
9.5
 23
37.41628465777284
 33
0
  0
MTEXT
  5
CF
100
AcDbEntity
  8
construction1
  6
CONTINUOUS
 62
    0
370
   -2
100
AcDbMText
 10
6
 20
38.5
 30
0
 40
2
 41
2
 71
    5
 72
    1
  1
12
  7
standard
210
0
220
0
230
1
 50
0
 73
    2
 44
1
  0
ENDBLK
  5
72
330
70
100
AcDbEntity
  8
0
100
AcDbBlockEnd
  0
BLOCK
  5
74
330
73
100
AcDbEntity
  8
0
100
AcDbBlockBegin
  2
*D9
 70
    1
 10
0
 20
0
  3
*D9
  1

  0
LINE
  5
D0
100
AcDbEntity
  8
trigger-construction
  6
ByBlock
 62
    0
370
   -2
100
AcDbLine
 10
-4.592273826833915e-018
 20
-1.025
 11
-1.699141315928548e-015
 21
-10.25
  0
LINE
  5
D1
100
AcDbEntity
  8
trigger-construction
  6
ByBlock
 62
    0
370
   -2
100
AcDbLine
 10
12
 20
-1.025
 11
12
 21
-10.25
  0
LINE
  5
D2
100
AcDbEntity
  8
trigger-construction
  6
ByBlock
 62
    0
370
   -2
100
AcDbLine
 10
-1.469527624586853e-015
 20
-9
 11
12
 21
-9
  0
SOLID
  5
D3
100
AcDbEntity
  8
trigger-construction
  6
ByBlock
 62
    0
370
   -2
100
AcDbTrace
 10
-1.469527624586853e-015
 20
-9
 30
0
 11
2.499999999999999
 21
-8.58371534222716
 31
0
 12
2.499999999999999
 22
-9.416284657772842
 32
0
 13
2.499999999999999
 23
-9.416284657772842
 33
0
  0
SOLID
  5
D4
100
AcDbEntity
  8
trigger-construction
  6
ByBlock
 62
    0
370
   -2
100
AcDbTrace
 10
12
 20
-9
 30
0
 11
9.499999999999998
 21
-9.41628465777284
 31
0
 12
9.499999999999998
 22
-8.58371534222716
 32
0
 13
9.499999999999998
 23
-8.58371534222716
 33
0
  0
MTEXT
  5
D5
100
AcDbEntity
  8
trigger-construction
  6
CONTINUOUS
 62
    0
370
   -2
100
AcDbMText
 10
5.999999999999998
 20
-7.5
 30
0
 40
2
 41
2
 71
    5
 72
    1
  1
12
  7
standard
210
0
220
0
230
1
 50
0
 73
    2
 44
1
  0
ENDBLK
  5
75
330
73
100
AcDbEntity
  8
0
100
AcDbBlockEnd
  0
BLOCK
  5
77
330
76
100
AcDbEntity
  8
0
100
AcDbBlockBegin
  2
*D3
 70
    1
 10
0
 20
0
  3
*D3
  1

  0
LINE
  5
D6
100
AcDbEntity
  8
construction1
  6
ByBlock
 62
    0
370
   -2
100
AcDbLine
 10
-0.02499999999998579
 20
3.250000000000014
 11
-2.249527068941561
 21
3.250000000000014
  0
LINE
  5
D7
100
AcDbEntity
  8
construction1
  6
ByBlock
 62
    0
370
   -2
100
AcDbLine
 10
-0.025
 20
26.75000000000001
 11
-2.249527068941575
 21
26.75000000000001
  0
LINE
  5
D8
100
AcDbEntity
  8
construction1
  6
ByBlock
 62
    0
370
   -2
100
AcDbLine
 10
-0.9995270689415605
 20
3.250000000000014
 11
-0.9995270689415747
 21
26.75000000000001
  0
SOLID
  5
D9
100
AcDbEntity
  8
construction1
  6
ByBlock
 62
    0
370
   -2
100
AcDbTrace
 10
-0.9995270689415605
 20
3.250000000000014
 30
0
 11
-1.415811726714401
 21
5.750000000000014
 31
0
 12
-0.5832424111687196
 22
5.750000000000014
 32
0
 13
-0.5832424111687196
 23
5.750000000000014
 33
0
  0
SOLID
  5
DA
100
AcDbEntity
  8
construction1
  6
ByBlock
 62
    0
370
   -2
100
AcDbTrace
 10
-0.9995270689415747
 20
26.75000000000001
 30
0
 11
-0.5832424111687328
 21
24.25000000000001
 31
0
 12
-1.415811726714414
 22
24.25000000000001
 32
0
 13
-1.415811726714414
 23
24.25000000000001
 33
0
  0
MTEXT
  5
DB
100
AcDbEntity
  8
construction1
  6
CONTINUOUS
 62
    0
370
   -2
100
AcDbMText
 10
-2.499527068941575
 20
15.00000000000001
 30
0
 40
2
 41
4.666666666666915
 71
    5
 72
    1
  1
23.5
  7
standard
210
0
220
0
230
1
 50
270.0000000000001
 73
    2
 44
1
  0
ENDBLK
  5
78
330
76
100
AcDbEntity
  8
0
100
AcDbBlockEnd
  0
BLOCK
  5
7A
330
79
100
AcDbEntity
  8
0
100
AcDbBlockBegin
  2
button-block
 70
    0
 10
0
 20
0
  3
button-block
  1

  0
LWPOLYLINE
  5
DC
100
AcDbEntity
  8
0
  6
ByLayer
 62
  256
370
   -1
100
AcDbPolyline
 90
    4
 70
    1
 43
0
 10
-12.5
 20
3.000000000000001
 10
-12.5
 20
3.000000000000001
 10
-12.5
 20
3.000000000000001
 10
-12.5
 20
3.000000000000001
  0
LWPOLYLINE
  5
DD
100
AcDbEntity
  8
0
  6
ByLayer
 62
    1
370
   -1
100
AcDbPolyline
 90
    4
 70
    1
 43
0
 10
-12.5
 20
-2.999999999999999
 10
-9
 20
-2.999999999999999
 10
-9
 20
3.000000000000001
 10
-12.5
 20
3.000000000000001
  0
LINE
  5
DE
100
AcDbEntity
  8
0
  6
ByLayer
 62
    8
370
   -1
100
AcDbLine
 10
2
 20
-3.499999999999999
 11
8.25
 21
-3.499999999999999
  0
LINE
  5
DF
100
AcDbEntity
  8
0
  6
ByLayer
 62
    8
370
   -1
100
AcDbLine
 10
8.25
 20
3.500000000000001
 11
2
 21
3.500000000000001
  0
LINE
  5
E0
100
AcDbEntity
  8
0
  6
ByLayer
 62
  253
420
10526884
370
   -1
100
AcDbLine
 10
-9
 20
-1.999999999999999
 11
-6.5
 21
-1.999999999999999
  0
LINE
  5
E1
100
AcDbEntity
  8
0
  6
ByLayer
 62
  253
420
10526884
370
   -1
100
AcDbLine
 10
-6.5
 20
2.000000000000001
 11
-9
 21
2.000000000000001
  0
LWPOLYLINE
  5
E2
100
AcDbEntity
  8
0
  6
ByLayer
 62
    7
370
   -1
100
AcDbPolyline
 90
    4
 70
    1
 43
0
 10
0
 20
-4.999999999999999
 10
2
 20
-4.999999999999999
 10
2
 20
5.000000000000001
 10
0
 20
5.000000000000001
  0
LINE
  5
E3
100
AcDbEntity
  8
0
  6
ByLayer
 62
    7
370
   -1
100
AcDbLine
 10
8.25
 20
-3.499999999999999
 11
8.25
 21
3.500000000000001
  0
LINE
  5
E4
100
AcDbEntity
  8
0
  6
ByLayer
 62
    7
370
   -1
100
AcDbLine
 10
-6.5
 20
-3.539999999999999
 11
0
 21
-3.539999999999999
  0
LINE
  5
E5
100
AcDbEntity
  8
0
  6
ByLayer
 62
    7
370
   -1
100
AcDbLine
 10
0
 20
3.540000000000001
 11
-6.5
 21
3.540000000000001
  0
LINE
  5
E6
100
AcDbEntity
  8
0
  6
ByLayer
 62
    7
370
   -1
100
AcDbLine
 10
-6.5
 20
3.540000000000001
 11
-6.5
 21
-3.539999999999999
  0
CIRCLE
  5
E7
100
AcDbEntity
  8
0
  6
ByLayer
 62
    7
370
   -1
100
AcDbCircle
 10
13.5
 20
1.127570259384925e-015
 40
0.5
  0
LINE
  5
E8
100
AcDbEntity
  8
0
  6
ByLayer
 62
    7
370
   -1
100
AcDbLine
 10
13.5
 20
1.000000000000001
 11
8.25
 21
1.000000000000001
  0
LINE
  5
E9
100
AcDbEntity
  8
0
  6
ByLayer
 62
    7
370
   -1
100
AcDbLine
 10
8.25
 20
-0.999999999999999
 11
13.49999973529911
 21
-0.999999999999999
  0
ARC
  5
EA
100
AcDbEntity
  8
0
  6
ByLayer
 62
    7
370
   -1
100
AcDbCircle
 10
13.5
 20
1.127570259384925e-015
 40
1
100
AcDbArc
 50
270.0000245596733
 51
90
  0
LINE
  5
EB
100
AcDbEntity
  8
0
  6
ByLayer
 62
    7
370
   -1
100
AcDbLine
 10
-5.5575
 20
-3.539999999999999
 11
-5.5
 21
-3.999999999999999
  0
LINE
  5
EC
100
AcDbEntity
  8
0
  6
ByLayer
 62
    7
370
   -1
100
AcDbLine
 10
-4.5
 20
-3.999999999999999
 11
-4.5575
 21
-3.539999999999999
  0
LINE
  5
ED
100
AcDbEntity
  8
0
  6
ByLayer
 62
    7
370
   -1
100
AcDbLine
 10
-3.557499999999999
 20
-3.539999999999999
 11
-3.5
 21
-3.999999999999999
  0
LINE
  5
EE
100
AcDbEntity
  8
0
  6
ByLayer
 62
    7
370
   -1
100
AcDbLine
 10
-2.557499999999999
 20
-3.539999999999999
 11
-2.5
 21
-3.999999999999999
  0
LINE
  5
EF
100
AcDbEntity
  8
0
  6
ByLayer
 62
    7
370
   -1
100
AcDbLine
 10
-1.557499999999999
 20
-3.539999999999999
 11
-1.5
 21
-3.999999999999999
  0
LINE
  5
F0
100
AcDbEntity
  8
0
  6
ByLayer
 62
    7
370
   -1
100
AcDbLine
 10
-0.5574999999999992
 20
-3.539999999999999
 11
-0.5
 21
-3.999999999999999
  0
LINE
  5
F1
100
AcDbEntity
  8
0
  6
ByLayer
 62
    7
370
   -1
100
AcDbLine
 10
-0.5
 20
4.000000000000001
 11
-0.4425000000000008
 21
3.540000000000001
  0
LINE
  5
F2
100
AcDbEntity
  8
0
  6
ByLayer
 62
    7
370
   -1
100
AcDbLine
 10
-0.4425000000000008
 20
3.540000000000001
 11
0
 21
1.002670169114595e-015
  0
LINE
  5
F3
100
AcDbEntity
  8
0
  6
ByLayer
 62
    7
370
   -1
100
AcDbLine
 10
-1.5
 20
4.000000000000001
 11
-1.442499999999999
 21
3.540000000000001
  0
LINE
  5
F4
100
AcDbEntity
  8
0
  6
ByLayer
 62
    7
370
   -1
100
AcDbLine
 10
-1.442499999999999
 20
3.540000000000001
 11
-0.5574999999999992
 21
-3.539999999999999
  0
LINE
  5
F5
100
AcDbEntity
  8
0
  6
ByLayer
 62
    7
370
   -1
100
AcDbLine
 10
-2.5
 20
4.000000000000001
 11
-2.442500000000001
 21
3.540000000000001
  0
LINE
  5
F6
100
AcDbEntity
  8
0
  6
ByLayer
 62
    7
370
   -1
100
AcDbLine
 10
-2.442500000000001
 20
3.540000000000001
 11
-1.557499999999999
 21
-3.539999999999999
  0
LINE
  5
F7
100
AcDbEntity
  8
0
  6
ByLayer
 62
    7
370
   -1
100
AcDbLine
 10
-3.5
 20
4.000000000000001
 11
-3.442499999999999
 21
3.540000000000001
  0
LINE
  5
F8
100
AcDbEntity
  8
0
  6
ByLayer
 62
    7
370
   -1
100
AcDbLine
 10
-3.442499999999999
 20
3.540000000000001
 11
-2.557499999999999
 21
-3.539999999999999
  0
LINE
  5
F9
100
AcDbEntity
  8
0
  6
ByLayer
 62
    7
370
   -1
100
AcDbLine
 10
-4.5
 20
4.000000000000001
 11
-4.442500000000001
 21
3.540000000000001
  0
LINE
  5
FA
100
AcDbEntity
  8
0
  6
ByLayer
 62
    7
370
   -1
100
AcDbLine
 10
-4.442500000000001
 20
3.540000000000001
 11
-3.557499999999999
 21
-3.539999999999999
  0
LINE
  5
FB
100
AcDbEntity
  8
0
  6
ByLayer
 62
    7
370
   -1
100
AcDbLine
 10
-4.5575
 20
-3.539999999999999
 11
-5.4425
 21
3.540000000000001
  0
LINE
  5
FC
100
AcDbEntity
  8
0
  6
ByLayer
 62
    7
370
   -1
100
AcDbLine
 10
-5.4425
 20
3.540000000000001
 11
-5.5
 21
4.000000000000001
  0
LINE
  5
FD
100
AcDbEntity
  8
0
  6
ByLayer
 62
    7
370
   -1
100
AcDbLine
 10
-6.4425
 20
3.540000000000001
 11
-5.5575
 21
-3.539999999999999
  0
ENDBLK
  5
7B
330
79
100
AcDbEntity
  8
0
100
AcDbBlockEnd
  0
BLOCK
  5
7D
330
7C
100
AcDbEntity
  8
0
100
AcDbBlockBegin
  2
potentiometer
 70
    0
 10
0
 20
0
  3
potentiometer
  1

  0
LINE
  5
FE
100
AcDbEntity
  8
0
  6
ByLayer
 62
  256
370
   -1
100
AcDbLine
 10
-3.5
 20
7.5
 11
-3.5
 21
-7.5
  0
LWPOLYLINE
  5
FF
100
AcDbEntity
  8
0
  6
ByLayer
 62
   56
420
8421376
370
   -1
100
AcDbPolyline
 90
    4
 70
    1
 43
0
 10
-9
 20
-8.5
 10
-3.5
 20
-8.5
 10
-3.5
 20
8.5
 10
-9
 20
8.5
  0
LINE
  5
100
100
AcDbEntity
  8
0
  6
ByLayer
 62
   34
420
11162880
370
   -1
100
AcDbLine
 10
-2
 20
7.5
 11
-3.5
 21
7.5
  0
LINE
  5
101
100
AcDbEntity
  8
0
  6
ByLayer
 62
   34
420
11162880
370
   -1
100
AcDbLine
 10
-2
 20
-12
 11
-3.5
 21
-12
  0
LINE
  5
102
100
AcDbEntity
  8
0
  6
ByLayer
 62
   34
420
11162880
370
   -1
100
AcDbLine
 10
-3.5
 20
-12
 11
-3.5
 21
-8.5
  0
LINE
  5
103
100
AcDbEntity
  8
0
  6
ByLayer
 62
   34
420
11162880
370
   -1
100
AcDbLine
 10
-2
 20
-12
 11
-2
 21
7.5
  0
LINE
  5
104
100
AcDbEntity
  8
0
  6
ByLayer
 62
  253
420
10526884
370
   -1
100
AcDbLine
 10
-3.920000000000002
 20
-8.5
 11
-3.920000000000002
 21
-17
  0
LINE
  5
105
100
AcDbEntity
  8
0
  6
ByLayer
 62
  253
420
10526884
370
   -1
100
AcDbLine
 10
-3.920000000000002
 20
-17
 11
-3.5
 21
-17
  0
LINE
  5
106
100
AcDbEntity
  8
0
  6
ByLayer
 62
  253
420
10526884
370
   -1
100
AcDbLine
 10
-3.5
 20
-17
 11
-3.5
 21
-12
  0
LWPOLYLINE
  5
107
100
AcDbEntity
  8
0
  6
ByLayer
 62
  253
420
10526884
370
   -1
100
AcDbPolyline
 90
    4
 70
    1
 43
0
 10
6.5
 20
-3
 10
15
 20
-3
 10
15
 20
3
 10
6.5
 20
3
  0
LINE
  5
108
100
AcDbEntity
  8
0
  6
ByLayer
 62
  253
420
10526884
370
   -1
100
AcDbLine
 10
7
 20
2
 11
14
 21
2
  0
LINE
  5
109
100
AcDbEntity
  8
0
  6
ByLayer
 62
  253
420
10526884
370
   -1
100
AcDbLine
 10
7
 20
1
 11
14
 21
1
  0
LINE
  5
10A
100
AcDbEntity
  8
0
  6
ByLayer
 62
  253
420
10526884
370
   -1
100
AcDbLine
 10
7
 20
0
 11
14
 21
0
  0
LINE
  5
10B
100
AcDbEntity
  8
0
  6
ByLayer
 62
  253
420
10526884
370
   -1
100
AcDbLine
 10
7
 20
-1
 11
14
 21
-1
  0
LINE
  5
10C
100
AcDbEntity
  8
0
  6
ByLayer
 62
  253
420
10526884
370
   -1
100
AcDbLine
 10
7
 20
-2
 11
14
 21
-2
  0
LWPOLYLINE
  5
10D
100
AcDbEntity
  8
0
  6
ByLayer
 62
    7
370
   -1
100
AcDbPolyline
 90
    4
 70
    1
 43
0
 10
0
 20
-3.5
 10
6.5
 20
-3.5
 10
6.5
 20
3.5
 10
0
 20
3.5
  0
LINE
  5
10E
100
AcDbEntity
  8
0
  6
ByLayer
 62
    7
370
   -1
100
AcDbLine
 10
0
 20
3.5
 11
1
 21
-4
  0
LINE
  5
10F
100
AcDbEntity
  8
0
  6
ByLayer
 62
    7
370
   -1
100
AcDbLine
 10
6
 20
-4
 11
5
 21
4
  0
LINE
  5
110
100
AcDbEntity
  8
0
  6
ByLayer
 62
    7
370
   -1
100
AcDbLine
 10
5
 20
-4
 11
4
 21
4
  0
LINE
  5
111
100
AcDbEntity
  8
0
  6
ByLayer
 62
    7
370
   -1
100
AcDbLine
 10
3
 20
4
 11
4
 21
-4
  0
LINE
  5
112
100
AcDbEntity
  8
0
  6
ByLayer
 62
    7
370
   -1
100
AcDbLine
 10
3
 20
-4
 11
2
 21
4
  0
LINE
  5
113
100
AcDbEntity
  8
0
  6
ByLayer
 62
    7
370
   -1
100
AcDbLine
 10
1
 20
4
 11
2
 21
-4
  0
LINE
  5
114
100
AcDbEntity
  8
0
  6
ByLayer
 62
    7
370
   -1
100
AcDbLine
 10
6
 20
4
 11
6.5
 21
0
  0
LINE
  5
115
100
AcDbEntity
  8
0
  6
ByLayer
 62
    7
370
   -1
100
AcDbLine
 10
0
 20
-5
 11
0
 21
5
  0
LINE
  5
116
100
AcDbEntity
  8
0
  6
ByLayer
 62
    7
370
   -1
100
AcDbLine
 10
0
 20
5
 11
-2
 21
5
  0
LINE
  5
117
100
AcDbEntity
  8
0
  6
ByLayer
 62
    7
370
   -1
100
AcDbLine
 10
-2
 20
-5
 11
0
 21
-5
  0
ENDBLK
  5
7E
330
7C
100
AcDbEntity
  8
0
100
AcDbBlockEnd
  0
BLOCK
  5
80
330
7F
100
AcDbEntity
  8
0
100
AcDbBlockBegin
  2
spacers
 70
    0
 10
0
 20
0
  3
spacers
  1

  0
DIMENSION
  5
118
100
AcDbEntity
  8
construction1
  6
ByLayer
 62
  256
370
   -1
100
AcDbDimension
 10
-7
 20
-2
 30
0
 11
-17
 21
-0.9750000000000014
 31
0
 70
   33
 71
    5
  3
Standard
 53
0
210
0
220
0
230
1
100
AcDbAlignedDimension
 13
-27
 23
-4
 33
0
 14
-7
 24
-4
 34
0
  0
LINE
  5
119
100
AcDbEntity
  8
construction1
  6
ByLayer
 62
  256
370
   -1
100
AcDbLine
 10
-33
 20
-10
 11
-2
 21
-10
  0
ENDBLK
  5
81
330
7F
100
AcDbEntity
  8
0
100
AcDbBlockEnd
  0
BLOCK
  5
83
330
82
100
AcDbEntity
  8
0
100
AcDbBlockBegin
  2
5x7
 70
    0
 10
0
 20
0
  3
5x7
  1

  0
DIMENSION
  5
11A
100
AcDbEntity
  8
construction1
  6
ByLayer
 62
  256
370
   -1
100
AcDbDimension
 10
-42.19999999999999
 20
9.798702228946411
 30
0
 11
-131.1
 21
11.29870222894641
 31
0
 70
   32
  1
7"
 71
    5
 72
    0
  3
Standard
 53
0
210
0
220
0
230
1
100
AcDbAlignedDimension
 13
-220
 23
7
 33
0
 14
-42.19999999999999
 24
7
 34
0
100
AcDbRotatedDimension
  0
DIMENSION
  5
11B
100
AcDbEntity
  8
construction1
  6
ByLayer
 62
  256
370
   -1
100
AcDbDimension
 10
-223
 20
-120
 30
0
 11
-224.5
 21
-56.5
 31
0
 70
   33
  1
5"
 71
    5
  3
Standard
 53
0
210
0
220
0
230
1
100
AcDbAlignedDimension
 13
-220
 23
7
 33
0
 14
-220
 24
-120
 34
0
  0
ENDBLK
  5
84
330
82
100
AcDbEntity
  8
0
100
AcDbBlockEnd
  0
BLOCK
  5
86
330
85
100
AcDbEntity
  8
0
100
AcDbBlockBegin
  2
slot
 70
    0
 10
0
 20
0
  3
slot
  1

  0
DIMENSION
  5
11C
100
AcDbEntity
  8
construction1
  6
ByLayer
 62
  256
370
   -1
100
AcDbDimension
 10
17.99999989366499
 20
11
 30
0
 11
14.99999984966394
 21
12.5
 31
0
 70
   33
 71
    5
  3
Standard
 53
0
210
0
220
0
230
1
100
AcDbAlignedDimension
 13
11.99999980566288
 23
9.6
 33
0
 14
17.99999989366499
 24
9.6
 34
0
  0
ENDBLK
  5
87
330
85
100
AcDbEntity
  8
0
100
AcDbBlockEnd
  0
BLOCK
  5
89
330
88
100
AcDbEntity
  8
0
100
AcDbBlockBegin
  2
20mm spacer
 70
    0
 10
0
 20
0
  3
20mm spacer
  1

  0
CIRCLE
  5
11D
100
AcDbEntity
  8
spacer tabs
  6
ByLayer
 62
  256
370
   -1
100
AcDbCircle
 10
0
 20
0
 40
3.556
  0
LINE
  5
11E
100
AcDbEntity
  8
spacer tabs
  6
ByLayer
 62
  256
370
   -1
100
AcDbLine
 10
10.00008034360491
 20
6.000236465529213
 11
-9.999919656395093
 21
6.000236465529213
  0
LINE
  5
11F
100
AcDbEntity
  8
spacer tabs
  6
ByLayer
 62
  256
370
   -1
100
AcDbLine
 10
-9.999919656395093
 20
-5.999763534470787
 11
10.00008034360491
 21
-5.999763534470787
  0
LINE
  5
120
100
AcDbEntity
  8
spacer tabs
  6
ByLayer
 62
  256
370
   -1
100
AcDbLine
 10
-9.999919656395093
 20
-2.999763534470787
 11
-9.999919656395093
 21
-5.999763534470787
  0
LINE
  5
121
100
AcDbEntity
  8
spacer tabs
  6
ByLayer
 62
  256
370
   -1
100
AcDbLine
 10
10.00008034360491
 20
-2.999763534470787
 11
10.00008034360491
 21
-5.999763534470787
  0
LINE
  5
122
100
AcDbEntity
  8
spacer tabs
  6
ByLayer
 62
  256
370
   -1
100
AcDbLine
 10
10.00008034360491
 20
6.000236465529213
 11
10.00008034360491
 21
3.000236465529213
  0
LINE
  5
123
100
AcDbEntity
  8
spacer tabs
  6
ByLayer
 62
  256
370
   -1
100
AcDbLine
 10
-9.999919656395093
 20
6.000236465529213
 11
-9.999919656395093
 21
3.000236465529213
  0
LINE
  5
124
100
AcDbEntity
  8
spacer tabs
  6
ByLayer
 62
  256
370
   -1
100
AcDbLine
 10
10.00008034360491
 20
3.000236465529213
 11
12.75008034360491
 21
3.000236465529213
  0
LINE
  5
125
100
AcDbEntity
  8
spacer tabs
  6
ByLayer
 62
  256
370
   -1
100
AcDbLine
 10
10.00008034360491
 20
-2.999763534470787
 11
12.75008034360491
 21
-2.999763534470787
  0
LINE
  5
126
100
AcDbEntity
  8
spacer tabs
  6
ByLayer
 62
  256
370
   -1
100
AcDbLine
 10
-9.999919656395093
 20
3.000236465529213
 11
-12.74991965639509
 21
3.000236465529213
  0
LINE
  5
127
100
AcDbEntity
  8
spacer tabs
  6
ByLayer
 62
  256
370
   -1
100
AcDbLine
 10
12.75008034360491
 20
3.000236465529213
 11
12.75008034360491
 21
-2.999763534470787
  0
LINE
  5
128
100
AcDbEntity
  8
spacer tabs
  6
ByLayer
 62
  256
370
   -1
100
AcDbLine
 10
-9.999919656395093
 20
-2.999763534470787
 11
-12.74991965639509
 21
-2.999763534470787
  0
LINE
  5
129
100
AcDbEntity
  8
spacer tabs
  6
ByLayer
 62
  256
370
   -1
100
AcDbLine
 10
-12.74991965639509
 20
3.000236465529213
 11
-12.74991965639509
 21
-2.999763534470787
  0
DIMENSION
  5
12A
100
AcDbEntity
  8
construction1
  6
ByLayer
 62
  256
370
   -1
100
AcDbDimension
 10
10
 20
7
 30
0
 11
9.184547653667829e-017
 21
8.5
 31
0
 70
   33
 71
    5
 72
    0
  3
Standard
 53
0
210
0
220
0
230
1
100
AcDbAlignedDimension
 13
-10
 23
6
 33
0
 14
10
 24
6
 34
0
  0
DIMENSION
  5
12B
100
AcDbEntity
  8
construction1
  6
ByLayer
 62
  256
370
   -1
100
AcDbDimension
 10
12.75008034360491
 20
11
 30
0
 11
8.034360490692141e-005
 21
12.5
 31
0
 70
   33
 71
    5
 72
    0
  3
Standard
 53
0
210
0
220
0
230
1
100
AcDbAlignedDimension
 13
-12.74991965639509
 23
3.000236465529213
 33
0
 14
12.75008034360491
 24
3.000236465529213
 34
0
  0
DIMENSION
  5
12C
100
AcDbEntity
  8
construction1
  6
ByLayer
 62
  256
370
   -1
100
AcDbDimension
 10
-15
 20
-2.999763534470787
 30
0
 11
-16.5
 21
0.0002364655292128209
 31
0
 70
   33
 71
    5
 72
    0
  3
Standard
 53
0
210
0
220
0
230
1
100
AcDbAlignedDimension
 13
-12.74991965639509
 23
3.000236465529213
 33
0
 14
-12.74991965639509
 24
-2.999763534470787
 34
0
  0
LINE
  5
12D
100
AcDbEntity
  8
construction1
  6
ByLayer
 62
  256
370
   -1
100
AcDbLine
 10
-3.555999992137802
 20
0.0002364655292128474
 11
3.555999992137803
 21
0.0002364655292129171
  0
DIMENSION
  5
12E
100
AcDbEntity
  8
construction1
  6
ByLayer
 62
  256
370
   -1
100
AcDbDimension
 10
3.555999992137802
 20
-10
 30
0
 11
-1.24042215301351e-015
 21
-8.5
 31
0
 70
   33
 71
    5
 72
    0
  3
Standard
 53
0
210
0
220
0
230
1
100
AcDbAlignedDimension
 13
-3.555999992137802
 23
0.0002364655292128474
 33
0
 14
3.555999992137803
 24
0.0002364655292129171
 34
0
  0
ENDBLK
  5
8A
330
88
100
AcDbEntity
  8
0
100
AcDbBlockEnd
  0
BLOCK
  5
8C
330
8B
100
AcDbEntity
  8
0
100
AcDbBlockBegin
  2
large LED
 70
    0
 10
0
 20
0
  3
large LED
  1

  0
LINE
  5
12F
100
AcDbEntity
  8
0
  6
ByLayer
 62
  256
370
   -1
100
AcDbLine
 10
0
 20
5
 11
0
 21
0
  0
LINE
  5
130
100
AcDbEntity
  8
0
  6
ByLayer
 62
  256
370
   -1
100
AcDbLine
 10
0
 20
-0.25
 11
1.2
 21
-0.25
  0
LINE
  5
131
100
AcDbEntity
  8
0
  6
ByLayer
 62
  256
370
   -1
100
AcDbLine
 10
1.2
 20
5.25
 11
0
 21
5.25
  0
LINE
  5
132
100
AcDbEntity
  8
0
  6
ByLayer
 62
  256
370
   -1
100
AcDbLine
 10
0
 20
5.25
 11
0
 21
-0.25
  0
LINE
  5
133
100
AcDbEntity
  8
0
  6
ByLayer
 62
  256
370
   -1
100
AcDbLine
 10
1.2
 20
5
 11
1.2
 21
5.25
  0
LINE
  5
134
100
AcDbEntity
  8
0
  6
ByLayer
 62
  256
370
   -1
100
AcDbLine
 10
1.2
 20
-0.25
 11
1.2
 21
0
  0
ARC
  5
135
100
AcDbEntity
  8
0
  6
ByLayer
 62
  256
370
   -1
100
AcDbCircle
 10
6.25
 20
2.5
 40
2.5
100
AcDbArc
 50
269.9999964939658
 51
449.9999964939658
  0
LINE
  5
136
100
AcDbEntity
  8
0
  6
ByLayer
 62
  256
370
   -1
100
AcDbLine
 10
6.249999847020401
 20
5
 11
1.2
 21
5
  0
LINE
  5
137
100
AcDbEntity
  8
0
  6
ByLayer
 62
  256
370
   -1
100
AcDbLine
 10
1.2
 20
0
 11
6.249999847020397
 21
4.884981308350689e-015
  0
LINE
  5
138
100
AcDbEntity
  8
0
  6
ByLayer
 62
  256
370
   -1
100
AcDbLine
 10
9.194034422677078e-017
 20
3.999999999999997
 11
-6
 21
3.999999999999997
  0
LINE
  5
139
100
AcDbEntity
  8
0
  6
ByLayer
 62
  256
370
   -1
100
AcDbLine
 10
-9.194034422677078e-017
 20
0.9999999999999973
 11
-8
 21
0.9999999999999973
  0
ENDBLK
  5
8D
330
8B
100
AcDbEntity
  8
0
100
AcDbBlockEnd
  0
ENDSEC
  0
SECTION
  2
ENTITIES
  0
MTEXT
  5
13A
100
AcDbEntity
  8
construction1
  6
ByLayer
 62
  256
370
   -1
100
AcDbMText
 10
5.194443415869859
 20
-1
 30
0
 40
1
 41
27.83333436190812
 71
    1
 72
    1
  1
thickness of clear acrylic = 2.75 mm\Pthickness of dark grey acrylic = 2.54mm \P
  7
standard
210
0
220
0
230
1
 50
0
 73
    2
 44
1
  0
MTEXT
  5
13B
100
AcDbEntity
  8
construction1
  6
ByLayer
 62
  256
370
   -1
100
AcDbMText
 10
40.19444341586986
 20
-1
 30
0
 40
1
 41
26.52777880635261
 71
    1
 72
    1
  1
thickness of f.green acrylic = 2.75 mm\Pthickness of f.orange acrylic = 2.75mm \P
  7
standard
210
0
220
0
230
1
 50
0
 73
    2
 44
1
  0
LINE
  5
13C
100
AcDbEntity
  8
spacer tabs
  6
ByLayer
 62
  256
370
   -1
100
AcDbLine
 10
49
 20
6
 11
52
 21
6
  0
LINE
  5
13D
100
AcDbEntity
  8
spacer tabs
  6
ByLayer
 62
  256
370
   -1
100
AcDbLine
 10
40
 20
6
 11
43
 21
6
  0
LINE
  5
13E
100
AcDbEntity
  8
spacer tabs
  6
ByLayer
 62
  256
370
   -1
100
AcDbLine
 10
43
 20
6
 11
43
 21
3.25
  0
LINE
  5
13F
100
AcDbEntity
  8
spacer tabs
  6
ByLayer
 62
  256
370
   -1
100
AcDbLine
 10
49
 20
6
 11
49
 21
3.25
  0
LINE
  5
140
100
AcDbEntity
  8
spacer tabs
  6
ByLayer
 62
  256
370
   -1
100
AcDbLine
 10
43
 20
3.25
 11
49
 21
3.25
  0
LINE
  5
141
100
AcDbEntity
  8
spacer tabs
  6
ByLayer
 62
  256
370
   -1
100
AcDbLine
 10
40
 20
24
 11
40
 21
6
  0
LINE
  5
142
100
AcDbEntity
  8
spacer tabs
  6
ByLayer
 62
  256
370
   -1
100
AcDbLine
 10
52
 20
6
 11
52
 21
24
  0
LINE
  5
143
100
AcDbEntity
  8
spacer tabs
  6
ByLayer
 62
  256
370
   -1
100
AcDbLine
 10
49
 20
24
 11
52
 21
24
  0
LINE
  5
144
100
AcDbEntity
  8
spacer tabs
  6
ByLayer
 62
  256
370
   -1
100
AcDbLine
 10
40
 20
24
 11
43
 21
24
  0
LINE
  5
145
100
AcDbEntity
  8
spacer tabs
  6
ByLayer
 62
  256
370
   -1
100
AcDbLine
 10
43
 20
24
 11
43
 21
26.75
  0
LINE
  5
146
100
AcDbEntity
  8
spacer tabs
  6
ByLayer
 62
  256
370
   -1
100
AcDbLine
 10
49
 20
24
 11
49
 21
26.75
  0
LINE
  5
147
100
AcDbEntity
  8
spacer tabs
  6
ByLayer
 62
  256
370
   -1
100
AcDbLine
 10
43
 20
26.75
 11
49
 21
26.75
  0
CIRCLE
  5
148
100
AcDbEntity
  8
spacer tabs
  6
ByLayer
 62
  256
370
   -1
100
AcDbCircle
 10
46
 20
15
 40
1.5
  0
LINE
  5
149
100
AcDbEntity
  8
spacer tabs
  6
ByLayer
 62
  256
370
   -1
100
AcDbLine
 10
9
 20
3.25
 11
12
 21
3.25
  0
LINE
  5
14A
100
AcDbEntity
  8
spacer tabs
  6
ByLayer
 62
  256
370
   -1
100
AcDbLine
 10
0
 20
3.250000000000014
 11
3
 21
3.250000000000014
  0
LINE
  5
14B
100
AcDbEntity
  8
spacer tabs
  6
ByLayer
 62
  256
370
   -1
100
AcDbLine
 10
3
 20
3.250000000000014
 11
3
 21
0.5000000000000071
  0
LINE
  5
14C
100
AcDbEntity
  8
spacer tabs
  6
ByLayer
 62
  256
370
   -1
100
AcDbLine
 10
9
 20
3.25
 11
9
 21
0.5000000000000071
  0
LINE
  5
14D
100
AcDbEntity
  8
spacer tabs
  6
ByLayer
 62
  256
370
   -1
100
AcDbLine
 10
3
 20
0.5000000000000071
 11
9
 21
0.5000000000000071
  0
DIMENSION
  5
14E
100
AcDbEntity
  8
construction1
  6
ByLayer
 62
  256
370
   -1
100
AcDbDimension
  2
*D1
 10
16.00047293105843
 20
0.5000000000000071
 30
0
 11
14.50047293105843
 21
1.875
 31
0
 70
   33
 71
    5
 72
    0
  3
Standard
 53
0
210
0
220
0
230
1
100
AcDbAlignedDimension
 13
12
 23
3.25
 33
0
 14
12
 24
0.5000000000000071
 34
0
  0
LINE
  5
14F
100
AcDbEntity
  8
spacer tabs
  6
ByLayer
 62
  256
370
   -1
100
AcDbLine
 10
0
 20
26.75000000000001
 11
0
 21
3.250000000000014
  0
LINE
  5
150
100
AcDbEntity
  8
spacer tabs
  6
ByLayer
 62
  256
370
   -1
100
AcDbLine
 10
12
 20
3.25
 11
12
 21
26.75000000000001
  0
LINE
  5
151
100
AcDbEntity
  8
spacer tabs
  6
ByLayer
 62
  256
370
   -1
100
AcDbLine
 10
9
 20
26.75000000000001
 11
12
 21
26.75000000000001
  0
LINE
  5
152
100
AcDbEntity
  8
spacer tabs
  6
ByLayer
 62
  256
370
   -1
100
AcDbLine
 10
0
 20
26.75000000000001
 11
3
 21
26.75000000000001
  0
LINE
  5
153
100
AcDbEntity
  8
spacer tabs
  6
ByLayer
 62
  256
370
   -1
100
AcDbLine
 10
3
 20
26.75000000000001
 11
3
 21
29.50000000000001
  0
LINE
  5
154
100
AcDbEntity
  8
spacer tabs
  6
ByLayer
 62
  256
370
   -1
100
AcDbLine
 10
9
 20
26.75000000000001
 11
9
 21
29.50000000000001
  0
LINE
  5
155
100
AcDbEntity
  8
spacer tabs
  6
ByLayer
 62
  256
370
   -1
100
AcDbLine
 10
3
 20
29.50000000000001
 11
9
 21
29.50000000000001
  0
DIMENSION
  5
156
100
AcDbEntity
  8
construction1
  6
ByLayer
 62
  256
370
   -1
100
AcDbDimension
  2
*D2
 10
16.00000000000001
 20
18.5559999921378
 30
0
 11
14.50000000000001
 21
15
 31
0
 70
   33
 71
    5
 72
    0
  3
Standard
 53
0
210
0
220
0
230
1
100
AcDbAlignedDimension
 13
5.999763534470787
 23
11.4440000078622
 33
0
 14
5.999763534470787
 24
18.5559999921378
 34
0
  0
CIRCLE
  5
157
100
AcDbEntity
  8
spacer tabs
  6
ByLayer
 62
  256
370
   -1
100
AcDbCircle
 10
6
 20
15
 40
3.556
  0
DIMENSION
  5
158
100
AcDbEntity
  8
construction1
  6
ByLayer
 62
  256
370
   -1
100
AcDbDimension
  2
*D3
 10
-0.9995270689415747
 20
26.75000000000001
 30
0
 11
-2.499527068941575
 21
15.00000000000001
 31
0
 70
   33
 71
    5
  3
Standard
 53
0
210
0
220
0
230
1
100
AcDbAlignedDimension
 13
1.4210854715202e-014
 23
3.250000000000014
 33
0
 14
0
 24
26.75000000000001
 34
0
  0
DIMENSION
  5
159
100
AcDbEntity
  8
construction1
  6
ByLayer
 62
  256
370
   -1
100
AcDbDimension
  2
*D4
 10
-4.999527068941574
 20
29.50000000000001
 30
0
 11
-6.499527068941575
 21
15.00000000000001
 31
0
 70
   33
 71
    5
  3
Standard
 53
0
210
0
220
0
230
1
100
AcDbAlignedDimension
 13
3
 23
0.5000000000000071
 33
0
 14
3
 24
29.50000000000001
 34
0
  0
DIMENSION
  5
15A
100
AcDbEntity
  8
construction1
  6
ByLayer
 62
  256
370
   -1
100
AcDbDimension
  2
*D5
 10
16.00047293105843
 20
29.50000000000001
 30
0
 11
14.50047293105843
 21
28.12500000000001
 31
0
 70
   33
 71
    5
  3
Standard
 53
0
210
0
220
0
230
1
100
AcDbAlignedDimension
 13
9
 23
26.75000000000001
 33
0
 14
9
 24
29.50000000000001
 34
0
  0
LINE
  5
15B
100
AcDbEntity
  8
spacer tabs
  6
ByLayer
 62
  256
370
   -1
100
AcDbLine
 10
68.99976353447079
 20
6.000080343604907
 11
71.99976353447079
 21
6.000080343604907
  0
LINE
  5
15C
100
AcDbEntity
  8
spacer tabs
  6
ByLayer
 62
  256
370
   -1
100
AcDbLine
 10
59.99976353447079
 20
6.000080343604907
 11
62.99976353447079
 21
6.000080343604907
  0
LINE
  5
15D
100
AcDbEntity
  8
spacer tabs
  6
ByLayer
 62
  256
370
   -1
100
AcDbLine
 10
62.99976353447079
 20
6.000080343604907
 11
62.99976353447079
 21
3.250080343604907
  0
LINE
  5
15E
100
AcDbEntity
  8
spacer tabs
  6
ByLayer
 62
  256
370
   -1
100
AcDbLine
 10
68.99976353447079
 20
6.000080343604907
 11
68.99976353447079
 21
3.250080343604907
  0
LINE
  5
15F
100
AcDbEntity
  8
spacer tabs
  6
ByLayer
 62
  256
370
   -1
100
AcDbLine
 10
62.99976353447079
 20
3.250080343604907
 11
68.99976353447079
 21
3.250080343604907
  0
LINE
  5
160
100
AcDbEntity
  8
spacer tabs
  6
ByLayer
 62
  256
370
   -1
100
AcDbLine
 10
59.99976353447079
 20
24.00008034360491
 11
59.99976353447079
 21
6.000080343604907
  0
LINE
  5
161
100
AcDbEntity
  8
spacer tabs
  6
ByLayer
 62
  256
370
   -1
100
AcDbLine
 10
71.99976353447079
 20
6.000080343604907
 11
71.99976353447079
 21
24.00008034360491
  0
LINE
  5
162
100
AcDbEntity
  8
spacer tabs
  6
ByLayer
 62
  256
370
   -1
100
AcDbLine
 10
68.99976353447079
 20
24.00008034360491
 11
71.99976353447079
 21
24.00008034360491
  0
LINE
  5
163
100
AcDbEntity
  8
spacer tabs
  6
ByLayer
 62
  256
370
   -1
100
AcDbLine
 10
59.99976353447079
 20
24.00008034360491
 11
62.99976353447079
 21
24.00008034360491
  0
LINE
  5
164
100
AcDbEntity
  8
spacer tabs
  6
ByLayer
 62
  256
370
   -1
100
AcDbLine
 10
62.99976353447079
 20
24.00008034360491
 11
62.99976353447079
 21
26.75008034360491
  0
LINE
  5
165
100
AcDbEntity
  8
spacer tabs
  6
ByLayer
 62
  256
370
   -1
100
AcDbLine
 10
68.99976353447079
 20
24.00008034360491
 11
68.99976353447079
 21
26.75008034360491
  0
LINE
  5
166
100
AcDbEntity
  8
spacer tabs
  6
ByLayer
 62
  256
370
   -1
100
AcDbLine
 10
62.99976353447079
 20
26.75008034360491
 11
68.99976353447079
 21
26.75008034360491
  0
CIRCLE
  5
167
100
AcDbEntity
  8
spacer tabs
  6
ByLayer
 62
  256
370
   -1
100
AcDbCircle
 10
66
 20
15
 40
3.556
  0
LWPOLYLINE
  5
168
100
AcDbEntity
  8
spacer tabs
  6
ByLayer
 62
  256
370
   -1
100
AcDbPolyline
 90
    4
 70
    1
 43
0
 10
80
 20
0
 10
99
 20
0
 10
99
 20
27
 10
80
 20
27
  0
LWPOLYLINE
  5
169
100
AcDbEntity
  8
spacer tabs
  6
ByLayer
 62
  256
370
   -1
100
AcDbPolyline
 90
    4
 70
    1
 43
0
 10
82
 20
10
 10
84.8
 20
10
 10
84.8
 20
16
 10
82
 20
16
  0
DIMENSION
  5
16A
100
AcDbEntity
  8
construction1
  6
ByLayer
 62
  256
370
   -1
100
AcDbDimension
  2
*D6
 10
9
 20
31
 30
0
 11
6
 21
32.5
 31
0
 70
   33
 71
    5
 72
    0
  3
Standard
 53
0
210
0
220
0
230
1
100
AcDbAlignedDimension
 13
3
 23
29.50000000000001
 33
0
 14
9
 24
29.50000000000001
 34
0
  0
DIMENSION
  5
16B
100
AcDbEntity
  8
construction1
  6
ByLayer
 62
  256
370
   -1
100
AcDbDimension
  2
*D7
 10
12
 20
37
 30
0
 11
6
 21
38.5
 31
0
 70
   33
 71
    5
 72
    0
  3
Standard
 53
0
210
0
220
0
230
1
100
AcDbAlignedDimension
 13
0
 23
26.75000000000001
 33
0
 14
12
 24
26.75000000000001
 34
0
  0
LINE
  5
16C
100
AcDbEntity
  8
trigger
  6
ByLayer
 62
  256
370
   -1
100
AcDbLine
 10
9
 20
2.75
 11
12
 21
2.75
  0
LINE
  5
16D
100
AcDbEntity
  8
trigger
  6
ByLayer
 62
  256
370
   -1
100
AcDbLine
 10
0
 20
2.75
 11
3
 21
2.75
  0
LINE
  5
16E
100
AcDbEntity
  8
trigger
  6
ByLayer
 62
  256
370
   -1
100
AcDbLine
 10
3
 20
2.75
 11
3
 21
0
  0
LINE
  5
16F
100
AcDbEntity
  8
trigger
  6
ByLayer
 62
  256
370
   -1
100
AcDbLine
 10
9
 20
2.75
 11
9
 21
0
  0
LINE
  5
170
100
AcDbEntity
  8
trigger
  6
ByLayer
 62
  256
370
   -1
100
AcDbLine
 10
3
 20
0
 11
9
 21
0
  0
DIMENSION
  5
171
100
AcDbEntity
  8
trigger-construction
  6
ByLayer
 62
  256
370
   -1
100
AcDbDimension
  2
*D8
 10
9
 20
-5
 30
0
 11
6.000000000000001
 21
-3.5
 31
0
 70
   33
 71
    5
  3
Standard
 53
0
210
0
220
0
230
1
100
AcDbAlignedDimension
 13
3
 23
-1
 33
0
 14
9
 24
-1
 34
0
  0
DIMENSION
  5
172
100
AcDbEntity
  8
trigger-construction
  6
ByLayer
 62
  256
370
   -1
100
AcDbDimension
  2
*D9
 10
12
 20
-9
 30
0
 11
5.999999999999998
 21
-7.5
 31
0
 70
   33
 71
    5
  3
Standard
 53
0
210
0
220
0
230
1
100
AcDbAlignedDimension
 13
0
 23
-1
 33
0
 14
12
 24
-1
 34
0
  0
LINE
  5
173
100
AcDbEntity
  8
trigger
  6
ByLayer
 62
  256
370
   -1
100
AcDbLine
 10
0
 20
2.75
 11
1.347066989204615e-015
 21
24.75
  0
LINE
  5
174
100
AcDbEntity
  8
trigger
  6
ByLayer
 62
  256
370
   -1
100
AcDbLine
 10
12
 20
2.75
 11
12
 21
24.75
  0
LINE
  5
175
100
AcDbEntity
  8
trigger
  6
ByLayer
 62
  256
370
   -1
100
AcDbLine
 10
9.000000000000002
 20
24.75
 11
12
 21
24.75
  0
LINE
  5
176
100
AcDbEntity
  8
trigger
  6
ByLayer
 62
  256
370
   -1
100
AcDbLine
 10
1.347066989204615e-015
 20
24.75
 11
3.000000000000001
 21
24.75
  0
LINE
  5
177
100
AcDbEntity
  8
trigger
  6
ByLayer
 62
  256
370
   -1
100
AcDbLine
 10
3.000000000000001
 20
24.75
 11
3.000000000000001
 21
27.5
  0
LINE
  5
178
100
AcDbEntity
  8
trigger
  6
ByLayer
 62
  256
370
   -1
100
AcDbLine
 10
9.000000000000002
 20
24.75
 11
9.000000000000002
 21
27.5
  0
LINE
  5
179
100
AcDbEntity
  8
trigger
  6
ByLayer
 62
  256
370
   -1
100
AcDbLine
 10
3.000000000000001
 20
27.5
 11
9.000000000000002
 21
27.5
  0
CIRCLE
  5
17A
100
AcDbEntity
  8
trigger
  6
ByLayer
 62
  256
370
   -1
100
AcDbCircle
 10
6.000000000000001
 20
13.75
 40
3.556
  0
DIMENSION
  5
17B
100
AcDbEntity
  8
trigger-construction
  6
ByLayer
 62
  256
370
   -1
100
AcDbDimension
  2
*D10
 10
-2
 20
24.75
 30
0
 11
-3.5
 21
13.75
 31
0
 70
   33
 71
    5
  3
Standard
 53
0
210
0
220
0
230
1
100
AcDbAlignedDimension
 13
0
 23
2.75
 33
0
 14
1.347066989204615e-015
 24
24.75
 34
0
  0
DIMENSION
  5
17C
100
AcDbEntity
  8
trigger-construction
  6
ByLayer
 62
  256
370
   -1
100
AcDbDimension
  2
*D11
 10
18
 20
17.306
 30
0
 11
16.5
 21
13.75
 31
0
 70
   33
 71
    5
  3
Standard
 53
0
210
0
220
0
230
1
100
AcDbAlignedDimension
 13
6
 23
10.194
 33
0
 14
6.000000000000001
 24
17.306
 34
0
  0
DIMENSION
  5
17D
100
AcDbEntity
  8
trigger-construction
  6
ByLayer
 62
  256
370
   -1
100
AcDbDimension
  2
*D12
 10
18
 20
27.5
 30
0
 11
16.5
 21
26.125
 31
0
 70
   33
 71
    5
  3
Standard
 53
0
210
0
220
0
230
1
100
AcDbAlignedDimension
 13
12
 23
24.75
 33
0
 14
12
 24
27.5
 34
0
  0
DIMENSION
  5
17E
100
AcDbEntity
  8
trigger-construction
  6
ByLayer
 62
  256
370
   -1
100
AcDbDimension
  2
*D13
 10
18
 20
-1.469527624586853e-015
 30
0
 11
16.5
 21
1.374999999999998
 31
0
 70
   33
 71
    5
  3
Standard
 53
0
210
0
220
0
230
1
100
AcDbAlignedDimension
 13
12
 23
2.75
 33
0
 14
12
 24
0
 34
0
  0
LINE
  5
17F
100
AcDbEntity
  8
trigger
  6
ByLayer
 62
  256
370
   -1
100
AcDbLine
 10
28.99976353447079
 20
6.000080343604907
 11
31.99976353447079
 21
6.000080343604907
  0
LINE
  5
180
100
AcDbEntity
  8
trigger
  6
ByLayer
 62
  256
370
   -1
100
AcDbLine
 10
19.99976353447079
 20
6.000080343604907
 11
22.99976353447079
 21
6.000080343604907
  0
LINE
  5
181
100
AcDbEntity
  8
trigger
  6
ByLayer
 62
  256
370
   -1
100
AcDbLine
 10
22.99976353447079
 20
6.000080343604907
 11
22.99976353447079
 21
3.250080343604907
  0
LINE
  5
182
100
AcDbEntity
  8
trigger
  6
ByLayer
 62
  256
370
   -1
100
AcDbLine
 10
28.99976353447079
 20
6.000080343604907
 11
28.99976353447079
 21
3.250080343604907
  0
LINE
  5
183
100
AcDbEntity
  8
trigger
  6
ByLayer
 62
  256
370
   -1
100
AcDbLine
 10
22.99976353447079
 20
3.250080343604907
 11
28.99976353447079
 21
3.250080343604907
  0
LINE
  5
184
100
AcDbEntity
  8
trigger
  6
ByLayer
 62
  256
370
   -1
100
AcDbLine
 10
19.99976353447079
 20
24.00008034360491
 11
19.99976353447079
 21
6.000080343604907
  0
LINE
  5
185
100
AcDbEntity
  8
trigger
  6
ByLayer
 62
  256
370
   -1
100
AcDbLine
 10
31.99976353447079
 20
6.000080343604907
 11
31.99976353447079
 21
24.00008034360491
  0
LINE
  5
186
100
AcDbEntity
  8
trigger
  6
ByLayer
 62
  256
370
   -1
100
AcDbLine
 10
28.99976353447079
 20
24.00008034360491
 11
31.99976353447079
 21
24.00008034360491
  0
LINE
  5
187
100
AcDbEntity
  8
trigger
  6
ByLayer
 62
  256
370
   -1
100
AcDbLine
 10
19.99976353447079
 20
24.00008034360491
 11
22.99976353447079
 21
24.00008034360491
  0
LINE
  5
188
100
AcDbEntity
  8
trigger
  6
ByLayer
 62
  256
370
   -1
100
AcDbLine
 10
22.99976353447079
 20
24.00008034360491
 11
22.99976353447079
 21
26.75008034360491
  0
LINE
  5
189
100
AcDbEntity
  8
trigger
  6
ByLayer
 62
  256
370
   -1
100
AcDbLine
 10
28.99976353447079
 20
24.00008034360491
 11
28.99976353447079
 21
26.75008034360491
  0
LINE
  5
18A
100
AcDbEntity
  8
trigger
  6
ByLayer
 62
  256
370
   -1
100
AcDbLine
 10
22.99976353447079
 20
26.75008034360491
 11
28.99976353447079
 21
26.75008034360491
  0
CIRCLE
  5
18B
100
AcDbEntity
  8
trigger
  6
ByLayer
 62
  256
370
   -1
100
AcDbCircle
 10
26
 20
15
 40
1.5
  0
ENDSEC
  0
SECTION
  2
OBJECTS
  0
DICTIONARY
  5
C
330
0
100
AcDbDictionary
281
    1
  3
ACAD_GROUP
350
D
  0
DICTIONARY
  5
D
330
C
100
AcDbDictionary
281
    1
  0
ENDSEC
  0
EOF
