999
dxfrw 0.6.3
  0
SECTION
  2
HEADER
  9
$ACADVER
  1
AC1021
  9
$DWGCODEPAGE
  3
ANSI_1252
  9
$INSBASE
 10
0
 20
0
 30
0
  9
$EXTMIN
 10
-3.125000000000005
 20
-200
 30
0
  9
$EXTMAX
 10
281.25
 20
3.125
 30
0
  9
$LIMMIN
 10
0
 20
0
  9
$LIMMAX
 10
420
 20
297
  9
$ORTHOMODE
 70
    0
  9
$REGENMODE
 70
    1
  9
$FILLMODE
 70
    1
  9
$QTEXTMODE
 70
    0
  9
$MIRRTEXT
 70
    0
  9
$LTSCALE
 40
1
  9
$ATTMODE
 70
    0
  9
$TEXTSIZE
 40
2.5
  9
$TRACEWID
 40
15.68
  9
$TEXTSTYLE
  7
STANDARD
  9
$CLAYER
  8
border
  9
$CELTYPE
  6
BYLAYER
  9
$CECOLOR
 62
  256
  9
$CELTSCALE
 40
1
  9
$DISPSILH
 70
    0
  9
$DIMSCALE
 40
1
  9
$DIMASZ
 40
2.5
  9
$DIMEXO
 40
0.625
  9
$DIMDLI
 40
3.75
  9
$DIMRND
 40
0
  9
$DIMDLE
 40
0
  9
$DIMEXE
 40
1.25
  9
$DIMTP
 40
0
  9
$DIMTM
 40
0
  9
$DIMTXT
 40
2.5
  9
$DIMCEN
 40
2.5
  9
$DIMTSZ
 40
0
  9
$DIMTOL
 70
    0
  9
$DIMLIM
 70
    0
  9
$DIMTIH
 70
    0
  9
$DIMTOH
 70
    0
  9
$DIMSE1
 70
    0
  9
$DIMSE2
 70
    0
  9
$DIMTAD
 70
    1
  9
$DIMZIN
 70
    8
  9
$DIMBLK
  1

  9
$DIMASO
 70
    1
  9
$DIMSHO
 70
    1
  9
$DIMPOST
  1

  9
$DIMAPOST
  1

  9
$DIMALT
 70
    0
  9
$DIMALTD
 70
    3
  9
$DIMALTF
 40
0.03937
  9
$DIMLFAC
 40
1
  9
$DIMTOFL
 70
    1
  9
$DIMTVP
 40
0
  9
$DIMTIX
 70
    0
  9
$DIMSOXD
 70
    0
  9
$DIMSAH
 70
    0
  9
$DIMBLK1
  1

  9
$DIMBLK2
  1

  9
$DIMSTYLE
  2
STANDARD
  9
$DIMCLRD
 70
    0
  9
$DIMCLRE
 70
    0
  9
$DIMCLRT
 70
    0
  9
$DIMTFAC
 40
1
  9
$DIMGAP
 40
0.625
  9
$DIMJUST
 70
    0
  9
$DIMSD1
 70
    0
  9
$DIMSD2
 70
    0
  9
$DIMTOLJ
 70
    0
  9
$DIMTZIN
 70
    8
  9
$DIMALTZ
 70
    0
  9
$DIMALTTZ
 70
    0
  9
$DIMUPT
 70
    0
  9
$DIMDEC
 70
    2
  9
$DIMTDEC
 70
    2
  9
$DIMALTU
 70
    2
  9
$DIMALTTD
 70
    3
  9
$DIMTXSTY
  7
STANDARD
  9
$DIMAUNIT
 70
    0
  9
$DIMADEC
 70
    0
  9
$DIMALTRND
 40
0
  9
$DIMAZIN
 70
    0
  9
$DIMDSEP
 70
   44
  9
$DIMATFIT
 70
    3
  9
$DIMFRAC
 70
    0
  9
$DIMLDRBLK
  1
STANDARD
  9
$DIMLUNIT
 70
    2
  9
$DIMLWD
 70
   -2
  9
$DIMLWE
 70
   -2
  9
$DIMTMOVE
 70
    0
  9
$DIMFXL
 40
1
  9
$DIMFXLON
 70
    0
  9
$DIMJOGANG
 40
0.7854
  9
$DIMTFILL
 70
    0
  9
$DIMTFILLCLR
 70
    0
  9
$DIMARCSYM
 70
    0
  9
$DIMLTYPE
  6

  9
$DIMLTEX1
  6

  9
$DIMLTEX2
  6

  9
$LUNITS
 70
    2
  9
$LUPREC
 70
    4
  9
$SKETCHINC
 40
1
  9
$FILLETRAD
 40
0
  9
$AUNITS
 70
    0
  9
$AUPREC
 70
    2
  9
$MENU
  1
.
  9
$ELEVATION
 40
0
  9
$PELEVATION
 40
0
  9
$THICKNESS
 40
0
  9
$LIMCHECK
 70
    0
  9
$CHAMFERA
 40
0
  9
$CHAMFERB
 40
0
  9
$CHAMFERC
 40
0
  9
$CHAMFERD
 40
0
  9
$SKPOLY
 70
    0
  9
$USRTIMER
 70
    1
  9
$ANGBASE
 50
0
  9
$ANGDIR
 70
    0
  9
$PDMODE
 70
   34
  9
$PDSIZE
 40
0
  9
$PLINEWID
 40
0
  9
$SPLFRAME
 70
    0
  9
$SPLINETYPE
 70
    2
  9
$SPLINESEGS
 70
    8
  9
$HANDSEED
  5
20000
  9
$SURFTAB1
 70
    6
  9
$SURFTAB2
 70
    6
  9
$SURFTYPE
 70
    6
  9
$SURFU
 70
    6
  9
$SURFV
 70
    6
  9
$UCSBASE
  2

  9
$UCSNAME
  2

  9
$UCSORG
 10
0
 20
0
 30
0
  9
$UCSXDIR
 10
1
 20
0
 30
0
  9
$UCSYDIR
 10
0
 20
1
 30
0
  9
$UCSORTHOREF
  2

  9
$UCSORTHOVIEW
 70
    0
  9
$UCSORGTOP
 10
0
 20
0
 30
0
  9
$UCSORGBOTTOM
 10
0
 20
0
 30
0
  9
$UCSORGLEFT
 10
0
 20
0
 30
0
  9
$UCSORGRIGHT
 10
0
 20
0
 30
0
  9
$UCSORGFRONT
 10
0
 20
0
 30
0
  9
$UCSORGBACK
 10
0
 20
0
 30
0
  9
$PUCSBASE
  2

  9
$PUCSNAME
  2

  9
$PUCSORG
 10
0
 20
0
 30
0
  9
$PUCSXDIR
 10
1
 20
0
 30
0
  9
$PUCSYDIR
 10
0
 20
1
 30
0
  9
$PUCSORTHOREF
  2

  9
$PUCSORTHOVIEW
 70
    0
  9
$PUCSORGTOP
 10
0
 20
0
 30
0
  9
$PUCSORGBOTTOM
 10
0
 20
0
 30
0
  9
$PUCSORGLEFT
 10
0
 20
0
 30
0
  9
$PUCSORGRIGHT
 10
0
 20
0
 30
0
  9
$PUCSORGFRONT
 10
0
 20
0
 30
0
  9
$PUCSORGBACK
 10
0
 20
0
 30
0
  9
$USERI1
 70
    0
  9
$USERI2
 70
    0
  9
$USERI3
 70
    0
  9
$USERI4
 70
    0
  9
$USERI5
 70
    0
  9
$USERR1
 40
0
  9
$USERR2
 40
0
  9
$USERR3
 40
0
  9
$USERR4
 40
0
  9
$USERR5
 40
0
  9
$WORLDVIEW
 70
    1
  9
$SHADEDGE
 70
    3
  9
$SHADEDIF
 70
   70
  9
$TILEMODE
 70
    1
  9
$MAXACTVP
 70
   64
  9
$PINSBASE
 10
0
 20
0
 30
0
  9
$PLIMCHECK
 70
    0
  9
$PEXTMIN
 10
0
 20
0
 30
0
  9
$PEXTMAX
 10
0
 20
0
 30
0
  9
$SNAPSTYLE
 70
    0
  9
$PLIMMIN
 10
0
 20
0
  9
$PLIMMAX
 10
7.820100000000001e-07
 20
1.106e-06
  9
$UNITMODE
 70
    0
  9
$VISRETAIN
 70
    1
  9
$PLINEGEN
 70
    0
  9
$PSLTSCALE
 70
    1
  9
$TREEDEPTH
 70
 3020
  9
$CMLSTYLE
  2
Standard
  9
$CMLJUST
 70
    0
  9
$CMLSCALE
 40
20
  9
$PROXYGRAPHICS
 70
    1
  9
$MEASUREMENT
 70
    1
  9
$CELWEIGHT
370
   -1
  9
$ENDCAPS
280
    0
  9
$JOINSTYLE
280
    0
  9
$LWDISPLAY
290
    0
  9
$INSUNITS
 70
    4
  9
$HYPERLINKBASE
  1

  9
$STYLESHEET
  1

  9
$XEDIT
290
    1
  9
$CEPSNTYPE
380
    0
  9
$PSTYLEMODE
290
    1
  9
$EXTNAMES
290
    1
  9
$PSVPSCALE
 40
1
  9
$OLESTARTUP
290
    0
  9
$SORTENTS
280
  127
  9
$INDEXCTL
280
    0
  9
$HIDETEXT
280
    1
  9
$XCLIPFRAME
290
    0
  9
$HALOGAP
280
    0
  9
$OBSCOLOR
 70
  257
  9
$OBSLTYPE
280
    0
  9
$INTERSECTIONDISPLAY
280
    0
  9
$INTERSECTIONCOLOR
 70
  257
  9
$DIMASSOC
280
    1
  9
$PROJECTNAME
  1

  9
$CAMERADISPLAY
290
    0
  9
$LENSLENGTH
 40
50
  9
$CAMERAHEIGHT
 40
0
  9
$STEPSPERSEC
 40
2
  9
$STEPSIZE
 40
50
  9
$3DDWFPREC
 40
2
  9
$PSOLWIDTH
 40
5
  9
$PSOLHEIGHT
 40
80
  9
$LOFTANG1
 40
1.570796326794897
  9
$LOFTANG2
 40
1.570796326794897
  9
$LOFTMAG1
 40
0
  9
$LOFTMAG2
 40
0
  9
$LOFTPARAM
 70
    7
  9
$LOFTNORMALS
280
    1
  9
$LATITUDE
 40
1
  9
$LONGITUDE
 40
1
  9
$NORTHDIRECTION
 40
0
  9
$TIMEZONE
 70
-8000
  9
$LIGHTGLYPHDISPLAY
280
    1
  9
$TILEMODELIGHTSYNCH
280
    1
  9
$SOLIDHIST
280
    1
  9
$SHOWHIST
280
    1
  9
$DWFFRAME
280
    2
  9
$DGNFRAME
280
    0
  9
$REALWORLDSCALE
290
    1
  9
$INTERFERECOLOR
 62
    1
  9
$CSHADOW
280
    0
  9
$SHADOWPLANELOCATION
 40
0
  0
ENDSEC
  0
SECTION
  2
CLASSES
  0
ENDSEC
  0
SECTION
  2
TABLES
  0
TABLE
  2
VPORT
  5
8
330
0
100
AcDbSymbolTable
 70
    1
  0
VPORT
  5
31
330
2
100
AcDbSymbolTableRecord
100
AcDbViewportTableRecord
  2
*ACTIVE
 70
    0
 10
0
 20
0
 11
1
 21
1
 12
222.232324084489
 22
22.39821849040519
 13
0
 23
0
 14
10
 24
10
 15
10
 25
10
 16
0
 26
0
 36
1
 17
0
 27
0
 37
0
 40
353.4718855517069
 41
2.01980198019802
 42
50
 43
0
 44
0
 50
0
 51
0
 71
    0
 72
  100
 73
    1
 74
    3
 75
    0
 76
    1
 77
    0
 78
    0
281
    0
 65
    1
110
0
120
0
130
0
111
1
121
0
131
0
112
0
122
1
132
0
 79
    0
146
0
348
10020
 60
    7
 61
    5
292
1
282
    1
141
0
142
0
 63
  250
421
3358443
  0
ENDTAB
  0
TABLE
  2
LTYPE
  5
5
330
0
100
AcDbSymbolTable
 70
    4
  0
LTYPE
  5
14
330
5
100
AcDbSymbolTableRecord
100
AcDbLinetypeTableRecord
  2
ByBlock
 70
    0
  3

 72
   65
 73
    0
 40
0
  0
LTYPE
  5
15
330
5
100
AcDbSymbolTableRecord
100
AcDbLinetypeTableRecord
  2
ByLayer
 70
    0
  3

 72
   65
 73
    0
 40
0
  0
LTYPE
  5
16
330
5
100
AcDbSymbolTableRecord
100
AcDbLinetypeTableRecord
  2
Continuous
 70
    0
  3
Solid line
 72
   65
 73
    0
 40
0
  0
LTYPE
  5
32
330
5
100
AcDbSymbolTableRecord
100
AcDbLinetypeTableRecord
  2
DOT
 70
    0
  3
Dot . . . . . . . . . . . . . . . . . . . . . .
 72
   65
 73
    2
 40
6.35
 49
0
 74
    0
 49
-6.35
 74
    0
  0
LTYPE
  5
33
330
5
100
AcDbSymbolTableRecord
100
AcDbLinetypeTableRecord
  2
DOTTINY
 70
    0
  3
Dot (.15x) .....................................
 72
   65
 73
    2
 40
0.9525
 49
0
 74
    0
 49
-0.9525
 74
    0
  0
LTYPE
  5
34
330
5
100
AcDbSymbolTableRecord
100
AcDbLinetypeTableRecord
  2
DOT2
 70
    0
  3
Dot (.5x) .....................................
 72
   65
 73
    2
 40
3.175
 49
0
 74
    0
 49
-3.175
 74
    0
  0
LTYPE
  5
35
330
5
100
AcDbSymbolTableRecord
100
AcDbLinetypeTableRecord
  2
DOTX2
 70
    0
  3
Dot (2x) .  .  .  .  .  .  .  .  .  .  .  .  .
 72
   65
 73
    2
 40
12.7
 49
0
 74
    0
 49
-12.7
 74
    0
  0
LTYPE
  5
36
330
5
100
AcDbSymbolTableRecord
100
AcDbLinetypeTableRecord
  2
DASHED
 70
    0
  3
Dashed _ _ _ _ _ _ _ _ _ _ _ _ _ _ _ _ _
 72
   65
 73
    2
 40
19.05
 49
12.7
 74
    0
 49
-6.35
 74
    0
  0
LTYPE
  5
37
330
5
100
AcDbSymbolTableRecord
100
AcDbLinetypeTableRecord
  2
DASHEDTINY
 70
    0
  3
Dashed (.15x) _ _ _ _ _ _ _ _ _ _ _ _ _ _ _ _ _
 72
   65
 73
    2
 40
2.8575
 49
1.905
 74
    0
 49
-0.9525
 74
    0
  0
LTYPE
  5
38
330
5
100
AcDbSymbolTableRecord
100
AcDbLinetypeTableRecord
  2
DASHED2
 70
    0
  3
Dashed (.5x) _ _ _ _ _ _ _ _ _ _ _ _ _ _ _ _ _
 72
   65
 73
    2
 40
9.524999999999999
 49
6.35
 74
    0
 49
-3.175
 74
    0
  0
LTYPE
  5
39
330
5
100
AcDbSymbolTableRecord
100
AcDbLinetypeTableRecord
  2
DASHEDX2
 70
    0
  3
Dashed (2x) ____  ____  ____  ____  ____  ___
 72
   65
 73
    2
 40
38.09999999999999
 49
25.4
 74
    0
 49
-12.7
 74
    0
  0
LTYPE
  5
3A
330
5
100
AcDbSymbolTableRecord
100
AcDbLinetypeTableRecord
  2
DASHDOT
 70
    0
  3
Dash dot __ . __ . __ . __ . __ . __ . __ . __
 72
   65
 73
    4
 40
25.4
 49
12.7
 74
    0
 49
-6.35
 74
    0
 49
0
 74
    0
 49
-6.35
 74
    0
  0
LTYPE
  5
3B
330
5
100
AcDbSymbolTableRecord
100
AcDbLinetypeTableRecord
  2
DASHDOTTINY
 70
    0
  3
Dash dot (.15x) _._._._._._._._._._._._._._._.
 72
   65
 73
    4
 40
3.81
 49
1.905
 74
    0
 49
-0.9525
 74
    0
 49
0
 74
    0
 49
-0.9525
 74
    0
  0
LTYPE
  5
3C
330
5
100
AcDbSymbolTableRecord
100
AcDbLinetypeTableRecord
  2
DASHDOT2
 70
    0
  3
Dash dot (.5x) _._._._._._._._._._._._._._._.
 72
   65
 73
    4
 40
12.7
 49
6.35
 74
    0
 49
-3.175
 74
    0
 49
0
 74
    0
 49
-3.175
 74
    0
  0
LTYPE
  5
3D
330
5
100
AcDbSymbolTableRecord
100
AcDbLinetypeTableRecord
  2
DASHDOTX2
 70
    0
  3
Dash dot (2x) ____  .  ____  .  ____  .  ___
 72
   65
 73
    4
 40
50.8
 49
25.4
 74
    0
 49
-12.7
 74
    0
 49
0
 74
    0
 49
-12.7
 74
    0
  0
LTYPE
  5
3E
330
5
100
AcDbSymbolTableRecord
100
AcDbLinetypeTableRecord
  2
DIVIDE
 70
    0
  3
Divide ____ . . ____ . . ____ . . ____ . . ____
 72
   65
 73
    6
 40
31.75
 49
12.7
 74
    0
 49
-6.35
 74
    0
 49
0
 74
    0
 49
-6.35
 74
    0
 49
0
 74
    0
 49
-6.35
 74
    0
  0
LTYPE
  5
3F
330
5
100
AcDbSymbolTableRecord
100
AcDbLinetypeTableRecord
  2
DIVIDETINY
 70
    0
  3
Divide (.15x) __..__..__..__..__..__..__..__.._
 72
   65
 73
    6
 40
4.7625
 49
1.905
 74
    0
 49
-0.9525
 74
    0
 49
0
 74
    0
 49
-0.9525
 74
    0
 49
0
 74
    0
 49
-0.9525
 74
    0
  0
LTYPE
  5
40
330
5
100
AcDbSymbolTableRecord
100
AcDbLinetypeTableRecord
  2
DIVIDE2
 70
    0
  3
Divide (.5x) __..__..__..__..__..__..__..__.._
 72
   65
 73
    6
 40
15.875
 49
6.35
 74
    0
 49
-3.175
 74
    0
 49
0
 74
    0
 49
-3.175
 74
    0
 49
0
 74
    0
 49
-3.175
 74
    0
  0
LTYPE
  5
41
330
5
100
AcDbSymbolTableRecord
100
AcDbLinetypeTableRecord
  2
DIVIDEX2
 70
    0
  3
Divide (2x) ________  .  .  ________  .  .  _
 72
   65
 73
    6
 40
63.5
 49
25.4
 74
    0
 49
-12.7
 74
    0
 49
0
 74
    0
 49
-12.7
 74
    0
 49
0
 74
    0
 49
-12.7
 74
    0
  0
LTYPE
  5
42
330
5
100
AcDbSymbolTableRecord
100
AcDbLinetypeTableRecord
  2
BORDER
 70
    0
  3
Border __ __ . __ __ . __ __ . __ __ . __ __ .
 72
   65
 73
    6
 40
44.45
 49
12.7
 74
    0
 49
-6.35
 74
    0
 49
12.7
 74
    0
 49
-6.35
 74
    0
 49
0
 74
    0
 49
-6.35
 74
    0
  0
LTYPE
  5
43
330
5
100
AcDbSymbolTableRecord
100
AcDbLinetypeTableRecord
  2
BORDERTINY
 70
    0
  3
Border (.15x) __.__.__.__.__.__.__.__.__.__.__.
 72
   65
 73
    6
 40
6.6675
 49
1.905
 74
    0
 49
-0.9525
 74
    0
 49
1.905
 74
    0
 49
-0.9525
 74
    0
 49
0
 74
    0
 49
-0.9525
 74
    0
  0
LTYPE
  5
44
330
5
100
AcDbSymbolTableRecord
100
AcDbLinetypeTableRecord
  2
BORDER2
 70
    0
  3
Border (.5x) __.__.__.__.__.__.__.__.__.__.__.
 72
   65
 73
    6
 40
22.225
 49
6.35
 74
    0
 49
-3.175
 74
    0
 49
6.35
 74
    0
 49
-3.175
 74
    0
 49
0
 74
    0
 49
-3.175
 74
    0
  0
LTYPE
  5
45
330
5
100
AcDbSymbolTableRecord
100
AcDbLinetypeTableRecord
  2
BORDERX2
 70
    0
  3
Border (2x) ____  ____  .  ____  ____  .  ___
 72
   65
 73
    6
 40
88.89999999999999
 49
25.4
 74
    0
 49
-12.7
 74
    0
 49
25.4
 74
    0
 49
-12.7
 74
    0
 49
0
 74
    0
 49
-12.7
 74
    0
  0
LTYPE
  5
46
330
5
100
AcDbSymbolTableRecord
100
AcDbLinetypeTableRecord
  2
CENTER
 70
    0
  3
Center ____ _ ____ _ ____ _ ____ _ ____ _ ____
 72
   65
 73
    4
 40
50.8
 49
31.75
 74
    0
 49
-6.35
 74
    0
 49
6.35
 74
    0
 49
-6.35
 74
    0
  0
LTYPE
  5
47
330
5
100
AcDbSymbolTableRecord
100
AcDbLinetypeTableRecord
  2
CENTERTINY
 70
    0
  3
Center (.15x) ___ _ ___ _ ___ _ ___ _ ___ _ ___
 72
   65
 73
    4
 40
7.619999999999999
 49
4.7625
 74
    0
 49
-0.9525
 74
    0
 49
0.9525
 74
    0
 49
-0.9525
 74
    0
  0
LTYPE
  5
48
330
5
100
AcDbSymbolTableRecord
100
AcDbLinetypeTableRecord
  2
CENTER2
 70
    0
  3
Center (.5x) ___ _ ___ _ ___ _ ___ _ ___ _ ___
 72
   65
 73
    4
 40
28.575
 49
19.05
 74
    0
 49
-3.175
 74
    0
 49
3.175
 74
    0
 49
-3.175
 74
    0
  0
LTYPE
  5
49
330
5
100
AcDbSymbolTableRecord
100
AcDbLinetypeTableRecord
  2
CENTERX2
 70
    0
  3
Center (2x) ________  __  ________  __  _____
 72
   65
 73
    4
 40
101.6
 49
63.5
 74
    0
 49
-12.7
 74
    0
 49
12.7
 74
    0
 49
-12.7
 74
    0
  0
ENDTAB
  0
TABLE
  2
LAYER
  5
2
330
0
100
AcDbSymbolTable
 70
    1
  0
LAYER
  5
10
330
2
100
AcDbSymbolTableRecord
100
AcDbLayerTableRecord
  2
0
 70
    0
 62
    7
  6
CONTINUOUS
370
    0
390
F
  0
LAYER
  5
4A
330
2
100
AcDbSymbolTableRecord
100
AcDbLayerTableRecord
  2
border
 70
    0
 62
   16
420
8388608
  6
CONTINUOUS
370
    0
390
F
  0
LAYER
  5
4B
330
2
100
AcDbSymbolTableRecord
100
AcDbLayerTableRecord
  2
case0
 70
    0
 62
    7
  6
CONTINUOUS
370
    0
390
F
  0
LAYER
  5
4C
330
2
100
AcDbSymbolTableRecord
100
AcDbLayerTableRecord
  2
case1
 70
    0
 62
    7
  6
CONTINUOUS
370
    0
390
F
  0
LAYER
  5
4D
330
2
100
AcDbSymbolTableRecord
100
AcDbLayerTableRecord
  2
case2
 70
    0
 62
    7
  6
CONTINUOUS
370
    0
390
F
  0
LAYER
  5
4E
330
2
100
AcDbSymbolTableRecord
100
AcDbLayerTableRecord
  2
case4
 70
    0
 62
    7
  6
CONTINUOUS
370
    0
390
F
  0
LAYER
  5
4F
330
2
100
AcDbSymbolTableRecord
100
AcDbLayerTableRecord
  2
case5
 70
    0
 62
    7
  6
CONTINUOUS
370
    0
390
F
  0
LAYER
  5
50
330
2
100
AcDbSymbolTableRecord
100
AcDbLayerTableRecord
  2
case6
 70
    0
 62
    7
  6
CONTINUOUS
370
    0
390
F
  0
LAYER
  5
51
330
2
100
AcDbSymbolTableRecord
100
AcDbLayerTableRecord
  2
case7
 70
    0
 62
    7
  6
CONTINUOUS
370
    0
390
F
  0
LAYER
  5
52
330
2
100
AcDbSymbolTableRecord
100
AcDbLayerTableRecord
  2
construction1
 70
    0
 62
    2
  6
CONTINUOUS
370
    0
390
F
  0
LAYER
  5
53
330
2
100
AcDbSymbolTableRecord
100
AcDbLayerTableRecord
  2
dimensions
 70
    0
 62
   56
420
8421376
  6
CONTINUOUS
370
    0
390
F
  0
LAYER
  5
54
330
2
100
AcDbSymbolTableRecord
100
AcDbLayerTableRecord
  2
handle1
 70
    0
 62
    7
  6
CONTINUOUS
370
    0
390
F
  0
LAYER
  5
55
330
2
100
AcDbSymbolTableRecord
100
AcDbLayerTableRecord
  2
handle3
 70
    0
 62
    7
  6
CONTINUOUS
370
    0
390
F
  0
LAYER
  5
56
330
2
100
AcDbSymbolTableRecord
100
AcDbLayerTableRecord
  2
handle4
 70
    0
 62
    7
  6
CONTINUOUS
370
    0
390
F
  0
LAYER
  5
57
330
2
100
AcDbSymbolTableRecord
100
AcDbLayerTableRecord
  2
handle5
 70
    0
 62
    4
  6
CONTINUOUS
370
    0
390
F
  0
LAYER
  5
58
330
2
100
AcDbSymbolTableRecord
100
AcDbLayerTableRecord
  2
handle9
 70
    0
 62
    7
  6
CONTINUOUS
370
    0
390
F
  0
LAYER
  5
59
330
2
100
AcDbSymbolTableRecord
100
AcDbLayerTableRecord
  2
pot
 70
    0
 62
    7
  6
CONTINUOUS
370
    0
390
F
  0
LAYER
  5
5A
330
2
100
AcDbSymbolTableRecord
100
AcDbLayerTableRecord
  2
trigger
 70
    0
 62
    7
  6
CONTINUOUS
370
    0
390
F
  0
ENDTAB
  0
TABLE
  2
STYLE
  5
3
330
0
100
AcDbSymbolTable
 70
    3
  0
STYLE
  5
5B
330
2
100
AcDbSymbolTableRecord
100
AcDbTextStyleTableRecord
  2
Standard
 70
    0
 40
0
 41
1
 50
0
 71
    0
 42
1
  3
txt
  4

  0
ENDTAB
  0
TABLE
  2
VIEW
  5
6
330
0
100
AcDbSymbolTable
 70
    0
  0
ENDTAB
  0
TABLE
  2
UCS
  5
7
330
0
100
AcDbSymbolTable
 70
    0
  0
ENDTAB
  0
TABLE
  2
APPID
  5
9
330
0
100
AcDbSymbolTable
 70
    1
  0
APPID
  5
12
330
9
100
AcDbSymbolTableRecord
100
AcDbRegAppTableRecord
  2
ACAD
 70
    0
  0
APPID
  5
5C
330
9
100
AcDbSymbolTableRecord
100
AcDbRegAppTableRecord
  2
LibreCad
 70
    0
  0
ENDTAB
  0
TABLE
  2
DIMSTYLE
  5
A
330
0
100
AcDbSymbolTable
 70
    1
100
AcDbDimStyleTable
 71
    1
  0
DIMSTYLE
105
5D
330
A
100
AcDbSymbolTableRecord
100
AcDbDimStyleTableRecord
  2
Standard
 70
    0
 40
1
 41
2.5
 42
0.625
 43
0.38
 44
1.25
 45
0
 46
0
 47
0
 48
0
 49
1
140
2.5
141
0.09
142
0
143
25.4
144
1
145
0
146
1
147
0.625
148
0
 71
    0
 72
    0
 73
    0
 74
    1
 75
    0
 76
    0
 77
    0
 78
    1
 79
    0
170
    0
171
    2
172
    0
173
    0
174
    0
175
    0
176
    0
177
    0
178
    0
179
    0
271
    2
272
    4
273
    2
274
    2
275
    0
276
    0
277
    2
278
    0
279
    0
280
    0
281
    0
282
    0
283
    1
284
    0
285
    0
286
    0
288
    0
289
    3
340
standard
341

371
   -2
372
   -2
  0
ENDTAB
  0
TABLE
  2
BLOCK_RECORD
  5
1
330
0
100
AcDbSymbolTable
 70
    2
  0
BLOCK_RECORD
  5
1F
330
1
100
AcDbSymbolTableRecord
100
AcDbBlockTableRecord
  2
*Model_Space
 70
    0
280
    1
281
    0
  0
BLOCK_RECORD
  5
1E
330
1
100
AcDbSymbolTableRecord
100
AcDbBlockTableRecord
  2
*Paper_Space
 70
    0
280
    1
281
    0
  0
BLOCK_RECORD
  5
5E
330
1
100
AcDbSymbolTableRecord
100
AcDbBlockTableRecord
  2
*D1
 70
    0
280
    1
281
    0
  0
BLOCK_RECORD
  5
61
330
1
100
AcDbSymbolTableRecord
100
AcDbBlockTableRecord
  2
*D2
 70
    0
280
    1
281
    0
  0
BLOCK_RECORD
  5
64
330
1
100
AcDbSymbolTableRecord
100
AcDbBlockTableRecord
  2
*D4
 70
    0
280
    1
281
    0
  0
BLOCK_RECORD
  5
67
330
1
100
AcDbSymbolTableRecord
100
AcDbBlockTableRecord
  2
*D3
 70
    0
280
    1
281
    0
  0
ENDTAB
  0
ENDSEC
  0
SECTION
  2
BLOCKS
  0
BLOCK
  5
20
330
1F
100
AcDbEntity
  8
0
100
AcDbBlockBegin
  2
*Model_Space
 70
    0
 10
0
 20
0
 30
0
  3
*Model_Space
  1

  0
ENDBLK
  5
21
330
1F
100
AcDbEntity
  8
0
100
AcDbBlockEnd
  0
BLOCK
  5
1C
330
1B
100
AcDbEntity
  8
0
100
AcDbBlockBegin
  2
*Paper_Space
 70
    0
 10
0
 20
0
 30
0
  3
*Paper_Space
  1

  0
ENDBLK
  5
1D
330
1F
100
AcDbEntity
  8
0
100
AcDbBlockEnd
  0
BLOCK
  5
5F
330
5E
100
AcDbEntity
  8
0
100
AcDbBlockBegin
  2
*D1
 70
    1
 10
0
 20
0
  3
*D1
  1

  0
LINE
  5
6A
100
AcDbEntity
  8
border
  6
ByBlock
 62
    0
370
   -2
100
AcDbLine
 10
-0.625
 20
7.654042494670958e-17
 11
-1.250000000000011
 21
1.530808498934205e-16
  0
LINE
  5
6B
100
AcDbEntity
  8
border
  6
ByBlock
 62
    0
370
   -2
100
AcDbLine
 10
-0.625
 20
-200
 11
-1.250000000000011
 21
-200
  0
LINE
  5
6C
100
AcDbEntity
  8
border
  6
ByBlock
 62
    0
370
   -2
100
AcDbLine
 10
-1.13686837721616e-14
 20
1.392262219209617e-30
 11
-1.13686837721616e-14
 21
-200
  0
SOLID
  5
6D
100
AcDbEntity
  8
border
  6
ByBlock
 62
    0
370
   -2
100
AcDbTrace
 10
-1.13686837721616e-14
 20
1.392262219209617e-30
 30
0
 11
0.416284657772829
 21
-2.5
 31
0
 12
-0.416284657772852
 22
-2.5
 32
0
 13
-0.416284657772852
 23
-2.5
 33
0
  0
SOLID
  5
6E
100
AcDbEntity
  8
border
  6
ByBlock
 62
    0
370
   -2
100
AcDbTrace
 10
-1.13686837721616e-14
 20
-200
 30
0
 11
-0.4162846577728514
 21
-197.5
 31
0
 12
0.4162846577728295
 22
-197.5
 32
0
 13
0.4162846577728295
 23
-197.5
 33
0
  0
MTEXT
  5
6F
100
AcDbEntity
  8
border
  6
CONTINUOUS
 62
    0
370
   -2
100
AcDbMText
 10
-1.875000000000011
 20
-100
 30
0
 40
2.5
 41
13.61111111111111
 71
    5
 72
    1
  1
200.0000
  7
standard
210
0
220
0
230
1
 50
90
 73
    2
 44
1
  0
ENDBLK
  5
60
330
5E
100
AcDbEntity
  8
0
100
AcDbBlockEnd
  0
BLOCK
  5
62
330
61
100
AcDbEntity
  8
0
100
AcDbBlockBegin
  2
*D2
 70
    1
 10
0
 20
0
  3
*D2
  1

  0
LINE
  5
70
100
AcDbEntity
  8
border
  6
ByBlock
 62
    0
370
   -2
100
AcDbLine
 10
0.625
 20
0
 11
1.25
 21
0
  0
LINE
  5
71
100
AcDbEntity
  8
border
  6
ByBlock
 62
    0
370
   -2
100
AcDbLine
 10
280.625
 20
0
 11
281.25
 21
0
  0
LINE
  5
72
100
AcDbEntity
  8
border
  6
ByBlock
 62
    0
370
   -2
100
AcDbLine
 10
0
 20
0
 11
280
 21
0
  0
SOLID
  5
73
100
AcDbEntity
  8
border
  6
ByBlock
 62
    0
370
   -2
100
AcDbTrace
 10
0
 20
0
 30
0
 11
2.5
 21
0.4162846577728402
 31
0
 12
2.5
 22
-0.4162846577728408
 32
0
 13
2.5
 23
-0.4162846577728408
 33
0
  0
SOLID
  5
74
100
AcDbEntity
  8
border
  6
ByBlock
 62
    0
370
   -2
100
AcDbTrace
 10
280
 20
0
 30
0
 11
277.5
 21
-0.4162846577728404
 31
0
 12
277.5
 22
0.4162846577728404
 32
0
 13
277.5
 23
0.4162846577728404
 33
0
  0
MTEXT
  5
75
100
AcDbEntity
  8
border
  6
CONTINUOUS
 62
    0
370
   -2
100
AcDbMText
 10
140
 20
1.875
 30
0
 40
2.5
 41
13.61111111111111
 71
    5
 72
    1
  1
280.0000
  7
standard
210
0
220
0
230
1
 50
0
 73
    2
 44
1
  0
ENDBLK
  5
63
330
61
100
AcDbEntity
  8
0
100
AcDbBlockEnd
  0
BLOCK
  5
65
330
64
100
AcDbEntity
  8
0
100
AcDbBlockBegin
  2
*D4
 70
    1
 10
0
 20
0
  3
*D4
  1

  0
LINE
  5
76
100
AcDbEntity
  8
border
  6
ByBlock
 62
    0
370
   -2
100
AcDbLine
 10
277.761205170829
 20
-186.3963945958567
 11
278.386205170829
 21
-186.3963945958567
  0
LINE
  5
77
100
AcDbEntity
  8
border
  6
ByBlock
 62
    0
370
   -2
100
AcDbLine
 10
-2.238794829171013
 20
-186.3963945958567
 11
-1.613794829171013
 21
-186.3963945958567
  0
LINE
  5
78
100
AcDbEntity
  8
border
  6
ByBlock
 62
    0
370
   -2
100
AcDbLine
 10
277.136205170829
 20
-186.3963945958567
 11
-2.863794829171013
 21
-186.3963945958567
  0
SOLID
  5
79
100
AcDbEntity
  8
border
  6
ByBlock
 62
    0
370
   -2
100
AcDbTrace
 10
277.136205170829
 20
-186.3963945958567
 30
0
 11
274.636205170829
 21
-186.8126792536296
 31
0
 12
274.636205170829
 22
-185.9801099380839
 32
0
 13
274.636205170829
 23
-185.9801099380839
 33
0
  0
SOLID
  5
7A
100
AcDbEntity
  8
border
  6
ByBlock
 62
    0
370
   -2
100
AcDbTrace
 10
-2.863794829171013
 20
-186.3963945958567
 30
0
 11
-0.3637948291710131
 21
-185.9801099380839
 31
0
 12
-0.3637948291710131
 22
-186.8126792536296
 32
0
 13
-0.3637948291710131
 23
-186.8126792536296
 33
0
  0
MTEXT
  5
7B
100
AcDbEntity
  8
border
  6
CONTINUOUS
 62
    0
370
   -2
100
AcDbMText
 10
137.136205170829
 20
-184.5213945958567
 30
0
 40
2.5
 41
13.61111111111111
 71
    5
 72
    1
  1
280.0000
  7
standard
210
0
220
0
230
1
 50
360
 73
    2
 44
1
  0
ENDBLK
  5
66
330
64
100
AcDbEntity
  8
0
100
AcDbBlockEnd
  0
BLOCK
  5
68
330
67
100
AcDbEntity
  8
0
100
AcDbBlockBegin
  2
*D3
 70
    1
 10
0
 20
0
  3
*D3
  1

  0
LINE
  5
7C
100
AcDbEntity
  8
border
  6
ByBlock
 62
    0
370
   -2
100
AcDbLine
 10
280.625
 20
0
 11
281.25
 21
0
  0
LINE
  5
7D
100
AcDbEntity
  8
border
  6
ByBlock
 62
    0
370
   -2
100
AcDbLine
 10
280.625
 20
-200
 11
281.25
 21
-200
  0
LINE
  5
7E
100
AcDbEntity
  8
border
  6
ByBlock
 62
    0
370
   -2
100
AcDbLine
 10
280
 20
0
 11
280
 21
-200
  0
SOLID
  5
7F
100
AcDbEntity
  8
border
  6
ByBlock
 62
    0
370
   -2
100
AcDbTrace
 10
280
 20
0
 30
0
 11
280.4162846577728
 21
-2.5
 31
0
 12
279.5837153422272
 22
-2.5
 32
0
 13
279.5837153422272
 23
-2.5
 33
0
  0
SOLID
  5
80
100
AcDbEntity
  8
border
  6
ByBlock
 62
    0
370
   -2
100
AcDbTrace
 10
280
 20
-200
 30
0
 11
279.5837153422272
 21
-197.5
 31
0
 12
280.4162846577728
 22
-197.5
 32
0
 13
280.4162846577728
 23
-197.5
 33
0
  0
MTEXT
  5
81
100
AcDbEntity
  8
border
  6
CONTINUOUS
 62
    0
370
   -2
100
AcDbMText
 10
278.125
 20
-100
 30
0
 40
2.5
 41
13.61111111111111
 71
    5
 72
    1
  1
200.0000
  7
standard
210
0
220
0
230
1
 50
90
 73
    2
 44
1
  0
ENDBLK
  5
69
330
67
100
AcDbEntity
  8
0
100
AcDbBlockEnd
  0
ENDSEC
  0
SECTION
  2
ENTITIES
  0
SPLINE
  5
82
100
AcDbEntity
  8
case0
  6
ByLayer
 62
  256
370
   -1
100
AcDbSpline
210
0
220
0
230
0
 70
    8
 71
    2
 72
    7
 73
    4
 74
    0
 42
1e-07
 43
1e-07
 40
0
 40
0
 40
0
 40
0.5
 40
1
 40
1
 40
1
 10
33.06494055851577
 20
-12.52572287545286
 30
0
 10
33.16063306223247
 20
-12.65742398075317
 30
0
 10
33.37582102189668
 20
-12.94269646558063
 30
0
 10
33.50917323611187
 20
-13.08763452887932
 30
0
  0
ARC
  5
83
100
AcDbEntity
  8
case0
  6
ByLayer
 62
  256
370
   -1
100
AcDbCircle
 10
36.82693442660975
 20
-10.04157532347532
 40
4.504
100
AcDbArc
 50
222.5552533750227
 51
293.0747244996098
  0
ARC
  5
84
100
AcDbEntity
  8
case0
  6
ByLayer
 62
  256
370
   -1
100
AcDbCircle
 10
94.11004018007127
 20
-145.1298577599484
 40
142.2277285392929
100
AcDbArc
 50
60.45939178755049
 51
112.9759524526095
  0
ARC
  5
85
100
AcDbEntity
  8
case0
  6
ByLayer
 62
  256
370
   -1
100
AcDbCircle
 10
15.2158398808369
 20
-24.29623614109513
 40
21.3807244390497
100
AcDbArc
 50
33.40268433807468
 51
97.24948737459154
  0
ARC
  5
86
100
AcDbEntity
  8
case0
  6
ByLayer
 62
  256
370
   -1
100
AcDbCircle
 10
5.30725377360705
 20
-15.87340279658977
 40
14.67987652582496
100
AcDbArc
 50
310.3816733831041
 51
60.5814332993398
  0
ARC
  5
87
100
AcDbEntity
  8
case0
  6
ByLayer
 62
  256
370
   -1
100
AcDbCircle
 10
94.11004018007127
 20
-145.1298577599484
 40
142.2277285392929
100
AcDbArc
 50
123.8831225164422
 51
127.7222562124443
  0
ARC
  5
88
100
AcDbEntity
  8
case0
  6
ByLayer
 62
  256
370
   -1
100
AcDbCircle
 10
77.21423344355522
 20
91.1093188113188
 40
142.2277285392929
100
AcDbArc
 50
240.4593917875506
 51
307.7222562124443
  0
ARC
  5
89
100
AcDbEntity
  8
case0
  6
ByLayer
 62
  256
370
   -1
100
AcDbCircle
 10
77.21423344355522
 20
91.1093188113188
 40
142.2277285392929
100
AcDbArc
 50
307.7222562124443
 51
308.9822939011973
  0
ARC
  5
8A
100
AcDbEntity
  8
case0
  6
ByLayer
 62
  256
370
   -1
100
AcDbCircle
 10
94.11004018007127
 20
-145.1298577599484
 40
142.2277285392929
100
AcDbArc
 50
59.19935409879751
 51
60.45939178755049
  0
ARC
  5
8B
100
AcDbEntity
  8
case0
  6
ByLayer
 62
  256
370
   -1
100
AcDbCircle
 10
15.2158398808369
 20
-24.29623614109513
 40
21.3807244390497
100
AcDbArc
 50
97.24948737459154
 51
110.8447021252587
  0
ARC
  5
8C
100
AcDbEntity
  8
case0
  6
ByLayer
 62
  256
370
   -1
100
AcDbCircle
 10
94.11004018007127
 20
-145.1298577599484
 40
142.2277285392929
100
AcDbArc
 50
127.7222562124443
 51
128.9822939011973
  0
ARC
  5
8D
100
AcDbEntity
  8
case0
  6
ByLayer
 62
  256
370
   -1
100
AcDbCircle
 10
77.21423344355522
 20
91.1093188113188
 40
142.2277285392929
100
AcDbArc
 50
239.1993540987975
 51
240.4593917875506
  0
ARC
  5
8E
100
AcDbEntity
  8
case0
  6
ByLayer
 62
  256
370
   -1
100
AcDbCircle
 10
5.30725377360705
 20
-15.87340279658974
 40
14.67987652582496
100
AcDbArc
 50
60.5814332993398
 51
82.22908689449292
  0
SPLINE
  5
8F
100
AcDbEntity
  8
case0
  6
ByLayer
 62
  256
370
   -1
100
AcDbSpline
210
0
220
0
230
0
 70
    8
 71
    2
 72
    7
 73
    4
 74
    0
 42
1e-07
 43
1e-07
 40
0
 40
0
 40
0
 40
0.5
 40
1
 40
1
 40
1
 10
134.5596572462231
 20
-64.21156231486779
 30
0
 10
134.4788012833991
 20
-64.35285827970998
 30
0
 10
134.2957967616546
 20
-64.65977128628539
 30
0
 10
134.1789374333413
 20
-64.81830756798469
 30
0
  0
ARC
  5
90
100
AcDbEntity
  8
case0
  6
ByLayer
 62
  256
370
   -1
100
AcDbCircle
 10
130.5506044460677
 20
-62.14974695719421
 40
4.504
100
AcDbArc
 50
253.1468495003876
 51
323.6663206249746
  0
ARC
  5
91
100
AcDbEntity
  8
case0
  6
ByLayer
 62
  256
370
   -1
100
AcDbCircle
 10
88.24489783854827
 20
-202.6503713146577
 40
142.2277285392929
100
AcDbArc
 50
73.24562154738791
 51
125.7621822124469
  0
ARC
  5
92
100
AcDbEntity
  8
case0
  6
ByLayer
 62
  256
370
   -1
100
AcDbCircle
 10
153.5792446586213
 20
-73.97837715905936
 40
21.3807244390497
100
AcDbArc
 50
88.97208662540584
 51
152.8188896619227
  0
ARC
  5
93
100
AcDbEntity
  8
case0
  6
ByLayer
 62
  256
370
   -1
100
AcDbCircle
 10
162.5166579791639
 20
-64.53132241530517
 40
14.67987652582496
100
AcDbArc
 50
125.6401407006576
 51
235.8399006168933
  0
ARC
  5
94
100
AcDbEntity
  8
case0
  6
ByLayer
 62
  256
370
   -1
100
AcDbCircle
 10
88.24489783854827
 20
-202.6503713146577
 40
142.2277285392929
100
AcDbArc
 50
58.49931778755312
 51
62.33845148355517
  0
ARC
  5
95
100
AcDbEntity
  8
case0
  6
ByLayer
 62
  256
370
   -1
100
AcDbCircle
 10
79.43908248833797
 20
34.02847110343012
 40
142.2277285392929
100
AcDbArc
 50
238.4993177875531
 51
305.7621822124468
  0
ARC
  5
96
100
AcDbEntity
  8
case0
  6
ByLayer
 62
  256
370
   -1
100
AcDbCircle
 10
79.43908248833797
 20
34.02847110343012
 40
142.2277285392929
100
AcDbArc
 50
237.2392800988001
 51
238.4993177875531
  0
ARC
  5
97
100
AcDbEntity
  8
case0
  6
ByLayer
 62
  256
370
   -1
100
AcDbCircle
 10
88.24489783854827
 20
-202.6503713146577
 40
142.2277285392929
100
AcDbArc
 50
125.7621822124469
 51
127.0222199011999
  0
ARC
  5
98
100
AcDbEntity
  8
case0
  6
ByLayer
 62
  256
370
   -1
100
AcDbCircle
 10
153.5792446586213
 20
-73.97837715905936
 40
21.3807244390497
100
AcDbArc
 50
75.37687187473865
 51
88.97208662540584
  0
ARC
  5
99
100
AcDbEntity
  8
case0
  6
ByLayer
 62
  256
370
   -1
100
AcDbCircle
 10
162.5166579791639
 20
-64.53132241530517
 40
14.67987652582496
100
AcDbArc
 50
103.9924871055045
 51
125.6401407006576
  0
ARC
  5
9A
100
AcDbEntity
  8
case0
  6
ByLayer
 62
  256
370
   -1
100
AcDbCircle
 10
88.24489783854827
 20
-202.6503713146577
 40
142.2277285392929
100
AcDbArc
 50
57.23928009880009
 51
58.49931778755312
  0
ARC
  5
9B
100
AcDbEntity
  8
case0
  6
ByLayer
 62
  256
370
   -1
100
AcDbCircle
 10
79.43908248833797
 20
34.02847110343012
 40
142.2277285392929
100
AcDbArc
 50
305.7621822124468
 51
307.0222199011999
  0
DIMENSION
  5
9C
100
AcDbEntity
  8
border
  6
ByLayer
 62
  256
370
   -1
100
AcDbDimension
  2
*D1
 10
-1.13686837721616e-14
 20
-200
 30
0
 11
-1.875000000000011
 21
-100
 31
0
 70
   33
 71
    5
  3
Standard
 53
0
210
0
220
0
230
1
100
AcDbAlignedDimension
 13
0
 23
0
 33
0
 14
0
 24
-200
 34
0
  0
DIMENSION
  5
9D
100
AcDbEntity
  8
border
  6
ByLayer
 62
  256
370
   -1
100
AcDbDimension
  2
*D2
 10
280
 20
0
 30
0
 11
140
 21
1.875
 31
0
 70
   33
 71
    5
  3
Standard
 53
0
210
0
220
0
230
1
100
AcDbAlignedDimension
 13
0
 23
0
 33
0
 14
280
 24
0
 34
0
  0
DIMENSION
  5
9E
100
AcDbEntity
  8
border
  6
ByLayer
 62
  256
370
   -1
100
AcDbDimension
  2
*D3
 10
280
 20
-200
 30
0
 11
278.125
 21
-100
 31
0
 70
   33
 71
    5
  3
Standard
 53
0
210
0
220
0
230
1
100
AcDbAlignedDimension
 13
280
 23
0
 33
0
 14
280
 24
-200
 34
0
  0
DIMENSION
  5
9F
100
AcDbEntity
  8
border
  6
ByLayer
 62
  256
370
   -1
100
AcDbDimension
  2
*D4
 10
-2.863794829171013
 20
-186.3963945958567
 30
0
 11
137.136205170829
 21
-184.5213945958567
 31
0
 70
   33
 71
    5
  3
Standard
 53
0
210
0
220
0
230
1
100
AcDbAlignedDimension
 13
277.136205170829
 23
-186.3963945958567
 33
0
 14
-2.863794829171013
 24
-186.3963945958567
 34
0
  0
LINE
  5
A0
100
AcDbEntity
  8
handle5
  6
ByLayer
 62
  256
370
   -1
100
AcDbLine
 10
10.60103565749489
 20
-128.1826227166072
 11
10.41007152611718
 21
-125.8369488656144
  0
LINE
  5
A1
100
AcDbEntity
  8
handle5
  6
ByLayer
 62
  256
370
   -1
100
AcDbLine
 10
24.0367987133593
 20
-132.4795897190819
 11
23.84381119015757
 21
-130.109055937877
  0
LINE
  5
A2
100
AcDbEntity
  8
handle5
  6
ByLayer
 62
  256
370
   -1
100
AcDbLine
 10
24.78344695647473
 20
-129.282235569131
 11
22.78078731600948
 21
-128.4731085529615
  0
LINE
  5
A3
100
AcDbEntity
  8
handle5
  6
ByLayer
 62
  256
370
   -1
100
AcDbLine
 10
22.78078731600948
 20
-128.4731085529615
 11
20.94122346824373
 21
-130.0918104384884
  0
LINE
  5
A4
100
AcDbEntity
  8
handle5
  6
ByLayer
 62
  256
370
   -1
100
AcDbLine
 10
12.4464626981117
 20
-127.797478916747
 11
14.48813429464582
 21
-128.6223677862895
  0
LINE
  5
A5
100
AcDbEntity
  8
handle5
  6
ByLayer
 62
  256
370
   -1
100
AcDbLine
 10
35.53516852951719
 20
-136.039129049293
 11
35.43360983583425
 21
-134.7916385428791
  0
LINE
  5
A6
100
AcDbEntity
  8
handle5
  6
ByLayer
 62
  256
370
   -1
100
AcDbLine
 10
36.37324467496768
 20
-133.9648177995267
 11
35.43360983583425
 21
-134.7916385428791
  0
LINE
  5
A7
100
AcDbEntity
  8
handle5
  6
ByLayer
 62
  256
370
   -1
100
AcDbLine
 10
36.37324467496768
 20
-133.9648177995267
 11
34.37058712066602
 21
-133.1556916262219
  0
LINE
  5
A8
100
AcDbEntity
  8
handle5
  6
ByLayer
 62
  256
370
   -1
100
AcDbLine
 10
34.37058712066602
 20
-133.1556916262219
 11
32.53102211392053
 21
-134.7743930434906
  0
LINE
  5
A9
100
AcDbEntity
  8
handle5
  6
ByLayer
 62
  256
370
   -1
100
AcDbLine
 10
33.78063202166453
 20
-137.547787552005
 11
33.58966789028682
 21
-135.2021137010122
  0
LINE
  5
AA
100
AcDbEntity
  8
handle5
  6
ByLayer
 62
  256
370
   -1
100
AcDbLine
 10
33.58966789028682
 20
-135.2021137010122
 11
26.94584157996275
 21
-132.5178336317477
  0
LINE
  5
AB
100
AcDbEntity
  8
handle5
  6
ByLayer
 62
  256
370
   -1
100
AcDbLine
 10
27.13881968254753
 20
-134.88825925854
 11
26.94584157996275
 21
-132.5178336317477
  0
LINE
  5
AC
100
AcDbEntity
  8
handle5
  6
ByLayer
 62
  256
370
   -1
100
AcDbLine
 10
24.03626111199253
 20
-132.4800614280976
 11
26.07793294032251
 21
-133.3049503912916
  0
LINE
  5
AD
100
AcDbEntity
  8
handle5
  6
ByLayer
 62
  256
370
   -1
100
AcDbLine
 10
22.19284920156257
 20
-132.8899574720155
 11
21.99986901281408
 21
-130.5195310023584
  0
LINE
  5
AE
100
AcDbEntity
  8
handle5
  6
ByLayer
 62
  256
370
   -1
100
AcDbLine
 10
45.22679964828745
 20
-128.7145946017784
 11
35.62659550466839
 21
-137.1621715748709
  0
LINE
  5
AF
100
AcDbEntity
  8
handle5
  6
ByLayer
 62
  256
370
   -1
100
AcDbLine
 10
41.46282158326841
 20
-129.486306701646
 11
41.65577783094653
 21
-131.8564881082752
  0
LINE
  5
B0
100
AcDbEntity
  8
handle5
  6
ByLayer
 62
  256
370
   -1
100
AcDbLine
 10
44.23756990497503
 20
-128.3149055515187
 11
42.45210380829081
 21
-129.8860026653076
  0
LINE
  5
B1
100
AcDbEntity
  8
handle5
  6
ByLayer
 62
  256
370
   -1
100
AcDbLine
 10
42.45210380829081
 20
-129.8860026653076
 11
38.64298312127363
 21
-128.3470180103814
  0
LINE
  5
B2
100
AcDbEntity
  8
handle5
  6
ByLayer
 62
  256
370
   -1
100
AcDbLine
 10
47.30927951409564
 20
-131.8484290339421
 11
54.04190245396755
 21
-134.5685852703098
  0
LINE
  5
B3
100
AcDbEntity
  8
handle5
  6
ByLayer
 62
  256
370
   -1
100
AcDbLine
 10
49.09473438875155
 20
-130.2773416767448
 11
47.30927951409564
 21
-131.8484290339421
  0
LINE
  5
B4
100
AcDbEntity
  8
handle5
  6
ByLayer
 62
  256
370
   -1
100
AcDbLine
 10
47.21639507752894
 20
-141.8447545544797
 11
47.02340755432719
 21
-139.4742207732747
  0
LINE
  5
B5
100
AcDbEntity
  8
handle5
  6
ByLayer
 62
  256
370
   -1
100
AcDbLine
 10
53.05262022894516
 20
-134.1688893066482
 11
47.02340755432719
 21
-139.4742207732747
  0
LINE
  5
B6
100
AcDbEntity
  8
handle5
  6
ByLayer
 62
  256
370
   -1
100
AcDbLine
 10
47.96304332064443
 20
-138.6474004045288
 11
47.19461721237275
 21
-130.6559961644567
  0
LINE
  5
B7
100
AcDbEntity
  8
handle5
  6
ByLayer
 62
  256
370
   -1
100
AcDbLine
 10
45.32330058237761
 20
-129.8999351690972
 11
47.19461721237275
 21
-130.6559961644567
  0
LINE
  5
B8
100
AcDbEntity
  8
handle5
  6
ByLayer
 62
  256
370
   -1
100
AcDbLine
 10
47.96304332064443
 20
-138.6474004045288
 11
45.96038368017918
 21
-137.8382733883593
  0
LINE
  5
B9
100
AcDbEntity
  8
handle5
  6
ByLayer
 62
  256
370
   -1
100
AcDbLine
 10
41.46282158326841
 20
-129.486306701646
 11
36.37324467496768
 21
-133.9648177995267
  0
LINE
  5
BA
100
AcDbEntity
  8
handle5
  6
ByLayer
 62
  256
370
   -1
100
AcDbLine
 10
35.62659550466839
 20
-137.1621715748709
 11
35.53516852951719
 21
-136.039129049293
  0
LINE
  5
BB
100
AcDbEntity
  8
handle5
  6
ByLayer
 62
  256
370
   -1
100
AcDbLine
 10
45.96038368017918
 20
-137.8382733883593
 11
44.12081983241336
 21
-139.4569752738862
  0
LINE
  5
BC
100
AcDbEntity
  8
handle5
  6
ByLayer
 62
  256
370
   -1
100
AcDbLine
 10
45.17946537698373
 20
-139.8846958377562
 11
38.53563929845558
 21
-137.2004158621432
  0
LINE
  5
BD
100
AcDbEntity
  8
handle5
  6
ByLayer
 62
  256
370
   -1
100
AcDbLine
 10
45.32330058237761
 20
-129.8999351690972
 11
43.48373832668989
 21
-131.5186331140928
  0
LINE
  5
BE
100
AcDbEntity
  8
handle5
  6
ByLayer
 62
  256
370
   -1
100
AcDbLine
 10
41.65549278484656
 20
-131.8571182096824
 11
43.57308145228757
 21
-132.6318743216929
  0
LINE
  5
BF
100
AcDbEntity
  8
handle5
  6
ByLayer
 62
  256
370
   -1
100
AcDbLine
 10
43.48373832668989
 20
-131.5186331140928
 11
44.12082191857706
 21
-139.456976116751
  0
LINE
  5
C0
100
AcDbEntity
  8
handle5
  6
ByLayer
 62
  256
370
   -1
100
AcDbLine
 10
37.66773065881551
 20
-137.9875326216873
 11
43.57308145228757
 21
-132.6318743216929
  0
LINE
  5
C1
100
AcDbEntity
  8
handle5
  6
ByLayer
 62
  256
370
   -1
100
AcDbLine
 10
35.6260590622814
 20
-137.1626437521448
 11
37.66773065881551
 21
-137.9875326216873
  0
LINE
  5
C2
100
AcDbEntity
  8
handle5
  6
ByLayer
 62
  256
370
   -1
100
AcDbLine
 10
54.64509701968149
 20
-130.2273709375262
 11
56.4303644819816
 21
-128.656443790297
  0
LINE
  5
C3
100
AcDbEntity
  8
handle5
  6
ByLayer
 62
  256
370
   -1
100
AcDbLine
 10
55.82736030930681
 20
-132.9975085545657
 11
55.63437924470389
 21
-130.6270669011877
  0
LINE
  5
C4
100
AcDbEntity
  8
handle5
  6
ByLayer
 62
  256
370
   -1
100
AcDbLine
 10
60.49155495050871
 20
-132.5894932698222
 11
63.41505627617954
 21
-133.7706644766571
  0
LINE
  5
C5
100
AcDbEntity
  8
handle5
  6
ByLayer
 62
  256
370
   -1
100
AcDbLine
 10
60.6845330344283
 20
-134.959924281747
 11
60.49155495050871
 21
-132.5894932698222
  0
LINE
  5
C6
100
AcDbEntity
  8
handle5
  6
ByLayer
 62
  256
370
   -1
100
AcDbLine
 10
57.70942368928745
 20
-132.6115455690478
 11
59.58073939209868
 21
-133.3676061898007
  0
LINE
  5
C7
100
AcDbEntity
  8
handle5
  6
ByLayer
 62
  256
370
   -1
100
AcDbLine
 10
57.70942368928745
 20
-132.6115455690478
 11
57.51059542030652
 21
-130.1692843935922
  0
LINE
  5
C8
100
AcDbEntity
  8
handle5
  6
ByLayer
 62
  256
370
   -1
100
AcDbLine
 10
56.43059714219379
 20
-128.6557925236173
 11
58.34818488245099
 21
-129.4305482610211
  0
LINE
  5
C9
100
AcDbEntity
  8
handle5
  6
ByLayer
 62
  256
370
   -1
100
AcDbLine
 10
56.81659829396432
 20
-133.3971772067806
 11
47.21639391854914
 21
-141.8447540862214
  0
LINE
  5
CA
100
AcDbEntity
  8
handle5
  6
ByLayer
 62
  256
370
   -1
100
AcDbLine
 10
53.05262022894516
 20
-134.1688893066482
 11
53.24557647662328
 21
-136.5390707132773
  0
LINE
  5
CB
100
AcDbEntity
  8
handle5
  6
ByLayer
 62
  256
370
   -1
100
AcDbLine
 10
55.82736855065178
 20
-132.9974881565209
 11
54.04190245396755
 21
-134.5685852703098
  0
LINE
  5
CC
100
AcDbEntity
  8
handle5
  6
ByLayer
 62
  256
370
   -1
100
AcDbLine
 10
58.89907815977239
 20
-136.5310116389443
 11
61.82257948544321
 21
-137.7121828457792
  0
LINE
  5
CD
100
AcDbEntity
  8
handle5
  6
ByLayer
 62
  256
370
   -1
100
AcDbLine
 10
60.6845330344283
 20
-134.959924281747
 11
58.89907815977239
 21
-136.5310116389443
  0
LINE
  5
CE
100
AcDbEntity
  8
handle5
  6
ByLayer
 62
  256
370
   -1
100
AcDbLine
 10
56.91309922805445
 20
-134.5825177740994
 11
57.93623508850595
 21
-147.3312227704868
  0
LINE
  5
CF
100
AcDbEntity
  8
handle5
  6
ByLayer
 62
  256
370
   -1
100
AcDbLine
 10
58.71476489368678
 20
-145.4042938846908
 11
58.61320620000396
 21
-144.1568033782769
  0
LINE
  5
D0
100
AcDbEntity
  8
handle5
  6
ByLayer
 62
  256
370
   -1
100
AcDbLine
 10
59.55284103913738
 20
-143.3299826349244
 11
58.61320620000396
 21
-144.1568033782769
  0
LINE
  5
D1
100
AcDbEntity
  8
handle5
  6
ByLayer
 62
  256
370
   -1
100
AcDbLine
 10
59.55284103913738
 20
-143.3299826349244
 11
58.78441493086569
 21
-135.3385783948523
  0
LINE
  5
D2
100
AcDbEntity
  8
handle5
  6
ByLayer
 62
  256
370
   -1
100
AcDbLine
 10
56.91309922805445
 20
-134.5825177740994
 11
58.78441493086569
 21
-135.3385783948523
  0
LINE
  5
D3
100
AcDbEntity
  8
handle5
  6
ByLayer
 62
  256
370
   -1
100
AcDbLine
 10
59.55284103913738
 20
-143.3299826349244
 11
57.55018348483571
 21
-142.5208564616197
  0
LINE
  5
D4
100
AcDbEntity
  8
handle5
  6
ByLayer
 62
  256
370
   -1
100
AcDbLine
 10
57.55018348483571
 20
-142.5208564616197
 11
55.71061847809011
 21
-144.1395578788884
  0
LINE
  5
D5
100
AcDbEntity
  8
handle5
  6
ByLayer
 62
  256
370
   -1
100
AcDbLine
 10
56.96022838583423
 20
-146.9129523874029
 11
56.76926425445644
 21
-144.56727853641
  0
LINE
  5
D6
100
AcDbEntity
  8
handle5
  6
ByLayer
 62
  256
370
   -1
100
AcDbLine
 10
56.76926425445644
 20
-144.56727853641
 11
50.12543794413244
 21
-141.8829984671455
  0
LINE
  5
D7
100
AcDbEntity
  8
handle5
  6
ByLayer
 62
  256
370
   -1
100
AcDbLine
 10
50.31841604671723
 20
-144.2534240939377
 11
50.12543794413244
 21
-141.8829984671455
  0
LINE
  5
D8
100
AcDbEntity
  8
handle5
  6
ByLayer
 62
  256
370
   -1
100
AcDbLine
 10
56.91309922805445
 20
-134.5825177740994
 11
55.07353697236675
 21
-136.201215719095
  0
LINE
  5
D9
100
AcDbEntity
  8
handle5
  6
ByLayer
 62
  256
370
   -1
100
AcDbLine
 10
53.24529143052331
 20
-136.5397008146846
 11
55.16287917078051
 21
-137.3144565520885
  0
LINE
  5
DA
100
AcDbEntity
  8
handle5
  6
ByLayer
 62
  256
370
   -1
100
AcDbLine
 10
55.07353697236675
 20
-136.201215719095
 11
55.71062056425382
 21
-144.1395587217532
  0
LINE
  5
DB
100
AcDbEntity
  8
handle5
  6
ByLayer
 62
  256
370
   -1
100
AcDbLine
 10
49.25752930449227
 20
-142.6701152266895
 11
55.16287917078051
 21
-137.3144565520885
  0
LINE
  5
DC
100
AcDbEntity
  8
handle5
  6
ByLayer
 62
  256
370
   -1
100
AcDbLine
 10
47.21585747616217
 20
-141.8452262634954
 11
49.25752930449227
 21
-142.6701152266895
  0
LINE
  5
DD
100
AcDbEntity
  8
handle5
  6
ByLayer
 62
  256
370
   -1
100
AcDbLine
 10
45.37244556573222
 20
-142.2551223074133
 11
45.17946537698373
 21
-139.8846958377562
  0
LINE
  5
DE
100
AcDbEntity
  8
handle5
  6
ByLayer
 62
  256
370
   -1
100
AcDbLine
 10
45.32330058237761
 20
-129.8999351690972
 11
46.34643737001301
 21
-142.6486405400912
  0
LINE
  5
DF
100
AcDbEntity
  8
handle5
  6
ByLayer
 62
  256
370
   -1
100
AcDbLine
 10
38.72861740104047
 20
-139.5708414889355
 11
38.53563929845558
 21
-137.2004158621432
  0
LINE
  5
E0
100
AcDbEntity
  8
handle5
  6
ByLayer
 62
  256
370
   -1
100
AcDbLine
 10
66.23489473817443
 20
-134.9099531679217
 11
68.02016220047454
 21
-133.3390260206926
  0
LINE
  5
E1
100
AcDbEntity
  8
handle5
  6
ByLayer
 62
  256
370
   -1
100
AcDbLine
 10
67.41715802779964
 20
-137.6800907849613
 11
67.22417696319684
 21
-135.3096491315833
  0
LINE
  5
E2
100
AcDbEntity
  8
handle5
  6
ByLayer
 62
  256
370
   -1
100
AcDbLine
 10
67.22417696319684
 20
-135.3096491315833
 11
63.41505627617954
 21
-133.7706644766571
  0
LINE
  5
E3
100
AcDbEntity
  8
handle5
  6
ByLayer
 62
  256
370
   -1
100
AcDbLine
 10
72.2743307529212
 20
-139.6425065121426
 11
72.08135266900166
 21
-137.2720755002178
  0
LINE
  5
E4
100
AcDbEntity
  8
handle5
  6
ByLayer
 62
  256
370
   -1
100
AcDbLine
 10
69.29922140778041
 20
-137.2941277994434
 11
71.1705380377754
 21
-138.0501887948029
  0
LINE
  5
E5
100
AcDbEntity
  8
handle5
  6
ByLayer
 62
  256
370
   -1
100
AcDbLine
 10
69.29922140778041
 20
-137.2941277994434
 11
69.10039313879935
 21
-134.8518666239877
  0
LINE
  5
E6
100
AcDbEntity
  8
handle5
  6
ByLayer
 62
  256
370
   -1
100
AcDbLine
 10
68.02039486068674
 20
-133.3383747540128
 11
69.93798352812775
 21
-134.1131308660233
  0
LINE
  5
E7
100
AcDbEntity
  8
handle5
  6
ByLayer
 62
  256
370
   -1
100
AcDbLine
 10
68.40639601245715
 20
-138.0797594371762
 11
58.80619186883797
 21
-146.5273364102687
  0
LINE
  5
E8
100
AcDbEntity
  8
handle5
  6
ByLayer
 62
  256
370
   -1
100
AcDbLine
 10
64.6424179474381
 20
-138.8514715370438
 11
64.83537419511623
 21
-141.221652943673
  0
LINE
  5
E9
100
AcDbEntity
  8
handle5
  6
ByLayer
 62
  256
370
   -1
100
AcDbLine
 10
67.41716626914473
 20
-137.6800703869164
 11
65.63170017246051
 21
-139.2511675007054
  0
LINE
  5
EA
100
AcDbEntity
  8
handle5
  6
ByLayer
 62
  256
370
   -1
100
AcDbLine
 10
65.63170017246051
 20
-139.2511675007054
 11
61.82257948544321
 21
-137.7121828457792
  0
LINE
  5
EB
100
AcDbEntity
  8
handle5
  6
ByLayer
 62
  256
370
   -1
100
AcDbLine
 10
72.2743307529212
 20
-139.6425065121426
 11
70.48887587826533
 21
-141.2135938693399
  0
LINE
  5
EC
100
AcDbEntity
  8
handle5
  6
ByLayer
 62
  256
370
   -1
100
AcDbLine
 10
70.39599144169864
 20
-151.2099193898775
 11
70.2030039184969
 21
-148.8393856086725
  0
LINE
  5
ED
100
AcDbEntity
  8
handle5
  6
ByLayer
 62
  256
370
   -1
100
AcDbLine
 10
76.23221659311483
 20
-143.5340541420459
 11
70.2030039184969
 21
-148.8393856086725
  0
LINE
  5
EE
100
AcDbEntity
  8
handle5
  6
ByLayer
 62
  256
370
   -1
100
AcDbLine
 10
71.14263968481413
 20
-148.0125652399267
 11
70.37421357654245
 21
-140.0211609998544
  0
LINE
  5
EF
100
AcDbEntity
  8
handle5
  6
ByLayer
 62
  256
370
   -1
100
AcDbLine
 10
68.50289694654731
 20
-139.265100004495
 11
70.37421357654245
 21
-140.0211609998544
  0
LINE
  5
F0
100
AcDbEntity
  8
handle5
  6
ByLayer
 62
  256
370
   -1
100
AcDbLine
 10
71.14263968481413
 20
-148.0125652399267
 11
69.13998004434887
 21
-147.203438223757
  0
LINE
  5
F1
100
AcDbEntity
  8
handle5
  6
ByLayer
 62
  256
370
   -1
100
AcDbLine
 10
64.6424179474381
 20
-138.8514715370438
 11
59.55284103913738
 21
-143.3299826349244
  0
LINE
  5
F2
100
AcDbEntity
  8
handle5
  6
ByLayer
 62
  256
370
   -1
100
AcDbLine
 10
58.80619186883797
 20
-146.5273364102687
 11
58.71476489368678
 21
-145.4042938846908
  0
LINE
  5
F3
100
AcDbEntity
  8
handle5
  6
ByLayer
 62
  256
370
   -1
100
AcDbLine
 10
69.13998004434887
 20
-147.203438223757
 11
67.30041619658306
 21
-148.822140109284
  0
LINE
  5
F4
100
AcDbEntity
  8
handle5
  6
ByLayer
 62
  256
370
   -1
100
AcDbLine
 10
68.35906174115343
 20
-149.2498606731539
 11
61.71523566262528
 21
-146.5655806975411
  0
LINE
  5
F5
100
AcDbEntity
  8
handle5
  6
ByLayer
 62
  256
370
   -1
100
AcDbLine
 10
68.50289694654731
 20
-139.265100004495
 11
66.66333469085959
 21
-140.8837979494905
  0
LINE
  5
F6
100
AcDbEntity
  8
handle5
  6
ByLayer
 62
  256
370
   -1
100
AcDbLine
 10
64.83508914901626
 20
-141.2222830450802
 11
66.75267781645735
 21
-141.9970391570907
  0
LINE
  5
F7
100
AcDbEntity
  8
handle5
  6
ByLayer
 62
  256
370
   -1
100
AcDbLine
 10
66.66333469085959
 20
-140.8837979494905
 11
67.30041828274676
 21
-148.8221409521489
  0
LINE
  5
F8
100
AcDbEntity
  8
handle5
  6
ByLayer
 62
  256
370
   -1
100
AcDbLine
 10
60.8473270229851
 20
-147.3526974570851
 11
66.75267781645735
 21
-141.9970391570907
  0
LINE
  5
F9
100
AcDbEntity
  8
handle5
  6
ByLayer
 62
  256
370
   -1
100
AcDbLine
 10
58.80565542645108
 20
-146.5278085875426
 11
60.8473270229851
 21
-147.3526974570851
  0
LINE
  5
FA
100
AcDbEntity
  8
handle5
  6
ByLayer
 62
  256
370
   -1
100
AcDbLine
 10
76.23221659311483
 20
-143.5340541420459
 11
76.42517284079298
 21
-145.9042355486751
  0
LINE
  5
FB
100
AcDbEntity
  8
handle5
  6
ByLayer
 62
  256
370
   -1
100
AcDbLine
 10
73.4980124108869
 20
-153.6185889293355
 11
73.305034308302
 21
-151.2481633025432
  0
LINE
  5
FC
100
AcDbEntity
  8
handle5
  6
ByLayer
 62
  256
370
   -1
100
AcDbLine
 10
70.39545384033187
 20
-151.2103910988931
 11
72.43712566866196
 21
-152.0352800620873
  0
LINE
  5
FD
100
AcDbEntity
  8
handle5
  6
ByLayer
 62
  256
370
   -1
100
AcDbLine
 10
68.55204192990192
 20
-151.6202871428111
 11
68.35906174115343
 21
-149.2498606731539
  0
LINE
  5
FE
100
AcDbEntity
  8
handle5
  6
ByLayer
 62
  256
370
   -1
100
AcDbLine
 10
68.50289694654731
 20
-139.265100004495
 11
69.5260337341827
 21
-152.013805375489
  0
LINE
  5
FF
100
AcDbEntity
  8
handle5
  6
ByLayer
 62
  256
370
   -1
100
AcDbLine
 10
61.90821376521006
 20
-148.9360063243333
 11
61.71523566262528
 21
-146.5655806975411
  0
LINE
  5
100
100
AcDbEntity
  8
handle5
  6
ByLayer
 62
  256
370
   -1
100
AcDbLine
 10
4.767196450255085
 20
-137.0387622811559
 11
7.690697775925969
 21
-138.2199334879908
  0
LINE
  5
101
100
AcDbEntity
  8
handle5
  6
ByLayer
 62
  256
370
   -1
100
AcDbLine
 10
4.960174534174655
 20
-139.4091932930807
 11
4.767196450255085
 21
-137.0387622811559
  0
LINE
  5
102
100
AcDbEntity
  8
handle5
  6
ByLayer
 62
  256
370
   -1
100
AcDbLine
 10
1.985065189033833
 20
-137.0608145803815
 11
11.57704236016656
 21
-128.6008930996912
  0
LINE
  5
103
100
AcDbEntity
  8
handle5
  6
ByLayer
 62
  256
370
   -1
100
AcDbLine
 10
10.79851227403071
 20
-130.5278226808751
 11
9.858875842819312
 21
-131.354647364759
  0
LINE
  5
104
100
AcDbEntity
  8
handle5
  6
ByLayer
 62
  256
370
   -1
100
AcDbLine
 10
9.960434536502191
 20
-132.6021378711729
 11
9.858875842819312
 21
-131.354647364759
  0
LINE
  5
105
100
AcDbEntity
  8
handle5
  6
ByLayer
 62
  256
370
   -1
100
AcDbLine
 10
9.960434536502191
 20
-132.6021378711729
 11
3.856380891845049
 21
-137.8168752011343
  0
LINE
  5
106
100
AcDbEntity
  8
handle5
  6
ByLayer
 62
  256
370
   -1
100
AcDbLine
 10
1.985065189033833
 20
-137.0608145803815
 11
3.856380891845049
 21
-137.8168752011343
  0
LINE
  5
107
100
AcDbEntity
  8
handle5
  6
ByLayer
 62
  256
370
   -1
100
AcDbLine
 10
9.960434536502191
 20
-132.6021378711729
 11
7.957776982200585
 21
-131.7930116978682
  0
LINE
  5
108
100
AcDbEntity
  8
handle5
  6
ByLayer
 62
  256
370
   -1
100
AcDbLine
 10
7.957776982200585
 20
-131.7930116978682
 11
7.758949239969468
 21
-129.350745881827
  0
LINE
  5
109
100
AcDbEntity
  8
handle5
  6
ByLayer
 62
  256
370
   -1
100
AcDbLine
 10
8.817595016335758
 20
-129.7784665393485
 11
2.173768706011629
 21
-127.094186470084
  0
LINE
  5
10A
100
AcDbEntity
  8
handle5
  6
ByLayer
 62
  256
370
   -1
100
AcDbLine
 10
3.959223318377894
 20
-125.5230944231422
 11
2.173768706011629
 21
-127.094186470084
  0
LINE
  5
10B
100
AcDbEntity
  8
handle5
  6
ByLayer
 62
  256
370
   -1
100
AcDbLine
 10
1.985065189033833
 20
-137.0608145803815
 11
1.786236920052829
 21
-134.6185534049258
  0
LINE
  5
10C
100
AcDbEntity
  8
handle5
  6
ByLayer
 62
  256
370
   -1
100
AcDbLine
 10
0.7062386419401605
 20
-133.105061534951
 11
2.623826382197365
 21
-133.8798172723548
  0
LINE
  5
10D
100
AcDbEntity
  8
handle5
  6
ByLayer
 62
  256
370
   -1
100
AcDbLine
 10
1.786236920052829
 20
-134.6185534049258
 11
7.758951326133115
 21
-129.3507467246918
  0
LINE
  5
10E
100
AcDbEntity
  8
handle5
  6
ByLayer
 62
  256
370
   -1
100
AcDbLine
 10
3.174719659518757
 20
-140.980280650278
 11
6.098220985189641
 21
-142.1614518571129
  0
LINE
  5
10F
100
AcDbEntity
  8
handle5
  6
ByLayer
 62
  256
370
   -1
100
AcDbLine
 10
4.960174534174655
 20
-139.4091932930807
 11
3.174719659518757
 21
-140.980280650278
  0
LINE
  5
110
100
AcDbEntity
  8
handle5
  6
ByLayer
 62
  256
370
   -1
100
AcDbLine
 10
1.188740727800848
 20
-139.0317867854331
 11
2.211876588252267
 21
-151.7804917818205
  0
LINE
  5
111
100
AcDbEntity
  8
handle5
  6
ByLayer
 62
  256
370
   -1
100
AcDbLine
 10
2.990406393433204
 20
-149.8535628960245
 11
2.888847699750386
 21
-148.6060723896106
  0
LINE
  5
112
100
AcDbEntity
  8
handle5
  6
ByLayer
 62
  256
370
   -1
100
AcDbLine
 10
3.828482538883691
 20
-147.7792516462582
 11
2.888847699750386
 21
-148.6060723896106
  0
LINE
  5
113
100
AcDbEntity
  8
handle5
  6
ByLayer
 62
  256
370
   -1
100
AcDbLine
 10
3.828482538883691
 20
-147.7792516462582
 11
3.060056430612065
 21
-139.787847406186
  0
LINE
  5
114
100
AcDbEntity
  8
handle5
  6
ByLayer
 62
  256
370
   -1
100
AcDbLine
 10
1.188740727800848
 20
-139.0317867854331
 11
3.060056430612065
 21
-139.787847406186
  0
LINE
  5
115
100
AcDbEntity
  8
handle5
  6
ByLayer
 62
  256
370
   -1
100
AcDbLine
 10
3.828482538883691
 20
-147.7792516462582
 11
1.825824984582084
 21
-146.9701254729534
  0
LINE
  5
116
100
AcDbEntity
  8
handle5
  6
ByLayer
 62
  256
370
   -1
100
AcDbLine
 10
1.235869885580655
 20
-151.3622213987366
 11
1.044905754202887
 21
-149.0165475477438
  0
LINE
  5
117
100
AcDbEntity
  8
handle5
  6
ByLayer
 62
  256
370
   -1
100
AcDbLine
 10
10.6030535692334
 20
-128.2073760844848
 11
8.817595016335758
 21
-129.7784665393485
  0
LINE
  5
118
100
AcDbEntity
  8
handle5
  6
ByLayer
 62
  256
370
   -1
100
AcDbLine
 10
12.68203751220358
 20
-142.52902844851
 11
11.64440863477762
 21
-129.7834879488601
  0
LINE
  5
119
100
AcDbEntity
  8
handle5
  6
ByLayer
 62
  256
370
   -1
100
AcDbLine
 10
10.5105362379208
 20
-139.3592221792554
 11
12.29580370022091
 21
-137.7882950320263
  0
LINE
  5
11A
100
AcDbEntity
  8
handle5
  6
ByLayer
 62
  256
370
   -1
100
AcDbLine
 10
11.69279952754608
 20
-142.129359796295
 11
11.49981846294309
 21
-139.758918142917
  0
LINE
  5
11B
100
AcDbEntity
  8
handle5
  6
ByLayer
 62
  256
370
   -1
100
AcDbLine
 10
11.49981846294309
 20
-139.758918142917
 11
7.690697775925969
 21
-138.2199334879908
  0
LINE
  5
11C
100
AcDbEntity
  8
handle5
  6
ByLayer
 62
  256
370
   -1
100
AcDbLine
 10
30.07405490186267
 20
-149.5558595941133
 11
6.894458537692913
 21
-140.1906947587155
  0
LINE
  5
11D
100
AcDbEntity
  8
handle5
  6
ByLayer
 62
  256
370
   -1
100
AcDbLine
 10
16.35699416874797
 20
-141.7213445115515
 11
23.08961710861995
 21
-144.4415007479192
  0
LINE
  5
11E
100
AcDbEntity
  8
handle5
  6
ByLayer
 62
  256
370
   -1
100
AcDbLine
 10
16.54997225266754
 20
-144.0917755234763
 11
16.35699416874797
 21
-141.7213445115515
  0
LINE
  5
11F
100
AcDbEntity
  8
handle5
  6
ByLayer
 62
  256
370
   -1
100
AcDbLine
 10
13.57486290752672
 20
-141.7433968107771
 11
23.16684100584337
 21
-133.2834757046934
  0
LINE
  5
120
100
AcDbEntity
  8
handle5
  6
ByLayer
 62
  256
370
   -1
100
AcDbLine
 10
23.23420704865844
 20
-134.4660704602106
 11
21.44867356131226
 21
-136.0372295951547
  0
LINE
  5
121
100
AcDbEntity
  8
handle5
  6
ByLayer
 62
  256
370
   -1
100
AcDbLine
 10
22.10033488359755
 20
-144.0418047842576
 11
21.44867356131226
 21
-136.0372295951547
  0
LINE
  5
122
100
AcDbEntity
  8
handle5
  6
ByLayer
 62
  256
370
   -1
100
AcDbLine
 10
21.55023318217895
 20
-137.2847204761751
 11
15.4461795375218
 21
-142.4994578061365
  0
LINE
  5
123
100
AcDbEntity
  8
handle5
  6
ByLayer
 62
  256
370
   -1
100
AcDbLine
 10
13.57486290752672
 20
-141.7433968107771
 11
15.4461795375218
 21
-142.4994578061365
  0
LINE
  5
124
100
AcDbEntity
  8
handle5
  6
ByLayer
 62
  256
370
   -1
100
AcDbLine
 10
21.55023318217895
 20
-137.2847204761751
 11
19.54757354171363
 21
-136.4755934600055
  0
LINE
  5
125
100
AcDbEntity
  8
handle5
  6
ByLayer
 62
  256
370
   -1
100
AcDbLine
 10
10.5105362379208
 20
-139.3592221792554
 11
9.960434536502191
 21
-132.6021378711729
  0
LINE
  5
126
100
AcDbEntity
  8
handle5
  6
ByLayer
 62
  256
370
   -1
100
AcDbLine
 10
11.64440863477762
 20
-129.7834879488601
 11
10.79851227403071
 21
-130.5278226808751
  0
LINE
  5
127
100
AcDbEntity
  8
handle5
  6
ByLayer
 62
  256
370
   -1
100
AcDbLine
 10
19.54757354171363
 20
-136.4755934600055
 11
19.34874695846235
 21
-134.0333281122225
  0
LINE
  5
128
100
AcDbEntity
  8
handle5
  6
ByLayer
 62
  256
370
   -1
100
AcDbLine
 10
22.1742027162731
 20
-132.9063672742263
 11
20.40739250303272
 21
-134.4610486760925
  0
LINE
  5
129
100
AcDbEntity
  8
handle5
  6
ByLayer
 62
  256
370
   -1
100
AcDbLine
 10
20.40739250303272
 20
-134.4610486760925
 11
13.76356596091267
 21
-131.7767685131763
  0
LINE
  5
12A
100
AcDbEntity
  8
handle5
  6
ByLayer
 62
  256
370
   -1
100
AcDbLine
 10
13.57486290752672
 20
-141.7433968107771
 11
13.37603463854578
 21
-139.3011356353214
  0
LINE
  5
12B
100
AcDbEntity
  8
handle5
  6
ByLayer
 62
  256
370
   -1
100
AcDbLine
 10
12.29603636043311
 20
-137.7876437653466
 11
14.21362502787406
 21
-138.5623998773571
  0
LINE
  5
12C
100
AcDbEntity
  8
handle5
  6
ByLayer
 62
  256
370
   -1
100
AcDbLine
 10
13.37603463854578
 20
-139.3011356353214
 11
19.348749044626
 21
-134.0333289550874
  0
LINE
  5
12D
100
AcDbEntity
  8
handle5
  6
ByLayer
 62
  256
370
   -1
100
AcDbLine
 10
13.68602394092585
 20
-130.6076605777708
 11
14.21362502787406
 21
-138.5623998773571
  0
LINE
  5
12E
100
AcDbEntity
  8
handle5
  6
ByLayer
 62
  256
370
   -1
100
AcDbLine
 10
11.64435234439173
 20
-129.7827717082283
 11
13.68602394092585
 21
-130.6076605777708
  0
LINE
  5
12F
100
AcDbEntity
  8
handle5
  6
ByLayer
 62
  256
370
   -1
100
AcDbLine
 10
12.68203751220358
 20
-142.52902844851
 11
3.081833368584398
 21
-150.9766054216025
  0
LINE
  5
130
100
AcDbEntity
  8
handle5
  6
ByLayer
 62
  256
370
   -1
100
AcDbLine
 10
8.918059447184532
 20
-143.3007405483775
 11
9.111015694862548
 21
-145.6709219550067
  0
LINE
  5
131
100
AcDbEntity
  8
handle5
  6
ByLayer
 62
  256
370
   -1
100
AcDbLine
 10
11.6928077688911
 20
-142.1293393982502
 11
9.907341672206769
 21
-143.7004365120391
  0
LINE
  5
132
100
AcDbEntity
  8
handle5
  6
ByLayer
 62
  256
370
   -1
100
AcDbLine
 10
9.907341672206769
 20
-143.7004365120391
 11
6.098220985189641
 21
-142.1614518571129
  0
LINE
  5
133
100
AcDbEntity
  8
handle5
  6
ByLayer
 62
  256
370
   -1
100
AcDbLine
 10
14.7645173780117
 20
-145.6628628806736
 11
21.49714031788363
 21
-148.3830191170413
  0
LINE
  5
134
100
AcDbEntity
  8
handle5
  6
ByLayer
 62
  256
370
   -1
100
AcDbLine
 10
16.54997225266754
 20
-144.0917755234763
 11
14.7645173780117
 21
-145.6628628806736
  0
LINE
  5
135
100
AcDbEntity
  8
handle5
  6
ByLayer
 62
  256
370
   -1
100
AcDbLine
 10
14.67163294144501
 20
-155.6591884012112
 11
14.47864541824327
 21
-153.2886546200062
  0
LINE
  5
136
100
AcDbEntity
  8
handle5
  6
ByLayer
 62
  256
370
   -1
100
AcDbLine
 10
20.50785809286128
 20
-147.9833231533797
 11
14.47864541824327
 21
-153.2886546200062
  0
LINE
  5
137
100
AcDbEntity
  8
handle5
  6
ByLayer
 62
  256
370
   -1
100
AcDbLine
 10
15.4182811845605
 20
-152.4618342512604
 11
14.64985507628882
 21
-144.4704300111882
  0
LINE
  5
138
100
AcDbEntity
  8
handle5
  6
ByLayer
 62
  256
370
   -1
100
AcDbLine
 10
12.77853844629374
 20
-143.7143690158287
 11
14.64985507628882
 21
-144.4704300111882
  0
LINE
  5
139
100
AcDbEntity
  8
handle5
  6
ByLayer
 62
  256
370
   -1
100
AcDbLine
 10
15.4182811845605
 20
-152.4618342512604
 11
13.41562154409519
 21
-151.6527072350908
  0
LINE
  5
13A
100
AcDbEntity
  8
handle5
  6
ByLayer
 62
  256
370
   -1
100
AcDbLine
 10
8.918059447184532
 20
-143.3007405483775
 11
3.828482538883691
 21
-147.7792516462582
  0
LINE
  5
13B
100
AcDbEntity
  8
handle5
  6
ByLayer
 62
  256
370
   -1
100
AcDbLine
 10
3.081833368584398
 20
-150.9766054216025
 11
2.990406393433204
 21
-149.8535628960245
  0
LINE
  5
13C
100
AcDbEntity
  8
handle5
  6
ByLayer
 62
  256
370
   -1
100
AcDbLine
 10
13.41562154409519
 20
-151.6527072350908
 11
11.57605769632942
 21
-153.2714091206177
  0
LINE
  5
13D
100
AcDbEntity
  8
handle5
  6
ByLayer
 62
  256
370
   -1
100
AcDbLine
 10
12.63470324089986
 20
-153.6991296844877
 11
5.990877162371646
 21
-151.0148497088747
  0
LINE
  5
13E
100
AcDbEntity
  8
handle5
  6
ByLayer
 62
  256
370
   -1
100
AcDbLine
 10
12.77853844629374
 20
-143.7143690158287
 11
10.93897619060601
 21
-145.3330669608243
  0
LINE
  5
13F
100
AcDbEntity
  8
handle5
  6
ByLayer
 62
  256
370
   -1
100
AcDbLine
 10
9.110730648762626
 20
-145.6715520564139
 11
11.02831931620364
 21
-146.4463081684244
  0
LINE
  5
140
100
AcDbEntity
  8
handle5
  6
ByLayer
 62
  256
370
   -1
100
AcDbLine
 10
10.93897619060601
 20
-145.3330669608243
 11
11.57605978249308
 21
-153.2714099634825
  0
LINE
  5
141
100
AcDbEntity
  8
handle5
  6
ByLayer
 62
  256
370
   -1
100
AcDbLine
 10
5.122968522731526
 20
-151.8019664684188
 11
11.02831931620364
 21
-146.4463081684244
  0
LINE
  5
142
100
AcDbEntity
  8
handle5
  6
ByLayer
 62
  256
370
   -1
100
AcDbLine
 10
3.081296926197467
 20
-150.9770775988763
 11
5.122968522731526
 21
-151.8019664684188
  0
LINE
  5
143
100
AcDbEntity
  8
handle5
  6
ByLayer
 62
  256
370
   -1
100
AcDbLine
 10
24.27183615788033
 20
-147.2116110535121
 11
23.23420704865844
 21
-134.4660704602106
  0
LINE
  5
144
100
AcDbEntity
  8
handle5
  6
ByLayer
 62
  256
370
   -1
100
AcDbLine
 10
22.10033488359755
 20
-144.0418047842576
 11
23.88560234589767
 21
-142.4708776370285
  0
LINE
  5
145
100
AcDbEntity
  8
handle5
  6
ByLayer
 62
  256
370
   -1
100
AcDbLine
 10
23.28259817322282
 20
-146.8119424012972
 11
23.08961710861995
 21
-144.4415007479192
  0
LINE
  5
146
100
AcDbEntity
  8
handle5
  6
ByLayer
 62
  256
370
   -1
100
AcDbLine
 10
27.94679281442478
 20
-146.4039271165537
 11
30.87029414009567
 21
-147.5850983233886
  0
LINE
  5
147
100
AcDbEntity
  8
handle5
  6
ByLayer
 62
  256
370
   -1
100
AcDbLine
 10
28.1397708983443
 20
-148.7743581284785
 11
27.94679281442478
 21
-146.4039271165537
  0
LINE
  5
148
100
AcDbEntity
  8
handle5
  6
ByLayer
 62
  256
370
   -1
100
AcDbLine
 10
25.16466155320353
 20
-146.4259794157793
 11
34.75663872433624
 21
-137.966057935089
  0
LINE
  5
149
100
AcDbEntity
  8
handle5
  6
ByLayer
 62
  256
370
   -1
100
AcDbLine
 10
33.97810863820041
 20
-139.8929875162729
 11
33.03847220698901
 21
-140.7198122001568
  0
LINE
  5
14A
100
AcDbEntity
  8
handle5
  6
ByLayer
 62
  256
370
   -1
100
AcDbLine
 10
33.14003090067189
 20
-141.9673027065707
 11
33.03847220698901
 21
-140.7198122001568
  0
LINE
  5
14B
100
AcDbEntity
  8
handle5
  6
ByLayer
 62
  256
370
   -1
100
AcDbLine
 10
33.14003090067189
 20
-141.9673027065707
 11
27.03597725601475
 21
-147.1820400365322
  0
LINE
  5
14C
100
AcDbEntity
  8
handle5
  6
ByLayer
 62
  256
370
   -1
100
AcDbLine
 10
25.16466155320353
 20
-146.4259794157793
 11
27.03597725601475
 21
-147.1820400365322
  0
LINE
  5
14D
100
AcDbEntity
  8
handle5
  6
ByLayer
 62
  256
370
   -1
100
AcDbLine
 10
33.14003090067189
 20
-141.9673027065707
 11
31.13737334637023
 21
-141.158176533266
  0
LINE
  5
14E
100
AcDbEntity
  8
handle5
  6
ByLayer
 62
  256
370
   -1
100
AcDbLine
 10
31.13737334637023
 20
-141.158176533266
 11
30.93854560413916
 21
-138.7159107172247
  0
LINE
  5
14F
100
AcDbEntity
  8
handle5
  6
ByLayer
 62
  256
370
   -1
100
AcDbLine
 10
31.99719138050546
 20
-139.1436313747463
 11
25.35336507018132
 21
-136.4593513054817
  0
LINE
  5
150
100
AcDbEntity
  8
handle5
  6
ByLayer
 62
  256
370
   -1
100
AcDbLine
 10
27.13881968254753
 20
-134.88825925854
 11
25.35336507018132
 21
-136.4593513054817
  0
LINE
  5
151
100
AcDbEntity
  8
handle5
  6
ByLayer
 62
  256
370
   -1
100
AcDbLine
 10
25.16466155320353
 20
-146.4259794157793
 11
24.96583328422253
 21
-143.9837182403236
  0
LINE
  5
152
100
AcDbEntity
  8
handle5
  6
ByLayer
 62
  256
370
   -1
100
AcDbLine
 10
23.88583500610986
 20
-142.4702263703488
 11
25.80342274636706
 21
-143.2449821077527
  0
LINE
  5
153
100
AcDbEntity
  8
handle5
  6
ByLayer
 62
  256
370
   -1
100
AcDbLine
 10
24.96583328422253
 20
-143.9837182403236
 11
30.93854769030276
 21
-138.7159115600896
  0
LINE
  5
154
100
AcDbEntity
  8
handle5
  6
ByLayer
 62
  256
370
   -1
100
AcDbLine
 10
25.2758225866026
 20
-135.290243182773
 11
25.80342274636706
 21
-143.2449821077527
  0
LINE
  5
155
100
AcDbEntity
  8
handle5
  6
ByLayer
 62
  256
370
   -1
100
AcDbLine
 10
23.23415075827256
 20
-134.465354219579
 11
25.2758225866026
 21
-135.290243182773
  0
LINE
  5
156
100
AcDbEntity
  8
handle5
  6
ByLayer
 62
  256
370
   -1
100
AcDbLine
 10
24.27183615788033
 20
-147.2116110535121
 11
14.67163178246523
 21
-155.6591879329529
  0
LINE
  5
157
100
AcDbEntity
  8
handle5
  6
ByLayer
 62
  256
370
   -1
100
AcDbLine
 10
20.50785809286128
 20
-147.9833231533797
 11
20.7008143405393
 21
-150.3535045600088
  0
LINE
  5
158
100
AcDbEntity
  8
handle5
  6
ByLayer
 62
  256
370
   -1
100
AcDbLine
 10
23.28260641456791
 20
-146.8119220032524
 11
21.49714031788363
 21
-148.3830191170413
  0
LINE
  5
159
100
AcDbEntity
  8
handle5
  6
ByLayer
 62
  256
370
   -1
100
AcDbLine
 10
26.35431602368845
 20
-150.3454454856758
 11
29.27781734935934
 21
-151.5266166925107
  0
LINE
  5
15A
100
AcDbEntity
  8
handle5
  6
ByLayer
 62
  256
370
   -1
100
AcDbLine
 10
28.1397708983443
 20
-148.7743581284785
 11
26.35431602368845
 21
-150.3454454856758
  0
LINE
  5
15B
100
AcDbEntity
  8
handle5
  6
ByLayer
 62
  256
370
   -1
100
AcDbLine
 10
24.36833709197048
 20
-148.3969516208309
 11
25.39147295242202
 21
-161.1456566172184
  0
LINE
  5
15C
100
AcDbEntity
  8
handle5
  6
ByLayer
 62
  256
370
   -1
100
AcDbLine
 10
26.1700027576029
 20
-159.2187277314223
 11
26.06844406392003
 21
-157.9712372250085
  0
LINE
  5
15D
100
AcDbEntity
  8
handle5
  6
ByLayer
 62
  256
370
   -1
100
AcDbLine
 10
27.00807890305338
 20
-157.144416481656
 11
26.06844406392003
 21
-157.9712372250085
  0
LINE
  5
15E
100
AcDbEntity
  8
handle5
  6
ByLayer
 62
  256
370
   -1
100
AcDbLine
 10
27.00807890305338
 20
-157.144416481656
 11
26.23965279478175
 21
-149.1530122415838
  0
LINE
  5
15F
100
AcDbEntity
  8
handle5
  6
ByLayer
 62
  256
370
   -1
100
AcDbLine
 10
24.36833709197048
 20
-148.3969516208309
 11
26.23965279478175
 21
-149.1530122415838
  0
LINE
  5
160
100
AcDbEntity
  8
handle5
  6
ByLayer
 62
  256
370
   -1
100
AcDbLine
 10
27.00807890305338
 20
-157.144416481656
 11
25.00542134875177
 21
-156.3352903083512
  0
LINE
  5
161
100
AcDbEntity
  8
handle5
  6
ByLayer
 62
  256
370
   -1
100
AcDbLine
 10
25.00542134875177
 20
-156.3352903083512
 11
23.16585634200624
 21
-157.95399172562
  0
LINE
  5
162
100
AcDbEntity
  8
handle5
  6
ByLayer
 62
  256
370
   -1
100
AcDbLine
 10
24.4154662497503
 20
-160.7273862341344
 11
24.22450211837252
 21
-158.3817123831415
  0
LINE
  5
163
100
AcDbEntity
  8
handle5
  6
ByLayer
 62
  256
370
   -1
100
AcDbLine
 10
24.22450211837252
 20
-158.3817123831415
 11
17.58067580804845
 21
-155.697432313877
  0
LINE
  5
164
100
AcDbEntity
  8
handle5
  6
ByLayer
 62
  256
370
   -1
100
AcDbLine
 10
17.77365391063324
 20
-158.0678579406693
 11
17.58067580804845
 21
-155.697432313877
  0
LINE
  5
165
100
AcDbEntity
  8
handle5
  6
ByLayer
 62
  256
370
   -1
100
AcDbLine
 10
24.36833709197048
 20
-148.3969516208309
 11
22.52877483628276
 21
-150.0156495658264
  0
LINE
  5
166
100
AcDbEntity
  8
handle5
  6
ByLayer
 62
  256
370
   -1
100
AcDbLine
 10
20.70052929443938
 20
-150.3541346614161
 11
22.61811703469657
 21
-151.12889039882
  0
LINE
  5
167
100
AcDbEntity
  8
handle5
  6
ByLayer
 62
  256
370
   -1
100
AcDbLine
 10
22.52877483628276
 20
-150.0156495658264
 11
23.16585842816983
 21
-157.9539925684848
  0
LINE
  5
168
100
AcDbEntity
  8
handle5
  6
ByLayer
 62
  256
370
   -1
100
AcDbLine
 10
16.71276716840828
 20
-156.484549073421
 11
22.61811703469657
 21
-151.12889039882
  0
LINE
  5
169
100
AcDbEntity
  8
handle5
  6
ByLayer
 62
  256
370
   -1
100
AcDbLine
 10
14.67109534007824
 20
-155.6596601102269
 11
16.71276716840828
 21
-156.484549073421
  0
LINE
  5
16A
100
AcDbEntity
  8
handle5
  6
ByLayer
 62
  256
370
   -1
100
AcDbLine
 10
34.75663872433624
 20
-137.966057935089
 11
11.57704236016656
 21
-128.6008930996912
  0
LINE
  5
16B
100
AcDbEntity
  8
handle5
  6
ByLayer
 62
  256
370
   -1
100
AcDbLine
 10
12.82768342964829
 20
-156.0695561541448
 11
12.63470324089986
 21
-153.6991296844877
  0
LINE
  5
16C
100
AcDbEntity
  8
handle5
  6
ByLayer
 62
  256
370
   -1
100
AcDbLine
 10
12.77853844629374
 20
-143.7143690158287
 11
13.80167523392907
 21
-156.4630743868228
  0
LINE
  5
16D
100
AcDbEntity
  8
handle5
  6
ByLayer
 62
  256
370
   -1
100
AcDbLine
 10
6.183855264956492
 20
-153.385275335667
 11
5.990877162371646
 21
-151.0148497088747
  0
LINE
  5
16E
100
AcDbEntity
  8
handle5
  6
ByLayer
 62
  256
370
   -1
100
AcDbLine
 10
33.78264993340304
 20
-137.5725409198826
 11
31.99719138050546
 21
-139.1436313747463
  0
LINE
  5
16F
100
AcDbEntity
  8
handle5
  6
ByLayer
 62
  256
370
   -1
100
AcDbLine
 10
15.54902126866671
 20
-130.2056767471894
 11
13.76356596091267
 21
-131.7767685131763
  0
LINE
  5
170
100
AcDbEntity
  8
handle5
  6
ByLayer
 62
  256
370
   -1
100
AcDbLine
 10
35.8616338763732
 20
-151.8941932839077
 11
34.82400499894726
 21
-139.1486527842578
  0
LINE
  5
171
100
AcDbEntity
  8
handle5
  6
ByLayer
 62
  256
370
   -1
100
AcDbLine
 10
33.69013260209044
 20
-148.7243870146532
 11
35.47540006439061
 21
-147.1534598674241
  0
LINE
  5
172
100
AcDbEntity
  8
handle5
  6
ByLayer
 62
  256
370
   -1
100
AcDbLine
 10
34.8723958917157
 20
-151.4945246316928
 11
34.67941482711279
 21
-149.1240829783148
  0
LINE
  5
173
100
AcDbEntity
  8
handle5
  6
ByLayer
 62
  256
370
   -1
100
AcDbLine
 10
34.67941482711279
 20
-149.1240829783148
 11
30.87029414009567
 21
-147.5850983233886
  0
LINE
  5
174
100
AcDbEntity
  8
handle5
  6
ByLayer
 62
  256
370
   -1
100
AcDbLine
 10
53.25365126603235
 20
-158.9210244295111
 11
30.07405490186267
 21
-149.5558595941133
  0
LINE
  5
175
100
AcDbEntity
  8
handle5
  6
ByLayer
 62
  256
370
   -1
100
AcDbLine
 10
39.53659053291761
 20
-151.0865093469494
 11
46.26921347278966
 21
-153.806665583317
  0
LINE
  5
176
100
AcDbEntity
  8
handle5
  6
ByLayer
 62
  256
370
   -1
100
AcDbLine
 10
39.72956861683717
 20
-153.4569403588741
 11
39.53659053291761
 21
-151.0865093469494
  0
LINE
  5
177
100
AcDbEntity
  8
handle5
  6
ByLayer
 62
  256
370
   -1
100
AcDbLine
 10
36.75445927169636
 20
-151.1085616461749
 11
46.34643737001301
 21
-142.6486405400912
  0
LINE
  5
178
100
AcDbEntity
  8
handle5
  6
ByLayer
 62
  256
370
   -1
100
AcDbLine
 10
46.41380341282814
 20
-143.8312352956084
 11
44.6282699254819
 21
-145.4023944305524
  0
LINE
  5
179
100
AcDbEntity
  8
handle5
  6
ByLayer
 62
  256
370
   -1
100
AcDbLine
 10
45.27993124776725
 20
-153.4069696196555
 11
44.6282699254819
 21
-145.4023944305524
  0
LINE
  5
17A
100
AcDbEntity
  8
handle5
  6
ByLayer
 62
  256
370
   -1
100
AcDbLine
 10
44.72982954634864
 20
-146.6498853115729
 11
38.6257759016915
 21
-151.8646226415344
  0
LINE
  5
17B
100
AcDbEntity
  8
handle5
  6
ByLayer
 62
  256
370
   -1
100
AcDbLine
 10
36.75445927169636
 20
-151.1085616461749
 11
38.6257759016915
 21
-151.8646226415344
  0
LINE
  5
17C
100
AcDbEntity
  8
handle5
  6
ByLayer
 62
  256
370
   -1
100
AcDbLine
 10
44.72982954634864
 20
-146.6498853115729
 11
42.72716990588327
 21
-145.8407582954033
  0
LINE
  5
17D
100
AcDbEntity
  8
handle5
  6
ByLayer
 62
  256
370
   -1
100
AcDbLine
 10
33.69013260209044
 20
-148.7243870146532
 11
33.14003090067189
 21
-141.9673027065707
  0
LINE
  5
17E
100
AcDbEntity
  8
handle5
  6
ByLayer
 62
  256
370
   -1
100
AcDbLine
 10
34.82400499894726
 20
-139.1486527842578
 11
33.97810863820041
 21
-139.8929875162729
  0
LINE
  5
17F
100
AcDbEntity
  8
handle5
  6
ByLayer
 62
  256
370
   -1
100
AcDbLine
 10
42.72716990588327
 20
-145.8407582954033
 11
42.528343322632
 21
-143.3984929476204
  0
LINE
  5
180
100
AcDbEntity
  8
handle5
  6
ByLayer
 62
  256
370
   -1
100
AcDbLine
 10
45.3537990804428
 20
-142.2715321096241
 11
43.58698886720236
 21
-143.8262135114903
  0
LINE
  5
181
100
AcDbEntity
  8
handle5
  6
ByLayer
 62
  256
370
   -1
100
AcDbLine
 10
43.58698886720236
 20
-143.8262135114903
 11
36.94316232508226
 21
-141.1419333485741
  0
LINE
  5
182
100
AcDbEntity
  8
handle5
  6
ByLayer
 62
  256
370
   -1
100
AcDbLine
 10
36.75445927169636
 20
-151.1085616461749
 11
36.5556310027154
 21
-148.6663004707192
  0
LINE
  5
183
100
AcDbEntity
  8
handle5
  6
ByLayer
 62
  256
370
   -1
100
AcDbLine
 10
35.47563272460279
 20
-147.1528086007444
 11
37.39322139204381
 21
-147.9275647127549
  0
LINE
  5
184
100
AcDbEntity
  8
handle5
  6
ByLayer
 62
  256
370
   -1
100
AcDbLine
 10
36.5556310027154
 20
-148.6663004707192
 11
42.52834540879569
 21
-143.3984937904852
  0
LINE
  5
185
100
AcDbEntity
  8
handle5
  6
ByLayer
 62
  256
370
   -1
100
AcDbLine
 10
36.86562030509555
 20
-139.9728254131687
 11
37.39322139204381
 21
-147.9275647127549
  0
LINE
  5
186
100
AcDbEntity
  8
handle5
  6
ByLayer
 62
  256
370
   -1
100
AcDbLine
 10
34.82394870856143
 20
-139.1479365436261
 11
36.86562030509555
 21
-139.9728254131687
  0
LINE
  5
187
100
AcDbEntity
  8
handle5
  6
ByLayer
 62
  256
370
   -1
100
AcDbLine
 10
35.8616338763732
 20
-151.8941932839077
 11
26.26142973275409
 21
-160.3417702570002
  0
LINE
  5
188
100
AcDbEntity
  8
handle5
  6
ByLayer
 62
  256
370
   -1
100
AcDbLine
 10
32.09765581135417
 20
-152.6659053837752
 11
32.29061205903224
 21
-155.0360867904045
  0
LINE
  5
189
100
AcDbEntity
  8
handle5
  6
ByLayer
 62
  256
370
   -1
100
AcDbLine
 10
34.8724041330608
 20
-151.494504233648
 11
33.08693803637652
 21
-153.0656013474368
  0
LINE
  5
18A
100
AcDbEntity
  8
handle5
  6
ByLayer
 62
  256
370
   -1
100
AcDbLine
 10
33.08693803637652
 20
-153.0656013474368
 11
29.27781734935934
 21
-151.5266166925107
  0
LINE
  5
18B
100
AcDbEntity
  8
handle5
  6
ByLayer
 62
  256
370
   -1
100
AcDbLine
 10
37.9441137421814
 20
-155.0280277160714
 11
44.67673668205333
 21
-157.748183952439
  0
LINE
  5
18C
100
AcDbEntity
  8
handle5
  6
ByLayer
 62
  256
370
   -1
100
AcDbLine
 10
39.72956861683717
 20
-153.4569403588741
 11
37.9441137421814
 21
-155.0280277160714
  0
LINE
  5
18D
100
AcDbEntity
  8
handle5
  6
ByLayer
 62
  256
370
   -1
100
AcDbLine
 10
43.68745445703092
 20
-157.3484879887774
 11
37.65824178241297
 21
-162.6538194554041
  0
LINE
  5
18E
100
AcDbEntity
  8
handle5
  6
ByLayer
 62
  256
370
   -1
100
AcDbLine
 10
38.5978775487302
 20
-161.8269990866582
 11
37.82945144045851
 21
-153.835594846586
  0
LINE
  5
18F
100
AcDbEntity
  8
handle5
  6
ByLayer
 62
  256
370
   -1
100
AcDbLine
 10
35.95813481046338
 20
-153.0795338512265
 11
37.82945144045851
 21
-153.835594846586
  0
LINE
  5
190
100
AcDbEntity
  8
handle5
  6
ByLayer
 62
  256
370
   -1
100
AcDbLine
 10
38.5978775487302
 20
-161.8269990866582
 11
36.59521790826483
 21
-161.0178720704886
  0
LINE
  5
191
100
AcDbEntity
  8
handle5
  6
ByLayer
 62
  256
370
   -1
100
AcDbLine
 10
32.09765581135417
 20
-152.6659053837752
 11
27.00807890305338
 21
-157.144416481656
  0
LINE
  5
192
100
AcDbEntity
  8
handle5
  6
ByLayer
 62
  256
370
   -1
100
AcDbLine
 10
26.26142973275409
 20
-160.3417702570002
 11
26.1700027576029
 21
-159.2187277314223
  0
LINE
  5
193
100
AcDbEntity
  8
handle5
  6
ByLayer
 62
  256
370
   -1
100
AcDbLine
 10
36.59521790826483
 20
-161.0178720704886
 11
34.75565406049913
 21
-162.6365739560155
  0
LINE
  5
194
100
AcDbEntity
  8
handle5
  6
ByLayer
 62
  256
370
   -1
100
AcDbLine
 10
35.81429960506948
 20
-163.0642945198855
 11
29.17047352654134
 21
-160.3800145442726
  0
LINE
  5
195
100
AcDbEntity
  8
handle5
  6
ByLayer
 62
  256
370
   -1
100
AcDbLine
 10
35.95813481046338
 20
-153.0795338512265
 11
34.11857255477565
 21
-154.698231796222
  0
LINE
  5
196
100
AcDbEntity
  8
handle5
  6
ByLayer
 62
  256
370
   -1
100
AcDbLine
 10
32.29032701293232
 20
-155.0367168918117
 11
34.20791568037332
 21
-155.8114730038222
  0
LINE
  5
197
100
AcDbEntity
  8
handle5
  6
ByLayer
 62
  256
370
   -1
100
AcDbLine
 10
34.11857255477565
 20
-154.698231796222
 11
34.75565614666283
 21
-162.6365747988804
  0
LINE
  5
198
100
AcDbEntity
  8
handle5
  6
ByLayer
 62
  256
370
   -1
100
AcDbLine
 10
28.30256488690117
 20
-161.1671313038166
 11
34.20791568037332
 21
-155.8114730038222
  0
LINE
  5
199
100
AcDbEntity
  8
handle5
  6
ByLayer
 62
  256
370
   -1
100
AcDbLine
 10
26.26089329036717
 20
-160.3422424342741
 11
28.30256488690117
 21
-161.1671313038166
  0
LINE
  5
19A
100
AcDbEntity
  8
handle5
  6
ByLayer
 62
  256
370
   -1
100
AcDbLine
 10
47.45143252204996
 20
-156.5767758889099
 11
46.41380341282814
 21
-143.8312352956084
  0
LINE
  5
19B
100
AcDbEntity
  8
handle5
  6
ByLayer
 62
  256
370
   -1
100
AcDbLine
 10
45.27993124776725
 20
-153.4069696196555
 11
47.06519871006736
 21
-151.8360424724263
  0
LINE
  5
19C
100
AcDbEntity
  8
handle5
  6
ByLayer
 62
  256
370
   -1
100
AcDbLine
 10
46.46219453739245
 20
-156.177107236695
 11
46.26921347278966
 21
-153.806665583317
  0
LINE
  5
19D
100
AcDbEntity
  8
handle5
  6
ByLayer
 62
  256
370
   -1
100
AcDbLine
 10
51.12638917859448
 20
-155.7690919519516
 11
54.04989050426531
 21
-156.9502631587865
  0
LINE
  5
19E
100
AcDbEntity
  8
handle5
  6
ByLayer
 62
  256
370
   -1
100
AcDbLine
 10
51.31936726251392
 20
-158.1395229638762
 11
51.12638917859448
 21
-155.7690919519516
  0
LINE
  5
19F
100
AcDbEntity
  8
handle5
  6
ByLayer
 62
  256
370
   -1
100
AcDbLine
 10
48.34425791737324
 20
-155.7911442511771
 11
57.93623508850595
 21
-147.3312227704868
  0
LINE
  5
1A0
100
AcDbEntity
  8
handle5
  6
ByLayer
 62
  256
370
   -1
100
AcDbLine
 10
57.15770500237005
 20
-149.2581523516707
 11
56.21806857115867
 21
-150.0849770355546
  0
LINE
  5
1A1
100
AcDbEntity
  8
handle5
  6
ByLayer
 62
  256
370
   -1
100
AcDbLine
 10
56.31962726484147
 20
-151.3324675419685
 11
56.21806857115867
 21
-150.0849770355546
  0
LINE
  5
1A2
100
AcDbEntity
  8
handle5
  6
ByLayer
 62
  256
370
   -1
100
AcDbLine
 10
56.31962726484147
 20
-151.3324675419685
 11
50.21557362018433
 21
-156.5472048719299
  0
LINE
  5
1A3
100
AcDbEntity
  8
handle5
  6
ByLayer
 62
  256
370
   -1
100
AcDbLine
 10
48.34425791737324
 20
-155.7911442511771
 11
50.21557362018433
 21
-156.5472048719299
  0
LINE
  5
1A4
100
AcDbEntity
  8
handle5
  6
ByLayer
 62
  256
370
   -1
100
AcDbLine
 10
56.31962726484147
 20
-151.3324675419685
 11
54.31696971053992
 21
-150.5233413686638
  0
LINE
  5
1A5
100
AcDbEntity
  8
handle5
  6
ByLayer
 62
  256
370
   -1
100
AcDbLine
 10
54.31696971053992
 20
-150.5233413686638
 11
54.11814196830873
 21
-148.0810755526225
  0
LINE
  5
1A6
100
AcDbEntity
  8
handle5
  6
ByLayer
 62
  256
370
   -1
100
AcDbLine
 10
55.1767877446751
 20
-148.5087962101442
 11
48.53296143435108
 21
-145.8245161408796
  0
LINE
  5
1A7
100
AcDbEntity
  8
handle5
  6
ByLayer
 62
  256
370
   -1
100
AcDbLine
 10
50.31841604671723
 20
-144.2534240939377
 11
48.53296143435108
 21
-145.8245161408796
  0
LINE
  5
1A8
100
AcDbEntity
  8
handle5
  6
ByLayer
 62
  256
370
   -1
100
AcDbLine
 10
48.34425791737324
 20
-155.7911442511771
 11
48.14542964839227
 21
-153.3488830757215
  0
LINE
  5
1A9
100
AcDbEntity
  8
handle5
  6
ByLayer
 62
  256
370
   -1
100
AcDbLine
 10
47.06543137027955
 20
-151.8353912057466
 11
48.98301911053674
 21
-152.6101469431504
  0
LINE
  5
1AA
100
AcDbEntity
  8
handle5
  6
ByLayer
 62
  256
370
   -1
100
AcDbLine
 10
48.14542964839227
 20
-153.3488830757215
 11
54.11814405447244
 21
-148.0810763954873
  0
LINE
  5
1AB
100
AcDbEntity
  8
handle5
  6
ByLayer
 62
  256
370
   -1
100
AcDbLine
 10
48.45541895077228
 20
-144.6554080181708
 11
48.98301911053674
 21
-152.6101469431504
  0
LINE
  5
1AC
100
AcDbEntity
  8
handle5
  6
ByLayer
 62
  256
370
   -1
100
AcDbLine
 10
46.4137471224422
 20
-143.8305190549767
 11
48.45541895077228
 21
-144.6554080181708
  0
LINE
  5
1AD
100
AcDbEntity
  8
handle5
  6
ByLayer
 62
  256
370
   -1
100
AcDbLine
 10
43.68745445703092
 20
-157.3484879887774
 11
43.88041070470894
 21
-159.7186693954067
  0
LINE
  5
1AE
100
AcDbEntity
  8
handle5
  6
ByLayer
 62
  256
370
   -1
100
AcDbLine
 10
46.46220277873755
 20
-156.1770868386502
 11
44.67673668205333
 21
-157.748183952439
  0
LINE
  5
1AF
100
AcDbEntity
  8
handle5
  6
ByLayer
 62
  256
370
   -1
100
AcDbLine
 10
49.53391238785815
 20
-159.7106103210736
 11
52.45741371352896
 21
-160.8917815279084
  0
LINE
  5
1B0
100
AcDbEntity
  8
handle5
  6
ByLayer
 62
  256
370
   -1
100
AcDbLine
 10
51.31936726251392
 20
-158.1395229638762
 11
49.53391238785815
 21
-159.7106103210736
  0
LINE
  5
1B1
100
AcDbEntity
  8
handle5
  6
ByLayer
 62
  256
370
   -1
100
AcDbLine
 10
47.54793345614011
 20
-157.7621164562287
 11
49.41924915895136
 21
-158.5181770769816
  0
LINE
  5
1B2
100
AcDbEntity
  8
handle5
  6
ByLayer
 62
  256
370
   -1
100
AcDbLine
 10
47.54793345614011
 20
-157.7621164562287
 11
45.70837120045252
 21
-159.3808144012243
  0
LINE
  5
1B3
100
AcDbEntity
  8
handle5
  6
ByLayer
 62
  256
370
   -1
100
AcDbLine
 10
43.88012565860907
 20
-159.7192994968139
 11
45.79771339886626
 21
-160.4940552342177
  0
LINE
  5
1B4
100
AcDbEntity
  8
handle5
  6
ByLayer
 62
  256
370
   -1
100
AcDbLine
 10
57.93623508850595
 20
-147.3312227704868
 11
34.75663872433624
 21
-137.966057935089
  0
LINE
  5
1B5
100
AcDbEntity
  8
handle5
  6
ByLayer
 62
  256
370
   -1
100
AcDbLine
 10
29.36345162912619
 20
-162.7504401710649
 11
29.17047352654134
 21
-160.3800145442726
  0
LINE
  5
1B6
100
AcDbEntity
  8
handle5
  6
ByLayer
 62
  256
370
   -1
100
AcDbLine
 10
56.96224629757266
 20
-146.9377057552803
 11
55.1767877446751
 21
-148.5087962101442
  0
LINE
  5
1B7
100
AcDbEntity
  8
handle5
  6
ByLayer
 62
  256
370
   -1
100
AcDbLine
 10
38.72861763283646
 20
-139.5708415825871
 11
36.94316232508226
 21
-141.1419333485741
  0
LINE
  5
1B8
100
AcDbEntity
  8
handle5
  6
ByLayer
 62
  256
370
   -1
100
AcDbLine
 10
59.04123024054293
 20
-161.2593581193055
 11
58.00360136311694
 21
-148.5138176196556
  0
LINE
  5
1B9
100
AcDbEntity
  8
handle5
  6
ByLayer
 62
  256
370
   -1
100
AcDbLine
 10
56.8697289662602
 20
-158.0895518500511
 11
58.6549964285603
 21
-156.5186247028219
  0
LINE
  5
1BA
100
AcDbEntity
  8
handle5
  6
ByLayer
 62
  256
370
   -1
100
AcDbLine
 10
58.05199225588539
 20
-160.8596894670906
 11
57.85901119128249
 21
-158.4892478137126
  0
LINE
  5
1BB
100
AcDbEntity
  8
handle5
  6
ByLayer
 62
  256
370
   -1
100
AcDbLine
 10
57.85901119128249
 20
-158.4892478137126
 11
54.04989050426531
 21
-156.9502631587865
  0
LINE
  5
1BC
100
AcDbEntity
  8
handle5
  6
ByLayer
 62
  256
370
   -1
100
AcDbLine
 10
62.71618689708731
 20
-160.4516741823471
 11
69.44880983695924
 21
-163.1718304187148
  0
LINE
  5
1BD
100
AcDbEntity
  8
handle5
  6
ByLayer
 62
  256
370
   -1
100
AcDbLine
 10
62.90916498100688
 20
-162.8221051942719
 11
62.71618689708731
 21
-160.4516741823471
  0
LINE
  5
1BE
100
AcDbEntity
  8
handle5
  6
ByLayer
 62
  256
370
   -1
100
AcDbLine
 10
59.93405563586606
 20
-160.4737264815727
 11
69.5260337341827
 21
-152.013805375489
  0
LINE
  5
1BF
100
AcDbEntity
  8
handle5
  6
ByLayer
 62
  256
370
   -1
100
AcDbLine
 10
69.59339977699773
 20
-153.1964001310062
 11
67.8078662896516
 21
-154.7675592659502
  0
LINE
  5
1C0
100
AcDbEntity
  8
handle5
  6
ByLayer
 62
  256
370
   -1
100
AcDbLine
 10
68.45952761193695
 20
-162.7721344550532
 11
67.8078662896516
 21
-154.7675592659502
  0
LINE
  5
1C1
100
AcDbEntity
  8
handle5
  6
ByLayer
 62
  256
370
   -1
100
AcDbLine
 10
67.90942591051834
 20
-156.0150501469707
 11
61.80537226586119
 21
-161.2297874769322
  0
LINE
  5
1C2
100
AcDbEntity
  8
handle5
  6
ByLayer
 62
  256
370
   -1
100
AcDbLine
 10
59.93405563586606
 20
-160.4737264815727
 11
61.80537226586119
 21
-161.2297874769322
  0
LINE
  5
1C3
100
AcDbEntity
  8
handle5
  6
ByLayer
 62
  256
370
   -1
100
AcDbLine
 10
67.90942591051834
 20
-156.0150501469707
 11
65.90676627005297
 21
-155.2059231308011
  0
LINE
  5
1C4
100
AcDbEntity
  8
handle5
  6
ByLayer
 62
  256
370
   -1
100
AcDbLine
 10
56.8697289662602
 20
-158.0895518500511
 11
56.31962726484147
 21
-151.3324675419685
  0
LINE
  5
1C5
100
AcDbEntity
  8
handle5
  6
ByLayer
 62
  256
370
   -1
100
AcDbLine
 10
58.00360136311694
 20
-148.5138176196556
 11
57.15770500237005
 21
-149.2581523516707
  0
LINE
  5
1C6
100
AcDbEntity
  8
handle5
  6
ByLayer
 62
  256
370
   -1
100
AcDbLine
 10
65.90676627005297
 20
-155.2059231308011
 11
65.70793968680169
 21
-152.7636577830181
  0
LINE
  5
1C7
100
AcDbEntity
  8
handle5
  6
ByLayer
 62
  256
370
   -1
100
AcDbLine
 10
68.53339544461249
 20
-151.6366969450219
 11
66.76658523137218
 21
-153.1913783468881
  0
LINE
  5
1C8
100
AcDbEntity
  8
handle5
  6
ByLayer
 62
  256
370
   -1
100
AcDbLine
 10
66.76658523137218
 20
-153.1913783468881
 11
60.12275868925195
 21
-150.5070981839718
  0
LINE
  5
1C9
100
AcDbEntity
  8
handle5
  6
ByLayer
 62
  256
370
   -1
100
AcDbLine
 10
59.93405563586606
 20
-160.4737264815727
 11
59.73522736688513
 21
-158.0314653061171
  0
LINE
  5
1CA
100
AcDbEntity
  8
handle5
  6
ByLayer
 62
  256
370
   -1
100
AcDbLine
 10
58.65522908877239
 20
-156.5179734361421
 11
60.5728177562135
 21
-157.2927295481526
  0
LINE
  5
1CB
100
AcDbEntity
  8
handle5
  6
ByLayer
 62
  256
370
   -1
100
AcDbLine
 10
59.73522736688513
 20
-158.0314653061171
 11
65.70794177296537
 21
-152.763658625883
  0
LINE
  5
1CC
100
AcDbEntity
  8
handle5
  6
ByLayer
 62
  256
370
   -1
100
AcDbLine
 10
60.04521666926523
 20
-149.3379902485664
 11
60.5728177562135
 21
-157.2927295481526
  0
LINE
  5
1CD
100
AcDbEntity
  8
handle5
  6
ByLayer
 62
  256
370
   -1
100
AcDbLine
 10
58.00354507273113
 20
-148.513101379024
 11
60.04521666926523
 21
-149.3379902485664
  0
LINE
  5
1CE
100
AcDbEntity
  8
handle5
  6
ByLayer
 62
  256
370
   -1
100
AcDbLine
 10
55.27725217552387
 20
-162.0310702191731
 11
55.47020842320187
 21
-164.4012516258023
  0
LINE
  5
1CF
100
AcDbEntity
  8
handle5
  6
ByLayer
 62
  256
370
   -1
100
AcDbLine
 10
58.0520004972304
 20
-160.8596690690458
 11
56.26653440054628
 21
-162.4307661828346
  0
LINE
  5
1D0
100
AcDbEntity
  8
handle5
  6
ByLayer
 62
  256
370
   -1
100
AcDbLine
 10
56.26653440054628
 20
-162.4307661828346
 11
52.45741371352896
 21
-160.8917815279084
  0
LINE
  5
1D1
100
AcDbEntity
  8
handle5
  6
ByLayer
 62
  256
370
   -1
100
AcDbLine
 10
62.90916498100688
 20
-162.8221051942719
 11
61.12371010635098
 21
-164.3931925514692
  0
LINE
  5
1D2
100
AcDbEntity
  8
handle5
  6
ByLayer
 62
  256
370
   -1
100
AcDbLine
 10
59.13773117463306
 20
-162.4446986866243
 11
61.0090478046281
 21
-163.2007596819838
  0
LINE
  5
1D3
100
AcDbEntity
  8
handle5
  6
ByLayer
 62
  256
370
   -1
100
AcDbLine
 10
59.13773117463306
 20
-162.4446986866243
 11
57.29816891894536
 21
-164.0633966316199
  0
LINE
  5
1D4
100
AcDbEntity
  8
handle5
  6
ByLayer
 62
  256
370
   -1
100
AcDbLine
 10
68.45952761193695
 20
-162.7721344550532
 11
70.24479507423706
 21
-161.2012073078241
  0
LINE
  5
1D5
100
AcDbEntity
  8
handle5
  6
ByLayer
 62
  256
370
   -1
100
AcDbLine
 10
73.4980124108869
 20
-153.6185889293355
 11
71.71255779852066
 21
-155.1896809762774
  0
LINE
  5
1D6
100
AcDbEntity
  8
handle5
  6
ByLayer
 62
  256
370
   -1
100
AcDbLine
 10
70.24502773444914
 20
-161.2005560411444
 11
72.16261547470634
 21
-161.9753117785482
  0
LINE
  5
1D7
100
AcDbEntity
  8
handle5
  6
ByLayer
 62
  256
370
   -1
100
AcDbLine
 10
71.635015314942
 20
-154.0205728535686
 11
72.16261547470634
 21
-161.9753117785482
  0
LINE
  5
1D8
100
AcDbEntity
  8
handle5
  6
ByLayer
 62
  256
370
   -1
100
AcDbLine
 10
69.5933434866119
 20
-153.1956838903745
 11
71.635015314942
 21
-154.0205728535686
  0
LINE
  5
1D9
100
AcDbEntity
  8
handle5
  6
ByLayer
 62
  256
370
   -1
100
AcDbLine
 10
61.90821399700604
 20
-148.936006417985
 11
60.12275868925195
 21
-150.5070981839718
  0
LINE
  5
1DA
100
AcDbEntity
  8
handle5
  6
ByLayer
 62
  256
370
   -1
100
AcDbLine
 10
1.433346502116422
 20
-153.7074213630045
 11
0.493710070905081
 21
-154.5342460468883
  0
LINE
  5
1DB
100
AcDbEntity
  8
handle5
  6
ByLayer
 62
  256
370
   -1
100
AcDbLine
 10
0.5952687645878996
 20
-155.7817365533022
 11
0.493710070905081
 21
-154.5342460468883
  0
LINE
  5
1DC
100
AcDbEntity
  8
handle5
  6
ByLayer
 62
  256
370
   -1
100
AcDbLine
 10
3.316871740289287
 20
-165.7086271306393
 11
2.279242862863327
 21
-152.9630866309893
  0
LINE
  5
1DD
100
AcDbEntity
  8
handle5
  6
ByLayer
 62
  256
370
   -1
100
AcDbLine
 10
1.145370466006568
 20
-162.5388208613848
 11
2.930637928306624
 21
-160.9678937141557
  0
LINE
  5
1DE
100
AcDbEntity
  8
handle5
  6
ByLayer
 62
  256
370
   -1
100
AcDbLine
 10
2.32763375563178
 20
-165.3089584784244
 11
2.134652691028805
 21
-162.9385168250463
  0
LINE
  5
1DF
100
AcDbEntity
  8
handle5
  6
ByLayer
 62
  256
370
   -1
100
AcDbLine
 10
7.184806480753252
 20
-167.2713742056056
 11
6.991828396833739
 21
-164.9009431936809
  0
LINE
  5
1E0
100
AcDbEntity
  8
handle5
  6
ByLayer
 62
  256
370
   -1
100
AcDbLine
 10
4.209697135612487
 20
-164.9229954929064
 11
13.80167523392907
 21
-156.4630743868228
  0
LINE
  5
1E1
100
AcDbEntity
  8
handle5
  6
ByLayer
 62
  256
370
   -1
100
AcDbLine
 10
13.86904127674416
 20
-157.64566914234
 11
12.08350778939797
 21
-159.2168282772839
  0
LINE
  5
1E2
100
AcDbEntity
  8
handle5
  6
ByLayer
 62
  256
370
   -1
100
AcDbLine
 10
12.1850674102647
 20
-160.4643191583044
 11
6.081013765607509
 21
-165.6790564882659
  0
LINE
  5
1E3
100
AcDbEntity
  8
handle5
  6
ByLayer
 62
  256
370
   -1
100
AcDbLine
 10
4.209697135612487
 20
-164.9229954929064
 11
6.081013765607509
 21
-165.6790564882659
  0
LINE
  5
1E4
100
AcDbEntity
  8
handle5
  6
ByLayer
 62
  256
370
   -1
100
AcDbLine
 10
12.1850674102647
 20
-160.4643191583044
 11
10.18240776979934
 21
-159.6551921421348
  0
LINE
  5
1E5
100
AcDbEntity
  8
handle5
  6
ByLayer
 62
  256
370
   -1
100
AcDbLine
 10
1.145370466006568
 20
-162.5388208613848
 11
0.5952687645878996
 21
-155.7817365533022
  0
LINE
  5
1E6
100
AcDbEntity
  8
handle5
  6
ByLayer
 62
  256
370
   -1
100
AcDbLine
 10
2.279242862863327
 20
-152.9630866309893
 11
1.433346502116422
 21
-153.7074213630045
  0
LINE
  5
1E7
100
AcDbEntity
  8
handle5
  6
ByLayer
 62
  256
370
   -1
100
AcDbLine
 10
10.18240776979934
 20
-159.6551921421348
 11
9.983581186548122
 21
-157.2129267943519
  0
LINE
  5
1E8
100
AcDbEntity
  8
handle5
  6
ByLayer
 62
  256
370
   -1
100
AcDbLine
 10
12.80903694435886
 20
-156.0859659563557
 11
11.04222673111849
 21
-157.6406473582218
  0
LINE
  5
1E9
100
AcDbEntity
  8
handle5
  6
ByLayer
 62
  256
370
   -1
100
AcDbLine
 10
11.04222673111849
 20
-157.6406473582218
 11
4.39840018899838
 21
-154.9563671953056
  0
LINE
  5
1EA
100
AcDbEntity
  8
handle5
  6
ByLayer
 62
  256
370
   -1
100
AcDbLine
 10
4.209697135612487
 20
-164.9229954929064
 11
4.010868866631483
 21
-162.4807343174508
  0
LINE
  5
1EB
100
AcDbEntity
  8
handle5
  6
ByLayer
 62
  256
370
   -1
100
AcDbLine
 10
2.930870588518815
 20
-160.9672424474759
 11
4.848459255959767
 21
-161.7419985594864
  0
LINE
  5
1EC
100
AcDbEntity
  8
handle5
  6
ByLayer
 62
  256
370
   -1
100
AcDbLine
 10
4.010868866631483
 20
-162.4807343174508
 11
9.983583272711709
 21
-157.2129276372166
  0
LINE
  5
1ED
100
AcDbEntity
  8
handle5
  6
ByLayer
 62
  256
370
   -1
100
AcDbLine
 10
4.320858169011558
 20
-153.7872592599002
 11
4.848459255959767
 21
-161.7419985594864
  0
LINE
  5
1EE
100
AcDbEntity
  8
handle5
  6
ByLayer
 62
  256
370
   -1
100
AcDbLine
 10
2.279186572477499
 20
-152.9623703903577
 11
4.320858169011558
 21
-153.7872592599002
  0
LINE
  5
1EF
100
AcDbEntity
  8
handle5
  6
ByLayer
 62
  256
370
   -1
100
AcDbLine
 10
7.184806480753252
 20
-167.2713742056056
 11
5.399351606097412
 21
-168.8424615628029
  0
LINE
  5
1F0
100
AcDbEntity
  8
handle5
  6
ByLayer
 62
  256
370
   -1
100
AcDbLine
 10
3.413372674379445
 20
-166.893967697958
 11
5.284689304374524
 21
-167.6500286933175
  0
LINE
  5
1F1
100
AcDbEntity
  8
handle5
  6
ByLayer
 62
  256
370
   -1
100
AcDbLine
 10
24.61294286628611
 20
-163.0725861984022
 11
23.67330643507472
 21
-163.8994108822861
  0
LINE
  5
1F2
100
AcDbEntity
  8
handle5
  6
ByLayer
 62
  256
370
   -1
100
AcDbLine
 10
21.77220757445599
 20
-164.3377752153953
 11
21.57337983222487
 21
-161.8955093993541
  0
LINE
  5
1F3
100
AcDbEntity
  8
handle5
  6
ByLayer
 62
  256
370
   -1
100
AcDbLine
 10
22.63202560859122
 20
-162.3232300568757
 11
15.98819929826709
 21
-159.6389499876111
  0
LINE
  5
1F4
100
AcDbEntity
  8
handle5
  6
ByLayer
 62
  256
370
   -1
100
AcDbLine
 10
17.77365391063324
 20
-158.0678579406693
 11
15.98819929826709
 21
-159.6389499876111
  0
LINE
  5
1F5
100
AcDbEntity
  8
handle5
  6
ByLayer
 62
  256
370
   -1
100
AcDbLine
 10
13.86898498635833
 20
-157.6449529017082
 11
15.91065681468831
 21
-158.4698418649023
  0
LINE
  5
1F6
100
AcDbEntity
  8
handle5
  6
ByLayer
 62
  256
370
   -1
100
AcDbLine
 10
25.39147295242202
 20
-161.1456566172184
 11
2.211876588252267
 21
-151.7804917818205
  0
LINE
  5
1F7
100
AcDbEntity
  8
handle5
  6
ByLayer
 62
  256
370
   -1
100
AcDbLine
 10
24.41748416148874
 20
-160.7521396020119
 11
22.63202560859122
 21
-162.3232300568757
  0
LINE
  5
1F8
100
AcDbEntity
  8
handle5
  6
ByLayer
 62
  256
370
   -1
100
AcDbLine
 10
6.183855496752415
 20
-153.3852754293187
 11
4.39840018899838
 21
-154.9563671953056
  0
LINE
  5
1F9
100
AcDbEntity
  8
handle5
  6
ByLayer
 62
  256
370
   -1
100
AcDbLine
 10
25.45883922703302
 20
-162.3282514663871
 11
24.61294286628611
 21
-163.0725861984022
  0
LINE
  5
1FA
100
AcDbEntity
  8
handle5
  6
ByLayer
 62
  256
370
   -1
100
AcDbLine
 10
25.4587829366472
 20
-162.3275352257555
 11
27.50045453318126
 21
-163.1524240952979
  0
LINE
  5
1FB
100
AcDbEntity
  8
handle5
  6
ByLayer
 62
  256
370
   -1
100
AcDbLine
 10
29.36345186092211
 20
-162.7504402647165
 11
27.57799655316801
 21
-164.3215320307034
  0
LINE
  5
1FC
100
AcDbEntity
  8
handle5
  6
ByLayer
 62
  256
370
   -1
100
AcDbLine
 10
73.83948031069059
 20
-129.0856421882368
 11
72.35446026917162
 21
-128.4856551455723
  0
LINE
  5
1FD
100
AcDbEntity
  8
handle5
  6
ByLayer
 62
  256
370
   -1
100
AcDbLine
 10
69.10039313879935
 20
-134.8518666239877
 11
74.20014823353114
 21
-130.3539914320588
  0
LINE
  5
1FE
100
AcDbEntity
  8
handle5
  6
ByLayer
 62
  256
370
   -1
100
AcDbLine
 10
69.29922140778041
 20
-137.2941277994434
 11
74.75612428243625
 21
-132.4812552793057
  0
LINE
  5
1FF
100
AcDbEntity
  8
handle5
  6
ByLayer
 62
  256
370
   -1
100
AcDbLine
 10
69.56322161793861
 20
-128.4627761402343
 11
69.93798352812775
 21
-134.1131308660233
  0
LINE
  5
200
100
AcDbEntity
  8
handle5
  6
ByLayer
 62
  256
370
   -1
100
AcDbLine
 10
68.40639601245715
 20
-138.0797594371762
 11
67.62217124641774
 21
-128.4468658912874
  0
LINE
  5
201
100
AcDbEntity
  8
handle5
  6
ByLayer
 62
  256
370
   -1
100
AcDbLine
 10
66.23489473817443
 20
-134.9099531679217
 11
65.70744995856597
 21
-128.4311714545018
  0
LINE
  5
202
100
AcDbEntity
  8
handle5
  6
ByLayer
 62
  256
370
   -1
100
AcDbLine
 10
65.36234016817815
 20
-128.4283426857281
 11
59.58073939209868
 21
-133.3676061898007
  0
LINE
  5
203
100
AcDbEntity
  8
handle5
  6
ByLayer
 62
  256
370
   -1
100
AcDbLine
 10
57.70942368928745
 20
-132.6115455690478
 11
62.47919226309392
 21
-128.4047103258503
  0
LINE
  5
204
100
AcDbEntity
  8
handle5
  6
ByLayer
 62
  256
370
   -1
100
AcDbLine
 10
57.51059542030652
 20
-130.1692843935922
 11
59.53862304101534
 21
-128.3806072994398
  0
LINE
  5
205
100
AcDbEntity
  8
handle5
  6
ByLayer
 62
  256
370
   -1
100
AcDbLine
 10
58.27786185847633
 20
-128.3702731913862
 11
58.34818488245099
 21
-129.4305482610211
  0
LINE
  5
206
100
AcDbEntity
  8
handle5
  6
ByLayer
 62
  256
370
   -1
100
AcDbLine
 10
56.81659829396432
 20
-133.3971772067806
 11
56.4061032272643
 21
-128.3549309075239
  0
LINE
  5
207
100
AcDbEntity
  8
handle5
  6
ByLayer
 62
  256
370
   -1
100
AcDbLine
 10
54.64509701968149
 20
-130.2273709375262
 11
54.49138190371313
 21
-128.3392364704455
  0
LINE
  5
208
100
AcDbEntity
  8
handle5
  6
ByLayer
 62
  256
370
   -1
100
AcDbLine
 10
75.24103929253971
 20
-134.5727300304202
 11
71.1705380377754
 21
-138.0501887948029
  0
LINE
  5
209
100
AcDbEntity
  8
handle5
  6
ByLayer
 62
  256
370
   -1
100
AcDbLine
 10
72.08135266900166
 20
-137.2720755002178
 11
76.03519942131942
 21
-138.8695332810874
  0
LINE
  5
20A
100
AcDbEntity
  8
handle5
  6
ByLayer
 62
  256
370
   -1
100
AcDbLine
 10
76.35630462691682
 20
-141.2917310104107
 11
62.6188170379466
 21
-135.7414257473818
  0
LINE
  5
20B
100
AcDbEntity
  8
handle5
  6
ByLayer
 62
  256
370
   -1
100
AcDbLine
 10
70.48887587826533
 20
-141.2135938693399
 11
76.57766288469409
 21
-143.6736235034614
  0
LINE
  5
20C
100
AcDbEntity
  8
handle5
  6
ByLayer
 62
  256
370
   -1
100
AcDbLine
 10
76.68781581266379
 20
-145.6735076330897
 11
70.39599028271883
 21
-151.2099189216192
  0
LINE
  5
20D
100
AcDbEntity
  8
handle5
  6
ByLayer
 62
  256
370
   -1
100
AcDbLine
 10
76.42488779469301
 20
-145.9048656500824
 11
76.69951301410907
 21
-146.0158214410022
  0
LINE
  5
20E
100
AcDbEntity
  8
handle5
  6
ByLayer
 62
  256
370
   -1
100
AcDbLine
 10
72.43712566866196
 20
-152.0352800620873
 11
76.72374203483938
 21
-148.1476773550465
  0
LINE
  5
20F
100
AcDbEntity
  8
handle5
  6
ByLayer
 62
  256
370
   -1
100
AcDbLine
 10
76.49585011232244
 20
-152.5373365691768
 11
73.305034308302
 21
-151.2481633025432
  0
LINE
  5
210
100
AcDbEntity
  8
handle5
  6
ByLayer
 62
  256
370
   -1
100
AcDbLine
 10
76.23313425369196
 20
-154.7236498846834
 11
57.93623508850595
 21
-147.3312227704868
  0
LINE
  5
211
100
AcDbEntity
  8
handle5
  6
ByLayer
 62
  256
370
   -1
100
AcDbLine
 10
75.87166096671598
 20
-156.8700677321823
 11
71.71255779852066
 21
-155.1896809762774
  0
LINE
  5
212
100
AcDbEntity
  8
handle5
  6
ByLayer
 62
  256
370
   -1
100
AcDbLine
 10
71.32502601256186
 20
-162.7140479111193
 11
75.36961376515197
 21
-159.1468078033054
  0
LINE
  5
213
100
AcDbEntity
  8
handle5
  6
ByLayer
 62
  256
370
   -1
100
AcDbLine
 10
72.25901094851227
 20
-164.5079164176177
 11
74.3304744513261
 21
-162.6809293146187
  0
LINE
  5
214
100
AcDbEntity
  8
handle5
  6
ByLayer
 62
  256
370
   -1
100
AcDbLine
 10
71.47159307911934
 20
-164.5143706624488
 11
71.32502601256186
 21
-162.7140479111193
  0
LINE
  5
215
100
AcDbEntity
  8
handle5
  6
ByLayer
 62
  256
370
   -1
100
AcDbLine
 10
70.5154468073703
 20
-164.5222079269713
 11
69.59339977699773
 21
-153.1964001310062
  0
LINE
  5
216
100
AcDbEntity
  8
handle5
  6
ByLayer
 62
  256
370
   -1
100
AcDbLine
 10
69.55938399954726
 20
-164.5300445073632
 11
69.44880983695924
 21
-163.1718304187148
  0
LINE
  5
217
100
AcDbEntity
  8
handle5
  6
ByLayer
 62
  256
370
   -1
100
AcDbLine
 10
67.18464095158589
 20
-164.5495096143138
 11
53.25365126603235
 21
-158.9210244295111
  0
LINE
  5
218
100
AcDbEntity
  8
handle5
  6
ByLayer
 62
  256
370
   -1
100
AcDbLine
 10
61.12371010635098
 20
-164.3931925514692
 11
61.62343198087791
 21
-164.5950932944015
  0
LINE
  5
219
100
AcDbEntity
  8
handle5
  6
ByLayer
 62
  256
370
   -1
100
AcDbLine
 10
61.14350042445352
 20
-164.5990271596182
 11
61.0090478046281
 21
-163.2007596819838
  0
LINE
  5
21A
100
AcDbEntity
  8
handle5
  6
ByLayer
 62
  256
370
   -1
100
AcDbLine
 10
59.13773117463306
 20
-162.4446986866243
 11
59.31182993289524
 21
-164.6140408521719
  0
LINE
  5
21B
100
AcDbEntity
  8
handle5
  6
ByLayer
 62
  256
370
   -1
100
AcDbLine
 10
57.29816891894536
 20
-164.0633966316199
 11
57.34365501102008
 21
-164.6301734334988
  0
LINE
  5
21C
100
AcDbEntity
  8
handle5
  6
ByLayer
 62
  256
370
   -1
100
AcDbLine
 10
55.46992337710201
 20
-164.4018817272095
 11
56.06098742142927
 21
-164.6406871022659
  0
LINE
  5
21D
100
AcDbEntity
  8
handle5
  6
ByLayer
 62
  256
370
   -1
100
AcDbLine
 10
59.04123024054293
 20
-161.2593581193055
 11
55.19042744184122
 21
-164.6478228398035
  0
LINE
  5
21E
100
AcDbEntity
  8
handle5
  6
ByLayer
 62
  256
370
   -1
100
AcDbLine
 10
55.27725217552387
 20
-162.0310702191731
 11
52.27631415369255
 21
-164.6717090142965
  0
LINE
  5
21F
100
AcDbEntity
  8
handle5
  6
ByLayer
 62
  256
370
   -1
100
AcDbLine
 10
50.01273583204288
 20
-164.6902629349658
 11
49.41924915895136
 21
-158.5181770769816
  0
LINE
  5
220
100
AcDbEntity
  8
handle5
  6
ByLayer
 62
  256
370
   -1
100
AcDbLine
 10
47.54793345614011
 20
-157.7621164562287
 11
48.10520044039043
 21
-164.7058984709629
  0
LINE
  5
221
100
AcDbEntity
  8
handle5
  6
ByLayer
 62
  256
370
   -1
100
AcDbLine
 10
45.70837120045252
 20
-159.3808144012243
 11
46.13702507573606
 21
-164.7220310559191
  0
LINE
  5
222
100
AcDbEntity
  8
handle5
  6
ByLayer
 62
  256
370
   -1
100
AcDbLine
 10
47.45143252204996
 20
-156.5767758889099
 11
38.1201216442733
 21
-164.7877433791278
  0
LINE
  5
223
100
AcDbEntity
  8
handle5
  6
ByLayer
 62
  256
370
   -1
100
AcDbLine
 10
37.83215881928761
 20
-164.7901037301523
 11
37.65824178241297
 21
-162.6538194554041
  0
LINE
  5
224
100
AcDbEntity
  8
handle5
  6
ByLayer
 62
  256
370
   -1
100
AcDbLine
 10
35.95813481046338
 20
-153.0795338512265
 11
36.89857102797377
 21
-164.7977560890975
  0
LINE
  5
225
100
AcDbEntity
  8
handle5
  6
ByLayer
 62
  256
370
   -1
100
AcDbLine
 10
35.9560524185825
 20
-164.8054816514696
 11
35.81429960506948
 21
-163.0642945198855
  0
LINE
  5
226
100
AcDbEntity
  8
handle5
  6
ByLayer
 62
  256
370
   -1
100
AcDbLine
 10
34.47980724783332
 20
-164.8175820217216
 11
25.39147295242202
 21
-161.1456566172184
  0
LINE
  5
227
100
AcDbEntity
  8
handle5
  6
ByLayer
 62
  256
370
   -1
100
AcDbLine
 10
28.91858715748094
 20
-164.863165792954
 11
27.57799655316801
 21
-164.3215320307034
  0
LINE
  5
228
100
AcDbEntity
  8
handle5
  6
ByLayer
 62
  256
370
   -1
100
AcDbLine
 10
27.50045453318126
 20
-163.1524240952979
 11
27.61462901975079
 21
-164.8738539744108
  0
LINE
  5
229
100
AcDbEntity
  8
handle5
  6
ByLayer
 62
  256
370
   -1
100
AcDbLine
 10
25.66737901672849
 20
-164.8898150400094
 11
25.45883922703302
 21
-162.3282514663871
  0
LINE
  5
22A
100
AcDbEntity
  8
handle5
  6
ByLayer
 62
  256
370
   -1
100
AcDbLine
 10
23.75521161388917
 20
-164.9054885433113
 11
23.67330643507472
 21
-163.8994108822861
  0
LINE
  5
22B
100
AcDbEntity
  8
handle5
  6
ByLayer
 62
  256
370
   -1
100
AcDbLine
 10
23.1888377340067
 20
-164.9101309521628
 11
21.77220757445599
 21
-164.3377752153953
  0
LINE
  5
22C
100
AcDbEntity
  8
handle5
  6
ByLayer
 62
  256
370
   -1
100
AcDbLine
 10
21.10388270808954
 20
-164.9272207474572
 11
25.39147295242202
 21
-161.1456566172184
  0
LINE
  5
22D
100
AcDbEntity
  8
handle5
  6
ByLayer
 62
  256
370
   -1
100
AcDbLine
 10
18.10814419883537
 20
-164.9517759811396
 11
21.57338191838846
 21
-161.8955102422189
  0
LINE
  5
22E
100
AcDbEntity
  8
handle5
  6
ByLayer
 62
  256
370
   -1
100
AcDbLine
 10
15.91065681468831
 20
-158.4698418649023
 11
16.34153322413334
 21
-164.9662563989651
  0
LINE
  5
22F
100
AcDbEntity
  8
handle5
  6
ByLayer
 62
  256
370
   -1
100
AcDbLine
 10
14.46627007101898
 20
-164.9816274084168
 11
13.86904127674416
 21
-157.64566914234
  0
LINE
  5
230
100
AcDbEntity
  8
handle5
  6
ByLayer
 62
  256
370
   -1
100
AcDbLine
 10
12.59231555689746
 20
-165.4666852082836
 11
12.08350778939797
 21
-159.2168282772839
  0
LINE
  5
231
100
AcDbEntity
  8
handle5
  6
ByLayer
 62
  256
370
   -1
100
AcDbLine
 10
6.991828396833739
 20
-164.9009431936809
 11
11.81595820618821
 21
-166.8500181534932
  0
LINE
  5
232
100
AcDbEntity
  8
handle5
  6
ByLayer
 62
  256
370
   -1
100
AcDbLine
 10
5.399351606097412
 20
-168.8424615628029
 11
8.463246812106888
 21
-170.0803555792413
  0
LINE
  5
233
100
AcDbEntity
  8
handle5
  6
ByLayer
 62
  256
370
   -1
100
AcDbLine
 10
5.510392392502865
 20
-169.9972740511344
 11
5.284689304374524
 21
-167.6500286933175
  0
LINE
  5
234
100
AcDbEntity
  8
handle5
  6
ByLayer
 62
  256
370
   -1
100
AcDbLine
 10
3.413372674379445
 20
-166.893967697958
 11
3.540738861575278
 21
-168.4810027986498
  0
LINE
  5
235
100
AcDbEntity
  8
handle5
  6
ByLayer
 62
  256
370
   -1
100
AcDbLine
 10
3.413372674379445
 20
-166.893967697958
 11
2.773535823627469
 21
-167.4569834873082
  0
LINE
  5
236
100
AcDbEntity
  8
handle5
  6
ByLayer
 62
  256
370
   -1
100
AcDbLine
 10
3.316871740289287
 20
-165.7086271306393
 11
2.277969160807686
 21
-166.6227961812577
  0
LINE
  5
237
100
AcDbEntity
  8
handle5
  6
ByLayer
 62
  256
370
   -1
100
AcDbLine
 10
2.327641996976865
 20
-165.3089380803795
 11
1.854633419467177
 21
-165.7251556788558
  0
LINE
  5
238
100
AcDbEntity
  8
handle5
  6
ByLayer
 62
  256
370
   -1
100
AcDbLine
 10
10.548817744286
 20
-168.6305229800777
 11
1.607617367646014
 21
-165.018043537468
  0
LINE
  5
239
100
AcDbEntity
  8
handle5
  6
ByLayer
 62
  256
370
   -1
100
AcDbLine
 10
2.134652691028805
 20
-162.9385168250463
 11
0.9700371386674078
 21
-162.4679815988768
  0
LINE
  5
23A
100
AcDbEntity
  8
handle5
  6
ByLayer
 62
  256
370
   -1
100
AcDbLine
 10
0.5952687645878996
 20
-155.7817365533022
 11
0.2486884953494268
 21
-156.0778225926848
  0
LINE
  5
23B
100
AcDbEntity
  8
handle5
  6
ByLayer
 62
  256
370
   -1
100
AcDbLine
 10
0.5952687645878996
 20
-155.7817365533022
 11
0.22625254452322
 21
-155.6326443226375
  0
LINE
  5
23C
100
AcDbEntity
  8
handle5
  6
ByLayer
 62
  256
370
   -1
100
AcDbLine
 10
0.1160381558717063
 20
-153.6289770584029
 11
2.211876588252267
 21
-151.7804917818205
  0
LINE
  5
23D
100
AcDbEntity
  8
handle5
  6
ByLayer
 62
  256
370
   -1
100
AcDbLine
 10
1.237887797319104
 20
-151.3869747666141
 11
0.06396130809304168
 21
-152.4199557332917
  0
LINE
  5
23E
100
AcDbEntity
  8
handle5
  6
ByLayer
 62
  256
370
   -1
100
AcDbLine
 10
2.211876588252267
 20
-151.7804917818205
 11
0.01855311917051949
 21
-150.8943315785718
  0
LINE
  5
23F
100
AcDbEntity
  8
handle5
  6
ByLayer
 62
  256
370
   -1
100
AcDbLine
 10
1.044905754202887
 20
-149.0165475477438
 11
0.01021987345717434
 21
-148.5985073164211
  0
LINE
  5
240
100
AcDbEntity
  8
handle5
  6
ByLayer
 62
  256
370
   -1
100
AcDbLine
 10
1.825824984582084
 20
-146.9701254729534
 11
0.009917858716562478
 21
-148.5680094441576
  0
LINE
  5
241
100
AcDbEntity
  8
handle5
  6
ByLayer
 62
  256
370
   -1
100
AcDbLine
 10
1.188740727800848
 20
-139.0317867854331
 11
0.1109759090934404
 21
-139.9801513715383
  0
LINE
  5
242
100
AcDbEntity
  8
handle5
  6
ByLayer
 62
  256
370
   -1
100
AcDbLine
 10
1.092239793710689
 20
-137.8464462181144
 11
0.1673169100141649
 21
-138.6603202630866
  0
LINE
  5
243
100
AcDbEntity
  8
handle5
  6
ByLayer
 62
  256
370
   -1
100
AcDbLine
 10
6.894458537692913
 20
-140.1906947587155
 11
0.2294679554966592
 21
-137.4978637685639
  0
LINE
  5
244
100
AcDbEntity
  8
handle5
  6
ByLayer
 62
  256
370
   -1
100
AcDbLine
 10
0.5952481242854333
 20
-133.2031730022447
 11
0.7060059817279694
 21
-133.1057128016307
  0
LINE
  5
245
100
AcDbEntity
  8
handle5
  6
ByLayer
 62
  256
370
   -1
100
AcDbLine
 10
1.092239793710689
 20
-137.8464462181144
 11
0.6668932292480463
 21
-132.62177407332
  0
LINE
  5
246
100
AcDbEntity
  8
handle5
  6
ByLayer
 62
  256
370
   -1
100
AcDbLine
 10
2.133844700686723
 20
-126.4922600809774
 11
2.623826382197365
 21
-133.8798172723548
  0
LINE
  5
247
100
AcDbEntity
  8
handle5
  6
ByLayer
 62
  256
370
   -1
100
AcDbLine
 10
11.57704236016656
 20
-128.6008930996912
 11
2.972817653081904
 21
-125.1245606650503
  0
LINE
  5
248
100
AcDbEntity
  8
handle5
  6
ByLayer
 62
  256
370
   -1
100
AcDbLine
 10
3.959223318377894
 20
-125.5230944231422
 11
3.841354795105872
 21
-124.0752691807249
  0
LINE
  5
249
100
AcDbEntity
  8
handle5
  6
ByLayer
 62
  256
370
   -1
100
AcDbLine
 10
10.41007152611718
 20
-125.8369488656144
 11
4.530509008415265
 21
-123.4614514120255
  0
LINE
  5
24A
100
AcDbEntity
  8
handle5
  6
ByLayer
 62
  256
370
   -1
100
AcDbLine
 10
9.181061745983754
 20
-123.2863923069041
 11
9.351427835914478
 21
-125.4092290509576
  0
LINE
  5
24B
100
AcDbEntity
  8
handle5
  6
ByLayer
 62
  256
370
   -1
100
AcDbLine
 10
10.54538173691299
 20
-124.3586220911635
 11
9.351425749750831
 21
-125.4092282080929
  0
LINE
  5
24C
100
AcDbEntity
  8
handle5
  6
ByLayer
 62
  256
370
   -1
100
AcDbLine
 10
11.31394622442786
 20
-125.3226041159173
 11
11.57704236016656
 21
-128.6008930996912
  0
LINE
  5
24D
100
AcDbEntity
  8
handle5
  6
ByLayer
 62
  256
370
   -1
100
AcDbLine
 10
12.44699914049869
 20
-127.7970067394731
 11
12.40638767309099
 21
-127.2981561010323
  0
LINE
  5
24E
100
AcDbEntity
  8
handle5
  6
ByLayer
 62
  256
370
   -1
100
AcDbLine
 10
12.67039180334592
 20
-127.6004352201183
 11
12.44699914049869
 21
-127.7970067394731
  0
LINE
  5
24F
100
AcDbEntity
  8
handle5
  6
ByLayer
 62
  256
370
   -1
100
AcDbLine
 10
14.48813429464582
 20
-128.6223677862895
 11
15.15584073170453
 21
-128.0168140018222
  0
LINE
  5
250
100
AcDbEntity
  8
handle5
  6
ByLayer
 62
  256
370
   -1
100
AcDbLine
 10
15.54902103687073
 20
-130.2056766535378
 11
15.3709676647531
 21
-128.0185773373391
  0
LINE
  5
251
100
AcDbEntity
  8
handle5
  6
ByLayer
 62
  256
370
   -1
100
AcDbLine
 10
21.99986901281408
 20
-130.5195310023584
 11
15.81887851031962
 21
-128.0222487377126
  0
LINE
  5
252
100
AcDbEntity
  8
handle5
  6
ByLayer
 62
  256
370
   -1
100
AcDbLine
 10
20.77839739902805
 20
-128.0629005318823
 11
20.94122555440737
 21
-130.0918112813532
  0
LINE
  5
253
100
AcDbEntity
  8
handle5
  6
ByLayer
 62
  256
370
   -1
100
AcDbLine
 10
22.74916448256442
 20
-128.079054360436
 11
23.16684100584337
 21
-133.2834757046934
  0
LINE
  5
254
100
AcDbEntity
  8
handle5
  6
ByLayer
 62
  256
370
   -1
100
AcDbLine
 10
24.78344695647473
 20
-129.282235569131
 11
24.66926652957636
 21
-128.0947929018049
  0
LINE
  5
255
100
AcDbEntity
  8
handle5
  6
ByLayer
 62
  256
370
   -1
100
AcDbLine
 10
26.11940038056479
 20
-128.1066792448458
 11
23.84381119015757
 21
-130.109055937877
  0
LINE
  5
256
100
AcDbEntity
  8
handle5
  6
ByLayer
 62
  256
370
   -1
100
AcDbLine
 10
28.97972390344927
 20
-128.1301245196236
 11
24.03679755437945
 21
-132.4795892508237
  0
LINE
  5
257
100
AcDbEntity
  8
handle5
  6
ByLayer
 62
  256
370
   -1
100
AcDbLine
 10
26.07793294032251
 20
-133.3049503912916
 11
31.75877270817529
 21
-128.1529036081869
  0
LINE
  5
258
100
AcDbEntity
  8
handle5
  6
ByLayer
 62
  256
370
   -1
100
AcDbLine
 10
31.99978181613915
 20
-128.1548790926784
 11
32.53102420008412
 21
-134.7743938863554
  0
LINE
  5
259
100
AcDbEntity
  8
handle5
  6
ByLayer
 62
  256
370
   -1
100
AcDbLine
 10
33.97054779527338
 20
-128.1710329121795
 11
34.75663872433624
 21
-137.966057935089
  0
LINE
  5
25A
100
AcDbEntity
  8
handle5
  6
ByLayer
 62
  256
370
   -1
100
AcDbLine
 10
36.37324467496768
 20
-133.9648177995267
 11
35.81758991053692
 21
-128.1861726016489
  0
LINE
  5
25B
100
AcDbEntity
  8
handle5
  6
ByLayer
 62
  256
370
   -1
100
AcDbLine
 10
38.29514030911542
 20
-128.2064803918012
 11
38.64298312127363
 21
-128.3470180103814
  0
LINE
  5
25C
100
AcDbEntity
  8
handle5
  6
ByLayer
 62
  256
370
   -1
100
AcDbLine
 10
62.6188170379466
 20
-135.7414257473818
 11
44.08666904915248
 21
-128.2539519388507
  0
LINE
  5
25D
100
AcDbEntity
  8
handle5
  6
ByLayer
 62
  256
370
   -1
100
AcDbLine
 10
44.23756166362995
 20
-128.3149259495635
 11
44.23269512591838
 21
-128.2551488739062
  0
LINE
  5
25E
100
AcDbEntity
  8
handle5
  6
ByLayer
 62
  256
370
   -1
100
AcDbLine
 10
45.22679964828745
 20
-128.7145946017784
 11
45.19003448831216
 21
-128.2629959178602
  0
LINE
  5
25F
100
AcDbEntity
  8
handle5
  6
ByLayer
 62
  256
370
   -1
100
AcDbLine
 10
46.9827556203507
 20
-128.2776903533688
 11
47.99094167360572
 21
-128.685023959405
  0
LINE
  5
260
100
AcDbEntity
  8
handle5
  6
ByLayer
 62
  256
370
   -1
100
AcDbLine
 10
48.45362914594585
 20
-128.2897466937425
 11
47.99094167360572
 21
-128.685023959405
  0
LINE
  5
261
100
AcDbEntity
  8
handle5
  6
ByLayer
 62
  256
370
   -1
100
AcDbLine
 10
49.09473438875155
 20
-130.2773416767448
 11
48.9332432414091
 21
-128.29367795682
  0
LINE
  5
262
100
AcDbEntity
  8
handle5
  6
ByLayer
 62
  256
370
   -1
100
AcDbLine
 10
49.87821005054509
 20
-128.3014235864032
 11
55.63437924470389
 21
-130.6270669011877
  0
LINE
  5
263
100
AcDbEntity
  8
handle5
  6
ByLayer
 62
  256
370
   -1
100
AcDbLine
 10
133.9088643173072
 20
-128.1826414631186
 11
133.717912877249
 21
-125.8369665789447
  0
LINE
  5
264
100
AcDbEntity
  8
handle5
  6
ByLayer
 62
  256
370
   -1
100
AcDbLine
 10
147.344604124146
 20
-132.4796811600041
 11
147.1516294267691
 21
-130.1091463346709
  0
LINE
  5
265
100
AcDbEntity
  8
handle5
  6
ByLayer
 62
  256
370
   -1
100
AcDbLine
 10
148.0912696666012
 20
-129.2823310498558
 11
146.0886144039638
 21
-128.4731931982668
  0
LINE
  5
266
100
AcDbEntity
  8
handle5
  6
ByLayer
 62
  256
370
   -1
100
AcDbLine
 10
146.0886144039638
 20
-128.4731931982668
 11
144.2490417982049
 21
-130.0918851307718
  0
LINE
  5
267
100
AcDbEntity
  8
handle5
  6
ByLayer
 62
  256
370
   -1
100
AcDbLine
 10
135.7542934417255
 20
-127.7975076479851
 11
137.7959605751514
 21
-128.6224075640219
  0
LINE
  5
268
100
AcDbEntity
  8
handle5
  6
ByLayer
 62
  256
370
   -1
100
AcDbLine
 10
158.8429546811744
 20
-136.039282702331
 11
158.7414027370663
 21
-134.79179164645
  0
LINE
  5
269
100
AcDbEntity
  8
handle5
  6
ByLayer
 62
  256
370
   -1
100
AcDbLine
 10
159.6810420497166
 20
-133.9649759870232
 11
158.7414027370663
 21
-134.79179164645
  0
LINE
  5
26A
100
AcDbEntity
  8
handle5
  6
ByLayer
 62
  256
370
   -1
100
AcDbLine
 10
159.6810420497166
 20
-133.9649759870232
 11
157.6783888732381
 21
-133.1558389783102
  0
LINE
  5
26B
100
AcDbEntity
  8
handle5
  6
ByLayer
 62
  256
370
   -1
100
AcDbLine
 10
157.6783888732381
 20
-133.1558389783102
 11
155.838815108502
 21
-134.7745304425507
  0
LINE
  5
26C
100
AcDbEntity
  8
handle5
  6
ByLayer
 62
  256
370
   -1
100
AcDbLine
 10
157.0884100107195
 20
-137.5479317120648
 11
156.8974585706614
 21
-135.2022568278909
  0
LINE
  5
26D
100
AcDbEntity
  8
handle5
  6
ByLayer
 62
  256
370
   -1
100
AcDbLine
 10
156.8974585706614
 20
-135.2022568278909
 11
150.2536467837874
 21
-132.5179408121059
  0
LINE
  5
26E
100
AcDbEntity
  8
handle5
  6
ByLayer
 62
  256
370
   -1
100
AcDbLine
 10
150.4466120611325
 20
-134.8883674829755
 11
150.2536467837874
 21
-132.5179408121059
  0
LINE
  5
26F
100
AcDbEntity
  8
handle5
  6
ByLayer
 62
  256
370
   -1
100
AcDbLine
 10
147.344066520227
 20
-132.4801528661111
 11
149.3857338854485
 21
-133.3050528758009
  0
LINE
  5
270
100
AcDbEntity
  8
handle5
  6
ByLayer
 62
  256
370
   -1
100
AcDbLine
 10
145.5006523920731
 20
-132.8900389362048
 11
145.3076850285689
 21
-130.5196114224591
  0
LINE
  5
271
100
AcDbEntity
  8
handle5
  6
ByLayer
 62
  256
370
   -1
100
AcDbLine
 10
168.5346254293481
 20
-128.7148006916942
 11
158.9343755800795
 21
-137.1623257225599
  0
LINE
  5
272
100
AcDbEntity
  8
handle5
  6
ByLayer
 62
  256
370
   -1
100
AcDbLine
 10
164.7706431890198
 20
-129.4864924264692
 11
164.9635866127796
 21
-131.8566748770575
  0
LINE
  5
273
100
AcDbEntity
  8
handle5
  6
ByLayer
 62
  256
370
   -1
100
AcDbLine
 10
167.5453978485759
 20
-128.3151062891922
 11
165.7599232514644
 21
-129.8861937426569
  0
LINE
  5
274
100
AcDbEntity
  8
handle5
  6
ByLayer
 62
  256
370
   -1
100
AcDbLine
 10
165.7599232514644
 20
-129.8861937426569
 11
161.9508108912112
 21
-128.347188478427
  0
LINE
  5
275
100
AcDbEntity
  8
handle5
  6
ByLayer
 62
  256
370
   -1
100
AcDbLine
 10
170.6170883394497
 20
-131.8486463911123
 11
177.3496965617615
 21
-134.5688390544358
  0
LINE
  5
276
100
AcDbEntity
  8
handle5
  6
ByLayer
 62
  256
370
   -1
100
AcDbLine
 10
172.40255171448
 20
-130.2775686941785
 11
170.6170883394497
 21
-131.8486463911123
  0
LINE
  5
277
100
AcDbEntity
  8
handle5
  6
ByLayer
 62
  256
370
   -1
100
AcDbLine
 10
170.5241498175583
 20
-141.8449714089504
 11
170.3311751201815
 21
-139.4744365836171
  0
LINE
  5
278
100
AcDbEntity
  8
handle5
  6
ByLayer
 62
  256
370
   -1
100
AcDbLine
 10
176.3604164993168
 20
-134.1691377382481
 11
170.3311751201815
 21
-139.4744365836171
  0
LINE
  5
279
100
AcDbEntity
  8
handle5
  6
ByLayer
 62
  256
370
   -1
100
AcDbLine
 10
171.2708153600136
 20
-138.6476212988021
 11
170.5024324894111
 21
-130.6562129012615
  0
LINE
  5
27A
100
AcDbEntity
  8
handle5
  6
ByLayer
 62
  256
370
   -1
100
AcDbLine
 10
168.6311199501271
 20
-129.9001417811158
 11
170.5024324894111
 21
-130.6562129012615
  0
LINE
  5
27B
100
AcDbEntity
  8
handle5
  6
ByLayer
 62
  256
370
   -1
100
AcDbLine
 10
171.2708153600136
 20
-138.6476212988021
 11
169.2681600973762
 21
-137.8384834472129
  0
LINE
  5
27C
100
AcDbEntity
  8
handle5
  6
ByLayer
 62
  256
370
   -1
100
AcDbLine
 10
164.7706431890198
 20
-129.4864924264692
 11
159.6810420497166
 21
-133.9649759870232
  0
LINE
  5
27D
100
AcDbEntity
  8
handle5
  6
ByLayer
 62
  256
370
   -1
100
AcDbLine
 10
158.9343755800795
 20
-137.1623257225599
 11
158.8429546811744
 21
-136.039282702331
  0
LINE
  5
27E
100
AcDbEntity
  8
handle5
  6
ByLayer
 62
  256
370
   -1
100
AcDbLine
 10
169.2681600973762
 20
-137.8384834472129
 11
167.4285874916173
 21
-139.457175379718
  0
LINE
  5
27F
100
AcDbEntity
  8
handle5
  6
ByLayer
 62
  256
370
   -1
100
AcDbLine
 10
168.4872307219812
 20
-139.8849016714053
 11
161.8434191669026
 21
-137.2005857492733
  0
LINE
  5
280
100
AcDbEntity
  8
handle5
  6
ByLayer
 62
  256
370
   -1
100
AcDbLine
 10
168.6311199501271
 20
-129.9001417811158
 11
166.7915489364677
 21
-131.518829773098
  0
LINE
  5
281
100
AcDbEntity
  8
handle5
  6
ByLayer
 62
  256
370
   -1
100
AcDbLine
 10
164.9633015632704
 20
-131.8573049769225
 11
166.8808860388495
 21
-132.6320714640748
  0
LINE
  5
282
100
AcDbEntity
  8
handle5
  6
ByLayer
 62
  256
370
   -1
100
AcDbLine
 10
166.7915489364677
 20
-131.518829773098
 11
167.4285895777764
 21
-139.4571762225941
  0
LINE
  5
283
100
AcDbEntity
  8
handle5
  6
ByLayer
 62
  256
370
   -1
100
AcDbLine
 10
160.9755062685637
 20
-137.9876978129682
 11
166.8808860388495
 21
-132.6320714640748
  0
LINE
  5
284
100
AcDbEntity
  8
handle5
  6
ByLayer
 62
  256
370
   -1
100
AcDbLine
 10
158.9338391351378
 20
-137.1627978969314
 11
160.9755062685637
 21
-137.9876978129682
  0
LINE
  5
285
100
AcDbEntity
  8
handle5
  6
ByLayer
 62
  256
370
   -1
100
AcDbLine
 10
177.9529146156966
 20
-130.2276279853123
 11
179.7381905775043
 21
-128.6567104973328
  0
LINE
  5
286
100
AcDbEntity
  8
handle5
  6
ByLayer
 62
  256
370
   -1
100
AcDbLine
 10
179.1351629174176
 20
-132.9977719989714
 11
178.9421946781411
 21
-130.6273293015
  0
LINE
  5
287
100
AcDbEntity
  8
handle5
  6
ByLayer
 62
  256
370
   -1
100
AcDbLine
 10
183.7993597661264
 20
-132.5897819499556
 11
186.7228547010033
 21
-133.7709689744374
  0
LINE
  5
288
100
AcDbEntity
  8
handle5
  6
ByLayer
 62
  256
370
   -1
100
AcDbLine
 10
183.9923250247771
 20
-134.9602140059574
 11
183.7993597661264
 21
-132.5897819499556
  0
LINE
  5
289
100
AcDbEntity
  8
handle5
  6
ByLayer
 62
  256
370
   -1
100
AcDbLine
 10
181.0172283856314
 20
-132.611819196402
 11
182.8885399977336
 21
-133.3678899419361
  0
LINE
  5
28A
100
AcDbEntity
  8
handle5
  6
ByLayer
 62
  256
370
   -1
100
AcDbLine
 10
181.0172283856314
 20
-132.611819196402
 11
180.818413330558
 21
-130.1695569452176
  0
LINE
  5
28B
100
AcDbEntity
  8
handle5
  6
ByLayer
 62
  256
370
   -1
100
AcDbLine
 10
179.7384232412401
 20
-128.6560592319119
 11
181.6560067896374
 21
-129.4308253444526
  0
LINE
  5
28C
100
AcDbEntity
  8
handle5
  6
ByLayer
 62
  256
370
   -1
100
AcDbLine
 10
180.1243987396452
 20
-133.3974460034731
 11
170.5241486585811
 21
-141.8449709406859
  0
LINE
  5
28D
100
AcDbEntity
  8
handle5
  6
ByLayer
 62
  256
370
   -1
100
AcDbLine
 10
176.3604164993168
 20
-134.1691377382481
 11
176.5533599230766
 21
-136.5393201888364
  0
LINE
  5
28E
100
AcDbEntity
  8
handle5
  6
ByLayer
 62
  256
370
   -1
100
AcDbLine
 10
179.1351711588731
 20
-132.9977516009711
 11
177.3496965617615
 21
-134.5688390544358
  0
LINE
  5
28F
100
AcDbEntity
  8
handle5
  6
ByLayer
 62
  256
370
   -1
100
AcDbLine
 10
182.2068616497468
 20
-136.5312917028912
 11
185.1303565846236
 21
-137.7124787273731
  0
LINE
  5
290
100
AcDbEntity
  8
handle5
  6
ByLayer
 62
  256
370
   -1
100
AcDbLine
 10
183.9923250247771
 20
-134.9602140059574
 11
182.2068616497468
 21
-136.5312917028912
  0
LINE
  5
291
100
AcDbEntity
  8
handle5
  6
ByLayer
 62
  256
370
   -1
100
AcDbLine
 10
180.2208932604242
 20
-134.5827870928948
 11
181.2439601437287
 21
-147.3314976247934
  0
LINE
  5
292
100
AcDbEntity
  8
handle5
  6
ByLayer
 62
  256
370
   -1
100
AcDbLine
 10
182.0225003745867
 20
-145.4045729512771
 11
181.9209484304786
 21
-144.1570818953961
  0
LINE
  5
293
100
AcDbEntity
  8
handle5
  6
ByLayer
 62
  256
370
   -1
100
AcDbLine
 10
182.860587743129
 20
-143.3302662359695
 11
181.9209484304786
 21
-144.1570818953961
  0
LINE
  5
294
100
AcDbEntity
  8
handle5
  6
ByLayer
 62
  256
370
   -1
100
AcDbLine
 10
182.860587743129
 20
-143.3302662359695
 11
182.0922048725265
 21
-135.3388578384289
  0
LINE
  5
295
100
AcDbEntity
  8
handle5
  6
ByLayer
 62
  256
370
   -1
100
AcDbLine
 10
180.2208932604242
 20
-134.5827870928948
 11
182.0922048725265
 21
-135.3388578384289
  0
LINE
  5
296
100
AcDbEntity
  8
handle5
  6
ByLayer
 62
  256
370
   -1
100
AcDbLine
 10
182.860587743129
 20
-143.3302662359695
 11
180.8579345666505
 21
-142.5211292272564
  0
LINE
  5
297
100
AcDbEntity
  8
handle5
  6
ByLayer
 62
  256
370
   -1
100
AcDbLine
 10
180.8579345666505
 20
-142.5211292272564
 11
179.0183608019144
 21
-144.139820691497
  0
LINE
  5
298
100
AcDbEntity
  8
handle5
  6
ByLayer
 62
  256
370
   -1
100
AcDbLine
 10
180.2679557041319
 20
-146.913221961011
 11
180.0770042640738
 21
-144.5675470768371
  0
LINE
  5
299
100
AcDbEntity
  8
handle5
  6
ByLayer
 62
  256
370
   -1
100
AcDbLine
 10
180.0770042640738
 20
-144.5675470768371
 11
173.4331924771997
 21
-141.8832310610522
  0
LINE
  5
29A
100
AcDbEntity
  8
handle5
  6
ByLayer
 62
  256
370
   -1
100
AcDbLine
 10
173.6261577545449
 20
-144.2536577319218
 11
173.4331924771997
 21
-141.8832310610522
  0
LINE
  5
29B
100
AcDbEntity
  8
handle5
  6
ByLayer
 62
  256
370
   -1
100
AcDbLine
 10
180.2208932604242
 20
-134.5827870928948
 11
178.3813222467647
 21
-136.201475084877
  0
LINE
  5
29C
100
AcDbEntity
  8
handle5
  6
ByLayer
 62
  256
370
   -1
100
AcDbLine
 10
176.5530748735675
 20
-136.5399502887014
 11
178.4706584219647
 21
-137.314716401242
  0
LINE
  5
29D
100
AcDbEntity
  8
handle5
  6
ByLayer
 62
  256
370
   -1
100
AcDbLine
 10
178.3813222467647
 20
-136.201475084877
 11
179.0183628880736
 21
-144.1398215343731
  0
LINE
  5
29E
100
AcDbEntity
  8
handle5
  6
ByLayer
 62
  256
370
   -1
100
AcDbLine
 10
172.5652795788608
 20
-142.6703431247471
 11
178.4706584219647
 21
-137.314716401242
  0
LINE
  5
29F
100
AcDbEntity
  8
handle5
  6
ByLayer
 62
  256
370
   -1
100
AcDbLine
 10
170.5236122136395
 20
-141.8454431150574
 11
172.5652795788608
 21
-142.6703431247471
  0
LINE
  5
2A0
100
AcDbEntity
  8
handle5
  6
ByLayer
 62
  256
370
   -1
100
AcDbLine
 10
168.6801980854854
 20
-142.2553291851511
 11
168.4872307219812
 21
-139.8849016714053
  0
LINE
  5
2A1
100
AcDbEntity
  8
handle5
  6
ByLayer
 62
  256
370
   -1
100
AcDbLine
 10
168.6311199501271
 20
-129.9001417811158
 11
169.6541877606134
 21
-142.648852687626
  0
LINE
  5
2A2
100
AcDbEntity
  8
handle5
  6
ByLayer
 62
  256
370
   -1
100
AcDbLine
 10
162.0363844442477
 20
-139.5710124201429
 11
161.8434191669026
 21
-137.2005857492733
  0
LINE
  5
2A3
100
AcDbEntity
  8
handle5
  6
ByLayer
 62
  256
370
   -1
100
AcDbLine
 10
189.5426869988118
 20
-134.9102729224797
 11
191.3279629606197
 21
-133.3393554345001
  0
LINE
  5
2A4
100
AcDbEntity
  8
handle5
  6
ByLayer
 62
  256
370
   -1
100
AcDbLine
 10
190.7249353005329
 20
-137.6804169361388
 11
190.5319670612565
 21
-135.3099742386674
  0
LINE
  5
2A5
100
AcDbEntity
  8
handle5
  6
ByLayer
 62
  256
370
   -1
100
AcDbLine
 10
190.5319670612565
 20
-135.3099742386674
 11
186.7228547010033
 21
-133.7709689744374
  0
LINE
  5
2A6
100
AcDbEntity
  8
handle5
  6
ByLayer
 62
  256
370
   -1
100
AcDbLine
 10
195.5820974078925
 20
-139.6428589431247
 11
195.3891321492417
 21
-137.2724268871228
  0
LINE
  5
2A7
100
AcDbEntity
  8
handle5
  6
ByLayer
 62
  256
370
   -1
100
AcDbLine
 10
192.6070007687467
 20
-137.2944641335692
 11
194.4783133080307
 21
-138.0505352537151
  0
LINE
  5
2A8
100
AcDbEntity
  8
handle5
  6
ByLayer
 62
  256
370
   -1
100
AcDbLine
 10
192.6070007687467
 20
-137.2944641335692
 11
192.4081857136733
 21
-134.852201882385
  0
LINE
  5
2A9
100
AcDbEntity
  8
handle5
  6
ByLayer
 62
  256
370
   -1
100
AcDbLine
 10
191.3281956243555
 20
-133.3387041690792
 11
193.2457800999345
 21
-134.1134706562315
  0
LINE
  5
2AA
100
AcDbEntity
  8
handle5
  6
ByLayer
 62
  256
370
   -1
100
AcDbLine
 10
191.7141711227604
 20
-138.0800909406403
 11
182.1139212734918
 21
-146.5276159715062
  0
LINE
  5
2AB
100
AcDbEntity
  8
handle5
  6
ByLayer
 62
  256
370
   -1
100
AcDbLine
 10
187.9501888824322
 20
-138.8517826754153
 11
188.1431323061919
 21
-141.2219651260037
  0
LINE
  5
2AC
100
AcDbEntity
  8
handle5
  6
ByLayer
 62
  256
370
   -1
100
AcDbLine
 10
190.7249435419884
 20
-137.6803965381385
 11
188.9394689448768
 21
-139.2514839916032
  0
LINE
  5
2AD
100
AcDbEntity
  8
handle5
  6
ByLayer
 62
  256
370
   -1
100
AcDbLine
 10
188.9394689448768
 20
-139.2514839916032
 11
185.1303565846236
 21
-137.7124787273731
  0
LINE
  5
2AE
100
AcDbEntity
  8
handle5
  6
ByLayer
 62
  256
370
   -1
100
AcDbLine
 10
195.5820974078925
 20
-139.6428589431247
 11
193.7966340328621
 21
-141.2139366400586
  0
LINE
  5
2AF
100
AcDbEntity
  8
handle5
  6
ByLayer
 62
  256
370
   -1
100
AcDbLine
 10
193.7036955109708
 20
-151.2102616578966
 11
193.510720813594
 21
-148.8397268325634
  0
LINE
  5
2B0
100
AcDbEntity
  8
handle5
  6
ByLayer
 62
  256
370
   -1
100
AcDbLine
 10
199.5399621927293
 20
-143.5344279871944
 11
193.510720813594
 21
-148.8397268325634
  0
LINE
  5
2B1
100
AcDbEntity
  8
handle5
  6
ByLayer
 62
  256
370
   -1
100
AcDbLine
 10
194.4503610534261
 20
-148.0129115477484
 11
193.6819781828236
 21
-140.0215031502078
  0
LINE
  5
2B2
100
AcDbEntity
  8
handle5
  6
ByLayer
 62
  256
370
   -1
100
AcDbLine
 10
191.8106656435396
 20
-139.2654320300621
 11
193.6819781828236
 21
-140.0215031502078
  0
LINE
  5
2B3
100
AcDbEntity
  8
handle5
  6
ByLayer
 62
  256
370
   -1
100
AcDbLine
 10
194.4503610534261
 20
-148.0129115477484
 11
192.4477057907886
 21
-147.2037736961592
  0
LINE
  5
2B4
100
AcDbEntity
  8
handle5
  6
ByLayer
 62
  256
370
   -1
100
AcDbLine
 10
187.9501888824322
 20
-138.8517826754153
 11
182.860587743129
 21
-143.3302662359695
  0
LINE
  5
2B5
100
AcDbEntity
  8
handle5
  6
ByLayer
 62
  256
370
   -1
100
AcDbLine
 10
182.1139212734918
 20
-146.5276159715062
 11
182.0225003745867
 21
-145.4045729512771
  0
LINE
  5
2B6
100
AcDbEntity
  8
handle5
  6
ByLayer
 62
  256
370
   -1
100
AcDbLine
 10
192.4477057907886
 20
-147.2037736961592
 11
190.6081331850297
 21
-148.8224656286642
  0
LINE
  5
2B7
100
AcDbEntity
  8
handle5
  6
ByLayer
 62
  256
370
   -1
100
AcDbLine
 10
191.6667764153936
 20
-149.2501919203515
 11
185.0229648603151
 21
-146.5658759982196
  0
LINE
  5
2B8
100
AcDbEntity
  8
handle5
  6
ByLayer
 62
  256
370
   -1
100
AcDbLine
 10
191.8106656435396
 20
-139.2654320300621
 11
189.97109462988
 21
-140.8841200220443
  0
LINE
  5
2B9
100
AcDbEntity
  8
handle5
  6
ByLayer
 62
  256
370
   -1
100
AcDbLine
 10
188.1428472566828
 20
-141.2225952258688
 11
190.0604317322619
 21
-141.9973617130211
  0
LINE
  5
2BA
100
AcDbEntity
  8
handle5
  6
ByLayer
 62
  256
370
   -1
100
AcDbLine
 10
189.97109462988
 20
-140.8841200220443
 11
190.6081352711888
 21
-148.8224664715403
  0
LINE
  5
2BB
100
AcDbEntity
  8
handle5
  6
ByLayer
 62
  256
370
   -1
100
AcDbLine
 10
184.1550519619761
 20
-147.3529880619145
 11
190.0604317322619
 21
-141.9973617130211
  0
LINE
  5
2BC
100
AcDbEntity
  8
handle5
  6
ByLayer
 62
  256
370
   -1
100
AcDbLine
 10
182.1133848285502
 20
-146.5280881458776
 11
184.1550519619761
 21
-147.3529880619145
  0
LINE
  5
2BD
100
AcDbEntity
  8
handle5
  6
ByLayer
 62
  256
370
   -1
100
AcDbLine
 10
199.5399621927293
 20
-143.5344279871944
 11
199.7329056164891
 21
-145.9046104377827
  0
LINE
  5
2BE
100
AcDbEntity
  8
handle5
  6
ByLayer
 62
  256
370
   -1
100
AcDbLine
 10
196.8057034479572
 20
-153.6189479808681
 11
196.6127381706121
 21
-151.2485213099984
  0
LINE
  5
2BF
100
AcDbEntity
  8
handle5
  6
ByLayer
 62
  256
370
   -1
100
AcDbLine
 10
193.7031579070519
 20
-151.2107333640036
 11
195.7448252722732
 21
-152.0356333736934
  0
LINE
  5
2C0
100
AcDbEntity
  8
handle5
  6
ByLayer
 62
  256
370
   -1
100
AcDbLine
 10
191.8597437788978
 20
-151.6206194340973
 11
191.6667764153936
 21
-149.2501919203515
  0
LINE
  5
2C1
100
AcDbEntity
  8
handle5
  6
ByLayer
 62
  256
370
   -1
100
AcDbLine
 10
191.8106656435396
 20
-139.2654320300621
 11
192.8337334540258
 21
-152.0141429365723
  0
LINE
  5
2C2
100
AcDbEntity
  8
handle5
  6
ByLayer
 62
  256
370
   -1
100
AcDbLine
 10
185.2159301376601
 20
-148.9363026690892
 11
185.0229648603151
 21
-146.5658759982196
  0
LINE
  5
2C3
100
AcDbEntity
  8
handle5
  6
ByLayer
 62
  256
370
   -1
100
AcDbLine
 10
128.0749771938264
 20
-137.0387494634299
 11
130.9984721287032
 21
-138.2199364879119
  0
LINE
  5
2C4
100
AcDbEntity
  8
handle5
  6
ByLayer
 62
  256
370
   -1
100
AcDbLine
 10
128.2679424524771
 20
-139.4091815194319
 11
128.0749771938264
 21
-137.0387494634299
  0
LINE
  5
2C5
100
AcDbEntity
  8
handle5
  6
ByLayer
 62
  256
370
   -1
100
AcDbLine
 10
125.2928458133314
 20
-137.0607867098764
 11
134.8848687569039
 21
-128.6009171269009
  0
LINE
  5
2C6
100
AcDbEntity
  8
handle5
  6
ByLayer
 62
  256
370
   -1
100
AcDbLine
 10
134.1063282450871
 20
-130.5278424958034
 11
133.1666873403374
 21
-131.3546620957529
  0
LINE
  5
2C7
100
AcDbEntity
  8
handle5
  6
ByLayer
 62
  256
370
   -1
100
AcDbLine
 10
133.2682392844457
 20
-132.6021531516338
 11
133.1666873403374
 21
-131.3546620957529
  0
LINE
  5
2C8
100
AcDbEntity
  8
handle5
  6
ByLayer
 62
  256
370
   -1
100
AcDbLine
 10
133.2682392844457
 20
-132.6021531516338
 11
127.1641574254336
 21
-137.8168574554105
  0
LINE
  5
2C9
100
AcDbEntity
  8
handle5
  6
ByLayer
 62
  256
370
   -1
100
AcDbLine
 10
125.2928458133314
 20
-137.0607867098764
 11
127.1641574254336
 21
-137.8168574554105
  0
LINE
  5
2CA
100
AcDbEntity
  8
handle5
  6
ByLayer
 62
  256
370
   -1
100
AcDbLine
 10
133.2682392844457
 20
-132.6021531516338
 11
131.2655861079672
 21
-131.7930161429209
  0
LINE
  5
2CB
100
AcDbEntity
  8
handle5
  6
ByLayer
 62
  256
370
   -1
100
AcDbLine
 10
131.2655861079672
 20
-131.7930161429209
 11
131.0667715796687
 21
-129.3507492511538
  0
LINE
  5
2CC
100
AcDbEntity
  8
handle5
  6
ByLayer
 62
  256
370
   -1
100
AcDbLine
 10
132.125415041828
 20
-129.778475636494
 11
125.4816032549541
 21
-127.0941596207091
  0
LINE
  5
2CD
100
AcDbEntity
  8
handle5
  6
ByLayer
 62
  256
370
   -1
100
AcDbLine
 10
127.2670663677201
 20
-125.5230772340293
 11
125.4816032549541
 21
-127.0941596207091
  0
LINE
  5
2CE
100
AcDbEntity
  8
handle5
  6
ByLayer
 62
  256
370
   -1
100
AcDbLine
 10
125.2928458133314
 20
-137.0607867098764
 11
125.094030758258
 21
-134.618524458692
  0
LINE
  5
2CF
100
AcDbEntity
  8
handle5
  6
ByLayer
 62
  256
370
   -1
100
AcDbLine
 10
124.0140406689401
 20
-133.1050267453863
 11
125.9316242173374
 21
-133.879792857927
  0
LINE
  5
2D0
100
AcDbEntity
  8
handle5
  6
ByLayer
 62
  256
370
   -1
100
AcDbLine
 10
125.094030758258
 20
-134.618524458692
 11
131.0667736658278
 21
-129.3507500940299
  0
LINE
  5
2D1
100
AcDbEntity
  8
handle5
  6
ByLayer
 62
  256
370
   -1
100
AcDbLine
 10
126.4824790774467
 20
-140.9802592163657
 11
129.4059740123236
 21
-142.1614462408476
  0
LINE
  5
2D2
100
AcDbEntity
  8
handle5
  6
ByLayer
 62
  256
370
   -1
100
AcDbLine
 10
128.2679424524771
 20
-139.4091815194319
 11
126.4824790774467
 21
-140.9802592163657
  0
LINE
  5
2D3
100
AcDbEntity
  8
handle5
  6
ByLayer
 62
  256
370
   -1
100
AcDbLine
 10
124.4965106881243
 20
-139.0317546063692
 11
125.5195775714288
 21
-151.7804651382678
  0
LINE
  5
2D4
100
AcDbEntity
  8
handle5
  6
ByLayer
 62
  256
370
   -1
100
AcDbLine
 10
126.2981178022869
 20
-149.8535404647516
 11
126.1965658581786
 21
-148.6060494088707
  0
LINE
  5
2D5
100
AcDbEntity
  8
handle5
  6
ByLayer
 62
  256
370
   -1
100
AcDbLine
 10
127.136205170829
 20
-147.7792337494439
 11
126.1965658581786
 21
-148.6060494088707
  0
LINE
  5
2D6
100
AcDbEntity
  8
handle5
  6
ByLayer
 62
  256
370
   -1
100
AcDbLine
 10
127.136205170829
 20
-147.7792337494439
 11
126.3678223002265
 21
-139.7878253519033
  0
LINE
  5
2D7
100
AcDbEntity
  8
handle5
  6
ByLayer
 62
  256
370
   -1
100
AcDbLine
 10
124.4965106881243
 20
-139.0317546063692
 11
126.3678223002265
 21
-139.7878253519033
  0
LINE
  5
2D8
100
AcDbEntity
  8
handle5
  6
ByLayer
 62
  256
370
   -1
100
AcDbLine
 10
127.136205170829
 20
-147.7792337494439
 11
125.1335519943505
 21
-146.9700967407309
  0
LINE
  5
2D9
100
AcDbEntity
  8
handle5
  6
ByLayer
 62
  256
370
   -1
100
AcDbLine
 10
124.5435731318318
 20
-151.3621894744855
 11
124.3526216917738
 21
-149.0165145903116
  0
LINE
  5
2DA
100
AcDbEntity
  8
handle5
  6
ByLayer
 62
  256
370
   -1
100
AcDbLine
 10
133.910882095117
 20
-128.2073948419136
 11
132.125415041828
 21
-129.778475636494
  0
LINE
  5
2DB
100
AcDbEntity
  8
handle5
  6
ByLayer
 62
  256
370
   -1
100
AcDbLine
 10
135.9897885504604
 20
-142.5290584541149
 11
134.9522286330601
 21
-129.7835123405389
  0
LINE
  5
2DC
100
AcDbEntity
  8
handle5
  6
ByLayer
 62
  256
370
   -1
100
AcDbLine
 10
133.8183044265118
 20
-139.3592404359541
 11
135.6035803883196
 21
-137.7883229479746
  0
LINE
  5
2DD
100
AcDbEntity
  8
handle5
  6
ByLayer
 62
  256
370
   -1
100
AcDbLine
 10
135.0005527282329
 20
-142.1293844496132
 11
134.8075844889565
 21
-139.7589417521418
  0
LINE
  5
2DE
100
AcDbEntity
  8
handle5
  6
ByLayer
 62
  256
370
   -1
100
AcDbLine
 10
134.8075844889565
 20
-139.7589417521418
 11
130.9984721287032
 21
-138.2199364879119
  0
LINE
  5
2DF
100
AcDbEntity
  8
handle5
  6
ByLayer
 62
  256
370
   -1
100
AcDbLine
 10
153.3817679210496
 20
-149.5559836994851
 11
130.2022222276373
 21
-140.1906934505389
  0
LINE
  5
2E0
100
AcDbEntity
  8
handle5
  6
ByLayer
 62
  256
370
   -1
100
AcDbLine
 10
139.6647495769417
 20
-141.7213944005973
 11
146.3973577992536
 21
-144.4415870639207
  0
LINE
  5
2E1
100
AcDbEntity
  8
handle5
  6
ByLayer
 62
  256
370
   -1
100
AcDbLine
 10
139.8577148355924
 20
-144.0918264565992
 11
139.6647495769417
 21
-141.7213944005973
  0
LINE
  5
2E2
100
AcDbEntity
  8
handle5
  6
ByLayer
 62
  256
370
   -1
100
AcDbLine
 10
136.8826181964467
 20
-141.7434316470437
 11
146.474642067201
 21
-133.2835624386797
  0
LINE
  5
2E3
100
AcDbEntity
  8
handle5
  6
ByLayer
 62
  256
370
   -1
100
AcDbLine
 10
146.5420017115618
 20
-134.466157558665
 11
144.7564597234528
 21
-136.0373070329202
  0
LINE
  5
2E4
100
AcDbEntity
  8
handle5
  6
ByLayer
 62
  256
370
   -1
100
AcDbLine
 10
145.4080777368089
 20
-144.041885747733
 11
144.7564597234528
 21
-136.0373070329202
  0
LINE
  5
2E5
100
AcDbEntity
  8
handle5
  6
ByLayer
 62
  256
370
   -1
100
AcDbLine
 10
144.8580125947428
 20
-137.2847984634128
 11
138.7539307357308
 21
-142.4995027671894
  0
LINE
  5
2E6
100
AcDbEntity
  8
handle5
  6
ByLayer
 62
  256
370
   -1
100
AcDbLine
 10
136.8826181964467
 20
-141.7434316470437
 11
138.7539307357308
 21
-142.4995027671894
  0
LINE
  5
2E7
100
AcDbEntity
  8
handle5
  6
ByLayer
 62
  256
370
   -1
100
AcDbLine
 10
144.8580125947428
 20
-137.2847984634128
 11
142.8553573321051
 21
-136.4756606118236
  0
LINE
  5
2E8
100
AcDbEntity
  8
handle5
  6
ByLayer
 62
  256
370
   -1
100
AcDbLine
 10
133.8183044265118
 20
-139.3592404359541
 11
133.2682392844457
 21
-132.6021531516338
  0
LINE
  5
2E9
100
AcDbEntity
  8
handle5
  6
ByLayer
 62
  256
370
   -1
100
AcDbLine
 10
134.9522286330601
 20
-129.7835123405389
 11
134.1063282450871
 21
-130.5278424958034
  0
LINE
  5
2EA
100
AcDbEntity
  8
handle5
  6
ByLayer
 62
  256
370
   -1
100
AcDbLine
 10
142.8553573321051
 20
-136.4756606118236
 11
142.656543962784
 21
-134.0333941883211
  0
LINE
  5
2EB
100
AcDbEntity
  8
handle5
  6
ByLayer
 62
  256
370
   -1
100
AcDbLine
 10
145.4820058179983
 20
-132.9064486375282
 11
143.715187193148
 21
-134.4611204800084
  0
LINE
  5
2EC
100
AcDbEntity
  8
handle5
  6
ByLayer
 62
  256
370
   -1
100
AcDbLine
 10
143.715187193148
 20
-134.4611204800084
 11
137.0713751744784
 21
-131.7768043705706
  0
LINE
  5
2ED
100
AcDbEntity
  8
handle5
  6
ByLayer
 62
  256
370
   -1
100
AcDbLine
 10
136.8826181964467
 20
-141.7434316470437
 11
136.6838031413733
 21
-139.3011693958594
  0
LINE
  5
2EE
100
AcDbEntity
  8
handle5
  6
ByLayer
 62
  256
370
   -1
100
AcDbLine
 10
135.6038130520555
 20
-137.7876716825537
 11
137.5213975276345
 21
-138.562438169706
  0
LINE
  5
2EF
100
AcDbEntity
  8
handle5
  6
ByLayer
 62
  256
370
   -1
100
AcDbLine
 10
136.6838031413733
 20
-139.3011693958594
 11
142.6565460489431
 21
-134.0333950311972
  0
LINE
  5
2F0
100
AcDbEntity
  8
handle5
  6
ByLayer
 62
  256
370
   -1
100
AcDbLine
 10
136.9938394799754
 20
-130.6076960156396
 11
137.5213975276345
 21
-138.562438169706
  0
LINE
  5
2F1
100
AcDbEntity
  8
handle5
  6
ByLayer
 62
  256
370
   -1
100
AcDbLine
 10
134.9521723465495
 20
-129.7827960996028
 11
136.9938394799754
 21
-130.6076960156396
  0
LINE
  5
2F2
100
AcDbEntity
  8
handle5
  6
ByLayer
 62
  256
370
   -1
100
AcDbLine
 10
135.9897885504604
 20
-142.5290584541149
 11
126.3895387011918
 21
-150.9765834849807
  0
LINE
  5
2F3
100
AcDbEntity
  8
handle5
  6
ByLayer
 62
  256
370
   -1
100
AcDbLine
 10
132.2258063101321
 20
-143.3007501888898
 11
132.4187497338918
 21
-145.6709326394782
  0
LINE
  5
2F4
100
AcDbEntity
  8
handle5
  6
ByLayer
 62
  256
370
   -1
100
AcDbLine
 10
135.0005609696883
 20
-142.1293640516129
 11
133.2150863725768
 21
-143.7004515050776
  0
LINE
  5
2F5
100
AcDbEntity
  8
handle5
  6
ByLayer
 62
  256
370
   -1
100
AcDbLine
 10
133.2150863725768
 20
-143.7004515050776
 11
129.4059740123236
 21
-142.1614462408476
  0
LINE
  5
2F6
100
AcDbEntity
  8
handle5
  6
ByLayer
 62
  256
370
   -1
100
AcDbLine
 10
138.072251460562
 20
-145.662904153533
 11
144.8048596828739
 21
-148.3830968168566
  0
LINE
  5
2F7
100
AcDbEntity
  8
handle5
  6
ByLayer
 62
  256
370
   -1
100
AcDbLine
 10
139.8577148355924
 20
-144.0918264565992
 11
138.072251460562
 21
-145.662904153533
  0
LINE
  5
2F8
100
AcDbEntity
  8
handle5
  6
ByLayer
 62
  256
370
   -1
100
AcDbLine
 10
137.9793129386707
 20
-155.6592291713711
 11
137.7863382412939
 21
-153.2886943460379
  0
LINE
  5
2F9
100
AcDbEntity
  8
handle5
  6
ByLayer
 62
  256
370
   -1
100
AcDbLine
 10
143.8155796204292
 20
-147.9833955006688
 11
137.7863382412939
 21
-153.2886943460379
  0
LINE
  5
2FA
100
AcDbEntity
  8
handle5
  6
ByLayer
 62
  256
370
   -1
100
AcDbLine
 10
138.7259784811261
 20
-152.4618790612228
 11
137.9575956105236
 21
-144.4704706636822
  0
LINE
  5
2FB
100
AcDbEntity
  8
handle5
  6
ByLayer
 62
  256
370
   -1
100
AcDbLine
 10
136.0862830712395
 20
-143.7143995435366
 11
137.9575956105236
 21
-144.4704706636822
  0
LINE
  5
2FC
100
AcDbEntity
  8
handle5
  6
ByLayer
 62
  256
370
   -1
100
AcDbLine
 10
138.7259784811261
 20
-152.4618790612228
 11
136.7233232184886
 21
-151.6527412096336
  0
LINE
  5
2FD
100
AcDbEntity
  8
handle5
  6
ByLayer
 62
  256
370
   -1
100
AcDbLine
 10
132.2258063101321
 20
-143.3007501888898
 11
127.136205170829
 21
-147.7792337494439
  0
LINE
  5
2FE
100
AcDbEntity
  8
handle5
  6
ByLayer
 62
  256
370
   -1
100
AcDbLine
 10
126.3895387011918
 20
-150.9765834849807
 11
126.2981178022869
 21
-149.8535404647516
  0
LINE
  5
2FF
100
AcDbEntity
  8
handle5
  6
ByLayer
 62
  256
370
   -1
100
AcDbLine
 10
136.7233232184886
 20
-151.6527412096336
 11
134.8837506127297
 21
-153.2714331421388
  0
LINE
  5
300
100
AcDbEntity
  8
handle5
  6
ByLayer
 62
  256
370
   -1
100
AcDbLine
 10
135.9423938430936
 20
-153.6991594338261
 11
129.2985822880151
 21
-151.014843511694
  0
LINE
  5
301
100
AcDbEntity
  8
handle5
  6
ByLayer
 62
  256
370
   -1
100
AcDbLine
 10
136.0862830712395
 20
-143.7143995435366
 11
134.2467120575801
 21
-145.3330875355188
  0
LINE
  5
302
100
AcDbEntity
  8
handle5
  6
ByLayer
 62
  256
370
   -1
100
AcDbLine
 10
132.4184646843827
 20
-145.6715627393432
 11
134.3360491599619
 21
-146.4463292264955
  0
LINE
  5
303
100
AcDbEntity
  8
handle5
  6
ByLayer
 62
  256
370
   -1
100
AcDbLine
 10
134.2467120575801
 20
-145.3330875355188
 11
134.8837526988887
 21
-153.2714339850149
  0
LINE
  5
304
100
AcDbEntity
  8
handle5
  6
ByLayer
 62
  256
370
   -1
100
AcDbLine
 10
128.4306693896761
 20
-151.8019555753889
 11
134.3360491599619
 21
-146.4463292264955
  0
LINE
  5
305
100
AcDbEntity
  8
handle5
  6
ByLayer
 62
  256
370
   -1
100
AcDbLine
 10
126.3890022562502
 20
-150.9770556593521
 11
128.4306693896761
 21
-151.8019555753889
  0
LINE
  5
306
100
AcDbEntity
  8
handle5
  6
ByLayer
 62
  256
370
   -1
100
AcDbLine
 10
147.5795618607575
 20
-147.2117037658938
 11
146.5420017115618
 21
-134.466157558665
  0
LINE
  5
307
100
AcDbEntity
  8
handle5
  6
ByLayer
 62
  256
370
   -1
100
AcDbLine
 10
145.4080777368089
 20
-144.041885747733
 11
147.1933536986167
 21
-142.4709682597535
  0
LINE
  5
308
100
AcDbEntity
  8
handle5
  6
ByLayer
 62
  256
370
   -1
100
AcDbLine
 10
146.59032603853
 20
-146.8120297613921
 11
146.3973577992536
 21
-144.4415870639207
  0
LINE
  5
309
100
AcDbEntity
  8
handle5
  6
ByLayer
 62
  256
370
   -1
100
AcDbLine
 10
151.2545228872388
 20
-146.4040397123762
 11
154.1780178221156
 21
-147.5852267368581
  0
LINE
  5
30A
100
AcDbEntity
  8
handle5
  6
ByLayer
 62
  256
370
   -1
100
AcDbLine
 10
151.4474881458895
 20
-148.7744717683781
 11
151.2545228872388
 21
-146.4040397123762
  0
LINE
  5
30B
100
AcDbEntity
  8
handle5
  6
ByLayer
 62
  256
370
   -1
100
AcDbLine
 10
148.4723915067438
 20
-146.4260769588226
 11
158.0644144503163
 21
-137.9662073758471
  0
LINE
  5
30C
100
AcDbEntity
  8
handle5
  6
ByLayer
 62
  256
370
   -1
100
AcDbLine
 10
157.2858739384995
 20
-139.8931327447496
 11
156.3462330337499
 21
-140.7199523446991
  0
LINE
  5
30D
100
AcDbEntity
  8
handle5
  6
ByLayer
 62
  256
370
   -1
100
AcDbLine
 10
156.447784977858
 20
-141.9674434005801
 11
156.3462330337499
 21
-140.7199523446991
  0
LINE
  5
30E
100
AcDbEntity
  8
handle5
  6
ByLayer
 62
  256
370
   -1
100
AcDbLine
 10
156.447784977858
 20
-141.9674434005801
 11
150.343703118846
 21
-147.1821477043568
  0
LINE
  5
30F
100
AcDbEntity
  8
handle5
  6
ByLayer
 62
  256
370
   -1
100
AcDbLine
 10
148.4723915067438
 20
-146.4260769588226
 11
150.343703118846
 21
-147.1821477043568
  0
LINE
  5
310
100
AcDbEntity
  8
handle5
  6
ByLayer
 62
  256
370
   -1
100
AcDbLine
 10
156.447784977858
 20
-141.9674434005801
 11
154.4451318013795
 21
-141.1583063918671
  0
LINE
  5
311
100
AcDbEntity
  8
handle5
  6
ByLayer
 62
  256
370
   -1
100
AcDbLine
 10
154.4451318013795
 20
-141.1583063918671
 11
154.246317273081
 21
-138.7160395001
  0
LINE
  5
312
100
AcDbEntity
  8
handle5
  6
ByLayer
 62
  256
370
   -1
100
AcDbLine
 10
155.3049607352405
 20
-139.1437658854402
 11
148.6611489483664
 21
-136.4594498696553
  0
LINE
  5
313
100
AcDbEntity
  8
handle5
  6
ByLayer
 62
  256
370
   -1
100
AcDbLine
 10
150.4466120611325
 20
-134.8883674829755
 11
148.6611489483664
 21
-136.4594498696553
  0
LINE
  5
314
100
AcDbEntity
  8
handle5
  6
ByLayer
 62
  256
370
   -1
100
AcDbLine
 10
148.4723915067438
 20
-146.4260769588226
 11
148.2735764516704
 21
-143.9838147076383
  0
LINE
  5
315
100
AcDbEntity
  8
handle5
  6
ByLayer
 62
  256
370
   -1
100
AcDbLine
 10
147.1935863623525
 20
-142.4703169943326
 11
149.1111699107498
 21
-143.2450831068732
  0
LINE
  5
316
100
AcDbEntity
  8
handle5
  6
ByLayer
 62
  256
370
   -1
100
AcDbLine
 10
148.2735764516704
 20
-143.9838147076383
 11
154.2463193592402
 21
-138.7160403429762
  0
LINE
  5
317
100
AcDbEntity
  8
handle5
  6
ByLayer
 62
  256
370
   -1
100
AcDbLine
 10
148.5836127902725
 20
-135.2903413274185
 11
149.1111699107498
 21
-143.2450831068732
  0
LINE
  5
318
100
AcDbEntity
  8
handle5
  6
ByLayer
 62
  256
370
   -1
100
AcDbLine
 10
146.5419454250512
 20
-134.4654413177287
 11
148.5836127902725
 21
-135.2903413274185
  0
LINE
  5
319
100
AcDbEntity
  8
handle5
  6
ByLayer
 62
  256
370
   -1
100
AcDbLine
 10
147.5795618607575
 20
-147.2117037658938
 11
137.9793117796934
 21
-155.6592287031065
  0
LINE
  5
31A
100
AcDbEntity
  8
handle5
  6
ByLayer
 62
  256
370
   -1
100
AcDbLine
 10
143.8155796204292
 20
-147.9833955006688
 11
144.008523044189
 21
-150.3535779512571
  0
LINE
  5
31B
100
AcDbEntity
  8
handle5
  6
ByLayer
 62
  256
370
   -1
100
AcDbLine
 10
146.5903342799854
 20
-146.8120093633918
 11
144.8048596828739
 21
-148.3830968168566
  0
LINE
  5
31C
100
AcDbEntity
  8
handle5
  6
ByLayer
 62
  256
370
   -1
100
AcDbLine
 10
149.6620247708592
 20
-150.3455494653119
 11
152.585519705736
 21
-151.5267364897938
  0
LINE
  5
31D
100
AcDbEntity
  8
handle5
  6
ByLayer
 62
  256
370
   -1
100
AcDbLine
 10
151.4474881458895
 20
-148.7744717683781
 11
149.6620247708592
 21
-150.3455494653119
  0
LINE
  5
31E
100
AcDbEntity
  8
handle5
  6
ByLayer
 62
  256
370
   -1
100
AcDbLine
 10
147.6760563815366
 20
-148.3970448553155
 11
148.699123264841
 21
-161.1457553872141
  0
LINE
  5
31F
100
AcDbEntity
  8
handle5
  6
ByLayer
 62
  256
370
   -1
100
AcDbLine
 10
149.4776634956992
 20
-159.2188307136979
 11
149.376111551591
 21
-157.9713396578169
  0
LINE
  5
320
100
AcDbEntity
  8
handle5
  6
ByLayer
 62
  256
370
   -1
100
AcDbLine
 10
150.3157508642414
 20
-157.1445239983902
 11
149.376111551591
 21
-157.9713396578169
  0
LINE
  5
321
100
AcDbEntity
  8
handle5
  6
ByLayer
 62
  256
370
   -1
100
AcDbLine
 10
150.3157508642414
 20
-157.1445239983902
 11
149.5473679936388
 21
-149.1531156008496
  0
LINE
  5
322
100
AcDbEntity
  8
handle5
  6
ByLayer
 62
  256
370
   -1
100
AcDbLine
 10
147.6760563815366
 20
-148.3970448553155
 11
149.5473679936388
 21
-149.1531156008496
  0
LINE
  5
323
100
AcDbEntity
  8
handle5
  6
ByLayer
 62
  256
370
   -1
100
AcDbLine
 10
150.3157508642414
 20
-157.1445239983902
 11
148.3130976877629
 21
-156.3353869896771
  0
LINE
  5
324
100
AcDbEntity
  8
handle5
  6
ByLayer
 62
  256
370
   -1
100
AcDbLine
 10
148.3130976877629
 20
-156.3353869896771
 11
146.4735239230268
 21
-157.9540784539177
  0
LINE
  5
325
100
AcDbEntity
  8
handle5
  6
ByLayer
 62
  256
370
   -1
100
AcDbLine
 10
147.7231188252443
 20
-160.7274797234317
 11
147.5321673851861
 21
-158.3818048392578
  0
LINE
  5
326
100
AcDbEntity
  8
handle5
  6
ByLayer
 62
  256
370
   -1
100
AcDbLine
 10
147.5321673851861
 20
-158.3818048392578
 11
140.8883555983121
 21
-155.6974888234729
  0
LINE
  5
327
100
AcDbEntity
  8
handle5
  6
ByLayer
 62
  256
370
   -1
100
AcDbLine
 10
141.0813208756572
 20
-158.0679154943425
 11
140.8883555983121
 21
-155.6974888234729
  0
LINE
  5
328
100
AcDbEntity
  8
handle5
  6
ByLayer
 62
  256
370
   -1
100
AcDbLine
 10
147.6760563815366
 20
-148.3970448553155
 11
145.8364853678772
 21
-150.0157328472977
  0
LINE
  5
329
100
AcDbEntity
  8
handle5
  6
ByLayer
 62
  256
370
   -1
100
AcDbLine
 10
144.0082379946799
 20
-150.3542080511221
 11
145.9258215430771
 21
-151.1289741636627
  0
LINE
  5
32A
100
AcDbEntity
  8
handle5
  6
ByLayer
 62
  256
370
   -1
100
AcDbLine
 10
145.8364853678772
 20
-150.0157328472977
 11
146.4735260091859
 21
-157.9540792967938
  0
LINE
  5
32B
100
AcDbEntity
  8
handle5
  6
ByLayer
 62
  256
370
   -1
100
AcDbLine
 10
140.0204426999732
 20
-156.4846008871678
 11
145.9258215430771
 21
-151.1289741636627
  0
LINE
  5
32C
100
AcDbEntity
  8
handle5
  6
ByLayer
 62
  256
370
   -1
100
AcDbLine
 10
137.9787753347519
 20
-155.6597008774781
 11
140.0204426999732
 21
-156.4846008871678
  0
LINE
  5
32D
100
AcDbEntity
  8
handle5
  6
ByLayer
 62
  256
370
   -1
100
AcDbLine
 10
158.0644144503163
 20
-137.9662073758471
 11
134.8848687569039
 21
-128.6009171269009
  0
LINE
  5
32E
100
AcDbEntity
  8
handle5
  6
ByLayer
 62
  256
370
   -1
100
AcDbLine
 10
136.1353612065978
 20
-156.0695869475717
 11
135.9423938430936
 21
-153.6991594338261
  0
LINE
  5
32F
100
AcDbEntity
  8
handle5
  6
ByLayer
 62
  256
370
   -1
100
AcDbLine
 10
136.0862830712395
 20
-143.7143995435366
 11
137.1093508817259
 21
-156.4631104500467
  0
LINE
  5
330
100
AcDbEntity
  8
handle5
  6
ByLayer
 62
  256
370
   -1
100
AcDbLine
 10
129.4915475653601
 20
-153.3852701825636
 11
129.2985822880151
 21
-151.014843511694
  0
LINE
  5
331
100
AcDbEntity
  8
handle5
  6
ByLayer
 62
  256
370
   -1
100
AcDbLine
 10
157.0904277885293
 20
-137.5726850908599
 11
155.3049607352405
 21
-139.1437658854402
  0
LINE
  5
332
100
AcDbEntity
  8
handle5
  6
ByLayer
 62
  256
370
   -1
100
AcDbLine
 10
138.8568389826308
 20
-130.2057222648496
 11
137.0713751744784
 21
-131.7768043705706
  0
LINE
  5
333
100
AcDbEntity
  8
handle5
  6
ByLayer
 62
  256
370
   -1
100
AcDbLine
 10
159.1693342438728
 20
-151.8943487030612
 11
158.1317743264726
 21
-139.1488025894852
  0
LINE
  5
334
100
AcDbEntity
  8
handle5
  6
ByLayer
 62
  256
370
   -1
100
AcDbLine
 10
156.9978501199242
 20
-148.7245306849004
 11
158.783126081732
 21
-147.1536131969208
  0
LINE
  5
335
100
AcDbEntity
  8
handle5
  6
ByLayer
 62
  256
370
   -1
100
AcDbLine
 10
158.1800984216453
 20
-151.4946746985594
 11
157.9871301823687
 21
-149.124232001088
  0
LINE
  5
336
100
AcDbEntity
  8
handle5
  6
ByLayer
 62
  256
370
   -1
100
AcDbLine
 10
157.9871301823687
 20
-149.124232001088
 11
154.1780178221156
 21
-147.5852267368581
  0
LINE
  5
337
100
AcDbEntity
  8
handle5
  6
ByLayer
 62
  256
370
   -1
100
AcDbLine
 10
176.561313614462
 20
-158.9212739484314
 11
153.3817679210496
 21
-149.5559836994851
  0
LINE
  5
338
100
AcDbEntity
  8
handle5
  6
ByLayer
 62
  256
370
   -1
100
AcDbLine
 10
162.8442952703541
 20
-151.0866846495435
 11
169.576903492666
 21
-153.806877312867
  0
LINE
  5
339
100
AcDbEntity
  8
handle5
  6
ByLayer
 62
  256
370
   -1
100
AcDbLine
 10
163.0372605290048
 20
-153.4571167055455
 11
162.8442952703541
 21
-151.0866846495435
  0
LINE
  5
33A
100
AcDbEntity
  8
handle5
  6
ByLayer
 62
  256
370
   -1
100
AcDbLine
 10
160.0621638898592
 20
-151.1087218959899
 11
169.6541877606134
 21
-142.648852687626
  0
LINE
  5
33B
100
AcDbEntity
  8
handle5
  6
ByLayer
 62
  256
370
   -1
100
AcDbLine
 10
169.7215474049742
 20
-143.8314478076112
 11
167.9360054168652
 21
-145.4025972818665
  0
LINE
  5
33C
100
AcDbEntity
  8
handle5
  6
ByLayer
 62
  256
370
   -1
100
AcDbLine
 10
168.5876234302213
 20
-153.4071759966793
 11
167.9360054168652
 21
-145.4025972818665
  0
LINE
  5
33D
100
AcDbEntity
  8
handle5
  6
ByLayer
 62
  256
370
   -1
100
AcDbLine
 10
168.0375582881551
 20
-146.650088712359
 11
161.9334764291431
 21
-151.8647930161357
  0
LINE
  5
33E
100
AcDbEntity
  8
handle5
  6
ByLayer
 62
  256
370
   -1
100
AcDbLine
 10
160.0621638898592
 20
-151.1087218959899
 11
161.9334764291431
 21
-151.8647930161357
  0
LINE
  5
33F
100
AcDbEntity
  8
handle5
  6
ByLayer
 62
  256
370
   -1
100
AcDbLine
 10
168.0375582881551
 20
-146.650088712359
 11
166.0349030255176
 21
-145.8409508607699
  0
LINE
  5
340
100
AcDbEntity
  8
handle5
  6
ByLayer
 62
  256
370
   -1
100
AcDbLine
 10
156.9978501199242
 20
-148.7245306849004
 11
156.447784977858
 21
-141.9674434005801
  0
LINE
  5
341
100
AcDbEntity
  8
handle5
  6
ByLayer
 62
  256
370
   -1
100
AcDbLine
 10
158.1317743264726
 20
-139.1488025894852
 11
157.2858739384995
 21
-139.8931327447496
  0
LINE
  5
342
100
AcDbEntity
  8
handle5
  6
ByLayer
 62
  256
370
   -1
100
AcDbLine
 10
166.0349030255176
 20
-145.8409508607699
 11
165.8360896561964
 21
-143.3986844372673
  0
LINE
  5
343
100
AcDbEntity
  8
handle5
  6
ByLayer
 62
  256
370
   -1
100
AcDbLine
 10
168.6615515114107
 20
-142.2717388864745
 11
166.8947328865603
 21
-143.8264107289547
  0
LINE
  5
344
100
AcDbEntity
  8
handle5
  6
ByLayer
 62
  256
370
   -1
100
AcDbLine
 10
166.8947328865603
 20
-143.8264107289547
 11
160.2509208678908
 21
-141.1420946195168
  0
LINE
  5
345
100
AcDbEntity
  8
handle5
  6
ByLayer
 62
  256
370
   -1
100
AcDbLine
 10
160.0621638898592
 20
-151.1087218959899
 11
159.8633488347857
 21
-148.6664596448057
  0
LINE
  5
346
100
AcDbEntity
  8
handle5
  6
ByLayer
 62
  256
370
   -1
100
AcDbLine
 10
158.7833587454679
 20
-147.1529619314999
 11
160.7009432210469
 21
-147.9277284186522
  0
LINE
  5
347
100
AcDbEntity
  8
handle5
  6
ByLayer
 62
  256
370
   -1
100
AcDbLine
 10
159.8633488347857
 20
-148.6664596448057
 11
165.8360917423554
 21
-143.3986852801435
  0
LINE
  5
348
100
AcDbEntity
  8
handle5
  6
ByLayer
 62
  256
370
   -1
100
AcDbLine
 10
160.1733851733878
 20
-139.9729862645858
 11
160.7009432210469
 21
-147.9277284186522
  0
LINE
  5
349
100
AcDbEntity
  8
handle5
  6
ByLayer
 62
  256
370
   -1
100
AcDbLine
 10
158.1317180399619
 20
-139.148086348549
 11
160.1733851733878
 21
-139.9729862645858
  0
LINE
  5
34A
100
AcDbEntity
  8
handle5
  6
ByLayer
 62
  256
370
   -1
100
AcDbLine
 10
159.1693342438728
 20
-151.8943487030612
 11
149.5690843946042
 21
-160.3418737339269
  0
LINE
  5
34B
100
AcDbEntity
  8
handle5
  6
ByLayer
 62
  256
370
   -1
100
AcDbLine
 10
155.4053520035445
 20
-152.666040437836
 11
155.5982954273042
 21
-155.0362228884244
  0
LINE
  5
34C
100
AcDbEntity
  8
handle5
  6
ByLayer
 62
  256
370
   -1
100
AcDbLine
 10
158.1801066631006
 20
-151.4946543005592
 11
156.3946320659891
 21
-153.0657417540237
  0
LINE
  5
34D
100
AcDbEntity
  8
handle5
  6
ByLayer
 62
  256
370
   -1
100
AcDbLine
 10
156.3946320659891
 20
-153.0657417540237
 11
152.585519705736
 21
-151.5267364897938
  0
LINE
  5
34E
100
AcDbEntity
  8
handle5
  6
ByLayer
 62
  256
370
   -1
100
AcDbLine
 10
161.2517971539745
 20
-155.0281944024792
 11
167.9844053762862
 21
-157.7483870658028
  0
LINE
  5
34F
100
AcDbEntity
  8
handle5
  6
ByLayer
 62
  256
370
   -1
100
AcDbLine
 10
163.0372605290048
 20
-153.4571167055455
 11
161.2517971539745
 21
-155.0281944024792
  0
LINE
  5
350
100
AcDbEntity
  8
handle5
  6
ByLayer
 62
  256
370
   -1
100
AcDbLine
 10
166.9951253138417
 20
-157.348685749615
 11
160.9658839347063
 21
-162.6539845949841
  0
LINE
  5
351
100
AcDbEntity
  8
handle5
  6
ByLayer
 62
  256
370
   -1
100
AcDbLine
 10
161.9055241745385
 20
-161.827169310169
 11
161.1371413039359
 21
-153.8357609126285
  0
LINE
  5
352
100
AcDbEntity
  8
handle5
  6
ByLayer
 62
  256
370
   -1
100
AcDbLine
 10
159.265828764652
 20
-153.0796897924828
 11
161.1371413039359
 21
-153.8357609126285
  0
LINE
  5
353
100
AcDbEntity
  8
handle5
  6
ByLayer
 62
  256
370
   -1
100
AcDbLine
 10
161.9055241745385
 20
-161.827169310169
 11
159.902868911901
 21
-161.0180314585799
  0
LINE
  5
354
100
AcDbEntity
  8
handle5
  6
ByLayer
 62
  256
370
   -1
100
AcDbLine
 10
155.4053520035445
 20
-152.666040437836
 11
150.3157508642414
 21
-157.1445239983902
  0
LINE
  5
355
100
AcDbEntity
  8
handle5
  6
ByLayer
 62
  256
370
   -1
100
AcDbLine
 10
149.5690843946042
 20
-160.3418737339269
 11
149.4776634956992
 21
-159.2188307136979
  0
LINE
  5
356
100
AcDbEntity
  8
handle5
  6
ByLayer
 62
  256
370
   -1
100
AcDbLine
 10
159.902868911901
 20
-161.0180314585799
 11
158.063296306142
 21
-162.6367233910849
  0
LINE
  5
357
100
AcDbEntity
  8
handle5
  6
ByLayer
 62
  256
370
   -1
100
AcDbLine
 10
159.121939536506
 20
-163.0644496827723
 11
152.4781279814273
 21
-160.3801337606403
  0
LINE
  5
358
100
AcDbEntity
  8
handle5
  6
ByLayer
 62
  256
370
   -1
100
AcDbLine
 10
159.265828764652
 20
-153.0796897924828
 11
157.4262577509924
 21
-154.698377784465
  0
LINE
  5
359
100
AcDbEntity
  8
handle5
  6
ByLayer
 62
  256
370
   -1
100
AcDbLine
 10
155.5980103777952
 20
-155.0368529882894
 11
157.5155948533742
 21
-155.8116194754417
  0
LINE
  5
35A
100
AcDbEntity
  8
handle5
  6
ByLayer
 62
  256
370
   -1
100
AcDbLine
 10
157.4262577509924
 20
-154.698377784465
 11
158.0632983923012
 21
-162.636724233961
  0
LINE
  5
35B
100
AcDbEntity
  8
handle5
  6
ByLayer
 62
  256
370
   -1
100
AcDbLine
 10
151.6102150830885
 20
-161.1672458243352
 11
157.5155948533742
 21
-155.8116194754417
  0
LINE
  5
35C
100
AcDbEntity
  8
handle5
  6
ByLayer
 62
  256
370
   -1
100
AcDbLine
 10
149.5685479496626
 20
-160.3423459082983
 11
151.6102150830885
 21
-161.1672458243352
  0
LINE
  5
35D
100
AcDbEntity
  8
handle5
  6
ByLayer
 62
  256
370
   -1
100
AcDbLine
 10
170.7591075541699
 20
-156.5769940148401
 11
169.7215474049742
 21
-143.8314478076112
  0
LINE
  5
35E
100
AcDbEntity
  8
handle5
  6
ByLayer
 62
  256
370
   -1
100
AcDbLine
 10
168.5876234302213
 20
-153.4071759966793
 11
170.3728993920291
 21
-151.8362585086998
  0
LINE
  5
35F
100
AcDbEntity
  8
handle5
  6
ByLayer
 62
  256
370
   -1
100
AcDbLine
 10
169.7698717319424
 20
-156.1773200103383
 11
169.576903492666
 21
-153.806877312867
  0
LINE
  5
360
100
AcDbEntity
  8
handle5
  6
ByLayer
 62
  256
370
   -1
100
AcDbLine
 10
174.4340685806512
 20
-155.7693299613224
 11
177.3575635155281
 21
-156.9505169858044
  0
LINE
  5
361
100
AcDbEntity
  8
handle5
  6
ByLayer
 62
  256
370
   -1
100
AcDbLine
 10
174.6270338393019
 20
-158.1397620173244
 11
174.4340685806512
 21
-155.7693299613224
  0
LINE
  5
362
100
AcDbEntity
  8
handle5
  6
ByLayer
 62
  256
370
   -1
100
AcDbLine
 10
171.6519372001562
 20
-155.7913672077688
 11
181.2439601437287
 21
-147.3314976247934
  0
LINE
  5
363
100
AcDbEntity
  8
handle5
  6
ByLayer
 62
  256
370
   -1
100
AcDbLine
 10
180.4654196319119
 20
-149.2584229936959
 11
179.5257787271623
 21
-150.0852425936454
  0
LINE
  5
364
100
AcDbEntity
  8
handle5
  6
ByLayer
 62
  256
370
   -1
100
AcDbLine
 10
179.6273306712704
 20
-151.3327336495263
 11
179.5257787271623
 21
-150.0852425936454
  0
LINE
  5
365
100
AcDbEntity
  8
handle5
  6
ByLayer
 62
  256
370
   -1
100
AcDbLine
 10
179.6273306712704
 20
-151.3327336495263
 11
173.5232488122584
 21
-156.5474379533029
  0
LINE
  5
366
100
AcDbEntity
  8
handle5
  6
ByLayer
 62
  256
370
   -1
100
AcDbLine
 10
171.6519372001562
 20
-155.7913672077688
 11
173.5232488122584
 21
-156.5474379533029
  0
LINE
  5
367
100
AcDbEntity
  8
handle5
  6
ByLayer
 62
  256
370
   -1
100
AcDbLine
 10
179.6273306712704
 20
-151.3327336495263
 11
177.624677494792
 21
-150.5235966408133
  0
LINE
  5
368
100
AcDbEntity
  8
handle5
  6
ByLayer
 62
  256
370
   -1
100
AcDbLine
 10
177.624677494792
 20
-150.5235966408133
 11
177.4258629664934
 21
-148.0813297490462
  0
LINE
  5
369
100
AcDbEntity
  8
handle5
  6
ByLayer
 62
  256
370
   -1
100
AcDbLine
 10
178.4845064286529
 20
-148.5090561343865
 11
171.8406946417788
 21
-145.8247401186016
  0
LINE
  5
36A
100
AcDbEntity
  8
handle5
  6
ByLayer
 62
  256
370
   -1
100
AcDbLine
 10
173.6261577545449
 20
-144.2536577319218
 11
171.8406946417788
 21
-145.8247401186016
  0
LINE
  5
36B
100
AcDbEntity
  8
handle5
  6
ByLayer
 62
  256
370
   -1
100
AcDbLine
 10
171.6519372001562
 20
-155.7913672077688
 11
171.4531221450828
 21
-153.3491049565846
  0
LINE
  5
36C
100
AcDbEntity
  8
handle5
  6
ByLayer
 62
  256
370
   -1
100
AcDbLine
 10
170.373132055765
 20
-151.8356072432788
 11
172.2907156041621
 21
-152.6103733558194
  0
LINE
  5
36D
100
AcDbEntity
  8
handle5
  6
ByLayer
 62
  256
370
   -1
100
AcDbLine
 10
171.4531221450828
 20
-153.3491049565846
 11
177.4258650526526
 21
-148.0813305919224
  0
LINE
  5
36E
100
AcDbEntity
  8
handle5
  6
ByLayer
 62
  256
370
   -1
100
AcDbLine
 10
171.7631584836849
 20
-144.6556315763647
 11
172.2907156041621
 21
-152.6103733558194
  0
LINE
  5
36F
100
AcDbEntity
  8
handle5
  6
ByLayer
 62
  256
370
   -1
100
AcDbLine
 10
169.7214911184636
 20
-143.830731566675
 11
171.7631584836849
 21
-144.6556315763647
  0
LINE
  5
370
100
AcDbEntity
  8
handle5
  6
ByLayer
 62
  256
370
   -1
100
AcDbLine
 10
166.9951253138417
 20
-157.348685749615
 11
167.1880687376014
 21
-159.7188682002034
  0
LINE
  5
371
100
AcDbEntity
  8
handle5
  6
ByLayer
 62
  256
370
   -1
100
AcDbLine
 10
169.7698799733977
 20
-156.1772996123381
 11
167.9844053762862
 21
-157.7483870658028
  0
LINE
  5
372
100
AcDbEntity
  8
handle5
  6
ByLayer
 62
  256
370
   -1
100
AcDbLine
 10
172.8415704642716
 20
-159.7108397142582
 11
175.7650653991483
 21
-160.8920267387401
  0
LINE
  5
373
100
AcDbEntity
  8
handle5
  6
ByLayer
 62
  256
370
   -1
100
AcDbLine
 10
174.6270338393019
 20
-158.1397620173244
 11
172.8415704642716
 21
-159.7108397142582
  0
LINE
  5
374
100
AcDbEntity
  8
handle5
  6
ByLayer
 62
  256
370
   -1
100
AcDbLine
 10
170.855602074949
 20
-157.7623351042618
 11
172.7269136870512
 21
-158.5184058497958
  0
LINE
  5
375
100
AcDbEntity
  8
handle5
  6
ByLayer
 62
  256
370
   -1
100
AcDbLine
 10
170.855602074949
 20
-157.7623351042618
 11
169.0160310612895
 21
-159.3810230962439
  0
LINE
  5
376
100
AcDbEntity
  8
handle5
  6
ByLayer
 62
  256
370
   -1
100
AcDbLine
 10
167.1877836880922
 20
-159.7194983000683
 11
169.1053672364895
 21
-160.4942644126089
  0
LINE
  5
377
100
AcDbEntity
  8
handle5
  6
ByLayer
 62
  256
370
   -1
100
AcDbLine
 10
181.2439601437287
 20
-147.3314976247934
 11
158.0644144503163
 21
-137.9662073758471
  0
LINE
  5
378
100
AcDbEntity
  8
handle5
  6
ByLayer
 62
  256
370
   -1
100
AcDbLine
 10
152.6710932587725
 20
-162.7505604315099
 11
152.4781279814273
 21
-160.3801337606403
  0
LINE
  5
379
100
AcDbEntity
  8
handle5
  6
ByLayer
 62
  256
370
   -1
100
AcDbLine
 10
180.2699734819417
 20
-146.9379753398061
 11
178.4845064286529
 21
-148.5090561343865
  0
LINE
  5
37A
100
AcDbEntity
  8
handle5
  6
ByLayer
 62
  256
370
   -1
100
AcDbLine
 10
162.0363846760432
 20
-139.5710125137958
 11
160.2509208678908
 21
-141.1420946195168
  0
LINE
  5
37B
100
AcDbEntity
  8
handle5
  6
ByLayer
 62
  256
370
   -1
100
AcDbLine
 10
182.3488799372852
 20
-161.2596389520073
 11
181.3113200198849
 21
-148.5140928384315
  0
LINE
  5
37C
100
AcDbEntity
  8
handle5
  6
ByLayer
 62
  256
370
   -1
100
AcDbLine
 10
180.1773958133365
 20
-158.0898209338466
 11
181.9626717751443
 21
-156.5189034458671
  0
LINE
  5
37D
100
AcDbEntity
  8
handle5
  6
ByLayer
 62
  256
370
   -1
100
AcDbLine
 10
181.3596441150576
 20
-160.8599649475056
 11
181.1666758757812
 21
-158.4895222500343
  0
LINE
  5
37E
100
AcDbEntity
  8
handle5
  6
ByLayer
 62
  256
370
   -1
100
AcDbLine
 10
181.1666758757812
 20
-158.4895222500343
 11
177.3575635155281
 21
-156.9505169858044
  0
LINE
  5
37F
100
AcDbEntity
  8
handle5
  6
ByLayer
 62
  256
370
   -1
100
AcDbLine
 10
186.0238409637664
 20
-160.4519748984897
 11
192.7564491860782
 21
-163.1721675618131
  0
LINE
  5
380
100
AcDbEntity
  8
handle5
  6
ByLayer
 62
  256
370
   -1
100
AcDbLine
 10
186.2168062224172
 20
-162.8224069544917
 11
186.0238409637664
 21
-160.4519748984897
  0
LINE
  5
381
100
AcDbEntity
  8
handle5
  6
ByLayer
 62
  256
370
   -1
100
AcDbLine
 10
183.2417095832715
 20
-160.4740121449362
 11
192.8337334540258
 21
-152.0141429365723
  0
LINE
  5
382
100
AcDbEntity
  8
handle5
  6
ByLayer
 62
  256
370
   -1
100
AcDbLine
 10
192.9010930983865
 20
-153.1967380565575
 11
191.1155511102775
 21
-154.7678875308127
  0
LINE
  5
383
100
AcDbEntity
  8
handle5
  6
ByLayer
 62
  256
370
   -1
100
AcDbLine
 10
191.7671691236337
 20
-162.7724662456255
 11
191.1155511102775
 21
-154.7678875308127
  0
LINE
  5
384
100
AcDbEntity
  8
handle5
  6
ByLayer
 62
  256
370
   -1
100
AcDbLine
 10
191.2171039815675
 20
-156.0153789613053
 11
185.1130221225555
 21
-161.2300832650819
  0
LINE
  5
385
100
AcDbEntity
  8
handle5
  6
ByLayer
 62
  256
370
   -1
100
AcDbLine
 10
183.2417095832715
 20
-160.4740121449362
 11
185.1130221225555
 21
-161.2300832650819
  0
LINE
  5
386
100
AcDbEntity
  8
handle5
  6
ByLayer
 62
  256
370
   -1
100
AcDbLine
 10
191.2171039815675
 20
-156.0153789613053
 11
189.21444871893
 21
-155.2062411097161
  0
LINE
  5
387
100
AcDbEntity
  8
handle5
  6
ByLayer
 62
  256
370
   -1
100
AcDbLine
 10
180.1773958133365
 20
-158.0898209338466
 11
179.6273306712704
 21
-151.3327336495263
  0
LINE
  5
388
100
AcDbEntity
  8
handle5
  6
ByLayer
 62
  256
370
   -1
100
AcDbLine
 10
181.3113200198849
 20
-148.5140928384315
 11
180.4654196319119
 21
-149.2584229936959
  0
LINE
  5
389
100
AcDbEntity
  8
handle5
  6
ByLayer
 62
  256
370
   -1
100
AcDbLine
 10
189.21444871893
 20
-155.2062411097161
 11
189.0156353496088
 21
-152.7639746862136
  0
LINE
  5
38A
100
AcDbEntity
  8
handle5
  6
ByLayer
 62
  256
370
   -1
100
AcDbLine
 10
191.8410972048231
 20
-151.6370291354207
 11
190.0742785799727
 21
-153.191700977901
  0
LINE
  5
38B
100
AcDbEntity
  8
handle5
  6
ByLayer
 62
  256
370
   -1
100
AcDbLine
 10
190.0742785799727
 20
-153.191700977901
 11
183.4304665613031
 21
-150.507384868463
  0
LINE
  5
38C
100
AcDbEntity
  8
handle5
  6
ByLayer
 62
  256
370
   -1
100
AcDbLine
 10
183.2417095832715
 20
-160.4740121449362
 11
183.042894528198
 21
-158.0317498937519
  0
LINE
  5
38D
100
AcDbEntity
  8
handle5
  6
ByLayer
 62
  256
370
   -1
100
AcDbLine
 10
181.9629044388802
 20
-156.5182521804462
 11
183.8804889144592
 21
-157.2930186675985
  0
LINE
  5
38E
100
AcDbEntity
  8
handle5
  6
ByLayer
 62
  256
370
   -1
100
AcDbLine
 10
183.042894528198
 20
-158.0317498937519
 11
189.0156374357678
 21
-152.7639755290897
  0
LINE
  5
38F
100
AcDbEntity
  8
handle5
  6
ByLayer
 62
  256
370
   -1
100
AcDbLine
 10
183.3529308668001
 20
-149.338276513532
 11
183.8804889144592
 21
-157.2930186675985
  0
LINE
  5
390
100
AcDbEntity
  8
handle5
  6
ByLayer
 62
  256
370
   -1
100
AcDbLine
 10
181.3112637333742
 20
-148.5133765974952
 11
183.3529308668001
 21
-149.338276513532
  0
LINE
  5
391
100
AcDbEntity
  8
handle5
  6
ByLayer
 62
  256
370
   -1
100
AcDbLine
 10
178.5848976969569
 20
-162.0313306867823
 11
178.7778411207167
 21
-164.4015131373707
  0
LINE
  5
392
100
AcDbEntity
  8
handle5
  6
ByLayer
 62
  256
370
   -1
100
AcDbLine
 10
181.3596523565131
 20
-160.8599445495054
 11
179.5741777594015
 21
-162.43103200297
  0
LINE
  5
393
100
AcDbEntity
  8
handle5
  6
ByLayer
 62
  256
370
   -1
100
AcDbLine
 10
179.5741777594015
 20
-162.43103200297
 11
175.7650653991483
 21
-160.8920267387401
  0
LINE
  5
394
100
AcDbEntity
  8
handle5
  6
ByLayer
 62
  256
370
   -1
100
AcDbLine
 10
186.2168062224172
 20
-162.8224069544917
 11
184.4313428473868
 21
-164.3934846514254
  0
LINE
  5
395
100
AcDbEntity
  8
handle5
  6
ByLayer
 62
  256
370
   -1
100
AcDbLine
 10
182.4453744580642
 20
-162.4449800414289
 11
184.3166869973483
 21
-163.2010511615748
  0
LINE
  5
396
100
AcDbEntity
  8
handle5
  6
ByLayer
 62
  256
370
   -1
100
AcDbLine
 10
182.4453744580642
 20
-162.4449800414289
 11
180.6058034444048
 21
-164.0636680334113
  0
LINE
  5
397
100
AcDbEntity
  8
handle5
  6
ByLayer
 62
  256
370
   -1
100
AcDbLine
 10
191.7671691236337
 20
-162.7724662456255
 11
193.5524450854414
 21
-161.201548757646
  0
LINE
  5
398
100
AcDbEntity
  8
handle5
  6
ByLayer
 62
  256
370
   -1
100
AcDbLine
 10
196.8057034479572
 20
-153.6189479808681
 11
195.0202403351912
 21
-155.1900303675478
  0
LINE
  5
399
100
AcDbEntity
  8
handle5
  6
ByLayer
 62
  256
370
   -1
100
AcDbLine
 10
193.5526777491773
 20
-161.2008974922251
 11
195.4702612975745
 21
-161.9756636047657
  0
LINE
  5
39A
100
AcDbEntity
  8
handle5
  6
ByLayer
 62
  256
370
   -1
100
AcDbLine
 10
194.9427041770973
 20
-154.020921825311
 11
195.4702612975745
 21
-161.9756636047657
  0
LINE
  5
39B
100
AcDbEntity
  8
handle5
  6
ByLayer
 62
  256
370
   -1
100
AcDbLine
 10
192.9010368118759
 20
-153.1960218156212
 11
194.9427041770973
 21
-154.020921825311
  0
LINE
  5
39C
100
AcDbEntity
  8
handle5
  6
ByLayer
 62
  256
370
   -1
100
AcDbLine
 10
185.2159303694556
 20
-148.9363027627421
 11
183.4304665613031
 21
-150.507384868463
  0
LINE
  5
39D
100
AcDbEntity
  8
handle5
  6
ByLayer
 62
  256
370
   -1
100
AcDbLine
 10
124.7410370596119
 20
-153.7073905071703
 11
123.8013961548622
 21
-154.5342101071198
  0
LINE
  5
39E
100
AcDbEntity
  8
handle5
  6
ByLayer
 62
  256
370
   -1
100
AcDbLine
 10
123.9029480989704
 20
-155.7817011630008
 11
123.8013961548622
 21
-154.5342101071198
  0
LINE
  5
39F
100
AcDbEntity
  8
handle5
  6
ByLayer
 62
  256
370
   -1
100
AcDbLine
 10
126.6244973649852
 20
-165.7086064654818
 11
125.5869374475848
 21
-152.9630603519059
  0
LINE
  5
3A0
100
AcDbEntity
  8
handle5
  6
ByLayer
 62
  256
370
   -1
100
AcDbLine
 10
124.4530132410366
 20
-162.5387884473211
 11
126.2382892028443
 21
-160.9678709593416
  0
LINE
  5
3A1
100
AcDbEntity
  8
handle5
  6
ByLayer
 62
  256
370
   -1
100
AcDbLine
 10
125.6352615427576
 20
-165.3089324609801
 11
125.4422933034811
 21
-162.9384897635087
  0
LINE
  5
3A2
100
AcDbEntity
  8
handle5
  6
ByLayer
 62
  256
370
   -1
100
AcDbLine
 10
130.4924236501171
 20
-167.2713744679662
 11
130.2994583914664
 21
-164.9009424119642
  0
LINE
  5
3A3
100
AcDbEntity
  8
handle5
  6
ByLayer
 62
  256
370
   -1
100
AcDbLine
 10
127.5173270109714
 20
-164.9229796584106
 11
137.1093508817259
 21
-156.4631104500467
  0
LINE
  5
3A4
100
AcDbEntity
  8
handle5
  6
ByLayer
 62
  256
370
   -1
100
AcDbLine
 10
137.1767105260865
 20
-157.6457055700319
 11
135.3911685379775
 21
-159.2168550442872
  0
LINE
  5
3A5
100
AcDbEntity
  8
handle5
  6
ByLayer
 62
  256
370
   -1
100
AcDbLine
 10
135.4927214092675
 20
-160.4643464747797
 11
129.3886395502555
 21
-165.6790507785564
  0
LINE
  5
3A6
100
AcDbEntity
  8
handle5
  6
ByLayer
 62
  256
370
   -1
100
AcDbLine
 10
127.5173270109714
 20
-164.9229796584106
 11
129.3886395502555
 21
-165.6790507785564
  0
LINE
  5
3A7
100
AcDbEntity
  8
handle5
  6
ByLayer
 62
  256
370
   -1
100
AcDbLine
 10
135.4927214092675
 20
-160.4643464747797
 11
133.49006614663
 21
-159.6552086231906
  0
LINE
  5
3A8
100
AcDbEntity
  8
handle5
  6
ByLayer
 62
  256
370
   -1
100
AcDbLine
 10
124.4530132410366
 20
-162.5387884473211
 11
123.9029480989704
 21
-155.7817011630008
  0
LINE
  5
3A9
100
AcDbEntity
  8
handle5
  6
ByLayer
 62
  256
370
   -1
100
AcDbLine
 10
125.5869374475848
 20
-152.9630603519059
 11
124.7410370596119
 21
-153.7073905071703
  0
LINE
  5
3AA
100
AcDbEntity
  8
handle5
  6
ByLayer
 62
  256
370
   -1
100
AcDbLine
 10
133.49006614663
 20
-159.6552086231906
 11
133.2912527773088
 21
-157.212942199688
  0
LINE
  5
3AB
100
AcDbEntity
  8
handle5
  6
ByLayer
 62
  256
370
   -1
100
AcDbLine
 10
136.1167146325232
 20
-156.0859966488952
 11
134.3498960076726
 21
-157.6406684913754
  0
LINE
  5
3AC
100
AcDbEntity
  8
handle5
  6
ByLayer
 62
  256
370
   -1
100
AcDbLine
 10
134.3498960076726
 20
-157.6406684913754
 11
127.7060839890032
 21
-154.9563523819374
  0
LINE
  5
3AD
100
AcDbEntity
  8
handle5
  6
ByLayer
 62
  256
370
   -1
100
AcDbLine
 10
127.5173270109714
 20
-164.9229796584106
 11
127.3185119558979
 21
-162.4807174072264
  0
LINE
  5
3AE
100
AcDbEntity
  8
handle5
  6
ByLayer
 62
  256
370
   -1
100
AcDbLine
 10
126.2385218665801
 20
-160.9672196939206
 11
128.1561063421593
 21
-161.7419861810728
  0
LINE
  5
3AF
100
AcDbEntity
  8
handle5
  6
ByLayer
 62
  256
370
   -1
100
AcDbLine
 10
127.3185119558979
 20
-162.4807174072264
 11
133.2912548634678
 21
-157.2129430425642
  0
LINE
  5
3B0
100
AcDbEntity
  8
handle5
  6
ByLayer
 62
  256
370
   -1
100
AcDbLine
 10
127.6285482945001
 20
-153.7872440270064
 11
128.1561063421593
 21
-161.7419861810728
  0
LINE
  5
3B1
100
AcDbEntity
  8
handle5
  6
ByLayer
 62
  256
370
   -1
100
AcDbLine
 10
125.5868811610744
 20
-152.9623441109697
 11
127.6285482945001
 21
-153.7872440270064
  0
LINE
  5
3B2
100
AcDbEntity
  8
handle5
  6
ByLayer
 62
  256
370
   -1
100
AcDbLine
 10
130.4924236501171
 20
-167.2713744679662
 11
128.7069602750867
 21
-168.8424521649
  0
LINE
  5
3B3
100
AcDbEntity
  8
handle5
  6
ByLayer
 62
  256
370
   -1
100
AcDbLine
 10
126.7209918857642
 20
-166.8939475549034
 11
128.5923044250483
 21
-167.6500186750492
  0
LINE
  5
3B4
100
AcDbEntity
  8
handle5
  6
ByLayer
 62
  256
370
   -1
100
AcDbLine
 10
147.9205827530242
 20
-163.0726807561166
 11
146.9809418482745
 21
-163.8995003560661
  0
LINE
  5
3B5
100
AcDbEntity
  8
handle5
  6
ByLayer
 62
  256
370
   -1
100
AcDbLine
 10
145.0798406159043
 20
-164.337854403234
 11
144.8810260876059
 21
-161.8955875114669
  0
LINE
  5
3B6
100
AcDbEntity
  8
handle5
  6
ByLayer
 62
  256
370
   -1
100
AcDbLine
 10
145.9396695497653
 20
-162.3233138968071
 11
139.2958577628912
 21
-159.6389978810222
  0
LINE
  5
3B7
100
AcDbEntity
  8
handle5
  6
ByLayer
 62
  256
370
   -1
100
AcDbLine
 10
141.0813208756572
 20
-158.0679154943425
 11
139.2958577628912
 21
-159.6389978810222
  0
LINE
  5
3B8
100
AcDbEntity
  8
handle5
  6
ByLayer
 62
  256
370
   -1
100
AcDbLine
 10
137.1766542395758
 20
-157.6449893290957
 11
139.2183216047973
 21
-158.4698893387853
  0
LINE
  5
3B9
100
AcDbEntity
  8
handle5
  6
ByLayer
 62
  256
370
   -1
100
AcDbLine
 10
148.699123264841
 20
-161.1457553872141
 11
125.5195775714288
 21
-151.7804651382678
  0
LINE
  5
3BA
100
AcDbEntity
  8
handle5
  6
ByLayer
 62
  256
370
   -1
100
AcDbLine
 10
147.7251366030541
 20
-160.7522331022267
 11
145.9396695497653
 21
-162.3233138968071
  0
LINE
  5
3BB
100
AcDbEntity
  8
handle5
  6
ByLayer
 62
  256
370
   -1
100
AcDbLine
 10
129.4915477971556
 20
-153.3852702762165
 11
127.7060839890032
 21
-154.9563523819374
  0
LINE
  5
3BC
100
AcDbEntity
  8
handle5
  6
ByLayer
 62
  256
370
   -1
100
AcDbLine
 10
148.7664831409972
 20
-162.3283506008522
 11
147.9205827530242
 21
-163.0726807561166
  0
LINE
  5
3BD
100
AcDbEntity
  8
handle5
  6
ByLayer
 62
  256
370
   -1
100
AcDbLine
 10
148.7664268544866
 20
-162.3276343599159
 11
150.8080939879125
 21
-163.1525342759527
  0
LINE
  5
3BE
100
AcDbEntity
  8
handle5
  6
ByLayer
 62
  256
370
   -1
100
AcDbLine
 10
152.6710934905679
 20
-162.7505605251627
 11
150.8856296824155
 21
-164.3216426308837
  0
LINE
  5
3BF
100
AcDbEntity
  8
handle5
  6
ByLayer
 62
  256
370
   -1
100
AcDbLine
 10
197.1473040837716
 20
-129.0860030876476
 11
195.6622872885168
 21
-128.4860080102602
  0
LINE
  5
3C0
100
AcDbEntity
  8
handle5
  6
ByLayer
 62
  256
370
   -1
100
AcDbLine
 10
192.4081857136733
 20
-134.852201882385
 11
197.5079651441771
 21
-130.3543542828521
  0
LINE
  5
3C1
100
AcDbEntity
  8
handle5
  6
ByLayer
 62
  256
370
   -1
100
AcDbLine
 10
192.6070007687467
 20
-137.2944641335692
 11
198.063929683469
 21
-132.481621138188
  0
LINE
  5
3C2
100
AcDbEntity
  8
handle5
  6
ByLayer
 62
  256
370
   -1
100
AcDbLine
 10
192.8710487611119
 20
-128.4631139028681
 11
193.2457800999345
 21
-134.1134706562315
  0
LINE
  5
3C3
100
AcDbEntity
  8
handle5
  6
ByLayer
 62
  256
370
   -1
100
AcDbLine
 10
191.7141711227604
 20
-138.0800909406403
 11
190.9299984757022
 21
-128.4471931518282
  0
LINE
  5
3C4
100
AcDbEntity
  8
handle5
  6
ByLayer
 62
  256
370
   -1
100
AcDbLine
 10
189.5426869988118
 20
-134.9102729224797
 11
189.0152772727935
 21
-128.4314883554036
  0
LINE
  5
3C5
100
AcDbEntity
  8
handle5
  6
ByLayer
 62
  256
370
   -1
100
AcDbLine
 10
188.6701674977159
 20
-128.4286577194064
 11
182.8885399977336
 21
-133.3678899419361
  0
LINE
  5
3C6
100
AcDbEntity
  8
handle5
  6
ByLayer
 62
  256
370
   -1
100
AcDbLine
 10
181.0172283856314
 20
-132.611819196402
 11
185.7870197205372
 21
-128.4050097601976
  0
LINE
  5
3C7
100
AcDbEntity
  8
handle5
  6
ByLayer
 62
  256
370
   -1
100
AcDbLine
 10
180.818413330558
 20
-130.1695569452176
 11
182.8464506289116
 21
-128.3808908237768
  0
LINE
  5
3C8
100
AcDbEntity
  8
handle5
  6
ByLayer
 62
  256
370
   -1
100
AcDbLine
 10
181.585689502304
 20
-128.370549894349
 11
181.6560067896374
 21
-129.4308253444526
  0
LINE
  5
3C9
100
AcDbEntity
  8
handle5
  6
ByLayer
 62
  256
370
   -1
100
AcDbLine
 10
180.1243987396452
 20
-133.3974460034731
 11
179.713930954129
 21
-128.355197483298
  0
LINE
  5
3CA
100
AcDbEntity
  8
handle5
  6
ByLayer
 62
  256
370
   -1
100
AcDbLine
 10
177.9529146156966
 20
-130.2276279853123
 11
177.799209715521
 21
-128.3394926865806
  0
LINE
  5
3CB
100
AcDbEntity
  8
handle5
  6
ByLayer
 62
  256
370
   -1
100
AcDbLine
 10
198.5488333775981
 20
-134.5730985129146
 11
194.4783133080307
 21
-138.0505352537151
  0
LINE
  5
3CC
100
AcDbEntity
  8
handle5
  6
ByLayer
 62
  256
370
   -1
100
AcDbLine
 10
195.3891321492417
 20
-137.2724268871228
 11
199.3429702584232
 21
-138.8699060603386
  0
LINE
  5
3CD
100
AcDbEntity
  8
handle5
  6
ByLayer
 62
  256
370
   -1
100
AcDbLine
 10
199.6640623586651
 20
-141.2921055269728
 11
185.9266047999374
 21
-135.7417259370644
  0
LINE
  5
3CE
100
AcDbEntity
  8
handle5
  6
ByLayer
 62
  256
370
   -1
100
AcDbLine
 10
193.7966340328621
 20
-141.2139366400586
 11
199.8854077291606
 21
-143.6739992176522
  0
LINE
  5
3CF
100
AcDbEntity
  8
handle5
  6
ByLayer
 62
  256
370
   -1
100
AcDbLine
 10
199.9955498367141
 20
-145.6738839432358
 11
193.7036943519934
 21
-151.2102611896321
  0
LINE
  5
3D0
100
AcDbEntity
  8
handle5
  6
ByLayer
 62
  256
370
   -1
100
AcDbLine
 10
199.7326205669798
 20
-145.9052405376476
 11
200.0072451860634
 21
-146.0161978144312
  0
LINE
  5
3D1
100
AcDbEntity
  8
handle5
  6
ByLayer
 62
  256
370
   -1
100
AcDbLine
 10
195.7448252722732
 20
-152.0356333736934
 11
200.0314626723428
 21
-148.148053859536
  0
LINE
  5
3D2
100
AcDbEntity
  8
handle5
  6
ByLayer
 62
  256
370
   -1
100
AcDbLine
 10
199.8035469994872
 20
-152.5377118405879
 11
196.6127381706121
 21
-151.2485213099984
  0
LINE
  5
3D3
100
AcDbEntity
  8
handle5
  6
ByLayer
 62
  256
370
   -1
100
AcDbLine
 10
199.5408193117672
 20
-154.724023734633
 11
181.2439601437287
 21
-147.3314976247934
  0
LINE
  5
3D4
100
AcDbEntity
  8
handle5
  6
ByLayer
 62
  256
370
   -1
100
AcDbLine
 10
199.1793344115583
 20
-156.8704396263419
 11
195.0202403351912
 21
-155.1900303675478
  0
LINE
  5
3D5
100
AcDbEntity
  8
handle5
  6
ByLayer
 62
  256
370
   -1
100
AcDbLine
 10
194.6326678384951
 20
-162.7143952055308
 11
198.6772748916524
 21
-159.1471769810948
  0
LINE
  5
3D6
100
AcDbEntity
  8
handle5
  6
ByLayer
 62
  256
370
   -1
100
AcDbLine
 10
195.5666430686693
 20
-164.5082687653478
 11
197.6381164564042
 21
-162.6812928700716
  0
LINE
  5
3D7
100
AcDbEntity
  8
handle5
  6
ByLayer
 62
  256
370
   -1
100
AcDbLine
 10
194.779225164367
 20
-164.5147187498381
 11
194.6326678384951
 21
-162.7143952055308
  0
LINE
  5
3D8
100
AcDbEntity
  8
handle5
  6
ByLayer
 62
  256
370
   -1
100
AcDbLine
 10
193.8230788502282
 20
-164.5225508411113
 11
192.9010930983865
 21
-153.1967380565575
  0
LINE
  5
3D9
100
AcDbEntity
  8
handle5
  6
ByLayer
 62
  256
370
   -1
100
AcDbLine
 10
192.8670160000193
 20
-164.5303822487057
 11
192.7564491860782
 21
-163.1721675618131
  0
LINE
  5
3DA
100
AcDbEntity
  8
handle5
  6
ByLayer
 62
  256
370
   -1
100
AcDbLine
 10
190.4922728467762
 20
-164.5498345070594
 11
176.561313614462
 21
-158.9212739484314
  0
LINE
  5
3DB
100
AcDbEntity
  8
handle5
  6
ByLayer
 62
  256
370
   -1
100
AcDbLine
 10
184.4313428473868
 20
-164.3934846514254
 11
184.9310636295183
 21
-164.5953880981104
  0
LINE
  5
3DC
100
AcDbEntity
  8
handle5
  6
ByLayer
 62
  256
370
   -1
100
AcDbLine
 10
184.4511320518166
 20
-164.5993193666474
 11
184.3166869973483
 21
-163.2010511615748
  0
LINE
  5
3DD
100
AcDbEntity
  8
handle5
  6
ByLayer
 62
  256
370
   -1
100
AcDbLine
 10
182.4453744580642
 20
-162.4449800414289
 11
182.6194614790533
 21
-164.6143231489099
  0
LINE
  5
3DE
100
AcDbEntity
  8
handle5
  6
ByLayer
 62
  256
370
   -1
100
AcDbLine
 10
180.6058034444048
 20
-164.0636680334113
 11
180.6512864699211
 21
-164.6304450813853
  0
LINE
  5
3DF
100
AcDbEntity
  8
handle5
  6
ByLayer
 62
  256
370
   -1
100
AcDbLine
 10
178.7775560712075
 20
-164.4021432372356
 11
179.3686188234647
 21
-164.6409518102528
  0
LINE
  5
3E0
100
AcDbEntity
  8
handle5
  6
ByLayer
 62
  256
370
   -1
100
AcDbLine
 10
182.3488799372852
 20
-161.2596389520073
 11
178.4980588052815
 21
-164.6480828376075
  0
LINE
  5
3E1
100
AcDbEntity
  8
handle5
  6
ByLayer
 62
  256
370
   -1
100
AcDbLine
 10
178.5848976969569
 20
-162.0313306867823
 11
175.5839453879387
 21
-164.67195324523
  0
LINE
  5
3E2
100
AcDbEntity
  8
handle5
  6
ByLayer
 62
  256
370
   -1
100
AcDbLine
 10
173.3203669659358
 20
-164.6904949187615
 11
172.7269136870512
 21
-158.5184058497958
  0
LINE
  5
3E3
100
AcDbEntity
  8
handle5
  6
ByLayer
 62
  256
370
   -1
100
AcDbLine
 10
170.855602074949
 20
-157.7623351042618
 11
171.4128314897148
 21
-164.7061201339988
  0
LINE
  5
3E4
100
AcDbEntity
  8
handle5
  6
ByLayer
 62
  256
370
   -1
100
AcDbLine
 10
169.0160310612895
 20
-159.3810230962439
 11
169.4446560378037
 21
-164.7222420701012
  0
LINE
  5
3E5
100
AcDbEntity
  8
handle5
  6
ByLayer
 62
  256
370
   -1
100
AcDbLine
 10
170.7591075541699
 20
-156.5769940148401
 11
161.4277522509204
 21
-164.7879110176871
  0
LINE
  5
3E6
100
AcDbEntity
  8
handle5
  6
ByLayer
 62
  256
370
   -1
100
AcDbLine
 10
161.1397894131682
 20
-164.7902698106828
 11
160.9658839347063
 21
-162.6539845949841
  0
LINE
  5
3E7
100
AcDbEntity
  8
handle5
  6
ByLayer
 62
  256
370
   -1
100
AcDbLine
 10
159.265828764652
 20
-153.0796897924828
 11
160.2062015804648
 21
-164.7979171184318
  0
LINE
  5
3E8
100
AcDbEntity
  8
handle5
  6
ByLayer
 62
  256
370
   -1
100
AcDbLine
 10
159.2636829292879
 20
-164.8056375812874
 11
159.121939536506
 21
-163.0644496827723
  0
LINE
  5
3E9
100
AcDbEntity
  8
handle5
  6
ByLayer
 62
  256
370
   -1
100
AcDbLine
 10
157.787437693091
 20
-164.8177299642842
 11
148.699123264841
 21
-161.1457553872141
  0
LINE
  5
3EA
100
AcDbEntity
  8
handle5
  6
ByLayer
 62
  256
370
   -1
100
AcDbLine
 10
152.2262173561881
 20
-164.8632836464196
 11
150.8856296824155
 21
-164.3216426308837
  0
LINE
  5
3EB
100
AcDbEntity
  8
handle5
  6
ByLayer
 62
  256
370
   -1
100
AcDbLine
 10
150.8080939879125
 20
-163.1525342759527
 11
150.9222591606485
 21
-164.8739647727838
  0
LINE
  5
3EC
100
AcDbEntity
  8
handle5
  6
ByLayer
 62
  256
370
   -1
100
AcDbLine
 10
148.9750090712969
 20
-164.8899153027457
 11
148.7664831409972
 21
-162.3283506008522
  0
LINE
  5
3ED
100
AcDbEntity
  8
handle5
  6
ByLayer
 62
  256
370
   -1
100
AcDbLine
 10
147.0628415836839
 20
-164.9055784602262
 11
146.9809418482745
 21
-163.8995003560661
  0
LINE
  5
3EE
100
AcDbEntity
  8
handle5
  6
ByLayer
 62
  256
370
   -1
100
AcDbLine
 10
146.4964676786918
 20
-164.9102178046999
 11
145.0798406159043
 21
-164.337854403234
  0
LINE
  5
3EF
100
AcDbEntity
  8
handle5
  6
ByLayer
 62
  256
370
   -1
100
AcDbLine
 10
144.4115125603404
 20
-164.9272963193019
 11
148.699123264841
 21
-161.1457553872141
  0
LINE
  5
3F0
100
AcDbEntity
  8
handle5
  6
ByLayer
 62
  256
370
   -1
100
AcDbLine
 10
141.4157739182735
 20
-164.9518353444788
 11
144.8810281737649
 21
-161.8955883543431
  0
LINE
  5
3F1
100
AcDbEntity
  8
handle5
  6
ByLayer
 62
  256
370
   -1
100
AcDbLine
 10
139.2183216047973
 20
-158.4698893387853
 11
139.6491628652507
 21
-164.9663062040188
  0
LINE
  5
3F2
100
AcDbEntity
  8
handle5
  6
ByLayer
 62
  256
370
   -1
100
AcDbLine
 10
137.7738996289987
 20
-164.9816670673202
 11
137.1767105260865
 21
-157.6457055700319
  0
LINE
  5
3F3
100
AcDbEntity
  8
handle5
  6
ByLayer
 62
  256
370
   -1
100
AcDbLine
 10
135.8999424904894
 20
-165.4667147281103
 11
135.3911685379775
 21
-159.2168550442872
  0
LINE
  5
3F4
100
AcDbEntity
  8
handle5
  6
ByLayer
 62
  256
370
   -1
100
AcDbLine
 10
130.2994583914664
 20
-164.9009424119642
 11
135.1235776552399
 21
-166.8500434728022
  0
LINE
  5
3F5
100
AcDbEntity
  8
handle5
  6
ByLayer
 62
  256
370
   -1
100
AcDbLine
 10
128.7069602750867
 20
-168.8424521649
 11
131.7708487834003
 21
-170.0803627585886
  0
LINE
  5
3F6
100
AcDbEntity
  8
handle5
  6
ByLayer
 62
  256
370
   -1
100
AcDbLine
 10
128.8179948133537
 20
-169.9972652540029
 11
128.5923044250483
 21
-167.6500186750492
  0
LINE
  5
3F7
100
AcDbEntity
  8
handle5
  6
ByLayer
 62
  256
370
   -1
100
AcDbLine
 10
126.7209918857642
 20
-166.8939475549034
 11
126.848349486272
 21
-168.4809833446895
  0
LINE
  5
3F8
100
AcDbEntity
  8
handle5
  6
ByLayer
 62
  256
370
   -1
100
AcDbLine
 10
126.7209918857642
 20
-166.8939475549034
 11
126.081151988813
 21
-167.4569598823948
  0
LINE
  5
3F9
100
AcDbEntity
  8
handle5
  6
ByLayer
 62
  256
370
   -1
100
AcDbLine
 10
126.6244973649852
 20
-165.7086064654818
 11
125.5855898393881
 21
-166.6227698950829
  0
LINE
  5
3FA
100
AcDbEntity
  8
handle5
  6
ByLayer
 62
  256
370
   -1
100
AcDbLine
 10
125.635269784213
 20
-165.3089120629799
 11
125.1622589547565
 21
-165.7251271022274
  0
LINE
  5
3FB
100
AcDbEntity
  8
handle5
  6
ByLayer
 62
  256
370
   -1
100
AcDbLine
 10
133.856427559898
 20
-168.6305414434709
 11
124.9152467287838
 21
-165.0180136243645
  0
LINE
  5
3FC
100
AcDbEntity
  8
handle5
  6
ByLayer
 62
  256
370
   -1
100
AcDbLine
 10
125.4422933034811
 20
-162.9384897635087
 11
124.2776802969773
 21
-162.4679482361696
  0
LINE
  5
3FD
100
AcDbEntity
  8
handle5
  6
ByLayer
 62
  256
370
   -1
100
AcDbLine
 10
123.9029480989704
 20
-155.7817011630008
 11
123.5563662277575
 21
-156.0777853271994
  0
LINE
  5
3FE
100
AcDbEntity
  8
handle5
  6
ByLayer
 62
  256
370
   -1
100
AcDbLine
 10
123.9029480989704
 20
-155.7817011630008
 11
123.5339326855778
 21
-155.6326069357684
  0
LINE
  5
3FF
100
AcDbEntity
  8
handle5
  6
ByLayer
 62
  256
370
   -1
100
AcDbLine
 10
123.423729137811
 20
-153.6289390752459
 11
125.5195775714288
 21
-151.7804651382678
  0
LINE
  5
400
100
AcDbEntity
  8
handle5
  6
ByLayer
 62
  256
370
   -1
100
AcDbLine
 10
124.5455909096417
 20
-151.3869428532806
 11
123.3716588314679
 21
-152.4199174683894
  0
LINE
  5
401
100
AcDbEntity
  8
handle5
  6
ByLayer
 62
  256
370
   -1
100
AcDbLine
 10
125.5195775714288
 20
-151.7804651382678
 11
123.3262588969672
 21
-150.89429306801
  0
LINE
  5
402
100
AcDbEntity
  8
handle5
  6
ByLayer
 62
  256
370
   -1
100
AcDbLine
 10
124.3526216917738
 20
-149.0165145903116
 11
123.3179380728586
 21
-148.5984687608058
  0
LINE
  5
403
100
AcDbEntity
  8
handle5
  6
ByLayer
 62
  256
370
   -1
100
AcDbLine
 10
125.1335519943505
 20
-146.9700967407309
 11
123.3176362231273
 21
-148.5679708869087
  0
LINE
  5
404
100
AcDbEntity
  8
handle5
  6
ByLayer
 62
  256
370
   -1
100
AcDbLine
 10
124.4965106881243
 20
-139.0317546063692
 11
123.4187407382864
 21
-139.9801133611918
  0
LINE
  5
405
100
AcDbEntity
  8
handle5
  6
ByLayer
 62
  256
370
   -1
100
AcDbLine
 10
124.4000161673452
 20
-137.8464135169476
 11
123.4750888801798
 21
-138.6602825575935
  0
LINE
  5
406
100
AcDbEntity
  8
handle5
  6
ByLayer
 62
  256
370
   -1
100
AcDbLine
 10
130.2022222276373
 20
-140.1906934505389
 11
123.5372462151562
 21
-137.4978263993573
  0
LINE
  5
407
100
AcDbEntity
  8
handle5
  6
ByLayer
 62
  256
370
   -1
100
AcDbLine
 10
123.9030496204529
 20
-133.2031376121621
 11
124.0138080052043
 21
-133.1056780108073
  0
LINE
  5
408
100
AcDbEntity
  8
handle5
  6
ByLayer
 62
  256
370
   -1
100
AcDbLine
 10
124.4000161673452
 20
-137.8464135169476
 11
123.9746978710854
 21
-132.6217390708832
  0
LINE
  5
409
100
AcDbEntity
  8
handle5
  6
ByLayer
 62
  256
370
   -1
100
AcDbLine
 10
125.4416825063649
 20
-126.4922330156016
 11
125.9316242173374
 21
-133.879792857927
  0
LINE
  5
40A
100
AcDbEntity
  8
handle5
  6
ByLayer
 62
  256
370
   -1
100
AcDbLine
 10
134.8848687569039
 20
-128.6009171269009
 11
126.2806628587137
 21
-125.124538138975
  0
LINE
  5
40B
100
AcDbEntity
  8
handle5
  6
ByLayer
 62
  256
370
   -1
100
AcDbLine
 10
127.2670663677201
 20
-125.5230772340293
 11
127.1492056779383
 21
-124.0752513539032
  0
LINE
  5
40C
100
AcDbEntity
  8
handle5
  6
ByLayer
 62
  256
370
   -1
100
AcDbLine
 10
133.717912877249
 20
-125.8369665789447
 11
127.8383632123113
 21
-123.4614373138959
  0
LINE
  5
40D
100
AcDbEntity
  8
handle5
  6
ByLayer
 62
  256
370
   -1
100
AcDbLine
 10
132.4889168969727
 20
-123.2864033706888
 11
132.6592715012487
 21
-125.4092410364805
  0
LINE
  5
40E
100
AcDbEntity
  8
handle5
  6
ByLayer
 62
  256
370
   -1
100
AcDbLine
 10
133.8532310865605
 20
-124.3586405366141
 11
132.6592694150897
 21
-125.4092401936044
  0
LINE
  5
40F
100
AcDbEntity
  8
handle5
  6
ByLayer
 62
  256
370
   -1
100
AcDbLine
 10
134.6217903584194
 20
-125.3226267196878
 11
134.8848687569039
 21
-128.6009171269009
  0
LINE
  5
410
100
AcDbEntity
  8
handle5
  6
ByLayer
 62
  256
370
   -1
100
AcDbLine
 10
135.7548298866671
 20
-127.7970354736137
 11
135.7142211183019
 21
-127.298184615451
  0
LINE
  5
411
100
AcDbEntity
  8
handle5
  6
ByLayer
 62
  256
370
   -1
100
AcDbLine
 10
135.9782236130654
 20
-127.6004651629324
 11
135.7548298866671
 21
-127.7970354736137
  0
LINE
  5
412
100
AcDbEntity
  8
handle5
  6
ByLayer
 62
  256
370
   -1
100
AcDbLine
 10
137.7959605751514
 20
-128.6224075640219
 11
138.4636702885616
 21
-128.0168573922031
  0
LINE
  5
413
100
AcDbEntity
  8
handle5
  6
ByLayer
 62
  256
370
   -1
100
AcDbLine
 10
138.8568387508354
 20
-130.2057221711967
 11
138.6787972120664
 21
-128.0186218916685
  0
LINE
  5
414
100
AcDbEntity
  8
handle5
  6
ByLayer
 62
  256
370
   -1
100
AcDbLine
 10
145.3076850285689
 20
-130.5196114224591
 11
139.1267080377622
 21
-128.0222957154729
  0
LINE
  5
415
100
AcDbEntity
  8
handle5
  6
ByLayer
 62
  256
370
   -1
100
AcDbLine
 10
144.0862267064508
 20
-128.0629743432216
 11
144.2490438843641
 21
-130.0918859736479
  0
LINE
  5
416
100
AcDbEntity
  8
handle5
  6
ByLayer
 62
  256
370
   -1
100
AcDbLine
 10
146.0569937025576
 20
-128.079138834651
 11
146.474642067201
 21
-133.2835624386797
  0
LINE
  5
417
100
AcDbEntity
  8
handle5
  6
ByLayer
 62
  256
370
   -1
100
AcDbLine
 10
148.0912696666012
 20
-129.2823310498558
 11
147.9770956643877
 21
-128.0948877647716
  0
LINE
  5
418
100
AcDbEntity
  8
handle5
  6
ByLayer
 62
  256
370
   -1
100
AcDbLine
 10
149.4272294510436
 20
-128.1067819537915
 11
147.1516294267691
 21
-130.1091463346709
  0
LINE
  5
419
100
AcDbEntity
  8
handle5
  6
ByLayer
 62
  256
370
   -1
100
AcDbLine
 10
152.2875528470351
 20
-128.1302427044084
 11
147.3446029651687
 21
-132.4796806917397
  0
LINE
  5
41A
100
AcDbEntity
  8
handle5
  6
ByLayer
 62
  256
370
   -1
100
AcDbLine
 10
149.3857338854485
 20
-133.3050528758009
 11
155.0666015284737
 21
-128.1530368290726
  0
LINE
  5
41B
100
AcDbEntity
  8
handle5
  6
ByLayer
 62
  256
370
   -1
100
AcDbLine
 10
155.3076106257456
 20
-128.1550136175488
 11
155.8388171946612
 21
-134.7745312854269
  0
LINE
  5
41C
100
AcDbEntity
  8
handle5
  6
ByLayer
 62
  256
370
   -1
100
AcDbLine
 10
157.2783765174505
 20
-128.1711780999197
 11
158.0644144503163
 21
-137.9662073758471
  0
LINE
  5
41D
100
AcDbEntity
  8
handle5
  6
ByLayer
 62
  256
370
   -1
100
AcDbLine
 10
159.6810420497166
 20
-133.9649759870232
 11
159.1254185507734
 21
-128.1863277828484
  0
LINE
  5
41E
100
AcDbEntity
  8
handle5
  6
ByLayer
 62
  256
370
   -1
100
AcDbLine
 10
161.6029688394398
 20
-128.2066489778381
 11
161.9508108912112
 21
-128.347188478427
  0
LINE
  5
41F
100
AcDbEntity
  8
handle5
  6
ByLayer
 62
  256
370
   -1
100
AcDbLine
 10
185.9266047999374
 20
-135.7417259370644
 11
167.3944973225463
 21
-128.254151860073
  0
LINE
  5
420
100
AcDbEntity
  8
handle5
  6
ByLayer
 62
  256
370
   -1
100
AcDbLine
 10
167.5453896071205
 20
-128.3151266871925
 11
167.5405233928341
 21
-128.2553495852056
  0
LINE
  5
421
100
AcDbEntity
  8
handle5
  6
ByLayer
 62
  256
370
   -1
100
AcDbLine
 10
168.5346254293481
 20
-128.7148006916942
 11
168.4978627127574
 21
-128.2632018088639
  0
LINE
  5
422
100
AcDbEntity
  8
handle5
  6
ByLayer
 62
  256
370
   -1
100
AcDbLine
 10
170.290583765265
 20
-128.277905943927
 11
171.2987676146184
 21
-128.6852450047688
  0
LINE
  5
423
100
AcDbEntity
  8
handle5
  6
ByLayer
 62
  256
370
   -1
100
AcDbLine
 10
171.7614572256077
 20
-128.2899702424922
 11
171.2987676146184
 21
-128.6852450047688
  0
LINE
  5
424
100
AcDbEntity
  8
handle5
  6
ByLayer
 62
  256
370
   -1
100
AcDbLine
 10
172.40255171448
 20
-130.2775686941785
 11
172.2410712997935
 21
-128.2939041005316
  0
LINE
  5
425
100
AcDbEntity
  8
handle5
  6
ByLayer
 62
  256
370
   -1
100
AcDbLine
 10
173.1860380670079
 20
-128.3016548428771
 11
178.9421946781411
 21
-130.6273293015
  0
ELLIPSE
  5
426
100
AcDbEntity
  8
handle4
  6
ByLayer
 62
  256
370
   -1
100
AcDbEllipse
 10
-1301.889206652069
 20
390.8161482486611
 30
0
 11
-1375.400394607358
 21
555.6978304453955
 31
0
 40
0.169317757651324
 41
3.143243850395335
 42
3.276546258410942
  0
ELLIPSE
  5
427
100
AcDbEntity
  8
handle4
  6
ByLayer
 62
  256
370
   -1
100
AcDbEllipse
 10
-1178.578569919462
 20
390.8232307501538
 30
0
 11
1375.397387972622
 21
-555.7052720695426
 31
0
 40
0.169317757651324
 41
0.001651196805549038
 42
0.1349536048211522
  0
ENDSEC
  0
SECTION
  2
OBJECTS
  0
DICTIONARY
  5
C
330
0
100
AcDbDictionary
281
    1
  3
ACAD_GROUP
350
D
  0
DICTIONARY
  5
D
330
C
100
AcDbDictionary
281
    1
  0
ENDSEC
  0
EOF
