  0
SECTION
  2
HEADER
  9
$ANGBASE
  50
0.0
  9
$ANGDIR
  70
1
  9
$MEASUREMENT
  70
0
  0
ENDSEC
  0
SECTION
  2
TABLES
  0
TABLE
  2
LTYPE
  70
4
  0
LTYPE
  5
40F
  2
CONTINUOUS
  70
0
  3
Solid line
  72
65
  73
0
  40
0.0
  0
LTYPE
  5
410
  2
DASHDOT
 70
0
  3
Dash Dot ____ _ ____ _
 72
65
 73
4
 40
2.0
 49
1.25
 49
-0.25
 49
0.25
 49
-0.25
  0
LTYPE
  5
411
  2
DASHED
 70
0
  3
Dashed __ __ __ __ __
 72
65
 73
2
 40
0.75
 49
0.5
 49
-0.25
  0
LTYPE
  5
43B
  2
DOTTED
 70
0
  3
Dotted .  .  .  .
 72
65
 73
2
 40
0.2
 49
0.0
 49
-0.2
  0
ENDTAB
  0
TABLE
  2
STYLE
  70
4
  0
STYLE
  2
KICAD
  70
0
  40
0
  41
1
  42
1
  50
0
  71
0
  3
isocp.shx
  0
STYLE
  2
KICADB
  70
0
  40
0
  41
1
  42
1
  50
0
  71
0
  3
isocp.shx
  0
STYLE
  2
KICADI
  70
0
  40
0
  41
1
  42
1
  50
15
  71
0
  3
isocp.shx
  0
STYLE
  2
KICADBI
  70
0
  40
0
  41
1
  42
1
  50
15
  71
0
  3
isocp.shx
  0
ENDTAB
  0
TABLE
  2
LAYER
  70
1
  0
LAYER
  2
BLACK
  70
0
  62
7
  6
CONTINUOUS
  0
ENDTAB
  0
ENDSEC
  0
SECTION
  2
ENTITIES
0
LINE
8
BLACK
6
CONTINUOUS
10
2.85
20
1.25197
11
2.86142
21
1.25133
0
LINE
8
BLACK
6
CONTINUOUS
10
2.86142
20
1.25133
11
2.87269
21
1.24941
0
LINE
8
BLACK
6
CONTINUOUS
10
2.87269
20
1.24941
11
2.88368
21
1.24625
0
LINE
8
BLACK
6
CONTINUOUS
10
2.88368
20
1.24625
11
2.89424
21
1.24187
0
LINE
8
BLACK
6
CONTINUOUS
10
2.89424
20
1.24187
11
2.90425
21
1.23634
0
LINE
8
BLACK
6
CONTINUOUS
10
2.90425
20
1.23634
11
2.91358
21
1.22972
0
LINE
8
BLACK
6
CONTINUOUS
10
2.91358
20
1.22972
11
2.9221
21
1.2221
0
LINE
8
BLACK
6
CONTINUOUS
10
2.9221
20
1.2221
11
2.92972
21
1.21358
0
LINE
8
BLACK
6
CONTINUOUS
10
2.92972
20
1.21358
11
2.93634
21
1.20425
0
LINE
8
BLACK
6
CONTINUOUS
10
2.93634
20
1.20425
11
2.94187
21
1.19424
0
LINE
8
BLACK
6
CONTINUOUS
10
2.94187
20
1.19424
11
2.94625
21
1.18368
0
LINE
8
BLACK
6
CONTINUOUS
10
2.94625
20
1.18368
11
2.94941
21
1.17269
0
LINE
8
BLACK
6
CONTINUOUS
10
2.94941
20
1.17269
11
2.95133
21
1.16142
0
LINE
8
BLACK
6
CONTINUOUS
10
2.95133
20
1.16142
11
2.95197
21
1.15
0
LINE
8
BLACK
6
CONTINUOUS
10
2.95197
20
1.15
11
2.95197
21
1.15
0
LINE
8
BLACK
6
CONTINUOUS
10
2.95197
20
1.15
11
2.95197
21
0.1
0
LINE
8
BLACK
6
CONTINUOUS
10
2.95197
20
0.1
11
2.95197
21
0.099999
0
LINE
8
BLACK
6
CONTINUOUS
10
2.95197
20
0.099999
11
2.95137
21
0.0886279
0
LINE
8
BLACK
6
CONTINUOUS
10
2.95137
20
0.0886279
11
2.9495
21
0.0773873
0
LINE
8
BLACK
6
CONTINUOUS
10
2.9495
20
0.0773873
11
2.94639
21
0.0664266
0
LINE
8
BLACK
6
CONTINUOUS
10
2.94639
20
0.0664266
11
2.94206
21
0.0558837
0
LINE
8
BLACK
6
CONTINUOUS
10
2.94206
20
0.0558837
11
2.93659
21
0.0458911
0
LINE
8
BLACK
6
CONTINUOUS
10
2.93659
20
0.0458911
11
2.93003
21
0.0365746
0
LINE
8
BLACK
6
CONTINUOUS
10
2.93003
20
0.0365746
11
2.92246
21
0.0280512
0
LINE
8
BLACK
6
CONTINUOUS
10
2.92246
20
0.0280512
11
2.91399
21
0.0204282
0
LINE
8
BLACK
6
CONTINUOUS
10
2.91399
20
0.0204282
11
2.90472
21
0.0138014
0
LINE
8
BLACK
6
CONTINUOUS
10
2.90472
20
0.0138014
11
2.89477
21
0.00825421
0
LINE
8
BLACK
6
CONTINUOUS
10
2.89477
20
0.00825421
11
2.88426
21
0.0038563
0
LINE
8
BLACK
6
CONTINUOUS
10
2.88426
20
0.0038563
11
2.87332
21
0.000663071
0
LINE
8
BLACK
6
CONTINUOUS
10
2.87332
20
0.000663071
11
2.86209
21
-0.00128539
0
LINE
8
BLACK
6
CONTINUOUS
10
2.86209
20
-0.00128539
11
2.85072
21
-0.00196437
0
LINE
8
BLACK
6
CONTINUOUS
10
2.85072
20
-0.00196437
11
2.85071
21
-0.00196846
0
LINE
8
BLACK
6
CONTINUOUS
10
2.85071
20
-0.00196846
11
0.1
21
-0.0019685
0
LINE
8
BLACK
6
CONTINUOUS
10
0.1
20
-0.0019685
11
0.0885831
21
-0.00132736
0
LINE
8
BLACK
6
CONTINUOUS
10
0.0885831
20
-0.00132736
11
0.0773099
21
0.000588071
0
LINE
8
BLACK
6
CONTINUOUS
10
0.0773099
20
0.000588071
11
0.0663219
21
0.00375362
0
LINE
8
BLACK
6
CONTINUOUS
10
0.0663219
20
0.00375362
11
0.0557575
21
0.00812957
0
LINE
8
BLACK
6
CONTINUOUS
10
0.0557575
20
0.00812957
11
0.0457495
21
0.0136608
0
LINE
8
BLACK
6
CONTINUOUS
10
0.0457495
20
0.0136608
11
0.0364237
21
0.0202778
0
LINE
8
BLACK
6
CONTINUOUS
10
0.0364237
20
0.0202778
11
0.0278974
21
0.0278974
0
LINE
8
BLACK
6
CONTINUOUS
10
0.0278974
20
0.0278974
11
0.0202778
21
0.0364237
0
LINE
8
BLACK
6
CONTINUOUS
10
0.0202778
20
0.0364237
11
0.0136608
21
0.0457495
0
LINE
8
BLACK
6
CONTINUOUS
10
0.0136608
20
0.0457495
11
0.00812957
21
0.0557575
0
LINE
8
BLACK
6
CONTINUOUS
10
0.00812957
20
0.0557575
11
0.00375362
21
0.0663219
0
LINE
8
BLACK
6
CONTINUOUS
10
0.00375362
20
0.0663219
11
0.000588071
21
0.0773099
0
LINE
8
BLACK
6
CONTINUOUS
10
0.000588071
20
0.0773099
11
-0.00132736
21
0.0885831
0
LINE
8
BLACK
6
CONTINUOUS
10
-0.00132736
20
0.0885831
11
-0.0019685
21
0.1
0
LINE
8
BLACK
6
CONTINUOUS
10
-0.0019685
20
0.1
11
-0.0019685
21
1.15
0
LINE
8
BLACK
6
CONTINUOUS
10
-0.0019685
20
1.15
11
-0.00132736
21
1.16142
0
LINE
8
BLACK
6
CONTINUOUS
10
-0.00132736
20
1.16142
11
0.000588071
21
1.17269
0
LINE
8
BLACK
6
CONTINUOUS
10
0.000588071
20
1.17269
11
0.00375362
21
1.18368
0
LINE
8
BLACK
6
CONTINUOUS
10
0.00375362
20
1.18368
11
0.00812957
21
1.19424
0
LINE
8
BLACK
6
CONTINUOUS
10
0.00812957
20
1.19424
11
0.0136608
21
1.20425
0
LINE
8
BLACK
6
CONTINUOUS
10
0.0136608
20
1.20425
11
0.0202778
21
1.21358
0
LINE
8
BLACK
6
CONTINUOUS
10
0.0202778
20
1.21358
11
0.0278974
21
1.2221
0
LINE
8
BLACK
6
CONTINUOUS
10
0.0278974
20
1.2221
11
0.0364237
21
1.22972
0
LINE
8
BLACK
6
CONTINUOUS
10
0.0364237
20
1.22972
11
0.0457495
21
1.23634
0
LINE
8
BLACK
6
CONTINUOUS
10
0.0457495
20
1.23634
11
0.0557575
21
1.24187
0
LINE
8
BLACK
6
CONTINUOUS
10
0.0557575
20
1.24187
11
0.0663219
21
1.24625
0
LINE
8
BLACK
6
CONTINUOUS
10
0.0663219
20
1.24625
11
0.0773099
21
1.24941
0
LINE
8
BLACK
6
CONTINUOUS
10
0.0773099
20
1.24941
11
0.0885831
21
1.25133
0
LINE
8
BLACK
6
CONTINUOUS
10
0.0885831
20
1.25133
11
0.1
21
1.25197
0
LINE
8
BLACK
6
CONTINUOUS
10
0.1
20
1.25197
11
2.85
21
1.25197
0
LINE
8
BLACK
6
CONTINUOUS
10
0.1
20
1.24803
11
0.0940702
21
1.24803
0
LINE
8
BLACK
6
CONTINUOUS
10
0.0940702
20
1.24803
11
0.082297
21
1.2466
0
LINE
8
BLACK
6
CONTINUOUS
10
0.082297
20
1.2466
11
0.070782
21
1.24376
0
LINE
8
BLACK
6
CONTINUOUS
10
0.070782
20
1.24376
11
0.0596931
21
1.23956
0
LINE
8
BLACK
6
CONTINUOUS
10
0.0596931
20
1.23956
11
0.0491919
21
1.23405
0
LINE
8
BLACK
6
CONTINUOUS
10
0.0491919
20
1.23405
11
0.0394316
21
1.22731
0
LINE
8
BLACK
6
CONTINUOUS
10
0.0394316
20
1.22731
11
0.0305546
21
1.21945
0
LINE
8
BLACK
6
CONTINUOUS
10
0.0305546
20
1.21945
11
0.0226902
21
1.21057
0
LINE
8
BLACK
6
CONTINUOUS
10
0.0226902
20
1.21057
11
0.0159531
21
1.20081
0
LINE
8
BLACK
6
CONTINUOUS
10
0.0159531
20
1.20081
11
0.0104417
21
1.19031
0
LINE
8
BLACK
6
CONTINUOUS
10
0.0104417
20
1.19031
11
0.00623622
21
1.17922
0
LINE
8
BLACK
6
CONTINUOUS
10
0.00623622
20
1.17922
11
0.00339803
21
1.1677
0
LINE
8
BLACK
6
CONTINUOUS
10
0.00339803
20
1.1677
11
0.0019685
21
1.15593
0
LINE
8
BLACK
6
CONTINUOUS
10
0.0019685
20
1.15593
11
0.0019685
21
1.15
0
LINE
8
BLACK
6
CONTINUOUS
10
0.0019685
20
1.15
11
0.00196846
21
0.1
0
LINE
8
BLACK
6
CONTINUOUS
10
0.00196846
20
0.1
11
0.0019685
21
0.1
0
LINE
8
BLACK
6
CONTINUOUS
10
0.0019685
20
0.1
11
0.0019685
21
0.0940702
0
LINE
8
BLACK
6
CONTINUOUS
10
0.0019685
20
0.0940702
11
0.00339803
21
0.082297
0
LINE
8
BLACK
6
CONTINUOUS
10
0.00339803
20
0.082297
11
0.00623622
21
0.070782
0
LINE
8
BLACK
6
CONTINUOUS
10
0.00623622
20
0.070782
11
0.0104417
21
0.0596931
0
LINE
8
BLACK
6
CONTINUOUS
10
0.0104417
20
0.0596931
11
0.0159531
21
0.0491919
0
LINE
8
BLACK
6
CONTINUOUS
10
0.0159531
20
0.0491919
11
0.0226902
21
0.0394316
0
LINE
8
BLACK
6
CONTINUOUS
10
0.0226902
20
0.0394316
11
0.0305546
21
0.0305546
0
LINE
8
BLACK
6
CONTINUOUS
10
0.0305546
20
0.0305546
11
0.0394316
21
0.0226902
0
LINE
8
BLACK
6
CONTINUOUS
10
0.0394316
20
0.0226902
11
0.0491919
21
0.0159531
0
LINE
8
BLACK
6
CONTINUOUS
10
0.0491919
20
0.0159531
11
0.0596931
21
0.0104417
0
LINE
8
BLACK
6
CONTINUOUS
10
0.0596931
20
0.0104417
11
0.070782
21
0.00623622
0
LINE
8
BLACK
6
CONTINUOUS
10
0.070782
20
0.00623622
11
0.082297
21
0.00339803
0
LINE
8
BLACK
6
CONTINUOUS
10
0.082297
20
0.00339803
11
0.0940702
21
0.0019685
0
LINE
8
BLACK
6
CONTINUOUS
10
0.0940702
20
0.0019685
11
0.1
21
0.0019685
0
LINE
8
BLACK
6
CONTINUOUS
10
0.1
20
0.0019685
11
2.85069
21
0.00196854
0
LINE
8
BLACK
6
CONTINUOUS
10
2.85069
20
0.00196854
11
2.8507
21
0.00197244
0
LINE
8
BLACK
6
CONTINUOUS
10
2.8507
20
0.00197244
11
2.85661
21
0.00199331
0
LINE
8
BLACK
6
CONTINUOUS
10
2.85661
20
0.00199331
11
2.86834
21
0.00345913
0
LINE
8
BLACK
6
CONTINUOUS
10
2.86834
20
0.00345913
11
2.8798
21
0.0063276
0
LINE
8
BLACK
6
CONTINUOUS
10
2.8798
20
0.0063276
11
2.89083
21
0.0105569
0
LINE
8
BLACK
6
CONTINUOUS
10
2.89083
20
0.0105569
11
2.90128
21
0.0160853
0
LINE
8
BLACK
6
CONTINUOUS
10
2.90128
20
0.0160853
11
2.91098
21
0.0228323
0
LINE
8
BLACK
6
CONTINUOUS
10
2.91098
20
0.0228323
11
2.9198
21
0.0306994
0
LINE
8
BLACK
6
CONTINUOUS
10
2.9198
20
0.0306994
11
2.9276
21
0.0395719
0
LINE
8
BLACK
6
CONTINUOUS
10
2.9276
20
0.0395719
11
2.93428
21
0.0493205
0
LINE
8
BLACK
6
CONTINUOUS
10
2.93428
20
0.0493205
11
2.93973
21
0.0598029
0
LINE
8
BLACK
6
CONTINUOUS
10
2.93973
20
0.0598029
11
2.94388
21
0.0708663
0
LINE
8
BLACK
6
CONTINUOUS
10
2.94388
20
0.0708663
11
2.94667
21
0.0823494
0
LINE
8
BLACK
6
CONTINUOUS
10
2.94667
20
0.0823494
11
2.94805
21
0.0940848
0
LINE
8
BLACK
6
CONTINUOUS
10
2.94805
20
0.0940848
11
2.94803
21
0.099993
0
LINE
8
BLACK
6
CONTINUOUS
10
2.94803
20
0.099993
11
2.94803
21
0.099997
0
LINE
8
BLACK
6
CONTINUOUS
10
2.94803
20
0.099997
11
2.94803
21
0.1
0
LINE
8
BLACK
6
CONTINUOUS
10
2.94803
20
0.1
11
2.94803
21
1.15
0
LINE
8
BLACK
6
CONTINUOUS
10
2.94803
20
1.15
11
2.94803
21
1.15593
0
LINE
8
BLACK
6
CONTINUOUS
10
2.94803
20
1.15593
11
2.9466
21
1.1677
0
LINE
8
BLACK
6
CONTINUOUS
10
2.9466
20
1.1677
11
2.94376
21
1.17922
0
LINE
8
BLACK
6
CONTINUOUS
10
2.94376
20
1.17922
11
2.93956
21
1.19031
0
LINE
8
BLACK
6
CONTINUOUS
10
2.93956
20
1.19031
11
2.93405
21
1.20081
0
LINE
8
BLACK
6
CONTINUOUS
10
2.93405
20
1.20081
11
2.92731
21
1.21057
0
LINE
8
BLACK
6
CONTINUOUS
10
2.92731
20
1.21057
11
2.91945
21
1.21945
0
LINE
8
BLACK
6
CONTINUOUS
10
2.91945
20
1.21945
11
2.91057
21
1.22731
0
LINE
8
BLACK
6
CONTINUOUS
10
2.91057
20
1.22731
11
2.90081
21
1.23405
0
LINE
8
BLACK
6
CONTINUOUS
10
2.90081
20
1.23405
11
2.89031
21
1.23956
0
LINE
8
BLACK
6
CONTINUOUS
10
2.89031
20
1.23956
11
2.87922
21
1.24376
0
LINE
8
BLACK
6
CONTINUOUS
10
2.87922
20
1.24376
11
2.8677
21
1.2466
0
LINE
8
BLACK
6
CONTINUOUS
10
2.8677
20
1.2466
11
2.85593
21
1.24803
0
LINE
8
BLACK
6
CONTINUOUS
10
2.85593
20
1.24803
11
2.85
21
1.24803
0
LINE
8
BLACK
6
CONTINUOUS
10
2.85
20
1.24803
11
0.1
21
1.24803
  0
ENDSEC
  0
EOF
