M48
; DRILL file {KiCad 7.0.2-6a45011f42~172~ubuntu22.04.1} date Wed 26 Apr 2023 12:06:34 AM CDT
; FORMAT={-:-/ absolute / metric / decimal}
; #@! TF.CreationDate,2023-04-26T00:06:34-05:00
; #@! TF.GenerationSoftware,Kicad,Pcbnew,7.0.2-6a45011f42~172~ubuntu22.04.1
; #@! TF.FileFunction,MixedPlating,1,2
FMAT,2
METRIC
; #@! TA.AperFunction,Plated,PTH,ViaDrill
T1C0.400
; #@! TA.AperFunction,Plated,PTH,ComponentDrill
T2C0.800
; #@! TA.AperFunction,Plated,PTH,ComponentDrill
T3C1.000
; #@! TA.AperFunction,Plated,PTH,ComponentDrill
T4C1.240
; #@! TA.AperFunction,NonPlated,NPTH,ComponentDrill
T5C3.000
%
G90
G05
T1
X12.7Y22.86
X15.24Y21.59
X19.05Y25.4
X20.32Y22.86
X22.86Y25.4
X22.86Y17.78
X22.86Y10.16
X22.86Y7.62
X22.86Y5.08
X25.4Y12.7
X27.94Y25.4
X27.94Y21.59
X30.48Y27.94
X31.75Y13.97
X33.02Y11.43
X34.29Y19.05
X34.29Y8.89
X34.29Y6.35
X34.29Y3.81
X38.1Y27.94
X38.1Y16.51
X38.165Y24.065
X40.64Y25.4
X41.917Y12.7
X41.917Y10.16
X43.18Y24.13
X45.72Y19.05
X46.99Y27.94
X46.997Y10.16
X49.537Y10.16
T2
X3.81Y20.32
X6.31Y20.32
X11.43Y19.05
X11.43Y16.51
X11.43Y13.97
X11.43Y11.43
X11.43Y8.89
X11.43Y6.35
X11.43Y3.81
X19.05Y19.05
X19.05Y16.51
X19.05Y13.97
X19.05Y11.43
X19.05Y8.89
X19.05Y6.35
X19.05Y3.81
T3
X6.35Y12.7
X6.35Y10.16
X11.43Y30.48
X11.43Y27.94
X15.24Y30.48
X15.24Y27.94
X33.02Y27.94
X35.56Y27.94
X38.1Y11.43
X38.1Y8.89
X38.1Y6.35
X38.1Y3.81
X41.91Y27.94
X44.45Y27.94
X53.347Y12.7
X53.347Y10.16
X53.347Y5.08
X53.347Y2.54
X57.157Y12.7
X57.157Y10.16
X57.157Y5.08
X57.157Y2.54
X60.967Y12.7
X60.967Y10.16
X60.967Y5.08
X60.967Y2.54
X64.77Y5.088
X64.77Y2.548
X64.777Y12.7
X64.777Y10.16
X71.12Y12.7
X71.12Y10.16
T4
X53.34Y22.86
X53.34Y20.32
X53.34Y17.78
T5
X3.81Y27.94
X3.81Y3.81
X71.12Y27.94
X71.12Y3.81
T0
M30
