G04 #@! TF.GenerationSoftware,KiCad,Pcbnew,7.0.2-6a45011f42~172~ubuntu22.04.1*
G04 #@! TF.CreationDate,2023-04-29T21:45:33-05:00*
G04 #@! TF.ProjectId,barrel,62617272-656c-42e6-9b69-6361645f7063,rev?*
G04 #@! TF.SameCoordinates,PX6f6d640PY735db10*
G04 #@! TF.FileFunction,Copper,L2,Bot*
G04 #@! TF.FilePolarity,Positive*
%FSLAX46Y46*%
G04 Gerber Fmt 4.6, Leading zero omitted, Abs format (unit mm)*
G04 Created by KiCad (PCBNEW 7.0.2-6a45011f42~172~ubuntu22.04.1) date 2023-04-29 21:45:33*
%MOMM*%
%LPD*%
G01*
G04 APERTURE LIST*
G04 Aperture macros list*
%AMRoundRect*
0 Rectangle with rounded corners*
0 $1 Rounding radius*
0 $2 $3 $4 $5 $6 $7 $8 $9 X,Y pos of 4 corners*
0 Add a 4 corners polygon primitive as box body*
4,1,4,$2,$3,$4,$5,$6,$7,$8,$9,$2,$3,0*
0 Add four circle primitives for the rounded corners*
1,1,$1+$1,$2,$3*
1,1,$1+$1,$4,$5*
1,1,$1+$1,$6,$7*
1,1,$1+$1,$8,$9*
0 Add four rect primitives between the rounded corners*
20,1,$1+$1,$2,$3,$4,$5,0*
20,1,$1+$1,$4,$5,$6,$7,0*
20,1,$1+$1,$6,$7,$8,$9,0*
20,1,$1+$1,$8,$9,$2,$3,0*%
G04 Aperture macros list end*
G04 #@! TA.AperFunction,ComponentPad*
%ADD10O,1.700000X3.000000*%
G04 #@! TD*
G04 #@! TA.AperFunction,SMDPad,CuDef*
%ADD11RoundRect,0.243750X0.243750X0.456250X-0.243750X0.456250X-0.243750X-0.456250X0.243750X-0.456250X0*%
G04 #@! TD*
G04 #@! TA.AperFunction,SMDPad,CuDef*
%ADD12RoundRect,0.250000X0.450000X-0.262500X0.450000X0.262500X-0.450000X0.262500X-0.450000X-0.262500X0*%
G04 #@! TD*
G04 #@! TA.AperFunction,SMDPad,CuDef*
%ADD13RoundRect,0.250000X-0.450000X0.262500X-0.450000X-0.262500X0.450000X-0.262500X0.450000X0.262500X0*%
G04 #@! TD*
G04 #@! TA.AperFunction,ViaPad*
%ADD14C,0.800000*%
G04 #@! TD*
G04 #@! TA.AperFunction,Conductor*
%ADD15C,0.508000*%
G04 #@! TD*
G04 APERTURE END LIST*
D10*
G04 #@! TO.P,J2,1,Pin_1*
G04 #@! TO.N,/G2*
X7620000Y9210000D03*
G04 #@! TO.P,J2,2,Pin_2*
G04 #@! TO.N,/H2*
X5080000Y9210000D03*
G04 #@! TD*
G04 #@! TO.P,J1,1,Pin_1*
G04 #@! TO.N,/G1*
X7620000Y14290000D03*
G04 #@! TO.P,J1,2,Pin_2*
G04 #@! TO.N,/H1*
X5080000Y14290000D03*
G04 #@! TD*
D11*
G04 #@! TO.P,D1,1,K*
G04 #@! TO.N,/G1*
X6955000Y19370000D03*
G04 #@! TO.P,D1,2,A*
G04 #@! TO.N,Net-(D1-A)*
X5080000Y19370000D03*
G04 #@! TD*
D12*
G04 #@! TO.P,R1,1*
G04 #@! TO.N,/H1*
X1270000Y17545000D03*
G04 #@! TO.P,R1,2*
G04 #@! TO.N,Net-(D1-A)*
X1270000Y19370000D03*
G04 #@! TD*
D11*
G04 #@! TO.P,D3,1,K*
G04 #@! TO.N,/G2*
X6955000Y4130000D03*
G04 #@! TO.P,D3,2,A*
G04 #@! TO.N,Net-(D3-A)*
X5080000Y4130000D03*
G04 #@! TD*
D13*
G04 #@! TO.P,R3,1*
G04 #@! TO.N,/H2*
X1270000Y5955000D03*
G04 #@! TO.P,R3,2*
G04 #@! TO.N,Net-(D3-A)*
X1270000Y4130000D03*
G04 #@! TD*
D14*
G04 #@! TO.N,/G2*
X10160000Y6670000D03*
G04 #@! TO.N,/H2*
X1270000Y9210000D03*
G04 #@! TO.N,/H1*
X1270000Y14290000D03*
G04 #@! TO.N,/G1*
X10160000Y16830000D03*
G04 #@! TD*
D15*
G04 #@! TO.N,/G2*
X10160000Y6670000D02*
X10160000Y5400000D01*
G04 #@! TO.N,/G1*
X10160000Y16830000D02*
X10160000Y18100000D01*
G04 #@! TO.N,/G2*
X8890000Y4130000D02*
X6955000Y4130000D01*
G04 #@! TO.N,/G1*
X8890000Y19370000D02*
X6955000Y19370000D01*
G04 #@! TO.N,/G2*
X8890000Y9210000D02*
X10160000Y7940000D01*
X10160000Y7940000D02*
X10160000Y6670000D01*
X10160000Y5400000D02*
X8890000Y4130000D01*
G04 #@! TO.N,/G1*
X8890000Y14290000D02*
X10160000Y15560000D01*
X10160000Y15560000D02*
X10160000Y16830000D01*
X10160000Y18100000D02*
X8890000Y19370000D01*
G04 #@! TO.N,Net-(D3-A)*
X1270000Y4130000D02*
X5080000Y4130000D01*
G04 #@! TO.N,Net-(D1-A)*
X1270000Y19370000D02*
X5080000Y19370000D01*
G04 #@! TO.N,/H2*
X5080000Y9210000D02*
X1270000Y9210000D01*
X1270000Y9210000D02*
X1270000Y5955000D01*
G04 #@! TO.N,/H1*
X5080000Y14290000D02*
X1270000Y14290000D01*
X1270000Y14290000D02*
X1270000Y17545000D01*
G04 #@! TD*
M02*
