999
dxfrw 0.6.3
  0
SECTION
  2
HEADER
  9
$ACADVER
  1
AC1021
  9
$DWGCODEPAGE
  3
ANSI_1252
  9
$INSBASE
 10
0
 20
0
 30
0
  9
$EXTMIN
 10
-3.552713678800501e-15
 20
-118.9599751813441
 30
0
  9
$EXTMAX
 10
127.0151876000896
 20
0
 30
0
  9
$LIMMIN
 10
0
 20
0
  9
$LIMMAX
 10
420
 20
297
  9
$ORTHOMODE
 70
    0
  9
$REGENMODE
 70
    1
  9
$FILLMODE
 70
    1
  9
$QTEXTMODE
 70
    0
  9
$MIRRTEXT
 70
    0
  9
$LTSCALE
 40
1
  9
$ATTMODE
 70
    0
  9
$TEXTSIZE
 40
2.5
  9
$TRACEWID
 40
15.68
  9
$TEXTSTYLE
  7
STANDARD
  9
$CLAYER
  8
handle9
  9
$CELTYPE
  6
BYLAYER
  9
$CECOLOR
 62
  256
  9
$CELTSCALE
 40
1
  9
$DISPSILH
 70
    0
  9
$DIMSCALE
 40
1
  9
$DIMASZ
 40
2.5
  9
$DIMEXO
 40
0.625
  9
$DIMDLI
 40
3.75
  9
$DIMRND
 40
0
  9
$DIMDLE
 40
0
  9
$DIMEXE
 40
1.25
  9
$DIMTP
 40
0
  9
$DIMTM
 40
0
  9
$DIMTXT
 40
2.5
  9
$DIMCEN
 40
2.5
  9
$DIMTSZ
 40
0
  9
$DIMTOL
 70
    0
  9
$DIMLIM
 70
    0
  9
$DIMTIH
 70
    0
  9
$DIMTOH
 70
    0
  9
$DIMSE1
 70
    0
  9
$DIMSE2
 70
    0
  9
$DIMTAD
 70
    1
  9
$DIMZIN
 70
    8
  9
$DIMBLK
  1

  9
$DIMASO
 70
    1
  9
$DIMSHO
 70
    1
  9
$DIMPOST
  1

  9
$DIMAPOST
  1

  9
$DIMALT
 70
    0
  9
$DIMALTD
 70
    3
  9
$DIMALTF
 40
0.03937
  9
$DIMLFAC
 40
1
  9
$DIMTOFL
 70
    1
  9
$DIMTVP
 40
0
  9
$DIMTIX
 70
    0
  9
$DIMSOXD
 70
    0
  9
$DIMSAH
 70
    0
  9
$DIMBLK1
  1

  9
$DIMBLK2
  1

  9
$DIMSTYLE
  2
STANDARD
  9
$DIMCLRD
 70
    0
  9
$DIMCLRE
 70
    0
  9
$DIMCLRT
 70
    0
  9
$DIMTFAC
 40
1
  9
$DIMGAP
 40
0.625
  9
$DIMJUST
 70
    0
  9
$DIMSD1
 70
    0
  9
$DIMSD2
 70
    0
  9
$DIMTOLJ
 70
    0
  9
$DIMTZIN
 70
    8
  9
$DIMALTZ
 70
    0
  9
$DIMALTTZ
 70
    0
  9
$DIMUPT
 70
    0
  9
$DIMDEC
 70
    2
  9
$DIMTDEC
 70
    2
  9
$DIMALTU
 70
    2
  9
$DIMALTTD
 70
    3
  9
$DIMTXSTY
  7
STANDARD
  9
$DIMAUNIT
 70
    0
  9
$DIMADEC
 70
    0
  9
$DIMALTRND
 40
0
  9
$DIMAZIN
 70
    0
  9
$DIMDSEP
 70
   44
  9
$DIMATFIT
 70
    3
  9
$DIMFRAC
 70
    0
  9
$DIMLDRBLK
  1
STANDARD
  9
$DIMLUNIT
 70
    2
  9
$DIMLWD
 70
   -2
  9
$DIMLWE
 70
   -2
  9
$DIMTMOVE
 70
    0
  9
$DIMFXL
 40
1
  9
$DIMFXLON
 70
    0
  9
$DIMJOGANG
 40
0.7854
  9
$DIMTFILL
 70
    0
  9
$DIMTFILLCLR
 70
    0
  9
$DIMARCSYM
 70
    0
  9
$DIMLTYPE
  6

  9
$DIMLTEX1
  6

  9
$DIMLTEX2
  6

  9
$LUNITS
 70
    2
  9
$LUPREC
 70
    4
  9
$SKETCHINC
 40
1
  9
$FILLETRAD
 40
0
  9
$AUNITS
 70
    0
  9
$AUPREC
 70
    2
  9
$MENU
  1
.
  9
$ELEVATION
 40
0
  9
$PELEVATION
 40
0
  9
$THICKNESS
 40
0
  9
$LIMCHECK
 70
    0
  9
$CHAMFERA
 40
0
  9
$CHAMFERB
 40
0
  9
$CHAMFERC
 40
0
  9
$CHAMFERD
 40
0
  9
$SKPOLY
 70
    0
  9
$USRTIMER
 70
    1
  9
$ANGBASE
 50
0
  9
$ANGDIR
 70
    0
  9
$PDMODE
 70
   34
  9
$PDSIZE
 40
0
  9
$PLINEWID
 40
0
  9
$SPLFRAME
 70
    0
  9
$SPLINETYPE
 70
    2
  9
$SPLINESEGS
 70
    8
  9
$HANDSEED
  5
20000
  9
$SURFTAB1
 70
    6
  9
$SURFTAB2
 70
    6
  9
$SURFTYPE
 70
    6
  9
$SURFU
 70
    6
  9
$SURFV
 70
    6
  9
$UCSBASE
  2

  9
$UCSNAME
  2

  9
$UCSORG
 10
0
 20
0
 30
0
  9
$UCSXDIR
 10
1
 20
0
 30
0
  9
$UCSYDIR
 10
0
 20
1
 30
0
  9
$UCSORTHOREF
  2

  9
$UCSORTHOVIEW
 70
    0
  9
$UCSORGTOP
 10
0
 20
0
 30
0
  9
$UCSORGBOTTOM
 10
0
 20
0
 30
0
  9
$UCSORGLEFT
 10
0
 20
0
 30
0
  9
$UCSORGRIGHT
 10
0
 20
0
 30
0
  9
$UCSORGFRONT
 10
0
 20
0
 30
0
  9
$UCSORGBACK
 10
0
 20
0
 30
0
  9
$PUCSBASE
  2

  9
$PUCSNAME
  2

  9
$PUCSORG
 10
0
 20
0
 30
0
  9
$PUCSXDIR
 10
1
 20
0
 30
0
  9
$PUCSYDIR
 10
0
 20
1
 30
0
  9
$PUCSORTHOREF
  2

  9
$PUCSORTHOVIEW
 70
    0
  9
$PUCSORGTOP
 10
0
 20
0
 30
0
  9
$PUCSORGBOTTOM
 10
0
 20
0
 30
0
  9
$PUCSORGLEFT
 10
0
 20
0
 30
0
  9
$PUCSORGRIGHT
 10
0
 20
0
 30
0
  9
$PUCSORGFRONT
 10
0
 20
0
 30
0
  9
$PUCSORGBACK
 10
0
 20
0
 30
0
  9
$USERI1
 70
    0
  9
$USERI2
 70
    0
  9
$USERI3
 70
    0
  9
$USERI4
 70
    0
  9
$USERI5
 70
    0
  9
$USERR1
 40
0
  9
$USERR2
 40
0
  9
$USERR3
 40
0
  9
$USERR4
 40
0
  9
$USERR5
 40
0
  9
$WORLDVIEW
 70
    1
  9
$SHADEDGE
 70
    3
  9
$SHADEDIF
 70
   70
  9
$TILEMODE
 70
    1
  9
$MAXACTVP
 70
   64
  9
$PINSBASE
 10
0
 20
0
 30
0
  9
$PLIMCHECK
 70
    0
  9
$PEXTMIN
 10
0
 20
0
 30
0
  9
$PEXTMAX
 10
0
 20
0
 30
0
  9
$GRIDMODE
 70
    1
  9
$SNAPSTYLE
 70
    0
  9
$PLIMMIN
 10
0
 20
0
  9
$PLIMMAX
 10
7.820100000000001e-07
 20
1.106e-06
  9
$UNITMODE
 70
    0
  9
$VISRETAIN
 70
    1
  9
$PLINEGEN
 70
    0
  9
$PSLTSCALE
 70
    1
  9
$TREEDEPTH
 70
 3020
  9
$CMLSTYLE
  2
Standard
  9
$CMLJUST
 70
    0
  9
$CMLSCALE
 40
20
  9
$PROXYGRAPHICS
 70
    1
  9
$MEASUREMENT
 70
    1
  9
$CELWEIGHT
370
   -1
  9
$ENDCAPS
280
    0
  9
$JOINSTYLE
280
    0
  9
$LWDISPLAY
290
    0
  9
$INSUNITS
 70
    4
  9
$HYPERLINKBASE
  1

  9
$STYLESHEET
  1

  9
$XEDIT
290
    1
  9
$CEPSNTYPE
380
    0
  9
$PSTYLEMODE
290
    1
  9
$EXTNAMES
290
    1
  9
$PSVPSCALE
 40
1
  9
$OLESTARTUP
290
    0
  9
$SORTENTS
280
  127
  9
$INDEXCTL
280
    0
  9
$HIDETEXT
280
    1
  9
$XCLIPFRAME
290
    0
  9
$HALOGAP
280
    0
  9
$OBSCOLOR
 70
  257
  9
$OBSLTYPE
280
    0
  9
$INTERSECTIONDISPLAY
280
    0
  9
$INTERSECTIONCOLOR
 70
  257
  9
$DIMASSOC
280
    1
  9
$PROJECTNAME
  1

  9
$CAMERADISPLAY
290
    0
  9
$LENSLENGTH
 40
50
  9
$CAMERAHEIGHT
 40
0
  9
$STEPSPERSEC
 40
2
  9
$STEPSIZE
 40
50
  9
$3DDWFPREC
 40
2
  9
$PSOLWIDTH
 40
5
  9
$PSOLHEIGHT
 40
80
  9
$LOFTANG1
 40
1.570796326794897
  9
$LOFTANG2
 40
1.570796326794897
  9
$LOFTMAG1
 40
0
  9
$LOFTMAG2
 40
0
  9
$LOFTPARAM
 70
    7
  9
$LOFTNORMALS
280
    1
  9
$LATITUDE
 40
1
  9
$LONGITUDE
 40
1
  9
$NORTHDIRECTION
 40
0
  9
$TIMEZONE
 70
-8000
  9
$LIGHTGLYPHDISPLAY
280
    1
  9
$TILEMODELIGHTSYNCH
280
    1
  9
$SOLIDHIST
280
    1
  9
$SHOWHIST
280
    1
  9
$DWFFRAME
280
    2
  9
$DGNFRAME
280
    0
  9
$REALWORLDSCALE
290
    1
  9
$INTERFERECOLOR
 62
    1
  9
$CSHADOW
280
    0
  9
$SHADOWPLANELOCATION
 40
0
  0
ENDSEC
  0
SECTION
  2
CLASSES
  0
ENDSEC
  0
SECTION
  2
TABLES
  0
TABLE
  2
VPORT
  5
8
330
0
100
AcDbSymbolTable
 70
    1
  0
VPORT
  5
31
330
2
100
AcDbSymbolTableRecord
100
AcDbViewportTableRecord
  2
*ACTIVE
 70
    0
 10
0
 20
0
 11
1
 21
1
 12
37.20487844283625
 22
-36.29670403007378
 13
0
 23
0
 14
10
 24
10
 15
10
 25
10
 16
0
 26
0
 36
1
 17
0
 27
0
 37
0
 40
63.81438873677691
 41
1.405123339658444
 42
50
 43
0
 44
0
 50
0
 51
0
 71
    0
 72
  100
 73
    1
 74
    3
 75
    0
 76
    1
 77
    0
 78
    0
281
    0
 65
    1
110
0
120
0
130
0
111
1
121
0
131
0
112
0
122
1
132
0
 79
    0
146
0
348
10020
 60
    7
 61
    5
292
1
282
    1
141
0
142
0
 63
  250
421
3358443
  0
ENDTAB
  0
TABLE
  2
LTYPE
  5
5
330
0
100
AcDbSymbolTable
 70
    4
  0
LTYPE
  5
14
330
5
100
AcDbSymbolTableRecord
100
AcDbLinetypeTableRecord
  2
ByBlock
 70
    0
  3

 72
   65
 73
    0
 40
0
  0
LTYPE
  5
15
330
5
100
AcDbSymbolTableRecord
100
AcDbLinetypeTableRecord
  2
ByLayer
 70
    0
  3

 72
   65
 73
    0
 40
0
  0
LTYPE
  5
16
330
5
100
AcDbSymbolTableRecord
100
AcDbLinetypeTableRecord
  2
Continuous
 70
    0
  3
Solid line
 72
   65
 73
    0
 40
0
  0
LTYPE
  5
32
330
5
100
AcDbSymbolTableRecord
100
AcDbLinetypeTableRecord
  2
DOT
 70
    0
  3
Dot . . . . . . . . . . . . . . . . . . . . . .
 72
   65
 73
    2
 40
6.35
 49
0
 74
    0
 49
-6.35
 74
    0
  0
LTYPE
  5
33
330
5
100
AcDbSymbolTableRecord
100
AcDbLinetypeTableRecord
  2
DOTTINY
 70
    0
  3
Dot (.15x) .....................................
 72
   65
 73
    2
 40
0.9525
 49
0
 74
    0
 49
-0.9525
 74
    0
  0
LTYPE
  5
34
330
5
100
AcDbSymbolTableRecord
100
AcDbLinetypeTableRecord
  2
DOT2
 70
    0
  3
Dot (.5x) .....................................
 72
   65
 73
    2
 40
3.175
 49
0
 74
    0
 49
-3.175
 74
    0
  0
LTYPE
  5
35
330
5
100
AcDbSymbolTableRecord
100
AcDbLinetypeTableRecord
  2
DOTX2
 70
    0
  3
Dot (2x) .  .  .  .  .  .  .  .  .  .  .  .  .
 72
   65
 73
    2
 40
12.7
 49
0
 74
    0
 49
-12.7
 74
    0
  0
LTYPE
  5
36
330
5
100
AcDbSymbolTableRecord
100
AcDbLinetypeTableRecord
  2
DASHED
 70
    0
  3
Dashed _ _ _ _ _ _ _ _ _ _ _ _ _ _ _ _ _
 72
   65
 73
    2
 40
19.05
 49
12.7
 74
    0
 49
-6.35
 74
    0
  0
LTYPE
  5
37
330
5
100
AcDbSymbolTableRecord
100
AcDbLinetypeTableRecord
  2
DASHEDTINY
 70
    0
  3
Dashed (.15x) _ _ _ _ _ _ _ _ _ _ _ _ _ _ _ _ _
 72
   65
 73
    2
 40
2.8575
 49
1.905
 74
    0
 49
-0.9525
 74
    0
  0
LTYPE
  5
38
330
5
100
AcDbSymbolTableRecord
100
AcDbLinetypeTableRecord
  2
DASHED2
 70
    0
  3
Dashed (.5x) _ _ _ _ _ _ _ _ _ _ _ _ _ _ _ _ _
 72
   65
 73
    2
 40
9.524999999999999
 49
6.35
 74
    0
 49
-3.175
 74
    0
  0
LTYPE
  5
39
330
5
100
AcDbSymbolTableRecord
100
AcDbLinetypeTableRecord
  2
DASHEDX2
 70
    0
  3
Dashed (2x) ____  ____  ____  ____  ____  ___
 72
   65
 73
    2
 40
38.09999999999999
 49
25.4
 74
    0
 49
-12.7
 74
    0
  0
LTYPE
  5
3A
330
5
100
AcDbSymbolTableRecord
100
AcDbLinetypeTableRecord
  2
DASHDOT
 70
    0
  3
Dash dot __ . __ . __ . __ . __ . __ . __ . __
 72
   65
 73
    4
 40
25.4
 49
12.7
 74
    0
 49
-6.35
 74
    0
 49
0
 74
    0
 49
-6.35
 74
    0
  0
LTYPE
  5
3B
330
5
100
AcDbSymbolTableRecord
100
AcDbLinetypeTableRecord
  2
DASHDOTTINY
 70
    0
  3
Dash dot (.15x) _._._._._._._._._._._._._._._.
 72
   65
 73
    4
 40
3.81
 49
1.905
 74
    0
 49
-0.9525
 74
    0
 49
0
 74
    0
 49
-0.9525
 74
    0
  0
LTYPE
  5
3C
330
5
100
AcDbSymbolTableRecord
100
AcDbLinetypeTableRecord
  2
DASHDOT2
 70
    0
  3
Dash dot (.5x) _._._._._._._._._._._._._._._.
 72
   65
 73
    4
 40
12.7
 49
6.35
 74
    0
 49
-3.175
 74
    0
 49
0
 74
    0
 49
-3.175
 74
    0
  0
LTYPE
  5
3D
330
5
100
AcDbSymbolTableRecord
100
AcDbLinetypeTableRecord
  2
DASHDOTX2
 70
    0
  3
Dash dot (2x) ____  .  ____  .  ____  .  ___
 72
   65
 73
    4
 40
50.8
 49
25.4
 74
    0
 49
-12.7
 74
    0
 49
0
 74
    0
 49
-12.7
 74
    0
  0
LTYPE
  5
3E
330
5
100
AcDbSymbolTableRecord
100
AcDbLinetypeTableRecord
  2
DIVIDE
 70
    0
  3
Divide ____ . . ____ . . ____ . . ____ . . ____
 72
   65
 73
    6
 40
31.75
 49
12.7
 74
    0
 49
-6.35
 74
    0
 49
0
 74
    0
 49
-6.35
 74
    0
 49
0
 74
    0
 49
-6.35
 74
    0
  0
LTYPE
  5
3F
330
5
100
AcDbSymbolTableRecord
100
AcDbLinetypeTableRecord
  2
DIVIDETINY
 70
    0
  3
Divide (.15x) __..__..__..__..__..__..__..__.._
 72
   65
 73
    6
 40
4.7625
 49
1.905
 74
    0
 49
-0.9525
 74
    0
 49
0
 74
    0
 49
-0.9525
 74
    0
 49
0
 74
    0
 49
-0.9525
 74
    0
  0
LTYPE
  5
40
330
5
100
AcDbSymbolTableRecord
100
AcDbLinetypeTableRecord
  2
DIVIDE2
 70
    0
  3
Divide (.5x) __..__..__..__..__..__..__..__.._
 72
   65
 73
    6
 40
15.875
 49
6.35
 74
    0
 49
-3.175
 74
    0
 49
0
 74
    0
 49
-3.175
 74
    0
 49
0
 74
    0
 49
-3.175
 74
    0
  0
LTYPE
  5
41
330
5
100
AcDbSymbolTableRecord
100
AcDbLinetypeTableRecord
  2
DIVIDEX2
 70
    0
  3
Divide (2x) ________  .  .  ________  .  .  _
 72
   65
 73
    6
 40
63.5
 49
25.4
 74
    0
 49
-12.7
 74
    0
 49
0
 74
    0
 49
-12.7
 74
    0
 49
0
 74
    0
 49
-12.7
 74
    0
  0
LTYPE
  5
42
330
5
100
AcDbSymbolTableRecord
100
AcDbLinetypeTableRecord
  2
BORDER
 70
    0
  3
Border __ __ . __ __ . __ __ . __ __ . __ __ .
 72
   65
 73
    6
 40
44.45
 49
12.7
 74
    0
 49
-6.35
 74
    0
 49
12.7
 74
    0
 49
-6.35
 74
    0
 49
0
 74
    0
 49
-6.35
 74
    0
  0
LTYPE
  5
43
330
5
100
AcDbSymbolTableRecord
100
AcDbLinetypeTableRecord
  2
BORDERTINY
 70
    0
  3
Border (.15x) __.__.__.__.__.__.__.__.__.__.__.
 72
   65
 73
    6
 40
6.6675
 49
1.905
 74
    0
 49
-0.9525
 74
    0
 49
1.905
 74
    0
 49
-0.9525
 74
    0
 49
0
 74
    0
 49
-0.9525
 74
    0
  0
LTYPE
  5
44
330
5
100
AcDbSymbolTableRecord
100
AcDbLinetypeTableRecord
  2
BORDER2
 70
    0
  3
Border (.5x) __.__.__.__.__.__.__.__.__.__.__.
 72
   65
 73
    6
 40
22.225
 49
6.35
 74
    0
 49
-3.175
 74
    0
 49
6.35
 74
    0
 49
-3.175
 74
    0
 49
0
 74
    0
 49
-3.175
 74
    0
  0
LTYPE
  5
45
330
5
100
AcDbSymbolTableRecord
100
AcDbLinetypeTableRecord
  2
BORDERX2
 70
    0
  3
Border (2x) ____  ____  .  ____  ____  .  ___
 72
   65
 73
    6
 40
88.89999999999999
 49
25.4
 74
    0
 49
-12.7
 74
    0
 49
25.4
 74
    0
 49
-12.7
 74
    0
 49
0
 74
    0
 49
-12.7
 74
    0
  0
LTYPE
  5
46
330
5
100
AcDbSymbolTableRecord
100
AcDbLinetypeTableRecord
  2
CENTER
 70
    0
  3
Center ____ _ ____ _ ____ _ ____ _ ____ _ ____
 72
   65
 73
    4
 40
50.8
 49
31.75
 74
    0
 49
-6.35
 74
    0
 49
6.35
 74
    0
 49
-6.35
 74
    0
  0
LTYPE
  5
47
330
5
100
AcDbSymbolTableRecord
100
AcDbLinetypeTableRecord
  2
CENTERTINY
 70
    0
  3
Center (.15x) ___ _ ___ _ ___ _ ___ _ ___ _ ___
 72
   65
 73
    4
 40
7.619999999999999
 49
4.7625
 74
    0
 49
-0.9525
 74
    0
 49
0.9525
 74
    0
 49
-0.9525
 74
    0
  0
LTYPE
  5
48
330
5
100
AcDbSymbolTableRecord
100
AcDbLinetypeTableRecord
  2
CENTER2
 70
    0
  3
Center (.5x) ___ _ ___ _ ___ _ ___ _ ___ _ ___
 72
   65
 73
    4
 40
28.575
 49
19.05
 74
    0
 49
-3.175
 74
    0
 49
3.175
 74
    0
 49
-3.175
 74
    0
  0
LTYPE
  5
49
330
5
100
AcDbSymbolTableRecord
100
AcDbLinetypeTableRecord
  2
CENTERX2
 70
    0
  3
Center (2x) ________  __  ________  __  _____
 72
   65
 73
    4
 40
101.6
 49
63.5
 74
    0
 49
-12.7
 74
    0
 49
12.7
 74
    0
 49
-12.7
 74
    0
  0
ENDTAB
  0
TABLE
  2
LAYER
  5
2
330
0
100
AcDbSymbolTable
 70
    1
  0
LAYER
  5
10
330
2
100
AcDbSymbolTableRecord
100
AcDbLayerTableRecord
  2
0
 70
    0
 62
    7
  6
CONTINUOUS
370
    0
390
F
  0
LAYER
  5
4A
330
2
100
AcDbSymbolTableRecord
100
AcDbLayerTableRecord
  2
border
 70
    0
 62
   16
420
8388608
  6
CONTINUOUS
370
    0
390
F
  0
LAYER
  5
4B
330
2
100
AcDbSymbolTableRecord
100
AcDbLayerTableRecord
  2
case1
 70
    0
 62
    7
  6
CONTINUOUS
370
    0
390
F
  0
LAYER
  5
4C
330
2
100
AcDbSymbolTableRecord
100
AcDbLayerTableRecord
  2
construction1
 70
    1
 62
    2
  6
CONTINUOUS
370
    0
390
F
  0
LAYER
  5
4D
330
2
100
AcDbSymbolTableRecord
100
AcDbLayerTableRecord
  2
dimensions
 70
    0
 62
   56
420
8421376
  6
CONTINUOUS
370
    0
390
F
  0
LAYER
  5
4E
330
2
100
AcDbSymbolTableRecord
100
AcDbLayerTableRecord
  2
h2
 70
    0
 62
    7
  6
CONTINUOUS
370
    0
390
F
  0
LAYER
  5
4F
330
2
100
AcDbSymbolTableRecord
100
AcDbLayerTableRecord
  2
handle1
 70
    0
 62
    7
  6
CONTINUOUS
370
    0
390
F
  0
LAYER
  5
50
330
2
100
AcDbSymbolTableRecord
100
AcDbLayerTableRecord
  2
handle3
 70
    0
 62
    7
  6
CONTINUOUS
370
    0
390
F
  0
LAYER
  5
51
330
2
100
AcDbSymbolTableRecord
100
AcDbLayerTableRecord
  2
handle4
 70
    0
 62
    7
  6
CONTINUOUS
370
    0
390
F
  0
LAYER
  5
52
330
2
100
AcDbSymbolTableRecord
100
AcDbLayerTableRecord
  2
handle9
 70
    0
 62
    7
  6
CONTINUOUS
370
    0
390
F
  0
LAYER
  5
53
330
2
100
AcDbSymbolTableRecord
100
AcDbLayerTableRecord
  2
pot
 70
    0
 62
    7
  6
CONTINUOUS
370
    0
390
F
  0
LAYER
  5
54
330
2
100
AcDbSymbolTableRecord
100
AcDbLayerTableRecord
  2
trigger
 70
    0
 62
    7
  6
CONTINUOUS
370
    0
390
F
  0
ENDTAB
  0
TABLE
  2
STYLE
  5
3
330
0
100
AcDbSymbolTable
 70
    3
  0
STYLE
  5
55
330
2
100
AcDbSymbolTableRecord
100
AcDbTextStyleTableRecord
  2
Standard
 70
    0
 40
0
 41
1
 50
0
 71
    0
 42
1
  3
txt
  4

  0
ENDTAB
  0
TABLE
  2
VIEW
  5
6
330
0
100
AcDbSymbolTable
 70
    0
  0
ENDTAB
  0
TABLE
  2
UCS
  5
7
330
0
100
AcDbSymbolTable
 70
    0
  0
ENDTAB
  0
TABLE
  2
APPID
  5
9
330
0
100
AcDbSymbolTable
 70
    1
  0
APPID
  5
12
330
9
100
AcDbSymbolTableRecord
100
AcDbRegAppTableRecord
  2
ACAD
 70
    0
  0
APPID
  5
56
330
9
100
AcDbSymbolTableRecord
100
AcDbRegAppTableRecord
  2
LibreCad
 70
    0
  0
ENDTAB
  0
TABLE
  2
DIMSTYLE
  5
A
330
0
100
AcDbSymbolTable
 70
    1
100
AcDbDimStyleTable
 71
    1
  0
DIMSTYLE
105
57
330
A
100
AcDbSymbolTableRecord
100
AcDbDimStyleTableRecord
  2
Standard
 70
    0
 40
1
 41
2.5
 42
0.625
 43
0.38
 44
1.25
 45
0
 46
0
 47
0
 48
0
 49
1
140
2.5
141
0.09
142
0
143
25.4
144
1
145
0
146
1
147
0.625
148
0
 71
    0
 72
    0
 73
    0
 74
    1
 75
    0
 76
    0
 77
    0
 78
    8
 79
    0
170
    0
171
    2
172
    0
173
    0
174
    0
175
    0
176
    0
177
    0
178
    0
179
    0
271
    2
272
    4
273
    2
274
    2
275
    0
276
    0
277
    2
278
   44
279
    0
280
    0
281
    0
282
    0
283
    1
284
    0
285
    0
286
    0
288
    0
289
    3
340
STANDARD
341

371
   -2
372
   -2
  0
ENDTAB
  0
TABLE
  2
BLOCK_RECORD
  5
1
330
0
100
AcDbSymbolTable
 70
    2
  0
BLOCK_RECORD
  5
1F
330
1
100
AcDbSymbolTableRecord
100
AcDbBlockTableRecord
  2
*Model_Space
 70
    0
280
    1
281
    0
  0
BLOCK_RECORD
  5
1E
330
1
100
AcDbSymbolTableRecord
100
AcDbBlockTableRecord
  2
*Paper_Space
 70
    0
280
    1
281
    0
  0
BLOCK_RECORD
  5
58
330
1
100
AcDbSymbolTableRecord
100
AcDbBlockTableRecord
  2
*D2
 70
    0
280
    1
281
    0
  0
BLOCK_RECORD
  5
5B
330
1
100
AcDbSymbolTableRecord
100
AcDbBlockTableRecord
  2
*D1
 70
    0
280
    1
281
    0
  0
ENDTAB
  0
ENDSEC
  0
SECTION
  2
BLOCKS
  0
BLOCK
  5
20
330
1F
100
AcDbEntity
  8
0
100
AcDbBlockBegin
  2
*Model_Space
 70
    0
 10
0
 20
0
 30
0
  3
*Model_Space
  1

  0
ENDBLK
  5
21
330
1F
100
AcDbEntity
  8
0
100
AcDbBlockEnd
  0
BLOCK
  5
1C
330
1B
100
AcDbEntity
  8
0
100
AcDbBlockBegin
  2
*Paper_Space
 70
    0
 10
0
 20
0
 30
0
  3
*Paper_Space
  1

  0
ENDBLK
  5
1D
330
1F
100
AcDbEntity
  8
0
100
AcDbBlockEnd
  0
BLOCK
  5
59
330
58
100
AcDbEntity
  8
0
100
AcDbBlockBegin
  2
*D2
 70
    1
 10
0
 20
0
  3
*D2
  1

  0
LINE
  5
5E
100
AcDbEntity
  8
construction1
  6
ByBlock
 62
    0
370
   -2
100
AcDbLine
 10
41.55789530035901
 20
-85.59650948114574
 11
40.47607698839481
 21
-88.27410368604437
  0
LINE
  5
5F
100
AcDbEntity
  8
construction1
  6
ByBlock
 62
    0
370
   -2
100
AcDbLine
 10
38.77634374785859
 20
-84.472689673177
 11
37.69452543589439
 21
-87.15028387807563
  0
LINE
  5
60
100
AcDbEntity
  8
construction1
  6
ByBlock
 62
    0
370
   -2
100
AcDbLine
 10
45.58025449588237
 20
-88.98815688578375
 11
33.52686443504743
 21
-84.11827105125261
  0
SOLID
  5
61
100
AcDbEntity
  8
construction1
  6
ByBlock
 62
    0
370
   -2
100
AcDbTrace
 10
40.94433524171511
 20
-87.11512387250255
 30
0
 11
43.41823785018494
 21
-87.66566796710644
 31
0
 12
43.10635188741254
 22
-88.43761279117986
 32
0
 13
43.10635188741254
 23
-88.43761279117986
 33
0
  0
SOLID
  5
62
100
AcDbEntity
  8
construction1
  6
ByBlock
 62
    0
370
   -2
100
AcDbTrace
 10
38.16278368921469
 20
-85.99130406453381
 30
0
 11
35.68888108074486
 21
-85.44075996992991
 31
0
 12
36.00076704351726
 22
-84.6688151458565
 32
0
 13
36.00076704351726
 23
-84.6688151458565
 33
0
  0
MTEXT
  5
63
100
AcDbEntity
  8
construction1
  6
CONTINUOUS
 62
    0
370
   -2
100
AcDbMText
 10
37.79759101551386
 20
-90.89938826929998
 30
0
 40
2.5
 41
1.111111111111266
 71
    5
 72
    1
  1
3
  7
STANDARD
210
0
220
0
230
1
 50
337.9999994289894
 73
    2
 44
1
  0
ENDBLK
  5
5A
330
58
100
AcDbEntity
  8
0
100
AcDbBlockEnd
  0
BLOCK
  5
5C
330
5B
100
AcDbEntity
  8
0
100
AcDbBlockBegin
  2
*D1
 70
    1
 10
0
 20
0
  3
*D1
  1

  0
LINE
  5
64
100
AcDbEntity
  8
construction1
  6
ByBlock
 62
    0
370
   -2
100
AcDbLine
 10
101.7608326960436
 20
-33.36341251151909
 11
99.93697503753243
 21
-28.84927671754338
  0
LINE
  5
65
100
AcDbEntity
  8
construction1
  6
ByBlock
 62
    0
370
   -2
100
AcDbLine
 10
98.97928721283428
 20
-34.4872473413926
 11
97.15542955432308
 21
-29.9731115474169
  0
LINE
  5
66
100
AcDbEntity
  8
construction1
  6
ByBlock
 62
    0
370
   -2
100
AcDbLine
 10
105.0411486886622
 20
-28.13519595242472
 11
92.98778492808793
 21
-33.00514688187679
  0
SOLID
  5
67
100
AcDbEntity
  8
construction1
  6
ByBlock
 62
    0
370
   -2
100
AcDbTrace
 10
100.4052395499798
 20
-30.008254002214
 30
0
 11
102.567249053472
 21
-28.68575340746688
 31
0
 12
102.87913918517
 22
-29.45769654717184
 32
0
 13
102.87913918517
 23
-29.45769654717184
 33
0
  0
SOLID
  5
68
100
AcDbEntity
  8
construction1
  6
ByBlock
 62
    0
370
   -2
100
AcDbTrace
 10
97.6236940667704
 20
-31.13208883208751
 30
0
 11
95.4616845632782
 21
-32.45458942683463
 31
0
 12
95.14979443158013
 22
-31.68264628712967
 32
0
 13
95.14979443158013
 23
-31.68264628712967
 33
0
  0
MTEXT
  5
69
100
AcDbEntity
  8
construction1
  6
CONTINUOUS
 62
    0
370
   -2
100
AcDbMText
 10
97.25847488669775
 20
-26.22400659963592
 30
0
 40
2.5
 41
1.111111111111266
 71
    5
 72
    1
  1
3
  7
STANDARD
210
0
220
0
230
1
 50
22.00031000000036
 73
    2
 44
1
  0
ENDBLK
  5
5D
330
5B
100
AcDbEntity
  8
0
100
AcDbBlockEnd
  0
ENDSEC
  0
SECTION
  2
ENTITIES
  0
DIMENSION
  5
6A
100
AcDbEntity
  8
construction1
  6
ByLayer
 62
  256
370
   -1
100
AcDbDimension
  2
*D1
 10
97.6236940667704
 20
-31.13208883208751
 30
0
 11
97.25847488669775
 21
-26.22400659963592
 31
0
 70
   33
 71
    5
  3
Standard
 53
0
210
0
220
0
230
1
100
AcDbAlignedDimension
 13
101.9949649522673
 23
-33.94290115385439
 33
0
 14
99.21341946905794
 24
-35.06673598372791
 34
0
  0
ARC
  5
6B
100
AcDbEntity
  8
handle9
  6
ByLayer
 62
  256
370
   -1
100
AcDbCircle
 10
-18.71615377594628
 20
-71.35938463954832
 40
32.52597293708969
100
AcDbArc
 50
305.129176205215
 51
355.9357360707858
  0
SPLINE
  5
6C
100
AcDbEntity
  8
handle9
  6
ByLayer
 62
  256
370
   -1
100
AcDbSpline
210
0
220
0
230
0
 70
    8
 71
    2
 72
   10
 73
    7
 74
    0
 42
1e-07
 43
1e-07
 40
0
 40
0
 40
0
 40
0.2
 40
0.4
 40
0.6
 40
0.8
 40
1
 40
1
 40
1
 10
53.77345419850025
 20
-95.49142542511895
 30
0
 10
49.03309233097244
 20
-94.87326840740074
 30
0
 10
44.56354387869135
 20
-94.25351158668529
 30
0
 10
42.53562505018516
 20
-93.58499220391542
 30
0
 10
42.47509692539444
 20
-90.76184937172789
 30
0
 10
45.16656385831814
 20
-81.08264279268573
 30
0
 10
49.72802228295055
 20
-73.6646732036111
 30
0
  0
ARC
  5
6D
100
AcDbEntity
  8
handle9
  6
ByLayer
 62
  256
370
   -1
100
AcDbCircle
 10
122.1521250436417
 20
-19.59214912666227
 40
145.1303352441764
100
AcDbArc
 50
212.6829084542793
 51
218.2077014835552
  0
LINE
  5
6E
100
AcDbEntity
  8
handle9
  6
ByLayer
 62
  256
370
   -1
100
AcDbLine
 10
56.94704585689294
 20
-95.98515464888125
 11
53.77345419850025
 21
-95.49142542511895
  0
ARC
  5
6F
100
AcDbEntity
  8
handle9
  6
ByLayer
 62
  256
370
   -1
100
AcDbCircle
 10
12.44922438692042
 20
-108.795999396847
 40
3.5
100
AcDbArc
 50
224.2076348295368
 51
278.8334268018734
  0
SPLINE
  5
70
100
AcDbEntity
  8
handle9
  6
ByLayer
 62
  256
370
   -1
100
AcDbSpline
210
0
220
0
230
0
 70
    8
 71
    2
 72
    8
 73
    5
 74
    0
 42
1e-07
 43
1e-07
 40
0
 40
0
 40
0
 40
0.3333333333333333
 40
0.6666666666666666
 40
1
 40
1
 40
1
 10
56.94704585689294
 20
-95.98515464888125
 30
0
 10
58.74463826596406
 20
-96.27227407764035
 30
0
 10
61.12617279475654
 20
-96.72905966552595
 30
0
 10
63.30133495092077
 20
-97.13505290103005
 30
0
 10
64.66473638111171
 20
-97.66342819760261
 30
0
  0
ARC
  5
71
100
AcDbEntity
  8
handle9
  6
ByLayer
 62
  256
370
   -1
100
AcDbCircle
 10
63.31233296482817
 20
-100.8915863411303
 40
3.5
100
AcDbArc
 50
278.8334533408114
 51
67.2692578552649
  0
LINE
  5
72
100
AcDbEntity
  8
handle9
  6
ByLayer
 62
  256
370
   -1
100
AcDbLine
 10
8.11251554695842
 20
-109.3572964497241
 11
9.940362429903132
 21
-111.2364115916681
  0
CIRCLE
  5
73
100
AcDbEntity
  8
handle1
  6
ByLayer
 62
  256
370
   -1
100
AcDbCircle
 10
11.62802228295313
 20
-7.1362051708291
 40
1.6
  0
CIRCLE
  5
74
100
AcDbEntity
  8
handle1
  6
ByLayer
 62
  256
370
   -1
100
AcDbCircle
 10
51.82802228294824
 20
-7.136205170828987
 40
1.6
  0
CIRCLE
  5
75
100
AcDbEntity
  8
handle1
  6
ByLayer
 62
  256
370
   -1
100
AcDbCircle
 10
6.434061288201619
 20
-100.5605024998255
 40
1.6
  0
CIRCLE
  5
76
100
AcDbEntity
  8
handle1
  6
ByLayer
 62
  256
370
   -1
100
AcDbCircle
 10
12.44922438692042
 20
-108.795999396847
 40
1.6
  0
CIRCLE
  5
77
100
AcDbEntity
  8
handle1
  6
ByLayer
 62
  256
370
   -1
100
AcDbCircle
 10
63.31233296482817
 20
-100.8915863411303
 40
1.6
  0
LINE
  5
78
100
AcDbEntity
  8
handle3
  6
ByLayer
 62
  256
370
   -1
100
AcDbLine
 10
41.79202442701916
 20
-85.01701957437484
 11
44.03966398751464
 21
-79.45391644697409
  0
LINE
  5
79
100
AcDbEntity
  8
handle9
  6
ByLayer
 62
  256
370
   -1
100
AcDbLine
 10
13.23668771446053
 20
-13.72185584783091
 11
13.72802228295062
 21
-73.66467320361124
  0
ARC
  5
7A
100
AcDbEntity
  8
handle9
  6
ByLayer
 62
  256
370
   -1
100
AcDbCircle
 10
11.63673353659543
 20
-13.73396488298408
 40
1.6
100
AcDbArc
 50
0.4336270196897091
 51
64.96702527898489
  0
SPLINE
  5
7B
100
AcDbEntity
  8
handle9
  6
ByLayer
 62
  256
370
   -1
100
AcDbSpline
210
0
220
0
230
0
 70
    8
 71
    2
 72
    8
 73
    5
 74
    0
 42
1e-07
 43
1e-07
 40
0
 40
0
 40
0
 40
0.3333333333333333
 40
0.6666666666666666
 40
1
 40
1
 40
1
 10
31.72802228295066
 20
-5.684341886080801e-14
 30
0
 10
15.98722265168793
 20
-6.138173716863094e-06
 30
0
 10
7.665934721298029
 20
-4.355894682844564
 30
0
 10
8.277243327440033
 20
-10.46266874081561
 30
0
 10
12.31375719686763
 20
-12.28426182254924
 30
0
  0
ARC
  5
7C
100
AcDbEntity
  8
handle9
  6
ByLayer
 62
  256
370
   -1
100
AcDbCircle
 10
51.81931102930585
 20
-13.73396488298395
 40
1.6
100
AcDbArc
 50
115.0329747210154
 51
179.5663729803105
  0
SPLINE
  5
7D
100
AcDbEntity
  8
handle9
  6
ByLayer
 62
  256
370
   -1
100
AcDbSpline
210
0
220
0
230
0
 70
    8
 71
    2
 72
    8
 73
    5
 74
    0
 42
1e-07
 43
1e-07
 40
0
 40
0
 40
0
 40
0.3333333333333333
 40
0.6666666666666666
 40
1
 40
1
 40
1
 10
31.72802228295066
 20
0
 30
0
 10
47.46882191421335
 20
-6.138173603176256e-06
 30
0
 10
55.79010984460334
 20
-4.355894682844451
 30
0
 10
55.17880123846126
 20
-10.46266874081556
 30
0
 10
51.14228736903374
 20
-12.28426182254924
 30
0
  0
LINE
  5
7E
100
AcDbEntity
  8
handle9
  6
ByLayer
 62
  256
370
   -1
100
AcDbLine
 10
49.72802228295055
 20
-73.6646732036111
 11
50.21935685144084
 21
-13.72185584783084
  0
LINE
  5
7F
100
AcDbEntity
  8
handle3
  6
ByLayer
 62
  256
370
   -1
100
AcDbLine
 10
39.01047286331874
 20
-83.89319979412704
 11
41.79202442701916
 21
-85.01701957437484
  0
LINE
  5
80
100
AcDbEntity
  8
handle3
  6
ByLayer
 62
  256
370
   -1
100
AcDbLine
 10
44.03966391471465
 20
-79.45391662716037
 11
41.25811243501425
 21
-78.33009663900538
  0
LINE
  5
81
100
AcDbEntity
  8
handle3
  6
ByLayer
 62
  256
370
   -1
100
AcDbLine
 10
41.25811243501425
 20
-78.33009663900538
 11
39.01047287451874
 21
-83.8931997664061
  0
DIMENSION
  5
82
100
AcDbEntity
  8
construction1
  6
ByLayer
 62
  256
370
   -1
100
AcDbDimension
  2
*D2
 10
38.16278368921469
 20
-85.99130406453381
 30
0
 11
37.79759101551386
 21
-90.89938826929998
 31
0
 70
   33
 71
    5
  3
Standard
 53
0
210
0
220
0
230
1
100
AcDbAlignedDimension
 13
41.79202442701916
 23
-85.01701957437484
 33
0
 14
39.01047287451874
 24
-83.8931997664061
 34
0
  0
ARC
  5
83
100
AcDbEntity
  8
h2
  6
ByLayer
 62
  256
370
   -1
100
AcDbCircle
 10
41.48686064510393
 20
-47.60086346923049
 40
32.52597293708969
100
AcDbArc
 50
4.064573929214182
 51
54.8711337947851
  0
SPLINE
  5
84
100
AcDbEntity
  8
h2
  6
ByLayer
 62
  256
370
   -1
100
AcDbSpline
210
0
220
0
230
0
 70
    8
 71
    2
 72
   10
 73
    7
 74
    0
 42
1e-07
 43
1e-07
 40
0
 40
0
 40
0
 40
0.2
 40
0.4
 40
0.6
 40
0.8
 40
1
 40
1
 40
1
 10
113.9763380515836
 20
-23.46843047748999
 30
0
 10
109.2359795286766
 20
-24.08661314302509
 30
0
 10
104.7664344296681
 20
-24.70639414631591
 30
0
 10
102.7385192182295
 20
-25.37492450117262
 30
0
 10
102.6780063681124
 20
-28.19806766080759
 30
0
 10
105.369525670544
 20
-37.87725967747059
 30
0
 10
109.9310242301874
 20
-45.29520458657132
 30
0
  0
ARC
  5
85
100
AcDbEntity
  8
h2
  6
ByLayer
 62
  256
370
   -1
100
AcDbCircle
 10
182.3554195503284
 20
-99.3673368106229
 40
145.1303352441764
100
AcDbArc
 50
141.7926085164447
 51
147.3174015457207
  0
LINE
  5
86
100
AcDbEntity
  8
h2
  6
ByLayer
 62
  256
370
   -1
100
AcDbLine
 10
117.1499270385977
 20
-22.97468408295159
 11
113.9763380515836
 21
-23.46843047748999
  0
LINE
  5
87
100
AcDbEntity
  8
h2
  6
ByLayer
 62
  256
370
   -1
100
AcDbLine
 10
124.0526371139667
 20
-14.6097286827997
 11
73.18948576981333
 21
-6.705590823099614
  0
ARC
  5
88
100
AcDbEntity
  8
h2
  6
ByLayer
 62
  256
370
   -1
100
AcDbCircle
 10
72.65203625593614
 20
-10.1640800915567
 40
3.5
100
AcDbArc
 50
81.16688319812658
 51
135.7926751704632
  0
SPLINE
  5
89
100
AcDbEntity
  8
h2
  6
ByLayer
 62
  256
370
   -1
100
AcDbSpline
210
0
220
0
230
0
 70
    8
 71
    2
 72
    8
 73
    5
 74
    0
 42
1e-07
 43
1e-07
 40
0
 40
0
 40
0
 40
0.3333333333333333
 40
0.6666666666666666
 40
1
 40
1
 40
1
 10
117.1499270385977
 20
-22.97468408295159
 30
0
 10
118.9475178941768
 20
-22.6875549282858
 30
0
 10
121.3290499514867
 20
-22.23075645506509
 30
0
 10
123.5042099109842
 20
-21.8247514508071
 30
0
 10
124.8676084823698
 20
-21.29636877753061
 30
0
  0
ARC
  5
8A
100
AcDbEntity
  8
h2
  6
ByLayer
 62
  256
370
   -1
100
AcDbCircle
 10
123.5151876000896
 20
-18.06821795125678
 40
3.5
100
AcDbArc
 50
292.7310521447351
 51
81.16685665918861
  0
LINE
  5
8B
100
AcDbEntity
  8
h2
  6
ByLayer
 62
  256
370
   -1
100
AcDbLine
 10
68.31532437912833
 20
-9.602806502540519
 11
70.14316109505492
 21
-7.723681471020784
  0
CIRCLE
  5
8C
100
AcDbEntity
  8
h2
  6
ByLayer
 62
  256
370
   -1
100
AcDbCircle
 10
71.83138418439992
 20
-111.8238787592176
 40
1.6
  0
CIRCLE
  5
8D
100
AcDbEntity
  8
h2
  6
ByLayer
 62
  256
370
   -1
100
AcDbCircle
 10
112.0313841838066
 20
-111.8236612562864
 40
1.6
  0
CIRCLE
  5
8E
100
AcDbEntity
  8
h2
  6
ByLayer
 62
  256
370
   -1
100
AcDbCircle
 10
66.63691771563163
 20
-18.39960953362198
 40
1.6
  0
CIRCLE
  5
8F
100
AcDbEntity
  8
h2
  6
ByLayer
 62
  256
370
   -1
100
AcDbCircle
 10
72.65203625593614
 20
-10.1640800915567
 40
1.6
  0
CIRCLE
  5
90
100
AcDbEntity
  8
h2
  6
ByLayer
 62
  256
370
   -1
100
AcDbCircle
 10
123.5151876000896
 20
-18.06821795125678
 40
1.6
  0
LINE
  5
91
100
AcDbEntity
  8
h2
  6
ByLayer
 62
  256
370
   -1
100
AcDbLine
 10
101.9949649522673
 20
-33.94290115385439
 11
104.2426346120145
 21
-39.50599212027331
  0
LINE
  5
92
100
AcDbEntity
  8
h2
  6
ByLayer
 62
  256
370
   -1
100
AcDbLine
 10
73.44001398408463
 20
-105.2382193785946
 11
73.93102423071451
 21
-45.29539936531591
  0
ARC
  5
93
100
AcDbEntity
  8
h2
  6
ByLayer
 62
  256
370
   -1
100
AcDbCircle
 10
71.84005974072673
 20
-105.2261190000267
 40
1.6
100
AcDbArc
 50
295.033284721015
 51
359.5666829803103
  0
SPLINE
  5
94
100
AcDbEntity
  8
h2
  6
ByLayer
 62
  256
370
   -1
100
AcDbSpline
210
0
220
0
230
0
 70
    8
 71
    2
 72
    8
 73
    5
 74
    0
 42
1e-07
 43
1e-07
 40
0
 40
0
 40
0
 40
0.3333333333333333
 40
0.6666666666666666
 40
1
 40
1
 40
1
 10
91.93142279468901
 20
-118.9599751784766
 30
0
 10
76.19062316362343
 20
-118.9600542062248
 30
0
 10
67.86931166573024
 20
-114.6042106841182
 30
0
 10
68.48058723103603
 20
-108.4974333187385
 30
0
 10
72.51709124463741
 20
-106.6758183973898
 30
0
  0
ARC
  5
95
100
AcDbEntity
  8
h2
  6
ByLayer
 62
  256
370
   -1
100
AcDbCircle
 10
112.022637232849
 20
-105.2259015913602
 40
1.6
100
AcDbArc
 50
180.4339370196896
 51
244.9673352789846
  0
SPLINE
  5
96
100
AcDbEntity
  8
h2
  6
ByLayer
 62
  256
370
   -1
100
AcDbSpline
210
0
220
0
230
0
 70
    8
 71
    2
 72
    8
 73
    5
 74
    0
 42
1e-07
 43
1e-07
 40
0
 40
0
 40
0
 40
0.3333333333333333
 40
0.6666666666666666
 40
1
 40
1
 40
1
 10
91.93142279468893
 20
-118.9599751784766
 30
0
 10
107.6722224256879
 20
-118.959883874381
 30
0
 10
115.9934867883311
 20
-114.6039503072735
 30
0
 10
115.3821451413707
 20
-108.4971795568896
 30
0
 10
111.3456214162353
 20
-106.6756083148244
 30
0
  0
LINE
  5
97
100
AcDbEntity
  8
h2
  6
ByLayer
 62
  256
370
   -1
100
AcDbLine
 10
109.9310242301874
 20
-45.29520458657132
 11
110.4226831205236
 21
-105.2380192830984
  0
LINE
  5
98
100
AcDbEntity
  8
h2
  6
ByLayer
 62
  256
370
   -1
100
AcDbLine
 10
104.2426345392135
 20
-39.50599194008751
 11
101.461089140005
 21
-40.62982697786779
  0
LINE
  5
99
100
AcDbEntity
  8
h2
  6
ByLayer
 62
  256
370
   -1
100
AcDbLine
 10
99.21341946905794
 20
-35.06673598372791
 11
101.9949649522673
 21
-33.94290115385439
  0
LINE
  5
9A
100
AcDbEntity
  8
h2
  6
ByLayer
 62
  256
370
   -1
100
AcDbLine
 10
101.461089128805
 20
-40.62982695014691
 11
99.21341946905794
 21
-35.06673598372791
  0
CIRCLE
  5
9B
100
AcDbEntity
  8
pot
  6
ByLayer
 62
  256
370
   -1
100
AcDbCircle
 10
83.38154006092486
 20
-18.11156394906268
 40
6
  0
LINE
  5
9C
100
AcDbEntity
  8
handle4
  6
ByLayer
 62
  256
370
   -1
100
AcDbLine
 10
94.43106511724446
 20
-59.19530436960564
 11
94.4311768183166
 21
-51.19530437038551
  0
LINE
  5
9D
100
AcDbEntity
  8
handle4
  6
ByLayer
 62
  256
370
   -1
100
AcDbLine
 10
79.43106511870656
 20
-59.19509493009544
 11
79.43117681977876
 21
-51.19509493087526
  0
ARC
  5
9E
100
AcDbEntity
  8
handle4
  6
ByLayer
 62
  256
370
   -1
100
AcDbCircle
 10
92.4311768185116
 20
-51.1952764451174
 40
2
100
AcDbArc
 50
359.9991999999999
 51
89.99919999999999
  0
LINE
  5
9F
100
AcDbEntity
  8
handle4
  6
ByLayer
 62
  256
370
   -1
100
AcDbLine
 10
92.43120474377966
 20
-49.19527644531238
 11
81.43120474485175
 21
-49.19512285633821
  0
ARC
  5
A0
100
AcDbEntity
  8
handle4
  6
ByLayer
 62
  256
370
   -1
100
AcDbCircle
 10
81.43117681958375
 20
-51.19512285614335
 40
2
100
AcDbArc
 50
89.99919999999999
 51
179.9991999999999
  0
ARC
  5
A1
100
AcDbEntity
  8
handle4
  6
ByLayer
 62
  256
370
   -1
100
AcDbCircle
 10
81.43106511851167
 20
-59.19512285536345
 40
2
100
AcDbArc
 50
179.9991999999999
 51
269.9992
  0
LINE
  5
A2
100
AcDbEntity
  8
handle4
  6
ByLayer
 62
  256
370
   -1
100
AcDbLine
 10
92.43103719217137
 20
-61.19527644414266
 11
81.43103719324355
 21
-61.19512285516861
  0
ARC
  5
A3
100
AcDbEntity
  8
handle4
  6
ByLayer
 62
  256
370
   -1
100
AcDbCircle
 10
92.43106511743937
 20
-59.19527644433764
 40
2
100
AcDbArc
 50
269.9992
 51
359.9991999999999
  0
ARC
  5
A4
100
AcDbEntity
  8
handle9
  6
ByLayer
 62
  256
370
   -1
100
AcDbCircle
 10
51.04168821719928
 20
-103.3045152341852
 40
3
100
AcDbArc
 50
278.8334268018735
 51
318.3558512805861
  0
ARC
  5
A5
100
AcDbEntity
  8
handle9
  6
ByLayer
 62
  256
370
   -1
100
AcDbCircle
 10
55.7122275078723
 20
-107.4576541355796
 40
3.25
100
AcDbArc
 50
59.31100232314992
 51
138.3558512805863
  0
ARC
  5
A6
100
AcDbEntity
  8
handle9
  6
ByLayer
 62
  256
370
   -1
100
AcDbCircle
 10
58.90208871943597
 20
-102.0829648002814
 40
3
100
AcDbArc
 50
239.3110023231499
 51
278.8334268018733
  0
LINE
  5
A7
100
AcDbEntity
  8
handle9
  6
ByLayer
 62
  256
370
   -1
100
AcDbLine
 10
63.84980279286787
 20
-104.3500724527038
 11
59.3627757703763
 21
-105.0473816807313
  0
LINE
  5
A8
100
AcDbEntity
  8
handle9
  6
ByLayer
 62
  256
370
   -1
100
AcDbLine
 10
51.50237526813962
 20
-106.268932114635
 11
12.98669261301748
 21
-112.2544857573718
  0
ENDSEC
  0
SECTION
  2
OBJECTS
  0
DICTIONARY
  5
C
330
0
100
AcDbDictionary
281
    1
  3
ACAD_GROUP
350
D
  0
DICTIONARY
  5
D
330
C
100
AcDbDictionary
281
    1
  0
ENDSEC
  0
EOF
