999
dxfrw 0.6.3
  0
SECTION
  2
HEADER
  9
$ACADVER
  1
AC1021
  9
$DWGCODEPAGE
  3
ANSI_1252
  9
$INSBASE
 10
0
 20
0
 30
0
  9
$EXTMIN
 10
11.86268432975438
 20
-118.9500685282756
 30
0
  9
$EXTMAX
 10
118.4860397447288
 20
-0.009917858716562478
 30
0
  9
$LIMMIN
 10
0
 20
0
  9
$LIMMAX
 10
420
 20
297
  9
$ORTHOMODE
 70
    0
  9
$REGENMODE
 70
    1
  9
$FILLMODE
 70
    1
  9
$QTEXTMODE
 70
    0
  9
$MIRRTEXT
 70
    0
  9
$LTSCALE
 40
1
  9
$ATTMODE
 70
    0
  9
$TEXTSIZE
 40
2.5
  9
$TRACEWID
 40
15.68
  9
$TEXTSTYLE
  7
STANDARD
  9
$CLAYER
  8
0
  9
$CELTYPE
  6
BYLAYER
  9
$CECOLOR
 62
  256
  9
$CELTSCALE
 40
1
  9
$DISPSILH
 70
    0
  9
$DIMSCALE
 40
1
  9
$DIMASZ
 40
2.5
  9
$DIMEXO
 40
0.625
  9
$DIMDLI
 40
3.75
  9
$DIMRND
 40
0
  9
$DIMDLE
 40
0
  9
$DIMEXE
 40
1.25
  9
$DIMTP
 40
0
  9
$DIMTM
 40
0
  9
$DIMTXT
 40
2.5
  9
$DIMCEN
 40
2.5
  9
$DIMTSZ
 40
0
  9
$DIMTOL
 70
    0
  9
$DIMLIM
 70
    0
  9
$DIMTIH
 70
    0
  9
$DIMTOH
 70
    0
  9
$DIMSE1
 70
    0
  9
$DIMSE2
 70
    0
  9
$DIMTAD
 70
    1
  9
$DIMZIN
 70
    8
  9
$DIMBLK
  1

  9
$DIMASO
 70
    1
  9
$DIMSHO
 70
    1
  9
$DIMPOST
  1

  9
$DIMAPOST
  1

  9
$DIMALT
 70
    0
  9
$DIMALTD
 70
    3
  9
$DIMALTF
 40
0.03937
  9
$DIMLFAC
 40
1
  9
$DIMTOFL
 70
    1
  9
$DIMTVP
 40
0
  9
$DIMTIX
 70
    0
  9
$DIMSOXD
 70
    0
  9
$DIMSAH
 70
    0
  9
$DIMBLK1
  1

  9
$DIMBLK2
  1

  9
$DIMSTYLE
  2
STANDARD
  9
$DIMCLRD
 70
    0
  9
$DIMCLRE
 70
    0
  9
$DIMCLRT
 70
    0
  9
$DIMTFAC
 40
1
  9
$DIMGAP
 40
0.625
  9
$DIMJUST
 70
    0
  9
$DIMSD1
 70
    0
  9
$DIMSD2
 70
    0
  9
$DIMTOLJ
 70
    0
  9
$DIMTZIN
 70
    8
  9
$DIMALTZ
 70
    0
  9
$DIMALTTZ
 70
    0
  9
$DIMUPT
 70
    0
  9
$DIMDEC
 70
    2
  9
$DIMTDEC
 70
    2
  9
$DIMALTU
 70
    2
  9
$DIMALTTD
 70
    3
  9
$DIMTXSTY
  7
STANDARD
  9
$DIMAUNIT
 70
    0
  9
$DIMADEC
 70
    0
  9
$DIMALTRND
 40
0
  9
$DIMAZIN
 70
    0
  9
$DIMDSEP
 70
   44
  9
$DIMATFIT
 70
    3
  9
$DIMFRAC
 70
    0
  9
$DIMLDRBLK
  1
STANDARD
  9
$DIMLUNIT
 70
    2
  9
$DIMLWD
 70
   -2
  9
$DIMLWE
 70
   -2
  9
$DIMTMOVE
 70
    0
  9
$DIMFXL
 40
1
  9
$DIMFXLON
 70
    0
  9
$DIMJOGANG
 40
0.7854
  9
$DIMTFILL
 70
    0
  9
$DIMTFILLCLR
 70
    0
  9
$DIMARCSYM
 70
    0
  9
$DIMLTYPE
  6

  9
$DIMLTEX1
  6

  9
$DIMLTEX2
  6

  9
$LUNITS
 70
    2
  9
$LUPREC
 70
    4
  9
$SKETCHINC
 40
1
  9
$FILLETRAD
 40
0
  9
$AUNITS
 70
    0
  9
$AUPREC
 70
    2
  9
$MENU
  1
.
  9
$ELEVATION
 40
0
  9
$PELEVATION
 40
0
  9
$THICKNESS
 40
0
  9
$LIMCHECK
 70
    0
  9
$CHAMFERA
 40
0
  9
$CHAMFERB
 40
0
  9
$CHAMFERC
 40
0
  9
$CHAMFERD
 40
0
  9
$SKPOLY
 70
    0
  9
$USRTIMER
 70
    1
  9
$ANGBASE
 50
0
  9
$ANGDIR
 70
    0
  9
$PDMODE
 70
   34
  9
$PDSIZE
 40
0
  9
$PLINEWID
 40
0
  9
$SPLFRAME
 70
    0
  9
$SPLINETYPE
 70
    2
  9
$SPLINESEGS
 70
    8
  9
$HANDSEED
  5
20000
  9
$SURFTAB1
 70
    6
  9
$SURFTAB2
 70
    6
  9
$SURFTYPE
 70
    6
  9
$SURFU
 70
    6
  9
$SURFV
 70
    6
  9
$UCSBASE
  2

  9
$UCSNAME
  2

  9
$UCSORG
 10
0
 20
0
 30
0
  9
$UCSXDIR
 10
1
 20
0
 30
0
  9
$UCSYDIR
 10
0
 20
1
 30
0
  9
$UCSORTHOREF
  2

  9
$UCSORTHOVIEW
 70
    0
  9
$UCSORGTOP
 10
0
 20
0
 30
0
  9
$UCSORGBOTTOM
 10
0
 20
0
 30
0
  9
$UCSORGLEFT
 10
0
 20
0
 30
0
  9
$UCSORGRIGHT
 10
0
 20
0
 30
0
  9
$UCSORGFRONT
 10
0
 20
0
 30
0
  9
$UCSORGBACK
 10
0
 20
0
 30
0
  9
$PUCSBASE
  2

  9
$PUCSNAME
  2

  9
$PUCSORG
 10
0
 20
0
 30
0
  9
$PUCSXDIR
 10
1
 20
0
 30
0
  9
$PUCSYDIR
 10
0
 20
1
 30
0
  9
$PUCSORTHOREF
  2

  9
$PUCSORTHOVIEW
 70
    0
  9
$PUCSORGTOP
 10
0
 20
0
 30
0
  9
$PUCSORGBOTTOM
 10
0
 20
0
 30
0
  9
$PUCSORGLEFT
 10
0
 20
0
 30
0
  9
$PUCSORGRIGHT
 10
0
 20
0
 30
0
  9
$PUCSORGFRONT
 10
0
 20
0
 30
0
  9
$PUCSORGBACK
 10
0
 20
0
 30
0
  9
$USERI1
 70
    0
  9
$USERI2
 70
    0
  9
$USERI3
 70
    0
  9
$USERI4
 70
    0
  9
$USERI5
 70
    0
  9
$USERR1
 40
0
  9
$USERR2
 40
0
  9
$USERR3
 40
0
  9
$USERR4
 40
0
  9
$USERR5
 40
0
  9
$WORLDVIEW
 70
    1
  9
$SHADEDGE
 70
    3
  9
$SHADEDIF
 70
   70
  9
$TILEMODE
 70
    1
  9
$MAXACTVP
 70
   64
  9
$PINSBASE
 10
0
 20
0
 30
0
  9
$PLIMCHECK
 70
    0
  9
$PEXTMIN
 10
0
 20
0
 30
0
  9
$PEXTMAX
 10
0
 20
0
 30
0
  9
$GRIDMODE
 70
    1
  9
$SNAPSTYLE
 70
    0
  9
$PLIMMIN
 10
0
 20
0
  9
$PLIMMAX
 10
7.820100000000001e-07
 20
1.106e-06
  9
$UNITMODE
 70
    0
  9
$VISRETAIN
 70
    1
  9
$PLINEGEN
 70
    0
  9
$PSLTSCALE
 70
    1
  9
$TREEDEPTH
 70
 3020
  9
$CMLSTYLE
  2
Standard
  9
$CMLJUST
 70
    0
  9
$CMLSCALE
 40
20
  9
$PROXYGRAPHICS
 70
    1
  9
$MEASUREMENT
 70
    1
  9
$CELWEIGHT
370
   -1
  9
$ENDCAPS
280
    0
  9
$JOINSTYLE
280
    0
  9
$LWDISPLAY
290
    0
  9
$INSUNITS
 70
    4
  9
$HYPERLINKBASE
  1

  9
$STYLESHEET
  1

  9
$XEDIT
290
    1
  9
$CEPSNTYPE
380
    0
  9
$PSTYLEMODE
290
    1
  9
$EXTNAMES
290
    1
  9
$PSVPSCALE
 40
1
  9
$OLESTARTUP
290
    0
  9
$SORTENTS
280
  127
  9
$INDEXCTL
280
    0
  9
$HIDETEXT
280
    1
  9
$XCLIPFRAME
290
    0
  9
$HALOGAP
280
    0
  9
$OBSCOLOR
 70
  257
  9
$OBSLTYPE
280
    0
  9
$INTERSECTIONDISPLAY
280
    0
  9
$INTERSECTIONCOLOR
 70
  257
  9
$DIMASSOC
280
    1
  9
$PROJECTNAME
  1

  9
$CAMERADISPLAY
290
    0
  9
$LENSLENGTH
 40
50
  9
$CAMERAHEIGHT
 40
0
  9
$STEPSPERSEC
 40
2
  9
$STEPSIZE
 40
50
  9
$3DDWFPREC
 40
2
  9
$PSOLWIDTH
 40
5
  9
$PSOLHEIGHT
 40
80
  9
$LOFTANG1
 40
1.570796326794897
  9
$LOFTANG2
 40
1.570796326794897
  9
$LOFTMAG1
 40
0
  9
$LOFTMAG2
 40
0
  9
$LOFTPARAM
 70
    7
  9
$LOFTNORMALS
280
    1
  9
$LATITUDE
 40
1
  9
$LONGITUDE
 40
1
  9
$NORTHDIRECTION
 40
0
  9
$TIMEZONE
 70
-8000
  9
$LIGHTGLYPHDISPLAY
280
    1
  9
$TILEMODELIGHTSYNCH
280
    1
  9
$SOLIDHIST
280
    1
  9
$SHOWHIST
280
    1
  9
$DWFFRAME
280
    2
  9
$DGNFRAME
280
    0
  9
$REALWORLDSCALE
290
    1
  9
$INTERFERECOLOR
 62
    1
  9
$CSHADOW
280
    0
  9
$SHADOWPLANELOCATION
 40
0
  0
ENDSEC
  0
SECTION
  2
CLASSES
  0
ENDSEC
  0
SECTION
  2
TABLES
  0
TABLE
  2
VPORT
  5
8
330
0
100
AcDbSymbolTable
 70
    1
  0
VPORT
  5
31
330
2
100
AcDbSymbolTableRecord
100
AcDbViewportTableRecord
  2
*ACTIVE
 70
    0
 10
0
 20
0
 11
1
 21
1
 12
95.15212053564723
 22
1.226187120304732
 13
0
 23
0
 14
10
 24
10
 15
10
 25
10
 16
0
 26
0
 36
1
 17
0
 27
0
 37
0
 40
123.844899150778
 41
2.01980198019802
 42
50
 43
0
 44
0
 50
0
 51
0
 71
    0
 72
  100
 73
    1
 74
    3
 75
    0
 76
    1
 77
    0
 78
    0
281
    0
 65
    1
110
0
120
0
130
0
111
1
121
0
131
0
112
0
122
1
132
0
 79
    0
146
0
348
10020
 60
    7
 61
    5
292
1
282
    1
141
0
142
0
 63
  250
421
3358443
  0
ENDTAB
  0
TABLE
  2
LTYPE
  5
5
330
0
100
AcDbSymbolTable
 70
    4
  0
LTYPE
  5
14
330
5
100
AcDbSymbolTableRecord
100
AcDbLinetypeTableRecord
  2
ByBlock
 70
    0
  3

 72
   65
 73
    0
 40
0
  0
LTYPE
  5
15
330
5
100
AcDbSymbolTableRecord
100
AcDbLinetypeTableRecord
  2
ByLayer
 70
    0
  3

 72
   65
 73
    0
 40
0
  0
LTYPE
  5
16
330
5
100
AcDbSymbolTableRecord
100
AcDbLinetypeTableRecord
  2
Continuous
 70
    0
  3
Solid line
 72
   65
 73
    0
 40
0
  0
LTYPE
  5
32
330
5
100
AcDbSymbolTableRecord
100
AcDbLinetypeTableRecord
  2
DOT
 70
    0
  3
Dot . . . . . . . . . . . . . . . . . . . . . .
 72
   65
 73
    2
 40
6.35
 49
0
 74
    0
 49
-6.35
 74
    0
  0
LTYPE
  5
33
330
5
100
AcDbSymbolTableRecord
100
AcDbLinetypeTableRecord
  2
DOTTINY
 70
    0
  3
Dot (.15x) .....................................
 72
   65
 73
    2
 40
0.9525
 49
0
 74
    0
 49
-0.9525
 74
    0
  0
LTYPE
  5
34
330
5
100
AcDbSymbolTableRecord
100
AcDbLinetypeTableRecord
  2
DOT2
 70
    0
  3
Dot (.5x) .....................................
 72
   65
 73
    2
 40
3.175
 49
0
 74
    0
 49
-3.175
 74
    0
  0
LTYPE
  5
35
330
5
100
AcDbSymbolTableRecord
100
AcDbLinetypeTableRecord
  2
DOTX2
 70
    0
  3
Dot (2x) .  .  .  .  .  .  .  .  .  .  .  .  .
 72
   65
 73
    2
 40
12.7
 49
0
 74
    0
 49
-12.7
 74
    0
  0
LTYPE
  5
36
330
5
100
AcDbSymbolTableRecord
100
AcDbLinetypeTableRecord
  2
DASHED
 70
    0
  3
Dashed _ _ _ _ _ _ _ _ _ _ _ _ _ _ _ _ _
 72
   65
 73
    2
 40
19.05
 49
12.7
 74
    0
 49
-6.35
 74
    0
  0
LTYPE
  5
37
330
5
100
AcDbSymbolTableRecord
100
AcDbLinetypeTableRecord
  2
DASHEDTINY
 70
    0
  3
Dashed (.15x) _ _ _ _ _ _ _ _ _ _ _ _ _ _ _ _ _
 72
   65
 73
    2
 40
2.8575
 49
1.905
 74
    0
 49
-0.9525
 74
    0
  0
LTYPE
  5
38
330
5
100
AcDbSymbolTableRecord
100
AcDbLinetypeTableRecord
  2
DASHED2
 70
    0
  3
Dashed (.5x) _ _ _ _ _ _ _ _ _ _ _ _ _ _ _ _ _
 72
   65
 73
    2
 40
9.524999999999999
 49
6.35
 74
    0
 49
-3.175
 74
    0
  0
LTYPE
  5
39
330
5
100
AcDbSymbolTableRecord
100
AcDbLinetypeTableRecord
  2
DASHEDX2
 70
    0
  3
Dashed (2x) ____  ____  ____  ____  ____  ___
 72
   65
 73
    2
 40
38.09999999999999
 49
25.4
 74
    0
 49
-12.7
 74
    0
  0
LTYPE
  5
3A
330
5
100
AcDbSymbolTableRecord
100
AcDbLinetypeTableRecord
  2
DASHDOT
 70
    0
  3
Dash dot __ . __ . __ . __ . __ . __ . __ . __
 72
   65
 73
    4
 40
25.4
 49
12.7
 74
    0
 49
-6.35
 74
    0
 49
0
 74
    0
 49
-6.35
 74
    0
  0
LTYPE
  5
3B
330
5
100
AcDbSymbolTableRecord
100
AcDbLinetypeTableRecord
  2
DASHDOTTINY
 70
    0
  3
Dash dot (.15x) _._._._._._._._._._._._._._._.
 72
   65
 73
    4
 40
3.81
 49
1.905
 74
    0
 49
-0.9525
 74
    0
 49
0
 74
    0
 49
-0.9525
 74
    0
  0
LTYPE
  5
3C
330
5
100
AcDbSymbolTableRecord
100
AcDbLinetypeTableRecord
  2
DASHDOT2
 70
    0
  3
Dash dot (.5x) _._._._._._._._._._._._._._._.
 72
   65
 73
    4
 40
12.7
 49
6.35
 74
    0
 49
-3.175
 74
    0
 49
0
 74
    0
 49
-3.175
 74
    0
  0
LTYPE
  5
3D
330
5
100
AcDbSymbolTableRecord
100
AcDbLinetypeTableRecord
  2
DASHDOTX2
 70
    0
  3
Dash dot (2x) ____  .  ____  .  ____  .  ___
 72
   65
 73
    4
 40
50.8
 49
25.4
 74
    0
 49
-12.7
 74
    0
 49
0
 74
    0
 49
-12.7
 74
    0
  0
LTYPE
  5
3E
330
5
100
AcDbSymbolTableRecord
100
AcDbLinetypeTableRecord
  2
DIVIDE
 70
    0
  3
Divide ____ . . ____ . . ____ . . ____ . . ____
 72
   65
 73
    6
 40
31.75
 49
12.7
 74
    0
 49
-6.35
 74
    0
 49
0
 74
    0
 49
-6.35
 74
    0
 49
0
 74
    0
 49
-6.35
 74
    0
  0
LTYPE
  5
3F
330
5
100
AcDbSymbolTableRecord
100
AcDbLinetypeTableRecord
  2
DIVIDETINY
 70
    0
  3
Divide (.15x) __..__..__..__..__..__..__..__.._
 72
   65
 73
    6
 40
4.7625
 49
1.905
 74
    0
 49
-0.9525
 74
    0
 49
0
 74
    0
 49
-0.9525
 74
    0
 49
0
 74
    0
 49
-0.9525
 74
    0
  0
LTYPE
  5
40
330
5
100
AcDbSymbolTableRecord
100
AcDbLinetypeTableRecord
  2
DIVIDE2
 70
    0
  3
Divide (.5x) __..__..__..__..__..__..__..__.._
 72
   65
 73
    6
 40
15.875
 49
6.35
 74
    0
 49
-3.175
 74
    0
 49
0
 74
    0
 49
-3.175
 74
    0
 49
0
 74
    0
 49
-3.175
 74
    0
  0
LTYPE
  5
41
330
5
100
AcDbSymbolTableRecord
100
AcDbLinetypeTableRecord
  2
DIVIDEX2
 70
    0
  3
Divide (2x) ________  .  .  ________  .  .  _
 72
   65
 73
    6
 40
63.5
 49
25.4
 74
    0
 49
-12.7
 74
    0
 49
0
 74
    0
 49
-12.7
 74
    0
 49
0
 74
    0
 49
-12.7
 74
    0
  0
LTYPE
  5
42
330
5
100
AcDbSymbolTableRecord
100
AcDbLinetypeTableRecord
  2
BORDER
 70
    0
  3
Border __ __ . __ __ . __ __ . __ __ . __ __ .
 72
   65
 73
    6
 40
44.45
 49
12.7
 74
    0
 49
-6.35
 74
    0
 49
12.7
 74
    0
 49
-6.35
 74
    0
 49
0
 74
    0
 49
-6.35
 74
    0
  0
LTYPE
  5
43
330
5
100
AcDbSymbolTableRecord
100
AcDbLinetypeTableRecord
  2
BORDERTINY
 70
    0
  3
Border (.15x) __.__.__.__.__.__.__.__.__.__.__.
 72
   65
 73
    6
 40
6.6675
 49
1.905
 74
    0
 49
-0.9525
 74
    0
 49
1.905
 74
    0
 49
-0.9525
 74
    0
 49
0
 74
    0
 49
-0.9525
 74
    0
  0
LTYPE
  5
44
330
5
100
AcDbSymbolTableRecord
100
AcDbLinetypeTableRecord
  2
BORDER2
 70
    0
  3
Border (.5x) __.__.__.__.__.__.__.__.__.__.__.
 72
   65
 73
    6
 40
22.225
 49
6.35
 74
    0
 49
-3.175
 74
    0
 49
6.35
 74
    0
 49
-3.175
 74
    0
 49
0
 74
    0
 49
-3.175
 74
    0
  0
LTYPE
  5
45
330
5
100
AcDbSymbolTableRecord
100
AcDbLinetypeTableRecord
  2
BORDERX2
 70
    0
  3
Border (2x) ____  ____  .  ____  ____  .  ___
 72
   65
 73
    6
 40
88.89999999999999
 49
25.4
 74
    0
 49
-12.7
 74
    0
 49
25.4
 74
    0
 49
-12.7
 74
    0
 49
0
 74
    0
 49
-12.7
 74
    0
  0
LTYPE
  5
46
330
5
100
AcDbSymbolTableRecord
100
AcDbLinetypeTableRecord
  2
CENTER
 70
    0
  3
Center ____ _ ____ _ ____ _ ____ _ ____ _ ____
 72
   65
 73
    4
 40
50.8
 49
31.75
 74
    0
 49
-6.35
 74
    0
 49
6.35
 74
    0
 49
-6.35
 74
    0
  0
LTYPE
  5
47
330
5
100
AcDbSymbolTableRecord
100
AcDbLinetypeTableRecord
  2
CENTERTINY
 70
    0
  3
Center (.15x) ___ _ ___ _ ___ _ ___ _ ___ _ ___
 72
   65
 73
    4
 40
7.619999999999999
 49
4.7625
 74
    0
 49
-0.9525
 74
    0
 49
0.9525
 74
    0
 49
-0.9525
 74
    0
  0
LTYPE
  5
48
330
5
100
AcDbSymbolTableRecord
100
AcDbLinetypeTableRecord
  2
CENTER2
 70
    0
  3
Center (.5x) ___ _ ___ _ ___ _ ___ _ ___ _ ___
 72
   65
 73
    4
 40
28.575
 49
19.05
 74
    0
 49
-3.175
 74
    0
 49
3.175
 74
    0
 49
-3.175
 74
    0
  0
LTYPE
  5
49
330
5
100
AcDbSymbolTableRecord
100
AcDbLinetypeTableRecord
  2
CENTERX2
 70
    0
  3
Center (2x) ________  __  ________  __  _____
 72
   65
 73
    4
 40
101.6
 49
63.5
 74
    0
 49
-12.7
 74
    0
 49
12.7
 74
    0
 49
-12.7
 74
    0
  0
ENDTAB
  0
TABLE
  2
LAYER
  5
2
330
0
100
AcDbSymbolTable
 70
    1
  0
LAYER
  5
10
330
2
100
AcDbSymbolTableRecord
100
AcDbLayerTableRecord
  2
0
 70
    0
 62
    7
  6
CONTINUOUS
370
    0
390
F
  0
LAYER
  5
4A
330
2
100
AcDbSymbolTableRecord
100
AcDbLayerTableRecord
  2
border
 70
    0
 62
   16
420
8388608
  6
CONTINUOUS
370
    0
390
F
  0
LAYER
  5
4B
330
2
100
AcDbSymbolTableRecord
100
AcDbLayerTableRecord
  2
case1
 70
    0
 62
    7
  6
CONTINUOUS
370
    0
390
F
  0
LAYER
  5
4C
330
2
100
AcDbSymbolTableRecord
100
AcDbLayerTableRecord
  2
construction1
 70
    0
 62
    2
  6
CONTINUOUS
370
    0
390
F
  0
LAYER
  5
4D
330
2
100
AcDbSymbolTableRecord
100
AcDbLayerTableRecord
  2
dimensions
 70
    0
 62
   56
420
8421376
  6
CONTINUOUS
370
    0
390
F
  0
LAYER
  5
4E
330
2
100
AcDbSymbolTableRecord
100
AcDbLayerTableRecord
  2
handle1
 70
    0
 62
    7
  6
CONTINUOUS
370
    0
390
F
  0
LAYER
  5
4F
330
2
100
AcDbSymbolTableRecord
100
AcDbLayerTableRecord
  2
handle3
 70
    0
 62
    7
  6
CONTINUOUS
370
    0
390
F
  0
LAYER
  5
50
330
2
100
AcDbSymbolTableRecord
100
AcDbLayerTableRecord
  2
handle4
 70
    0
 62
    7
  6
CONTINUOUS
370
    0
390
F
  0
LAYER
  5
51
330
2
100
AcDbSymbolTableRecord
100
AcDbLayerTableRecord
  2
handle5
 70
    0
 62
    4
  6
CONTINUOUS
370
    0
390
F
  0
LAYER
  5
52
330
2
100
AcDbSymbolTableRecord
100
AcDbLayerTableRecord
  2
handle9
 70
    0
 62
    7
  6
CONTINUOUS
370
    0
390
F
  0
LAYER
  5
53
330
2
100
AcDbSymbolTableRecord
100
AcDbLayerTableRecord
  2
pot
 70
    0
 62
    7
  6
CONTINUOUS
370
    0
390
F
  0
LAYER
  5
54
330
2
100
AcDbSymbolTableRecord
100
AcDbLayerTableRecord
  2
trigger
 70
    0
 62
    7
  6
CONTINUOUS
370
    0
390
F
  0
ENDTAB
  0
TABLE
  2
STYLE
  5
3
330
0
100
AcDbSymbolTable
 70
    3
  0
STYLE
  5
55
330
2
100
AcDbSymbolTableRecord
100
AcDbTextStyleTableRecord
  2
Standard
 70
    0
 40
0
 41
1
 50
0
 71
    0
 42
1
  3
txt
  4

  0
ENDTAB
  0
TABLE
  2
VIEW
  5
6
330
0
100
AcDbSymbolTable
 70
    0
  0
ENDTAB
  0
TABLE
  2
UCS
  5
7
330
0
100
AcDbSymbolTable
 70
    0
  0
ENDTAB
  0
TABLE
  2
APPID
  5
9
330
0
100
AcDbSymbolTable
 70
    1
  0
APPID
  5
12
330
9
100
AcDbSymbolTableRecord
100
AcDbRegAppTableRecord
  2
ACAD
 70
    0
  0
APPID
  5
56
330
9
100
AcDbSymbolTableRecord
100
AcDbRegAppTableRecord
  2
LibreCad
 70
    0
  0
ENDTAB
  0
TABLE
  2
DIMSTYLE
  5
A
330
0
100
AcDbSymbolTable
 70
    1
100
AcDbDimStyleTable
 71
    1
  0
DIMSTYLE
105
57
330
A
100
AcDbSymbolTableRecord
100
AcDbDimStyleTableRecord
  2
Standard
 70
    0
 40
1
 41
2.5
 42
0.625
 43
0.38
 44
1.25
 45
0
 46
0
 47
0
 48
0
 49
1
140
2.5
141
0.09
142
0
143
25.4
144
1
145
0
146
1
147
0.625
148
0
 71
    0
 72
    0
 73
    0
 74
    1
 75
    0
 76
    0
 77
    0
 78
    8
 79
    0
170
    0
171
    2
172
    0
173
    0
174
    0
175
    0
176
    0
177
    0
178
    0
179
    0
271
    2
272
    4
273
    2
274
    2
275
    0
276
    0
277
    2
278
   44
279
    0
280
    0
281
    0
282
    0
283
    1
284
    0
285
    0
286
    0
288
    0
289
    3
340
STANDARD
341

371
   -2
372
   -2
  0
ENDTAB
  0
TABLE
  2
BLOCK_RECORD
  5
1
330
0
100
AcDbSymbolTable
 70
    2
  0
BLOCK_RECORD
  5
1F
330
1
100
AcDbSymbolTableRecord
100
AcDbBlockTableRecord
  2
*Model_Space
 70
    0
280
    1
281
    0
  0
BLOCK_RECORD
  5
1E
330
1
100
AcDbSymbolTableRecord
100
AcDbBlockTableRecord
  2
*Paper_Space
 70
    0
280
    1
281
    0
  0
ENDTAB
  0
ENDSEC
  0
SECTION
  2
BLOCKS
  0
BLOCK
  5
20
330
1F
100
AcDbEntity
  8
0
100
AcDbBlockBegin
  2
*Model_Space
 70
    0
 10
0
 20
0
 30
0
  3
*Model_Space
  1

  0
ENDBLK
  5
21
330
1F
100
AcDbEntity
  8
0
100
AcDbBlockEnd
  0
BLOCK
  5
1C
330
1B
100
AcDbEntity
  8
0
100
AcDbBlockBegin
  2
*Paper_Space
 70
    0
 10
0
 20
0
 30
0
  3
*Paper_Space
  1

  0
ENDBLK
  5
1D
330
1F
100
AcDbEntity
  8
0
100
AcDbBlockEnd
  0
ENDSEC
  0
SECTION
  2
ENTITIES
  0
LINE
  5
58
100
AcDbEntity
  8
handle5
  6
ByLayer
 62
  256
370
   -1
100
AcDbLine
 10
16.75892242218415
 20
-108.3588404340957
 11
14.41324753801026
 21
-108.5497918741539
  0
LINE
  5
59
100
AcDbEntity
  8
handle5
  6
ByLayer
 62
  256
370
   -1
100
AcDbLine
 10
21.05596211906972
 20
-94.92310062725693
 11
18.68542729373651
 21
-95.11607532463375
  0
LINE
  5
5A
100
AcDbEntity
  8
handle5
  6
ByLayer
 62
  256
370
   -1
100
AcDbLine
 10
17.85861200892142
 20
-94.17643508480165
 11
17.0494741573324
 21
-96.17909034743906
  0
LINE
  5
5B
100
AcDbEntity
  8
handle5
  6
ByLayer
 62
  256
370
   -1
100
AcDbLine
 10
17.0494741573324
 20
-96.17909034743906
 11
18.66816608983739
 21
-98.01866295319797
  0
LINE
  5
5C
100
AcDbEntity
  8
handle5
  6
ByLayer
 62
  256
370
   -1
100
AcDbLine
 10
16.37378860705066
 20
-106.5134113096775
 11
17.19868852308749
 21
-104.4717441762515
  0
LINE
  5
5D
100
AcDbEntity
  8
handle5
  6
ByLayer
 62
  256
370
   -1
100
AcDbLine
 10
24.61556366139657
 20
-83.42475007022853
 11
23.36807260551554
 21
-83.52630201433664
  0
LINE
  5
5E
100
AcDbEntity
  8
handle5
  6
ByLayer
 62
  256
370
   -1
100
AcDbLine
 10
22.54125694608878
 20
-82.58666270168629
 11
23.36807260551554
 21
-83.52630201433664
  0
LINE
  5
5F
100
AcDbEntity
  8
handle5
  6
ByLayer
 62
  256
370
   -1
100
AcDbLine
 10
22.54125694608878
 20
-82.58666270168629
 11
21.73211993737575
 21
-84.58931587816477
  0
LINE
  5
60
100
AcDbEntity
  8
handle5
  6
ByLayer
 62
  256
370
   -1
100
AcDbLine
 10
21.73211993737575
 20
-84.58931587816477
 11
23.3508114016163
 21
-86.42888964290086
  0
LINE
  5
61
100
AcDbEntity
  8
handle5
  6
ByLayer
 62
  256
370
   -1
100
AcDbLine
 10
26.12421267113037
 20
-85.17929474068336
 11
23.77853778695648
 21
-85.3702461807415
  0
LINE
  5
62
100
AcDbEntity
  8
handle5
  6
ByLayer
 62
  256
370
   -1
100
AcDbLine
 10
23.77853778695648
 20
-85.3702461807415
 11
21.09422177117149
 21
-92.01405796761554
  0
LINE
  5
63
100
AcDbEntity
  8
handle5
  6
ByLayer
 62
  256
370
   -1
100
AcDbLine
 10
23.46464844204111
 20
-91.8210926902704
 11
21.09422177117149
 21
-92.01405796761554
  0
LINE
  5
64
100
AcDbEntity
  8
handle5
  6
ByLayer
 62
  256
370
   -1
100
AcDbLine
 10
21.05643382517669
 20
-94.92363823117586
 11
21.88133383486646
 21
-92.88197086595443
  0
LINE
  5
65
100
AcDbEntity
  8
handle5
  6
ByLayer
 62
  256
370
   -1
100
AcDbLine
 10
21.46631989527039
 20
-96.76705235932985
 11
19.09589238152468
 21
-96.96001972283403
  0
LINE
  5
66
100
AcDbEntity
  8
handle5
  6
ByLayer
 62
  256
370
   -1
100
AcDbLine
 10
17.29108165075975
 20
-73.73307932205483
 11
25.73860668162549
 21
-83.33332917132344
  0
LINE
  5
67
100
AcDbEntity
  8
handle5
  6
ByLayer
 62
  256
370
   -1
100
AcDbLine
 10
18.06277338553476
 20
-77.49706156238307
 11
20.4329558361231
 21
-77.30411813862332
  0
LINE
  5
68
100
AcDbEntity
  8
handle5
  6
ByLayer
 62
  256
370
   -1
100
AcDbLine
 10
16.8913872482578
 20
-74.72230690282703
 11
18.46247470172252
 21
-76.50778149993852
  0
LINE
  5
69
100
AcDbEntity
  8
handle5
  6
ByLayer
 62
  256
370
   -1
100
AcDbLine
 10
18.46247470172252
 20
-76.50778149993852
 11
16.92346943749256
 21
-80.31689386019167
  0
LINE
  5
6A
100
AcDbEntity
  8
handle5
  6
ByLayer
 62
  256
370
   -1
100
AcDbLine
 10
20.4249273501779
 20
-71.65061641195319
 11
23.14512001350143
 21
-64.9180081896414
  0
LINE
  5
6B
100
AcDbEntity
  8
handle5
  6
ByLayer
 62
  256
370
   -1
100
AcDbLine
 10
18.8538496532441
 20
-69.86515303692289
 11
20.4249273501779
 21
-71.65061641195319
  0
LINE
  5
6C
100
AcDbEntity
  8
handle5
  6
ByLayer
 62
  256
370
   -1
100
AcDbLine
 10
30.421252368016
 20
-71.74355493384456
 11
28.05071754268274
 21
-71.93652963122139
  0
LINE
  5
6D
100
AcDbEntity
  8
handle5
  6
ByLayer
 62
  256
370
   -1
100
AcDbLine
 10
22.74541869731367
 20
-65.90728825208606
 11
28.05071754268274
 21
-71.93652963122139
  0
LINE
  5
6E
100
AcDbEntity
  8
handle5
  6
ByLayer
 62
  256
370
   -1
100
AcDbLine
 10
27.2239022578677
 20
-70.99688939138929
 11
19.23249386032713
 21
-71.76527226199181
  0
LINE
  5
6F
100
AcDbEntity
  8
handle5
  6
ByLayer
 62
  256
370
   -1
100
AcDbLine
 10
18.47642274018144
 20
-73.63658480127577
 11
19.23249386032713
 21
-71.76527226199181
  0
LINE
  5
70
100
AcDbEntity
  8
handle5
  6
ByLayer
 62
  256
370
   -1
100
AcDbLine
 10
27.2239022578677
 20
-70.99688939138929
 11
26.41476440627851
 21
-72.99954465402669
  0
LINE
  5
71
100
AcDbEntity
  8
handle5
  6
ByLayer
 62
  256
370
   -1
100
AcDbLine
 10
18.06277338553476
 20
-77.49706156238307
 11
22.54125694608878
 21
-82.58666270168629
  0
LINE
  5
72
100
AcDbEntity
  8
handle5
  6
ByLayer
 62
  256
370
   -1
100
AcDbLine
 10
25.73860668162549
 20
-83.33332917132344
 11
24.61556366139657
 21
-83.42475007022853
  0
LINE
  5
73
100
AcDbEntity
  8
handle5
  6
ByLayer
 62
  256
370
   -1
100
AcDbLine
 10
26.41476440627851
 20
-72.99954465402669
 11
28.03345633878356
 21
-74.83911725978561
  0
LINE
  5
74
100
AcDbEntity
  8
handle5
  6
ByLayer
 62
  256
370
   -1
100
AcDbLine
 10
28.4611826304709
 20
-73.78047402942167
 11
25.77686670833886
 21
-80.4242855845003
  0
LINE
  5
75
100
AcDbEntity
  8
handle5
  6
ByLayer
 62
  256
370
   -1
100
AcDbLine
 10
18.47642274018144
 20
-73.63658480127577
 11
20.09511073216364
 21
-75.47615581493523
  0
LINE
  5
76
100
AcDbEntity
  8
handle5
  6
ByLayer
 62
  256
370
   -1
100
AcDbLine
 10
20.43358593598807
 20
-77.30440318813254
 11
21.20835242314037
 21
-75.38681871255341
  0
LINE
  5
77
100
AcDbEntity
  8
handle5
  6
ByLayer
 62
  256
370
   -1
100
AcDbLine
 10
20.09511073216364
 20
-75.47615581493523
 11
28.03345718165965
 21
-74.83911517362645
  0
LINE
  5
78
100
AcDbEntity
  8
handle5
  6
ByLayer
 62
  256
370
   -1
100
AcDbLine
 10
26.56397877203377
 20
-81.29219848283918
 11
21.20835242314037
 21
-75.38681871255341
  0
LINE
  5
79
100
AcDbEntity
  8
handle5
  6
ByLayer
 62
  256
370
   -1
100
AcDbLine
 10
25.73907885599694
 20
-83.33386561626509
 11
26.56397877203377
 21
-81.29219848283918
  0
LINE
  5
7A
100
AcDbEntity
  8
handle5
  6
ByLayer
 62
  256
370
   -1
100
AcDbLine
 10
18.80390894437791
 20
-64.31479013570635
 11
17.23299145639836
 21
-62.52951417389858
  0
LINE
  5
7B
100
AcDbEntity
  8
handle5
  6
ByLayer
 62
  256
370
   -1
100
AcDbLine
 10
21.574052958037
 20
-63.13254183398527
 11
19.20361026056561
 21
-63.3255100732618
  0
LINE
  5
7C
100
AcDbEntity
  8
handle5
  6
ByLayer
 62
  256
370
   -1
100
AcDbLine
 10
21.16606290902117
 20
-58.46834498527647
 11
22.34724993350303
 21
-55.54485005039959
  0
LINE
  5
7D
100
AcDbEntity
  8
handle5
  6
ByLayer
 62
  256
370
   -1
100
AcDbLine
 10
23.53649496502301
 20
-58.27537972662577
 11
21.16606290902117
 21
-58.46834498527647
  0
LINE
  5
7E
100
AcDbEntity
  8
handle5
  6
ByLayer
 62
  256
370
   -1
100
AcDbLine
 10
21.18810015546758
 20
-61.25047636577148
 11
21.94417090100167
 21
-59.37916475366927
  0
LINE
  5
7F
100
AcDbEntity
  8
handle5
  6
ByLayer
 62
  256
370
   -1
100
AcDbLine
 10
21.18810015546758
 20
-61.25047636577148
 11
18.7458379042832
 21
-61.44929142084487
  0
LINE
  5
80
100
AcDbEntity
  8
handle5
  6
ByLayer
 62
  256
370
   -1
100
AcDbLine
 10
17.23234019097744
 20
-62.52928151016278
 11
18.0071063035182
 21
-60.61169796176551
  0
LINE
  5
81
100
AcDbEntity
  8
handle5
  6
ByLayer
 62
  256
370
   -1
100
AcDbLine
 10
21.97372696253867
 20
-62.14330601175772
 11
30.42125189975151
 21
-71.74355609282185
  0
LINE
  5
82
100
AcDbEntity
  8
handle5
  6
ByLayer
 62
  256
370
   -1
100
AcDbLine
 10
22.74541869731367
 20
-65.90728825208606
 11
25.11560114790202
 21
-65.71434482832632
  0
LINE
  5
83
100
AcDbEntity
  8
handle5
  6
ByLayer
 62
  256
370
   -1
100
AcDbLine
 10
21.57403256003672
 20
-63.1325335925298
 11
23.14512001350143
 21
-64.9180081896414
  0
LINE
  5
84
100
AcDbEntity
  8
handle5
  6
ByLayer
 62
  256
370
   -1
100
AcDbLine
 10
25.10757266195681
 20
-60.06084310165608
 11
26.28875968643873
 21
-57.1373481667793
  0
LINE
  5
85
100
AcDbEntity
  8
handle5
  6
ByLayer
 62
  256
370
   -1
100
AcDbLine
 10
23.53649496502301
 20
-58.27537972662577
 11
25.10757266195681
 21
-60.06084310165608
  0
LINE
  5
86
100
AcDbEntity
  8
handle5
  6
ByLayer
 62
  256
370
   -1
100
AcDbLine
 10
23.15906805196035
 20
-62.04681149097866
 11
35.90777858385896
 21
-61.02374460767425
  0
LINE
  5
87
100
AcDbEntity
  8
handle5
  6
ByLayer
 62
  256
370
   -1
100
AcDbLine
 10
33.98085391034268
 20
-60.24520437681616
 11
32.73336285446165
 21
-60.34675632092427
  0
LINE
  5
88
100
AcDbEntity
  8
handle5
  6
ByLayer
 62
  256
370
   -1
100
AcDbLine
 10
31.90654719503506
 20
-59.40711700827393
 11
32.73336285446165
 21
-60.34675632092427
  0
LINE
  5
89
100
AcDbEntity
  8
handle5
  6
ByLayer
 62
  256
370
   -1
100
AcDbLine
 10
31.90654719503506
 20
-59.40711700827393
 11
23.91513879749444
 21
-60.17549987887645
  0
LINE
  5
8A
100
AcDbEntity
  8
handle5
  6
ByLayer
 62
  256
370
   -1
100
AcDbLine
 10
23.15906805196035
 20
-62.04681149097866
 11
23.91513879749444
 21
-60.17549987887645
  0
LINE
  5
8B
100
AcDbEntity
  8
handle5
  6
ByLayer
 62
  256
370
   -1
100
AcDbLine
 10
31.90654719503506
 20
-59.40711700827393
 11
31.09741018632197
 21
-61.4097701847524
  0
LINE
  5
8C
100
AcDbEntity
  8
handle5
  6
ByLayer
 62
  256
370
   -1
100
AcDbLine
 10
31.09741018632197
 20
-61.4097701847524
 11
32.71610165056259
 21
-63.24934394948849
  0
LINE
  5
8D
100
AcDbEntity
  8
handle5
  6
ByLayer
 62
  256
370
   -1
100
AcDbLine
 10
35.4895029200766
 20
-61.999749047271
 11
33.14382803590271
 21
-62.19070048732914
  0
LINE
  5
8E
100
AcDbEntity
  8
handle5
  6
ByLayer
 62
  256
370
   -1
100
AcDbLine
 10
33.14382803590271
 20
-62.19070048732914
 11
30.45951202011777
 21
-68.83451227420318
  0
LINE
  5
8F
100
AcDbEntity
  8
handle5
  6
ByLayer
 62
  256
370
   -1
100
AcDbLine
 10
32.8299386909874
 20
-68.64154699685804
 11
30.45951202011777
 21
-68.83451227420318
  0
LINE
  5
90
100
AcDbEntity
  8
handle5
  6
ByLayer
 62
  256
370
   -1
100
AcDbLine
 10
23.15906805196035
 20
-62.04681149097866
 11
24.77775604394255
 21
-63.88638250463822
  0
LINE
  5
91
100
AcDbEntity
  8
handle5
  6
ByLayer
 62
  256
370
   -1
100
AcDbLine
 10
25.11623124776698
 20
-65.71462987783542
 11
25.89099736030763
 21
-63.79704632943816
  0
LINE
  5
92
100
AcDbEntity
  8
handle5
  6
ByLayer
 62
  256
370
   -1
100
AcDbLine
 10
24.77775604394255
 20
-63.88638250463822
 11
32.71610249343868
 21
-63.24934186332933
  0
LINE
  5
93
100
AcDbEntity
  8
handle5
  6
ByLayer
 62
  256
370
   -1
100
AcDbLine
 10
31.24662408381268
 20
-69.70242517254206
 11
25.89099736030763
 21
-63.79704632943816
  0
LINE
  5
94
100
AcDbEntity
  8
handle5
  6
ByLayer
 62
  256
370
   -1
100
AcDbLine
 10
30.42172407412297
 20
-71.74409253776338
 11
31.24662408381268
 21
-69.70242517254206
  0
LINE
  5
95
100
AcDbEntity
  8
handle5
  6
ByLayer
 62
  256
370
   -1
100
AcDbLine
 10
30.83161014421667
 20
-73.58750666591749
 11
28.4611826304709
 21
-73.78047402942167
  0
LINE
  5
96
100
AcDbEntity
  8
handle5
  6
ByLayer
 62
  256
370
   -1
100
AcDbLine
 10
18.47642274018144
 20
-73.63658480127577
 11
31.22513364669159
 21
-72.61351699078949
  0
LINE
  5
97
100
AcDbEntity
  8
handle5
  6
ByLayer
 62
  256
370
   -1
100
AcDbLine
 10
28.14729337920848
 20
-80.23132030715516
 11
25.77686670833886
 21
-80.4242855845003
  0
LINE
  5
98
100
AcDbEntity
  8
handle5
  6
ByLayer
 62
  256
370
   -1
100
AcDbLine
 10
23.48655388154528
 20
-52.7250177525911
 11
21.91563639356572
 21
-50.93974179078322
  0
LINE
  5
99
100
AcDbEntity
  8
handle5
  6
ByLayer
 62
  256
370
   -1
100
AcDbLine
 10
26.25669789520437
 20
-51.54276945087003
 11
23.88625519773298
 21
-51.73573769014644
  0
LINE
  5
9A
100
AcDbEntity
  8
handle5
  6
ByLayer
 62
  256
370
   -1
100
AcDbLine
 10
23.88625519773298
 20
-51.73573769014644
 11
22.34724993350303
 21
-55.54485005039959
  0
LINE
  5
9B
100
AcDbEntity
  8
handle5
  6
ByLayer
 62
  256
370
   -1
100
AcDbLine
 10
28.21913990219032
 20
-46.68560734351041
 11
25.84870784618836
 21
-46.87857260216123
  0
LINE
  5
9C
100
AcDbEntity
  8
handle5
  6
ByLayer
 62
  256
370
   -1
100
AcDbLine
 10
25.87074509263478
 20
-49.66070398265623
 11
26.6268162127807
 21
-47.78939144337215
  0
LINE
  5
9D
100
AcDbEntity
  8
handle5
  6
ByLayer
 62
  256
370
   -1
100
AcDbLine
 10
25.87074509263478
 20
-49.66070398265623
 11
23.42848284145056
 21
-49.85951903772963
  0
LINE
  5
9E
100
AcDbEntity
  8
handle5
  6
ByLayer
 62
  256
370
   -1
100
AcDbLine
 10
21.91498512814475
 20
-50.93950912704742
 11
22.68975161529712
 21
-49.0219246514684
  0
LINE
  5
9F
100
AcDbEntity
  8
handle5
  6
ByLayer
 62
  256
370
   -1
100
AcDbLine
 10
26.65637189970592
 20
-50.55353362864247
 11
35.10389693057177
 21
-60.15378347791108
  0
LINE
  5
A0
100
AcDbEntity
  8
handle5
  6
ByLayer
 62
  256
370
   -1
100
AcDbLine
 10
27.42806363448092
 20
-54.3175158689707
 11
29.79824608506933
 21
-54.12457244521096
  0
LINE
  5
A1
100
AcDbEntity
  8
handle5
  6
ByLayer
 62
  256
370
   -1
100
AcDbLine
 10
26.25667749720408
 20
-51.54276120941455
 11
27.82776495066874
 21
-53.32823580652615
  0
LINE
  5
A2
100
AcDbEntity
  8
handle5
  6
ByLayer
 62
  256
370
   -1
100
AcDbLine
 10
27.82776495066874
 20
-53.32823580652615
 11
26.28875968643873
 21
-57.1373481667793
  0
LINE
  5
A3
100
AcDbEntity
  8
handle5
  6
ByLayer
 62
  256
370
   -1
100
AcDbLine
 10
28.21913990219032
 20
-46.68560734351041
 11
29.79021759912418
 21
-48.47107071854083
  0
LINE
  5
A4
100
AcDbEntity
  8
handle5
  6
ByLayer
 62
  256
370
   -1
100
AcDbLine
 10
39.78654261696223
 20
-48.56400924043209
 11
37.41600779162902
 21
-48.75698393780891
  0
LINE
  5
A5
100
AcDbEntity
  8
handle5
  6
ByLayer
 62
  256
370
   -1
100
AcDbLine
 10
32.11070894625995
 20
-42.72774255867358
 11
37.41600779162902
 21
-48.75698393780891
  0
LINE
  5
A6
100
AcDbEntity
  8
handle5
  6
ByLayer
 62
  256
370
   -1
100
AcDbLine
 10
36.58919250681398
 20
-47.81734369797681
 11
28.59778410927335
 21
-48.58572656857933
  0
LINE
  5
A7
100
AcDbEntity
  8
handle5
  6
ByLayer
 62
  256
370
   -1
100
AcDbLine
 10
27.84171298912772
 20
-50.4570391078633
 11
28.59778410927335
 21
-48.58572656857933
  0
LINE
  5
A8
100
AcDbEntity
  8
handle5
  6
ByLayer
 62
  256
370
   -1
100
AcDbLine
 10
36.58919250681398
 20
-47.81734369797681
 11
35.7800546552248
 21
-49.81999896061433
  0
LINE
  5
A9
100
AcDbEntity
  8
handle5
  6
ByLayer
 62
  256
370
   -1
100
AcDbLine
 10
27.42806363448092
 20
-54.3175158689707
 11
31.90654719503506
 21
-59.40711700827393
  0
LINE
  5
AA
100
AcDbEntity
  8
handle5
  6
ByLayer
 62
  256
370
   -1
100
AcDbLine
 10
35.10389693057177
 20
-60.15378347791108
 11
33.98085391034268
 21
-60.24520437681616
  0
LINE
  5
AB
100
AcDbEntity
  8
handle5
  6
ByLayer
 62
  256
370
   -1
100
AcDbLine
 10
35.7800546552248
 20
-49.81999896061433
 11
37.39874658772978
 21
-51.65957156637324
  0
LINE
  5
AC
100
AcDbEntity
  8
handle5
  6
ByLayer
 62
  256
370
   -1
100
AcDbLine
 10
37.82647287941708
 20
-50.6009283360093
 11
35.14215695728515
 21
-57.24473989108782
  0
LINE
  5
AD
100
AcDbEntity
  8
handle5
  6
ByLayer
 62
  256
370
   -1
100
AcDbLine
 10
27.84171298912772
 20
-50.4570391078633
 11
29.46040098110986
 21
-52.29661012152286
  0
LINE
  5
AE
100
AcDbEntity
  8
handle5
  6
ByLayer
 62
  256
370
   -1
100
AcDbLine
 10
29.79887618493435
 20
-54.12485749472006
 11
30.57364267208665
 21
-52.20727301914104
  0
LINE
  5
AF
100
AcDbEntity
  8
handle5
  6
ByLayer
 62
  256
370
   -1
100
AcDbLine
 10
29.46040098110986
 20
-52.29661012152286
 11
37.39874743060593
 21
-51.65956948021409
  0
LINE
  5
B0
100
AcDbEntity
  8
handle5
  6
ByLayer
 62
  256
370
   -1
100
AcDbLine
 10
35.92926902098005
 20
-58.11265278942682
 11
30.57364267208665
 21
-52.20727301914104
  0
LINE
  5
B1
100
AcDbEntity
  8
handle5
  6
ByLayer
 62
  256
370
   -1
100
AcDbLine
 10
35.10436910494317
 20
-60.15431992285272
 11
35.92926902098005
 21
-58.11265278942682
  0
LINE
  5
B2
100
AcDbEntity
  8
handle5
  6
ByLayer
 62
  256
370
   -1
100
AcDbLine
 10
32.11070894625995
 20
-42.72774255867358
 11
34.48089139684824
 21
-42.53479913491384
  0
LINE
  5
B3
100
AcDbEntity
  8
handle5
  6
ByLayer
 62
  256
370
   -1
100
AcDbLine
 10
42.19522893993368
 20
-45.46200130344567
 11
39.824802269064
 21
-45.65496658079081
  0
LINE
  5
B4
100
AcDbEntity
  8
handle5
  6
ByLayer
 62
  256
370
   -1
100
AcDbLine
 10
39.78701432306919
 20
-48.56454684435101
 11
40.61191433275896
 21
-46.5228794791297
  0
LINE
  5
B5
100
AcDbEntity
  8
handle5
  6
ByLayer
 62
  256
370
   -1
100
AcDbLine
 10
40.19690039316284
 20
-50.40796097250512
 11
37.82647287941708
 21
-50.6009283360093
  0
LINE
  5
B6
100
AcDbEntity
  8
handle5
  6
ByLayer
 62
  256
370
   -1
100
AcDbLine
 10
27.84171298912772
 20
-50.4570391078633
 11
40.59042389563788
 21
-49.43397129737713
  0
LINE
  5
B7
100
AcDbEntity
  8
handle5
  6
ByLayer
 62
  256
370
   -1
100
AcDbLine
 10
37.51258362815476
 20
-57.05177461374279
 11
35.14215695728515
 21
-57.24473989108782
  0
LINE
  5
B8
100
AcDbEntity
  8
handle5
  6
ByLayer
 62
  256
370
   -1
100
AcDbLine
 10
25.61503042249548
 20
-114.1927275575765
 11
26.79621744697751
 21
-111.2692326226997
  0
LINE
  5
B9
100
AcDbEntity
  8
handle5
  6
ByLayer
 62
  256
370
   -1
100
AcDbLine
 10
27.98546247849744
 20
-113.9997622989258
 11
25.61503042249548
 21
-114.1927275575765
  0
LINE
  5
BA
100
AcDbEntity
  8
handle5
  6
ByLayer
 62
  256
370
   -1
100
AcDbLine
 10
25.63706766894201
 20
-116.9748589380715
 11
17.17719808596646
 21
-107.382835994499
  0
LINE
  5
BB
100
AcDbEntity
  8
handle5
  6
ByLayer
 62
  256
370
   -1
100
AcDbLine
 10
19.10412345486903
 20
-108.1613765063158
 11
19.93094305481846
 21
-109.1010174110655
  0
LINE
  5
BC
100
AcDbEntity
  8
handle5
  6
ByLayer
 62
  256
370
   -1
100
AcDbLine
 10
21.17843411069943
 20
-108.9994654669572
 11
19.93094305481846
 21
-109.1010174110655
  0
LINE
  5
BD
100
AcDbEntity
  8
handle5
  6
ByLayer
 62
  256
370
   -1
100
AcDbLine
 10
21.17843411069943
 20
-108.9994654669572
 11
26.3931384144761
 21
-115.1035473259693
  0
LINE
  5
BE
100
AcDbEntity
  8
handle5
  6
ByLayer
 62
  256
370
   -1
100
AcDbLine
 10
25.63706766894201
 20
-116.9748589380715
 11
26.3931384144761
 21
-115.1035473259693
  0
LINE
  5
BF
100
AcDbEntity
  8
handle5
  6
ByLayer
 62
  256
370
   -1
100
AcDbLine
 10
21.17843411069943
 20
-108.9994654669572
 11
20.36929710198645
 21
-111.0021186434357
  0
LINE
  5
C0
100
AcDbEntity
  8
handle5
  6
ByLayer
 62
  256
370
   -1
100
AcDbLine
 10
20.36929710198645
 20
-111.0021186434357
 11
17.92703021021937
 21
-111.2009331717342
  0
LINE
  5
C1
100
AcDbEntity
  8
handle5
  6
ByLayer
 62
  256
370
   -1
100
AcDbLine
 10
18.35475659555961
 20
-110.1422897095749
 11
15.67044057977468
 21
-116.7861014964488
  0
LINE
  5
C2
100
AcDbEntity
  8
handle5
  6
ByLayer
 62
  256
370
   -1
100
AcDbLine
 10
14.09935819309495
 20
-115.0006383836828
 11
15.67044057977468
 21
-116.7861014964488
  0
LINE
  5
C3
100
AcDbEntity
  8
handle5
  6
ByLayer
 62
  256
370
   -1
100
AcDbLine
 10
25.63706766894201
 20
-116.9748589380715
 11
23.19480541775762
 21
-117.1736739931449
  0
LINE
  5
C4
100
AcDbEntity
  8
handle5
  6
ByLayer
 62
  256
370
   -1
100
AcDbLine
 10
21.68130770445187
 20
-118.2536640824628
 11
22.45607381699257
 21
-116.3360805340655
  0
LINE
  5
C5
100
AcDbEntity
  8
handle5
  6
ByLayer
 62
  256
370
   -1
100
AcDbLine
 10
23.19480541775762
 20
-117.1736739931449
 11
17.92703105309552
 21
-111.2009310855751
  0
LINE
  5
C6
100
AcDbEntity
  8
handle5
  6
ByLayer
 62
  256
370
   -1
100
AcDbLine
 10
29.55654017543124
 20
-115.7852256739562
 11
30.73772719991316
 21
-112.8617307390793
  0
LINE
  5
C7
100
AcDbEntity
  8
handle5
  6
ByLayer
 62
  256
370
   -1
100
AcDbLine
 10
27.98546247849744
 20
-113.9997622989258
 11
29.55654017543124
 21
-115.7852256739562
  0
LINE
  5
C8
100
AcDbEntity
  8
handle5
  6
ByLayer
 62
  256
370
   -1
100
AcDbLine
 10
27.60803556543484
 20
-117.7711940632786
 11
40.35674609733339
 21
-116.7481271799741
  0
LINE
  5
C9
100
AcDbEntity
  8
handle5
  6
ByLayer
 62
  256
370
   -1
100
AcDbLine
 10
38.42982142381722
 20
-115.969586949116
 11
37.18233036793625
 21
-116.0711388932243
  0
LINE
  5
CA
100
AcDbEntity
  8
handle5
  6
ByLayer
 62
  256
370
   -1
100
AcDbLine
 10
36.3555147085095
 20
-115.1314995805739
 11
37.18233036793625
 21
-116.0711388932243
  0
LINE
  5
CB
100
AcDbEntity
  8
handle5
  6
ByLayer
 62
  256
370
   -1
100
AcDbLine
 10
36.3555147085095
 20
-115.1314995805739
 11
28.36410631096892
 21
-115.8998824511764
  0
LINE
  5
CC
100
AcDbEntity
  8
handle5
  6
ByLayer
 62
  256
370
   -1
100
AcDbLine
 10
27.60803556543484
 20
-117.7711940632786
 11
28.36410631096892
 21
-115.8998824511764
  0
LINE
  5
CD
100
AcDbEntity
  8
handle5
  6
ByLayer
 62
  256
370
   -1
100
AcDbLine
 10
36.3555147085095
 20
-115.1314995805739
 11
35.54637769979646
 21
-117.1341527570524
  0
LINE
  5
CE
100
AcDbEntity
  8
handle5
  6
ByLayer
 62
  256
370
   -1
100
AcDbLine
 10
39.93847043355108
 20
-117.7241316195711
 11
37.59279554937719
 21
-117.9150830596291
  0
LINE
  5
CF
100
AcDbEntity
  8
handle5
  6
ByLayer
 62
  256
370
   -1
100
AcDbLine
 10
16.78367580097917
 20
-108.3568226562859
 11
18.35475659555961
 21
-110.1422897095749
  0
LINE
  5
D0
100
AcDbEntity
  8
handle5
  6
ByLayer
 62
  256
370
   -1
100
AcDbLine
 10
31.10533941318052
 20
-106.2779162009425
 11
18.35979329960454
 21
-107.3154761183428
  0
LINE
  5
D1
100
AcDbEntity
  8
handle5
  6
ByLayer
 62
  256
370
   -1
100
AcDbLine
 10
27.93552139501971
 20
-108.4494003248911
 11
26.36460390704015
 21
-106.6641243630833
  0
LINE
  5
D2
100
AcDbEntity
  8
handle5
  6
ByLayer
 62
  256
370
   -1
100
AcDbLine
 10
30.7056654086788
 20
-107.26715202317
 11
28.33522271120741
 21
-107.4601202624464
  0
LINE
  5
D3
100
AcDbEntity
  8
handle5
  6
ByLayer
 62
  256
370
   -1
100
AcDbLine
 10
28.33522271120741
 20
-107.4601202624464
 11
26.79621744697751
 21
-111.2692326226997
  0
LINE
  5
D4
100
AcDbEntity
  8
handle5
  6
ByLayer
 62
  256
370
   -1
100
AcDbLine
 10
38.13226465855072
 20
-88.88593683035327
 11
28.76697440960449
 21
-112.0654825237656
  0
LINE
  5
D5
100
AcDbEntity
  8
handle5
  6
ByLayer
 62
  256
370
   -1
100
AcDbLine
 10
30.29767535966285
 20
-102.6029551744612
 11
33.01786802298633
 21
-95.8703469521493
  0
LINE
  5
D6
100
AcDbEntity
  8
handle5
  6
ByLayer
 62
  256
370
   -1
100
AcDbLine
 10
32.66810741566481
 20
-102.4099899158105
 11
30.29767535966285
 21
-102.6029551744612
  0
LINE
  5
D7
100
AcDbEntity
  8
handle5
  6
ByLayer
 62
  256
370
   -1
100
AcDbLine
 10
30.31971260610927
 20
-105.3850865549562
 11
21.85984339774531
 21
-95.79306268420186
  0
LINE
  5
D8
100
AcDbEntity
  8
handle5
  6
ByLayer
 62
  256
370
   -1
100
AcDbLine
 10
23.04243851773056
 20
-95.72570303984111
 11
24.61358799198577
 21
-97.51124502795011
  0
LINE
  5
D9
100
AcDbEntity
  8
handle5
  6
ByLayer
 62
  256
370
   -1
100
AcDbLine
 10
32.61816670679863
 20
-96.85962701459397
 11
24.61358799198577
 21
-97.51124502795011
  0
LINE
  5
DA
100
AcDbEntity
  8
handle5
  6
ByLayer
 62
  256
370
   -1
100
AcDbLine
 10
25.86107942247834
 20
-97.40969215666013
 11
31.07578372625501
 21
-103.5137740156721
  0
LINE
  5
DB
100
AcDbEntity
  8
handle5
  6
ByLayer
 62
  256
370
   -1
100
AcDbLine
 10
30.31971260610927
 20
-105.3850865549562
 11
31.07578372625501
 21
-103.5137740156721
  0
LINE
  5
DC
100
AcDbEntity
  8
handle5
  6
ByLayer
 62
  256
370
   -1
100
AcDbLine
 10
25.86107942247834
 20
-97.40969215666013
 11
25.05194157088922
 21
-99.41234741929776
  0
LINE
  5
DD
100
AcDbEntity
  8
handle5
  6
ByLayer
 62
  256
370
   -1
100
AcDbLine
 10
27.93552139501971
 20
-108.4494003248911
 11
21.17843411069943
 21
-108.9994654669572
  0
LINE
  5
DE
100
AcDbEntity
  8
handle5
  6
ByLayer
 62
  256
370
   -1
100
AcDbLine
 10
18.35979329960454
 20
-107.3154761183428
 11
19.10412345486903
 21
-108.1613765063158
  0
LINE
  5
DF
100
AcDbEntity
  8
handle5
  6
ByLayer
 62
  256
370
   -1
100
AcDbLine
 10
25.05194157088922
 20
-99.41234741929776
 11
22.60967514738669
 21
-99.61116078861886
  0
LINE
  5
E0
100
AcDbEntity
  8
handle5
  6
ByLayer
 62
  256
370
   -1
100
AcDbLine
 10
21.48272959659382
 20
-96.7856989334046
 11
23.03740143907403
 21
-98.55251755825492
  0
LINE
  5
E1
100
AcDbEntity
  8
handle5
  6
ByLayer
 62
  256
370
   -1
100
AcDbLine
 10
23.03740143907403
 20
-98.55251755825492
 11
20.35308532963622
 21
-105.1963295769245
  0
LINE
  5
E2
100
AcDbEntity
  8
handle5
  6
ByLayer
 62
  256
370
   -1
100
AcDbLine
 10
30.31971260610927
 20
-105.3850865549562
 11
27.87745035492499
 21
-105.5839016100296
  0
LINE
  5
E3
100
AcDbEntity
  8
handle5
  6
ByLayer
 62
  256
370
   -1
100
AcDbLine
 10
26.36395264161924
 20
-106.6638916993474
 11
27.13871912877154
 21
-104.7463072237684
  0
LINE
  5
E4
100
AcDbEntity
  8
handle5
  6
ByLayer
 62
  256
370
   -1
100
AcDbLine
 10
27.87745035492499
 20
-105.5839016100296
 11
22.60967599026278
 21
-99.61115870245982
  0
LINE
  5
E5
100
AcDbEntity
  8
handle5
  6
ByLayer
 62
  256
370
   -1
100
AcDbLine
 10
19.18397697470518
 20
-105.2738652714275
 11
27.13871912877154
 21
-104.7463072237684
  0
LINE
  5
E6
100
AcDbEntity
  8
handle5
  6
ByLayer
 62
  256
370
   -1
100
AcDbLine
 10
18.35907705866835
 20
-107.3155324048534
 11
19.18397697470518
 21
-105.2738652714275
  0
LINE
  5
E7
100
AcDbEntity
  8
handle5
  6
ByLayer
 62
  256
370
   -1
100
AcDbLine
 10
31.10533941318052
 20
-106.2779162009425
 11
39.55286444404626
 21
-115.8781660502111
  0
LINE
  5
E8
100
AcDbEntity
  8
handle5
  6
ByLayer
 62
  256
370
   -1
100
AcDbLine
 10
31.87703114795541
 20
-110.0418984412708
 11
34.24721359854382
 21
-109.8489550175111
  0
LINE
  5
E9
100
AcDbEntity
  8
handle5
  6
ByLayer
 62
  256
370
   -1
100
AcDbLine
 10
30.70564501067851
 20
-107.2671437817147
 11
32.27673246414323
 21
-109.0526183788261
  0
LINE
  5
EA
100
AcDbEntity
  8
handle5
  6
ByLayer
 62
  256
370
   -1
100
AcDbLine
 10
32.27673246414323
 20
-109.0526183788261
 11
30.73772719991316
 21
-112.8617307390793
  0
LINE
  5
EB
100
AcDbEntity
  8
handle5
  6
ByLayer
 62
  256
370
   -1
100
AcDbLine
 10
34.23918511259861
 20
-104.1954532908409
 11
36.95937777592214
 21
-97.46284506852902
  0
LINE
  5
EC
100
AcDbEntity
  8
handle5
  6
ByLayer
 62
  256
370
   -1
100
AcDbLine
 10
32.66810741566481
 20
-102.4099899158105
 11
34.23918511259861
 21
-104.1954532908409
  0
LINE
  5
ED
100
AcDbEntity
  8
handle5
  6
ByLayer
 62
  256
370
   -1
100
AcDbLine
 10
44.23551013043672
 20
-104.2883918127322
 11
41.86497530510345
 21
-104.481366510109
  0
LINE
  5
EE
100
AcDbEntity
  8
handle5
  6
ByLayer
 62
  256
370
   -1
100
AcDbLine
 10
36.55967645973438
 20
-98.45212513097368
 11
41.86497530510345
 21
-104.481366510109
  0
LINE
  5
EF
100
AcDbEntity
  8
handle5
  6
ByLayer
 62
  256
370
   -1
100
AcDbLine
 10
41.03816002028841
 20
-103.5417262702768
 11
33.04675162274784
 21
-104.3101091408793
  0
LINE
  5
F0
100
AcDbEntity
  8
handle5
  6
ByLayer
 62
  256
370
   -1
100
AcDbLine
 10
32.29068050260215
 20
-106.1814216801634
 11
33.04675162274784
 21
-104.3101091408793
  0
LINE
  5
F1
100
AcDbEntity
  8
handle5
  6
ByLayer
 62
  256
370
   -1
100
AcDbLine
 10
41.03816002028841
 20
-103.5417262702768
 11
40.22902216869922
 21
-105.5443815329143
  0
LINE
  5
F2
100
AcDbEntity
  8
handle5
  6
ByLayer
 62
  256
370
   -1
100
AcDbLine
 10
31.87703114795541
 20
-110.0418984412708
 11
36.3555147085095
 21
-115.1314995805739
  0
LINE
  5
F3
100
AcDbEntity
  8
handle5
  6
ByLayer
 62
  256
370
   -1
100
AcDbLine
 10
39.55286444404626
 20
-115.8781660502111
 11
38.42982142381722
 21
-115.969586949116
  0
LINE
  5
F4
100
AcDbEntity
  8
handle5
  6
ByLayer
 62
  256
370
   -1
100
AcDbLine
 10
40.22902216869922
 20
-105.5443815329143
 11
41.84771410120438
 21
-107.3839541386732
  0
LINE
  5
F5
100
AcDbEntity
  8
handle5
  6
ByLayer
 62
  256
370
   -1
100
AcDbLine
 10
42.27544039289167
 20
-106.3253109083093
 11
39.59112447075957
 21
-112.9691224633878
  0
LINE
  5
F6
100
AcDbEntity
  8
handle5
  6
ByLayer
 62
  256
370
   -1
100
AcDbLine
 10
32.29068050260215
 20
-106.1814216801634
 11
33.90936849458435
 21
-108.0209926938228
  0
LINE
  5
F7
100
AcDbEntity
  8
handle5
  6
ByLayer
 62
  256
370
   -1
100
AcDbLine
 10
34.24784369840878
 20
-109.8492400670202
 11
35.02261018556108
 21
-107.931655591441
  0
LINE
  5
F8
100
AcDbEntity
  8
handle5
  6
ByLayer
 62
  256
370
   -1
100
AcDbLine
 10
33.90936849458435
 20
-108.0209926938228
 11
41.84771494408053
 21
-107.3839520525142
  0
LINE
  5
F9
100
AcDbEntity
  8
handle5
  6
ByLayer
 62
  256
370
   -1
100
AcDbLine
 10
40.37823653445448
 20
-113.8370353617268
 11
35.02261018556108
 21
-107.931655591441
  0
LINE
  5
FA
100
AcDbEntity
  8
handle5
  6
ByLayer
 62
  256
370
   -1
100
AcDbLine
 10
39.55333661841765
 20
-115.8787024951527
 11
40.37823653445448
 21
-113.8370353617268
  0
LINE
  5
FB
100
AcDbEntity
  8
handle5
  6
ByLayer
 62
  256
370
   -1
100
AcDbLine
 10
35.78798472495944
 20
-94.68814289064545
 11
23.04243851773056
 21
-95.72570303984111
  0
LINE
  5
FC
100
AcDbEntity
  8
handle5
  6
ByLayer
 62
  256
370
   -1
100
AcDbLine
 10
32.61816670679863
 20
-96.85962701459397
 11
31.04724921881906
 21
-95.0743510527862
  0
LINE
  5
FD
100
AcDbEntity
  8
handle5
  6
ByLayer
 62
  256
370
   -1
100
AcDbLine
 10
35.38831072045772
 20
-95.67737871287289
 11
33.01786802298633
 21
-95.8703469521493
  0
LINE
  5
FE
100
AcDbEntity
  8
handle5
  6
ByLayer
 62
  256
370
   -1
100
AcDbLine
 10
34.98032067144177
 20
-91.0131818641641
 11
36.16150769592374
 21
-88.08968692928732
  0
LINE
  5
FF
100
AcDbEntity
  8
handle5
  6
ByLayer
 62
  256
370
   -1
100
AcDbLine
 10
37.35075272744373
 20
-90.82021660551339
 11
34.98032067144177
 21
-91.0131818641641
  0
LINE
  5
100
100
AcDbEntity
  8
handle5
  6
ByLayer
 62
  256
370
   -1
100
AcDbLine
 10
35.00235791788818
 20
-93.7953132446591
 11
26.54248833491268
 21
-84.20329030108661
  0
LINE
  5
101
100
AcDbEntity
  8
handle5
  6
ByLayer
 62
  256
370
   -1
100
AcDbLine
 10
28.4694137038152
 20
-84.98183081290341
 11
29.29623330376468
 21
-85.92147171765299
  0
LINE
  5
102
100
AcDbEntity
  8
handle5
  6
ByLayer
 62
  256
370
   -1
100
AcDbLine
 10
30.54372435964571
 20
-85.81991977354488
 11
29.29623330376468
 21
-85.92147171765299
  0
LINE
  5
103
100
AcDbEntity
  8
handle5
  6
ByLayer
 62
  256
370
   -1
100
AcDbLine
 10
30.54372435964571
 20
-85.81991977354488
 11
35.75842866342239
 21
-91.92400163255689
  0
LINE
  5
104
100
AcDbEntity
  8
handle5
  6
ByLayer
 62
  256
370
   -1
100
AcDbLine
 10
35.00235791788818
 20
-93.7953132446591
 11
35.75842866342239
 21
-91.92400163255689
  0
LINE
  5
105
100
AcDbEntity
  8
handle5
  6
ByLayer
 62
  256
370
   -1
100
AcDbLine
 10
30.54372435964571
 20
-85.81991977354488
 11
29.73458735093267
 21
-87.82257295002336
  0
LINE
  5
106
100
AcDbEntity
  8
handle5
  6
ByLayer
 62
  256
370
   -1
100
AcDbLine
 10
29.73458735093267
 20
-87.82257295002336
 11
27.2923204591656
 21
-88.02138747832186
  0
LINE
  5
107
100
AcDbEntity
  8
handle5
  6
ByLayer
 62
  256
370
   -1
100
AcDbLine
 10
27.72004684450583
 20
-86.96274401616239
 11
25.0357308287209
 21
-93.60655580303654
  0
LINE
  5
108
100
AcDbEntity
  8
handle5
  6
ByLayer
 62
  256
370
   -1
100
AcDbLine
 10
23.46464844204111
 20
-91.8210926902704
 11
25.0357308287209
 21
-93.60655580303654
  0
LINE
  5
109
100
AcDbEntity
  8
handle5
  6
ByLayer
 62
  256
370
   -1
100
AcDbLine
 10
35.00235791788818
 20
-93.7953132446591
 11
32.56009566670391
 21
-93.99412829973249
  0
LINE
  5
10A
100
AcDbEntity
  8
handle5
  6
ByLayer
 62
  256
370
   -1
100
AcDbLine
 10
31.04659795339815
 20
-95.0741183890504
 11
31.8213640659388
 21
-93.15653484065314
  0
LINE
  5
10B
100
AcDbEntity
  8
handle5
  6
ByLayer
 62
  256
370
   -1
100
AcDbLine
 10
32.56009566670391
 20
-93.99412829973249
 11
27.29232130204175
 21
-88.0213853921627
  0
LINE
  5
10C
100
AcDbEntity
  8
handle5
  6
ByLayer
 62
  256
370
   -1
100
AcDbLine
 10
23.86662228648409
 20
-93.68409196113038
 11
31.8213640659388
 21
-93.15653484065314
  0
LINE
  5
10D
100
AcDbEntity
  8
handle5
  6
ByLayer
 62
  256
370
   -1
100
AcDbLine
 10
23.04172227679432
 20
-95.72575932635169
 11
23.86662228648409
 21
-93.68409196113038
  0
LINE
  5
10E
100
AcDbEntity
  8
handle5
  6
ByLayer
 62
  256
370
   -1
100
AcDbLine
 10
35.78798472495944
 20
-94.68814289064545
 11
44.23550966217211
 21
-104.2883929717095
  0
LINE
  5
10F
100
AcDbEntity
  8
handle5
  6
ByLayer
 62
  256
370
   -1
100
AcDbLine
 10
36.55967645973438
 20
-98.45212513097368
 11
38.92985891032273
 21
-98.25918170721394
  0
LINE
  5
110
100
AcDbEntity
  8
handle5
  6
ByLayer
 62
  256
370
   -1
100
AcDbLine
 10
35.38829032245743
 20
-95.67737047141753
 11
36.95937777592214
 21
-97.46284506852902
  0
LINE
  5
111
100
AcDbEntity
  8
handle5
  6
ByLayer
 62
  256
370
   -1
100
AcDbLine
 10
38.92183042437753
 20
-92.6056799805437
 11
40.10301744885944
 21
-89.68218504566693
  0
LINE
  5
112
100
AcDbEntity
  8
handle5
  6
ByLayer
 62
  256
370
   -1
100
AcDbLine
 10
37.35075272744373
 20
-90.82021660551339
 11
38.92183042437753
 21
-92.6056799805437
  0
LINE
  5
113
100
AcDbEntity
  8
handle5
  6
ByLayer
 62
  256
370
   -1
100
AcDbLine
 10
36.97332581438106
 20
-94.59164836986628
 11
49.72203634627967
 21
-93.56858148656187
  0
LINE
  5
114
100
AcDbEntity
  8
handle5
  6
ByLayer
 62
  256
370
   -1
100
AcDbLine
 10
47.7951116727635
 20
-92.79004125570367
 11
46.54762061688248
 21
-92.89159319981189
  0
LINE
  5
115
100
AcDbEntity
  8
handle5
  6
ByLayer
 62
  256
370
   -1
100
AcDbLine
 10
45.72080495745578
 20
-91.95195388716155
 11
46.54762061688248
 21
-92.89159319981189
  0
LINE
  5
116
100
AcDbEntity
  8
handle5
  6
ByLayer
 62
  256
370
   -1
100
AcDbLine
 10
45.72080495745578
 20
-91.95195388716155
 11
37.72939655991515
 21
-92.72033675776407
  0
LINE
  5
117
100
AcDbEntity
  8
handle5
  6
ByLayer
 62
  256
370
   -1
100
AcDbLine
 10
36.97332581438106
 20
-94.59164836986628
 11
37.72939655991515
 21
-92.72033675776407
  0
LINE
  5
118
100
AcDbEntity
  8
handle5
  6
ByLayer
 62
  256
370
   -1
100
AcDbLine
 10
45.72080495745578
 20
-91.95195388716155
 11
44.91166794874274
 21
-93.95460706364003
  0
LINE
  5
119
100
AcDbEntity
  8
handle5
  6
ByLayer
 62
  256
370
   -1
100
AcDbLine
 10
44.91166794874274
 20
-93.95460706364003
 11
46.53035941298329
 21
-95.79418082837611
  0
LINE
  5
11A
100
AcDbEntity
  8
handle5
  6
ByLayer
 62
  256
370
   -1
100
AcDbLine
 10
49.30376068249731
 20
-94.54458592615862
 11
46.95808579832342
 21
-94.73553736621676
  0
LINE
  5
11B
100
AcDbEntity
  8
handle5
  6
ByLayer
 62
  256
370
   -1
100
AcDbLine
 10
46.95808579832342
 20
-94.73553736621676
 11
44.27376978253849
 21
-101.3793491530908
  0
LINE
  5
11C
100
AcDbEntity
  8
handle5
  6
ByLayer
 62
  256
370
   -1
100
AcDbLine
 10
46.64419645340811
 20
-101.1863838757457
 11
44.27376978253849
 21
-101.3793491530908
  0
LINE
  5
11D
100
AcDbEntity
  8
handle5
  6
ByLayer
 62
  256
370
   -1
100
AcDbLine
 10
36.97332581438106
 20
-94.59164836986628
 11
38.59201380636326
 21
-96.43121938352573
  0
LINE
  5
11E
100
AcDbEntity
  8
handle5
  6
ByLayer
 62
  256
370
   -1
100
AcDbLine
 10
38.93048901018769
 20
-98.25946675672304
 11
39.70525512272834
 21
-96.34188320832578
  0
LINE
  5
11F
100
AcDbEntity
  8
handle5
  6
ByLayer
 62
  256
370
   -1
100
AcDbLine
 10
38.59201380636326
 20
-96.43121938352573
 11
46.53036025585939
 21
-95.79417874221696
  0
LINE
  5
120
100
AcDbEntity
  8
handle5
  6
ByLayer
 62
  256
370
   -1
100
AcDbLine
 10
45.06088184623339
 20
-102.2472620514297
 11
39.70525512272834
 21
-96.34188320832578
  0
LINE
  5
121
100
AcDbEntity
  8
handle5
  6
ByLayer
 62
  256
370
   -1
100
AcDbLine
 10
44.23598183654368
 20
-104.288929416651
 11
45.06088184623339
 21
-102.2472620514297
  0
LINE
  5
122
100
AcDbEntity
  8
handle5
  6
ByLayer
 62
  256
370
   -1
100
AcDbLine
 10
26.54248833491268
 20
-84.20329030108661
 11
17.17719808596646
 21
-107.382835994499
  0
LINE
  5
123
100
AcDbEntity
  8
handle5
  6
ByLayer
 62
  256
370
   -1
100
AcDbLine
 10
44.64586790663727
 20
-106.1323435448051
 11
42.27544039289167
 21
-106.3253109083093
  0
LINE
  5
124
100
AcDbEntity
  8
handle5
  6
ByLayer
 62
  256
370
   -1
100
AcDbLine
 10
32.29068050260215
 20
-106.1814216801634
 11
45.03939140911231
 21
-105.158353869677
  0
LINE
  5
125
100
AcDbEntity
  8
handle5
  6
ByLayer
 62
  256
370
   -1
100
AcDbLine
 10
41.96155114162919
 20
-112.7761571860428
 11
39.59112447075957
 21
-112.9691224633878
  0
LINE
  5
126
100
AcDbEntity
  8
handle5
  6
ByLayer
 62
  256
370
   -1
100
AcDbLine
 10
26.14896604992545
 20
-85.17727696287358
 11
27.72004684450583
 21
-86.96274401616239
  0
LINE
  5
127
100
AcDbEntity
  8
handle5
  6
ByLayer
 62
  256
370
   -1
100
AcDbLine
 10
18.78200322391514
 20
-103.4108657687721
 11
20.35308532963622
 21
-105.1963295769245
  0
LINE
  5
128
100
AcDbEntity
  8
handle5
  6
ByLayer
 62
  256
370
   -1
100
AcDbLine
 10
40.47062966212675
 20
-83.09837050753009
 11
27.72508354855076
 21
-84.13593042493034
  0
LINE
  5
129
100
AcDbEntity
  8
handle5
  6
ByLayer
 62
  256
370
   -1
100
AcDbLine
 10
37.30081164396599
 20
-85.26985463147872
 11
35.72989415598644
 21
-83.48457866967095
  0
LINE
  5
12A
100
AcDbEntity
  8
handle5
  6
ByLayer
 62
  256
370
   -1
100
AcDbLine
 10
40.07095565762503
 20
-84.08760632975765
 11
37.70051296015358
 21
-84.28057456903417
  0
LINE
  5
12B
100
AcDbEntity
  8
handle5
  6
ByLayer
 62
  256
370
   -1
100
AcDbLine
 10
37.70051296015358
 20
-84.28057456903417
 11
36.16150769592374
 21
-88.08968692928732
  0
LINE
  5
12C
100
AcDbEntity
  8
handle5
  6
ByLayer
 62
  256
370
   -1
100
AcDbLine
 10
47.497554907497
 20
-65.70639113694091
 11
38.13226465855072
 21
-88.88593683035327
  0
LINE
  5
12D
100
AcDbEntity
  8
handle5
  6
ByLayer
 62
  256
370
   -1
100
AcDbLine
 10
39.66296560860908
 20
-79.42340948104885
 11
42.38315827193261
 21
-72.69080125873694
  0
LINE
  5
12E
100
AcDbEntity
  8
handle5
  6
ByLayer
 62
  256
370
   -1
100
AcDbLine
 10
42.03339766461109
 20
-79.23044422239815
 11
39.66296560860908
 21
-79.42340948104885
  0
LINE
  5
12F
100
AcDbEntity
  8
handle5
  6
ByLayer
 62
  256
370
   -1
100
AcDbLine
 10
39.68500285505549
 20
-82.20554086154374
 11
31.22513364669159
 21
-72.61351699078949
  0
LINE
  5
130
100
AcDbEntity
  8
handle5
  6
ByLayer
 62
  256
370
   -1
100
AcDbLine
 10
32.40772876667679
 20
-72.54615734642874
 11
33.97887824093205
 21
-74.33169933453775
  0
LINE
  5
131
100
AcDbEntity
  8
handle5
  6
ByLayer
 62
  256
370
   -1
100
AcDbLine
 10
41.98345695574491
 20
-73.6800813211816
 11
33.97887824093205
 21
-74.33169933453775
  0
LINE
  5
132
100
AcDbEntity
  8
handle5
  6
ByLayer
 62
  256
370
   -1
100
AcDbLine
 10
35.22636967142463
 20
-74.23014646324776
 11
40.4410739752013
 21
-80.33422832225978
  0
LINE
  5
133
100
AcDbEntity
  8
handle5
  6
ByLayer
 62
  256
370
   -1
100
AcDbLine
 10
39.68500285505549
 20
-82.20554086154374
 11
40.4410739752013
 21
-80.33422832225978
  0
LINE
  5
134
100
AcDbEntity
  8
handle5
  6
ByLayer
 62
  256
370
   -1
100
AcDbLine
 10
35.22636967142463
 20
-74.23014646324776
 11
34.41723181983544
 21
-76.23280172588528
  0
LINE
  5
135
100
AcDbEntity
  8
handle5
  6
ByLayer
 62
  256
370
   -1
100
AcDbLine
 10
37.30081164396599
 20
-85.26985463147872
 11
30.54372435964571
 21
-85.81991977354488
  0
LINE
  5
136
100
AcDbEntity
  8
handle5
  6
ByLayer
 62
  256
370
   -1
100
AcDbLine
 10
27.72508354855076
 20
-84.13593042493034
 11
28.4694137038152
 21
-84.98183081290341
  0
LINE
  5
137
100
AcDbEntity
  8
handle5
  6
ByLayer
 62
  256
370
   -1
100
AcDbLine
 10
34.41723181983544
 20
-76.23280172588528
 11
31.97496539633291
 21
-76.4316150952065
  0
LINE
  5
138
100
AcDbEntity
  8
handle5
  6
ByLayer
 62
  256
370
   -1
100
AcDbLine
 10
30.8480198455401
 20
-73.60615323999224
 11
32.40269168802032
 21
-75.37297186484255
  0
LINE
  5
139
100
AcDbEntity
  8
handle5
  6
ByLayer
 62
  256
370
   -1
100
AcDbLine
 10
32.40269168802032
 20
-75.37297186484255
 11
29.71837557858239
 21
-82.01678388351212
  0
LINE
  5
13A
100
AcDbEntity
  8
handle5
  6
ByLayer
 62
  256
370
   -1
100
AcDbLine
 10
39.68500285505549
 20
-82.20554086154374
 11
37.24274060387128
 21
-82.40435591661725
  0
LINE
  5
13B
100
AcDbEntity
  8
handle5
  6
ByLayer
 62
  256
370
   -1
100
AcDbLine
 10
35.72924289056547
 20
-83.48434600593504
 11
36.50400937771777
 21
-81.56676153035602
  0
LINE
  5
13C
100
AcDbEntity
  8
handle5
  6
ByLayer
 62
  256
370
   -1
100
AcDbLine
 10
37.24274060387128
 20
-82.40435591661725
 11
31.97496623920906
 21
-76.43161300904745
  0
LINE
  5
13D
100
AcDbEntity
  8
handle5
  6
ByLayer
 62
  256
370
   -1
100
AcDbLine
 10
28.5492672236514
 20
-82.09431957801513
 11
36.50400937771777
 21
-81.56676153035602
  0
LINE
  5
13E
100
AcDbEntity
  8
handle5
  6
ByLayer
 62
  256
370
   -1
100
AcDbLine
 10
27.72436730761457
 20
-84.13598671144103
 11
28.5492672236514
 21
-82.09431957801513
  0
LINE
  5
13F
100
AcDbEntity
  8
handle5
  6
ByLayer
 62
  256
370
   -1
100
AcDbLine
 10
40.47062966212675
 20
-83.09837050753009
 11
48.91815469299248
 21
-92.6986203567987
  0
LINE
  5
140
100
AcDbEntity
  8
handle5
  6
ByLayer
 62
  256
370
   -1
100
AcDbLine
 10
41.24232139690164
 20
-86.86235274785844
 11
43.61250384749004
 21
-86.66940932409869
  0
LINE
  5
141
100
AcDbEntity
  8
handle5
  6
ByLayer
 62
  256
370
   -1
100
AcDbLine
 10
40.0709352596248
 20
-84.08759808830229
 11
41.64202271308934
 21
-85.87307268541377
  0
LINE
  5
142
100
AcDbEntity
  8
handle5
  6
ByLayer
 62
  256
370
   -1
100
AcDbLine
 10
41.64202271308934
 20
-85.87307268541377
 11
40.10301744885944
 21
-89.68218504566693
  0
LINE
  5
143
100
AcDbEntity
  8
handle5
  6
ByLayer
 62
  256
370
   -1
100
AcDbLine
 10
43.60447536154484
 20
-81.01590759742845
 11
46.32466802486837
 21
-74.28329937511666
  0
LINE
  5
144
100
AcDbEntity
  8
handle5
  6
ByLayer
 62
  256
370
   -1
100
AcDbLine
 10
42.03339766461109
 20
-79.23044422239815
 11
43.60447536154484
 21
-81.01590759742845
  0
LINE
  5
145
100
AcDbEntity
  8
handle5
  6
ByLayer
 62
  256
370
   -1
100
AcDbLine
 10
45.92496670868055
 20
-75.27257943756121
 11
51.23026555404973
 21
-81.30182081669665
  0
LINE
  5
146
100
AcDbEntity
  8
handle5
  6
ByLayer
 62
  256
370
   -1
100
AcDbLine
 10
50.40345026923463
 20
-80.36218057686443
 11
42.41204187169406
 21
-81.13056344746695
  0
LINE
  5
147
100
AcDbEntity
  8
handle5
  6
ByLayer
 62
  256
370
   -1
100
AcDbLine
 10
41.65597075154843
 20
-83.00187598675092
 11
42.41204187169406
 21
-81.13056344746695
  0
LINE
  5
148
100
AcDbEntity
  8
handle5
  6
ByLayer
 62
  256
370
   -1
100
AcDbLine
 10
50.40345026923463
 20
-80.36218057686443
 11
49.5943124176455
 21
-82.36483583950195
  0
LINE
  5
149
100
AcDbEntity
  8
handle5
  6
ByLayer
 62
  256
370
   -1
100
AcDbLine
 10
41.24232139690164
 20
-86.86235274785844
 11
45.72080495745578
 21
-91.95195388716155
  0
LINE
  5
14A
100
AcDbEntity
  8
handle5
  6
ByLayer
 62
  256
370
   -1
100
AcDbLine
 10
48.91815469299248
 20
-92.6986203567987
 11
47.7951116727635
 21
-92.79004125570367
  0
LINE
  5
14B
100
AcDbEntity
  8
handle5
  6
ByLayer
 62
  256
370
   -1
100
AcDbLine
 10
49.5943124176455
 20
-82.36483583950195
 11
51.21300435015049
 21
-84.20440844526087
  0
LINE
  5
14C
100
AcDbEntity
  8
handle5
  6
ByLayer
 62
  256
370
   -1
100
AcDbLine
 10
51.6407306418379
 20
-83.14576521489693
 11
48.95641471970585
 21
-89.78957676997555
  0
LINE
  5
14D
100
AcDbEntity
  8
handle5
  6
ByLayer
 62
  256
370
   -1
100
AcDbLine
 10
41.65597075154843
 20
-83.00187598675092
 11
43.27465874353057
 21
-84.84144700041048
  0
LINE
  5
14E
100
AcDbEntity
  8
handle5
  6
ByLayer
 62
  256
370
   -1
100
AcDbLine
 10
43.613133947355
 20
-86.66969437360768
 11
44.38790043450725
 21
-84.75210989802866
  0
LINE
  5
14F
100
AcDbEntity
  8
handle5
  6
ByLayer
 62
  256
370
   -1
100
AcDbLine
 10
43.27465874353057
 20
-84.84144700041048
 11
51.21300519302664
 21
-84.20440635910171
  0
LINE
  5
150
100
AcDbEntity
  8
handle5
  6
ByLayer
 62
  256
370
   -1
100
AcDbLine
 10
49.74352678340076
 20
-90.65748966831444
 11
44.38790043450725
 21
-84.75210989802866
  0
LINE
  5
151
100
AcDbEntity
  8
handle5
  6
ByLayer
 62
  256
370
   -1
100
AcDbLine
 10
48.91862686736388
 20
-92.69915680174034
 11
49.74352678340076
 21
-90.65748966831444
  0
LINE
  5
152
100
AcDbEntity
  8
handle5
  6
ByLayer
 62
  256
370
   -1
100
AcDbLine
 10
45.15327497390566
 20
-71.50859719723297
 11
32.40772876667679
 21
-72.54615734642874
  0
LINE
  5
153
100
AcDbEntity
  8
handle5
  6
ByLayer
 62
  256
370
   -1
100
AcDbLine
 10
41.98345695574491
 20
-73.6800813211816
 11
40.41253946776535
 21
-71.89480535937383
  0
LINE
  5
154
100
AcDbEntity
  8
handle5
  6
ByLayer
 62
  256
370
   -1
100
AcDbLine
 10
44.75360096940394
 20
-72.49783301946053
 11
42.38315827193261
 21
-72.69080125873694
  0
LINE
  5
155
100
AcDbEntity
  8
handle5
  6
ByLayer
 62
  256
370
   -1
100
AcDbLine
 10
44.34561092038799
 20
-67.83363617075173
 11
45.52679794487002
 21
-64.91014123587485
  0
LINE
  5
156
100
AcDbEntity
  8
handle5
  6
ByLayer
 62
  256
370
   -1
100
AcDbLine
 10
46.71604297639001
 20
-67.64067091210103
 11
44.34561092038799
 21
-67.83363617075173
  0
LINE
  5
157
100
AcDbEntity
  8
handle5
  6
ByLayer
 62
  256
370
   -1
100
AcDbLine
 10
44.36764816683441
 20
-70.61576755124673
 11
35.90777858385896
 21
-61.02374460767425
  0
LINE
  5
158
100
AcDbEntity
  8
handle5
  6
ByLayer
 62
  256
370
   -1
100
AcDbLine
 10
37.83470395276148
 20
-61.80228511949105
 11
38.66152355271097
 21
-62.74192602424063
  0
LINE
  5
159
100
AcDbEntity
  8
handle5
  6
ByLayer
 62
  256
370
   -1
100
AcDbLine
 10
39.90901460859194
 20
-62.64037408013252
 11
38.66152355271097
 21
-62.74192602424063
  0
LINE
  5
15A
100
AcDbEntity
  8
handle5
  6
ByLayer
 62
  256
370
   -1
100
AcDbLine
 10
39.90901460859194
 20
-62.64037408013252
 11
45.1237189123685
 21
-68.74445593914453
  0
LINE
  5
15B
100
AcDbEntity
  8
handle5
  6
ByLayer
 62
  256
370
   -1
100
AcDbLine
 10
44.36764816683441
 20
-70.61576755124673
 11
45.1237189123685
 21
-68.74445593914453
  0
LINE
  5
15C
100
AcDbEntity
  8
handle5
  6
ByLayer
 62
  256
370
   -1
100
AcDbLine
 10
39.90901460859194
 20
-62.64037408013252
 11
39.0998775998789
 21
-64.64302725661088
  0
LINE
  5
15D
100
AcDbEntity
  8
handle5
  6
ByLayer
 62
  256
370
   -1
100
AcDbLine
 10
39.0998775998789
 20
-64.64302725661088
 11
36.65761070811183
 21
-64.84184178490949
  0
LINE
  5
15E
100
AcDbEntity
  8
handle5
  6
ByLayer
 62
  256
370
   -1
100
AcDbLine
 10
37.08533709345212
 20
-63.78319832275002
 11
34.40102107766719
 21
-70.42701010962406
  0
LINE
  5
15F
100
AcDbEntity
  8
handle5
  6
ByLayer
 62
  256
370
   -1
100
AcDbLine
 10
32.8299386909874
 20
-68.64154699685804
 11
34.40102107766719
 21
-70.42701010962406
  0
LINE
  5
160
100
AcDbEntity
  8
handle5
  6
ByLayer
 62
  256
370
   -1
100
AcDbLine
 10
44.36764816683441
 20
-70.61576755124673
 11
41.92538591565019
 21
-70.81458260632013
  0
LINE
  5
161
100
AcDbEntity
  8
handle5
  6
ByLayer
 62
  256
370
   -1
100
AcDbLine
 10
40.41188820234438
 20
-71.89457269563792
 11
41.18665431488503
 21
-69.97698914724077
  0
LINE
  5
162
100
AcDbEntity
  8
handle5
  6
ByLayer
 62
  256
370
   -1
100
AcDbLine
 10
41.92538591565019
 20
-70.81458260632013
 11
36.65761155098797
 21
-64.84183969875033
  0
LINE
  5
163
100
AcDbEntity
  8
handle5
  6
ByLayer
 62
  256
370
   -1
100
AcDbLine
 10
33.23191253543032
 20
-70.50454626771801
 11
41.18665431488503
 21
-69.97698914724077
  0
LINE
  5
164
100
AcDbEntity
  8
handle5
  6
ByLayer
 62
  256
370
   -1
100
AcDbLine
 10
32.4070125257406
 20
-72.54621363293933
 11
33.23191253543032
 21
-70.50454626771801
  0
LINE
  5
165
100
AcDbEntity
  8
handle5
  6
ByLayer
 62
  256
370
   -1
100
AcDbLine
 10
45.92496670868055
 20
-75.27257943756121
 11
48.29514915926895
 21
-75.07963601380146
  0
LINE
  5
166
100
AcDbEntity
  8
handle5
  6
ByLayer
 62
  256
370
   -1
100
AcDbLine
 10
44.75358057140365
 20
-72.49782477800517
 11
46.32466802486837
 21
-74.28329937511666
  0
LINE
  5
167
100
AcDbEntity
  8
handle5
  6
ByLayer
 62
  256
370
   -1
100
AcDbLine
 10
48.28712067332375
 20
-69.42613428713133
 11
49.46830769780566
 21
-66.50263935225456
  0
LINE
  5
168
100
AcDbEntity
  8
handle5
  6
ByLayer
 62
  256
370
   -1
100
AcDbLine
 10
46.71604297639001
 20
-67.64067091210103
 11
48.28712067332375
 21
-69.42613428713133
  0
LINE
  5
169
100
AcDbEntity
  8
handle5
  6
ByLayer
 62
  256
370
   -1
100
AcDbLine
 10
46.33861606332734
 20
-71.41210267645391
 11
47.09468680886143
 21
-69.54079106435171
  0
LINE
  5
16A
100
AcDbEntity
  8
handle5
  6
ByLayer
 62
  256
370
   -1
100
AcDbLine
 10
46.33861606332734
 20
-71.41210267645391
 11
47.95730405530949
 21
-73.25167369011336
  0
LINE
  5
16B
100
AcDbEntity
  8
handle5
  6
ByLayer
 62
  256
370
   -1
100
AcDbLine
 10
48.29577925913392
 20
-75.07992106331068
 11
49.07054537167451
 21
-73.16233751491342
  0
LINE
  5
16C
100
AcDbEntity
  8
handle5
  6
ByLayer
 62
  256
370
   -1
100
AcDbLine
 10
35.90777858385896
 20
-61.02374460767425
 11
26.54248833491268
 21
-84.20329030108661
  0
LINE
  5
16D
100
AcDbEntity
  8
handle5
  6
ByLayer
 62
  256
370
   -1
100
AcDbLine
 10
51.32684139057547
 20
-89.59661149263042
 11
48.95641471970585
 21
-89.78957676997555
  0
LINE
  5
16E
100
AcDbEntity
  8
handle5
  6
ByLayer
 62
  256
370
   -1
100
AcDbLine
 10
35.51425629887174
 20
-61.99773126946121
 11
37.08533709345212
 21
-63.78319832275002
  0
LINE
  5
16F
100
AcDbEntity
  8
handle5
  6
ByLayer
 62
  256
370
   -1
100
AcDbLine
 10
28.14729347286137
 20
-80.23132007535975
 11
29.71837557858239
 21
-82.01678388351212
  0
LINE
  5
170
100
AcDbEntity
  8
handle5
  6
ByLayer
 62
  256
370
   -1
100
AcDbLine
 10
49.83591991107291
 20
-59.91882481411773
 11
37.09037379749704
 21
-60.95638473151797
  0
LINE
  5
171
100
AcDbEntity
  8
handle5
  6
ByLayer
 62
  256
370
   -1
100
AcDbLine
 10
46.66610189291222
 20
-62.09030893806636
 11
45.09518440493266
 21
-60.30503297625859
  0
LINE
  5
172
100
AcDbEntity
  8
handle5
  6
ByLayer
 62
  256
370
   -1
100
AcDbLine
 10
49.43624590657119
 20
-60.90806063634528
 11
47.06580320909986
 21
-61.10102887562169
  0
LINE
  5
173
100
AcDbEntity
  8
handle5
  6
ByLayer
 62
  256
370
   -1
100
AcDbLine
 10
47.06580320909986
 20
-61.10102887562169
 11
45.52679794487002
 21
-64.91014123587485
  0
LINE
  5
174
100
AcDbEntity
  8
handle5
  6
ByLayer
 62
  256
370
   -1
100
AcDbLine
 10
49.02825585755524
 20
-56.24386378763649
 11
51.74844852087872
 21
-49.51125556532469
  0
LINE
  5
175
100
AcDbEntity
  8
handle5
  6
ByLayer
 62
  256
370
   -1
100
AcDbLine
 10
51.39868791355732
 20
-56.05089852898567
 11
49.02825585755524
 21
-56.24386378763649
  0
LINE
  5
176
100
AcDbEntity
  8
handle5
  6
ByLayer
 62
  256
370
   -1
100
AcDbLine
 10
49.05029310400177
 20
-59.02599516813137
 11
40.59042389563788
 21
-49.43397129737713
  0
LINE
  5
177
100
AcDbEntity
  8
handle5
  6
ByLayer
 62
  256
370
   -1
100
AcDbLine
 10
41.77301901562307
 20
-49.36661165301638
 11
43.34416848987828
 21
-51.15215364112538
  0
LINE
  5
178
100
AcDbEntity
  8
handle5
  6
ByLayer
 62
  256
370
   -1
100
AcDbLine
 10
51.34874720469113
 20
-50.50053562776924
 11
43.34416848987828
 21
-51.15215364112538
  0
LINE
  5
179
100
AcDbEntity
  8
handle5
  6
ByLayer
 62
  256
370
   -1
100
AcDbLine
 10
44.59165992037085
 20
-51.0506007698354
 11
49.80636422414752
 21
-57.15468262884741
  0
LINE
  5
17A
100
AcDbEntity
  8
handle5
  6
ByLayer
 62
  256
370
   -1
100
AcDbLine
 10
49.05029310400177
 20
-59.02599516813137
 11
49.80636422414752
 21
-57.15468262884741
  0
LINE
  5
17B
100
AcDbEntity
  8
handle5
  6
ByLayer
 62
  256
370
   -1
100
AcDbLine
 10
44.59165992037085
 20
-51.0506007698354
 11
43.78252206878172
 21
-53.05325603247292
  0
LINE
  5
17C
100
AcDbEntity
  8
handle5
  6
ByLayer
 62
  256
370
   -1
100
AcDbLine
 10
46.66610189291222
 20
-62.09030893806636
 11
39.90901460859194
 21
-62.64037408013252
  0
LINE
  5
17D
100
AcDbEntity
  8
handle5
  6
ByLayer
 62
  256
370
   -1
100
AcDbLine
 10
37.09037379749704
 20
-60.95638473151797
 11
37.83470395276148
 21
-61.80228511949105
  0
LINE
  5
17E
100
AcDbEntity
  8
handle5
  6
ByLayer
 62
  256
370
   -1
100
AcDbLine
 10
43.78252206878172
 20
-53.05325603247292
 11
41.34025564527919
 21
-53.25206940179413
  0
LINE
  5
17F
100
AcDbEntity
  8
handle5
  6
ByLayer
 62
  256
370
   -1
100
AcDbLine
 10
40.21331009448632
 20
-50.42660754657976
 11
41.76798193696654
 21
-52.19342617143019
  0
LINE
  5
180
100
AcDbEntity
  8
handle5
  6
ByLayer
 62
  256
370
   -1
100
AcDbLine
 10
41.76798193696654
 20
-52.19342617143019
 11
39.08366582752861
 21
-58.83723819009975
  0
LINE
  5
181
100
AcDbEntity
  8
handle5
  6
ByLayer
 62
  256
370
   -1
100
AcDbLine
 10
49.05029310400177
 20
-59.02599516813137
 11
46.6080308528175
 21
-59.22481022320488
  0
LINE
  5
182
100
AcDbEntity
  8
handle5
  6
ByLayer
 62
  256
370
   -1
100
AcDbLine
 10
45.09453313951175
 20
-60.30480031252267
 11
45.86929962666405
 21
-58.38721583694365
  0
LINE
  5
183
100
AcDbEntity
  8
handle5
  6
ByLayer
 62
  256
370
   -1
100
AcDbLine
 10
46.6080308528175
 20
-59.22481022320488
 11
41.34025648815534
 21
-53.25206731563509
  0
LINE
  5
184
100
AcDbEntity
  8
handle5
  6
ByLayer
 62
  256
370
   -1
100
AcDbLine
 10
37.91455747259757
 20
-58.91477388460277
 11
45.86929962666405
 21
-58.38721583694365
  0
LINE
  5
185
100
AcDbEntity
  8
handle5
  6
ByLayer
 62
  256
370
   -1
100
AcDbLine
 10
37.0896575565608
 20
-60.95644101802867
 11
37.91455747259757
 21
-58.91477388460277
  0
LINE
  5
186
100
AcDbEntity
  8
handle5
  6
ByLayer
 62
  256
370
   -1
100
AcDbLine
 10
50.60761164584786
 20
-63.68280705444596
 11
52.97779409643632
 21
-63.48986363068622
  0
LINE
  5
187
100
AcDbEntity
  8
handle5
  6
ByLayer
 62
  256
370
   -1
100
AcDbLine
 10
49.43622550857102
 20
-60.90805239488981
 11
51.00731296203562
 21
-62.69352699200141
  0
LINE
  5
188
100
AcDbEntity
  8
handle5
  6
ByLayer
 62
  256
370
   -1
100
AcDbLine
 10
51.00731296203562
 20
-62.69352699200141
 11
49.46830769780566
 21
-66.50263935225456
  0
LINE
  5
189
100
AcDbEntity
  8
handle5
  6
ByLayer
 62
  256
370
   -1
100
AcDbLine
 10
51.39868791355732
 20
-56.05089852898567
 11
52.969765610491
 21
-57.83636190401609
  0
LINE
  5
18A
100
AcDbEntity
  8
handle5
  6
ByLayer
 62
  256
370
   -1
100
AcDbLine
 10
51.02126100049454
 20
-59.82233029333867
 11
51.77733212064035
 21
-57.95101775405459
  0
LINE
  5
18B
100
AcDbEntity
  8
handle5
  6
ByLayer
 62
  256
370
   -1
100
AcDbLine
 10
51.02126100049454
 20
-59.82233029333867
 11
52.63994899247685
 21
-61.66190130699812
  0
LINE
  5
18C
100
AcDbEntity
  8
handle5
  6
ByLayer
 62
  256
370
   -1
100
AcDbLine
 10
51.34874720469113
 20
-50.50053562776924
 11
49.77782971671157
 21
-48.71525966596147
  0
LINE
  5
18D
100
AcDbEntity
  8
handle5
  6
ByLayer
 62
  256
370
   -1
100
AcDbLine
 10
42.19522893993368
 20
-45.46200130344567
 11
43.76631132661341
 21
-47.2474644162117
  0
LINE
  5
18E
100
AcDbEntity
  8
handle5
  6
ByLayer
 62
  256
370
   -1
100
AcDbLine
 10
49.77717845129066
 20
-48.71502700222555
 11
50.55194456383131
 21
-46.79744345382841
  0
LINE
  5
18F
100
AcDbEntity
  8
handle5
  6
ByLayer
 62
  256
370
   -1
100
AcDbLine
 10
42.5972027843766
 20
-47.32500057430565
 11
50.55194456383131
 21
-46.79744345382841
  0
LINE
  5
190
100
AcDbEntity
  8
handle5
  6
ByLayer
 62
  256
370
   -1
100
AcDbLine
 10
41.77230277468683
 20
-49.36666793952696
 11
42.5972027843766
 21
-47.32500057430565
  0
LINE
  5
191
100
AcDbEntity
  8
handle5
  6
ByLayer
 62
  256
370
   -1
100
AcDbLine
 10
37.51258372180765
 20
-57.05177438194727
 11
39.08366582752861
 21
-58.83723819009975
  0
LINE
  5
192
100
AcDbEntity
  8
handle5
  6
ByLayer
 62
  256
370
   -1
100
AcDbLine
 10
42.28367146623591
 20
-117.526667691791
 11
43.1104910661854
 21
-118.4663085965407
  0
LINE
  5
193
100
AcDbEntity
  8
handle5
  6
ByLayer
 62
  256
370
   -1
100
AcDbLine
 10
44.35798212206642
 20
-118.3647566524325
 11
43.1104910661854
 21
-118.4663085965407
  0
LINE
  5
194
100
AcDbEntity
  8
handle5
  6
ByLayer
 62
  256
370
   -1
100
AcDbLine
 10
54.28488742454734
 20
-115.6432073864177
 11
41.53934131097153
 21
-116.6807673038181
  0
LINE
  5
195
100
AcDbEntity
  8
handle5
  6
ByLayer
 62
  256
370
   -1
100
AcDbLine
 10
51.1150694063867
 20
-117.8146915103663
 11
49.54415191840715
 21
-116.0294155485586
  0
LINE
  5
196
100
AcDbEntity
  8
handle5
  6
ByLayer
 62
  256
370
   -1
100
AcDbLine
 10
53.88521342004574
 20
-116.6324432086453
 11
51.51477072257429
 21
-116.8254114479218
  0
LINE
  5
197
100
AcDbEntity
  8
handle5
  6
ByLayer
 62
  256
370
   -1
100
AcDbLine
 10
55.8476554270318
 20
-111.7752811012858
 11
53.47722337102979
 21
-111.9682463599365
  0
LINE
  5
198
100
AcDbEntity
  8
handle5
  6
ByLayer
 62
  256
370
   -1
100
AcDbLine
 10
53.4992606174762
 20
-114.7503777404315
 11
45.03939140911231
 21
-105.158353869677
  0
LINE
  5
199
100
AcDbEntity
  8
handle5
  6
ByLayer
 62
  256
370
   -1
100
AcDbLine
 10
46.2219865290975
 20
-105.0909942253164
 11
47.79313600335276
 21
-106.8765362134254
  0
LINE
  5
19A
100
AcDbEntity
  8
handle5
  6
ByLayer
 62
  256
370
   -1
100
AcDbLine
 10
49.04062743384534
 20
-106.7749833421354
 11
54.25533173762201
 21
-112.8790652011474
  0
LINE
  5
19B
100
AcDbEntity
  8
handle5
  6
ByLayer
 62
  256
370
   -1
100
AcDbLine
 10
53.4992606174762
 20
-114.7503777404315
 11
54.25533173762201
 21
-112.8790652011474
  0
LINE
  5
19C
100
AcDbEntity
  8
handle5
  6
ByLayer
 62
  256
370
   -1
100
AcDbLine
 10
49.04062743384534
 20
-106.7749833421354
 11
48.23148958225615
 21
-108.7776386047729
  0
LINE
  5
19D
100
AcDbEntity
  8
handle5
  6
ByLayer
 62
  256
370
   -1
100
AcDbLine
 10
51.1150694063867
 20
-117.8146915103663
 11
44.35798212206642
 21
-118.3647566524325
  0
LINE
  5
19E
100
AcDbEntity
  8
handle5
  6
ByLayer
 62
  256
370
   -1
100
AcDbLine
 10
41.53934131097153
 20
-116.6807673038181
 11
42.28367146623591
 21
-117.526667691791
  0
LINE
  5
19F
100
AcDbEntity
  8
handle5
  6
ByLayer
 62
  256
370
   -1
100
AcDbLine
 10
48.23148958225615
 20
-108.7776386047729
 11
45.78922315875362
 21
-108.9764519740941
  0
LINE
  5
1A0
100
AcDbEntity
  8
handle5
  6
ByLayer
 62
  256
370
   -1
100
AcDbLine
 10
44.66227760796081
 20
-106.1509901188797
 11
46.21694945044103
 21
-107.9178087437303
  0
LINE
  5
1A1
100
AcDbEntity
  8
handle5
  6
ByLayer
 62
  256
370
   -1
100
AcDbLine
 10
46.21694945044103
 20
-107.9178087437303
 11
43.53263334100304
 21
-114.5616207623997
  0
LINE
  5
1A2
100
AcDbEntity
  8
handle5
  6
ByLayer
 62
  256
370
   -1
100
AcDbLine
 10
53.4992606174762
 20
-114.7503777404315
 11
51.05699836629199
 21
-114.949192795505
  0
LINE
  5
1A3
100
AcDbEntity
  8
handle5
  6
ByLayer
 62
  256
370
   -1
100
AcDbLine
 10
49.54350065298618
 20
-116.0291828848228
 11
50.31826714013837
 21
-114.1115984092436
  0
LINE
  5
1A4
100
AcDbEntity
  8
handle5
  6
ByLayer
 62
  256
370
   -1
100
AcDbLine
 10
51.05699836629199
 20
-114.949192795505
 11
45.78922400162977
 21
-108.9764498879351
  0
LINE
  5
1A5
100
AcDbEntity
  8
handle5
  6
ByLayer
 62
  256
370
   -1
100
AcDbLine
 10
42.363524986072
 20
-114.6391564569028
 11
50.31826714013837
 21
-114.1115984092436
  0
LINE
  5
1A6
100
AcDbEntity
  8
handle5
  6
ByLayer
 62
  256
370
   -1
100
AcDbLine
 10
41.53862507003529
 20
-116.6808235903285
 11
42.363524986072
 21
-114.6391564569028
  0
LINE
  5
1A7
100
AcDbEntity
  8
handle5
  6
ByLayer
 62
  256
370
   -1
100
AcDbLine
 10
55.8476554270318
 20
-111.7752811012858
 11
57.4187331239656
 21
-113.5607444763162
  0
LINE
  5
1A8
100
AcDbEntity
  8
handle5
  6
ByLayer
 62
  256
370
   -1
100
AcDbLine
 10
55.47022851396903
 20
-115.5467128656387
 11
56.22629963411477
 21
-113.6754003263546
  0
LINE
  5
1A9
100
AcDbEntity
  8
handle5
  6
ByLayer
 62
  256
370
   -1
100
AcDbLine
 10
51.64896171518219
 20
-94.34712199837867
 11
52.47578131513168
 21
-95.28676290312836
  0
LINE
  5
1AA
100
AcDbEntity
  8
handle5
  6
ByLayer
 62
  256
370
   -1
100
AcDbLine
 10
52.91413536229961
 20
-97.18786413549861
 11
50.47186847053253
 21
-97.386678663797
  0
LINE
  5
1AB
100
AcDbEntity
  8
handle5
  6
ByLayer
 62
  256
370
   -1
100
AcDbLine
 10
50.89959485587271
 20
-96.32803520163765
 11
48.21527884008778
 21
-102.9718469885117
  0
LINE
  5
1AC
100
AcDbEntity
  8
handle5
  6
ByLayer
 62
  256
370
   -1
100
AcDbLine
 10
46.64419645340811
 20
-101.1863838757457
 11
48.21527884008778
 21
-102.9718469885117
  0
LINE
  5
1AD
100
AcDbEntity
  8
handle5
  6
ByLayer
 62
  256
370
   -1
100
AcDbLine
 10
46.22127028816131
 20
-105.0910505118271
 11
47.04617029785091
 21
-103.0493831466056
  0
LINE
  5
1AE
100
AcDbEntity
  8
handle5
  6
ByLayer
 62
  256
370
   -1
100
AcDbLine
 10
49.72203634627967
 20
-93.56858148656187
 11
40.35674609733339
 21
-116.7481271799741
  0
LINE
  5
1AF
100
AcDbEntity
  8
handle5
  6
ByLayer
 62
  256
370
   -1
100
AcDbLine
 10
49.32851406129233
 20
-94.54256814834883
 11
50.89959485587271
 21
-96.32803520163765
  0
LINE
  5
1B0
100
AcDbEntity
  8
handle5
  6
ByLayer
 62
  256
370
   -1
100
AcDbLine
 10
41.96155123528208
 20
-112.7761569542473
 11
43.53263334100304
 21
-114.5616207623997
  0
LINE
  5
1B1
100
AcDbEntity
  8
handle5
  6
ByLayer
 62
  256
370
   -1
100
AcDbLine
 10
50.90463155991775
 20
-93.50122161040571
 11
51.64896171518219
 21
-94.34712199837867
  0
LINE
  5
1B2
100
AcDbEntity
  8
handle5
  6
ByLayer
 62
  256
370
   -1
100
AcDbLine
 10
50.90391531898151
 20
-93.50127789691629
 11
51.72881523501828
 21
-91.45961076349039
  0
LINE
  5
1B3
100
AcDbEntity
  8
handle5
  6
ByLayer
 62
  256
370
   -1
100
AcDbLine
 10
51.32684148422825
 20
-89.596611260835
 11
52.89792358994932
 21
-91.38207506898738
  0
LINE
  5
1B4
100
AcDbEntity
  8
handle5
  6
ByLayer
 62
  256
370
   -1
100
AcDbLine
 10
17.66228404671314
 20
-45.12040066763126
 11
17.0622889693258
 21
-46.60541746288612
  0
LINE
  5
1B5
100
AcDbEntity
  8
handle5
  6
ByLayer
 62
  256
370
   -1
100
AcDbLine
 10
23.42848284145056
 20
-49.85951903772963
 11
18.9306352419177
 21
-44.75973960722575
  0
LINE
  5
1B6
100
AcDbEntity
  8
handle5
  6
ByLayer
 62
  256
370
   -1
100
AcDbLine
 10
25.87074509263478
 20
-49.66070398265623
 11
21.05790209725355
 21
-44.20377506793392
  0
LINE
  5
1B7
100
AcDbEntity
  8
handle5
  6
ByLayer
 62
  256
370
   -1
100
AcDbLine
 10
17.03939486193368
 20
-49.39665599029098
 11
22.68975161529712
 21
-49.0219246514684
  0
LINE
  5
1B8
100
AcDbEntity
  8
handle5
  6
ByLayer
 62
  256
370
   -1
100
AcDbLine
 10
26.65637189970592
 20
-50.55353362864247
 11
17.02347411089382
 21
-51.33770627570067
  0
LINE
  5
1B9
100
AcDbEntity
  8
handle5
  6
ByLayer
 62
  256
370
   -1
100
AcDbLine
 10
23.48655388154528
 20
-52.7250177525911
 11
17.00776931446923
 21
-53.25242747860938
  0
LINE
  5
1BA
100
AcDbEntity
  8
handle5
  6
ByLayer
 62
  256
370
   -1
100
AcDbLine
 10
17.00493867847202
 20
-53.59753725368699
 11
21.94417090100167
 21
-59.37916475366927
  0
LINE
  5
1BB
100
AcDbEntity
  8
handle5
  6
ByLayer
 62
  256
370
   -1
100
AcDbLine
 10
21.18810015546758
 20
-61.25047636577148
 11
16.98129071926322
 21
-56.48068503086569
  0
LINE
  5
1BC
100
AcDbEntity
  8
handle5
  6
ByLayer
 62
  256
370
   -1
100
AcDbLine
 10
18.7458379042832
 20
-61.44929142084487
 11
16.95717178284237
 21
-59.42125412249135
  0
LINE
  5
1BD
100
AcDbEntity
  8
handle5
  6
ByLayer
 62
  256
370
   -1
100
AcDbLine
 10
16.94683085341457
 20
-60.68201524909892
 11
18.0071063035182
 21
-60.61169796176551
  0
LINE
  5
1BE
100
AcDbEntity
  8
handle5
  6
ByLayer
 62
  256
370
   -1
100
AcDbLine
 10
21.97372696253867
 20
-62.14330601175772
 11
16.93147844236355
 21
-62.55377379727389
  0
LINE
  5
1BF
100
AcDbEntity
  8
handle5
  6
ByLayer
 62
  256
370
   -1
100
AcDbLine
 10
18.80390894437791
 20
-64.31479013570635
 11
16.91577364564622
 21
-64.46849503588186
  0
LINE
  5
1C0
100
AcDbEntity
  8
handle5
  6
ByLayer
 62
  256
370
   -1
100
AcDbLine
 10
23.14937947198014
 20
-43.7188713738048
 11
26.6268162127807
 21
-47.78939144337215
  0
LINE
  5
1C1
100
AcDbEntity
  8
handle5
  6
ByLayer
 62
  256
370
   -1
100
AcDbLine
 10
25.84870784618836
 20
-46.87857260216123
 11
27.44618701940421
 21
-42.92473449297967
  0
LINE
  5
1C2
100
AcDbEntity
  8
handle5
  6
ByLayer
 62
  256
370
   -1
100
AcDbLine
 10
29.86838648603841
 20
-42.60364239273775
 11
24.31800689613
 21
-56.34109995146554
  0
LINE
  5
1C3
100
AcDbEntity
  8
handle5
  6
ByLayer
 62
  256
370
   -1
100
AcDbLine
 10
29.79021759912418
 20
-48.47107071854083
 11
32.25028017671777
 21
-42.38229702224231
  0
LINE
  5
1C4
100
AcDbEntity
  8
handle5
  6
ByLayer
 62
  256
370
   -1
100
AcDbLine
 10
34.2501649023014
 20
-42.27215491468877
 11
39.78654214869768
 21
-48.56401039940948
  0
LINE
  5
1C5
100
AcDbEntity
  8
handle5
  6
ByLayer
 62
  256
370
   -1
100
AcDbLine
 10
34.48152149671321
 20
-42.53508418442306
 11
34.59247877349681
 21
-42.26045956533954
  0
LINE
  5
1C6
100
AcDbEntity
  8
handle5
  6
ByLayer
 62
  256
370
   -1
100
AcDbLine
 10
40.61191433275896
 20
-46.5228794791297
 11
36.72433481860158
 21
-42.2362420790601
  0
LINE
  5
1C7
100
AcDbEntity
  8
handle5
  6
ByLayer
 62
  256
370
   -1
100
AcDbLine
 10
41.11399279965351
 20
-42.46415775191571
 11
39.824802269064
 21
-45.65496658079081
  0
LINE
  5
1C8
100
AcDbEntity
  8
handle5
  6
ByLayer
 62
  256
370
   -1
100
AcDbLine
 10
43.30030469369861
 20
-42.72688543963574
 11
35.90777858385896
 21
-61.02374460767425
  0
LINE
  5
1C9
100
AcDbEntity
  8
handle5
  6
ByLayer
 62
  256
370
   -1
100
AcDbLine
 10
45.44672058540751
 20
-43.08837033984463
 11
43.76631132661341
 21
-47.2474644162117
  0
LINE
  5
1CA
100
AcDbEntity
  8
handle5
  6
ByLayer
 62
  256
370
   -1
100
AcDbLine
 10
51.29067616459641
 20
-47.63503691290776
 11
47.72345794016044
 21
-43.59042985975049
  0
LINE
  5
1CB
100
AcDbEntity
  8
handle5
  6
ByLayer
 62
  256
370
   -1
100
AcDbLine
 10
53.08454972441339
 20
-46.70106168273361
 11
51.25757382913721
 21
-44.62958829499865
  0
LINE
  5
1CC
100
AcDbEntity
  8
handle5
  6
ByLayer
 62
  256
370
   -1
100
AcDbLine
 10
53.09099970890369
 20
-47.4884795870359
 11
51.29067616459641
 21
-47.63503691290776
  0
LINE
  5
1CD
100
AcDbEntity
  8
handle5
  6
ByLayer
 62
  256
370
   -1
100
AcDbLine
 10
53.09883180017689
 20
-48.44462590117467
 11
41.77301901562307
 21
-49.36661165301638
  0
LINE
  5
1CE
100
AcDbEntity
  8
handle5
  6
ByLayer
 62
  256
370
   -1
100
AcDbLine
 10
53.10666320777127
 20
-49.4006887513836
 11
51.74844852087872
 21
-49.51125556532469
  0
LINE
  5
1CF
100
AcDbEntity
  8
handle5
  6
ByLayer
 62
  256
370
   -1
100
AcDbLine
 10
53.12611546612501
 20
-51.77543190462671
 11
47.497554907497
 21
-65.70639113694091
  0
LINE
  5
1D0
100
AcDbEntity
  8
handle5
  6
ByLayer
 62
  256
370
   -1
100
AcDbLine
 10
52.969765610491
 20
-57.83636190401609
 11
53.17166905717598
 21
-57.33664112188461
  0
LINE
  5
1D1
100
AcDbEntity
  8
handle5
  6
ByLayer
 62
  256
370
   -1
100
AcDbLine
 10
53.17560032571296
 20
-57.81657269958629
 11
51.77733212064035
 21
-57.95101775405459
  0
LINE
  5
1D2
100
AcDbEntity
  8
handle5
  6
ByLayer
 62
  256
370
   -1
100
AcDbLine
 10
51.02126100049454
 20
-59.82233029333867
 11
53.19060410797547
 21
-59.64824327234959
  0
LINE
  5
1D3
100
AcDbEntity
  8
handle5
  6
ByLayer
 62
  256
370
   -1
100
AcDbLine
 10
52.63994899247685
 20
-61.66190130699812
 11
53.20672604045094
 21
-61.6164182814818
  0
LINE
  5
1D4
100
AcDbEntity
  8
handle5
  6
ByLayer
 62
  256
370
   -1
100
AcDbLine
 10
52.97842419630117
 20
-63.49014868019543
 11
53.21723276931836
 21
-62.89908592793819
  0
LINE
  5
1D5
100
AcDbEntity
  8
handle5
  6
ByLayer
 62
  256
370
   -1
100
AcDbLine
 10
49.83591991107291
 20
-59.91882481411773
 11
53.22436379667308
 21
-63.76964594612144
  0
LINE
  5
1D6
100
AcDbEntity
  8
handle5
  6
ByLayer
 62
  256
370
   -1
100
AcDbLine
 10
50.60761164584786
 20
-63.68280705444596
 11
53.24823420429558
 21
-66.68375936346416
  0
LINE
  5
1D7
100
AcDbEntity
  8
handle5
  6
ByLayer
 62
  256
370
   -1
100
AcDbLine
 10
53.26677587782714
 20
-68.94733778546714
 11
47.09468680886143
 21
-69.54079106435171
  0
LINE
  5
1D8
100
AcDbEntity
  8
handle5
  6
ByLayer
 62
  256
370
   -1
100
AcDbLine
 10
46.33861606332734
 20
-71.41210267645391
 11
53.28240109306434
 21
-70.85487326168806
  0
LINE
  5
1D9
100
AcDbEntity
  8
handle5
  6
ByLayer
 62
  256
370
   -1
100
AcDbLine
 10
47.95730405530949
 20
-73.25167369011336
 11
53.29852302916682
 21
-72.82304871359923
  0
LINE
  5
1DA
100
AcDbEntity
  8
handle5
  6
ByLayer
 62
  256
370
   -1
100
AcDbLine
 10
45.15327497390566
 20
-71.50859719723297
 11
53.36419197675271
 21
-80.83995250048253
  0
LINE
  5
1DB
100
AcDbEntity
  8
handle5
  6
ByLayer
 62
  256
370
   -1
100
AcDbLine
 10
53.36655076974838
 20
-81.12791533823469
 11
51.23026555404973
 21
-81.30182081669665
  0
LINE
  5
1DC
100
AcDbEntity
  8
handle5
  6
ByLayer
 62
  256
370
   -1
100
AcDbLine
 10
41.65597075154843
 20
-83.00187598675092
 11
53.37419807749736
 21
-82.06150317093812
  0
LINE
  5
1DD
100
AcDbEntity
  8
handle5
  6
ByLayer
 62
  256
370
   -1
100
AcDbLine
 10
53.38191854035298
 20
-83.00402182211502
 11
51.6407306418379
 21
-83.14576521489693
  0
LINE
  5
1DE
100
AcDbEntity
  8
handle5
  6
ByLayer
 62
  256
370
   -1
100
AcDbLine
 10
53.39401092334978
 20
-84.48026705831188
 11
49.72203634627967
 21
-93.56858148656187
  0
LINE
  5
1DF
100
AcDbEntity
  8
handle5
  6
ByLayer
 62
  256
370
   -1
100
AcDbLine
 10
53.43956460548517
 20
-90.0414873952148
 11
52.89792358994932
 21
-91.38207506898738
  0
LINE
  5
1E0
100
AcDbEntity
  8
handle5
  6
ByLayer
 62
  256
370
   -1
100
AcDbLine
 10
51.72881523501828
 20
-91.45961076349039
 11
53.45024573184943
 21
-91.34544559075442
  0
LINE
  5
1E1
100
AcDbEntity
  8
handle5
  6
ByLayer
 62
  256
370
   -1
100
AcDbLine
 10
53.46619626181128
 20
-93.29269568010596
 11
50.90463155991775
 21
-93.50122161040571
  0
LINE
  5
1E2
100
AcDbEntity
  8
handle5
  6
ByLayer
 62
  256
370
   -1
100
AcDbLine
 10
53.48185941929179
 20
-95.204863167719
 11
52.47578131513168
 21
-95.28676290312836
  0
LINE
  5
1E3
100
AcDbEntity
  8
handle5
  6
ByLayer
 62
  256
370
   -1
100
AcDbLine
 10
53.48649876376552
 20
-95.77123707271113
 11
52.91413536229961
 21
-97.18786413549861
  0
LINE
  5
1E4
100
AcDbEntity
  8
handle5
  6
ByLayer
 62
  256
370
   -1
100
AcDbLine
 10
53.50357727836748
 20
-97.85619219106246
 11
49.72203634627967
 21
-93.56858148656187
  0
LINE
  5
1E5
100
AcDbEntity
  8
handle5
  6
ByLayer
 62
  256
370
   -1
100
AcDbLine
 10
53.52811630354434
 20
-100.8519308331294
 11
50.47186931340868
 21
-97.38667657763796
  0
LINE
  5
1E6
100
AcDbEntity
  8
handle5
  6
ByLayer
 62
  256
370
   -1
100
AcDbLine
 10
47.04617029785091
 20
-103.0493831466056
 11
53.54258716308438
 21
-102.6185418861522
  0
LINE
  5
1E7
100
AcDbEntity
  8
handle5
  6
ByLayer
 62
  256
370
   -1
100
AcDbLine
 10
53.55794802638578
 20
-104.4938051224042
 11
46.2219865290975
 21
-105.0909942253164
  0
LINE
  5
1E8
100
AcDbEntity
  8
handle5
  6
ByLayer
 62
  256
370
   -1
100
AcDbLine
 10
54.04299568717592
 20
-106.3677622609135
 11
47.79313600335276
 21
-106.8765362134254
  0
LINE
  5
1E9
100
AcDbEntity
  8
handle5
  6
ByLayer
 62
  256
370
   -1
100
AcDbLine
 10
53.47722337102979
 20
-111.9682463599365
 11
55.4263244318678
 21
-107.144127096163
  0
LINE
  5
1EA
100
AcDbEntity
  8
handle5
  6
ByLayer
 62
  256
370
   -1
100
AcDbLine
 10
57.4187331239656
 20
-113.5607444763162
 11
58.65664371765418
 21
-110.4968559680026
  0
LINE
  5
1EB
100
AcDbEntity
  8
handle5
  6
ByLayer
 62
  256
370
   -1
100
AcDbLine
 10
58.5735462130685
 20
-113.4497099380492
 11
56.22629963411477
 21
-113.6754003263546
  0
LINE
  5
1EC
100
AcDbEntity
  8
handle5
  6
ByLayer
 62
  256
370
   -1
100
AcDbLine
 10
55.47022851396903
 20
-115.5467128656387
 11
57.05726430375508
 21
-115.4193552651309
  0
LINE
  5
1ED
100
AcDbEntity
  8
handle5
  6
ByLayer
 62
  256
370
   -1
100
AcDbLine
 10
55.47022851396903
 20
-115.5467128656387
 11
56.0332408414604
 21
-116.1865527625899
  0
LINE
  5
1EE
100
AcDbEntity
  8
handle5
  6
ByLayer
 62
  256
370
   -1
100
AcDbLine
 10
54.28488742454734
 20
-115.6432073864177
 11
55.1990508541485
 21
-116.6821149120148
  0
LINE
  5
1EF
100
AcDbEntity
  8
handle5
  6
ByLayer
 62
  256
370
   -1
100
AcDbLine
 10
53.88519302204551
 20
-116.6324349671899
 11
54.30140806129295
 21
-117.1054457966464
  0
LINE
  5
1F0
100
AcDbEntity
  8
handle5
  6
ByLayer
 62
  256
370
   -1
100
AcDbLine
 10
57.20682240253645
 20
-108.4112771915049
 11
53.59429458343012
 21
-117.3524580226191
  0
LINE
  5
1F1
100
AcDbEntity
  8
handle5
  6
ByLayer
 62
  256
370
   -1
100
AcDbLine
 10
51.51477072257429
 20
-116.8254114479218
 11
51.0442291952352
 21
-117.9900244544256
  0
LINE
  5
1F2
100
AcDbEntity
  8
handle5
  6
ByLayer
 62
  256
370
   -1
100
AcDbLine
 10
44.35798212206642
 20
-118.3647566524325
 11
44.65406628626496
 21
-118.7113385236455
  0
LINE
  5
1F3
100
AcDbEntity
  8
handle5
  6
ByLayer
 62
  256
370
   -1
100
AcDbLine
 10
44.35798212206642
 20
-118.3647566524325
 11
44.20888789483396
 21
-118.7337720658251
  0
LINE
  5
1F4
100
AcDbEntity
  8
handle5
  6
ByLayer
 62
  256
370
   -1
100
AcDbLine
 10
42.2052200343115
 20
-118.8439756135919
 11
40.35674609733339
 21
-116.7481271799741
  0
LINE
  5
1F5
100
AcDbEntity
  8
handle5
  6
ByLayer
 62
  256
370
   -1
100
AcDbLine
 10
39.96322381234616
 20
-117.7221138417612
 11
40.99619842745496
 21
-118.896045919935
  0
LINE
  5
1F6
100
AcDbEntity
  8
handle5
  6
ByLayer
 62
  256
370
   -1
100
AcDbLine
 10
40.35674609733339
 20
-116.7481271799741
 11
39.47057402707556
 21
-118.9414458544357
  0
LINE
  5
1F7
100
AcDbEntity
  8
handle5
  6
ByLayer
 62
  256
370
   -1
100
AcDbLine
 10
37.59279554937719
 20
-117.9150830596291
 11
37.17474971987141
 21
-118.9497666785443
  0
LINE
  5
1F8
100
AcDbEntity
  8
handle5
  6
ByLayer
 62
  256
370
   -1
100
AcDbLine
 10
35.54637769979646
 20
-117.1341527570524
 11
37.14425184597425
 21
-118.9500685282756
  0
LINE
  5
1F9
100
AcDbEntity
  8
handle5
  6
ByLayer
 62
  256
370
   -1
100
AcDbLine
 10
27.60803556543484
 20
-117.7711940632786
 11
28.55639432025739
 21
-118.8489640131165
  0
LINE
  5
1FA
100
AcDbEntity
  8
handle5
  6
ByLayer
 62
  256
370
   -1
100
AcDbLine
 10
26.42269447601315
 20
-117.8676885840577
 11
27.23656351665905
 21
-118.7926158712231
  0
LINE
  5
1FB
100
AcDbEntity
  8
handle5
  6
ByLayer
 62
  256
370
   -1
100
AcDbLine
 10
28.76697440960449
 20
-112.0654825237656
 11
26.07410735842292
 21
-118.7304585362467
  0
LINE
  5
1FC
100
AcDbEntity
  8
handle5
  6
ByLayer
 62
  256
370
   -1
100
AcDbLine
 10
21.77941857122768
 20
-118.36465513095
 11
21.68195896987284
 21
-118.2538967461986
  0
LINE
  5
1FD
100
AcDbEntity
  8
handle5
  6
ByLayer
 62
  256
370
   -1
100
AcDbLine
 10
26.42269447601315
 20
-117.8676885840577
 11
21.19802002994881
 21
-118.2930068803175
  0
LINE
  5
1FE
100
AcDbEntity
  8
handle5
  6
ByLayer
 62
  256
370
   -1
100
AcDbLine
 10
15.06851397466723
 20
-116.826022245038
 11
22.45607381699257
 21
-116.3360805340655
  0
LINE
  5
1FF
100
AcDbEntity
  8
handle5
  6
ByLayer
 62
  256
370
   -1
100
AcDbLine
 10
17.17719808596646
 20
-107.382835994499
 11
13.70081909804056
 21
-115.9870418926892
  0
LINE
  5
200
100
AcDbEntity
  8
handle5
  6
ByLayer
 62
  256
370
   -1
100
AcDbLine
 10
14.09935819309495
 20
-115.0006383836828
 11
12.65153231296877
 21
-115.1184990734646
  0
LINE
  5
201
100
AcDbEntity
  8
handle5
  6
ByLayer
 62
  256
370
   -1
100
AcDbLine
 10
14.41324753801026
 20
-108.5497918741539
 11
12.03771827296148
 21
-114.4293415390916
  0
LINE
  5
202
100
AcDbEntity
  8
handle5
  6
ByLayer
 62
  256
370
   -1
100
AcDbLine
 10
11.86268432975438
 20
-109.7787878544302
 11
13.98552199554611
 21
-109.6084332501542
  0
LINE
  5
203
100
AcDbEntity
  8
handle5
  6
ByLayer
 62
  256
370
   -1
100
AcDbLine
 10
12.93492149567972
 20
-108.4144736648424
 11
13.98552115266997
 21
-109.6084353363132
  0
LINE
  5
204
100
AcDbEntity
  8
handle5
  6
ByLayer
 62
  256
370
   -1
100
AcDbLine
 10
13.89890767875337
 20
-107.6459143929835
 11
17.17719808596646
 21
-107.382835994499
  0
LINE
  5
205
100
AcDbEntity
  8
handle5
  6
ByLayer
 62
  256
370
   -1
100
AcDbLine
 10
16.37331643267926
 20
-106.5128748647358
 11
15.87446557451661
 21
-106.5534836331011
  0
LINE
  5
206
100
AcDbEntity
  8
handle5
  6
ByLayer
 62
  256
370
   -1
100
AcDbLine
 10
16.17674612199797
 20
-106.2894811383375
 11
16.37331643267926
 21
-106.5128748647358
  0
LINE
  5
207
100
AcDbEntity
  8
handle5
  6
ByLayer
 62
  256
370
   -1
100
AcDbLine
 10
17.19868852308749
 20
-104.4717441762515
 11
16.59313835126871
 21
-103.8040344628413
  0
LINE
  5
208
100
AcDbEntity
  8
handle5
  6
ByLayer
 62
  256
370
   -1
100
AcDbLine
 10
18.78200313026226
 20
-103.4108660005675
 11
16.59490285073413
 21
-103.5889075393365
  0
LINE
  5
209
100
AcDbEntity
  8
handle5
  6
ByLayer
 62
  256
370
   -1
100
AcDbLine
 10
19.09589238152468
 20
-96.96001972283403
 11
16.59857667453851
 21
-103.1409967136407
  0
LINE
  5
20A
100
AcDbEntity
  8
handle5
  6
ByLayer
 62
  256
370
   -1
100
AcDbLine
 10
16.63925530228717
 20
-98.18147804495214
 11
18.66816693271354
 21
-98.01866086703882
  0
LINE
  5
20B
100
AcDbEntity
  8
handle5
  6
ByLayer
 62
  256
370
   -1
100
AcDbLine
 10
16.65541979371661
 20
-96.21071104884533
 11
21.85984339774531
 21
-95.79306268420186
  0
LINE
  5
20C
100
AcDbEntity
  8
handle5
  6
ByLayer
 62
  256
370
   -1
100
AcDbLine
 10
17.85861200892142
 20
-94.17643508480165
 11
16.67116872383714
 21
-94.29060908701518
  0
LINE
  5
20D
100
AcDbEntity
  8
handle5
  6
ByLayer
 62
  256
370
   -1
100
AcDbLine
 10
16.68306291285707
 20
-92.84047530035929
 11
18.68542729373651
 21
-95.11607532463375
  0
LINE
  5
20E
100
AcDbEntity
  8
handle5
  6
ByLayer
 62
  256
370
   -1
100
AcDbLine
 10
16.70652366347396
 20
-89.9801519043678
 11
21.05596165080529
 21
-94.92310178623421
  0
LINE
  5
20F
100
AcDbEntity
  8
handle5
  6
ByLayer
 62
  256
370
   -1
100
AcDbLine
 10
21.88133383486646
 20
-92.88197086595443
 11
16.72931778813815
 21
-87.20110322292925
  0
LINE
  5
210
100
AcDbEntity
  8
handle5
  6
ByLayer
 62
  256
370
   -1
100
AcDbLine
 10
16.73129457661436
 20
-86.96009412565735
 11
23.35081224449245
 21
-86.4288875567417
  0
LINE
  5
211
100
AcDbEntity
  8
handle5
  6
ByLayer
 62
  256
370
   -1
100
AcDbLine
 10
16.74745905898529
 20
-84.98932823395245
 11
26.54248833491268
 21
-84.20329030108661
  0
LINE
  5
212
100
AcDbEntity
  8
handle5
  6
ByLayer
 62
  256
370
   -1
100
AcDbLine
 10
22.54125694608878
 20
-82.58666270168629
 11
16.76260874191401
 21
-83.14228620062948
  0
LINE
  5
213
100
AcDbEntity
  8
handle5
  6
ByLayer
 62
  256
370
   -1
100
AcDbLine
 10
16.78292993690367
 20
-80.66473591196308
 11
16.92346943749256
 21
-80.31689386019167
  0
LINE
  5
214
100
AcDbEntity
  8
handle5
  6
ByLayer
 62
  256
370
   -1
100
AcDbLine
 10
24.31800689613
 20
-56.34109995146554
 11
16.83043281913855
 21
-74.87320742885657
  0
LINE
  5
215
100
AcDbEntity
  8
handle5
  6
ByLayer
 62
  256
370
   -1
100
AcDbLine
 10
16.89140764625809
 20
-74.72231514428239
 11
16.83163054427117
 21
-74.72718135856877
  0
LINE
  5
216
100
AcDbEntity
  8
handle5
  6
ByLayer
 62
  256
370
   -1
100
AcDbLine
 10
17.29108165075975
 20
-73.73307932205483
 11
16.83948276792946
 21
-73.76984203864555
  0
LINE
  5
217
100
AcDbEntity
  8
handle5
  6
ByLayer
 62
  256
370
   -1
100
AcDbLine
 10
16.8541869029926
 20
-71.97712098613789
 11
17.26152596383442
 21
-70.96893713678452
  0
LINE
  5
218
100
AcDbEntity
  8
handle5
  6
ByLayer
 62
  256
370
   -1
100
AcDbLine
 10
16.86625120155778
 20
-70.50624752579523
 11
17.26152596383442
 21
-70.96893713678452
  0
LINE
  5
219
100
AcDbEntity
  8
handle5
  6
ByLayer
 62
  256
370
   -1
100
AcDbLine
 10
18.8538496532441
 20
-69.86515303692289
 11
16.87018505959721
 21
-70.02663345160937
  0
LINE
  5
21A
100
AcDbEntity
  8
handle5
  6
ByLayer
 62
  256
370
   -1
100
AcDbLine
 10
16.87793580194269
 20
-69.08166668439497
 11
19.20361026056561
 21
-63.3255100732618
  0
ELLIPSE
  5
21B
100
AcDbEntity
  8
handle4
  6
ByLayer
 62
  256
370
   -1
100
AcDbEllipse
 10
-502.2469497910883
 20
-1420.846274670865
 30
0
 11
555.7052720695427
 21
1375.397387972622
 31
0
 40
0.169317757651324
 41
0.001651196805549038
 42
0.1349536048211517
  0
LINE
  5
21C
100
AcDbEntity
  8
handle5
  6
ByLayer
 62
  256
370
   -1
100
AcDbLine
 10
113.5898093350256
 20
-10.60103565749489
 11
115.9354831860184
 21
-10.41007152611718
  0
LINE
  5
21D
100
AcDbEntity
  8
handle5
  6
ByLayer
 62
  256
370
   -1
100
AcDbLine
 10
109.292842332551
 20
-24.0367987133593
 11
111.6633761137559
 21
-23.84381119015757
  0
LINE
  5
21E
100
AcDbEntity
  8
handle5
  6
ByLayer
 62
  256
370
   -1
100
AcDbLine
 10
112.4901964825019
 20
-24.78344695647473
 11
113.2993234986714
 21
-22.78078731600948
  0
LINE
  5
21F
100
AcDbEntity
  8
handle5
  6
ByLayer
 62
  256
370
   -1
100
AcDbLine
 10
113.2993234986714
 20
-22.78078731600948
 11
111.6806216131445
 21
-20.94122346824372
  0
LINE
  5
220
100
AcDbEntity
  8
handle5
  6
ByLayer
 62
  256
370
   -1
100
AcDbLine
 10
113.9749531348859
 20
-12.4464626981117
 11
113.1500642653434
 21
-14.48813429464582
  0
LINE
  5
221
100
AcDbEntity
  8
handle5
  6
ByLayer
 62
  256
370
   -1
100
AcDbLine
 10
105.7333030023399
 20
-35.53516852951719
 11
106.9807935087537
 21
-35.43360983583426
  0
LINE
  5
222
100
AcDbEntity
  8
handle5
  6
ByLayer
 62
  256
370
   -1
100
AcDbLine
 10
107.8076142521062
 20
-36.37324467496768
 11
106.9807935087537
 21
-35.43360983583426
  0
LINE
  5
223
100
AcDbEntity
  8
handle5
  6
ByLayer
 62
  256
370
   -1
100
AcDbLine
 10
107.8076142521062
 20
-36.37324467496768
 11
108.6167404254109
 21
-34.37058712066602
  0
LINE
  5
224
100
AcDbEntity
  8
handle5
  6
ByLayer
 62
  256
370
   -1
100
AcDbLine
 10
108.6167404254109
 20
-34.37058712066602
 11
106.9980390081423
 21
-32.53102211392053
  0
LINE
  5
225
100
AcDbEntity
  8
handle5
  6
ByLayer
 62
  256
370
   -1
100
AcDbLine
 10
104.2246444996278
 20
-33.78063202166453
 11
106.5703183506207
 21
-33.58966789028682
  0
LINE
  5
226
100
AcDbEntity
  8
handle5
  6
ByLayer
 62
  256
370
   -1
100
AcDbLine
 10
106.5703183506207
 20
-33.58966789028682
 11
109.2545984198852
 21
-26.94584157996275
  0
LINE
  5
227
100
AcDbEntity
  8
handle5
  6
ByLayer
 62
  256
370
   -1
100
AcDbLine
 10
106.8841727930929
 20
-27.13881968254753
 11
109.2545984198852
 21
-26.94584157996275
  0
LINE
  5
228
100
AcDbEntity
  8
handle5
  6
ByLayer
 62
  256
370
   -1
100
AcDbLine
 10
109.2923706235353
 20
-24.03626111199253
 11
108.4674816603412
 21
-26.07793294032251
  0
LINE
  5
229
100
AcDbEntity
  8
handle5
  6
ByLayer
 62
  256
370
   -1
100
AcDbLine
 10
108.8824745796174
 20
-22.19284920156258
 11
111.2529010492745
 21
-21.99986901281409
  0
LINE
  5
22A
100
AcDbEntity
  8
handle5
  6
ByLayer
 62
  256
370
   -1
100
AcDbLine
 10
113.0578374498545
 20
-45.22679964828745
 11
104.610260476762
 21
-35.62659550466839
  0
LINE
  5
22B
100
AcDbEntity
  8
handle5
  6
ByLayer
 62
  256
370
   -1
100
AcDbLine
 10
112.2861253499869
 20
-41.46282158326841
 11
109.9159439433577
 21
-41.65577783094653
  0
LINE
  5
22C
100
AcDbEntity
  8
handle5
  6
ByLayer
 62
  256
370
   -1
100
AcDbLine
 10
113.4575265001142
 20
-44.23756990497503
 11
111.8864293863253
 21
-42.45210380829081
  0
LINE
  5
22D
100
AcDbEntity
  8
handle5
  6
ByLayer
 62
  256
370
   -1
100
AcDbLine
 10
111.8864293863253
 20
-42.45210380829081
 11
113.4254140412515
 21
-38.64298312127363
  0
LINE
  5
22E
100
AcDbEntity
  8
handle5
  6
ByLayer
 62
  256
370
   -1
100
AcDbLine
 10
109.9240030176908
 20
-47.30927951409564
 11
107.2038467813231
 21
-54.04190245396757
  0
LINE
  5
22F
100
AcDbEntity
  8
handle5
  6
ByLayer
 62
  256
370
   -1
100
AcDbLine
 10
111.4950903748881
 20
-49.09473438875153
 11
109.9240030176908
 21
-47.30927951409564
  0
LINE
  5
230
100
AcDbEntity
  8
handle5
  6
ByLayer
 62
  256
370
   -1
100
AcDbLine
 10
99.92767749715316
 20
-47.21639507752894
 11
102.2982112783581
 21
-47.02340755432721
  0
LINE
  5
231
100
AcDbEntity
  8
handle5
  6
ByLayer
 62
  256
370
   -1
100
AcDbLine
 10
107.6035427449847
 20
-53.05262022894516
 11
102.2982112783581
 21
-47.02340755432721
  0
LINE
  5
232
100
AcDbEntity
  8
handle5
  6
ByLayer
 62
  256
370
   -1
100
AcDbLine
 10
103.1250316471041
 20
-47.96304332064443
 11
111.1164358871762
 21
-47.19461721237275
  0
LINE
  5
233
100
AcDbEntity
  8
handle5
  6
ByLayer
 62
  256
370
   -1
100
AcDbLine
 10
111.8724968825357
 20
-45.32330058237761
 11
111.1164358871762
 21
-47.19461721237275
  0
LINE
  5
234
100
AcDbEntity
  8
handle5
  6
ByLayer
 62
  256
370
   -1
100
AcDbLine
 10
103.1250316471041
 20
-47.96304332064443
 11
103.9341586632736
 21
-45.96038368017918
  0
LINE
  5
235
100
AcDbEntity
  8
handle5
  6
ByLayer
 62
  256
370
   -1
100
AcDbLine
 10
112.2861253499869
 20
-41.46282158326841
 11
107.8076142521062
 21
-36.37324467496768
  0
LINE
  5
236
100
AcDbEntity
  8
handle5
  6
ByLayer
 62
  256
370
   -1
100
AcDbLine
 10
104.610260476762
 20
-35.62659550466839
 11
105.7333030023399
 21
-35.53516852951719
  0
LINE
  5
237
100
AcDbEntity
  8
handle5
  6
ByLayer
 62
  256
370
   -1
100
AcDbLine
 10
103.9341586632736
 20
-45.96038368017918
 11
102.3154567777467
 21
-44.12081983241336
  0
LINE
  5
238
100
AcDbEntity
  8
handle5
  6
ByLayer
 62
  256
370
   -1
100
AcDbLine
 10
101.8877362138767
 20
-45.17946537698373
 11
104.5720161894896
 21
-38.53563929845558
  0
LINE
  5
239
100
AcDbEntity
  8
handle5
  6
ByLayer
 62
  256
370
   -1
100
AcDbLine
 10
111.8724968825357
 20
-45.32330058237761
 11
110.2537989375401
 21
-43.48373832668989
  0
LINE
  5
23A
100
AcDbEntity
  8
handle5
  6
ByLayer
 62
  256
370
   -1
100
AcDbLine
 10
109.9153138419505
 20
-41.65549278484656
 11
109.14055772994
 21
-43.57308145228757
  0
LINE
  5
23B
100
AcDbEntity
  8
handle5
  6
ByLayer
 62
  256
370
   -1
100
AcDbLine
 10
110.2537989375401
 20
-43.48373832668989
 11
102.3154559348818
 21
-44.12082191857706
  0
LINE
  5
23C
100
AcDbEntity
  8
handle5
  6
ByLayer
 62
  256
370
   -1
100
AcDbLine
 10
103.7848994299456
 20
-37.66773065881551
 11
109.14055772994
 21
-43.57308145228757
  0
LINE
  5
23D
100
AcDbEntity
  8
handle5
  6
ByLayer
 62
  256
370
   -1
100
AcDbLine
 10
104.6097882994881
 20
-35.6260590622814
 11
103.7848994299456
 21
-37.66773065881551
  0
LINE
  5
23E
100
AcDbEntity
  8
handle5
  6
ByLayer
 62
  256
370
   -1
100
AcDbLine
 10
111.5450611141067
 20
-54.64509701968149
 11
113.1159882613359
 21
-56.4303644819816
  0
LINE
  5
23F
100
AcDbEntity
  8
handle5
  6
ByLayer
 62
  256
370
   -1
100
AcDbLine
 10
108.7749234970672
 20
-55.82736030930681
 11
111.1453651504451
 21
-55.63437924470389
  0
LINE
  5
240
100
AcDbEntity
  8
handle5
  6
ByLayer
 62
  256
370
   -1
100
AcDbLine
 10
109.1829387818106
 20
-60.49155495050871
 11
108.0017675749757
 21
-63.41505627617954
  0
LINE
  5
241
100
AcDbEntity
  8
handle5
  6
ByLayer
 62
  256
370
   -1
100
AcDbLine
 10
106.8125077698859
 20
-60.68453303442828
 11
109.1829387818106
 21
-60.49155495050871
  0
LINE
  5
242
100
AcDbEntity
  8
handle5
  6
ByLayer
 62
  256
370
   -1
100
AcDbLine
 10
109.1608864825851
 20
-57.70942368928746
 11
108.4048258618322
 21
-59.58073939209868
  0
LINE
  5
243
100
AcDbEntity
  8
handle5
  6
ByLayer
 62
  256
370
   -1
100
AcDbLine
 10
109.1608864825851
 20
-57.70942368928746
 11
111.6031476580407
 21
-57.51059542030652
  0
LINE
  5
244
100
AcDbEntity
  8
handle5
  6
ByLayer
 62
  256
370
   -1
100
AcDbLine
 10
113.1166395280156
 20
-56.43059714219379
 11
112.3418837906118
 21
-58.34818488245099
  0
LINE
  5
245
100
AcDbEntity
  8
handle5
  6
ByLayer
 62
  256
370
   -1
100
AcDbLine
 10
108.3752548448523
 20
-56.81659829396432
 11
99.92767796541145
 21
-47.21639391854916
  0
LINE
  5
246
100
AcDbEntity
  8
handle5
  6
ByLayer
 62
  256
370
   -1
100
AcDbLine
 10
107.6035427449847
 20
-53.05262022894516
 11
105.2333613383555
 21
-53.24557647662328
  0
LINE
  5
247
100
AcDbEntity
  8
handle5
  6
ByLayer
 62
  256
370
   -1
100
AcDbLine
 10
108.774943895112
 20
-55.82736855065178
 11
107.2038467813231
 21
-54.04190245396757
  0
LINE
  5
248
100
AcDbEntity
  8
handle5
  6
ByLayer
 62
  256
370
   -1
100
AcDbLine
 10
105.2414204126886
 20
-58.89907815977239
 11
104.0602492058537
 21
-61.82257948544321
  0
LINE
  5
249
100
AcDbEntity
  8
handle5
  6
ByLayer
 62
  256
370
   -1
100
AcDbLine
 10
106.8125077698859
 20
-60.68453303442828
 11
105.2414204126886
 21
-58.89907815977239
  0
LINE
  5
24A
100
AcDbEntity
  8
handle5
  6
ByLayer
 62
  256
370
   -1
100
AcDbLine
 10
107.1899142775335
 20
-56.91309922805445
 11
94.44120928114612
 21
-57.93623508850595
  0
LINE
  5
24B
100
AcDbEntity
  8
handle5
  6
ByLayer
 62
  256
370
   -1
100
AcDbLine
 10
96.36813816694209
 20
-58.71476489368678
 11
97.61562867335599
 21
-58.61320620000396
  0
LINE
  5
24C
100
AcDbEntity
  8
handle5
  6
ByLayer
 62
  256
370
   -1
100
AcDbLine
 10
98.44244941670846
 20
-59.55284103913738
 11
97.61562867335599
 21
-58.61320620000396
  0
LINE
  5
24D
100
AcDbEntity
  8
handle5
  6
ByLayer
 62
  256
370
   -1
100
AcDbLine
 10
98.44244941670846
 20
-59.55284103913738
 11
106.4338536567806
 21
-58.78441493086569
  0
LINE
  5
24E
100
AcDbEntity
  8
handle5
  6
ByLayer
 62
  256
370
   -1
100
AcDbLine
 10
107.1899142775335
 20
-56.91309922805445
 11
106.4338536567806
 21
-58.78441493086569
  0
LINE
  5
24F
100
AcDbEntity
  8
handle5
  6
ByLayer
 62
  256
370
   -1
100
AcDbLine
 10
98.44244941670846
 20
-59.55284103913738
 11
99.25157559001318
 21
-57.55018348483571
  0
LINE
  5
250
100
AcDbEntity
  8
handle5
  6
ByLayer
 62
  256
370
   -1
100
AcDbLine
 10
99.25157559001318
 20
-57.55018348483571
 11
97.63287417274447
 21
-55.71061847809011
  0
LINE
  5
251
100
AcDbEntity
  8
handle5
  6
ByLayer
 62
  256
370
   -1
100
AcDbLine
 10
94.85947966423001
 20
-56.96022838583423
 11
97.20515351522286
 21
-56.76926425445646
  0
LINE
  5
252
100
AcDbEntity
  8
handle5
  6
ByLayer
 62
  256
370
   -1
100
AcDbLine
 10
97.20515351522286
 20
-56.76926425445646
 11
99.88943358448742
 21
-50.12543794413244
  0
LINE
  5
253
100
AcDbEntity
  8
handle5
  6
ByLayer
 62
  256
370
   -1
100
AcDbLine
 10
97.51900795769515
 20
-50.31841604671723
 11
99.88943358448742
 21
-50.12543794413244
  0
LINE
  5
254
100
AcDbEntity
  8
handle5
  6
ByLayer
 62
  256
370
   -1
100
AcDbLine
 10
107.1899142775335
 20
-56.91309922805445
 11
105.5712163325379
 21
-55.07353697236675
  0
LINE
  5
255
100
AcDbEntity
  8
handle5
  6
ByLayer
 62
  256
370
   -1
100
AcDbLine
 10
105.2327312369483
 20
-53.24529143052331
 11
104.4579754995443
 21
-55.16287917078051
  0
LINE
  5
256
100
AcDbEntity
  8
handle5
  6
ByLayer
 62
  256
370
   -1
100
AcDbLine
 10
105.5712163325379
 20
-55.07353697236675
 11
97.63287332987963
 21
-55.71062056425382
  0
LINE
  5
257
100
AcDbEntity
  8
handle5
  6
ByLayer
 62
  256
370
   -1
100
AcDbLine
 10
99.10231682494336
 20
-49.25752930449227
 11
104.4579754995443
 21
-55.16287917078051
  0
LINE
  5
258
100
AcDbEntity
  8
handle5
  6
ByLayer
 62
  256
370
   -1
100
AcDbLine
 10
99.92720578813751
 20
-47.21585747616217
 11
99.10231682494336
 21
-49.25752930449227
  0
LINE
  5
259
100
AcDbEntity
  8
handle5
  6
ByLayer
 62
  256
370
   -1
100
AcDbLine
 10
99.51730974421955
 20
-45.37244556573222
 11
101.8877362138767
 21
-45.17946537698373
  0
LINE
  5
25A
100
AcDbEntity
  8
handle5
  6
ByLayer
 62
  256
370
   -1
100
AcDbLine
 10
111.8724968825357
 20
-45.32330058237761
 11
99.12379151154167
 21
-46.34643737001301
  0
LINE
  5
25B
100
AcDbEntity
  8
handle5
  6
ByLayer
 62
  256
370
   -1
100
AcDbLine
 10
102.2015905626974
 20
-38.72861740104048
 11
104.5720161894896
 21
-38.53563929845558
  0
LINE
  5
25C
100
AcDbEntity
  8
handle5
  6
ByLayer
 62
  256
370
   -1
100
AcDbLine
 10
106.8624788837111
 20
-66.23489473817443
 11
108.4334060309403
 21
-68.02016220047454
  0
LINE
  5
25D
100
AcDbEntity
  8
handle5
  6
ByLayer
 62
  256
370
   -1
100
AcDbLine
 10
104.0923412666716
 20
-67.41715802779964
 11
106.4627829200495
 21
-67.22417696319684
  0
LINE
  5
25E
100
AcDbEntity
  8
handle5
  6
ByLayer
 62
  256
370
   -1
100
AcDbLine
 10
106.4627829200495
 20
-67.22417696319684
 11
108.0017675749757
 21
-63.41505627617954
  0
LINE
  5
25F
100
AcDbEntity
  8
handle5
  6
ByLayer
 62
  256
370
   -1
100
AcDbLine
 10
102.1299255394903
 20
-72.2743307529212
 11
104.5003565514151
 21
-72.08135266900166
  0
LINE
  5
260
100
AcDbEntity
  8
handle5
  6
ByLayer
 62
  256
370
   -1
100
AcDbLine
 10
104.4783042521895
 20
-69.29922140778041
 11
103.72224325683
 21
-71.1705380377754
  0
LINE
  5
261
100
AcDbEntity
  8
handle5
  6
ByLayer
 62
  256
370
   -1
100
AcDbLine
 10
104.4783042521895
 20
-69.29922140778041
 11
106.9205654276451
 21
-69.10039313879935
  0
LINE
  5
262
100
AcDbEntity
  8
handle5
  6
ByLayer
 62
  256
370
   -1
100
AcDbLine
 10
108.4340572976201
 20
-68.02039486068674
 11
107.6593011856096
 21
-69.93798352812775
  0
LINE
  5
263
100
AcDbEntity
  8
handle5
  6
ByLayer
 62
  256
370
   -1
100
AcDbLine
 10
103.6926726144567
 20
-68.40639601245715
 11
95.24509564136414
 21
-58.80619186883797
  0
LINE
  5
264
100
AcDbEntity
  8
handle5
  6
ByLayer
 62
  256
370
   -1
100
AcDbLine
 10
102.9209605145891
 20
-64.6424179474381
 11
100.5507791079599
 21
-64.83537419511623
  0
LINE
  5
265
100
AcDbEntity
  8
handle5
  6
ByLayer
 62
  256
370
   -1
100
AcDbLine
 10
104.0923616647164
 20
-67.41716626914473
 11
102.5212645509275
 21
-65.63170017246051
  0
LINE
  5
266
100
AcDbEntity
  8
handle5
  6
ByLayer
 62
  256
370
   -1
100
AcDbLine
 10
102.5212645509275
 20
-65.63170017246051
 11
104.0602492058537
 21
-61.82257948544321
  0
LINE
  5
267
100
AcDbEntity
  8
handle5
  6
ByLayer
 62
  256
370
   -1
100
AcDbLine
 10
102.1299255394903
 20
-72.2743307529212
 11
100.558838182293
 21
-70.48887587826533
  0
LINE
  5
268
100
AcDbEntity
  8
handle5
  6
ByLayer
 62
  256
370
   -1
100
AcDbLine
 10
90.56251266175539
 20
-70.39599144169864
 11
92.93304644296038
 21
-70.2030039184969
  0
LINE
  5
269
100
AcDbEntity
  8
handle5
  6
ByLayer
 62
  256
370
   -1
100
AcDbLine
 10
98.23837790958694
 20
-76.23221659311483
 11
92.93304644296038
 21
-70.2030039184969
  0
LINE
  5
26A
100
AcDbEntity
  8
handle5
  6
ByLayer
 62
  256
370
   -1
100
AcDbLine
 10
93.75986681170619
 20
-71.14263968481413
 11
101.7512710517784
 21
-70.37421357654245
  0
LINE
  5
26B
100
AcDbEntity
  8
handle5
  6
ByLayer
 62
  256
370
   -1
100
AcDbLine
 10
102.5073320471379
 20
-68.50289694654731
 11
101.7512710517784
 21
-70.37421357654245
  0
LINE
  5
26C
100
AcDbEntity
  8
handle5
  6
ByLayer
 62
  256
370
   -1
100
AcDbLine
 10
93.75986681170619
 20
-71.14263968481413
 11
94.56899382787586
 21
-69.13998004434887
  0
LINE
  5
26D
100
AcDbEntity
  8
handle5
  6
ByLayer
 62
  256
370
   -1
100
AcDbLine
 10
102.9209605145891
 20
-64.6424179474381
 11
98.44244941670846
 21
-59.55284103913738
  0
LINE
  5
26E
100
AcDbEntity
  8
handle5
  6
ByLayer
 62
  256
370
   -1
100
AcDbLine
 10
95.24509564136414
 20
-58.80619186883797
 11
96.36813816694209
 21
-58.71476489368678
  0
LINE
  5
26F
100
AcDbEntity
  8
handle5
  6
ByLayer
 62
  256
370
   -1
100
AcDbLine
 10
94.56899382787586
 20
-69.13998004434887
 11
92.95029194234891
 21
-67.30041619658306
  0
LINE
  5
270
100
AcDbEntity
  8
handle5
  6
ByLayer
 62
  256
370
   -1
100
AcDbLine
 10
92.52257137847894
 20
-68.35906174115343
 11
95.20685135409181
 21
-61.71523566262528
  0
LINE
  5
271
100
AcDbEntity
  8
handle5
  6
ByLayer
 62
  256
370
   -1
100
AcDbLine
 10
102.5073320471379
 20
-68.50289694654731
 11
100.8886341021423
 21
-66.66333469085959
  0
LINE
  5
272
100
AcDbEntity
  8
handle5
  6
ByLayer
 62
  256
370
   -1
100
AcDbLine
 10
100.5501490065526
 20
-64.83508914901626
 11
99.77539289454219
 21
-66.75267781645735
  0
LINE
  5
273
100
AcDbEntity
  8
handle5
  6
ByLayer
 62
  256
370
   -1
100
AcDbLine
 10
100.8886341021423
 20
-66.66333469085959
 11
92.95029109948402
 21
-67.30041828274676
  0
LINE
  5
274
100
AcDbEntity
  8
handle5
  6
ByLayer
 62
  256
370
   -1
100
AcDbLine
 10
94.4197345945478
 20
-60.8473270229851
 11
99.77539289454219
 21
-66.75267781645735
  0
LINE
  5
275
100
AcDbEntity
  8
handle5
  6
ByLayer
 62
  256
370
   -1
100
AcDbLine
 10
95.24462346409027
 20
-58.8056554264511
 11
94.4197345945478
 21
-60.8473270229851
  0
LINE
  5
276
100
AcDbEntity
  8
handle5
  6
ByLayer
 62
  256
370
   -1
100
AcDbLine
 10
98.23837790958694
 20
-76.23221659311483
 11
95.86819650295777
 21
-76.42517284079298
  0
LINE
  5
277
100
AcDbEntity
  8
handle5
  6
ByLayer
 62
  256
370
   -1
100
AcDbLine
 10
88.15384312229739
 20
-73.4980124108869
 11
90.52426874908966
 21
-73.305034308302
  0
LINE
  5
278
100
AcDbEntity
  8
handle5
  6
ByLayer
 62
  256
370
   -1
100
AcDbLine
 10
90.56204095273975
 20
-70.39545384033187
 11
89.73715198954559
 21
-72.43712566866196
  0
LINE
  5
279
100
AcDbEntity
  8
handle5
  6
ByLayer
 62
  256
370
   -1
100
AcDbLine
 10
90.15214490882178
 20
-68.55204192990192
 11
92.52257137847894
 21
-68.35906174115343
  0
LINE
  5
27A
100
AcDbEntity
  8
handle5
  6
ByLayer
 62
  256
370
   -1
100
AcDbLine
 10
102.5073320471379
 20
-68.50289694654731
 11
89.75862667614385
 21
-69.5260337341827
  0
LINE
  5
27B
100
AcDbEntity
  8
handle5
  6
ByLayer
 62
  256
370
   -1
100
AcDbLine
 10
92.8364257272996
 20
-61.90821376521006
 11
95.20685135409181
 21
-61.71523566262528
  0
LINE
  5
27C
100
AcDbEntity
  8
handle5
  6
ByLayer
 62
  256
370
   -1
100
AcDbLine
 10
104.733669770477
 20
-4.767196450255085
 11
103.552498563642
 21
-7.690697775925969
  0
LINE
  5
27D
100
AcDbEntity
  8
handle5
  6
ByLayer
 62
  256
370
   -1
100
AcDbLine
 10
102.3632387585522
 20
-4.960174534174655
 11
104.733669770477
 21
-4.767196450255085
  0
LINE
  5
27E
100
AcDbEntity
  8
handle5
  6
ByLayer
 62
  256
370
   -1
100
AcDbLine
 10
104.7116174712513
 20
-1.985065189033833
 11
113.1715389519416
 21
-11.57704236016656
  0
LINE
  5
27F
100
AcDbEntity
  8
handle5
  6
ByLayer
 62
  256
370
   -1
100
AcDbLine
 10
111.2446093707577
 20
-10.79851227403071
 11
110.4177846868739
 21
-9.858875842819316
  0
LINE
  5
280
100
AcDbEntity
  8
handle5
  6
ByLayer
 62
  256
370
   -1
100
AcDbLine
 10
109.17029418046
 20
-9.960434536502191
 11
110.4177846868739
 21
-9.858875842819316
  0
LINE
  5
281
100
AcDbEntity
  8
handle5
  6
ByLayer
 62
  256
370
   -1
100
AcDbLine
 10
109.17029418046
 20
-9.960434536502191
 11
103.9555568504985
 21
-3.856380891845049
  0
LINE
  5
282
100
AcDbEntity
  8
handle5
  6
ByLayer
 62
  256
370
   -1
100
AcDbLine
 10
104.7116174712513
 20
-1.985065189033833
 11
103.9555568504985
 21
-3.856380891845049
  0
LINE
  5
283
100
AcDbEntity
  8
handle5
  6
ByLayer
 62
  256
370
   -1
100
AcDbLine
 10
109.17029418046
 20
-9.960434536502191
 11
109.9794203537647
 21
-7.957776982200585
  0
LINE
  5
284
100
AcDbEntity
  8
handle5
  6
ByLayer
 62
  256
370
   -1
100
AcDbLine
 10
109.9794203537647
 20
-7.957776982200585
 11
112.4216861698059
 21
-7.758949239969468
  0
LINE
  5
285
100
AcDbEntity
  8
handle5
  6
ByLayer
 62
  256
370
   -1
100
AcDbLine
 10
111.9939655122843
 20
-8.817595016335758
 11
114.6782455815489
 21
-2.173768706011629
  0
LINE
  5
286
100
AcDbEntity
  8
handle5
  6
ByLayer
 62
  256
370
   -1
100
AcDbLine
 10
116.2493376284907
 20
-3.959223318377894
 11
114.6782455815489
 21
-2.173768706011629
  0
LINE
  5
287
100
AcDbEntity
  8
handle5
  6
ByLayer
 62
  256
370
   -1
100
AcDbLine
 10
104.7116174712513
 20
-1.985065189033833
 11
107.1538786467071
 21
-1.786236920052829
  0
LINE
  5
288
100
AcDbEntity
  8
handle5
  6
ByLayer
 62
  256
370
   -1
100
AcDbLine
 10
108.6673705166819
 20
-0.7062386419401605
 11
107.892614779278
 21
-2.623826382197365
  0
LINE
  5
289
100
AcDbEntity
  8
handle5
  6
ByLayer
 62
  256
370
   -1
100
AcDbLine
 10
107.1538786467071
 20
-1.786236920052829
 11
112.4216853269411
 21
-7.758951326133115
  0
LINE
  5
28A
100
AcDbEntity
  8
handle5
  6
ByLayer
 62
  256
370
   -1
100
AcDbLine
 10
100.7921514013549
 20
-3.174719659518757
 11
99.61098019452001
 21
-6.098220985189641
  0
LINE
  5
28B
100
AcDbEntity
  8
handle5
  6
ByLayer
 62
  256
370
   -1
100
AcDbLine
 10
102.3632387585522
 20
-4.960174534174655
 11
100.7921514013549
 21
-3.174719659518757
  0
LINE
  5
28C
100
AcDbEntity
  8
handle5
  6
ByLayer
 62
  256
370
   -1
100
AcDbLine
 10
102.7406452661998
 20
-1.188740727800848
 11
89.99194026981237
 21
-2.211876588252267
  0
LINE
  5
28D
100
AcDbEntity
  8
handle5
  6
ByLayer
 62
  256
370
   -1
100
AcDbLine
 10
91.91886915560835
 20
-2.990406393433204
 11
93.16635966202224
 21
-2.888847699750386
  0
LINE
  5
28E
100
AcDbEntity
  8
handle5
  6
ByLayer
 62
  256
370
   -1
100
AcDbLine
 10
93.99318040537472
 20
-3.828482538883691
 11
93.16635966202224
 21
-2.888847699750386
  0
LINE
  5
28F
100
AcDbEntity
  8
handle5
  6
ByLayer
 62
  256
370
   -1
100
AcDbLine
 10
93.99318040537472
 20
-3.828482538883691
 11
101.9845846454469
 21
-3.060056430612065
  0
LINE
  5
290
100
AcDbEntity
  8
handle5
  6
ByLayer
 62
  256
370
   -1
100
AcDbLine
 10
102.7406452661998
 20
-1.188740727800848
 11
101.9845846454469
 21
-3.060056430612065
  0
LINE
  5
291
100
AcDbEntity
  8
handle5
  6
ByLayer
 62
  256
370
   -1
100
AcDbLine
 10
93.99318040537472
 20
-3.828482538883691
 11
94.80230657867943
 21
-1.825824984582084
  0
LINE
  5
292
100
AcDbEntity
  8
handle5
  6
ByLayer
 62
  256
370
   -1
100
AcDbLine
 10
90.41021065289627
 20
-1.235869885580655
 11
92.75588450388912
 21
-1.044905754202887
  0
LINE
  5
293
100
AcDbEntity
  8
handle5
  6
ByLayer
 62
  256
370
   -1
100
AcDbLine
 10
113.5650559671481
 20
-10.6030535692334
 11
111.9939655122843
 21
-8.817595016335758
  0
LINE
  5
294
100
AcDbEntity
  8
handle5
  6
ByLayer
 62
  256
370
   -1
100
AcDbLine
 10
99.24340360312291
 20
-12.68203751220358
 11
111.9889441027728
 21
-11.64440863477762
  0
LINE
  5
295
100
AcDbEntity
  8
handle5
  6
ByLayer
 62
  256
370
   -1
100
AcDbLine
 10
102.4132098723775
 20
-10.5105362379208
 11
103.9841370196065
 21
-12.29580370022092
  0
LINE
  5
296
100
AcDbEntity
  8
handle5
  6
ByLayer
 62
  256
370
   -1
100
AcDbLine
 10
99.64307225533784
 20
-11.69279952754607
 11
102.0135139087159
 21
-11.4998184629431
  0
LINE
  5
297
100
AcDbEntity
  8
handle5
  6
ByLayer
 62
  256
370
   -1
100
AcDbLine
 10
102.0135139087159
 20
-11.4998184629431
 11
103.552498563642
 21
-7.690697775925969
  0
LINE
  5
298
100
AcDbEntity
  8
handle5
  6
ByLayer
 62
  256
370
   -1
100
AcDbLine
 10
92.21657245751956
 20
-30.07405490186267
 11
101.5817372929174
 21
-6.894458537692913
  0
LINE
  5
299
100
AcDbEntity
  8
handle5
  6
ByLayer
 62
  256
370
   -1
100
AcDbLine
 10
100.0510875400813
 20
-16.35699416874797
 11
97.33093130371364
 21
-23.08961710861996
  0
LINE
  5
29A
100
AcDbEntity
  8
handle5
  6
ByLayer
 62
  256
370
   -1
100
AcDbLine
 10
97.68065652815656
 20
-16.54997225266754
 11
100.0510875400813
 21
-16.35699416874797
  0
LINE
  5
29B
100
AcDbEntity
  8
handle5
  6
ByLayer
 62
  256
370
   -1
100
AcDbLine
 10
100.0290352408558
 20
-13.57486290752672
 11
108.4889563469394
 21
-23.16684100584337
  0
LINE
  5
29C
100
AcDbEntity
  8
handle5
  6
ByLayer
 62
  256
370
   -1
100
AcDbLine
 10
107.3063615914223
 20
-23.23420704865845
 11
105.7352024564782
 21
-21.44867356131226
  0
LINE
  5
29D
100
AcDbEntity
  8
handle5
  6
ByLayer
 62
  256
370
   -1
100
AcDbLine
 10
97.73062726737524
 20
-22.10033488359755
 11
105.7352024564782
 21
-21.44867356131226
  0
LINE
  5
29E
100
AcDbEntity
  8
handle5
  6
ByLayer
 62
  256
370
   -1
100
AcDbLine
 10
104.4877115754578
 20
-21.55023318217894
 11
99.27297424549633
 21
-15.4461795375218
  0
LINE
  5
29F
100
AcDbEntity
  8
handle5
  6
ByLayer
 62
  256
370
   -1
100
AcDbLine
 10
100.0290352408558
 20
-13.57486290752672
 11
99.27297424549633
 21
-15.4461795375218
  0
LINE
  5
2A0
100
AcDbEntity
  8
handle5
  6
ByLayer
 62
  256
370
   -1
100
AcDbLine
 10
104.4877115754578
 20
-21.55023318217894
 11
105.2968385916273
 21
-19.54757354171363
  0
LINE
  5
2A1
100
AcDbEntity
  8
handle5
  6
ByLayer
 62
  256
370
   -1
100
AcDbLine
 10
102.4132098723775
 20
-10.5105362379208
 11
109.17029418046
 21
-9.960434536502191
  0
LINE
  5
2A2
100
AcDbEntity
  8
handle5
  6
ByLayer
 62
  256
370
   -1
100
AcDbLine
 10
111.9889441027728
 20
-11.64440863477762
 11
111.2446093707577
 21
-10.79851227403071
  0
LINE
  5
2A3
100
AcDbEntity
  8
handle5
  6
ByLayer
 62
  256
370
   -1
100
AcDbLine
 10
105.2968385916273
 20
-19.54757354171363
 11
107.7391039394103
 21
-19.34874695846236
  0
LINE
  5
2A4
100
AcDbEntity
  8
handle5
  6
ByLayer
 62
  256
370
   -1
100
AcDbLine
 10
108.8660647774065
 20
-22.1742027162731
 11
107.3113833755404
 21
-20.40739250303272
  0
LINE
  5
2A5
100
AcDbEntity
  8
handle5
  6
ByLayer
 62
  256
370
   -1
100
AcDbLine
 10
107.3113833755404
 20
-20.40739250303272
 11
109.9956635384566
 21
-13.76356596091267
  0
LINE
  5
2A6
100
AcDbEntity
  8
handle5
  6
ByLayer
 62
  256
370
   -1
100
AcDbLine
 10
100.0290352408558
 20
-13.57486290752672
 11
102.4712964163114
 21
-13.37603463854578
  0
LINE
  5
2A7
100
AcDbEntity
  8
handle5
  6
ByLayer
 62
  256
370
   -1
100
AcDbLine
 10
103.9847882862863
 20
-12.29603636043311
 11
103.2100321742758
 21
-14.21362502787406
  0
LINE
  5
2A8
100
AcDbEntity
  8
handle5
  6
ByLayer
 62
  256
370
   -1
100
AcDbLine
 10
102.4712964163114
 20
-13.37603463854578
 11
107.7391030965455
 21
-19.348749044626
  0
LINE
  5
2A9
100
AcDbEntity
  8
handle5
  6
ByLayer
 62
  256
370
   -1
100
AcDbLine
 10
111.164771473862
 20
-13.68602394092585
 11
103.2100321742758
 21
-14.21362502787406
  0
LINE
  5
2AA
100
AcDbEntity
  8
handle5
  6
ByLayer
 62
  256
370
   -1
100
AcDbLine
 10
111.9896603434046
 20
-11.64435234439173
 11
111.164771473862
 21
-13.68602394092585
  0
LINE
  5
2AB
100
AcDbEntity
  8
handle5
  6
ByLayer
 62
  256
370
   -1
100
AcDbLine
 10
99.24340360312291
 20
-12.68203751220358
 11
90.7958266300304
 21
-3.081833368584398
  0
LINE
  5
2AC
100
AcDbEntity
  8
handle5
  6
ByLayer
 62
  256
370
   -1
100
AcDbLine
 10
98.47169150325541
 20
-8.918059447184532
 11
96.10151009662619
 21
-9.111015694862544
  0
LINE
  5
2AD
100
AcDbEntity
  8
handle5
  6
ByLayer
 62
  256
370
   -1
100
AcDbLine
 10
99.64309265338269
 20
-11.6928077688911
 11
98.07199553959381
 21
-9.907341672206769
  0
LINE
  5
2AE
100
AcDbEntity
  8
handle5
  6
ByLayer
 62
  256
370
   -1
100
AcDbLine
 10
98.07199553959381
 20
-9.907341672206769
 11
99.61098019452001
 21
-6.098220985189641
  0
LINE
  5
2AF
100
AcDbEntity
  8
handle5
  6
ByLayer
 62
  256
370
   -1
100
AcDbLine
 10
96.1095691709593
 20
-14.7645173780117
 11
93.3894129345916
 21
-21.49714031788363
  0
LINE
  5
2B0
100
AcDbEntity
  8
handle5
  6
ByLayer
 62
  256
370
   -1
100
AcDbLine
 10
97.68065652815656
 20
-16.54997225266754
 11
96.1095691709593
 21
-14.7645173780117
  0
LINE
  5
2B1
100
AcDbEntity
  8
handle5
  6
ByLayer
 62
  256
370
   -1
100
AcDbLine
 10
86.11324365042171
 20
-14.67163294144501
 11
88.48377743162663
 21
-14.47864541824327
  0
LINE
  5
2B2
100
AcDbEntity
  8
handle5
  6
ByLayer
 62
  256
370
   -1
100
AcDbLine
 10
93.7891088982532
 20
-20.50785809286128
 11
88.48377743162663
 21
-14.47864541824327
  0
LINE
  5
2B3
100
AcDbEntity
  8
handle5
  6
ByLayer
 62
  256
370
   -1
100
AcDbLine
 10
89.31059780037245
 20
-15.4182811845605
 11
97.30200204044471
 21
-14.64985507628882
  0
LINE
  5
2B4
100
AcDbEntity
  8
handle5
  6
ByLayer
 62
  256
370
   -1
100
AcDbLine
 10
98.05806303580417
 20
-12.77853844629374
 11
97.30200204044471
 21
-14.64985507628882
  0
LINE
  5
2B5
100
AcDbEntity
  8
handle5
  6
ByLayer
 62
  256
370
   -1
100
AcDbLine
 10
89.31059780037245
 20
-15.4182811845605
 11
90.11972481654206
 21
-13.41562154409519
  0
LINE
  5
2B6
100
AcDbEntity
  8
handle5
  6
ByLayer
 62
  256
370
   -1
100
AcDbLine
 10
98.47169150325541
 20
-8.918059447184532
 11
93.99318040537472
 21
-3.828482538883691
  0
LINE
  5
2B7
100
AcDbEntity
  8
handle5
  6
ByLayer
 62
  256
370
   -1
100
AcDbLine
 10
90.7958266300304
 20
-3.081833368584398
 11
91.91886915560835
 21
-2.990406393433204
  0
LINE
  5
2B8
100
AcDbEntity
  8
handle5
  6
ByLayer
 62
  256
370
   -1
100
AcDbLine
 10
90.11972481654206
 20
-13.41562154409519
 11
88.50102293101517
 21
-11.57605769632943
  0
LINE
  5
2B9
100
AcDbEntity
  8
handle5
  6
ByLayer
 62
  256
370
   -1
100
AcDbLine
 10
88.0733023671452
 20
-12.63470324089985
 11
90.75758234275813
 21
-5.990877162371646
  0
LINE
  5
2BA
100
AcDbEntity
  8
handle5
  6
ByLayer
 62
  256
370
   -1
100
AcDbLine
 10
98.05806303580417
 20
-12.77853844629374
 11
96.43936509080859
 21
-10.93897619060601
  0
LINE
  5
2BB
100
AcDbEntity
  8
handle5
  6
ByLayer
 62
  256
370
   -1
100
AcDbLine
 10
96.10087999521895
 20
-9.110730648762626
 11
95.32612388320851
 21
-11.02831931620364
  0
LINE
  5
2BC
100
AcDbEntity
  8
handle5
  6
ByLayer
 62
  256
370
   -1
100
AcDbLine
 10
96.43936509080859
 20
-10.93897619060601
 11
88.50102208815034
 21
-11.57605978249308
  0
LINE
  5
2BD
100
AcDbEntity
  8
handle5
  6
ByLayer
 62
  256
370
   -1
100
AcDbLine
 10
89.97046558321406
 20
-5.122968522731526
 11
95.32612388320851
 21
-11.02831931620364
  0
LINE
  5
2BE
100
AcDbEntity
  8
handle5
  6
ByLayer
 62
  256
370
   -1
100
AcDbLine
 10
90.79535445275653
 20
-3.081296926197467
 11
89.97046558321406
 21
-5.122968522731526
  0
LINE
  5
2BF
100
AcDbEntity
  8
handle5
  6
ByLayer
 62
  256
370
   -1
100
AcDbLine
 10
94.56082099812076
 20
-24.27183615788033
 11
107.3063615914223
 21
-23.23420704865845
  0
LINE
  5
2C0
100
AcDbEntity
  8
handle5
  6
ByLayer
 62
  256
370
   -1
100
AcDbLine
 10
97.73062726737524
 20
-22.10033488359755
 11
99.3015544146044
 21
-23.88560234589767
  0
LINE
  5
2C1
100
AcDbEntity
  8
handle5
  6
ByLayer
 62
  256
370
   -1
100
AcDbLine
 10
94.96048965033569
 20
-23.28259817322282
 11
97.33093130371364
 21
-23.08961710861996
  0
LINE
  5
2C2
100
AcDbEntity
  8
handle5
  6
ByLayer
 62
  256
370
   -1
100
AcDbLine
 10
95.36850493507913
 20
-27.94679281442478
 11
94.18733372824423
 21
-30.87029414009567
  0
LINE
  5
2C3
100
AcDbEntity
  8
handle5
  6
ByLayer
 62
  256
370
   -1
100
AcDbLine
 10
92.99807392315441
 20
-28.1397708983443
 11
95.36850493507913
 21
-27.94679281442478
  0
LINE
  5
2C4
100
AcDbEntity
  8
handle5
  6
ByLayer
 62
  256
370
   -1
100
AcDbLine
 10
95.34645263585358
 20
-25.16466155320353
 11
103.8063741165439
 21
-34.75663872433626
  0
LINE
  5
2C5
100
AcDbEntity
  8
handle5
  6
ByLayer
 62
  256
370
   -1
100
AcDbLine
 10
101.87944453536
 20
-33.97810863820041
 11
101.0526198514761
 21
-33.03847220698901
  0
LINE
  5
2C6
100
AcDbEntity
  8
handle5
  6
ByLayer
 62
  256
370
   -1
100
AcDbLine
 10
99.80512934506217
 20
-33.14003090067189
 11
101.0526198514761
 21
-33.03847220698901
  0
LINE
  5
2C7
100
AcDbEntity
  8
handle5
  6
ByLayer
 62
  256
370
   -1
100
AcDbLine
 10
99.80512934506217
 20
-33.14003090067189
 11
94.59039201510072
 21
-27.03597725601475
  0
LINE
  5
2C8
100
AcDbEntity
  8
handle5
  6
ByLayer
 62
  256
370
   -1
100
AcDbLine
 10
95.34645263585358
 20
-25.16466155320353
 11
94.59039201510072
 21
-27.03597725601475
  0
LINE
  5
2C9
100
AcDbEntity
  8
handle5
  6
ByLayer
 62
  256
370
   -1
100
AcDbLine
 10
99.80512934506217
 20
-33.14003090067189
 11
100.6142555183669
 21
-31.13737334637023
  0
LINE
  5
2CA
100
AcDbEntity
  8
handle5
  6
ByLayer
 62
  256
370
   -1
100
AcDbLine
 10
100.6142555183669
 20
-31.13737334637023
 11
103.0565213344081
 21
-30.93854560413916
  0
LINE
  5
2CB
100
AcDbEntity
  8
handle5
  6
ByLayer
 62
  256
370
   -1
100
AcDbLine
 10
102.6288006768865
 20
-31.99719138050546
 11
105.3130807461511
 21
-25.35336507018133
  0
LINE
  5
2CC
100
AcDbEntity
  8
handle5
  6
ByLayer
 62
  256
370
   -1
100
AcDbLine
 10
106.8841727930929
 20
-27.13881968254753
 11
105.3130807461511
 21
-25.35336507018133
  0
LINE
  5
2CD
100
AcDbEntity
  8
handle5
  6
ByLayer
 62
  256
370
   -1
100
AcDbLine
 10
95.34645263585358
 20
-25.16466155320353
 11
97.78871381130924
 21
-24.96583328422253
  0
LINE
  5
2CE
100
AcDbEntity
  8
handle5
  6
ByLayer
 62
  256
370
   -1
100
AcDbLine
 10
99.30220568128411
 20
-23.88583500610986
 11
98.52744994388021
 21
-25.80342274636706
  0
LINE
  5
2CF
100
AcDbEntity
  8
handle5
  6
ByLayer
 62
  256
370
   -1
100
AcDbLine
 10
97.78871381130924
 20
-24.96583328422253
 11
103.0565204915433
 21
-30.93854769030276
  0
LINE
  5
2D0
100
AcDbEntity
  8
handle5
  6
ByLayer
 62
  256
370
   -1
100
AcDbLine
 10
106.4821888688599
 20
-25.2758225866026
 11
98.52744994388021
 21
-25.80342274636706
  0
LINE
  5
2D1
100
AcDbEntity
  8
handle5
  6
ByLayer
 62
  256
370
   -1
100
AcDbLine
 10
107.3070778320539
 20
-23.23415075827256
 11
106.4821888688599
 21
-25.2758225866026
  0
LINE
  5
2D2
100
AcDbEntity
  8
handle5
  6
ByLayer
 62
  256
370
   -1
100
AcDbLine
 10
94.56082099812076
 20
-24.27183615788033
 11
86.11324411867994
 21
-14.67163178246523
  0
LINE
  5
2D3
100
AcDbEntity
  8
handle5
  6
ByLayer
 62
  256
370
   -1
100
AcDbLine
 10
93.7891088982532
 20
-20.50785809286128
 11
91.41892749162403
 21
-20.7008143405393
  0
LINE
  5
2D4
100
AcDbEntity
  8
handle5
  6
ByLayer
 62
  256
370
   -1
100
AcDbLine
 10
94.96051004838043
 20
-23.28260641456791
 11
93.3894129345916
 21
-21.49714031788363
  0
LINE
  5
2D5
100
AcDbEntity
  8
handle5
  6
ByLayer
 62
  256
370
   -1
100
AcDbLine
 10
91.42698656595709
 20
-26.35431602368845
 11
90.24581535912219
 21
-29.27781734935934
  0
LINE
  5
2D6
100
AcDbEntity
  8
handle5
  6
ByLayer
 62
  256
370
   -1
100
AcDbLine
 10
92.99807392315441
 20
-28.1397708983443
 11
91.42698656595709
 21
-26.35431602368845
  0
LINE
  5
2D7
100
AcDbEntity
  8
handle5
  6
ByLayer
 62
  256
370
   -1
100
AcDbLine
 10
93.37548043080201
 20
-24.36833709197049
 11
80.6267754344145
 21
-25.39147295242202
  0
LINE
  5
2D8
100
AcDbEntity
  8
handle5
  6
ByLayer
 62
  256
370
   -1
100
AcDbLine
 10
82.55370432021053
 20
-26.1700027576029
 11
83.80119482662442
 21
-26.06844406392003
  0
LINE
  5
2D9
100
AcDbEntity
  8
handle5
  6
ByLayer
 62
  256
370
   -1
100
AcDbLine
 10
84.6280155699769
 20
-27.00807890305339
 11
83.80119482662442
 21
-26.06844406392003
  0
LINE
  5
2DA
100
AcDbEntity
  8
handle5
  6
ByLayer
 62
  256
370
   -1
100
AcDbLine
 10
84.6280155699769
 20
-27.00807890305339
 11
92.6194198100491
 21
-26.23965279478176
  0
LINE
  5
2DB
100
AcDbEntity
  8
handle5
  6
ByLayer
 62
  256
370
   -1
100
AcDbLine
 10
93.37548043080201
 20
-24.36833709197049
 11
92.6194198100491
 21
-26.23965279478176
  0
LINE
  5
2DC
100
AcDbEntity
  8
handle5
  6
ByLayer
 62
  256
370
   -1
100
AcDbLine
 10
84.6280155699769
 20
-27.00807890305339
 11
85.43714174328167
 21
-25.00542134875178
  0
LINE
  5
2DD
100
AcDbEntity
  8
handle5
  6
ByLayer
 62
  256
370
   -1
100
AcDbLine
 10
85.43714174328167
 20
-25.00542134875178
 11
83.8184403260129
 21
-23.16585634200624
  0
LINE
  5
2DE
100
AcDbEntity
  8
handle5
  6
ByLayer
 62
  256
370
   -1
100
AcDbLine
 10
81.0450458174985
 20
-24.4154662497503
 11
83.39071966849136
 21
-24.22450211837253
  0
LINE
  5
2DF
100
AcDbEntity
  8
handle5
  6
ByLayer
 62
  256
370
   -1
100
AcDbLine
 10
83.39071966849136
 20
-24.22450211837253
 11
86.07499973775592
 21
-17.58067580804845
  0
LINE
  5
2E0
100
AcDbEntity
  8
handle5
  6
ByLayer
 62
  256
370
   -1
100
AcDbLine
 10
83.70457411096359
 20
-17.77365391063324
 11
86.07499973775592
 21
-17.58067580804845
  0
LINE
  5
2E1
100
AcDbEntity
  8
handle5
  6
ByLayer
 62
  256
370
   -1
100
AcDbLine
 10
93.37548043080201
 20
-24.36833709197049
 11
91.75678248580644
 21
-22.52877483628276
  0
LINE
  5
2E2
100
AcDbEntity
  8
handle5
  6
ByLayer
 62
  256
370
   -1
100
AcDbLine
 10
91.41829739021674
 20
-20.70052929443938
 11
90.6435416528129
 21
-22.61811703469658
  0
LINE
  5
2E3
100
AcDbEntity
  8
handle5
  6
ByLayer
 62
  256
370
   -1
100
AcDbLine
 10
91.75678248580644
 20
-22.52877483628276
 11
83.81843948314813
 21
-23.16585842816983
  0
LINE
  5
2E4
100
AcDbEntity
  8
handle5
  6
ByLayer
 62
  256
370
   -1
100
AcDbLine
 10
85.28788297821191
 20
-16.71276716840828
 11
90.6435416528129
 21
-22.61811703469658
  0
LINE
  5
2E5
100
AcDbEntity
  8
handle5
  6
ByLayer
 62
  256
370
   -1
100
AcDbLine
 10
86.11277194140601
 20
-14.67109534007824
 11
85.28788297821191
 21
-16.71276716840828
  0
LINE
  5
2E6
100
AcDbEntity
  8
handle5
  6
ByLayer
 62
  256
370
   -1
100
AcDbLine
 10
103.8063741165439
 20
-34.75663872433626
 11
113.1715389519416
 21
-11.57704236016656
  0
LINE
  5
2E7
100
AcDbEntity
  8
handle5
  6
ByLayer
 62
  256
370
   -1
100
AcDbLine
 10
85.70287589748804
 20
-12.82768342964829
 11
88.0733023671452
 21
-12.63470324089985
  0
LINE
  5
2E8
100
AcDbEntity
  8
handle5
  6
ByLayer
 62
  256
370
   -1
100
AcDbLine
 10
98.05806303580417
 20
-12.77853844629374
 11
85.30935766481011
 21
-13.80167523392907
  0
LINE
  5
2E9
100
AcDbEntity
  8
handle5
  6
ByLayer
 62
  256
370
   -1
100
AcDbLine
 10
88.38715671596586
 20
-6.183855264956492
 11
90.75758234275813
 21
-5.990877162371646
  0
LINE
  5
2EA
100
AcDbEntity
  8
handle5
  6
ByLayer
 62
  256
370
   -1
100
AcDbLine
 10
104.1998911317503
 20
-33.78264993340304
 11
102.6288006768865
 21
-31.99719138050546
  0
LINE
  5
2EB
100
AcDbEntity
  8
handle5
  6
ByLayer
 62
  256
370
   -1
100
AcDbLine
 10
111.5667553044435
 20
-15.54902126866671
 11
109.9956635384566
 21
-13.76356596091267
  0
LINE
  5
2EC
100
AcDbEntity
  8
handle5
  6
ByLayer
 62
  256
370
   -1
100
AcDbLine
 10
89.87823876772515
 20
-35.86163387637322
 11
102.6237792673751
 21
-34.82400499894726
  0
LINE
  5
2ED
100
AcDbEntity
  8
handle5
  6
ByLayer
 62
  256
370
   -1
100
AcDbLine
 10
93.04804503697969
 20
-33.69013260209044
 11
94.61897218420873
 21
-35.47540006439061
  0
LINE
  5
2EE
100
AcDbEntity
  8
handle5
  6
ByLayer
 62
  256
370
   -1
100
AcDbLine
 10
90.27790741994008
 20
-34.87239589171571
 11
92.64834907331809
 21
-34.67941482711279
  0
LINE
  5
2EF
100
AcDbEntity
  8
handle5
  6
ByLayer
 62
  256
370
   -1
100
AcDbLine
 10
92.64834907331809
 20
-34.67941482711279
 11
94.18733372824423
 21
-30.87029414009567
  0
LINE
  5
2F0
100
AcDbEntity
  8
handle5
  6
ByLayer
 62
  256
370
   -1
100
AcDbLine
 10
82.85140762212174
 20
-53.25365126603236
 11
92.21657245751956
 21
-30.07405490186267
  0
LINE
  5
2F1
100
AcDbEntity
  8
handle5
  6
ByLayer
 62
  256
370
   -1
100
AcDbLine
 10
90.68592270468352
 20
-39.53659053291761
 11
87.96576646831588
 21
-46.26921347278966
  0
LINE
  5
2F2
100
AcDbEntity
  8
handle5
  6
ByLayer
 62
  256
370
   -1
100
AcDbLine
 10
88.3154916927588
 20
-39.72956861683718
 11
90.68592270468352
 21
-39.53659053291761
  0
LINE
  5
2F3
100
AcDbEntity
  8
handle5
  6
ByLayer
 62
  256
370
   -1
100
AcDbLine
 10
90.66387040545797
 20
-36.75445927169636
 11
99.12379151154167
 21
-46.34643737001301
  0
LINE
  5
2F4
100
AcDbEntity
  8
handle5
  6
ByLayer
 62
  256
370
   -1
100
AcDbLine
 10
97.94119675602448
 20
-46.41380341282814
 11
96.37003762108046
 21
-44.6282699254819
  0
LINE
  5
2F5
100
AcDbEntity
  8
handle5
  6
ByLayer
 62
  256
370
   -1
100
AcDbLine
 10
88.36546243197742
 20
-45.27993124776725
 11
96.37003762108046
 21
-44.6282699254819
  0
LINE
  5
2F6
100
AcDbEntity
  8
handle5
  6
ByLayer
 62
  256
370
   -1
100
AcDbLine
 10
95.12254674006002
 20
-44.72982954634864
 11
89.90780941009851
 21
-38.6257759016915
  0
LINE
  5
2F7
100
AcDbEntity
  8
handle5
  6
ByLayer
 62
  256
370
   -1
100
AcDbLine
 10
90.66387040545797
 20
-36.75445927169636
 11
89.90780941009851
 21
-38.6257759016915
  0
LINE
  5
2F8
100
AcDbEntity
  8
handle5
  6
ByLayer
 62
  256
370
   -1
100
AcDbLine
 10
95.12254674006002
 20
-44.72982954634864
 11
95.93167375622957
 21
-42.72716990588327
  0
LINE
  5
2F9
100
AcDbEntity
  8
handle5
  6
ByLayer
 62
  256
370
   -1
100
AcDbLine
 10
93.04804503697969
 20
-33.69013260209044
 11
99.80512934506217
 21
-33.14003090067189
  0
LINE
  5
2FA
100
AcDbEntity
  8
handle5
  6
ByLayer
 62
  256
370
   -1
100
AcDbLine
 10
102.6237792673751
 20
-34.82400499894726
 11
101.87944453536
 21
-33.97810863820041
  0
LINE
  5
2FB
100
AcDbEntity
  8
handle5
  6
ByLayer
 62
  256
370
   -1
100
AcDbLine
 10
95.93167375622957
 20
-42.72716990588327
 11
98.37393910401252
 21
-42.528343322632
  0
LINE
  5
2FC
100
AcDbEntity
  8
handle5
  6
ByLayer
 62
  256
370
   -1
100
AcDbLine
 10
99.50089994200877
 20
-45.3537990804428
 11
97.94621854014255
 21
-43.58698886720236
  0
LINE
  5
2FD
100
AcDbEntity
  8
handle5
  6
ByLayer
 62
  256
370
   -1
100
AcDbLine
 10
97.94621854014255
 20
-43.58698886720236
 11
100.6304987030588
 21
-36.94316232508226
  0
LINE
  5
2FE
100
AcDbEntity
  8
handle5
  6
ByLayer
 62
  256
370
   -1
100
AcDbLine
 10
90.66387040545797
 20
-36.75445927169636
 11
93.10613158091363
 21
-36.55563100271542
  0
LINE
  5
2FF
100
AcDbEntity
  8
handle5
  6
ByLayer
 62
  256
370
   -1
100
AcDbLine
 10
94.6196234508885
 20
-35.4756327246028
 11
93.844867338878
 21
-37.39322139204381
  0
LINE
  5
300
100
AcDbEntity
  8
handle5
  6
ByLayer
 62
  256
370
   -1
100
AcDbLine
 10
93.10613158091363
 20
-36.55563100271542
 11
98.37393826114769
 21
-42.5283454087957
  0
LINE
  5
301
100
AcDbEntity
  8
handle5
  6
ByLayer
 62
  256
370
   -1
100
AcDbLine
 10
101.7996066384642
 20
-36.86562030509555
 11
93.844867338878
 21
-37.39322139204381
  0
LINE
  5
302
100
AcDbEntity
  8
handle5
  6
ByLayer
 62
  256
370
   -1
100
AcDbLine
 10
102.6244955080067
 20
-34.82394870856143
 11
101.7996066384642
 21
-36.86562030509555
  0
LINE
  5
303
100
AcDbEntity
  8
handle5
  6
ByLayer
 62
  256
370
   -1
100
AcDbLine
 10
89.87823876772515
 20
-35.86163387637322
 11
81.43066179463264
 21
-26.2614297327541
  0
LINE
  5
304
100
AcDbEntity
  8
handle5
  6
ByLayer
 62
  256
370
   -1
100
AcDbLine
 10
89.10652666785765
 20
-32.09765581135417
 11
86.73634526122837
 21
-32.29061205903224
  0
LINE
  5
305
100
AcDbEntity
  8
handle5
  6
ByLayer
 62
  256
370
   -1
100
AcDbLine
 10
90.27792781798487
 20
-34.8724041330608
 11
88.70683070419605
 21
-33.08693803637652
  0
LINE
  5
306
100
AcDbEntity
  8
handle5
  6
ByLayer
 62
  256
370
   -1
100
AcDbLine
 10
88.70683070419605
 20
-33.08693803637652
 11
90.24581535912219
 21
-29.27781734935934
  0
LINE
  5
307
100
AcDbEntity
  8
handle5
  6
ByLayer
 62
  256
370
   -1
100
AcDbLine
 10
86.74440433556148
 20
-37.9441137421814
 11
84.02424809919384
 21
-44.67673668205333
  0
LINE
  5
308
100
AcDbEntity
  8
handle5
  6
ByLayer
 62
  256
370
   -1
100
AcDbLine
 10
88.3154916927588
 20
-39.72956861683718
 11
86.74440433556148
 21
-37.9441137421814
  0
LINE
  5
309
100
AcDbEntity
  8
handle5
  6
ByLayer
 62
  256
370
   -1
100
AcDbLine
 10
84.42394406285544
 20
-43.68745445703092
 11
79.11861259622881
 21
-37.65824178241297
  0
LINE
  5
30A
100
AcDbEntity
  8
handle5
  6
ByLayer
 62
  256
370
   -1
100
AcDbLine
 10
79.94543296497469
 20
-38.5978775487302
 11
87.93683720504688
 21
-37.82945144045851
  0
LINE
  5
30B
100
AcDbEntity
  8
handle5
  6
ByLayer
 62
  256
370
   -1
100
AcDbLine
 10
88.69289820040635
 20
-35.95813481046338
 11
87.93683720504688
 21
-37.82945144045851
  0
LINE
  5
30C
100
AcDbEntity
  8
handle5
  6
ByLayer
 62
  256
370
   -1
100
AcDbLine
 10
79.94543296497469
 20
-38.5978775487302
 11
80.7545599811443
 21
-36.59521790826483
  0
LINE
  5
30D
100
AcDbEntity
  8
handle5
  6
ByLayer
 62
  256
370
   -1
100
AcDbLine
 10
89.10652666785765
 20
-32.09765581135417
 11
84.6280155699769
 21
-27.00807890305339
  0
LINE
  5
30E
100
AcDbEntity
  8
handle5
  6
ByLayer
 62
  256
370
   -1
100
AcDbLine
 10
81.43066179463264
 20
-26.2614297327541
 11
82.55370432021053
 21
-26.1700027576029
  0
LINE
  5
30F
100
AcDbEntity
  8
handle5
  6
ByLayer
 62
  256
370
   -1
100
AcDbLine
 10
80.7545599811443
 20
-36.59521790826483
 11
79.13585809561741
 21
-34.75565406049913
  0
LINE
  5
310
100
AcDbEntity
  8
handle5
  6
ByLayer
 62
  256
370
   -1
100
AcDbLine
 10
78.70813753174738
 20
-35.81429960506949
 11
81.39241750736031
 21
-29.17047352654134
  0
LINE
  5
311
100
AcDbEntity
  8
handle5
  6
ByLayer
 62
  256
370
   -1
100
AcDbLine
 10
88.69289820040635
 20
-35.95813481046338
 11
87.07420025541083
 21
-34.11857255477565
  0
LINE
  5
312
100
AcDbEntity
  8
handle5
  6
ByLayer
 62
  256
370
   -1
100
AcDbLine
 10
86.73571515982118
 20
-32.29032701293232
 11
85.96095904781069
 21
-34.20791568037333
  0
LINE
  5
313
100
AcDbEntity
  8
handle5
  6
ByLayer
 62
  256
370
   -1
100
AcDbLine
 10
87.07420025541083
 20
-34.11857255477565
 11
79.13585725275252
 21
-34.75565614666283
  0
LINE
  5
314
100
AcDbEntity
  8
handle5
  6
ByLayer
 62
  256
370
   -1
100
AcDbLine
 10
80.6053007478163
 20
-28.30256488690117
 11
85.96095904781069
 21
-34.20791568037333
  0
LINE
  5
315
100
AcDbEntity
  8
handle5
  6
ByLayer
 62
  256
370
   -1
100
AcDbLine
 10
81.43018961735876
 20
-26.26089329036716
 11
80.6053007478163
 21
-28.30256488690117
  0
LINE
  5
316
100
AcDbEntity
  8
handle5
  6
ByLayer
 62
  256
370
   -1
100
AcDbLine
 10
85.19565616272294
 20
-47.45143252204997
 11
97.94119675602448
 21
-46.41380341282814
  0
LINE
  5
317
100
AcDbEntity
  8
handle5
  6
ByLayer
 62
  256
370
   -1
100
AcDbLine
 10
88.36546243197742
 20
-45.27993124776725
 11
89.93638957920658
 21
-47.06519871006736
  0
LINE
  5
318
100
AcDbEntity
  8
handle5
  6
ByLayer
 62
  256
370
   -1
100
AcDbLine
 10
85.59532481493792
 20
-46.46219453739246
 11
87.96576646831588
 21
-46.26921347278966
  0
LINE
  5
319
100
AcDbEntity
  8
handle5
  6
ByLayer
 62
  256
370
   -1
100
AcDbLine
 10
86.00334009968131
 20
-51.12638917859448
 11
84.82216889284641
 21
-54.04989050426531
  0
LINE
  5
31A
100
AcDbEntity
  8
handle5
  6
ByLayer
 62
  256
370
   -1
100
AcDbLine
 10
83.63290908775664
 20
-51.31936726251394
 11
86.00334009968131
 21
-51.12638917859448
  0
LINE
  5
31B
100
AcDbEntity
  8
handle5
  6
ByLayer
 62
  256
370
   -1
100
AcDbLine
 10
85.98128780045582
 20
-48.34425791737323
 11
94.44120928114612
 21
-57.93623508850595
  0
LINE
  5
31C
100
AcDbEntity
  8
handle5
  6
ByLayer
 62
  256
370
   -1
100
AcDbLine
 10
92.51427969996215
 20
-57.15770500237005
 11
91.68745501607825
 21
-56.21806857115865
  0
LINE
  5
31D
100
AcDbEntity
  8
handle5
  6
ByLayer
 62
  256
370
   -1
100
AcDbLine
 10
90.43996450966441
 20
-56.31962726484147
 11
91.68745501607825
 21
-56.21806857115865
  0
LINE
  5
31E
100
AcDbEntity
  8
handle5
  6
ByLayer
 62
  256
370
   -1
100
AcDbLine
 10
90.43996450966441
 20
-56.31962726484147
 11
85.22522717970296
 21
-50.21557362018433
  0
LINE
  5
31F
100
AcDbEntity
  8
handle5
  6
ByLayer
 62
  256
370
   -1
100
AcDbLine
 10
85.98128780045582
 20
-48.34425791737323
 11
85.22522717970296
 21
-50.21557362018433
  0
LINE
  5
320
100
AcDbEntity
  8
handle5
  6
ByLayer
 62
  256
370
   -1
100
AcDbLine
 10
90.43996450966441
 20
-56.31962726484147
 11
91.24909068296913
 21
-54.31696971053992
  0
LINE
  5
321
100
AcDbEntity
  8
handle5
  6
ByLayer
 62
  256
370
   -1
100
AcDbLine
 10
91.24909068296913
 20
-54.31696971053992
 11
93.69135649901037
 21
-54.11814196830875
  0
LINE
  5
322
100
AcDbEntity
  8
handle5
  6
ByLayer
 62
  256
370
   -1
100
AcDbLine
 10
93.26363584148871
 20
-55.1767877446751
 11
95.94791591075327
 21
-48.53296143435108
  0
LINE
  5
323
100
AcDbEntity
  8
handle5
  6
ByLayer
 62
  256
370
   -1
100
AcDbLine
 10
97.51900795769515
 20
-50.31841604671723
 11
95.94791591075327
 21
-48.53296143435108
  0
LINE
  5
324
100
AcDbEntity
  8
handle5
  6
ByLayer
 62
  256
370
   -1
100
AcDbLine
 10
85.98128780045582
 20
-48.34425791737323
 11
88.42354897591136
 21
-48.14542964839228
  0
LINE
  5
325
100
AcDbEntity
  8
handle5
  6
ByLayer
 62
  256
370
   -1
100
AcDbLine
 10
89.93704084588629
 20
-47.06543137027955
 11
89.16228510848245
 21
-48.98301911053676
  0
LINE
  5
326
100
AcDbEntity
  8
handle5
  6
ByLayer
 62
  256
370
   -1
100
AcDbLine
 10
88.42354897591136
 20
-48.14542964839228
 11
93.69135565614553
 21
-54.11814405447245
  0
LINE
  5
327
100
AcDbEntity
  8
handle5
  6
ByLayer
 62
  256
370
   -1
100
AcDbLine
 10
97.11702403346206
 20
-48.4554189507723
 11
89.16228510848245
 21
-48.98301911053676
  0
LINE
  5
328
100
AcDbEntity
  8
handle5
  6
ByLayer
 62
  256
370
   -1
100
AcDbLine
 10
97.94191299665616
 20
-46.4137471224422
 11
97.11702403346206
 21
-48.4554189507723
  0
LINE
  5
329
100
AcDbEntity
  8
handle5
  6
ByLayer
 62
  256
370
   -1
100
AcDbLine
 10
84.42394406285544
 20
-43.68745445703092
 11
82.05376265622621
 21
-43.88041070470894
  0
LINE
  5
32A
100
AcDbEntity
  8
handle5
  6
ByLayer
 62
  256
370
   -1
100
AcDbLine
 10
85.59534521298272
 20
-46.46220277873755
 11
84.02424809919384
 21
-44.67673668205333
  0
LINE
  5
32B
100
AcDbEntity
  8
handle5
  6
ByLayer
 62
  256
370
   -1
100
AcDbLine
 10
82.06182173055927
 20
-49.53391238785815
 11
80.88065052372443
 21
-52.45741371352898
  0
LINE
  5
32C
100
AcDbEntity
  8
handle5
  6
ByLayer
 62
  256
370
   -1
100
AcDbLine
 10
83.63290908775664
 20
-51.31936726251394
 11
82.06182173055927
 21
-49.53391238785815
  0
LINE
  5
32D
100
AcDbEntity
  8
handle5
  6
ByLayer
 62
  256
370
   -1
100
AcDbLine
 10
84.01031559540419
 20
-47.54793345614013
 11
83.25425497465127
 21
-49.41924915895135
  0
LINE
  5
32E
100
AcDbEntity
  8
handle5
  6
ByLayer
 62
  256
370
   -1
100
AcDbLine
 10
84.01031559540419
 20
-47.54793345614013
 11
82.39161765040862
 21
-45.70837120045252
  0
LINE
  5
32F
100
AcDbEntity
  8
handle5
  6
ByLayer
 62
  256
370
   -1
100
AcDbLine
 10
82.05313255481897
 20
-43.88012565860907
 11
81.27837681741514
 21
-45.79771339886628
  0
LINE
  5
330
100
AcDbEntity
  8
handle5
  6
ByLayer
 62
  256
370
   -1
100
AcDbLine
 10
94.44120928114612
 20
-57.93623508850595
 11
103.8063741165439
 21
-34.75663872433626
  0
LINE
  5
331
100
AcDbEntity
  8
handle5
  6
ByLayer
 62
  256
370
   -1
100
AcDbLine
 10
79.02199188056798
 20
-29.36345162912619
 11
81.39241750736031
 21
-29.17047352654134
  0
LINE
  5
332
100
AcDbEntity
  8
handle5
  6
ByLayer
 62
  256
370
   -1
100
AcDbLine
 10
94.83472629635256
 20
-56.96224629757268
 11
93.26363584148871
 21
-55.1767877446751
  0
LINE
  5
333
100
AcDbEntity
  8
handle5
  6
ByLayer
 62
  256
370
   -1
100
AcDbLine
 10
102.2015904690457
 20
-38.72861763283646
 11
100.6304987030588
 21
-36.94316232508226
  0
LINE
  5
334
100
AcDbEntity
  8
handle5
  6
ByLayer
 62
  256
370
   -1
100
AcDbLine
 10
80.51307393232733
 20
-59.04123024054292
 11
93.25861443197729
 21
-58.00360136311696
  0
LINE
  5
335
100
AcDbEntity
  8
handle5
  6
ByLayer
 62
  256
370
   -1
100
AcDbLine
 10
83.68288020158181
 20
-56.8697289662602
 11
85.25380734881097
 21
-58.65499642856031
  0
LINE
  5
336
100
AcDbEntity
  8
handle5
  6
ByLayer
 62
  256
370
   -1
100
AcDbLine
 10
80.91274258454226
 20
-58.05199225588541
 11
83.28318423792027
 21
-57.85901119128249
  0
LINE
  5
337
100
AcDbEntity
  8
handle5
  6
ByLayer
 62
  256
370
   -1
100
AcDbLine
 10
83.28318423792027
 20
-57.85901119128249
 11
84.82216889284641
 21
-54.04989050426531
  0
LINE
  5
338
100
AcDbEntity
  8
handle5
  6
ByLayer
 62
  256
370
   -1
100
AcDbLine
 10
81.32075786928576
 20
-62.71618689708731
 11
78.60060163291806
 21
-69.44880983695924
  0
LINE
  5
339
100
AcDbEntity
  8
handle5
  6
ByLayer
 62
  256
370
   -1
100
AcDbLine
 10
78.95032685736098
 20
-62.90916498100688
 11
81.32075786928576
 21
-62.71618689708731
  0
LINE
  5
33A
100
AcDbEntity
  8
handle5
  6
ByLayer
 62
  256
370
   -1
100
AcDbLine
 10
81.29870557006021
 20
-59.93405563586606
 11
89.75862667614385
 21
-69.5260337341827
  0
LINE
  5
33B
100
AcDbEntity
  8
handle5
  6
ByLayer
 62
  256
370
   -1
100
AcDbLine
 10
88.57603192062672
 20
-69.59339977699773
 11
87.00487278568269
 21
-67.8078662896516
  0
LINE
  5
33C
100
AcDbEntity
  8
handle5
  6
ByLayer
 62
  256
370
   -1
100
AcDbLine
 10
79.00029759657966
 20
-68.45952761193695
 11
87.00487278568269
 21
-67.8078662896516
  0
LINE
  5
33D
100
AcDbEntity
  8
handle5
  6
ByLayer
 62
  256
370
   -1
100
AcDbLine
 10
85.7573819046622
 20
-67.90942591051834
 11
80.54264457470069
 21
-61.80537226586119
  0
LINE
  5
33E
100
AcDbEntity
  8
handle5
  6
ByLayer
 62
  256
370
   -1
100
AcDbLine
 10
81.29870557006021
 20
-59.93405563586606
 11
80.54264457470069
 21
-61.80537226586119
  0
LINE
  5
33F
100
AcDbEntity
  8
handle5
  6
ByLayer
 62
  256
370
   -1
100
AcDbLine
 10
85.7573819046622
 20
-67.90942591051834
 11
86.56650892083181
 21
-65.90676627005297
  0
LINE
  5
340
100
AcDbEntity
  8
handle5
  6
ByLayer
 62
  256
370
   -1
100
AcDbLine
 10
83.68288020158181
 20
-56.8697289662602
 11
90.43996450966441
 21
-56.31962726484147
  0
LINE
  5
341
100
AcDbEntity
  8
handle5
  6
ByLayer
 62
  256
370
   -1
100
AcDbLine
 10
93.25861443197729
 20
-58.00360136311696
 11
92.51427969996215
 21
-57.15770500237005
  0
LINE
  5
342
100
AcDbEntity
  8
handle5
  6
ByLayer
 62
  256
370
   -1
100
AcDbLine
 10
86.56650892083181
 20
-65.90676627005297
 11
89.00877426861476
 21
-65.70793968680169
  0
LINE
  5
343
100
AcDbEntity
  8
handle5
  6
ByLayer
 62
  256
370
   -1
100
AcDbLine
 10
90.13573510661101
 20
-68.53339544461249
 11
88.58105370474473
 21
-66.76658523137218
  0
LINE
  5
344
100
AcDbEntity
  8
handle5
  6
ByLayer
 62
  256
370
   -1
100
AcDbLine
 10
88.58105370474473
 20
-66.76658523137218
 11
91.26533386766104
 21
-60.12275868925195
  0
LINE
  5
345
100
AcDbEntity
  8
handle5
  6
ByLayer
 62
  256
370
   -1
100
AcDbLine
 10
81.29870557006021
 20
-59.93405563586606
 11
83.74096674551581
 21
-59.73522736688511
  0
LINE
  5
346
100
AcDbEntity
  8
handle5
  6
ByLayer
 62
  256
370
   -1
100
AcDbLine
 10
85.25445861549073
 20
-58.65522908877239
 11
84.47970250348024
 21
-60.57281775621351
  0
LINE
  5
347
100
AcDbEntity
  8
handle5
  6
ByLayer
 62
  256
370
   -1
100
AcDbLine
 10
83.74096674551581
 20
-59.73522736688511
 11
89.00877342574992
 21
-65.70794177296537
  0
LINE
  5
348
100
AcDbEntity
  8
handle5
  6
ByLayer
 62
  256
370
   -1
100
AcDbLine
 10
92.43444180306645
 20
-60.04521666926524
 11
84.47970250348024
 21
-60.57281775621351
  0
LINE
  5
349
100
AcDbEntity
  8
handle5
  6
ByLayer
 62
  256
370
   -1
100
AcDbLine
 10
93.25933067260891
 20
-58.00354507273113
 11
92.43444180306645
 21
-60.04521666926524
  0
LINE
  5
34A
100
AcDbEntity
  8
handle5
  6
ByLayer
 62
  256
370
   -1
100
AcDbLine
 10
79.74136183245977
 20
-55.27725217552387
 11
77.3711804258306
 21
-55.47020842320188
  0
LINE
  5
34B
100
AcDbEntity
  8
handle5
  6
ByLayer
 62
  256
370
   -1
100
AcDbLine
 10
80.91276298258711
 20
-58.05200049723038
 11
79.34166586879823
 21
-56.26653440054628
  0
LINE
  5
34C
100
AcDbEntity
  8
handle5
  6
ByLayer
 62
  256
370
   -1
100
AcDbLine
 10
79.34166586879823
 20
-56.26653440054628
 11
80.88065052372443
 21
-52.45741371352898
  0
LINE
  5
34D
100
AcDbEntity
  8
handle5
  6
ByLayer
 62
  256
370
   -1
100
AcDbLine
 10
78.95032685736098
 20
-62.90916498100688
 11
77.37923950016372
 21
-61.12371010635098
  0
LINE
  5
34E
100
AcDbEntity
  8
handle5
  6
ByLayer
 62
  256
370
   -1
100
AcDbLine
 10
79.32773336500858
 20
-59.13773117463307
 11
78.57167236964912
 21
-61.0090478046281
  0
LINE
  5
34F
100
AcDbEntity
  8
handle5
  6
ByLayer
 62
  256
370
   -1
100
AcDbLine
 10
79.32773336500858
 20
-59.13773117463307
 11
77.70903542001301
 21
-57.29816891894535
  0
LINE
  5
350
100
AcDbEntity
  8
handle5
  6
ByLayer
 62
  256
370
   -1
100
AcDbLine
 10
79.00029759657966
 20
-68.45952761193695
 11
80.57122474380876
 21
-70.24479507423706
  0
LINE
  5
351
100
AcDbEntity
  8
handle5
  6
ByLayer
 62
  256
370
   -1
100
AcDbLine
 10
88.15384312229739
 20
-73.4980124108869
 11
86.5827510753555
 21
-71.71255779852066
  0
LINE
  5
352
100
AcDbEntity
  8
handle5
  6
ByLayer
 62
  256
370
   -1
100
AcDbLine
 10
80.57187601048852
 20
-70.24502773444914
 11
79.79712027308469
 21
-72.16261547470634
  0
LINE
  5
353
100
AcDbEntity
  8
handle5
  6
ByLayer
 62
  256
370
   -1
100
AcDbLine
 10
87.75185919806424
 20
-71.635015314942
 11
79.79712027308469
 21
-72.16261547470634
  0
LINE
  5
354
100
AcDbEntity
  8
handle5
  6
ByLayer
 62
  256
370
   -1
100
AcDbLine
 10
88.57674816125839
 20
-69.5933434866119
 11
87.75185919806424
 21
-71.635015314942
  0
LINE
  5
355
100
AcDbEntity
  8
handle5
  6
ByLayer
 62
  256
370
   -1
100
AcDbLine
 10
92.83642563364791
 20
-61.90821399700604
 11
91.26533386766104
 21
-60.12275868925195
  0
LINE
  5
356
100
AcDbEntity
  8
handle5
  6
ByLayer
 62
  256
370
   -1
100
AcDbLine
 10
88.0650106886284
 20
-1.433346502116422
 11
87.23818600474456
 21
-0.493710070905081
  0
LINE
  5
357
100
AcDbEntity
  8
handle5
  6
ByLayer
 62
  256
370
   -1
100
AcDbLine
 10
85.99069549833067
 20
-0.5952687645878996
 11
87.23818600474456
 21
-0.493710070905081
  0
LINE
  5
358
100
AcDbEntity
  8
handle5
  6
ByLayer
 62
  256
370
   -1
100
AcDbLine
 10
76.06380492099353
 20
-3.316871740289287
 11
88.80934542064355
 21
-2.279242862863327
  0
LINE
  5
359
100
AcDbEntity
  8
handle5
  6
ByLayer
 62
  256
370
   -1
100
AcDbLine
 10
79.23361119024807
 20
-1.145370466006568
 11
80.80453833747723
 21
-2.930637928306624
  0
LINE
  5
35A
100
AcDbEntity
  8
handle5
  6
ByLayer
 62
  256
370
   -1
100
AcDbLine
 10
76.46347357320852
 20
-2.32763375563178
 11
78.83391522658658
 21
-2.134652691028805
  0
LINE
  5
35B
100
AcDbEntity
  8
handle5
  6
ByLayer
 62
  256
370
   -1
100
AcDbLine
 10
74.50105784602724
 20
-7.184806480753252
 11
76.87148885795202
 21
-6.991828396833739
  0
LINE
  5
35C
100
AcDbEntity
  8
handle5
  6
ByLayer
 62
  256
370
   -1
100
AcDbLine
 10
76.84943655872647
 20
-4.209697135612487
 11
85.30935766481011
 21
-13.80167523392907
  0
LINE
  5
35D
100
AcDbEntity
  8
handle5
  6
ByLayer
 62
  256
370
   -1
100
AcDbLine
 10
84.12676290929292
 20
-13.86904127674416
 11
82.55560377434895
 21
-12.08350778939797
  0
LINE
  5
35E
100
AcDbEntity
  8
handle5
  6
ByLayer
 62
  256
370
   -1
100
AcDbLine
 10
81.30811289332846
 20
-12.18506741026471
 11
76.093375563367
 21
-6.081013765607509
  0
LINE
  5
35F
100
AcDbEntity
  8
handle5
  6
ByLayer
 62
  256
370
   -1
100
AcDbLine
 10
76.84943655872647
 20
-4.209697135612487
 11
76.093375563367
 21
-6.081013765607509
  0
LINE
  5
360
100
AcDbEntity
  8
handle5
  6
ByLayer
 62
  256
370
   -1
100
AcDbLine
 10
81.30811289332846
 20
-12.18506741026471
 11
82.11723990949807
 21
-10.18240776979934
  0
LINE
  5
361
100
AcDbEntity
  8
handle5
  6
ByLayer
 62
  256
370
   -1
100
AcDbLine
 10
79.23361119024807
 20
-1.145370466006568
 11
85.99069549833067
 21
-0.5952687645878996
  0
LINE
  5
362
100
AcDbEntity
  8
handle5
  6
ByLayer
 62
  256
370
   -1
100
AcDbLine
 10
88.80934542064355
 20
-2.279242862863327
 11
88.0650106886284
 21
-1.433346502116422
  0
LINE
  5
363
100
AcDbEntity
  8
handle5
  6
ByLayer
 62
  256
370
   -1
100
AcDbLine
 10
82.11723990949807
 20
-10.18240776979934
 11
84.55950525728102
 21
-9.983581186548122
  0
LINE
  5
364
100
AcDbEntity
  8
handle5
  6
ByLayer
 62
  256
370
   -1
100
AcDbLine
 10
85.68646609527721
 20
-12.80903694435887
 11
84.13178469341105
 21
-11.04222673111849
  0
LINE
  5
365
100
AcDbEntity
  8
handle5
  6
ByLayer
 62
  256
370
   -1
100
AcDbLine
 10
84.13178469341105
 20
-11.04222673111849
 11
86.8160648563273
 21
-4.39840018899838
  0
LINE
  5
366
100
AcDbEntity
  8
handle5
  6
ByLayer
 62
  256
370
   -1
100
AcDbLine
 10
76.84943655872647
 20
-4.209697135612487
 11
79.29169773418207
 21
-4.010868866631483
  0
LINE
  5
367
100
AcDbEntity
  8
handle5
  6
ByLayer
 62
  256
370
   -1
100
AcDbLine
 10
80.80518960415699
 20
-2.930870588518815
 11
80.0304334921465
 21
-4.848459255959767
  0
LINE
  5
368
100
AcDbEntity
  8
handle5
  6
ByLayer
 62
  256
370
   -1
100
AcDbLine
 10
79.29169773418207
 20
-4.010868866631483
 11
84.55950441441624
 21
-9.983583272711712
  0
LINE
  5
369
100
AcDbEntity
  8
handle5
  6
ByLayer
 62
  256
370
   -1
100
AcDbLine
 10
87.98517279173271
 20
-4.320858169011558
 11
80.0304334921465
 21
-4.848459255959767
  0
LINE
  5
36A
100
AcDbEntity
  8
handle5
  6
ByLayer
 62
  256
370
   -1
100
AcDbLine
 10
88.81006166127517
 20
-2.279186572477499
 11
87.98517279173271
 21
-4.320858169011558
  0
LINE
  5
36B
100
AcDbEntity
  8
handle5
  6
ByLayer
 62
  256
370
   -1
100
AcDbLine
 10
74.50105784602724
 20
-7.184806480753252
 11
72.92997048882998
 21
-5.399351606097412
  0
LINE
  5
36C
100
AcDbEntity
  8
handle5
  6
ByLayer
 62
  256
370
   -1
100
AcDbLine
 10
74.87846435367484
 20
-3.413372674379445
 11
74.12240335831538
 21
-5.284689304374524
  0
LINE
  5
36D
100
AcDbEntity
  8
handle5
  6
ByLayer
 62
  256
370
   -1
100
AcDbLine
 10
78.69984585323064
 20
-24.61294286628612
 11
77.8730211693468
 21
-23.67330643507472
  0
LINE
  5
36E
100
AcDbEntity
  8
handle5
  6
ByLayer
 62
  256
370
   -1
100
AcDbLine
 10
77.43465683623762
 20
-21.77220757445599
 11
79.87692265227881
 21
-21.57337983222487
  0
LINE
  5
36F
100
AcDbEntity
  8
handle5
  6
ByLayer
 62
  256
370
   -1
100
AcDbLine
 10
79.4492019947572
 20
-22.63202560859122
 11
82.13348206402176
 21
-15.98819929826709
  0
LINE
  5
370
100
AcDbEntity
  8
handle5
  6
ByLayer
 62
  256
370
   -1
100
AcDbLine
 10
83.70457411096359
 20
-17.77365391063324
 11
82.13348206402176
 21
-15.98819929826709
  0
LINE
  5
371
100
AcDbEntity
  8
handle5
  6
ByLayer
 62
  256
370
   -1
100
AcDbLine
 10
84.12747914992465
 20
-13.86898498635833
 11
83.30259018673055
 21
-15.91065681468831
  0
LINE
  5
372
100
AcDbEntity
  8
handle5
  6
ByLayer
 62
  256
370
   -1
100
AcDbLine
 10
80.6267754344145
 20
-25.39147295242202
 11
89.99194026981237
 21
-2.211876588252267
  0
LINE
  5
373
100
AcDbEntity
  8
handle5
  6
ByLayer
 62
  256
370
   -1
100
AcDbLine
 10
81.020292449621
 20
-24.41748416148874
 11
79.4492019947572
 21
-22.63202560859122
  0
LINE
  5
374
100
AcDbEntity
  8
handle5
  6
ByLayer
 62
  256
370
   -1
100
AcDbLine
 10
88.38715662231417
 20
-6.183855496752415
 11
86.8160648563273
 21
-4.39840018899838
  0
LINE
  5
375
100
AcDbEntity
  8
handle5
  6
ByLayer
 62
  256
370
   -1
100
AcDbLine
 10
79.44418058524573
 20
-25.45883922703302
 11
78.69984585323064
 21
-24.61294286628612
  0
LINE
  5
376
100
AcDbEntity
  8
handle5
  6
ByLayer
 62
  256
370
   -1
100
AcDbLine
 10
79.44489682587741
 20
-25.4587829366472
 11
78.62000795633494
 21
-27.50045453318126
  0
LINE
  5
377
100
AcDbEntity
  8
handle5
  6
ByLayer
 62
  256
370
   -1
100
AcDbLine
 10
79.0219917869164
 20
-29.36345186092211
 11
77.45090002092948
 21
-27.57799655316802
  0
LINE
  5
378
100
AcDbEntity
  8
handle5
  6
ByLayer
 62
  256
370
   -1
100
AcDbLine
 10
112.6867898633961
 20
-73.83948031069059
 11
113.2867769060606
 21
-72.35446026917162
  0
LINE
  5
379
100
AcDbEntity
  8
handle5
  6
ByLayer
 62
  256
370
   -1
100
AcDbLine
 10
106.9205654276451
 20
-69.10039313879935
 11
111.4184406195741
 21
-74.20014823353114
  0
LINE
  5
37A
100
AcDbEntity
  8
handle5
  6
ByLayer
 62
  256
370
   -1
100
AcDbLine
 10
104.4783042521895
 20
-69.29922140778041
 11
109.2911767723271
 21
-74.75612428243625
  0
LINE
  5
37B
100
AcDbEntity
  8
handle5
  6
ByLayer
 62
  256
370
   -1
100
AcDbLine
 10
113.3096559113986
 20
-69.56322161793861
 11
107.6593011856096
 21
-69.93798352812775
  0
LINE
  5
37C
100
AcDbEntity
  8
handle5
  6
ByLayer
 62
  256
370
   -1
100
AcDbLine
 10
103.6926726144567
 20
-68.40639601245715
 11
113.3255661603455
 21
-67.62217124641774
  0
LINE
  5
37D
100
AcDbEntity
  8
handle5
  6
ByLayer
 62
  256
370
   -1
100
AcDbLine
 10
106.8624788837111
 20
-66.23489473817443
 11
113.3412605971311
 21
-65.70744995856597
  0
LINE
  5
37E
100
AcDbEntity
  8
handle5
  6
ByLayer
 62
  256
370
   -1
100
AcDbLine
 10
113.3440893659048
 20
-65.36234016817815
 11
108.4048258618322
 21
-59.58073939209868
  0
LINE
  5
37F
100
AcDbEntity
  8
handle5
  6
ByLayer
 62
  256
370
   -1
100
AcDbLine
 10
109.1608864825851
 20
-57.70942368928746
 11
113.3677217257826
 21
-62.47919226309392
  0
LINE
  5
380
100
AcDbEntity
  8
handle5
  6
ByLayer
 62
  256
370
   -1
100
AcDbLine
 10
111.6031476580407
 20
-57.51059542030652
 11
113.3918247521931
 21
-59.53862304101534
  0
LINE
  5
381
100
AcDbEntity
  8
handle5
  6
ByLayer
 62
  256
370
   -1
100
AcDbLine
 10
113.4021588602467
 20
-58.27786185847634
 11
112.3418837906118
 21
-58.34818488245099
  0
LINE
  5
382
100
AcDbEntity
  8
handle5
  6
ByLayer
 62
  256
370
   -1
100
AcDbLine
 10
108.3752548448523
 20
-56.81659829396432
 11
113.417501144109
 21
-56.40610322726428
  0
LINE
  5
383
100
AcDbEntity
  8
handle5
  6
ByLayer
 62
  256
370
   -1
100
AcDbLine
 10
111.5450611141067
 20
-54.64509701968149
 11
113.4331955811874
 21
-54.49138190371315
  0
LINE
  5
384
100
AcDbEntity
  8
handle5
  6
ByLayer
 62
  256
370
   -1
100
AcDbLine
 10
107.1997020212126
 20
-75.24103929253971
 11
103.72224325683
 21
-71.1705380377754
  0
LINE
  5
385
100
AcDbEntity
  8
handle5
  6
ByLayer
 62
  256
370
   -1
100
AcDbLine
 10
104.5003565514151
 20
-72.08135266900166
 11
102.9028987705455
 21
-76.03519942131942
  0
LINE
  5
386
100
AcDbEntity
  8
handle5
  6
ByLayer
 62
  256
370
   -1
100
AcDbLine
 10
100.4807010412221
 20
-76.35630462691682
 11
106.0310063042511
 21
-62.6188170379466
  0
LINE
  5
387
100
AcDbEntity
  8
handle5
  6
ByLayer
 62
  256
370
   -1
100
AcDbLine
 10
100.558838182293
 20
-70.48887587826533
 11
98.09880854817143
 21
-76.57766288469409
  0
LINE
  5
388
100
AcDbEntity
  8
handle5
  6
ByLayer
 62
  256
370
   -1
100
AcDbLine
 10
96.09892441854319
 20
-76.68781581266379
 11
90.56251313001368
 21
-70.39599028271883
  0
LINE
  5
389
100
AcDbEntity
  8
handle5
  6
ByLayer
 62
  256
370
   -1
100
AcDbLine
 10
95.86756640155048
 20
-76.42488779469301
 11
95.75661061063064
 21
-76.69951301410907
  0
LINE
  5
38A
100
AcDbEntity
  8
handle5
  6
ByLayer
 62
  256
370
   -1
100
AcDbLine
 10
89.73715198954559
 20
-72.43712566866196
 11
93.62475469658634
 21
-76.72374203483938
  0
LINE
  5
38B
100
AcDbEntity
  8
handle5
  6
ByLayer
 62
  256
370
   -1
100
AcDbLine
 10
89.2350954824561
 20
-76.49585011232244
 11
90.52426874908966
 21
-73.305034308302
  0
LINE
  5
38C
100
AcDbEntity
  8
handle5
  6
ByLayer
 62
  256
370
   -1
100
AcDbLine
 10
87.04878216694951
 20
-76.23313425369196
 11
94.44120928114612
 21
-57.93623508850595
  0
LINE
  5
38D
100
AcDbEntity
  8
handle5
  6
ByLayer
 62
  256
370
   -1
100
AcDbLine
 10
84.90236431945053
 20
-75.87166096671598
 11
86.5827510753555
 21
-71.71255779852066
  0
LINE
  5
38E
100
AcDbEntity
  8
handle5
  6
ByLayer
 62
  256
370
   -1
100
AcDbLine
 10
79.0583841405136
 20
-71.32502601256186
 11
82.62562424832745
 21
-75.36961376515197
  0
LINE
  5
38F
100
AcDbEntity
  8
handle5
  6
ByLayer
 62
  256
370
   -1
100
AcDbLine
 10
77.26451563401523
 20
-72.25901094851227
 11
79.09150273701422
 21
-74.3304744513261
  0
LINE
  5
390
100
AcDbEntity
  8
handle5
  6
ByLayer
 62
  256
370
   -1
100
AcDbLine
 10
77.25806138918406
 20
-71.47159307911934
 11
79.0583841405136
 21
-71.32502601256186
  0
LINE
  5
391
100
AcDbEntity
  8
handle5
  6
ByLayer
 62
  256
370
   -1
100
AcDbLine
 10
77.25022412466157
 20
-70.5154468073703
 11
88.57603192062672
 21
-69.59339977699773
  0
LINE
  5
392
100
AcDbEntity
  8
handle5
  6
ByLayer
 62
  256
370
   -1
100
AcDbLine
 10
77.24238754426963
 20
-69.55938399954726
 11
78.60060163291806
 21
-69.44880983695924
  0
LINE
  5
393
100
AcDbEntity
  8
handle5
  6
ByLayer
 62
  256
370
   -1
100
AcDbLine
 10
77.22292243731911
 20
-67.18464095158589
 11
82.85140762212174
 21
-53.25365126603236
  0
LINE
  5
394
100
AcDbEntity
  8
handle5
  6
ByLayer
 62
  256
370
   -1
100
AcDbLine
 10
77.37923950016372
 20
-61.12371010635098
 11
77.17733875723135
 21
-61.62343198087791
  0
LINE
  5
395
100
AcDbEntity
  8
handle5
  6
ByLayer
 62
  256
370
   -1
100
AcDbLine
 10
77.1734048920147
 20
-61.14350042445352
 11
78.57167236964912
 21
-61.0090478046281
  0
LINE
  5
396
100
AcDbEntity
  8
handle5
  6
ByLayer
 62
  256
370
   -1
100
AcDbLine
 10
79.32773336500858
 20
-59.13773117463307
 11
77.15839119946097
 21
-59.31182993289525
  0
LINE
  5
397
100
AcDbEntity
  8
handle5
  6
ByLayer
 62
  256
370
   -1
100
AcDbLine
 10
77.70903542001301
 20
-57.29816891894535
 11
77.14225861813409
 21
-57.34365501102008
  0
LINE
  5
398
100
AcDbEntity
  8
handle5
  6
ByLayer
 62
  256
370
   -1
100
AcDbLine
 10
77.37055032442336
 20
-55.46992337710202
 11
77.131744949367
 21
-56.06098742142927
  0
LINE
  5
399
100
AcDbEntity
  8
handle5
  6
ByLayer
 62
  256
370
   -1
100
AcDbLine
 10
80.51307393232733
 20
-59.04123024054292
 11
77.12460921182938
 21
-55.19042744184122
  0
LINE
  5
39A
100
AcDbEntity
  8
handle5
  6
ByLayer
 62
  256
370
   -1
100
AcDbLine
 10
79.74136183245977
 20
-55.27725217552387
 11
77.10072303733634
 21
-52.27631415369257
  0
LINE
  5
39B
100
AcDbEntity
  8
handle5
  6
ByLayer
 62
  256
370
   -1
100
AcDbLine
 10
77.08216911666707
 20
-50.01273583204289
 11
83.25425497465127
 21
-49.41924915895135
  0
LINE
  5
39C
100
AcDbEntity
  8
handle5
  6
ByLayer
 62
  256
370
   -1
100
AcDbLine
 10
84.01031559540419
 20
-47.54793345614013
 11
77.06653358066998
 21
-48.10520044039043
  0
LINE
  5
39D
100
AcDbEntity
  8
handle5
  6
ByLayer
 62
  256
370
   -1
100
AcDbLine
 10
82.39161765040862
 20
-45.70837120045252
 11
77.05040099571377
 21
-46.13702507573606
  0
LINE
  5
39E
100
AcDbEntity
  8
handle5
  6
ByLayer
 62
  256
370
   -1
100
AcDbLine
 10
85.19565616272294
 20
-47.45143252204997
 11
76.98468867250503
 21
-38.1201216442733
  0
LINE
  5
39F
100
AcDbEntity
  8
handle5
  6
ByLayer
 62
  256
370
   -1
100
AcDbLine
 10
76.98232832148054
 20
-37.8321588192876
 11
79.11861259622881
 21
-37.65824178241297
  0
LINE
  5
3A0
100
AcDbEntity
  8
handle5
  6
ByLayer
 62
  256
370
   -1
100
AcDbLine
 10
88.69289820040635
 20
-35.95813481046338
 11
76.97467596253537
 21
-36.89857102797379
  0
LINE
  5
3A1
100
AcDbEntity
  8
handle5
  6
ByLayer
 62
  256
370
   -1
100
AcDbLine
 10
76.96695040016331
 20
-35.95605241858249
 11
78.70813753174738
 21
-35.81429960506949
  0
LINE
  5
3A2
100
AcDbEntity
  8
handle5
  6
ByLayer
 62
  256
370
   -1
100
AcDbLine
 10
76.95485002991128
 20
-34.47980724783332
 11
80.6267754344145
 21
-25.39147295242202
  0
LINE
  5
3A3
100
AcDbEntity
  8
handle5
  6
ByLayer
 62
  256
370
   -1
100
AcDbLine
 10
76.90926625867885
 20
-28.91858715748094
 11
77.45090002092948
 21
-27.57799655316802
  0
LINE
  5
3A4
100
AcDbEntity
  8
handle5
  6
ByLayer
 62
  256
370
   -1
100
AcDbLine
 10
78.62000795633494
 20
-27.50045453318126
 11
76.89857807722208
 21
-27.61462901975079
  0
LINE
  5
3A5
100
AcDbEntity
  8
handle5
  6
ByLayer
 62
  256
370
   -1
100
AcDbLine
 10
76.88261701162352
 20
-25.66737901672849
 11
79.44418058524573
 21
-25.45883922703302
  0
LINE
  5
3A6
100
AcDbEntity
  8
handle5
  6
ByLayer
 62
  256
370
   -1
100
AcDbLine
 10
76.86694350832155
 20
-23.75521161388917
 11
77.8730211693468
 21
-23.67330643507472
  0
LINE
  5
3A7
100
AcDbEntity
  8
handle5
  6
ByLayer
 62
  256
370
   -1
100
AcDbLine
 10
76.8623010994701
 20
-23.18883773400671
 11
77.43465683623762
 21
-21.77220757445599
  0
LINE
  5
3A8
100
AcDbEntity
  8
handle5
  6
ByLayer
 62
  256
370
   -1
100
AcDbLine
 10
76.84521130417571
 20
-21.10388270808954
 11
80.6267754344145
 21
-25.39147295242202
  0
LINE
  5
3A9
100
AcDbEntity
  8
handle5
  6
ByLayer
 62
  256
370
   -1
100
AcDbLine
 10
76.82065607049324
 20
-18.10814419883536
 11
79.87692180941397
 21
-21.57338191838846
  0
LINE
  5
3AA
100
AcDbEntity
  8
handle5
  6
ByLayer
 62
  256
370
   -1
100
AcDbLine
 10
83.30259018673055
 20
-15.91065681468831
 11
76.8061756526678
 21
-16.34153322413334
  0
LINE
  5
3AB
100
AcDbEntity
  8
handle5
  6
ByLayer
 62
  256
370
   -1
100
AcDbLine
 10
76.79080464321609
 20
-14.46627007101898
 11
84.12676290929292
 21
-13.86904127674416
  0
LINE
  5
3AC
100
AcDbEntity
  8
handle5
  6
ByLayer
 62
  256
370
   -1
100
AcDbLine
 10
76.30574684334923
 20
-12.59231555689746
 11
82.55560377434895
 21
-12.08350778939797
  0
LINE
  5
3AD
100
AcDbEntity
  8
handle5
  6
ByLayer
 62
  256
370
   -1
100
AcDbLine
 10
76.87148885795202
 20
-6.991828396833739
 11
74.92241389813964
 21
-11.81595820618821
  0
LINE
  5
3AE
100
AcDbEntity
  8
handle5
  6
ByLayer
 62
  256
370
   -1
100
AcDbLine
 10
72.92997048882998
 20
-5.399351606097412
 11
71.69207647239156
 21
-8.463246812106888
  0
LINE
  5
3AF
100
AcDbEntity
  8
handle5
  6
ByLayer
 62
  256
370
   -1
100
AcDbLine
 10
71.77515800049852
 20
-5.510392392502865
 11
74.12240335831538
 21
-5.284689304374524
  0
LINE
  5
3B0
100
AcDbEntity
  8
handle5
  6
ByLayer
 62
  256
370
   -1
100
AcDbLine
 10
74.87846435367484
 20
-3.413372674379445
 11
73.29142925298308
 21
-3.540738861575278
  0
LINE
  5
3B1
100
AcDbEntity
  8
handle5
  6
ByLayer
 62
  256
370
   -1
100
AcDbLine
 10
74.87846435367484
 20
-3.413372674379445
 11
74.31544856432473
 21
-2.773535823627469
  0
LINE
  5
3B2
100
AcDbEntity
  8
handle5
  6
ByLayer
 62
  256
370
   -1
100
AcDbLine
 10
76.06380492099353
 20
-3.316871740289287
 11
75.14963587037514
 21
-2.277969160807686
  0
LINE
  5
3B3
100
AcDbEntity
  8
handle5
  6
ByLayer
 62
  256
370
   -1
100
AcDbLine
 10
76.46349397125337
 20
-2.327641996976865
 11
76.04727637277708
 21
-1.854633419467177
  0
LINE
  5
3B4
100
AcDbEntity
  8
handle5
  6
ByLayer
 62
  256
370
   -1
100
AcDbLine
 10
73.14190907155515
 20
-10.548817744286
 11
76.7543885141649
 21
-1.607617367646014
  0
LINE
  5
3B5
100
AcDbEntity
  8
handle5
  6
ByLayer
 62
  256
370
   -1
100
AcDbLine
 10
78.83391522658658
 20
-2.134652691028805
 11
79.30445045275607
 21
-0.9700371386674078
  0
LINE
  5
3B6
100
AcDbEntity
  8
handle5
  6
ByLayer
 62
  256
370
   -1
100
AcDbLine
 10
85.99069549833067
 20
-0.5952687645878996
 11
85.69460945894807
 21
-0.2486884953494268
  0
LINE
  5
3B7
100
AcDbEntity
  8
handle5
  6
ByLayer
 62
  256
370
   -1
100
AcDbLine
 10
85.99069549833067
 20
-0.5952687645878996
 11
86.13978772899534
 21
-0.22625254452322
  0
LINE
  5
3B8
100
AcDbEntity
  8
handle5
  6
ByLayer
 62
  256
370
   -1
100
AcDbLine
 10
88.14345499322999
 20
-0.1160381558717063
 11
89.99194026981237
 21
-2.211876588252267
  0
LINE
  5
3B9
100
AcDbEntity
  8
handle5
  6
ByLayer
 62
  256
370
   -1
100
AcDbLine
 10
90.38545728501882
 20
-1.237887797319104
 11
89.35247631834122
 21
-0.06396130809304168
  0
LINE
  5
3BA
100
AcDbEntity
  8
handle5
  6
ByLayer
 62
  256
370
   -1
100
AcDbLine
 10
89.99194026981237
 20
-2.211876588252267
 11
90.8781004730611
 21
-0.01855311917051949
  0
LINE
  5
3BB
100
AcDbEntity
  8
handle5
  6
ByLayer
 62
  256
370
   -1
100
AcDbLine
 10
92.75588450388912
 20
-1.044905754202887
 11
93.17392473521173
 21
-0.01021987345717434
  0
LINE
  5
3BC
100
AcDbEntity
  8
handle5
  6
ByLayer
 62
  256
370
   -1
100
AcDbLine
 10
94.80230657867943
 20
-1.825824984582084
 11
93.20442260747527
 21
-0.009917858716562478
  0
LINE
  5
3BD
100
AcDbEntity
  8
handle5
  6
ByLayer
 62
  256
370
   -1
100
AcDbLine
 10
102.7406452661998
 20
-1.188740727800848
 11
101.7922806800946
 21
-0.1109759090934404
  0
LINE
  5
3BE
100
AcDbEntity
  8
handle5
  6
ByLayer
 62
  256
370
   -1
100
AcDbLine
 10
103.9259858335185
 20
-1.092239793710689
 11
103.1121117885462
 21
-0.1673169100141649
  0
LINE
  5
3BF
100
AcDbEntity
  8
handle5
  6
ByLayer
 62
  256
370
   -1
100
AcDbLine
 10
101.5817372929174
 20
-6.894458537692913
 11
104.2745682830689
 21
-0.2294679554966592
  0
LINE
  5
3C0
100
AcDbEntity
  8
handle5
  6
ByLayer
 62
  256
370
   -1
100
AcDbLine
 10
108.5692590493882
 20
-0.5952481242854333
 11
108.6667192500022
 21
-0.7060059817279694
  0
LINE
  5
3C1
100
AcDbEntity
  8
handle5
  6
ByLayer
 62
  256
370
   -1
100
AcDbLine
 10
103.9259858335185
 20
-1.092239793710689
 11
109.1506579783129
 21
-0.6668932292480463
  0
LINE
  5
3C2
100
AcDbEntity
  8
handle5
  6
ByLayer
 62
  256
370
   -1
100
AcDbLine
 10
115.2801719706555
 20
-2.133844700686723
 11
107.892614779278
 21
-2.623826382197365
  0
LINE
  5
3C3
100
AcDbEntity
  8
handle5
  6
ByLayer
 62
  256
370
   -1
100
AcDbLine
 10
113.1715389519416
 20
-11.57704236016656
 11
116.6478713865826
 21
-2.972817653081904
  0
LINE
  5
3C4
100
AcDbEntity
  8
handle5
  6
ByLayer
 62
  256
370
   -1
100
AcDbLine
 10
116.2493376284907
 20
-3.959223318377894
 11
117.6971628709079
 21
-3.841354795105872
  0
LINE
  5
3C5
100
AcDbEntity
  8
handle5
  6
ByLayer
 62
  256
370
   -1
100
AcDbLine
 10
115.9354831860184
 20
-10.41007152611718
 11
118.3109806396074
 21
-4.530509008415265
  0
LINE
  5
3C6
100
AcDbEntity
  8
handle5
  6
ByLayer
 62
  256
370
   -1
100
AcDbLine
 10
118.4860397447288
 20
-9.181061745983754
 11
116.3632030006753
 21
-9.351427835914478
  0
LINE
  5
3C7
100
AcDbEntity
  8
handle5
  6
ByLayer
 62
  256
370
   -1
100
AcDbLine
 10
117.4138099604694
 20
-10.54538173691299
 11
116.36320384354
 21
-9.351425749750831
  0
LINE
  5
3C8
100
AcDbEntity
  8
handle5
  6
ByLayer
 62
  256
370
   -1
100
AcDbLine
 10
116.4498279357156
 20
-11.31394622442787
 11
113.1715389519416
 21
-11.57704236016656
  0
LINE
  5
3C9
100
AcDbEntity
  8
handle5
  6
ByLayer
 62
  256
370
   -1
100
AcDbLine
 10
113.9754253121597
 20
-12.44699914049869
 11
114.4742759506005
 21
-12.40638767309099
  0
LINE
  5
3CA
100
AcDbEntity
  8
handle5
  6
ByLayer
 62
  256
370
   -1
100
AcDbLine
 10
114.1719968315146
 20
-12.67039180334592
 11
113.9754253121597
 21
-12.44699914049869
  0
LINE
  5
3CB
100
AcDbEntity
  8
handle5
  6
ByLayer
 62
  256
370
   -1
100
AcDbLine
 10
113.1500642653434
 20
-14.48813429464582
 11
113.7556180498106
 21
-15.15584073170453
  0
LINE
  5
3CC
100
AcDbEntity
  8
handle5
  6
ByLayer
 62
  256
370
   -1
100
AcDbLine
 10
111.5667553980951
 20
-15.54902103687073
 11
113.7538547142938
 21
-15.3709676647531
  0
LINE
  5
3CD
100
AcDbEntity
  8
handle5
  6
ByLayer
 62
  256
370
   -1
100
AcDbLine
 10
111.2529010492745
 20
-21.99986901281409
 11
113.7501833139203
 21
-15.81887851031962
  0
LINE
  5
3CE
100
AcDbEntity
  8
handle5
  6
ByLayer
 62
  256
370
   -1
100
AcDbLine
 10
113.7095315197506
 20
-20.77839739902805
 11
111.6806207702797
 21
-20.94122555440737
  0
LINE
  5
3CF
100
AcDbEntity
  8
handle5
  6
ByLayer
 62
  256
370
   -1
100
AcDbLine
 10
113.6933776911969
 20
-22.74916448256442
 11
108.4889563469394
 21
-23.16684100584337
  0
LINE
  5
3D0
100
AcDbEntity
  8
handle5
  6
ByLayer
 62
  256
370
   -1
100
AcDbLine
 10
112.4901964825019
 20
-24.78344695647473
 11
113.677639149828
 21
-24.66926652957636
  0
LINE
  5
3D1
100
AcDbEntity
  8
handle5
  6
ByLayer
 62
  256
370
   -1
100
AcDbLine
 10
113.6657528067871
 20
-26.1194003805648
 11
111.6633761137559
 21
-23.84381119015757
  0
LINE
  5
3D2
100
AcDbEntity
  8
handle5
  6
ByLayer
 62
  256
370
   -1
100
AcDbLine
 10
113.6423075320093
 20
-28.97972390344927
 11
109.2928428008092
 21
-24.03679755437946
  0
LINE
  5
3D3
100
AcDbEntity
  8
handle5
  6
ByLayer
 62
  256
370
   -1
100
AcDbLine
 10
108.4674816603412
 20
-26.07793294032251
 11
113.619528443446
 21
-31.75877270817529
  0
LINE
  5
3D4
100
AcDbEntity
  8
handle5
  6
ByLayer
 62
  256
370
   -1
100
AcDbLine
 10
113.6175529589545
 20
-31.99978181613915
 11
106.9980381652774
 21
-32.53102420008412
  0
LINE
  5
3D5
100
AcDbEntity
  8
handle5
  6
ByLayer
 62
  256
370
   -1
100
AcDbLine
 10
113.6013991394534
 20
-33.97054779527338
 11
103.8063741165439
 21
-34.75663872433626
  0
LINE
  5
3D6
100
AcDbEntity
  8
handle5
  6
ByLayer
 62
  256
370
   -1
100
AcDbLine
 10
107.8076142521062
 20
-36.37324467496768
 11
113.5862594499839
 21
-35.81758991053692
  0
LINE
  5
3D7
100
AcDbEntity
  8
handle5
  6
ByLayer
 62
  256
370
   -1
100
AcDbLine
 10
113.5659516598317
 20
-38.29514030911542
 11
113.4254140412515
 21
-38.64298312127363
  0
LINE
  5
3D8
100
AcDbEntity
  8
handle5
  6
ByLayer
 62
  256
370
   -1
100
AcDbLine
 10
106.0310063042511
 20
-62.6188170379466
 11
113.5184801127822
 21
-44.08666904915248
  0
LINE
  5
3D9
100
AcDbEntity
  8
handle5
  6
ByLayer
 62
  256
370
   -1
100
AcDbLine
 10
113.4575061020694
 20
-44.23756166362995
 11
113.5172831777267
 21
-44.23269512591838
  0
LINE
  5
3DA
100
AcDbEntity
  8
handle5
  6
ByLayer
 62
  256
370
   -1
100
AcDbLine
 10
113.0578374498545
 20
-45.22679964828745
 11
113.5094361337727
 21
-45.19003448831216
  0
LINE
  5
3DB
100
AcDbEntity
  8
handle5
  6
ByLayer
 62
  256
370
   -1
100
AcDbLine
 10
113.4947416982641
 20
-46.9827556203507
 11
113.0874080922278
 21
-47.99094167360573
  0
LINE
  5
3DC
100
AcDbEntity
  8
handle5
  6
ByLayer
 62
  256
370
   -1
100
AcDbLine
 10
113.4826853578903
 20
-48.45362914594585
 11
113.0874080922278
 21
-47.99094167360573
  0
LINE
  5
3DD
100
AcDbEntity
  8
handle5
  6
ByLayer
 62
  256
370
   -1
100
AcDbLine
 10
111.4950903748881
 20
-49.09473438875153
 11
113.4787540948129
 21
-48.93324324140912
  0
LINE
  5
3DE
100
AcDbEntity
  8
handle5
  6
ByLayer
 62
  256
370
   -1
100
AcDbLine
 10
113.4710084652297
 20
-49.87821005054508
 11
111.1453651504451
 21
-55.63437924470389
  0
ELLIPSE
  5
3DF
100
AcDbEntity
  8
handle4
  6
ByLayer
 62
  256
370
   -1
100
AcDbEllipse
 10
632.5885803002941
 20
1301.889206652069
 30
0
 11
555.6978304453958
 21
1375.400394607358
 31
0
 40
0.169317757651324
 41
3.143243850395335
 42
3.276546258410942
  0
ENDSEC
  0
SECTION
  2
OBJECTS
  0
DICTIONARY
  5
C
330
0
100
AcDbDictionary
281
    1
  3
ACAD_GROUP
350
D
  0
DICTIONARY
  5
D
330
C
100
AcDbDictionary
281
    1
  0
ENDSEC
  0
EOF
