999
dxfrw 0.6.3
  0
SECTION
  2
HEADER
  9
$ACADVER
  1
AC1021
  9
$DWGCODEPAGE
  3
ANSI_1252
  9
$INSBASE
 10
0
 20
0
 30
0
  9
$EXTMIN
 10
-0.0003788654280740822
 20
-117.0642902190411
 30
0
  9
$EXTMAX
 10
161.2296184312284
 20
0.0008131400261959243
 30
0
  9
$LIMMIN
 10
0
 20
0
  9
$LIMMAX
 10
420
 20
297
  9
$ORTHOMODE
 70
    0
  9
$REGENMODE
 70
    1
  9
$FILLMODE
 70
    1
  9
$QTEXTMODE
 70
    0
  9
$MIRRTEXT
 70
    0
  9
$LTSCALE
 40
1
  9
$ATTMODE
 70
    0
  9
$TEXTSIZE
 40
2.5
  9
$TRACEWID
 40
15.68
  9
$TEXTSTYLE
  7
STANDARD
  9
$CLAYER
  8
handle5
  9
$CELTYPE
  6
BYLAYER
  9
$CECOLOR
 62
  256
  9
$CELTSCALE
 40
1
  9
$DISPSILH
 70
    0
  9
$DIMSCALE
 40
2.5
  9
$DIMASZ
 40
2.5
  9
$DIMEXO
 40
0.625
  9
$DIMDLI
 40
3.75
  9
$DIMRND
 40
0
  9
$DIMDLE
 40
0
  9
$DIMEXE
 40
1.25
  9
$DIMTP
 40
0
  9
$DIMTM
 40
0
  9
$DIMTXT
 40
2.5
  9
$DIMCEN
 40
2.5
  9
$DIMTSZ
 40
0
  9
$DIMTOL
 70
    0
  9
$DIMLIM
 70
    0
  9
$DIMTIH
 70
    0
  9
$DIMTOH
 70
    0
  9
$DIMSE1
 70
    0
  9
$DIMSE2
 70
    0
  9
$DIMTAD
 70
    1
  9
$DIMZIN
 70
    8
  9
$DIMBLK
  1

  9
$DIMASO
 70
    1
  9
$DIMSHO
 70
    1
  9
$DIMPOST
  1

  9
$DIMAPOST
  1

  9
$DIMALT
 70
    0
  9
$DIMALTD
 70
    3
  9
$DIMALTF
 40
0.03937
  9
$DIMLFAC
 40
1
  9
$DIMTOFL
 70
    1
  9
$DIMTVP
 40
0
  9
$DIMTIX
 70
    0
  9
$DIMSOXD
 70
    0
  9
$DIMSAH
 70
    0
  9
$DIMBLK1
  1

  9
$DIMBLK2
  1

  9
$DIMSTYLE
  2
STANDARD
  9
$DIMCLRD
 70
    0
  9
$DIMCLRE
 70
    0
  9
$DIMCLRT
 70
    0
  9
$DIMTFAC
 40
1
  9
$DIMGAP
 40
0.625
  9
$DIMJUST
 70
    0
  9
$DIMSD1
 70
    0
  9
$DIMSD2
 70
    0
  9
$DIMTOLJ
 70
    0
  9
$DIMTZIN
 70
    8
  9
$DIMALTZ
 70
    0
  9
$DIMALTTZ
 70
    0
  9
$DIMUPT
 70
    0
  9
$DIMDEC
 70
    2
  9
$DIMTDEC
 70
    2
  9
$DIMALTU
 70
    2
  9
$DIMALTTD
 70
    3
  9
$DIMTXSTY
  7
STANDARD
  9
$DIMAUNIT
 70
    0
  9
$DIMADEC
 70
    0
  9
$DIMALTRND
 40
0
  9
$DIMAZIN
 70
    0
  9
$DIMDSEP
 70
   44
  9
$DIMATFIT
 70
    3
  9
$DIMFRAC
 70
    0
  9
$DIMLDRBLK
  1
STANDARD
  9
$DIMLUNIT
 70
    2
  9
$DIMLWD
 70
   -2
  9
$DIMLWE
 70
   -2
  9
$DIMTMOVE
 70
    0
  9
$DIMFXL
 40
1
  9
$DIMFXLON
 70
    0
  9
$DIMJOGANG
 40
0.7854
  9
$DIMTFILL
 70
    0
  9
$DIMTFILLCLR
 70
    0
  9
$DIMARCSYM
 70
    0
  9
$DIMLTYPE
  6

  9
$DIMLTEX1
  6

  9
$DIMLTEX2
  6

  9
$LUNITS
 70
    2
  9
$LUPREC
 70
    4
  9
$SKETCHINC
 40
1
  9
$FILLETRAD
 40
0
  9
$AUNITS
 70
    0
  9
$AUPREC
 70
    2
  9
$MENU
  1
.
  9
$ELEVATION
 40
0
  9
$PELEVATION
 40
0
  9
$THICKNESS
 40
0
  9
$LIMCHECK
 70
    0
  9
$CHAMFERA
 40
0
  9
$CHAMFERB
 40
0
  9
$CHAMFERC
 40
0
  9
$CHAMFERD
 40
0
  9
$SKPOLY
 70
    0
  9
$USRTIMER
 70
    1
  9
$ANGBASE
 50
0
  9
$ANGDIR
 70
    0
  9
$PDMODE
 70
   34
  9
$PDSIZE
 40
0
  9
$PLINEWID
 40
0
  9
$SPLFRAME
 70
    0
  9
$SPLINETYPE
 70
    2
  9
$SPLINESEGS
 70
    8
  9
$HANDSEED
  5
20000
  9
$SURFTAB1
 70
    6
  9
$SURFTAB2
 70
    6
  9
$SURFTYPE
 70
    6
  9
$SURFU
 70
    6
  9
$SURFV
 70
    6
  9
$UCSBASE
  2

  9
$UCSNAME
  2

  9
$UCSORG
 10
0
 20
0
 30
0
  9
$UCSXDIR
 10
1
 20
0
 30
0
  9
$UCSYDIR
 10
0
 20
1
 30
0
  9
$UCSORTHOREF
  2

  9
$UCSORTHOVIEW
 70
    0
  9
$UCSORGTOP
 10
0
 20
0
 30
0
  9
$UCSORGBOTTOM
 10
0
 20
0
 30
0
  9
$UCSORGLEFT
 10
0
 20
0
 30
0
  9
$UCSORGRIGHT
 10
0
 20
0
 30
0
  9
$UCSORGFRONT
 10
0
 20
0
 30
0
  9
$UCSORGBACK
 10
0
 20
0
 30
0
  9
$PUCSBASE
  2

  9
$PUCSNAME
  2

  9
$PUCSORG
 10
0
 20
0
 30
0
  9
$PUCSXDIR
 10
1
 20
0
 30
0
  9
$PUCSYDIR
 10
0
 20
1
 30
0
  9
$PUCSORTHOREF
  2

  9
$PUCSORTHOVIEW
 70
    0
  9
$PUCSORGTOP
 10
0
 20
0
 30
0
  9
$PUCSORGBOTTOM
 10
0
 20
0
 30
0
  9
$PUCSORGLEFT
 10
0
 20
0
 30
0
  9
$PUCSORGRIGHT
 10
0
 20
0
 30
0
  9
$PUCSORGFRONT
 10
0
 20
0
 30
0
  9
$PUCSORGBACK
 10
0
 20
0
 30
0
  9
$USERI1
 70
    0
  9
$USERI2
 70
    0
  9
$USERI3
 70
    0
  9
$USERI4
 70
    0
  9
$USERI5
 70
    0
  9
$USERR1
 40
0
  9
$USERR2
 40
0
  9
$USERR3
 40
0
  9
$USERR4
 40
0
  9
$USERR5
 40
0
  9
$WORLDVIEW
 70
    1
  9
$SHADEDGE
 70
    3
  9
$SHADEDIF
 70
   70
  9
$TILEMODE
 70
    1
  9
$MAXACTVP
 70
   64
  9
$PINSBASE
 10
0
 20
0
 30
0
  9
$PLIMCHECK
 70
    0
  9
$PEXTMIN
 10
0
 20
0
 30
0
  9
$PEXTMAX
 10
0
 20
0
 30
0
  9
$GRIDMODE
 70
    1
  9
$SNAPSTYLE
 70
    0
  9
$PLIMMIN
 10
0
 20
0
  9
$PLIMMAX
 10
7.820100000000001e-07
 20
1.106e-06
  9
$UNITMODE
 70
    0
  9
$VISRETAIN
 70
    1
  9
$PLINEGEN
 70
    0
  9
$PSLTSCALE
 70
    1
  9
$TREEDEPTH
 70
 3020
  9
$CMLSTYLE
  2
Standard
  9
$CMLJUST
 70
    0
  9
$CMLSCALE
 40
20
  9
$PROXYGRAPHICS
 70
    1
  9
$MEASUREMENT
 70
    1
  9
$CELWEIGHT
370
   -1
  9
$ENDCAPS
280
    0
  9
$JOINSTYLE
280
    0
  9
$LWDISPLAY
290
    0
  9
$INSUNITS
 70
    4
  9
$HYPERLINKBASE
  1

  9
$STYLESHEET
  1

  9
$XEDIT
290
    1
  9
$CEPSNTYPE
380
    0
  9
$PSTYLEMODE
290
    1
  9
$EXTNAMES
290
    1
  9
$PSVPSCALE
 40
1
  9
$OLESTARTUP
290
    0
  9
$SORTENTS
280
  127
  9
$INDEXCTL
280
    0
  9
$HIDETEXT
280
    1
  9
$XCLIPFRAME
290
    0
  9
$HALOGAP
280
    0
  9
$OBSCOLOR
 70
  257
  9
$OBSLTYPE
280
    0
  9
$INTERSECTIONDISPLAY
280
    0
  9
$INTERSECTIONCOLOR
 70
  257
  9
$DIMASSOC
280
    1
  9
$PROJECTNAME
  1

  9
$CAMERADISPLAY
290
    0
  9
$LENSLENGTH
 40
50
  9
$CAMERAHEIGHT
 40
0
  9
$STEPSPERSEC
 40
2
  9
$STEPSIZE
 40
50
  9
$3DDWFPREC
 40
2
  9
$PSOLWIDTH
 40
5
  9
$PSOLHEIGHT
 40
80
  9
$LOFTANG1
 40
1.570796326794897
  9
$LOFTANG2
 40
1.570796326794897
  9
$LOFTMAG1
 40
0
  9
$LOFTMAG2
 40
0
  9
$LOFTPARAM
 70
    7
  9
$LOFTNORMALS
280
    1
  9
$LATITUDE
 40
1
  9
$LONGITUDE
 40
1
  9
$NORTHDIRECTION
 40
0
  9
$TIMEZONE
 70
-8000
  9
$LIGHTGLYPHDISPLAY
280
    1
  9
$TILEMODELIGHTSYNCH
280
    1
  9
$SOLIDHIST
280
    1
  9
$SHOWHIST
280
    1
  9
$DWFFRAME
280
    2
  9
$DGNFRAME
280
    0
  9
$REALWORLDSCALE
290
    1
  9
$INTERFERECOLOR
 62
    1
  9
$CSHADOW
280
    0
  9
$SHADOWPLANELOCATION
 40
0
  0
ENDSEC
  0
SECTION
  2
CLASSES
  0
ENDSEC
  0
SECTION
  2
TABLES
  0
TABLE
  2
VPORT
  5
8
330
0
100
AcDbSymbolTable
 70
    1
  0
VPORT
  5
31
330
2
100
AcDbSymbolTableRecord
100
AcDbViewportTableRecord
  2
*ACTIVE
 70
    0
 10
0
 20
0
 11
1
 21
1
 12
152.3948416506495
 22
7.304639966337521
 13
0
 23
0
 14
10
 24
10
 15
10
 25
10
 16
0
 26
0
 36
1
 17
0
 27
0
 37
0
 40
150.9625593043088
 41
2.713472485768501
 42
50
 43
0
 44
0
 50
0
 51
0
 71
    0
 72
  100
 73
    1
 74
    3
 75
    0
 76
    1
 77
    0
 78
    0
281
    0
 65
    1
110
0
120
0
130
0
111
1
121
0
131
0
112
0
122
1
132
0
 79
    0
146
0
348
10020
 60
    7
 61
    5
292
1
282
    1
141
0
142
0
 63
  250
421
3358443
  0
ENDTAB
  0
TABLE
  2
LTYPE
  5
5
330
0
100
AcDbSymbolTable
 70
    4
  0
LTYPE
  5
14
330
5
100
AcDbSymbolTableRecord
100
AcDbLinetypeTableRecord
  2
ByBlock
 70
    0
  3

 72
   65
 73
    0
 40
0
  0
LTYPE
  5
15
330
5
100
AcDbSymbolTableRecord
100
AcDbLinetypeTableRecord
  2
ByLayer
 70
    0
  3

 72
   65
 73
    0
 40
0
  0
LTYPE
  5
16
330
5
100
AcDbSymbolTableRecord
100
AcDbLinetypeTableRecord
  2
Continuous
 70
    0
  3
Solid line
 72
   65
 73
    0
 40
0
  0
LTYPE
  5
32
330
5
100
AcDbSymbolTableRecord
100
AcDbLinetypeTableRecord
  2
DOT
 70
    0
  3
Dot . . . . . . . . . . . . . . . . . . . . . .
 72
   65
 73
    2
 40
6.35
 49
0
 74
    0
 49
-6.35
 74
    0
  0
LTYPE
  5
33
330
5
100
AcDbSymbolTableRecord
100
AcDbLinetypeTableRecord
  2
DOTTINY
 70
    0
  3
Dot (.15x) .....................................
 72
   65
 73
    2
 40
0.9525
 49
0
 74
    0
 49
-0.9525
 74
    0
  0
LTYPE
  5
34
330
5
100
AcDbSymbolTableRecord
100
AcDbLinetypeTableRecord
  2
DOT2
 70
    0
  3
Dot (.5x) .....................................
 72
   65
 73
    2
 40
3.175
 49
0
 74
    0
 49
-3.175
 74
    0
  0
LTYPE
  5
35
330
5
100
AcDbSymbolTableRecord
100
AcDbLinetypeTableRecord
  2
DOTX2
 70
    0
  3
Dot (2x) .  .  .  .  .  .  .  .  .  .  .  .  .
 72
   65
 73
    2
 40
12.7
 49
0
 74
    0
 49
-12.7
 74
    0
  0
LTYPE
  5
36
330
5
100
AcDbSymbolTableRecord
100
AcDbLinetypeTableRecord
  2
DASHED
 70
    0
  3
Dashed _ _ _ _ _ _ _ _ _ _ _ _ _ _ _ _ _
 72
   65
 73
    2
 40
19.05
 49
12.7
 74
    0
 49
-6.35
 74
    0
  0
LTYPE
  5
37
330
5
100
AcDbSymbolTableRecord
100
AcDbLinetypeTableRecord
  2
DASHEDTINY
 70
    0
  3
Dashed (.15x) _ _ _ _ _ _ _ _ _ _ _ _ _ _ _ _ _
 72
   65
 73
    2
 40
2.8575
 49
1.905
 74
    0
 49
-0.9525
 74
    0
  0
LTYPE
  5
38
330
5
100
AcDbSymbolTableRecord
100
AcDbLinetypeTableRecord
  2
DASHED2
 70
    0
  3
Dashed (.5x) _ _ _ _ _ _ _ _ _ _ _ _ _ _ _ _ _
 72
   65
 73
    2
 40
9.524999999999999
 49
6.35
 74
    0
 49
-3.175
 74
    0
  0
LTYPE
  5
39
330
5
100
AcDbSymbolTableRecord
100
AcDbLinetypeTableRecord
  2
DASHEDX2
 70
    0
  3
Dashed (2x) ____  ____  ____  ____  ____  ___
 72
   65
 73
    2
 40
38.09999999999999
 49
25.4
 74
    0
 49
-12.7
 74
    0
  0
LTYPE
  5
3A
330
5
100
AcDbSymbolTableRecord
100
AcDbLinetypeTableRecord
  2
DASHDOT
 70
    0
  3
Dash dot __ . __ . __ . __ . __ . __ . __ . __
 72
   65
 73
    4
 40
25.4
 49
12.7
 74
    0
 49
-6.35
 74
    0
 49
0
 74
    0
 49
-6.35
 74
    0
  0
LTYPE
  5
3B
330
5
100
AcDbSymbolTableRecord
100
AcDbLinetypeTableRecord
  2
DASHDOTTINY
 70
    0
  3
Dash dot (.15x) _._._._._._._._._._._._._._._.
 72
   65
 73
    4
 40
3.81
 49
1.905
 74
    0
 49
-0.9525
 74
    0
 49
0
 74
    0
 49
-0.9525
 74
    0
  0
LTYPE
  5
3C
330
5
100
AcDbSymbolTableRecord
100
AcDbLinetypeTableRecord
  2
DASHDOT2
 70
    0
  3
Dash dot (.5x) _._._._._._._._._._._._._._._.
 72
   65
 73
    4
 40
12.7
 49
6.35
 74
    0
 49
-3.175
 74
    0
 49
0
 74
    0
 49
-3.175
 74
    0
  0
LTYPE
  5
3D
330
5
100
AcDbSymbolTableRecord
100
AcDbLinetypeTableRecord
  2
DASHDOTX2
 70
    0
  3
Dash dot (2x) ____  .  ____  .  ____  .  ___
 72
   65
 73
    4
 40
50.8
 49
25.4
 74
    0
 49
-12.7
 74
    0
 49
0
 74
    0
 49
-12.7
 74
    0
  0
LTYPE
  5
3E
330
5
100
AcDbSymbolTableRecord
100
AcDbLinetypeTableRecord
  2
DIVIDE
 70
    0
  3
Divide ____ . . ____ . . ____ . . ____ . . ____
 72
   65
 73
    6
 40
31.75
 49
12.7
 74
    0
 49
-6.35
 74
    0
 49
0
 74
    0
 49
-6.35
 74
    0
 49
0
 74
    0
 49
-6.35
 74
    0
  0
LTYPE
  5
3F
330
5
100
AcDbSymbolTableRecord
100
AcDbLinetypeTableRecord
  2
DIVIDETINY
 70
    0
  3
Divide (.15x) __..__..__..__..__..__..__..__.._
 72
   65
 73
    6
 40
4.7625
 49
1.905
 74
    0
 49
-0.9525
 74
    0
 49
0
 74
    0
 49
-0.9525
 74
    0
 49
0
 74
    0
 49
-0.9525
 74
    0
  0
LTYPE
  5
40
330
5
100
AcDbSymbolTableRecord
100
AcDbLinetypeTableRecord
  2
DIVIDE2
 70
    0
  3
Divide (.5x) __..__..__..__..__..__..__..__.._
 72
   65
 73
    6
 40
15.875
 49
6.35
 74
    0
 49
-3.175
 74
    0
 49
0
 74
    0
 49
-3.175
 74
    0
 49
0
 74
    0
 49
-3.175
 74
    0
  0
LTYPE
  5
41
330
5
100
AcDbSymbolTableRecord
100
AcDbLinetypeTableRecord
  2
DIVIDEX2
 70
    0
  3
Divide (2x) ________  .  .  ________  .  .  _
 72
   65
 73
    6
 40
63.5
 49
25.4
 74
    0
 49
-12.7
 74
    0
 49
0
 74
    0
 49
-12.7
 74
    0
 49
0
 74
    0
 49
-12.7
 74
    0
  0
LTYPE
  5
42
330
5
100
AcDbSymbolTableRecord
100
AcDbLinetypeTableRecord
  2
BORDER
 70
    0
  3
Border __ __ . __ __ . __ __ . __ __ . __ __ .
 72
   65
 73
    6
 40
44.45
 49
12.7
 74
    0
 49
-6.35
 74
    0
 49
12.7
 74
    0
 49
-6.35
 74
    0
 49
0
 74
    0
 49
-6.35
 74
    0
  0
LTYPE
  5
43
330
5
100
AcDbSymbolTableRecord
100
AcDbLinetypeTableRecord
  2
BORDERTINY
 70
    0
  3
Border (.15x) __.__.__.__.__.__.__.__.__.__.__.
 72
   65
 73
    6
 40
6.6675
 49
1.905
 74
    0
 49
-0.9525
 74
    0
 49
1.905
 74
    0
 49
-0.9525
 74
    0
 49
0
 74
    0
 49
-0.9525
 74
    0
  0
LTYPE
  5
44
330
5
100
AcDbSymbolTableRecord
100
AcDbLinetypeTableRecord
  2
BORDER2
 70
    0
  3
Border (.5x) __.__.__.__.__.__.__.__.__.__.__.
 72
   65
 73
    6
 40
22.225
 49
6.35
 74
    0
 49
-3.175
 74
    0
 49
6.35
 74
    0
 49
-3.175
 74
    0
 49
0
 74
    0
 49
-3.175
 74
    0
  0
LTYPE
  5
45
330
5
100
AcDbSymbolTableRecord
100
AcDbLinetypeTableRecord
  2
BORDERX2
 70
    0
  3
Border (2x) ____  ____  .  ____  ____  .  ___
 72
   65
 73
    6
 40
88.89999999999999
 49
25.4
 74
    0
 49
-12.7
 74
    0
 49
25.4
 74
    0
 49
-12.7
 74
    0
 49
0
 74
    0
 49
-12.7
 74
    0
  0
LTYPE
  5
46
330
5
100
AcDbSymbolTableRecord
100
AcDbLinetypeTableRecord
  2
CENTER
 70
    0
  3
Center ____ _ ____ _ ____ _ ____ _ ____ _ ____
 72
   65
 73
    4
 40
50.8
 49
31.75
 74
    0
 49
-6.35
 74
    0
 49
6.35
 74
    0
 49
-6.35
 74
    0
  0
LTYPE
  5
47
330
5
100
AcDbSymbolTableRecord
100
AcDbLinetypeTableRecord
  2
CENTERTINY
 70
    0
  3
Center (.15x) ___ _ ___ _ ___ _ ___ _ ___ _ ___
 72
   65
 73
    4
 40
7.619999999999999
 49
4.7625
 74
    0
 49
-0.9525
 74
    0
 49
0.9525
 74
    0
 49
-0.9525
 74
    0
  0
LTYPE
  5
48
330
5
100
AcDbSymbolTableRecord
100
AcDbLinetypeTableRecord
  2
CENTER2
 70
    0
  3
Center (.5x) ___ _ ___ _ ___ _ ___ _ ___ _ ___
 72
   65
 73
    4
 40
28.575
 49
19.05
 74
    0
 49
-3.175
 74
    0
 49
3.175
 74
    0
 49
-3.175
 74
    0
  0
LTYPE
  5
49
330
5
100
AcDbSymbolTableRecord
100
AcDbLinetypeTableRecord
  2
CENTERX2
 70
    0
  3
Center (2x) ________  __  ________  __  _____
 72
   65
 73
    4
 40
101.6
 49
63.5
 74
    0
 49
-12.7
 74
    0
 49
12.7
 74
    0
 49
-12.7
 74
    0
  0
ENDTAB
  0
TABLE
  2
LAYER
  5
2
330
0
100
AcDbSymbolTable
 70
    1
  0
LAYER
  5
10
330
2
100
AcDbSymbolTableRecord
100
AcDbLayerTableRecord
  2
0
 70
    0
 62
    7
  6
CONTINUOUS
370
    0
390
F
  0
LAYER
  5
4A
330
2
100
AcDbSymbolTableRecord
100
AcDbLayerTableRecord
  2
handle1
 70
    0
 62
    7
  6
CONTINUOUS
370
    0
390
F
  0
LAYER
  5
4B
330
2
100
AcDbSymbolTableRecord
100
AcDbLayerTableRecord
  2
handle3
 70
    0
 62
    7
  6
CONTINUOUS
370
    0
390
F
  0
LAYER
  5
4C
330
2
100
AcDbSymbolTableRecord
100
AcDbLayerTableRecord
  2
handle4
 70
    0
 62
    7
  6
CONTINUOUS
370
    0
390
F
  0
LAYER
  5
4D
330
2
100
AcDbSymbolTableRecord
100
AcDbLayerTableRecord
  2
handle5
 70
    0
 62
    4
  6
CONTINUOUS
370
    0
390
F
  0
LAYER
  5
4E
330
2
100
AcDbSymbolTableRecord
100
AcDbLayerTableRecord
  2
handle9
 70
    0
 62
    7
  6
CONTINUOUS
370
    0
390
F
  0
ENDTAB
  0
TABLE
  2
STYLE
  5
3
330
0
100
AcDbSymbolTable
 70
    3
  0
STYLE
  5
4F
330
2
100
AcDbSymbolTableRecord
100
AcDbTextStyleTableRecord
  2
Standard
 70
    0
 40
0
 41
1
 50
0
 71
    0
 42
1
  3
txt
  4

  0
ENDTAB
  0
TABLE
  2
VIEW
  5
6
330
0
100
AcDbSymbolTable
 70
    0
  0
ENDTAB
  0
TABLE
  2
UCS
  5
7
330
0
100
AcDbSymbolTable
 70
    0
  0
ENDTAB
  0
TABLE
  2
APPID
  5
9
330
0
100
AcDbSymbolTable
 70
    1
  0
APPID
  5
12
330
9
100
AcDbSymbolTableRecord
100
AcDbRegAppTableRecord
  2
ACAD
 70
    0
  0
APPID
  5
50
330
9
100
AcDbSymbolTableRecord
100
AcDbRegAppTableRecord
  2
LibreCad
 70
    0
  0
ENDTAB
  0
TABLE
  2
DIMSTYLE
  5
A
330
0
100
AcDbSymbolTable
 70
    1
100
AcDbDimStyleTable
 71
    1
  0
DIMSTYLE
105
51
330
A
100
AcDbSymbolTableRecord
100
AcDbDimStyleTableRecord
  2
Standard
 70
    0
 40
2.5
 41
2.5
 42
0.625
 43
0.38
 44
1.25
 45
0
 46
0
 47
0
 48
0
 49
1
140
2.5
141
0.09
142
0
143
25.4
144
1
145
0
146
1
147
0.625
148
0
 71
    0
 72
    0
 73
    0
 74
    1
 75
    0
 76
    0
 77
    0
 78
    8
 79
    0
170
    0
171
    2
172
    0
173
    0
174
    0
175
    0
176
    0
177
    0
178
    0
179
    0
271
    2
272
    4
273
    2
274
    2
275
    0
276
    0
277
    2
278
   44
279
    0
280
    0
281
    0
282
    0
283
    1
284
    0
285
    0
286
    0
288
    0
289
    3
340
STANDARD
341

371
   -2
372
   -2
  0
ENDTAB
  0
TABLE
  2
BLOCK_RECORD
  5
1
330
0
100
AcDbSymbolTable
 70
    2
  0
BLOCK_RECORD
  5
1F
330
1
100
AcDbSymbolTableRecord
100
AcDbBlockTableRecord
  2
*Model_Space
 70
    0
280
    1
281
    0
  0
BLOCK_RECORD
  5
1E
330
1
100
AcDbSymbolTableRecord
100
AcDbBlockTableRecord
  2
*Paper_Space
 70
    0
280
    1
281
    0
  0
ENDTAB
  0
ENDSEC
  0
SECTION
  2
BLOCKS
  0
BLOCK
  5
20
330
1F
100
AcDbEntity
  8
0
100
AcDbBlockBegin
  2
*Model_Space
 70
    0
 10
0
 20
0
 30
0
  3
*Model_Space
  1

  0
ENDBLK
  5
21
330
1F
100
AcDbEntity
  8
0
100
AcDbBlockEnd
  0
BLOCK
  5
1C
330
1B
100
AcDbEntity
  8
0
100
AcDbBlockBegin
  2
*Paper_Space
 70
    0
 10
0
 20
0
 30
0
  3
*Paper_Space
  1

  0
ENDBLK
  5
1D
330
1F
100
AcDbEntity
  8
0
100
AcDbBlockEnd
  0
ENDSEC
  0
SECTION
  2
ENTITIES
  0
CIRCLE
  5
52
100
AcDbEntity
  8
handle5
  6
ByLayer
 62
  256
370
   -1
100
AcDbCircle
 10
157.4859366114574
 20
-97.44887900224633
 40
1.6
  0
CIRCLE
  5
53
100
AcDbEntity
  8
handle5
  6
ByLayer
 62
  256
370
   -1
100
AcDbCircle
 10
120.2131456578771
 20
-112.5080640575643
 40
1.6
  0
LINE
  5
54
100
AcDbEntity
  8
handle5
  6
ByLayer
 62
  256
370
   -1
100
AcDbLine
 10
153.5273798304251
 20
-91.94538669995637
 11
130.6168477419296
 21
-36.55143141936061
  0
ELLIPSE
  5
55
100
AcDbEntity
  8
handle5
  6
ByLayer
 62
  256
370
   -1
100
AcDbEllipse
 10
131.0315767708443
 20
-1519.966519864362
 30
0
 11
1.537965695127762e-14
 21
1483.417110676493
 31
0
 40
0.169317757651324
 41
0.001651196805545041
 42
0.1349536048211508
  0
LINE
  5
56
100
AcDbEntity
  8
handle5
  6
ByLayer
 62
  256
370
   -1
100
AcDbLine
 10
97.2382289775253
 20
-50.03726878233347
 11
119.2376461078316
 21
-105.7993384007884
  0
ARC
  5
57
100
AcDbEntity
  8
handle5
  6
ByLayer
 62
  256
370
   -1
100
AcDbCircle
 10
117.7496583016602
 20
-106.3874644830916
 40
1.6
100
AcDbArc
 50
317.0329747210154
 51
21.56637298031048
  0
SPLINE
  5
58
100
AcDbEntity
  8
handle5
  6
ByLayer
 62
  256
370
   -1
100
AcDbSpline
210
0
220
0
230
0
 70
    8
 71
    2
 72
    8
 73
    5
 74
    0
 42
1e-07
 43
1e-07
 40
0
 40
0
 40
0
 40
0.3333333333333333
 40
0.6666666666666666
 40
1
 40
1
 40
1
 10
118.9204520335583
 20
-107.4779882276063
 30
0
 10
115.8602423240285
 20
-110.6790446324826
 30
0
 10
117.5810846808731
 20
-116.5701471769934
 30
0
 10
126.9281930681507
 20
-117.4916473834683
 30
0
 10
141.5228106436286
 20
-111.595045747174
 30
0
  0
SPLINE
  5
59
100
AcDbEntity
  8
handle5
  6
ByLayer
 62
  256
370
   -1
100
AcDbSpline
210
0
220
0
230
0
 70
    8
 71
    2
 72
    8
 73
    5
 74
    0
 42
1e-07
 43
1e-07
 40
0
 40
0
 40
0
 40
0.3333333333333333
 40
0.6666666666666666
 40
1
 40
1
 40
1
 10
141.5228106436285
 20
-111.595045747174
 30
0
 10
156.1174236203058
 20
-105.6984327284487
 30
0
 10
162.2010428695463
 20
-98.54251387310117
 30
0
 10
159.3466095731565
 20
-93.10941179753574
 30
0
 10
154.9216383057502
 20
-92.93256481246412
 30
0
  0
ARC
  5
5A
100
AcDbEntity
  8
handle5
  6
ByLayer
 62
  256
370
   -1
100
AcDbCircle
 10
155.0062953877801
 20
-91.33480601387635
 40
1.6
100
AcDbArc
 50
202.4336270196897
 51
266.9670252789849
  0
LWPOLYLINE
  5
5B
100
AcDbEntity
  8
handle5
  6
ByLayer
 62
  256
370
   -1
100
AcDbPolyline
 90
    4
 70
    1
 43
0
 10
313.1548122738686
 20
-73.81668026123005
 10
396.7080485204756
 20
-73.81668026123005
 10
396.7080485204756
 20
-141.9725721588688
 10
313.1548122738686
 20
-141.9725721588688
  0
LINE
  5
5C
100
AcDbEntity
  8
handle5
  6
ByLayer
 62
  256
370
   -1
100
AcDbLine
 10
174.3522815986109
 20
-40.75767621785708
 11
245.6782149798607
 21
-40.75767621785708
  0
LINE
  5
5D
100
AcDbEntity
  8
handle5
  6
ByLayer
 62
  256
370
   -1
100
AcDbLine
 10
245.6782149798607
 20
-40.75767621785708
 11
245.6782149798607
 21
-145.1426136424799
  0
LINE
  5
5E
100
AcDbEntity
  8
handle5
  6
ByLayer
 62
  256
370
   -1
100
AcDbLine
 10
245.6782149798607
 20
-145.1426136424799
 11
174.3522815986109
 21
-145.1426136424799
  0
LINE
  5
5F
100
AcDbEntity
  8
handle5
  6
ByLayer
 62
  256
370
   -1
100
AcDbLine
 10
174.3522815986109
 20
-145.1426136424799
 11
174.3522815986109
 21
-40.75767621785708
  0
ARC
  5
60
100
AcDbEntity
  8
handle9
  6
ByLayer
 62
  256
370
   -1
100
AcDbCircle
 10
-8.405060450709271
 20
-26.53505548646774
 40
32.52597293708969
100
AcDbArc
 50
342.0642639292142
 51
32.870823794785
  0
SPLINE
  5
61
100
AcDbEntity
  8
handle9
  6
ByLayer
 62
  256
370
   -1
100
AcDbSpline
210
0
220
0
230
0
 70
    8
 71
    2
 72
   10
 73
    7
 74
    0
 42
1e-07
 43
1e-07
 40
0
 40
0
 40
0
 40
0.2
 40
0.4
 40
0.6
 40
0.8
 40
1
 40
1
 40
1
 10
67.84615527792981
 20
-31.31530199370181
 30
0
 10
63.21940259495041
 20
-30.11267638936394
 30
0
 10
58.84314444143692
 20
-29.01298258747262
 30
0
 10
56.71245907666201
 20
-28.87315120157109
 30
0
 10
55.59877045751662
 20
-31.46804942007766
 30
0
 10
54.46836053927993
 20
-41.45069474421629
 30
0
 10
55.91885082605071
 20
-50.03726878233347
 30
0
  0
ARC
  5
62
100
AcDbEntity
  8
handle9
  6
ByLayer
 62
  256
370
   -1
100
AcDbCircle
 10
102.8133855453837
 20
-127.3029864985408
 40
145.1303352441764
100
AcDbArc
 50
119.7922985164448
 51
125.3170915457207
  0
LINE
  5
63
100
AcDbEntity
  8
handle9
  6
ByLayer
 62
  256
370
   -1
100
AcDbLine
 10
70.97361244716282
 20
-32.04637258894522
 11
67.84615527792981
 21
-31.31530199370181
  0
LINE
  5
64
100
AcDbEntity
  8
handle9
  6
ByLayer
 62
  256
370
   -1
100
AcDbLine
 10
80.50728920085511
 20
-26.87637328650432
 11
36.30888138209602
 21
-0.4938732865032734
  0
ARC
  5
65
100
AcDbEntity
  8
handle9
  6
ByLayer
 62
  256
370
   -1
100
AcDbCircle
 10
34.51497772662452
 20
-3.499186859973804
 40
3.5
100
AcDbArc
 50
59.16657319812657
 51
113.7923651704632
  0
SPLINE
  5
66
100
AcDbEntity
  8
handle9
  6
ByLayer
 62
  256
370
   -1
100
AcDbSpline
210
0
220
0
230
0
 70
    8
 71
    2
 72
    8
 73
    5
 74
    0
 42
1e-07
 43
1e-07
 40
0
 40
0
 40
0
 40
0.3333333333333333
 40
0.6666666666666666
 40
1
 40
1
 40
1
 10
70.97361244716282
 20
-32.04637258894522
 30
0
 10
72.74786793705631
 20
-32.45355005897974
 30
0
 10
75.12710319424542
 20
-32.92216437382675
 30
0
 10
77.29596616940752
 20
-33.3605640862519
 30
0
 10
78.75802283266812
 20
-33.3814022073401
 30
0
  0
ARC
  5
67
100
AcDbEntity
  8
handle9
  6
ByLayer
 62
  256
370
   -1
100
AcDbCircle
 10
78.71338554538372
 20
-29.88168685997485
 40
3.5
100
AcDbArc
 50
270.730742144735
 51
59.1665466591886
  0
LINE
  5
68
100
AcDbEntity
  8
handle9
  6
ByLayer
 62
  256
370
   -1
100
AcDbLine
 10
30.70431688512741
 20
-1.354201569755275
 11
33.10299592557391
 21
-0.2966398433787702
  0
CIRCLE
  5
69
100
AcDbEntity
  8
handle1
  6
ByLayer
 62
  256
370
   -1
100
AcDbCircle
 10
-4.32885680788138
 20
-97.44887900224633
 40
1.6
  0
CIRCLE
  5
6A
100
AcDbEntity
  8
handle1
  6
ByLayer
 62
  256
370
   -1
100
AcDbCircle
 10
32.9439341456989
 20
-112.5080640575643
 40
1.6
  0
CIRCLE
  5
6B
100
AcDbEntity
  8
handle1
  6
ByLayer
 62
  256
370
   -1
100
AcDbCircle
 10
25.85274418122603
 20
-8.881686859974849
 40
1.6
  0
CIRCLE
  5
6C
100
AcDbEntity
  8
handle1
  6
ByLayer
 62
  256
370
   -1
100
AcDbCircle
 10
34.51497772662452
 20
-3.499186859973804
 40
1.6
  0
CIRCLE
  5
6D
100
AcDbEntity
  8
handle1
  6
ByLayer
 62
  256
370
   -1
100
AcDbCircle
 10
78.71338554538372
 20
-29.88168685997485
 40
1.6
  0
LINE
  5
6E
100
AcDbEntity
  8
handle3
  6
ByLayer
 62
  256
370
   -1
100
AcDbLine
 10
52.81338554538371
 20
-36.5386793937451
 11
52.81338554538371
 21
-42.5386793937451
  0
LINE
  5
6F
100
AcDbEntity
  8
handle9
  6
ByLayer
 62
  256
370
   -1
100
AcDbLine
 10
-0.3703000268490939
 20
-91.94538669995637
 11
22.54023206164641
 21
-36.55143141936061
  0
ARC
  5
70
100
AcDbEntity
  8
handle9
  6
ByLayer
 62
  256
370
   -1
100
AcDbCircle
 10
-1.849215584204075
 20
-91.33480601387635
 40
1.6
100
AcDbArc
 50
273.0329747210151
 51
337.5663729803103
  0
SPLINE
  5
71
100
AcDbEntity
  8
handle9
  6
ByLayer
 62
  256
370
   -1
100
AcDbSpline
210
0
220
0
230
0
 70
    8
 71
    2
 72
    8
 73
    5
 74
    0
 42
1e-07
 43
1e-07
 40
0
 40
0
 40
0
 40
0.3333333333333333
 40
0.6666666666666666
 40
1
 40
1
 40
1
 10
11.63426915994751
 20
-111.595045747174
 30
0
 10
-2.96034381672979
 20
-105.6984327284487
 30
0
 10
-9.043963065970274
 20
-98.54251387310117
 30
0
 10
-6.189529769580474
 20
-93.10941179753574
 30
0
 10
-1.764558502174197
 20
-92.93256481246415
 30
0
  0
ARC
  5
72
100
AcDbEntity
  8
handle9
  6
ByLayer
 62
  256
370
   -1
100
AcDbCircle
 10
35.40742150191582
 20
-106.3874644830916
 40
1.6
100
AcDbArc
 50
158.4336270196895
 51
222.9670252789846
  0
SPLINE
  5
73
100
AcDbEntity
  8
handle9
  6
ByLayer
 62
  256
370
   -1
100
AcDbSpline
210
0
220
0
230
0
 70
    8
 71
    2
 72
    8
 73
    5
 74
    0
 42
1e-07
 43
1e-07
 40
0
 40
0
 40
0
 40
0.3333333333333333
 40
0.6666666666666666
 40
1
 40
1
 40
1
 10
11.63426915994742
 20
-111.595045747174
 30
0
 10
26.22888673542531
 20
-117.4916473834683
 30
0
 10
35.57599512270292
 20
-116.5701471769934
 30
0
 10
37.29683747954752
 20
-110.6790446324826
 30
0
 10
34.23662777001772
 20
-107.4779882276063
 30
0
  0
LINE
  5
74
100
AcDbEntity
  8
handle9
  6
ByLayer
 62
  256
370
   -1
100
AcDbLine
 10
55.91885082605071
 20
-50.03726878233347
 11
33.9194336957444
 21
-105.7993384007884
  0
LINE
  5
75
100
AcDbEntity
  8
handle3
  6
ByLayer
 62
  256
370
   -1
100
AcDbLine
 10
49.9133855453837
 20
-36.5386793937451
 11
52.81338554538371
 21
-36.5386793937451
  0
LINE
  5
76
100
AcDbEntity
  8
handle3
  6
ByLayer
 62
  256
370
   -1
100
AcDbLine
 10
52.81338554538371
 20
-42.53867919940797
 11
49.9133855453837
 21
-42.53867941616861
  0
LINE
  5
77
100
AcDbEntity
  8
handle3
  6
ByLayer
 62
  256
370
   -1
100
AcDbLine
 10
49.9133855453837
 20
-42.5386793937451
 11
49.9133855453837
 21
-36.5386793937451
  0
ARC
  5
78
100
AcDbEntity
  8
handle4
  6
ByLayer
 62
  256
370
   -1
100
AcDbCircle
 10
37.10855854194169
 20
-49.87946388016332
 40
2
100
AcDbArc
 50
337.9991999999999
 51
67.99920000000003
  0
LINE
  5
79
100
AcDbEntity
  8
handle4
  6
ByLayer
 62
  256
370
   -1
100
AcDbLine
 10
37.85779762055813
 20
-48.02510663220004
 11
27.65883275675998
 21
-43.90429169980958
  0
ARC
  5
7A
100
AcDbEntity
  8
handle4
  6
ByLayer
 62
  256
370
   -1
100
AcDbCircle
 10
26.90959367814354
 20
-45.75864894777288
 40
2
100
AcDbArc
 50
67.99920000000003
 51
157.9991999999999
  0
LINE
  5
7B
100
AcDbEntity
  8
handle4
  6
ByLayer
 62
  256
370
   -1
100
AcDbLine
 10
22.05828011571446
 20
-52.4268388610096
 11
25.05523643018027
 21
-45.00940986915644
  0
ARC
  5
7C
100
AcDbEntity
  8
handle4
  6
ByLayer
 62
  256
370
   -1
100
AcDbCircle
 10
23.91263736367775
 20
-53.17607793962605
 40
2
100
AcDbArc
 50
157.9991999999999
 51
247.9992
  0
LINE
  5
7D
100
AcDbEntity
  8
handle4
  6
ByLayer
 62
  256
370
   -1
100
AcDbLine
 10
35.96595947543917
 20
-58.04613195063293
 11
38.96291578990498
 21
-50.62870295877977
  0
LINE
  5
7E
100
AcDbEntity
  8
handle4
  6
ByLayer
 62
  256
370
   -1
100
AcDbLine
 10
33.36236314885944
 20
-59.15125011997978
 11
23.16339828506131
 21
-55.03043518758933
  0
ARC
  5
7F
100
AcDbEntity
  8
handle4
  6
ByLayer
 62
  256
370
   -1
100
AcDbCircle
 10
34.11160222747588
 20
-57.29689287201649
 40
2
100
AcDbArc
 50
247.9992
 51
337.9991999999999
  0
ELLIPSE
  5
80
100
AcDbEntity
  8
handle4
  6
ByLayer
 62
  256
370
   -1
100
AcDbEllipse
 10
22.12550303273171
 20
-1519.966519864362
 30
0
 11
-0
 21
-1483.417110676493
 31
0
 40
0.169317757651324
 41
3.006639048768643
 42
3.139941456784249
  0
LINE
  5
81
100
AcDbEntity
  8
handle5
  6
ByLayer
 62
  256
370
   -1
100
AcDbLine
 10
32.58572061693945
 20
-108.6263963401389
 11
34.68905511693947
 21
-109.6821600901389
  0
LINE
  5
82
100
AcDbEntity
  8
handle5
  6
ByLayer
 62
  256
370
   -1
100
AcDbLine
 10
33.63476761693946
 20
-94.55930159013893
 11
35.76039386693947
 21
-95.62625409013893
  0
LINE
  5
83
100
AcDbEntity
  8
handle5
  6
ByLayer
 62
  256
370
   -1
100
AcDbLine
 10
36.87900211693946
 20
-95.0647713401389
 11
36.87900211693946
 21
-97.22470934013893
  0
LINE
  5
84
100
AcDbEntity
  8
handle5
  6
ByLayer
 62
  256
370
   -1
100
AcDbLine
 10
36.87900211693946
 20
-97.22470934013893
 11
34.68905511693947
 21
-98.3239468401389
  0
LINE
  5
85
100
AcDbEntity
  8
handle5
  6
ByLayer
 62
  256
370
   -1
100
AcDbLine
 10
33.63412886693948
 20
-107.0596235901389
 11
33.63412886693948
 21
-104.8576098401389
  0
LINE
  5
86
100
AcDbEntity
  8
handle5
  6
ByLayer
 62
  256
370
   -1
100
AcDbLine
 10
34.64178536693947
 20
-82.5647718401389
 11
35.76039386693947
 21
-83.12625359013893
  0
LINE
  5
87
100
AcDbEntity
  8
handle5
  6
ByLayer
 62
  256
370
   -1
100
AcDbLine
 10
36.87900211693946
 20
-82.5647718401389
 11
35.76039386693947
 21
-83.12625359013893
  0
LINE
  5
88
100
AcDbEntity
  8
handle5
  6
ByLayer
 62
  256
370
   -1
100
AcDbLine
 10
36.87900211693946
 20
-82.5647718401389
 11
36.87900211693946
 21
-84.72470759013893
  0
LINE
  5
89
100
AcDbEntity
  8
handle5
  6
ByLayer
 62
  256
370
   -1
100
AcDbLine
 10
36.87900211693946
 20
-84.72470759013893
 11
34.68905511693947
 21
-85.8239463401389
  0
LINE
  5
8A
100
AcDbEntity
  8
handle5
  6
ByLayer
 62
  256
370
   -1
100
AcDbLine
 10
32.58572061693945
 20
-83.62639634013895
 11
34.68905511693947
 21
-84.68216009013894
  0
LINE
  5
8B
100
AcDbEntity
  8
handle5
  6
ByLayer
 62
  256
370
   -1
100
AcDbLine
 10
34.68905511693947
 20
-84.68216009013894
 11
34.68905511693947
 21
-91.84775759013893
  0
LINE
  5
8C
100
AcDbEntity
  8
handle5
  6
ByLayer
 62
  256
370
   -1
100
AcDbLine
 10
32.56352561693947
 20
-90.78085434013893
 11
34.68905511693947
 21
-91.84775759013893
  0
LINE
  5
8D
100
AcDbEntity
  8
handle5
  6
ByLayer
 62
  256
370
   -1
100
AcDbLine
 10
33.63412886693948
 20
-94.55962334013893
 11
33.63412886693948
 21
-92.35760934013894
  0
LINE
  5
8E
100
AcDbEntity
  8
handle5
  6
ByLayer
 62
  256
370
   -1
100
AcDbLine
 10
32.56352561693947
 20
-96.11525534013893
 11
34.68905511693947
 21
-97.18216084013893
  0
LINE
  5
8F
100
AcDbEntity
  8
handle5
  6
ByLayer
 62
  256
370
   -1
100
AcDbLine
 10
45.06352436693948
 20
-76.32266684013894
 11
33.63476761693946
 21
-82.05930309013893
  0
LINE
  5
90
100
AcDbEntity
  8
handle5
  6
ByLayer
 62
  256
370
   -1
100
AcDbLine
 10
42.93799436693948
 20
-79.52347809013894
 11
40.81268311693947
 21
-78.45668659013893
  0
LINE
  5
91
100
AcDbEntity
  8
handle5
  6
ByLayer
 62
  256
370
   -1
100
AcDbLine
 10
45.06353761693947
 20
-77.38959084013894
 11
42.93799436693948
 21
-78.45650284013892
  0
LINE
  5
92
100
AcDbEntity
  8
handle5
  6
ByLayer
 62
  256
370
   -1
100
AcDbLine
 10
42.93799436693948
 20
-78.45650284013892
 11
42.93799436693948
 21
-82.5647718401389
  0
LINE
  5
93
100
AcDbEntity
  8
handle5
  6
ByLayer
 62
  256
370
   -1
100
AcDbLine
 10
42.93799436693948
 20
-73.21787009013893
 11
42.93799436693948
 21
-65.95650234013893
  0
LINE
  5
94
100
AcDbEntity
  8
handle5
  6
ByLayer
 62
  256
370
   -1
100
AcDbLine
 10
45.06352436693948
 20
-72.15096484013893
 11
42.93799436693948
 21
-73.21787009013893
  0
LINE
  5
95
100
AcDbEntity
  8
handle5
  6
ByLayer
 62
  256
370
   -1
100
AcDbLine
 10
33.63476761693946
 20
-69.55930159013893
 11
35.76039386693947
 21
-70.62625409013893
  0
LINE
  5
96
100
AcDbEntity
  8
handle5
  6
ByLayer
 62
  256
370
   -1
100
AcDbLine
 10
42.93799436693948
 20
-67.02347759013894
 11
35.76039386693947
 21
-70.62625409013893
  0
LINE
  5
97
100
AcDbEntity
  8
handle5
  6
ByLayer
 62
  256
370
   -1
100
AcDbLine
 10
36.87900211693946
 20
-70.06477134013893
 11
44.00064561693947
 21
-73.77087634013893
  0
LINE
  5
98
100
AcDbEntity
  8
handle5
  6
ByLayer
 62
  256
370
   -1
100
AcDbLine
 10
44.00064561693947
 20
-75.78915634013893
 11
44.00064561693947
 21
-73.77087634013893
  0
LINE
  5
99
100
AcDbEntity
  8
handle5
  6
ByLayer
 62
  256
370
   -1
100
AcDbLine
 10
36.87900211693946
 20
-70.06477134013893
 11
36.87900211693946
 21
-72.22470934013893
  0
LINE
  5
9A
100
AcDbEntity
  8
handle5
  6
ByLayer
 62
  256
370
   -1
100
AcDbLine
 10
42.93799436693948
 20
-79.52347809013894
 11
36.87900211693946
 21
-82.5647718401389
  0
LINE
  5
9B
100
AcDbEntity
  8
handle5
  6
ByLayer
 62
  256
370
   -1
100
AcDbLine
 10
33.63476761693946
 20
-82.05930309013893
 11
34.64178536693947
 21
-82.5647718401389
  0
LINE
  5
9C
100
AcDbEntity
  8
handle5
  6
ByLayer
 62
  256
370
   -1
100
AcDbLine
 10
36.87900211693946
 20
-72.22470934013893
 11
34.68905511693947
 21
-73.32394684013893
  0
LINE
  5
9D
100
AcDbEntity
  8
handle5
  6
ByLayer
 62
  256
370
   -1
100
AcDbLine
 10
34.68905511693947
 20
-72.18216084013893
 11
34.68905511693947
 21
-79.34775809013892
  0
LINE
  5
9E
100
AcDbEntity
  8
handle5
  6
ByLayer
 62
  256
370
   -1
100
AcDbLine
 10
44.00064561693947
 20
-75.78915634013893
 11
41.81070286693947
 21
-76.88839384013893
  0
LINE
  5
9F
100
AcDbEntity
  8
handle5
  6
ByLayer
 62
  256
370
   -1
100
AcDbLine
 10
40.81199211693948
 20
-78.45671484013893
 11
40.81199211693948
 21
-76.38852884013893
  0
LINE
  5
A0
100
AcDbEntity
  8
handle5
  6
ByLayer
 62
  256
370
   -1
100
AcDbLine
 10
41.81070286693947
 20
-76.88839384013893
 11
34.68905511693947
 21
-73.32394459013894
  0
LINE
  5
A1
100
AcDbEntity
  8
handle5
  6
ByLayer
 62
  256
370
   -1
100
AcDbLine
 10
33.63412886693948
 20
-79.85760984013893
 11
40.81199211693948
 21
-76.38852884013893
  0
LINE
  5
A2
100
AcDbEntity
  8
handle5
  6
ByLayer
 62
  256
370
   -1
100
AcDbLine
 10
33.63412886693948
 20
-82.05962359013893
 11
33.63412886693948
 21
-79.85760984013893
  0
LINE
  5
A3
100
AcDbEntity
  8
handle5
  6
ByLayer
 62
  256
370
   -1
100
AcDbLine
 10
47.18905886693946
 20
-67.02347759013894
 11
49.31437011693947
 21
-65.95668609013893
  0
LINE
  5
A4
100
AcDbEntity
  8
handle5
  6
ByLayer
 62
  256
370
   -1
100
AcDbLine
 10
45.06351561693947
 20
-64.88959034013892
 11
47.18905886693946
 21
-65.95650234013893
  0
LINE
  5
A5
100
AcDbEntity
  8
handle5
  6
ByLayer
 62
  256
370
   -1
100
AcDbLine
 10
47.18905886693946
 20
-60.71786959013893
 11
47.18905886693946
 21
-57.56477184013893
  0
LINE
  5
A6
100
AcDbEntity
  8
handle5
  6
ByLayer
 62
  256
370
   -1
100
AcDbLine
 10
45.06352436693948
 20
-59.65096434013893
 11
47.18905886693946
 21
-60.71786959013893
  0
LINE
  5
A7
100
AcDbEntity
  8
handle5
  6
ByLayer
 62
  256
370
   -1
100
AcDbLine
 10
46.12640761693947
 20
-63.28915584013893
 11
46.12640761693947
 21
-61.27087684013894
  0
LINE
  5
A8
100
AcDbEntity
  8
handle5
  6
ByLayer
 62
  256
370
   -1
100
AcDbLine
 10
46.12640761693947
 20
-63.28915584013893
 11
48.31635036693947
 21
-64.38839334013893
  0
LINE
  5
A9
100
AcDbEntity
  8
handle5
  6
ByLayer
 62
  256
370
   -1
100
AcDbLine
 10
49.31506111693946
 20
-65.95671434013893
 11
49.31506111693946
 21
-63.88852934013893
  0
LINE
  5
AA
100
AcDbEntity
  8
handle5
  6
ByLayer
 62
  256
370
   -1
100
AcDbLine
 10
45.06352436693948
 20
-63.82266634013892
 11
33.63476761693946
 21
-69.55930284013893
  0
LINE
  5
AB
100
AcDbEntity
  8
handle5
  6
ByLayer
 62
  256
370
   -1
100
AcDbLine
 10
42.93799436693948
 20
-67.02347759013894
 11
40.81268311693947
 21
-65.95668609013893
  0
LINE
  5
AC
100
AcDbEntity
  8
handle5
  6
ByLayer
 62
  256
370
   -1
100
AcDbLine
 10
45.06353761693947
 20
-64.88959034013892
 11
42.93799436693948
 21
-65.95650234013893
  0
LINE
  5
AD
100
AcDbEntity
  8
handle5
  6
ByLayer
 62
  256
370
   -1
100
AcDbLine
 10
42.93799436693948
 20
-60.71786959013893
 11
42.93799436693948
 21
-57.56477184013893
  0
LINE
  5
AE
100
AcDbEntity
  8
handle5
  6
ByLayer
 62
  256
370
   -1
100
AcDbLine
 10
45.06352436693948
 20
-59.65096434013893
 11
42.93799436693948
 21
-60.71786959013893
  0
LINE
  5
AF
100
AcDbEntity
  8
handle5
  6
ByLayer
 62
  256
370
   -1
100
AcDbLine
 10
44.00064561693947
 20
-63.28915584013893
 11
32.56352561693947
 21
-57.56477184013893
  0
LINE
  5
B0
100
AcDbEntity
  8
handle5
  6
ByLayer
 62
  256
370
   -1
100
AcDbLine
 10
34.64178536693947
 20
-57.56477184013893
 11
35.76039386693947
 21
-58.12625359013893
  0
LINE
  5
B1
100
AcDbEntity
  8
handle5
  6
ByLayer
 62
  256
370
   -1
100
AcDbLine
 10
36.87900211693946
 20
-57.56477184013893
 11
35.76039386693947
 21
-58.12625359013893
  0
LINE
  5
B2
100
AcDbEntity
  8
handle5
  6
ByLayer
 62
  256
370
   -1
100
AcDbLine
 10
36.87900211693946
 20
-57.56477184013893
 11
44.00064561693947
 21
-61.27087684013894
  0
LINE
  5
B3
100
AcDbEntity
  8
handle5
  6
ByLayer
 62
  256
370
   -1
100
AcDbLine
 10
44.00064561693947
 20
-63.28915584013893
 11
44.00064561693947
 21
-61.27087684013894
  0
LINE
  5
B4
100
AcDbEntity
  8
handle5
  6
ByLayer
 62
  256
370
   -1
100
AcDbLine
 10
36.87900211693946
 20
-57.56477184013893
 11
36.87900211693946
 21
-59.72470759013893
  0
LINE
  5
B5
100
AcDbEntity
  8
handle5
  6
ByLayer
 62
  256
370
   -1
100
AcDbLine
 10
36.87900211693946
 20
-59.72470759013893
 11
34.68905511693947
 21
-60.82394634013893
  0
LINE
  5
B6
100
AcDbEntity
  8
handle5
  6
ByLayer
 62
  256
370
   -1
100
AcDbLine
 10
32.58572061693945
 20
-58.62639634013892
 11
34.68905511693947
 21
-59.68216009013894
  0
LINE
  5
B7
100
AcDbEntity
  8
handle5
  6
ByLayer
 62
  256
370
   -1
100
AcDbLine
 10
34.68905511693947
 20
-59.68216009013894
 11
34.68905511693947
 21
-66.84775759013893
  0
LINE
  5
B8
100
AcDbEntity
  8
handle5
  6
ByLayer
 62
  256
370
   -1
100
AcDbLine
 10
32.56352561693947
 20
-65.78085434013893
 11
34.68905511693947
 21
-66.84775759013893
  0
LINE
  5
B9
100
AcDbEntity
  8
handle5
  6
ByLayer
 62
  256
370
   -1
100
AcDbLine
 10
44.00064561693947
 20
-63.28915584013893
 11
41.81070286693947
 21
-64.38839334013893
  0
LINE
  5
BA
100
AcDbEntity
  8
handle5
  6
ByLayer
 62
  256
370
   -1
100
AcDbLine
 10
40.81199211693948
 20
-65.95671434013893
 11
40.81199211693948
 21
-63.88852934013893
  0
LINE
  5
BB
100
AcDbEntity
  8
handle5
  6
ByLayer
 62
  256
370
   -1
100
AcDbLine
 10
41.81070286693947
 20
-64.38839334013893
 11
34.68905511693947
 21
-60.82394409013894
  0
LINE
  5
BC
100
AcDbEntity
  8
handle5
  6
ByLayer
 62
  256
370
   -1
100
AcDbLine
 10
33.63412886693948
 20
-67.35760934013894
 11
40.81199211693948
 21
-63.88852934013893
  0
LINE
  5
BD
100
AcDbEntity
  8
handle5
  6
ByLayer
 62
  256
370
   -1
100
AcDbLine
 10
33.63412886693948
 20
-69.55962334013893
 11
33.63412886693948
 21
-67.35760934013894
  0
LINE
  5
BE
100
AcDbEntity
  8
handle5
  6
ByLayer
 62
  256
370
   -1
100
AcDbLine
 10
32.56352561693947
 20
-71.11525534013893
 11
34.68905511693947
 21
-72.18216084013893
  0
LINE
  5
BF
100
AcDbEntity
  8
handle5
  6
ByLayer
 62
  256
370
   -1
100
AcDbLine
 10
44.00064561693947
 20
-75.78915634013893
 11
32.56352561693947
 21
-70.06477134013893
  0
LINE
  5
C0
100
AcDbEntity
  8
handle5
  6
ByLayer
 62
  256
370
   -1
100
AcDbLine
 10
32.56352561693947
 20
-78.2808548401389
 11
34.68905511693947
 21
-79.34775809013892
  0
LINE
  5
C1
100
AcDbEntity
  8
handle5
  6
ByLayer
 62
  256
370
   -1
100
AcDbLine
 10
47.18905886693946
 20
-54.52347809013894
 11
49.31437011693947
 21
-53.45668659013893
  0
LINE
  5
C2
100
AcDbEntity
  8
handle5
  6
ByLayer
 62
  256
370
   -1
100
AcDbLine
 10
45.06351561693947
 20
-52.38959084013894
 11
47.18905886693946
 21
-53.45650284013892
  0
LINE
  5
C3
100
AcDbEntity
  8
handle5
  6
ByLayer
 62
  256
370
   -1
100
AcDbLine
 10
47.18905886693946
 20
-53.45650284013892
 11
47.18905886693946
 21
-57.56477184013893
  0
LINE
  5
C4
100
AcDbEntity
  8
handle5
  6
ByLayer
 62
  256
370
   -1
100
AcDbLine
 10
45.06352436693948
 20
-47.15096484013893
 11
47.18905886693946
 21
-48.21787009013893
  0
LINE
  5
C5
100
AcDbEntity
  8
handle5
  6
ByLayer
 62
  256
370
   -1
100
AcDbLine
 10
46.12640761693947
 20
-50.78915634013893
 11
46.12640761693947
 21
-48.77087634013893
  0
LINE
  5
C6
100
AcDbEntity
  8
handle5
  6
ByLayer
 62
  256
370
   -1
100
AcDbLine
 10
46.12640761693947
 20
-50.78915634013893
 11
48.31635036693947
 21
-51.88839384013893
  0
LINE
  5
C7
100
AcDbEntity
  8
handle5
  6
ByLayer
 62
  256
370
   -1
100
AcDbLine
 10
49.31506111693946
 20
-53.45671484013893
 11
49.31506111693946
 21
-51.38852884013893
  0
LINE
  5
C8
100
AcDbEntity
  8
handle5
  6
ByLayer
 62
  256
370
   -1
100
AcDbLine
 10
45.06352436693948
 20
-51.32266684013894
 11
33.63476761693946
 21
-57.05930309013893
  0
LINE
  5
C9
100
AcDbEntity
  8
handle5
  6
ByLayer
 62
  256
370
   -1
100
AcDbLine
 10
42.93799436693948
 20
-54.52347809013894
 11
40.81268311693947
 21
-53.45668659013893
  0
LINE
  5
CA
100
AcDbEntity
  8
handle5
  6
ByLayer
 62
  256
370
   -1
100
AcDbLine
 10
45.06353761693947
 20
-52.38959084013894
 11
42.93799436693948
 21
-53.45650284013892
  0
LINE
  5
CB
100
AcDbEntity
  8
handle5
  6
ByLayer
 62
  256
370
   -1
100
AcDbLine
 10
42.93799436693948
 20
-53.45650284013892
 11
42.93799436693948
 21
-57.56477184013893
  0
LINE
  5
CC
100
AcDbEntity
  8
handle5
  6
ByLayer
 62
  256
370
   -1
100
AcDbLine
 10
45.06352436693948
 20
-47.15096484013893
 11
42.93799436693948
 21
-48.21787009013893
  0
LINE
  5
CD
100
AcDbEntity
  8
handle5
  6
ByLayer
 62
  256
370
   -1
100
AcDbLine
 10
33.63476761693946
 20
-44.55930159013893
 11
35.76039386693947
 21
-45.62625409013893
  0
LINE
  5
CE
100
AcDbEntity
  8
handle5
  6
ByLayer
 62
  256
370
   -1
100
AcDbLine
 10
42.93799436693948
 20
-42.02347759013893
 11
35.76039386693947
 21
-45.62625409013893
  0
LINE
  5
CF
100
AcDbEntity
  8
handle5
  6
ByLayer
 62
  256
370
   -1
100
AcDbLine
 10
36.87900211693946
 20
-45.06477134013893
 11
44.00064561693947
 21
-48.77087634013893
  0
LINE
  5
D0
100
AcDbEntity
  8
handle5
  6
ByLayer
 62
  256
370
   -1
100
AcDbLine
 10
44.00064561693947
 20
-50.78915634013893
 11
44.00064561693947
 21
-48.77087634013893
  0
LINE
  5
D1
100
AcDbEntity
  8
handle5
  6
ByLayer
 62
  256
370
   -1
100
AcDbLine
 10
36.87900211693946
 20
-45.06477134013893
 11
36.87900211693946
 21
-47.22470934013893
  0
LINE
  5
D2
100
AcDbEntity
  8
handle5
  6
ByLayer
 62
  256
370
   -1
100
AcDbLine
 10
42.93799436693948
 20
-54.52347809013894
 11
36.87900211693946
 21
-57.56477184013893
  0
LINE
  5
D3
100
AcDbEntity
  8
handle5
  6
ByLayer
 62
  256
370
   -1
100
AcDbLine
 10
33.63476761693946
 20
-57.05930309013893
 11
34.64178536693947
 21
-57.56477184013893
  0
LINE
  5
D4
100
AcDbEntity
  8
handle5
  6
ByLayer
 62
  256
370
   -1
100
AcDbLine
 10
36.87900211693946
 20
-47.22470934013893
 11
34.68905511693947
 21
-48.32394684013893
  0
LINE
  5
D5
100
AcDbEntity
  8
handle5
  6
ByLayer
 62
  256
370
   -1
100
AcDbLine
 10
34.68905511693947
 20
-47.18216084013893
 11
34.68905511693947
 21
-54.34775809013892
  0
LINE
  5
D6
100
AcDbEntity
  8
handle5
  6
ByLayer
 62
  256
370
   -1
100
AcDbLine
 10
44.00064561693947
 20
-50.78915634013893
 11
41.81070286693947
 21
-51.88839384013893
  0
LINE
  5
D7
100
AcDbEntity
  8
handle5
  6
ByLayer
 62
  256
370
   -1
100
AcDbLine
 10
40.81199211693948
 20
-53.45671484013893
 11
40.81199211693948
 21
-51.38852884013893
  0
LINE
  5
D8
100
AcDbEntity
  8
handle5
  6
ByLayer
 62
  256
370
   -1
100
AcDbLine
 10
41.81070286693947
 20
-51.88839384013893
 11
34.68905511693947
 21
-48.32394459013894
  0
LINE
  5
D9
100
AcDbEntity
  8
handle5
  6
ByLayer
 62
  256
370
   -1
100
AcDbLine
 10
33.63412886693948
 20
-54.85760984013893
 11
40.81199211693948
 21
-51.38852884013893
  0
LINE
  5
DA
100
AcDbEntity
  8
handle5
  6
ByLayer
 62
  256
370
   -1
100
AcDbLine
 10
33.63412886693948
 20
-57.05962359013893
 11
33.63412886693948
 21
-54.85760984013893
  0
LINE
  5
DB
100
AcDbEntity
  8
handle5
  6
ByLayer
 62
  256
370
   -1
100
AcDbLine
 10
42.93799436693948
 20
-42.02347759013893
 11
40.81268311693947
 21
-40.95668609013893
  0
LINE
  5
DC
100
AcDbEntity
  8
handle5
  6
ByLayer
 62
  256
370
   -1
100
AcDbLine
 10
32.56352561693947
 20
-40.78085434013893
 11
34.68905511693947
 21
-41.84775759013893
  0
LINE
  5
DD
100
AcDbEntity
  8
handle5
  6
ByLayer
 62
  256
370
   -1
100
AcDbLine
 10
33.63412886693948
 20
-44.55962334013893
 11
33.63412886693948
 21
-42.35760934013893
  0
LINE
  5
DE
100
AcDbEntity
  8
handle5
  6
ByLayer
 62
  256
370
   -1
100
AcDbLine
 10
32.56352561693947
 20
-46.11525534013893
 11
34.68905511693947
 21
-47.18216084013893
  0
LINE
  5
DF
100
AcDbEntity
  8
handle5
  6
ByLayer
 62
  256
370
   -1
100
AcDbLine
 10
44.00064561693947
 20
-50.78915634013893
 11
32.56352561693947
 21
-45.06477134013893
  0
LINE
  5
E0
100
AcDbEntity
  8
handle5
  6
ByLayer
 62
  256
370
   -1
100
AcDbLine
 10
32.56352561693947
 20
-53.28085484013893
 11
34.68905511693947
 21
-54.34775809013892
  0
LINE
  5
E1
100
AcDbEntity
  8
handle5
  6
ByLayer
 62
  256
370
   -1
100
AcDbLine
 10
22.18905636693947
 20
-110.7178695901389
 11
22.18905636693947
 21
-107.5647718401389
  0
LINE
  5
E2
100
AcDbEntity
  8
handle5
  6
ByLayer
 62
  256
370
   -1
100
AcDbLine
 10
20.06352186693948
 20
-109.6509643401389
 11
22.18905636693947
 21
-110.7178695901389
  0
LINE
  5
E3
100
AcDbEntity
  8
handle5
  6
ByLayer
 62
  256
370
   -1
100
AcDbLine
 10
21.12640511693948
 20
-113.2891558401389
 11
32.56352561693947
 21
-107.5647718401389
  0
LINE
  5
E4
100
AcDbEntity
  8
handle5
  6
ByLayer
 62
  256
370
   -1
100
AcDbLine
 10
30.48526511693947
 20
-107.5647718401389
 11
29.36665261693946
 21
-108.1262535901389
  0
LINE
  5
E5
100
AcDbEntity
  8
handle5
  6
ByLayer
 62
  256
370
   -1
100
AcDbLine
 10
28.24804411693947
 20
-107.5647718401389
 11
29.36665261693946
 21
-108.1262535901389
  0
LINE
  5
E6
100
AcDbEntity
  8
handle5
  6
ByLayer
 62
  256
370
   -1
100
AcDbLine
 10
28.24804411693947
 20
-107.5647718401389
 11
21.12640511693948
 21
-111.2708768401389
  0
LINE
  5
E7
100
AcDbEntity
  8
handle5
  6
ByLayer
 62
  256
370
   -1
100
AcDbLine
 10
21.12640511693948
 20
-113.2891558401389
 11
21.12640511693948
 21
-111.2708768401389
  0
LINE
  5
E8
100
AcDbEntity
  8
handle5
  6
ByLayer
 62
  256
370
   -1
100
AcDbLine
 10
28.24804411693947
 20
-107.5647718401389
 11
28.24804411693947
 21
-109.7247075901389
  0
LINE
  5
E9
100
AcDbEntity
  8
handle5
  6
ByLayer
 62
  256
370
   -1
100
AcDbLine
 10
28.24804411693947
 20
-109.7247075901389
 11
30.43799136693949
 21
-110.8239463401389
  0
LINE
  5
EA
100
AcDbEntity
  8
handle5
  6
ByLayer
 62
  256
370
   -1
100
AcDbLine
 10
30.43799136693949
 20
-109.6821600901389
 11
30.43799136693949
 21
-116.8477575901389
  0
LINE
  5
EB
100
AcDbEntity
  8
handle5
  6
ByLayer
 62
  256
370
   -1
100
AcDbLine
 10
32.56352561693947
 20
-115.7808543401389
 11
30.43799136693949
 21
-116.8477575901389
  0
LINE
  5
EC
100
AcDbEntity
  8
handle5
  6
ByLayer
 62
  256
370
   -1
100
AcDbLine
 10
21.12640511693948
 20
-113.2891558401389
 11
23.31634786693948
 21
-114.3883933401389
  0
LINE
  5
ED
100
AcDbEntity
  8
handle5
  6
ByLayer
 62
  256
370
   -1
100
AcDbLine
 10
24.31505861693947
 20
-115.9567143401389
 11
24.31505861693947
 21
-113.8885293401389
  0
LINE
  5
EE
100
AcDbEntity
  8
handle5
  6
ByLayer
 62
  256
370
   -1
100
AcDbLine
 10
23.31634786693948
 20
-114.3883933401389
 11
30.43799136693949
 21
-110.8239440901389
  0
LINE
  5
EF
100
AcDbEntity
  8
handle5
  6
ByLayer
 62
  256
370
   -1
100
AcDbLine
 10
17.93799186693948
 20
-110.7178695901389
 11
17.93799186693948
 21
-107.5647718401389
  0
LINE
  5
F0
100
AcDbEntity
  8
handle5
  6
ByLayer
 62
  256
370
   -1
100
AcDbLine
 10
20.06352186693948
 20
-109.6509643401389
 11
17.93799186693948
 21
-110.7178695901389
  0
LINE
  5
F1
100
AcDbEntity
  8
handle5
  6
ByLayer
 62
  256
370
   -1
100
AcDbLine
 10
19.00064311693947
 20
-113.2891558401389
 11
7.563523116939479
 21
-107.5647718401389
  0
LINE
  5
F2
100
AcDbEntity
  8
handle5
  6
ByLayer
 62
  256
370
   -1
100
AcDbLine
 10
9.641782866939479
 20
-107.5647718401389
 11
10.76039136693947
 21
-108.1262535901389
  0
LINE
  5
F3
100
AcDbEntity
  8
handle5
  6
ByLayer
 62
  256
370
   -1
100
AcDbLine
 10
11.87899961693947
 20
-107.5647718401389
 11
10.76039136693947
 21
-108.1262535901389
  0
LINE
  5
F4
100
AcDbEntity
  8
handle5
  6
ByLayer
 62
  256
370
   -1
100
AcDbLine
 10
11.87899961693947
 20
-107.5647718401389
 11
19.00064311693947
 21
-111.2708768401389
  0
LINE
  5
F5
100
AcDbEntity
  8
handle5
  6
ByLayer
 62
  256
370
   -1
100
AcDbLine
 10
19.00064311693947
 20
-113.2891558401389
 11
19.00064311693947
 21
-111.2708768401389
  0
LINE
  5
F6
100
AcDbEntity
  8
handle5
  6
ByLayer
 62
  256
370
   -1
100
AcDbLine
 10
11.87899961693947
 20
-107.5647718401389
 11
11.87899961693947
 21
-109.7247075901389
  0
LINE
  5
F7
100
AcDbEntity
  8
handle5
  6
ByLayer
 62
  256
370
   -1
100
AcDbLine
 10
7.585718116939461
 20
-108.6263963401389
 11
9.689052616939478
 21
-109.6821600901389
  0
LINE
  5
F8
100
AcDbEntity
  8
handle5
  6
ByLayer
 62
  256
370
   -1
100
AcDbLine
 10
32.56352561693947
 20
-108.6152525901389
 11
30.43799136693949
 21
-109.6821600901389
  0
LINE
  5
F9
100
AcDbEntity
  8
handle5
  6
ByLayer
 62
  256
370
   -1
100
AcDbLine
 10
20.06352186693948
 20
-101.3226668401389
 11
31.49227861693947
 21
-107.0593030901389
  0
LINE
  5
FA
100
AcDbEntity
  8
handle5
  6
ByLayer
 62
  256
370
   -1
100
AcDbLine
 10
22.18905636693947
 20
-104.5234780901389
 11
24.31436761693948
 21
-103.4566865901389
  0
LINE
  5
FB
100
AcDbEntity
  8
handle5
  6
ByLayer
 62
  256
370
   -1
100
AcDbLine
 10
20.06351311693948
 20
-102.3895908401389
 11
22.18905636693947
 21
-103.456502840139
  0
LINE
  5
FC
100
AcDbEntity
  8
handle5
  6
ByLayer
 62
  256
370
   -1
100
AcDbLine
 10
22.18905636693947
 20
-103.456502840139
 11
22.18905636693947
 21
-107.5647718401389
  0
LINE
  5
FD
100
AcDbEntity
  8
handle5
  6
ByLayer
 62
  256
370
   -1
100
AcDbLine
 10
20.06352186693948
 20
-82.5647718401389
 11
20.06352186693948
 21
-107.5647718401389
  0
LINE
  5
FE
100
AcDbEntity
  8
handle5
  6
ByLayer
 62
  256
370
   -1
100
AcDbLine
 10
22.18905636693947
 20
-98.2178700901389
 11
22.18905636693947
 21
-90.9565023401389
  0
LINE
  5
FF
100
AcDbEntity
  8
handle5
  6
ByLayer
 62
  256
370
   -1
100
AcDbLine
 10
20.06352186693948
 20
-97.15096484013893
 11
22.18905636693947
 21
-98.2178700901389
  0
LINE
  5
100
100
AcDbEntity
  8
handle5
  6
ByLayer
 62
  256
370
   -1
100
AcDbLine
 10
21.12640511693948
 20
-100.7891563401389
 11
32.56352561693947
 21
-95.0647713401389
  0
LINE
  5
101
100
AcDbEntity
  8
handle5
  6
ByLayer
 62
  256
370
   -1
100
AcDbLine
 10
31.49227861693947
 20
-94.5593028401389
 11
29.36665261693946
 21
-95.62625409013893
  0
LINE
  5
102
100
AcDbEntity
  8
handle5
  6
ByLayer
 62
  256
370
   -1
100
AcDbLine
 10
22.18905636693947
 20
-92.02347759013894
 11
29.36665261693946
 21
-95.62625409013893
  0
LINE
  5
103
100
AcDbEntity
  8
handle5
  6
ByLayer
 62
  256
370
   -1
100
AcDbLine
 10
28.24804411693947
 20
-95.0647713401389
 11
21.12640511693948
 21
-98.77087634013893
  0
LINE
  5
104
100
AcDbEntity
  8
handle5
  6
ByLayer
 62
  256
370
   -1
100
AcDbLine
 10
21.12640511693948
 20
-100.7891563401389
 11
21.12640511693948
 21
-98.77087634013893
  0
LINE
  5
105
100
AcDbEntity
  8
handle5
  6
ByLayer
 62
  256
370
   -1
100
AcDbLine
 10
28.24804411693947
 20
-95.0647713401389
 11
28.24804411693947
 21
-97.22470934013893
  0
LINE
  5
106
100
AcDbEntity
  8
handle5
  6
ByLayer
 62
  256
370
   -1
100
AcDbLine
 10
22.18905636693947
 20
-104.5234780901389
 11
28.24804411693947
 21
-107.5647718401389
  0
LINE
  5
107
100
AcDbEntity
  8
handle5
  6
ByLayer
 62
  256
370
   -1
100
AcDbLine
 10
31.49227861693947
 20
-107.0593030901389
 11
30.48526511693947
 21
-107.5647718401389
  0
LINE
  5
108
100
AcDbEntity
  8
handle5
  6
ByLayer
 62
  256
370
   -1
100
AcDbLine
 10
28.24804411693947
 20
-97.22470934013893
 11
30.43799136693949
 21
-98.3239468401389
  0
LINE
  5
109
100
AcDbEntity
  8
handle5
  6
ByLayer
 62
  256
370
   -1
100
AcDbLine
 10
32.54132561693947
 20
-96.1263968401389
 11
30.43799136693949
 21
-97.18216084013893
  0
LINE
  5
10A
100
AcDbEntity
  8
handle5
  6
ByLayer
 62
  256
370
   -1
100
AcDbLine
 10
30.43799136693949
 20
-97.18216084013893
 11
30.43799136693949
 21
-104.3477585901389
  0
LINE
  5
10B
100
AcDbEntity
  8
handle5
  6
ByLayer
 62
  256
370
   -1
100
AcDbLine
 10
21.12640511693948
 20
-100.7891563401389
 11
23.31634786693948
 21
-101.8883938401389
  0
LINE
  5
10C
100
AcDbEntity
  8
handle5
  6
ByLayer
 62
  256
370
   -1
100
AcDbLine
 10
24.31505861693947
 20
-103.4567148401389
 11
24.31505861693947
 21
-101.388528840139
  0
LINE
  5
10D
100
AcDbEntity
  8
handle5
  6
ByLayer
 62
  256
370
   -1
100
AcDbLine
 10
23.31634786693948
 20
-101.8883938401389
 11
30.43799136693949
 21
-98.32394459013896
  0
LINE
  5
10E
100
AcDbEntity
  8
handle5
  6
ByLayer
 62
  256
370
   -1
100
AcDbLine
 10
31.49292161693947
 20
-104.8576098401389
 11
24.31505861693947
 21
-101.388528840139
  0
LINE
  5
10F
100
AcDbEntity
  8
handle5
  6
ByLayer
 62
  256
370
   -1
100
AcDbLine
 10
31.49292161693947
 20
-107.0596235901389
 11
31.49292161693947
 21
-104.8576098401389
  0
LINE
  5
110
100
AcDbEntity
  8
handle5
  6
ByLayer
 62
  256
370
   -1
100
AcDbLine
 10
20.06352186693948
 20
-101.3226668401389
 11
8.634765116939462
 21
-107.0593030901389
  0
LINE
  5
111
100
AcDbEntity
  8
handle5
  6
ByLayer
 62
  256
370
   -1
100
AcDbLine
 10
17.93799186693948
 20
-104.5234780901389
 11
15.81268061693947
 21
-103.4566865901389
  0
LINE
  5
112
100
AcDbEntity
  8
handle5
  6
ByLayer
 62
  256
370
   -1
100
AcDbLine
 10
20.06353511693948
 20
-102.3895908401389
 11
17.93799186693948
 21
-103.456502840139
  0
LINE
  5
113
100
AcDbEntity
  8
handle5
  6
ByLayer
 62
  256
370
   -1
100
AcDbLine
 10
17.93799186693948
 20
-103.456502840139
 11
17.93799186693948
 21
-107.5647718401389
  0
LINE
  5
114
100
AcDbEntity
  8
handle5
  6
ByLayer
 62
  256
370
   -1
100
AcDbLine
 10
17.93799186693948
 20
-98.2178700901389
 11
17.93799186693948
 21
-90.9565023401389
  0
LINE
  5
115
100
AcDbEntity
  8
handle5
  6
ByLayer
 62
  256
370
   -1
100
AcDbLine
 10
20.06352186693948
 20
-97.15096484013893
 11
17.93799186693948
 21
-98.2178700901389
  0
LINE
  5
116
100
AcDbEntity
  8
handle5
  6
ByLayer
 62
  256
370
   -1
100
AcDbLine
 10
8.634765116939462
 20
-94.55930159013893
 11
10.76039136693947
 21
-95.62625409013893
  0
LINE
  5
117
100
AcDbEntity
  8
handle5
  6
ByLayer
 62
  256
370
   -1
100
AcDbLine
 10
17.93799186693948
 20
-92.02347759013894
 11
10.76039136693947
 21
-95.62625409013893
  0
LINE
  5
118
100
AcDbEntity
  8
handle5
  6
ByLayer
 62
  256
370
   -1
100
AcDbLine
 10
11.87899961693947
 20
-95.0647713401389
 11
19.00064311693947
 21
-98.77087634013893
  0
LINE
  5
119
100
AcDbEntity
  8
handle5
  6
ByLayer
 62
  256
370
   -1
100
AcDbLine
 10
19.00064311693947
 20
-100.7891563401389
 11
19.00064311693947
 21
-98.77087634013893
  0
LINE
  5
11A
100
AcDbEntity
  8
handle5
  6
ByLayer
 62
  256
370
   -1
100
AcDbLine
 10
11.87899961693947
 20
-95.0647713401389
 11
11.87899961693947
 21
-97.22470934013893
  0
LINE
  5
11B
100
AcDbEntity
  8
handle5
  6
ByLayer
 62
  256
370
   -1
100
AcDbLine
 10
17.93799186693948
 20
-104.5234780901389
 11
11.87899961693947
 21
-107.5647718401389
  0
LINE
  5
11C
100
AcDbEntity
  8
handle5
  6
ByLayer
 62
  256
370
   -1
100
AcDbLine
 10
8.634765116939462
 20
-107.0593030901389
 11
9.641782866939479
 21
-107.5647718401389
  0
LINE
  5
11D
100
AcDbEntity
  8
handle5
  6
ByLayer
 62
  256
370
   -1
100
AcDbLine
 10
11.87899961693947
 20
-97.22470934013893
 11
9.689052616939478
 21
-98.3239468401389
  0
LINE
  5
11E
100
AcDbEntity
  8
handle5
  6
ByLayer
 62
  256
370
   -1
100
AcDbLine
 10
9.689052616939478
 20
-97.18216084013893
 11
9.689052616939478
 21
-104.3477580901389
  0
LINE
  5
11F
100
AcDbEntity
  8
handle5
  6
ByLayer
 62
  256
370
   -1
100
AcDbLine
 10
19.00064311693947
 20
-100.7891563401389
 11
16.81070036693947
 21
-101.8883938401389
  0
LINE
  5
120
100
AcDbEntity
  8
handle5
  6
ByLayer
 62
  256
370
   -1
100
AcDbLine
 10
15.81198961693948
 20
-103.4567148401389
 11
15.81198961693948
 21
-101.388528840139
  0
LINE
  5
121
100
AcDbEntity
  8
handle5
  6
ByLayer
 62
  256
370
   -1
100
AcDbLine
 10
16.81070036693947
 20
-101.8883938401389
 11
9.689052616939478
 21
-98.32394459013896
  0
LINE
  5
122
100
AcDbEntity
  8
handle5
  6
ByLayer
 62
  256
370
   -1
100
AcDbLine
 10
8.634126366939483
 20
-104.8576098401389
 11
15.81198961693948
 21
-101.388528840139
  0
LINE
  5
123
100
AcDbEntity
  8
handle5
  6
ByLayer
 62
  256
370
   -1
100
AcDbLine
 10
8.634126366939483
 20
-107.0596235901389
 11
8.634126366939483
 21
-104.8576098401389
  0
LINE
  5
124
100
AcDbEntity
  8
handle5
  6
ByLayer
 62
  256
370
   -1
100
AcDbLine
 10
20.06352186693948
 20
-88.82266634013895
 11
31.49227861693947
 21
-94.5593028401389
  0
LINE
  5
125
100
AcDbEntity
  8
handle5
  6
ByLayer
 62
  256
370
   -1
100
AcDbLine
 10
22.18905636693947
 20
-92.02347759013894
 11
24.31436761693948
 21
-90.95668609013893
  0
LINE
  5
126
100
AcDbEntity
  8
handle5
  6
ByLayer
 62
  256
370
   -1
100
AcDbLine
 10
20.06351311693948
 20
-89.88959034013889
 11
22.18905636693947
 21
-90.9565023401389
  0
LINE
  5
127
100
AcDbEntity
  8
handle5
  6
ByLayer
 62
  256
370
   -1
100
AcDbLine
 10
22.18905636693947
 20
-85.7178695901389
 11
22.18905636693947
 21
-82.5647718401389
  0
LINE
  5
128
100
AcDbEntity
  8
handle5
  6
ByLayer
 62
  256
370
   -1
100
AcDbLine
 10
20.06352186693948
 20
-84.65096434013893
 11
22.18905636693947
 21
-85.7178695901389
  0
LINE
  5
129
100
AcDbEntity
  8
handle5
  6
ByLayer
 62
  256
370
   -1
100
AcDbLine
 10
21.12640511693948
 20
-88.28915584013893
 11
32.56352561693947
 21
-82.5647718401389
  0
LINE
  5
12A
100
AcDbEntity
  8
handle5
  6
ByLayer
 62
  256
370
   -1
100
AcDbLine
 10
30.48526511693947
 20
-82.5647718401389
 11
29.36665261693946
 21
-83.12625359013893
  0
LINE
  5
12B
100
AcDbEntity
  8
handle5
  6
ByLayer
 62
  256
370
   -1
100
AcDbLine
 10
28.24804411693947
 20
-82.5647718401389
 11
29.36665261693946
 21
-83.12625359013893
  0
LINE
  5
12C
100
AcDbEntity
  8
handle5
  6
ByLayer
 62
  256
370
   -1
100
AcDbLine
 10
28.24804411693947
 20
-82.5647718401389
 11
21.12640511693948
 21
-86.27087684013891
  0
LINE
  5
12D
100
AcDbEntity
  8
handle5
  6
ByLayer
 62
  256
370
   -1
100
AcDbLine
 10
21.12640511693948
 20
-88.28915584013893
 11
21.12640511693948
 21
-86.27087684013891
  0
LINE
  5
12E
100
AcDbEntity
  8
handle5
  6
ByLayer
 62
  256
370
   -1
100
AcDbLine
 10
28.24804411693947
 20
-82.5647718401389
 11
28.24804411693947
 21
-84.72470759013893
  0
LINE
  5
12F
100
AcDbEntity
  8
handle5
  6
ByLayer
 62
  256
370
   -1
100
AcDbLine
 10
28.24804411693947
 20
-84.72470759013893
 11
30.43799136693949
 21
-85.8239463401389
  0
LINE
  5
130
100
AcDbEntity
  8
handle5
  6
ByLayer
 62
  256
370
   -1
100
AcDbLine
 10
30.43799136693949
 20
-84.68216009013894
 11
30.43799136693949
 21
-91.84775759013893
  0
LINE
  5
131
100
AcDbEntity
  8
handle5
  6
ByLayer
 62
  256
370
   -1
100
AcDbLine
 10
32.56352561693947
 20
-90.78085434013893
 11
30.43799136693949
 21
-91.84775759013893
  0
LINE
  5
132
100
AcDbEntity
  8
handle5
  6
ByLayer
 62
  256
370
   -1
100
AcDbLine
 10
21.12640511693948
 20
-88.28915584013893
 11
23.31634786693948
 21
-89.38839334013893
  0
LINE
  5
133
100
AcDbEntity
  8
handle5
  6
ByLayer
 62
  256
370
   -1
100
AcDbLine
 10
24.31505861693947
 20
-90.95671434013893
 11
24.31505861693947
 21
-88.88852934013893
  0
LINE
  5
134
100
AcDbEntity
  8
handle5
  6
ByLayer
 62
  256
370
   -1
100
AcDbLine
 10
23.31634786693948
 20
-89.38839334013893
 11
30.43799136693949
 21
-85.82394409013897
  0
LINE
  5
135
100
AcDbEntity
  8
handle5
  6
ByLayer
 62
  256
370
   -1
100
AcDbLine
 10
31.49292161693947
 20
-92.35760934013894
 11
24.31505861693947
 21
-88.88852934013893
  0
LINE
  5
136
100
AcDbEntity
  8
handle5
  6
ByLayer
 62
  256
370
   -1
100
AcDbLine
 10
31.49292161693947
 20
-94.55962334013893
 11
31.49292161693947
 21
-92.35760934013894
  0
LINE
  5
137
100
AcDbEntity
  8
handle5
  6
ByLayer
 62
  256
370
   -1
100
AcDbLine
 10
20.06352186693948
 20
-88.82266634013895
 11
8.634765116939462
 21
-94.5593028401389
  0
LINE
  5
138
100
AcDbEntity
  8
handle5
  6
ByLayer
 62
  256
370
   -1
100
AcDbLine
 10
17.93799186693948
 20
-92.02347759013894
 11
15.81268061693947
 21
-90.95668609013893
  0
LINE
  5
139
100
AcDbEntity
  8
handle5
  6
ByLayer
 62
  256
370
   -1
100
AcDbLine
 10
20.06353511693948
 20
-89.88959034013889
 11
17.93799186693948
 21
-90.9565023401389
  0
LINE
  5
13A
100
AcDbEntity
  8
handle5
  6
ByLayer
 62
  256
370
   -1
100
AcDbLine
 10
17.93799186693948
 20
-85.7178695901389
 11
17.93799186693948
 21
-82.5647718401389
  0
LINE
  5
13B
100
AcDbEntity
  8
handle5
  6
ByLayer
 62
  256
370
   -1
100
AcDbLine
 10
20.06352186693948
 20
-84.65096434013893
 11
17.93799186693948
 21
-85.7178695901389
  0
LINE
  5
13C
100
AcDbEntity
  8
handle5
  6
ByLayer
 62
  256
370
   -1
100
AcDbLine
 10
19.00064311693947
 20
-88.28915584013893
 11
7.563523116939479
 21
-82.5647718401389
  0
LINE
  5
13D
100
AcDbEntity
  8
handle5
  6
ByLayer
 62
  256
370
   -1
100
AcDbLine
 10
9.641782866939479
 20
-82.5647718401389
 11
10.76039136693947
 21
-83.12625359013893
  0
LINE
  5
13E
100
AcDbEntity
  8
handle5
  6
ByLayer
 62
  256
370
   -1
100
AcDbLine
 10
11.87899961693947
 20
-82.5647718401389
 11
10.76039136693947
 21
-83.12625359013893
  0
LINE
  5
13F
100
AcDbEntity
  8
handle5
  6
ByLayer
 62
  256
370
   -1
100
AcDbLine
 10
11.87899961693947
 20
-82.5647718401389
 11
19.00064311693947
 21
-86.27087684013891
  0
LINE
  5
140
100
AcDbEntity
  8
handle5
  6
ByLayer
 62
  256
370
   -1
100
AcDbLine
 10
19.00064311693947
 20
-88.28915584013893
 11
19.00064311693947
 21
-86.27087684013891
  0
LINE
  5
141
100
AcDbEntity
  8
handle5
  6
ByLayer
 62
  256
370
   -1
100
AcDbLine
 10
11.87899961693947
 20
-82.5647718401389
 11
11.87899961693947
 21
-84.72470759013893
  0
LINE
  5
142
100
AcDbEntity
  8
handle5
  6
ByLayer
 62
  256
370
   -1
100
AcDbLine
 10
11.87899961693947
 20
-84.72470759013893
 11
9.689052616939478
 21
-85.8239463401389
  0
LINE
  5
143
100
AcDbEntity
  8
handle5
  6
ByLayer
 62
  256
370
   -1
100
AcDbLine
 10
7.585718116939461
 20
-83.62639634013895
 11
9.689052616939478
 21
-84.68216009013894
  0
LINE
  5
144
100
AcDbEntity
  8
handle5
  6
ByLayer
 62
  256
370
   -1
100
AcDbLine
 10
9.689052616939478
 20
-84.68216009013894
 11
9.689052616939478
 21
-91.84775759013893
  0
LINE
  5
145
100
AcDbEntity
  8
handle5
  6
ByLayer
 62
  256
370
   -1
100
AcDbLine
 10
7.563523116939479
 20
-90.78085434013893
 11
9.689052616939478
 21
-91.84775759013893
  0
LINE
  5
146
100
AcDbEntity
  8
handle5
  6
ByLayer
 62
  256
370
   -1
100
AcDbLine
 10
19.00064311693947
 20
-88.28915584013893
 11
16.81070036693947
 21
-89.38839334013893
  0
LINE
  5
147
100
AcDbEntity
  8
handle5
  6
ByLayer
 62
  256
370
   -1
100
AcDbLine
 10
15.81198961693948
 20
-90.95671434013893
 11
15.81198961693948
 21
-88.88852934013893
  0
LINE
  5
148
100
AcDbEntity
  8
handle5
  6
ByLayer
 62
  256
370
   -1
100
AcDbLine
 10
16.81070036693947
 20
-89.38839334013893
 11
9.689052616939478
 21
-85.82394409013897
  0
LINE
  5
149
100
AcDbEntity
  8
handle5
  6
ByLayer
 62
  256
370
   -1
100
AcDbLine
 10
8.634126366939483
 20
-92.35760934013894
 11
15.81198961693948
 21
-88.88852934013893
  0
LINE
  5
14A
100
AcDbEntity
  8
handle5
  6
ByLayer
 62
  256
370
   -1
100
AcDbLine
 10
8.634126366939483
 20
-94.55962334013893
 11
8.634126366939483
 21
-92.35760934013894
  0
LINE
  5
14B
100
AcDbEntity
  8
handle5
  6
ByLayer
 62
  256
370
   -1
100
AcDbLine
 10
32.56352561693947
 20
-82.5647718401389
 11
32.56352561693947
 21
-107.5647718401389
  0
LINE
  5
14C
100
AcDbEntity
  8
handle5
  6
ByLayer
 62
  256
370
   -1
100
AcDbLine
 10
7.563523116939479
 20
-96.11525534013893
 11
9.689052616939478
 21
-97.18216084013893
  0
LINE
  5
14D
100
AcDbEntity
  8
handle5
  6
ByLayer
 62
  256
370
   -1
100
AcDbLine
 10
19.00064311693947
 20
-100.7891563401389
 11
7.563523116939479
 21
-95.0647713401389
  0
LINE
  5
14E
100
AcDbEntity
  8
handle5
  6
ByLayer
 62
  256
370
   -1
100
AcDbLine
 10
7.563523116939479
 20
-103.2808548401389
 11
9.689052616939478
 21
-104.3477580901389
  0
LINE
  5
14F
100
AcDbEntity
  8
handle5
  6
ByLayer
 62
  256
370
   -1
100
AcDbLine
 10
32.56352561693947
 20
-83.61525259013892
 11
30.43799136693949
 21
-84.68216009013894
  0
LINE
  5
150
100
AcDbEntity
  8
handle5
  6
ByLayer
 62
  256
370
   -1
100
AcDbLine
 10
32.56352561693947
 20
-103.2808545901389
 11
30.43799136693949
 21
-104.3477585901389
  0
LINE
  5
151
100
AcDbEntity
  8
handle5
  6
ByLayer
 62
  256
370
   -1
100
AcDbLine
 10
20.06352186693948
 20
-76.32266684013894
 11
31.49227861693947
 21
-82.05930309013893
  0
LINE
  5
152
100
AcDbEntity
  8
handle5
  6
ByLayer
 62
  256
370
   -1
100
AcDbLine
 10
22.18905636693947
 20
-79.52347809013894
 11
24.31436761693948
 21
-78.45668659013893
  0
LINE
  5
153
100
AcDbEntity
  8
handle5
  6
ByLayer
 62
  256
370
   -1
100
AcDbLine
 10
20.06351311693948
 20
-77.38959084013894
 11
22.18905636693947
 21
-78.45650284013892
  0
LINE
  5
154
100
AcDbEntity
  8
handle5
  6
ByLayer
 62
  256
370
   -1
100
AcDbLine
 10
22.18905636693947
 20
-78.45650284013892
 11
22.18905636693947
 21
-82.5647718401389
  0
LINE
  5
155
100
AcDbEntity
  8
handle5
  6
ByLayer
 62
  256
370
   -1
100
AcDbLine
 10
20.06352186693948
 20
-57.56477184013893
 11
20.06352186693948
 21
-82.5647718401389
  0
LINE
  5
156
100
AcDbEntity
  8
handle5
  6
ByLayer
 62
  256
370
   -1
100
AcDbLine
 10
22.18905636693947
 20
-73.21787009013893
 11
22.18905636693947
 21
-65.95650234013893
  0
LINE
  5
157
100
AcDbEntity
  8
handle5
  6
ByLayer
 62
  256
370
   -1
100
AcDbLine
 10
20.06352186693948
 20
-72.15096484013893
 11
22.18905636693947
 21
-73.21787009013893
  0
LINE
  5
158
100
AcDbEntity
  8
handle5
  6
ByLayer
 62
  256
370
   -1
100
AcDbLine
 10
21.12640511693948
 20
-75.78915634013893
 11
32.56352561693947
 21
-70.06477134013893
  0
LINE
  5
159
100
AcDbEntity
  8
handle5
  6
ByLayer
 62
  256
370
   -1
100
AcDbLine
 10
31.49227861693947
 20
-69.55930284013893
 11
29.36665261693946
 21
-70.62625409013893
  0
LINE
  5
15A
100
AcDbEntity
  8
handle5
  6
ByLayer
 62
  256
370
   -1
100
AcDbLine
 10
22.18905636693947
 20
-67.02347759013894
 11
29.36665261693946
 21
-70.62625409013893
  0
LINE
  5
15B
100
AcDbEntity
  8
handle5
  6
ByLayer
 62
  256
370
   -1
100
AcDbLine
 10
28.24804411693947
 20
-70.06477134013893
 11
21.12640511693948
 21
-73.77087634013893
  0
LINE
  5
15C
100
AcDbEntity
  8
handle5
  6
ByLayer
 62
  256
370
   -1
100
AcDbLine
 10
21.12640511693948
 20
-75.78915634013893
 11
21.12640511693948
 21
-73.77087634013893
  0
LINE
  5
15D
100
AcDbEntity
  8
handle5
  6
ByLayer
 62
  256
370
   -1
100
AcDbLine
 10
28.24804411693947
 20
-70.06477134013893
 11
28.24804411693947
 21
-72.22470934013893
  0
LINE
  5
15E
100
AcDbEntity
  8
handle5
  6
ByLayer
 62
  256
370
   -1
100
AcDbLine
 10
22.18905636693947
 20
-79.52347809013894
 11
28.24804411693947
 21
-82.5647718401389
  0
LINE
  5
15F
100
AcDbEntity
  8
handle5
  6
ByLayer
 62
  256
370
   -1
100
AcDbLine
 10
31.49227861693947
 20
-82.05930309013893
 11
30.48526511693947
 21
-82.5647718401389
  0
LINE
  5
160
100
AcDbEntity
  8
handle5
  6
ByLayer
 62
  256
370
   -1
100
AcDbLine
 10
28.24804411693947
 20
-72.22470934013893
 11
30.43799136693949
 21
-73.32394684013893
  0
LINE
  5
161
100
AcDbEntity
  8
handle5
  6
ByLayer
 62
  256
370
   -1
100
AcDbLine
 10
32.54132561693947
 20
-71.12639684013892
 11
30.43799136693949
 21
-72.18216084013893
  0
LINE
  5
162
100
AcDbEntity
  8
handle5
  6
ByLayer
 62
  256
370
   -1
100
AcDbLine
 10
30.43799136693949
 20
-72.18216084013893
 11
30.43799136693949
 21
-79.34775859013894
  0
LINE
  5
163
100
AcDbEntity
  8
handle5
  6
ByLayer
 62
  256
370
   -1
100
AcDbLine
 10
21.12640511693948
 20
-75.78915634013893
 11
23.31634786693948
 21
-76.88839384013893
  0
LINE
  5
164
100
AcDbEntity
  8
handle5
  6
ByLayer
 62
  256
370
   -1
100
AcDbLine
 10
24.31505861693947
 20
-78.45671484013893
 11
24.31505861693947
 21
-76.38852884013893
  0
LINE
  5
165
100
AcDbEntity
  8
handle5
  6
ByLayer
 62
  256
370
   -1
100
AcDbLine
 10
23.31634786693948
 20
-76.88839384013893
 11
30.43799136693949
 21
-73.32394459013894
  0
LINE
  5
166
100
AcDbEntity
  8
handle5
  6
ByLayer
 62
  256
370
   -1
100
AcDbLine
 10
31.49292161693947
 20
-79.85760984013893
 11
24.31505861693947
 21
-76.38852884013893
  0
LINE
  5
167
100
AcDbEntity
  8
handle5
  6
ByLayer
 62
  256
370
   -1
100
AcDbLine
 10
31.49292161693947
 20
-82.05962359013893
 11
31.49292161693947
 21
-79.85760984013893
  0
LINE
  5
168
100
AcDbEntity
  8
handle5
  6
ByLayer
 62
  256
370
   -1
100
AcDbLine
 10
20.06352186693948
 20
-76.32266684013894
 11
8.634765116939462
 21
-82.05930309013893
  0
LINE
  5
169
100
AcDbEntity
  8
handle5
  6
ByLayer
 62
  256
370
   -1
100
AcDbLine
 10
17.93799186693948
 20
-79.52347809013894
 11
15.81268061693947
 21
-78.45668659013893
  0
LINE
  5
16A
100
AcDbEntity
  8
handle5
  6
ByLayer
 62
  256
370
   -1
100
AcDbLine
 10
20.06353511693948
 20
-77.38959084013894
 11
17.93799186693948
 21
-78.45650284013892
  0
LINE
  5
16B
100
AcDbEntity
  8
handle5
  6
ByLayer
 62
  256
370
   -1
100
AcDbLine
 10
17.93799186693948
 20
-78.45650284013892
 11
17.93799186693948
 21
-82.5647718401389
  0
LINE
  5
16C
100
AcDbEntity
  8
handle5
  6
ByLayer
 62
  256
370
   -1
100
AcDbLine
 10
17.93799186693948
 20
-73.21787009013893
 11
17.93799186693948
 21
-65.95650234013893
  0
LINE
  5
16D
100
AcDbEntity
  8
handle5
  6
ByLayer
 62
  256
370
   -1
100
AcDbLine
 10
20.06352186693948
 20
-72.15096484013893
 11
17.93799186693948
 21
-73.21787009013893
  0
LINE
  5
16E
100
AcDbEntity
  8
handle5
  6
ByLayer
 62
  256
370
   -1
100
AcDbLine
 10
17.93799186693948
 20
-67.02347759013894
 11
10.76039136693947
 21
-70.62625409013893
  0
LINE
  5
16F
100
AcDbEntity
  8
handle5
  6
ByLayer
 62
  256
370
   -1
100
AcDbLine
 10
11.87899961693947
 20
-70.06477134013893
 11
19.00064311693947
 21
-73.77087634013893
  0
LINE
  5
170
100
AcDbEntity
  8
handle5
  6
ByLayer
 62
  256
370
   -1
100
AcDbLine
 10
19.00064311693947
 20
-75.78915634013893
 11
19.00064311693947
 21
-73.77087634013893
  0
LINE
  5
171
100
AcDbEntity
  8
handle5
  6
ByLayer
 62
  256
370
   -1
100
AcDbLine
 10
11.87899961693947
 20
-70.06477134013893
 11
11.87899961693947
 21
-72.22470934013893
  0
LINE
  5
172
100
AcDbEntity
  8
handle5
  6
ByLayer
 62
  256
370
   -1
100
AcDbLine
 10
17.93799186693948
 20
-79.52347809013894
 11
11.87899961693947
 21
-82.5647718401389
  0
LINE
  5
173
100
AcDbEntity
  8
handle5
  6
ByLayer
 62
  256
370
   -1
100
AcDbLine
 10
8.634765116939462
 20
-82.05930309013893
 11
9.641782866939479
 21
-82.5647718401389
  0
LINE
  5
174
100
AcDbEntity
  8
handle5
  6
ByLayer
 62
  256
370
   -1
100
AcDbLine
 10
11.87899961693947
 20
-72.22470934013893
 11
9.689052616939478
 21
-73.32394684013893
  0
LINE
  5
175
100
AcDbEntity
  8
handle5
  6
ByLayer
 62
  256
370
   -1
100
AcDbLine
 10
9.689052616939478
 20
-72.18216084013893
 11
9.689052616939478
 21
-79.34775809013892
  0
LINE
  5
176
100
AcDbEntity
  8
handle5
  6
ByLayer
 62
  256
370
   -1
100
AcDbLine
 10
19.00064311693947
 20
-75.78915634013893
 11
16.81070036693947
 21
-76.88839384013893
  0
LINE
  5
177
100
AcDbEntity
  8
handle5
  6
ByLayer
 62
  256
370
   -1
100
AcDbLine
 10
15.81198961693948
 20
-78.45671484013893
 11
15.81198961693948
 21
-76.38852884013893
  0
LINE
  5
178
100
AcDbEntity
  8
handle5
  6
ByLayer
 62
  256
370
   -1
100
AcDbLine
 10
16.81070036693947
 20
-76.88839384013893
 11
9.689052616939478
 21
-73.32394459013894
  0
LINE
  5
179
100
AcDbEntity
  8
handle5
  6
ByLayer
 62
  256
370
   -1
100
AcDbLine
 10
8.634126366939483
 20
-79.85760984013893
 11
15.81198961693948
 21
-76.38852884013893
  0
LINE
  5
17A
100
AcDbEntity
  8
handle5
  6
ByLayer
 62
  256
370
   -1
100
AcDbLine
 10
8.634126366939483
 20
-82.05962359013893
 11
8.634126366939483
 21
-79.85760984013893
  0
LINE
  5
17B
100
AcDbEntity
  8
handle5
  6
ByLayer
 62
  256
370
   -1
100
AcDbLine
 10
20.06352186693948
 20
-63.82266634013892
 11
31.49227861693947
 21
-69.55930284013893
  0
LINE
  5
17C
100
AcDbEntity
  8
handle5
  6
ByLayer
 62
  256
370
   -1
100
AcDbLine
 10
22.18905636693947
 20
-67.02347759013894
 11
24.31436761693948
 21
-65.95668609013893
  0
LINE
  5
17D
100
AcDbEntity
  8
handle5
  6
ByLayer
 62
  256
370
   -1
100
AcDbLine
 10
20.06351311693948
 20
-64.88959034013892
 11
22.18905636693947
 21
-65.95650234013893
  0
LINE
  5
17E
100
AcDbEntity
  8
handle5
  6
ByLayer
 62
  256
370
   -1
100
AcDbLine
 10
22.18905636693947
 20
-60.71786959013893
 11
22.18905636693947
 21
-57.56477184013893
  0
LINE
  5
17F
100
AcDbEntity
  8
handle5
  6
ByLayer
 62
  256
370
   -1
100
AcDbLine
 10
20.06352186693948
 20
-59.65096434013893
 11
22.18905636693947
 21
-60.71786959013893
  0
LINE
  5
180
100
AcDbEntity
  8
handle5
  6
ByLayer
 62
  256
370
   -1
100
AcDbLine
 10
21.12640511693948
 20
-63.28915584013893
 11
32.56352561693947
 21
-57.56477184013893
  0
LINE
  5
181
100
AcDbEntity
  8
handle5
  6
ByLayer
 62
  256
370
   -1
100
AcDbLine
 10
30.48526511693947
 20
-57.56477184013893
 11
29.36665261693946
 21
-58.12625359013893
  0
LINE
  5
182
100
AcDbEntity
  8
handle5
  6
ByLayer
 62
  256
370
   -1
100
AcDbLine
 10
28.24804411693947
 20
-57.56477184013893
 11
29.36665261693946
 21
-58.12625359013893
  0
LINE
  5
183
100
AcDbEntity
  8
handle5
  6
ByLayer
 62
  256
370
   -1
100
AcDbLine
 10
28.24804411693947
 20
-57.56477184013893
 11
21.12640511693948
 21
-61.27087684013894
  0
LINE
  5
184
100
AcDbEntity
  8
handle5
  6
ByLayer
 62
  256
370
   -1
100
AcDbLine
 10
21.12640511693948
 20
-63.28915584013893
 11
21.12640511693948
 21
-61.27087684013894
  0
LINE
  5
185
100
AcDbEntity
  8
handle5
  6
ByLayer
 62
  256
370
   -1
100
AcDbLine
 10
28.24804411693947
 20
-57.56477184013893
 11
28.24804411693947
 21
-59.72470759013893
  0
LINE
  5
186
100
AcDbEntity
  8
handle5
  6
ByLayer
 62
  256
370
   -1
100
AcDbLine
 10
28.24804411693947
 20
-59.72470759013893
 11
30.43799136693949
 21
-60.82394634013893
  0
LINE
  5
187
100
AcDbEntity
  8
handle5
  6
ByLayer
 62
  256
370
   -1
100
AcDbLine
 10
30.43799136693949
 20
-59.68216009013894
 11
30.43799136693949
 21
-66.84775759013893
  0
LINE
  5
188
100
AcDbEntity
  8
handle5
  6
ByLayer
 62
  256
370
   -1
100
AcDbLine
 10
32.56352561693947
 20
-65.78085434013893
 11
30.43799136693949
 21
-66.84775759013893
  0
LINE
  5
189
100
AcDbEntity
  8
handle5
  6
ByLayer
 62
  256
370
   -1
100
AcDbLine
 10
21.12640511693948
 20
-63.28915584013893
 11
23.31634786693948
 21
-64.38839334013893
  0
LINE
  5
18A
100
AcDbEntity
  8
handle5
  6
ByLayer
 62
  256
370
   -1
100
AcDbLine
 10
24.31505861693947
 20
-65.95671434013893
 11
24.31505861693947
 21
-63.88852934013893
  0
LINE
  5
18B
100
AcDbEntity
  8
handle5
  6
ByLayer
 62
  256
370
   -1
100
AcDbLine
 10
23.31634786693948
 20
-64.38839334013893
 11
30.43799136693949
 21
-60.82394409013894
  0
LINE
  5
18C
100
AcDbEntity
  8
handle5
  6
ByLayer
 62
  256
370
   -1
100
AcDbLine
 10
31.49292161693947
 20
-67.35760934013894
 11
24.31505861693947
 21
-63.88852934013893
  0
LINE
  5
18D
100
AcDbEntity
  8
handle5
  6
ByLayer
 62
  256
370
   -1
100
AcDbLine
 10
31.49292161693947
 20
-69.55962334013893
 11
31.49292161693947
 21
-67.35760934013894
  0
LINE
  5
18E
100
AcDbEntity
  8
handle5
  6
ByLayer
 62
  256
370
   -1
100
AcDbLine
 10
17.93799186693948
 20
-67.02347759013894
 11
15.81268061693947
 21
-65.95668609013893
  0
LINE
  5
18F
100
AcDbEntity
  8
handle5
  6
ByLayer
 62
  256
370
   -1
100
AcDbLine
 10
20.06353511693948
 20
-64.88959034013892
 11
17.93799186693948
 21
-65.95650234013893
  0
LINE
  5
190
100
AcDbEntity
  8
handle5
  6
ByLayer
 62
  256
370
   -1
100
AcDbLine
 10
17.93799186693948
 20
-60.71786959013893
 11
17.93799186693948
 21
-57.56477184013893
  0
LINE
  5
191
100
AcDbEntity
  8
handle5
  6
ByLayer
 62
  256
370
   -1
100
AcDbLine
 10
20.06352186693948
 20
-59.65096434013893
 11
17.93799186693948
 21
-60.71786959013893
  0
LINE
  5
192
100
AcDbEntity
  8
handle5
  6
ByLayer
 62
  256
370
   -1
100
AcDbLine
 10
19.00064311693947
 20
-63.28915584013893
 11
19.00064311693947
 21
-61.27087684013894
  0
LINE
  5
193
100
AcDbEntity
  8
handle5
  6
ByLayer
 62
  256
370
   -1
100
AcDbLine
 10
19.00064311693947
 20
-63.28915584013893
 11
16.81070036693947
 21
-64.38839334013893
  0
LINE
  5
194
100
AcDbEntity
  8
handle5
  6
ByLayer
 62
  256
370
   -1
100
AcDbLine
 10
15.81198961693948
 20
-65.95671434013893
 11
15.81198961693948
 21
-63.88852934013893
  0
LINE
  5
195
100
AcDbEntity
  8
handle5
  6
ByLayer
 62
  256
370
   -1
100
AcDbLine
 10
32.56352561693947
 20
-57.56477184013893
 11
32.56352561693947
 21
-82.5647718401389
  0
LINE
  5
196
100
AcDbEntity
  8
handle5
  6
ByLayer
 62
  256
370
   -1
100
AcDbLine
 10
7.563523116939479
 20
-78.2808548401389
 11
9.689052616939478
 21
-79.34775809013892
  0
LINE
  5
197
100
AcDbEntity
  8
handle5
  6
ByLayer
 62
  256
370
   -1
100
AcDbLine
 10
32.56352561693947
 20
-58.61525259013892
 11
30.43799136693949
 21
-59.68216009013894
  0
LINE
  5
198
100
AcDbEntity
  8
handle5
  6
ByLayer
 62
  256
370
   -1
100
AcDbLine
 10
32.56352561693947
 20
-78.2808545901389
 11
30.43799136693949
 21
-79.34775859013894
  0
LINE
  5
199
100
AcDbEntity
  8
handle5
  6
ByLayer
 62
  256
370
   -1
100
AcDbLine
 10
20.06352186693948
 20
-51.32266684013894
 11
31.49227861693947
 21
-57.05930309013893
  0
LINE
  5
19A
100
AcDbEntity
  8
handle5
  6
ByLayer
 62
  256
370
   -1
100
AcDbLine
 10
22.18905636693947
 20
-54.52347809013894
 11
24.31436761693948
 21
-53.45668659013893
  0
LINE
  5
19B
100
AcDbEntity
  8
handle5
  6
ByLayer
 62
  256
370
   -1
100
AcDbLine
 10
20.06351311693948
 20
-52.38959084013894
 11
22.18905636693947
 21
-53.45650284013892
  0
LINE
  5
19C
100
AcDbEntity
  8
handle5
  6
ByLayer
 62
  256
370
   -1
100
AcDbLine
 10
22.18905636693947
 20
-53.45650284013892
 11
22.18905636693947
 21
-57.56477184013893
  0
LINE
  5
19D
100
AcDbEntity
  8
handle5
  6
ByLayer
 62
  256
370
   -1
100
AcDbLine
 10
22.18905636693947
 20
-48.21787009013893
 11
22.18905636693947
 21
-40.95650234013893
  0
LINE
  5
19E
100
AcDbEntity
  8
handle5
  6
ByLayer
 62
  256
370
   -1
100
AcDbLine
 10
20.06352186693948
 20
-47.15096484013893
 11
22.18905636693947
 21
-48.21787009013893
  0
LINE
  5
19F
100
AcDbEntity
  8
handle5
  6
ByLayer
 62
  256
370
   -1
100
AcDbLine
 10
21.12640511693948
 20
-50.78915634013893
 11
32.56352561693947
 21
-45.06477134013893
  0
LINE
  5
1A0
100
AcDbEntity
  8
handle5
  6
ByLayer
 62
  256
370
   -1
100
AcDbLine
 10
31.49227861693947
 20
-44.55930284013893
 11
29.36665261693946
 21
-45.62625409013893
  0
LINE
  5
1A1
100
AcDbEntity
  8
handle5
  6
ByLayer
 62
  256
370
   -1
100
AcDbLine
 10
22.18905636693947
 20
-42.02347759013893
 11
29.36665261693946
 21
-45.62625409013893
  0
LINE
  5
1A2
100
AcDbEntity
  8
handle5
  6
ByLayer
 62
  256
370
   -1
100
AcDbLine
 10
28.24804411693947
 20
-45.06477134013893
 11
21.12640511693948
 21
-48.77087634013893
  0
LINE
  5
1A3
100
AcDbEntity
  8
handle5
  6
ByLayer
 62
  256
370
   -1
100
AcDbLine
 10
21.12640511693948
 20
-50.78915634013893
 11
21.12640511693948
 21
-48.77087634013893
  0
LINE
  5
1A4
100
AcDbEntity
  8
handle5
  6
ByLayer
 62
  256
370
   -1
100
AcDbLine
 10
28.24804411693947
 20
-45.06477134013893
 11
28.24804411693947
 21
-47.22470934013893
  0
LINE
  5
1A5
100
AcDbEntity
  8
handle5
  6
ByLayer
 62
  256
370
   -1
100
AcDbLine
 10
22.18905636693947
 20
-54.52347809013894
 11
28.24804411693947
 21
-57.56477184013893
  0
LINE
  5
1A6
100
AcDbEntity
  8
handle5
  6
ByLayer
 62
  256
370
   -1
100
AcDbLine
 10
31.49227861693947
 20
-57.05930309013893
 11
30.48526511693947
 21
-57.56477184013893
  0
LINE
  5
1A7
100
AcDbEntity
  8
handle5
  6
ByLayer
 62
  256
370
   -1
100
AcDbLine
 10
28.24804411693947
 20
-47.22470934013893
 11
30.43799136693949
 21
-48.32394684013893
  0
LINE
  5
1A8
100
AcDbEntity
  8
handle5
  6
ByLayer
 62
  256
370
   -1
100
AcDbLine
 10
32.54132561693947
 20
-46.12639684013893
 11
30.43799136693949
 21
-47.18216084013893
  0
LINE
  5
1A9
100
AcDbEntity
  8
handle5
  6
ByLayer
 62
  256
370
   -1
100
AcDbLine
 10
30.43799136693949
 20
-47.18216084013893
 11
30.43799136693949
 21
-54.34775859013894
  0
LINE
  5
1AA
100
AcDbEntity
  8
handle5
  6
ByLayer
 62
  256
370
   -1
100
AcDbLine
 10
21.12640511693948
 20
-50.78915634013893
 11
23.31634786693948
 21
-51.88839384013893
  0
LINE
  5
1AB
100
AcDbEntity
  8
handle5
  6
ByLayer
 62
  256
370
   -1
100
AcDbLine
 10
24.31505861693947
 20
-53.45671484013893
 11
24.31505861693947
 21
-51.38852884013893
  0
LINE
  5
1AC
100
AcDbEntity
  8
handle5
  6
ByLayer
 62
  256
370
   -1
100
AcDbLine
 10
23.31634786693948
 20
-51.88839384013893
 11
30.43799136693949
 21
-48.32394459013894
  0
LINE
  5
1AD
100
AcDbEntity
  8
handle5
  6
ByLayer
 62
  256
370
   -1
100
AcDbLine
 10
31.49292161693947
 20
-54.85760984013893
 11
24.31505861693947
 21
-51.38852884013893
  0
LINE
  5
1AE
100
AcDbEntity
  8
handle5
  6
ByLayer
 62
  256
370
   -1
100
AcDbLine
 10
31.49292161693947
 20
-57.05962359013893
 11
31.49292161693947
 21
-54.85760984013893
  0
LINE
  5
1AF
100
AcDbEntity
  8
handle5
  6
ByLayer
 62
  256
370
   -1
100
AcDbLine
 10
17.93799186693948
 20
-54.52347809013894
 11
15.81268061693947
 21
-53.45668659013893
  0
LINE
  5
1B0
100
AcDbEntity
  8
handle5
  6
ByLayer
 62
  256
370
   -1
100
AcDbLine
 10
20.06353511693948
 20
-52.38959084013894
 11
17.93799186693948
 21
-53.45650284013892
  0
LINE
  5
1B1
100
AcDbEntity
  8
handle5
  6
ByLayer
 62
  256
370
   -1
100
AcDbLine
 10
17.93799186693948
 20
-53.45650284013892
 11
17.93799186693948
 21
-57.56477184013893
  0
LINE
  5
1B2
100
AcDbEntity
  8
handle5
  6
ByLayer
 62
  256
370
   -1
100
AcDbLine
 10
20.06352186693948
 20
-47.15096484013893
 11
17.93799186693948
 21
-48.21787009013893
  0
LINE
  5
1B3
100
AcDbEntity
  8
handle5
  6
ByLayer
 62
  256
370
   -1
100
AcDbLine
 10
19.00064311693947
 20
-50.78915634013893
 11
19.00064311693947
 21
-48.77087634013893
  0
LINE
  5
1B4
100
AcDbEntity
  8
handle5
  6
ByLayer
 62
  256
370
   -1
100
AcDbLine
 10
19.00064311693947
 20
-50.78915634013893
 11
16.81070036693947
 21
-51.88839384013893
  0
LINE
  5
1B5
100
AcDbEntity
  8
handle5
  6
ByLayer
 62
  256
370
   -1
100
AcDbLine
 10
22.18905636693947
 20
-42.02347759013893
 11
24.31436761693948
 21
-40.95668609013893
  0
LINE
  5
1B6
100
AcDbEntity
  8
handle5
  6
ByLayer
 62
  256
370
   -1
100
AcDbLine
 10
32.56352561693947
 20
-40.78085434013893
 11
30.43799136693949
 21
-41.84775759013893
  0
LINE
  5
1B7
100
AcDbEntity
  8
handle5
  6
ByLayer
 62
  256
370
   -1
100
AcDbLine
 10
24.31505861693947
 20
-40.95671434013893
 11
24.31505861693947
 21
-38.88852934013893
  0
LINE
  5
1B8
100
AcDbEntity
  8
handle5
  6
ByLayer
 62
  256
370
   -1
100
AcDbLine
 10
31.49292161693947
 20
-42.35760934013893
 11
24.31505861693947
 21
-38.88852934013893
  0
LINE
  5
1B9
100
AcDbEntity
  8
handle5
  6
ByLayer
 62
  256
370
   -1
100
AcDbLine
 10
31.49292161693947
 20
-44.55962334013893
 11
31.49292161693947
 21
-42.35760934013893
  0
LINE
  5
1BA
100
AcDbEntity
  8
handle5
  6
ByLayer
 62
  256
370
   -1
100
AcDbLine
 10
32.56352561693947
 20
-53.28085459013893
 11
30.43799136693949
 21
-54.34775859013894
  0
LINE
  5
1BB
100
AcDbEntity
  8
handle5
  6
ByLayer
 62
  256
370
   -1
100
AcDbLine
 10
5.48526261693948
 20
-107.5647718401389
 11
4.366650116939468
 21
-108.1262535901389
  0
LINE
  5
1BC
100
AcDbEntity
  8
handle5
  6
ByLayer
 62
  256
370
   -1
100
AcDbLine
 10
3.248041616939474
 20
-107.5647718401389
 11
4.366650116939468
 21
-108.1262535901389
  0
LINE
  5
1BD
100
AcDbEntity
  8
handle5
  6
ByLayer
 62
  256
370
   -1
100
AcDbLine
 10
-4.936480633060512
 20
-101.3226668401389
 11
6.492276116939479
 21
-107.0593030901389
  0
LINE
  5
1BE
100
AcDbEntity
  8
handle5
  6
ByLayer
 62
  256
370
   -1
100
AcDbLine
 10
-2.810946133060526
 20
-104.5234780901389
 11
-0.6856348830605157
 21
-103.4566865901389
  0
LINE
  5
1BF
100
AcDbEntity
  8
handle5
  6
ByLayer
 62
  256
370
   -1
100
AcDbLine
 10
-4.936489383060518
 20
-102.3895908401389
 11
-2.810946133060526
 21
-103.456502840139
  0
LINE
  5
1C0
100
AcDbEntity
  8
handle5
  6
ByLayer
 62
  256
370
   -1
100
AcDbLine
 10
-4.936480633060512
 20
-97.15096484013893
 11
-2.810946133060526
 21
-98.2178700901389
  0
LINE
  5
1C1
100
AcDbEntity
  8
handle5
  6
ByLayer
 62
  256
370
   -1
100
AcDbLine
 10
-3.873597383060513
 20
-100.7891563401389
 11
7.563523116939479
 21
-95.0647713401389
  0
LINE
  5
1C2
100
AcDbEntity
  8
handle5
  6
ByLayer
 62
  256
370
   -1
100
AcDbLine
 10
6.492276116939479
 20
-94.5593028401389
 11
4.366650116939468
 21
-95.62625409013893
  0
LINE
  5
1C3
100
AcDbEntity
  8
handle5
  6
ByLayer
 62
  256
370
   -1
100
AcDbLine
 10
3.248041616939474
 20
-95.0647713401389
 11
-3.873597383060513
 21
-98.77087634013893
  0
LINE
  5
1C4
100
AcDbEntity
  8
handle5
  6
ByLayer
 62
  256
370
   -1
100
AcDbLine
 10
-3.873597383060513
 20
-100.7891563401389
 11
-3.873597383060513
 21
-98.77087634013893
  0
LINE
  5
1C5
100
AcDbEntity
  8
handle5
  6
ByLayer
 62
  256
370
   -1
100
AcDbLine
 10
3.248041616939474
 20
-95.0647713401389
 11
3.248041616939474
 21
-97.22470934013893
  0
LINE
  5
1C6
100
AcDbEntity
  8
handle5
  6
ByLayer
 62
  256
370
   -1
100
AcDbLine
 10
-2.810946133060526
 20
-104.5234780901389
 11
3.248041616939474
 21
-107.5647718401389
  0
LINE
  5
1C7
100
AcDbEntity
  8
handle5
  6
ByLayer
 62
  256
370
   -1
100
AcDbLine
 10
6.492276116939479
 20
-107.0593030901389
 11
5.48526261693948
 21
-107.5647718401389
  0
LINE
  5
1C8
100
AcDbEntity
  8
handle5
  6
ByLayer
 62
  256
370
   -1
100
AcDbLine
 10
3.248041616939474
 20
-97.22470934013893
 11
5.437988866939492
 21
-98.3239468401389
  0
LINE
  5
1C9
100
AcDbEntity
  8
handle5
  6
ByLayer
 62
  256
370
   -1
100
AcDbLine
 10
7.541323116939481
 20
-96.1263968401389
 11
5.437988866939492
 21
-97.18216084013893
  0
LINE
  5
1CA
100
AcDbEntity
  8
handle5
  6
ByLayer
 62
  256
370
   -1
100
AcDbLine
 10
5.437988866939492
 20
-97.18216084013893
 11
5.437988866939492
 21
-104.3477585901389
  0
LINE
  5
1CB
100
AcDbEntity
  8
handle5
  6
ByLayer
 62
  256
370
   -1
100
AcDbLine
 10
-3.873597383060513
 20
-100.7891563401389
 11
-1.683654633060513
 21
-101.8883938401389
  0
LINE
  5
1CC
100
AcDbEntity
  8
handle5
  6
ByLayer
 62
  256
370
   -1
100
AcDbLine
 10
-0.6849438830605266
 20
-103.4567148401389
 11
-0.6849438830605266
 21
-101.388528840139
  0
LINE
  5
1CD
100
AcDbEntity
  8
handle5
  6
ByLayer
 62
  256
370
   -1
100
AcDbLine
 10
-1.683654633060513
 20
-101.8883938401389
 11
5.437988866939492
 21
-98.32394459013896
  0
LINE
  5
1CE
100
AcDbEntity
  8
handle5
  6
ByLayer
 62
  256
370
   -1
100
AcDbLine
 10
6.492919116939476
 20
-104.8576098401389
 11
-0.6849438830605266
 21
-101.388528840139
  0
LINE
  5
1CF
100
AcDbEntity
  8
handle5
  6
ByLayer
 62
  256
370
   -1
100
AcDbLine
 10
6.492919116939476
 20
-107.0596235901389
 11
6.492919116939476
 21
-104.8576098401389
  0
LINE
  5
1D0
100
AcDbEntity
  8
handle5
  6
ByLayer
 62
  256
370
   -1
100
AcDbLine
 10
-4.936480633060512
 20
-97.15096484013893
 11
-7.06201063306051
 21
-98.2178700901389
  0
LINE
  5
1D1
100
AcDbEntity
  8
handle5
  6
ByLayer
 62
  256
370
   -1
100
AcDbLine
 10
-5.999359383060522
 20
-100.7891563401389
 11
-5.999359383060522
 21
-98.77087634013893
  0
LINE
  5
1D2
100
AcDbEntity
  8
handle5
  6
ByLayer
 62
  256
370
   -1
100
AcDbLine
 10
5.48526261693948
 20
-82.5647718401389
 11
4.366650116939468
 21
-83.12625359013893
  0
LINE
  5
1D3
100
AcDbEntity
  8
handle5
  6
ByLayer
 62
  256
370
   -1
100
AcDbLine
 10
3.248041616939474
 20
-84.72470759013893
 11
5.437988866939492
 21
-85.8239463401389
  0
LINE
  5
1D4
100
AcDbEntity
  8
handle5
  6
ByLayer
 62
  256
370
   -1
100
AcDbLine
 10
5.437988866939492
 20
-84.68216009013894
 11
5.437988866939492
 21
-91.84775759013893
  0
LINE
  5
1D5
100
AcDbEntity
  8
handle5
  6
ByLayer
 62
  256
370
   -1
100
AcDbLine
 10
7.563523116939479
 20
-90.78085434013893
 11
5.437988866939492
 21
-91.84775759013893
  0
LINE
  5
1D6
100
AcDbEntity
  8
handle5
  6
ByLayer
 62
  256
370
   -1
100
AcDbLine
 10
6.492919116939476
 20
-94.55962334013893
 11
6.492919116939476
 21
-92.35760934013894
  0
LINE
  5
1D7
100
AcDbEntity
  8
handle5
  6
ByLayer
 62
  256
370
   -1
100
AcDbLine
 10
7.563523116939479
 20
-82.5647718401389
 11
7.563523116939479
 21
-107.5647718401389
  0
LINE
  5
1D8
100
AcDbEntity
  8
handle5
  6
ByLayer
 62
  256
370
   -1
100
AcDbLine
 10
7.563523116939479
 20
-83.61525259013892
 11
5.437988866939492
 21
-84.68216009013894
  0
LINE
  5
1D9
100
AcDbEntity
  8
handle5
  6
ByLayer
 62
  256
370
   -1
100
AcDbLine
 10
7.563523116939479
 20
-103.2808545901389
 11
5.437988866939492
 21
-104.3477585901389
  0
LINE
  5
1DA
100
AcDbEntity
  8
handle5
  6
ByLayer
 62
  256
370
   -1
100
AcDbLine
 10
6.492276116939479
 20
-82.05930309013893
 11
5.48526261693948
 21
-82.5647718401389
  0
LINE
  5
1DB
100
AcDbEntity
  8
handle5
  6
ByLayer
 62
  256
370
   -1
100
AcDbLine
 10
6.492919116939476
 20
-82.05962359013893
 11
6.492919116939476
 21
-79.85760984013893
  0
LINE
  5
1DC
100
AcDbEntity
  8
handle5
  6
ByLayer
 62
  256
370
   -1
100
AcDbLine
 10
7.563523116939479
 20
-78.2808545901389
 11
5.437988866939492
 21
-79.34775859013894
  0
LINE
  5
1DD
100
AcDbEntity
  8
handle5
  6
ByLayer
 62
  256
370
   -1
100
AcDbLine
 10
55.43799386693948
 20
-49.65445442172511
 11
55.43799386693948
 21
-51.25610013007578
  0
LINE
  5
1DE
100
AcDbEntity
  8
handle5
  6
ByLayer
 62
  256
370
   -1
100
AcDbLine
 10
48.31635036693947
 20
-51.88839384013893
 11
54.39710950804547
 21
-48.84491695731745
  0
LINE
  5
1DF
100
AcDbEntity
  8
handle5
  6
ByLayer
 62
  256
370
   -1
100
AcDbLine
 10
46.12640761693947
 20
-50.78915634013893
 11
52.63301710817555
 21
-47.53253787813274
  0
LINE
  5
1E0
100
AcDbEntity
  8
handle5
  6
ByLayer
 62
  256
370
   -1
100
AcDbLine
 10
54.41359050874817
 20
-53.85266216799225
 11
49.31506111693946
 21
-51.38852884013893
  0
LINE
  5
1E1
100
AcDbEntity
  8
handle5
  6
ByLayer
 62
  256
370
   -1
100
AcDbLine
 10
45.06352436693948
 20
-51.32266684013894
 11
53.70121196736974
 21
-55.65833281752563
  0
LINE
  5
1E2
100
AcDbEntity
  8
handle5
  6
ByLayer
 62
  256
370
   -1
100
AcDbLine
 10
47.18905886693946
 20
-54.52347809013894
 11
52.99849637678088
 21
-57.43951072111697
  0
LINE
  5
1E3
100
AcDbEntity
  8
handle5
  6
ByLayer
 62
  256
370
   -1
100
AcDbLine
 10
52.87183876258447
 20
-57.76055062225136
 11
46.12640761693947
 21
-61.27087684013894
  0
LINE
  5
1E4
100
AcDbEntity
  8
handle5
  6
ByLayer
 62
  256
370
   -1
100
AcDbLine
 10
46.12640761693947
 20
-63.28915584013893
 11
51.81370409007062
 21
-60.44261164800173
  0
LINE
  5
1E5
100
AcDbEntity
  8
handle5
  6
ByLayer
 62
  256
370
   -1
100
AcDbLine
 10
48.31635036693947
 20
-64.38839334013893
 11
50.73449540801806
 21
-63.17808910656369
  0
LINE
  5
1E6
100
AcDbEntity
  8
handle5
  6
ByLayer
 62
  256
370
   -1
100
AcDbLine
 10
50.27178757445475
 20
-64.35091774449232
 11
49.31506111693946
 21
-63.88852934013893
  0
LINE
  5
1E7
100
AcDbEntity
  8
handle5
  6
ByLayer
 62
  256
370
   -1
100
AcDbLine
 10
45.06352436693948
 20
-63.82266634013892
 11
49.58483956780898
 21
-66.09212944769109
  0
LINE
  5
1E8
100
AcDbEntity
  8
handle5
  6
ByLayer
 62
  256
370
   -1
100
AcDbLine
 10
47.18905886693946
 20
-67.02347759013894
 11
48.88212396411822
 21
-67.87330738449185
  0
LINE
  5
1E9
100
AcDbEntity
  8
handle5
  6
ByLayer
 62
  256
370
   -1
100
AcDbLine
 10
50.87548784673922
 20
-46.29945227819728
 11
46.12640761693947
 21
-48.77087634013893
  0
LINE
  5
1EA
100
AcDbEntity
  8
handle5
  6
ByLayer
 62
  256
370
   -1
100
AcDbLine
 10
47.18905886693946
 20
-48.21787009013893
 11
47.18905886693946
 21
-43.95350900054127
  0
LINE
  5
1EB
100
AcDbEntity
  8
handle5
  6
ByLayer
 62
  256
370
   -1
100
AcDbLine
 10
45.0635243669395
 20
-42.74841419833237
 11
45.06352436693948
 21
-57.56477184013893
  0
LINE
  5
1EC
100
AcDbEntity
  8
handle5
  6
ByLayer
 62
  256
370
   -1
100
AcDbLine
 10
42.93799436693948
 20
-48.21787009013893
 11
42.93799436693948
 21
-41.65090176294157
  0
LINE
  5
1ED
100
AcDbEntity
  8
handle5
  6
ByLayer
 62
  256
370
   -1
100
AcDbLine
 10
41.12499810404532
 20
-40.79959996556824
 11
33.63476761693946
 21
-44.55930284013893
  0
LINE
  5
1EE
100
AcDbEntity
  8
handle5
  6
ByLayer
 62
  256
370
   -1
100
AcDbLine
 10
40.81199211693948
 20
-40.95671434013893
 11
40.81199211693948
 21
-40.66052149978329
  0
LINE
  5
1EF
100
AcDbEntity
  8
handle5
  6
ByLayer
 62
  256
370
   -1
100
AcDbLine
 10
33.63412886693948
 20
-42.35760934013893
 11
38.84444608409248
 21
-39.83944946133641
  0
LINE
  5
1F0
100
AcDbEntity
  8
handle5
  6
ByLayer
 62
  256
370
   -1
100
AcDbLine
 10
34.6890551169395
 20
-38.40635188801829
 11
34.68905511693947
 21
-41.84775759013893
  0
LINE
  5
1F1
100
AcDbEntity
  8
handle5
  6
ByLayer
 62
  256
370
   -1
100
AcDbLine
 10
32.56352561693947
 20
-37.83093040721728
 11
32.56352561693947
 21
-57.56477184013893
  0
LINE
  5
1F2
100
AcDbEntity
  8
handle5
  6
ByLayer
 62
  256
370
   -1
100
AcDbLine
 10
30.43799136693949
 20
-37.36202032485996
 11
30.43799136693949
 21
-41.84775759013893
  0
LINE
  5
1F3
100
AcDbEntity
  8
handle5
  6
ByLayer
 62
  256
370
   -1
100
AcDbLine
 10
23.31634786693948
 20
-39.38839334013893
 11
28.13896454003705
 21
-36.97462854224361
  0
LINE
  5
1F4
100
AcDbEntity
  8
handle5
  6
ByLayer
 62
  256
370
   -1
100
AcDbLine
 10
22.00297886565647
 20
-37.85042261686164
 11
24.47291569623337
 21
-36.6141965165976
  0
LINE
  5
1F5
100
AcDbEntity
  8
handle5
  6
ByLayer
 62
  256
370
   -1
100
AcDbLine
 10
21.70202266840758
 20
-38.57808594949085
 11
23.31634786693948
 21
-39.38839334013893
  0
LINE
  5
1F6
100
AcDbEntity
  8
handle5
  6
ByLayer
 62
  256
370
   -1
100
AcDbLine
 10
21.33657738561106
 20
-39.46167344429641
 11
31.49227861693947
 21
-44.55930284013893
  0
LINE
  5
1F7
100
AcDbEntity
  8
handle5
  6
ByLayer
 62
  256
370
   -1
100
AcDbLine
 10
20.97116400326638
 20
-40.34518380897698
 11
22.18905636693947
 21
-40.95650234013893
  0
LINE
  5
1F8
100
AcDbEntity
  8
handle5
  6
ByLayer
 62
  256
370
   -1
100
AcDbLine
 10
20.06352186693951
 20
-42.53971546438634
 11
20.06352186693948
 21
-57.56477184013893
  0
LINE
  5
1F9
100
AcDbEntity
  8
handle5
  6
ByLayer
 62
  256
370
   -1
100
AcDbLine
 10
17.93799186693948
 20
-48.21787009013893
 11
17.93799186693948
 21
-47.67890268678566
  0
LINE
  5
1FA
100
AcDbEntity
  8
handle5
  6
ByLayer
 62
  256
370
   -1
100
AcDbLine
 10
17.75455892519966
 20
-48.12241382535173
 11
19.00064311693947
 21
-48.77087634013893
  0
LINE
  5
1FB
100
AcDbEntity
  8
handle5
  6
ByLayer
 62
  256
370
   -1
100
AcDbLine
 10
19.00064311693947
 20
-50.78915634013893
 11
17.05448262876331
 21
-49.81508490378882
  0
LINE
  5
1FC
100
AcDbEntity
  8
handle5
  6
ByLayer
 62
  256
370
   -1
100
AcDbLine
 10
16.81070036693947
 20
-51.88839384013893
 11
16.30223345709425
 21
-51.63390154298095
  0
LINE
  5
1FD
100
AcDbEntity
  8
handle5
  6
ByLayer
 62
  256
370
   -1
100
AcDbLine
 10
15.81198961693948
 20
-53.45671484013893
 11
15.81198961693951
 21
-52.81923173318442
  0
LINE
  5
1FE
100
AcDbEntity
  8
handle5
  6
ByLayer
 62
  256
370
   -1
100
AcDbLine
 10
20.06352186693948
 20
-51.32266684013894
 11
15.47925596798652
 21
-53.62372779635996
  0
LINE
  5
1FF
100
AcDbEntity
  8
handle5
  6
ByLayer
 62
  256
370
   -1
100
AcDbLine
 10
17.93799186693948
 20
-54.52347809013894
 11
14.36546304094779
 21
-56.31669866905341
  0
LINE
  5
200
100
AcDbEntity
  8
handle5
  6
ByLayer
 62
  256
370
   -1
100
AcDbLine
 10
13.50030878126105
 20
-58.40850152141797
 11
19.00064311693947
 21
-61.27087684013894
  0
LINE
  5
201
100
AcDbEntity
  8
handle5
  6
ByLayer
 62
  256
370
   -1
100
AcDbLine
 10
19.00064311693947
 20
-63.28915584013893
 11
12.77123642983977
 21
-60.17128036369674
  0
LINE
  5
202
100
AcDbEntity
  8
handle5
  6
ByLayer
 62
  256
370
   -1
100
AcDbLine
 10
16.81070036693947
 20
-64.38839334013893
 11
12.01898708893768
 21
-61.9900974120669
  0
LINE
  5
203
100
AcDbEntity
  8
handle5
  6
ByLayer
 62
  256
370
   -1
100
AcDbLine
 10
20.06352186693948
 20
-63.82266634013892
 11
8.954874799607893
 21
-69.39862456779761
  0
LINE
  5
204
100
AcDbEntity
  8
handle5
  6
ByLayer
 62
  256
370
   -1
100
AcDbLine
 10
8.844813547348593
 20
-69.66473484678322
 11
10.76039136693947
 21
-70.62625409013893
  0
LINE
  5
205
100
AcDbEntity
  8
handle5
  6
ByLayer
 62
  256
370
   -1
100
AcDbLine
 10
19.00064311693947
 20
-75.78915634013893
 11
8.487990261526505
 21
-70.52747574959399
  0
LINE
  5
206
100
AcDbEntity
  8
handle5
  6
ByLayer
 62
  256
370
   -1
100
AcDbLine
 10
8.12775355933249
 20
-71.39846974024798
 11
9.689052616939478
 21
-72.18216084013893
  0
LINE
  5
207
100
AcDbEntity
  8
handle5
  6
ByLayer
 62
  256
370
   -1
100
AcDbLine
 10
7.563523116939479
 20
-72.76268754946959
 11
7.563523116939479
 21
-82.5647718401389
  0
LINE
  5
208
100
AcDbEntity
  8
handle5
  6
ByLayer
 62
  256
370
   -1
100
AcDbLine
 10
5.437988866939492
 20
-77.90188504768035
 11
5.437988866939492
 21
-79.34775859013894
  0
LINE
  5
209
100
AcDbEntity
  8
handle5
  6
ByLayer
 62
  256
370
   -1
100
AcDbLine
 10
6.492919116939476
 20
-79.85760984013893
 11
4.939607641726042
 21
-79.10689011676934
  0
LINE
  5
20A
100
AcDbEntity
  8
handle5
  6
ByLayer
 62
  256
370
   -1
100
AcDbLine
 10
4.195356109240066
 20
-80.90636975996561
 11
6.492276116939479
 21
-82.05930309013893
  0
LINE
  5
20B
100
AcDbEntity
  8
handle5
  6
ByLayer
 62
  256
370
   -1
100
AcDbLine
 10
3.464513373215397
 20
-82.67342910542828
 11
4.366650116939468
 21
-83.12625359013893
  0
LINE
  5
20C
100
AcDbEntity
  8
handle5
  6
ByLayer
 62
  256
370
   -1
100
AcDbLine
 10
3.248041616939474
 20
-83.1968227455386
 11
3.248041616939474
 21
-84.72470759013893
  0
LINE
  5
20D
100
AcDbEntity
  8
handle5
  6
ByLayer
 62
  256
370
   -1
100
AcDbLine
 10
2.451158334980448
 20
-85.12355743306941
 11
7.563523116939479
 21
-82.5647718401389
  0
LINE
  5
20E
100
AcDbEntity
  8
handle5
  6
ByLayer
 62
  256
370
   -1
100
AcDbLine
 10
1.306167721048411
 20
-87.8919592589136
 11
5.437988866939492
 21
-85.82394409013897
  0
LINE
  5
20F
100
AcDbEntity
  8
handle5
  6
ByLayer
 62
  256
370
   -1
100
AcDbLine
 10
6.492919116939476
 20
-92.35760934013894
 11
0.6309575923090165
 21
-89.52450797196498
  0
LINE
  5
210
100
AcDbEntity
  8
handle5
  6
ByLayer
 62
  256
370
   -1
100
AcDbLine
 10
-0.08578010102959865
 20
-91.25746360910853
 11
6.492276116939479
 21
-94.5593028401389
  0
LINE
  5
211
100
AcDbEntity
  8
handle5
  6
ByLayer
 62
  256
370
   -1
100
AcDbLine
 10
-1.237513578349251
 20
-92.81325812877662
 11
4.366650116939468
 21
-95.62625409013893
  0
LINE
  5
212
100
AcDbEntity
  8
handle5
  6
ByLayer
 62
  256
370
   -1
100
AcDbLine
 10
-2.810946133060526
 20
-98.2178700901389
 11
-2.810946133060526
 21
-93.01487848756351
  0
LINE
  5
213
100
AcDbEntity
  8
handle5
  6
ByLayer
 62
  256
370
   -1
100
AcDbLine
 10
-7.06201063306051
 20
-98.2178700901389
 11
-7.06201063306051
 21
-94.91335266253438
  0
LINE
  5
214
100
AcDbEntity
  8
handle5
  6
ByLayer
 62
  256
370
   -1
100
AcDbLine
 10
-8.091137516567926
 20
-97.68231449349742
 11
-5.999359383060522
 21
-98.77087634013893
  0
LINE
  5
215
100
AcDbEntity
  8
handle5
  6
ByLayer
 62
  256
370
   -1
100
AcDbLine
 10
-5.999359383060522
 20
-100.7891563401389
 11
-7.423120491550947
 21
-100.0765506550516
  0
LINE
  5
216
100
AcDbEntity
  8
handle5
  6
ByLayer
 62
  256
370
   -1
100
AcDbLine
 10
-5.999359383060522
 20
-100.7891563401389
 11
-6.761065635814305
 21
-101.1714933108252
  0
LINE
  5
217
100
AcDbEntity
  8
handle5
  6
ByLayer
 62
  256
370
   -1
100
AcDbLine
 10
-4.936480633060512
 20
-101.3226668401389
 11
-6.173263173329161
 21
-101.9434667844436
  0
LINE
  5
218
100
AcDbEntity
  8
handle5
  6
ByLayer
 62
  256
370
   -1
100
AcDbLine
 10
-4.936467383060517
 20
-102.3895908401389
 11
-5.49956975223165
 21
-102.6722388995925
  0
LINE
  5
219
100
AcDbEntity
  8
handle5
  6
ByLayer
 62
  256
370
   -1
100
AcDbLine
 10
-4.93648063306054
 20
-93.52276181766013
 11
-4.936480633060512
 21
-103.1661570651083
  0
LINE
  5
21A
100
AcDbEntity
  8
handle5
  6
ByLayer
 62
  256
370
   -1
100
AcDbLine
 10
-2.810946133060526
 20
-103.456502840139
 11
-2.810946133060526
 21
-104.7125811752234
  0
LINE
  5
21B
100
AcDbEntity
  8
handle5
  6
ByLayer
 62
  256
370
   -1
100
AcDbLine
 10
3.248041616939474
 20
-107.5647718401389
 11
2.843684167656704
 21
-107.7751996875171
  0
LINE
  5
21C
100
AcDbEntity
  8
handle5
  6
ByLayer
 62
  256
370
   -1
100
AcDbLine
 10
3.248041616939474
 20
-107.5647718401389
 11
3.248041616939474
 21
-107.9627686540902
  0
LINE
  5
21D
100
AcDbEntity
  8
handle5
  6
ByLayer
 62
  256
370
   -1
100
AcDbLine
 10
5.064522517583697
 20
-108.8155446239828
 11
7.563523116939479
 21
-107.5647718401389
  0
LINE
  5
21E
100
AcDbEntity
  8
handle5
  6
ByLayer
 62
  256
370
   -1
100
AcDbLine
 10
7.563523116939479
 20
-108.6152525901389
 11
6.165999239511564
 21
-109.316736796407
  0
LINE
  5
21F
100
AcDbEntity
  8
handle5
  6
ByLayer
 62
  256
370
   -1
100
AcDbLine
 10
7.563523116939479
 20
-107.5647718401389
 11
7.563523116939479
 21
-109.9303474034737
  0
LINE
  5
220
100
AcDbEntity
  8
handle5
  6
ByLayer
 62
  256
370
   -1
100
AcDbLine
 10
9.689052616939478
 20
-109.6821600901389
 11
9.689052616939478
 21
-110.7981047602811
  0
LINE
  5
221
100
AcDbEntity
  8
handle5
  6
ByLayer
 62
  256
370
   -1
100
AcDbLine
 10
11.87899961693947
 20
-109.7247075901389
 11
9.717216614987706
 21
-110.8098094875075
  0
LINE
  5
222
100
AcDbEntity
  8
handle5
  6
ByLayer
 62
  256
370
   -1
100
AcDbLine
 10
19.00064311693947
 20
-113.2891558401389
 11
17.7175969772203
 21
-113.9331783521473
  0
LINE
  5
223
100
AcDbEntity
  8
handle5
  6
ByLayer
 62
  256
370
   -1
100
AcDbLine
 10
20.06352186693948
 20
-113.8226663401389
 11
18.96242878215619
 21
-114.3753573211649
  0
LINE
  5
224
100
AcDbEntity
  8
handle5
  6
ByLayer
 62
  256
370
   -1
100
AcDbLine
 10
20.06352186693948
 20
-107.5647718401389
 11
20.06352186693945
 21
-114.7531957426565
  0
LINE
  5
225
100
AcDbEntity
  8
handle5
  6
ByLayer
 62
  256
370
   -1
100
AcDbLine
 10
24.18251346879677
 20
-116.0228697535804
 11
24.31436761693948
 21
-115.9566860901389
  0
LINE
  5
226
100
AcDbEntity
  8
handle5
  6
ByLayer
 62
  256
370
   -1
100
AcDbLine
 10
20.06352186693948
 20
-113.8226663401389
 11
24.7484158974631
 21
-116.1742374411805
  0
LINE
  5
227
100
AcDbEntity
  8
handle5
  6
ByLayer
 62
  256
370
   -1
100
AcDbLine
 10
30.98113200092649
 20
-117.1102600773962
 11
24.31505861693947
 21
-113.8885293401389
  0
LINE
  5
228
100
AcDbEntity
  8
handle5
  6
ByLayer
 62
  256
370
   -1
100
AcDbLine
 10
32.56352561693947
 20
-107.5647718401389
 11
32.56352561693947
 21
-116.8447271205346
  0
LINE
  5
229
100
AcDbEntity
  8
handle5
  6
ByLayer
 62
  256
370
   -1
100
AcDbLine
 10
32.56352561693947
 20
-115.7808543401389
 11
33.86177147996912
 21
-116.4325050138018
  0
LINE
  5
22A
100
AcDbEntity
  8
handle5
  6
ByLayer
 62
  256
370
   -1
100
AcDbLine
 10
34.68905511693947
 20
-109.6821600901389
 11
34.68905511693947
 21
-116.0234725372253
  0
LINE
  5
22B
100
AcDbEntity
  8
handle5
  6
ByLayer
 62
  256
370
   -1
100
AcDbLine
 10
36.59349481132455
 20
-111.7771334191564
 11
34.68905511693947
 21
-110.8239440901389
  0
LINE
  5
22C
100
AcDbEntity
  8
handle5
  6
ByLayer
 62
  256
370
   -1
100
AcDbLine
 10
36.11042393110475
 20
-110.1104936042636
 11
34.68905511693947
 21
-110.8239463401389
  0
LINE
  5
22D
100
AcDbEntity
  8
handle5
  6
ByLayer
 62
  256
370
   -1
100
AcDbLine
 10
35.50454468614893
 20
-109.0367789978392
 11
32.56352561693947
 21
-107.5647718401389
  0
LINE
  5
22E
100
AcDbEntity
  8
handle5
  6
ByLayer
 62
  256
370
   -1
100
AcDbLine
 10
33.63476761693946
 20
-107.0593030901389
 11
34.08208055128284
 21
-107.2838301253192
  0
LINE
  5
22F
100
AcDbEntity
  8
handle5
  6
ByLayer
 62
  256
370
   -1
100
AcDbLine
 10
33.90070992037622
 20
-106.9258140071463
 11
33.63476761693946
 21
-107.0593030901389
  0
LINE
  5
230
100
AcDbEntity
  8
handle5
  6
ByLayer
 62
  256
370
   -1
100
AcDbLine
 10
33.63412886693948
 20
-104.8576098401389
 11
34.44571579275774
 21
-104.4653676524371
  0
LINE
  5
231
100
AcDbEntity
  8
handle5
  6
ByLayer
 62
  256
370
   -1
100
AcDbLine
 10
32.56352561693947
 20
-103.2808548401389
 11
34.52466882407771
 21
-104.265244876321
  0
LINE
  5
232
100
AcDbEntity
  8
handle5
  6
ByLayer
 62
  256
370
   -1
100
AcDbLine
 10
34.68905511693947
 20
-97.18216084013893
 11
34.68905511693944
 21
-103.8485738412394
  0
LINE
  5
233
100
AcDbEntity
  8
handle5
  6
ByLayer
 62
  256
370
   -1
100
AcDbLine
 10
36.50923190560704
 20
-99.23495957107976
 11
34.68905511693947
 21
-98.32394459013896
  0
LINE
  5
234
100
AcDbEntity
  8
handle5
  6
ByLayer
 62
  256
370
   -1
100
AcDbLine
 10
37.23251668016246
 20
-97.40164481942807
 11
32.56352561693947
 21
-95.0647713401389
  0
LINE
  5
235
100
AcDbEntity
  8
handle5
  6
ByLayer
 62
  256
370
   -1
100
AcDbLine
 10
36.87900211693946
 20
-95.0647713401389
 11
37.93720704555281
 21
-95.61546144095041
  0
LINE
  5
236
100
AcDbEntity
  8
handle5
  6
ByLayer
 62
  256
370
   -1
100
AcDbLine
 10
38.46941592211132
 20
-94.26646804487845
 11
35.76039386693947
 21
-95.62625409013893
  0
LINE
  5
237
100
AcDbEntity
  8
handle5
  6
ByLayer
 62
  256
370
   -1
100
AcDbLine
 10
39.51917389284665
 20
-91.60563950110615
 11
33.63476761693946
 21
-94.5593028401389
  0
LINE
  5
238
100
AcDbEntity
  8
handle5
  6
ByLayer
 62
  256
370
   -1
100
AcDbLine
 10
33.63412886693948
 20
-92.35760934013894
 11
40.53910349538396
 21
-89.02041712154322
  0
LINE
  5
239
100
AcDbEntity
  8
handle5
  6
ByLayer
 62
  256
370
   -1
100
AcDbLine
 10
40.62755545897502
 20
-88.79621733831991
 11
34.68905511693947
 21
-85.82394409013897
  0
LINE
  5
23A
100
AcDbEntity
  8
handle5
  6
ByLayer
 62
  256
370
   -1
100
AcDbLine
 10
41.35083982820748
 20
-86.96290361404311
 11
32.56352561693947
 21
-82.5647718401389
  0
LINE
  5
23B
100
AcDbEntity
  8
handle5
  6
ByLayer
 62
  256
370
   -1
100
AcDbLine
 10
36.87900211693946
 20
-82.5647718401389
 11
42.0287167072629
 21
-85.24468455856839
  0
LINE
  5
23C
100
AcDbEntity
  8
handle5
  6
ByLayer
 62
  256
370
   -1
100
AcDbLine
 10
42.93799436693948
 20
-82.93993239804215
 11
42.93799436693948
 21
-82.5647718401389
  0
LINE
  5
23D
100
AcDbEntity
  8
handle5
  6
ByLayer
 62
  256
370
   -1
100
AcDbLine
 10
45.06352436693948
 20
-57.56477184013893
 11
45.06352436693948
 21
-77.55233730249589
  0
LINE
  5
23E
100
AcDbEntity
  8
handle5
  6
ByLayer
 62
  256
370
   -1
100
AcDbLine
 10
45.06351561693947
 20
-77.38959084013894
 11
45.11711691924828
 21
-77.41649590200907
  0
LINE
  5
23F
100
AcDbEntity
  8
handle5
  6
ByLayer
 62
  256
370
   -1
100
AcDbLine
 10
45.06352436693948
 20
-76.32266684013894
 11
45.4684669040773
 21
-76.52592674745227
  0
LINE
  5
240
100
AcDbEntity
  8
handle5
  6
ByLayer
 62
  256
370
   -1
100
AcDbLine
 10
46.12640761693947
 20
-74.85824002565752
 11
46.12640761693947
 21
-73.77087634013893
  0
LINE
  5
241
100
AcDbEntity
  8
handle5
  6
ByLayer
 62
  256
370
   -1
100
AcDbLine
 10
46.66622809356866
 20
-73.48995345601941
 11
46.12640761693947
 21
-73.77087634013893
  0
LINE
  5
242
100
AcDbEntity
  8
handle5
  6
ByLayer
 62
  256
370
   -1
100
AcDbLine
 10
45.06352436693948
 20
-72.15096484013893
 11
46.84224969237081
 21
-73.04379033321403
  0
LINE
  5
243
100
AcDbEntity
  8
handle5
  6
ByLayer
 62
  256
370
   -1
100
AcDbLine
 10
47.18905886693946
 20
-72.16473080076959
 11
47.18905886693946
 21
-65.95650234013893
  0
ARC
  5
244
100
AcDbEntity
  8
handle9
  6
ByLayer
 62
  256
370
   -1
100
AcDbCircle
 10
27.24043619476013
 20
-56.80449099051394
 40
32.52597293708969
100
AcDbArc
 50
108.8508662052149
 51
159.6574260707858
  0
SPLINE
  5
245
100
AcDbEntity
  8
handle9
  6
ByLayer
 62
  256
370
   -1
100
AcDbSpline
210
0
220
0
230
0
 70
    8
 71
    2
 72
   10
 73
    7
 74
    0
 42
1e-07
 43
1e-07
 40
0
 40
0
 40
0
 40
0.2
 40
0.4
 40
0.6
 40
0.8
 40
1
 40
1
 40
1
 10
-35.57887845998115
 20
-13.32078872088206
 30
0
 10
-31.20182219614574
 20
-15.24290401317983
 30
0
 10
-27.08517126675607
 20
-17.0906450690821
 30
0
 10
-25.32593693502278
 20
-18.30079692161963
 30
0
 10
-26.05917166748236
 20
-21.02773035167206
 30
0
 10
-31.35585561795131
 20
-29.56448461659262
 30
0
 10
-37.81373356777846
 20
-35.4064866851664
 30
0
  0
ARC
  5
246
100
AcDbEntity
  8
handle9
  6
ByLayer
 62
  256
370
   -1
100
AcDbCircle
 10
-122.4911699921072
 20
-67.0106047925766
 40
145.1303352441764
100
AcDbArc
 50
16.40459845427927
 51
21.92939148355514
  0
LINE
  5
247
100
AcDbEntity
  8
handle9
  6
ByLayer
 62
  256
370
   -1
100
AcDbLine
 10
-38.48685155124979
 20
-11.9572840230265
 11
-35.57887845998115
 21
-13.32078872088206
  0
LINE
  5
248
100
AcDbEntity
  8
handle9
  6
ByLayer
 62
  256
370
   -1
100
AcDbLine
 10
-42.76817109632073
 20
-1.992837817435053
 11
8.271543780916771
 21
-8.662400412815952
  0
ARC
  5
249
100
AcDbEntity
  8
handle9
  6
ByLayer
 62
  256
370
   -1
100
AcDbCircle
 10
7.818040408596165
 20
-12.13289528981751
 40
3.5
100
AcDbArc
 50
27.92932482953679
 51
82.55511680187341
  0
SPLINE
  5
24A
100
AcDbEntity
  8
handle9
  6
ByLayer
 62
  256
370
   -1
100
AcDbSpline
210
0
220
0
230
0
 70
    8
 71
    2
 72
    8
 73
    5
 74
    0
 42
1e-07
 43
1e-07
 40
0
 40
0
 40
0
 40
0.3333333333333333
 40
0.6666666666666666
 40
1
 40
1
 40
1
 10
-38.48685155124979
 20
-11.9572840230265
 30
0
 10
-40.13190059261284
 20
-11.17780362748641
 30
0
 10
-42.28992438260843
 20
-10.07177781090509
 30
0
 10
-44.26408623059909
 20
-9.072355022080721
 30
0
 10
-45.42472554360671
 20
-8.182995534035257
 30
0
  0
ARC
  5
24B
100
AcDbEntity
  8
handle9
  6
ByLayer
 62
  256
370
   -1
100
AcDbCircle
 10
-43.22167446864138
 20
-5.463332694436559
 40
3.5
100
AcDbArc
 50
82.55514334081138
 51
230.9909478552649
  0
LINE
  5
24C
100
AcDbEntity
  8
handle9
  6
ByLayer
 62
  256
370
   -1
100
AcDbLine
 10
12.13823041919844
 20
-12.80969379488792
 11
10.9103814818462
 21
-10.49355801924421
  0
CIRCLE
  5
24D
100
AcDbEntity
  8
handle1
  6
ByLayer
 62
  256
370
   -1
100
AcDbCircle
 10
-19.88925844953789
 20
-109.9474837976567
 40
1.6
  0
CIRCLE
  5
24E
100
AcDbEntity
  8
handle1
  6
ByLayer
 62
  256
370
   -1
100
AcDbCircle
 10
-58.47769966111665
 20
-98.67928940546861
 40
1.6
  0
CIRCLE
  5
24F
100
AcDbEntity
  8
handle1
  6
ByLayer
 62
  256
370
   -1
100
AcDbCircle
 10
11.28362716633458
 20
-21.72431357230456
 40
1.6
  0
CIRCLE
  5
250
100
AcDbEntity
  8
handle1
  6
ByLayer
 62
  256
370
   -1
100
AcDbCircle
 10
7.818040408596165
 20
-12.13289528981751
 40
1.6
  0
CIRCLE
  5
251
100
AcDbEntity
  8
handle1
  6
ByLayer
 62
  256
370
   -1
100
AcDbCircle
 10
-43.22167446864138
 20
-5.463332694436559
 40
1.6
  0
LINE
  5
252
100
AcDbEntity
  8
handle3
  6
ByLayer
 62
  256
370
   -1
100
AcDbLine
 10
-27.01377753712935
 20
-26.73372588901939
 11
-30.73066894280989
 21
-31.44379152320946
  0
LINE
  5
253
100
AcDbEntity
  8
handle9
  6
ByLayer
 62
  256
370
   -1
100
AcDbLine
 10
-19.58745495215782
 20
-103.1749278577629
 11
-3.256920542479914
 21
-45.49740703638089
  0
ARC
  5
254
100
AcDbEntity
  8
handle9
  6
ByLayer
 62
  256
370
   -1
100
AcDbCircle
 10
-18.04824637763578
 20
-103.6117767608386
 40
1.6
100
AcDbArc
 50
164.1553170196897
 51
228.6887152789849
  0
SPLINE
  5
255
100
AcDbEntity
  8
handle9
  6
ByLayer
 62
  256
370
   -1
100
AcDbSpline
210
0
220
0
230
0
 70
    8
 71
    2
 72
    8
 73
    5
 74
    0
 42
1e-07
 43
1e-07
 40
0
 40
0
 40
0
 40
0.3333333333333333
 40
0.6666666666666666
 40
1
 40
1
 40
1
 10
-41.18378122168174
 20
-111.1635118181878
 30
0
 10
-26.07400534206907
 20
-115.5757046856261
 30
0
 10
-16.86533546698019
 20
-113.7269221225111
 30
0
 10
-15.74038842757338
 20
-107.6936077957432
 30
0
 10
-19.10448577089932
 20
-104.8135913655596
 30
0
  0
ARC
  5
256
100
AcDbEntity
  8
handle9
  6
ByLayer
 62
  256
370
   -1
100
AcDbCircle
 10
-56.61996352458488
 20
-92.34846595568737
 40
1.6
100
AcDbArc
 50
278.7546647210154
 51
343.2880629803104
  0
SPLINE
  5
257
100
AcDbEntity
  8
handle9
  6
ByLayer
 62
  256
370
   -1
100
AcDbSpline
210
0
220
0
230
0
 70
    8
 71
    2
 72
    8
 73
    5
 74
    0
 42
1e-07
 43
1e-07
 40
0
 40
0
 40
0
 40
0.3333333333333333
 40
0.6666666666666666
 40
1
 40
1
 40
1
 10
-41.18378122168168
 20
-111.1635118181879
 30
0
 10
-56.29355366019311
 20
-106.751307166543
 30
0
 10
-63.06028329289087
 20
-100.2375549520341
 30
0
 10
-60.76173196441707
 20
-94.54694431718804
 30
0
 10
-56.37643735997469
 20
-93.92982455105798
 30
0
  0
LINE
  5
258
100
AcDbEntity
  8
handle9
  6
ByLayer
 62
  256
370
   -1
100
AcDbLine
 10
-37.81373356777846
 20
-35.4064866851664
 11
-55.08754335613304
 21
-92.80856206230214
  0
LINE
  5
259
100
AcDbEntity
  8
handle3
  6
ByLayer
 62
  256
370
   -1
100
AcDbLine
 10
-24.73724581393749
 20
-28.53022340176499
 11
-27.01377753712935
 21
-26.73372588901939
  0
LINE
  5
25A
100
AcDbEntity
  8
handle3
  6
ByLayer
 62
  256
370
   -1
100
AcDbLine
 10
-30.73066882242155
 20
-31.44379137065268
 11
-28.454137233509
 21
-33.24028905355775
  0
LINE
  5
25B
100
AcDbEntity
  8
handle3
  6
ByLayer
 62
  256
370
   -1
100
AcDbLine
 10
-28.45413721961803
 20
-33.24028903595504
 11
-24.73724581393749
 21
-28.53022340176499
  0
ELLIPSE
  5
25C
100
AcDbEntity
  8
handle4
  6
ByLayer
 62
  256
370
   -1
100
AcDbEllipse
 10
-921.8801526010587
 20
-1210.251395717557
 30
0
 11
918.9500516188194
 21
1164.498659027809
 31
0
 40
0.169317757651324
 41
0.001651196805545041
 42
0.1349536048211508
  0
LINE
  5
25D
100
AcDbEntity
  8
handle5
  6
ByLayer
 62
  256
370
   -1
100
AcDbLine
 10
-55.79187522609708
 20
-95.8540445833443
 11
-58.0970423518405
 21
-95.37985302174052
  0
LINE
  5
25E
100
AcDbEntity
  8
handle5
  6
ByLayer
 62
  256
370
   -1
100
AcDbLine
 10
-47.9010780001273
 20
-84.16135569445677
 11
-50.23067562159008
 21
-83.68213808833164
  0
LINE
  5
25F
100
AcDbEntity
  8
handle5
  6
ByLayer
 62
  256
370
   -1
100
AcDbLine
 10
-50.76096693301233
 20
-82.54841042237933
 11
-52.09900943117945
 21
-84.24398538000955
  0
LINE
  5
260
100
AcDbEntity
  8
handle5
  6
ByLayer
 62
  256
370
   -1
100
AcDbLine
 10
-52.09900943117945
 20
-84.24398538000955
 11
-51.06083481637187
 21
-86.463531372636
  0
LINE
  5
261
100
AcDbEntity
  8
handle5
  6
ByLayer
 62
  256
370
   -1
100
AcDbLine
 10
-55.64429980939657
 20
-93.97464089993929
 11
-54.28019214563568
 21
-92.24603601829112
  0
LINE
  5
262
100
AcDbEntity
  8
handle5
  6
ByLayer
 62
  256
370
   -1
100
AcDbLine
 10
-41.26120385918396
 20
-74.12168936210878
 11
-42.48715155001467
 21
-73.86950095793021
  0
LINE
  5
263
100
AcDbEntity
  8
handle5
  6
ByLayer
 62
  256
370
   -1
100
AcDbLine
 10
-43.01744348091881
 20
-72.73577407698886
 11
-42.48715155001467
 21
-73.86950095793021
  0
LINE
  5
264
100
AcDbEntity
  8
handle5
  6
ByLayer
 62
  256
370
   -1
100
AcDbLine
 10
-43.01744348091881
 20
-72.73577407698886
 11
-44.35548458525167
 21
-74.43134726834447
  0
LINE
  5
265
100
AcDbEntity
  8
handle5
  6
ByLayer
 62
  256
370
   -1
100
AcDbLine
 10
-44.35548458525167
 20
-74.43134726834447
 11
-43.31731074479644
 21
-76.65089424223459
  0
LINE
  5
266
100
AcDbEntity
  8
handle5
  6
ByLayer
 62
  256
370
   -1
100
AcDbLine
 10
-40.30482770242817
 20
-76.22877110755243
 11
-42.60999482817158
 21
-75.75457954594862
  0
LINE
  5
267
100
AcDbEntity
  8
handle5
  6
ByLayer
 62
  256
370
   -1
100
AcDbLine
 10
-42.60999482817158
 20
-75.75457954594862
 11
-47.0489527888909
 21
-81.37965196814665
  0
LINE
  5
268
100
AcDbEntity
  8
handle5
  6
ByLayer
 62
  256
370
   -1
100
AcDbLine
 10
-44.71946162672009
 20
-81.85884830118663
 11
-47.0489527888909
 21
-81.37965196814665
  0
LINE
  5
269
100
AcDbEntity
  8
handle5
  6
ByLayer
 62
  256
370
   -1
100
AcDbLine
 10
-47.90077589269164
 20
-84.16200396579063
 11
-46.53666807406026
 21
-82.43339888788972
  0
LINE
  5
26A
100
AcDbEntity
  8
handle5
  6
ByLayer
 62
  256
370
   -1
100
AcDbLine
 10
-48.02402649861236
 20
-86.04641143936814
 11
-50.35351905461745
 21
-85.56721687260278
  0
LINE
  5
26B
100
AcDbEntity
  8
handle5
  6
ByLayer
 62
  256
370
   -1
100
AcDbLine
 10
-45.57551190660773
 20
-62.76548996763351
 11
-40.15755516751567
 21
-74.34872013407724
  0
LINE
  5
26C
100
AcDbEntity
  8
handle5
  6
ByLayer
 62
  256
370
   -1
100
AcDbLine
 10
-45.8897922430895
 20
-66.59488917757852
 11
-43.56054163665857
 21
-67.07403803366603
  0
LINE
  5
26D
100
AcDbEntity
  8
handle5
  6
ByLayer
 62
  256
370
   -1
100
AcDbLine
 10
-46.23646241568839
 20
-63.60302877061375
 11
-45.22882038695633
 21
-65.75730193465247
  0
LINE
  5
26E
100
AcDbEntity
  8
handle5
  6
ByLayer
 62
  256
370
   -1
100
AcDbLine
 10
-45.22882038695633
 20
-65.75730193465247
 11
-47.77381867667697
 21
-68.98233804013719
  0
LINE
  5
26F
100
AcDbEntity
  8
handle5
  6
ByLayer
 62
  256
370
   -1
100
AcDbLine
 10
-41.98358221262441
 20
-61.64491792033288
 11
-37.48529631538092
 21
-55.94466480425105
  0
LINE
  5
270
100
AcDbEntity
  8
handle5
  6
ByLayer
 62
  256
370
   -1
100
AcDbLine
 10
-42.99121802146433
 20
-59.49065826325318
 11
-41.98358221262441
 21
-61.64491792033288
  0
LINE
  5
271
100
AcDbEntity
  8
handle5
  6
ByLayer
 62
  256
370
   -1
100
AcDbLine
 10
-32.41403047645836
 20
-64.5360822186649
 11
-34.74362809792116
 21
-64.05686461253975
  0
LINE
  5
272
100
AcDbEntity
  8
handle5
  6
ByLayer
 62
  256
370
   -1
100
AcDbLine
 10
-38.14626817151408
 20
-56.78225204717712
 11
-34.74362809792116
 21
-64.05686461253975
  0
LINE
  5
273
100
AcDbEntity
  8
handle5
  6
ByLayer
 62
  256
370
   -1
100
AcDbLine
 10
-35.27391940934341
 20
-62.92313694658746
 11
-43.16035243123551
 21
-61.42074065954233
  0
LINE
  5
274
100
AcDbEntity
  8
handle5
  6
ByLayer
 62
  256
370
   -1
100
AcDbLine
 10
-44.41064036227833
 20
-63.00511253757117
 11
-43.16035243123551
 21
-61.42074065954233
  0
LINE
  5
275
100
AcDbEntity
  8
handle5
  6
ByLayer
 62
  256
370
   -1
100
AcDbLine
 10
-35.27391940934341
 20
-62.92313694658746
 11
-36.61196190751055
 21
-64.61871190421765
  0
LINE
  5
276
100
AcDbEntity
  8
handle5
  6
ByLayer
 62
  256
370
   -1
100
AcDbLine
 10
-45.8897922430895
 20
-66.59488917757852
 11
-43.01744348091881
 21
-72.73577407698886
  0
LINE
  5
277
100
AcDbEntity
  8
handle5
  6
ByLayer
 62
  256
370
   -1
100
AcDbLine
 10
-40.15755516751567
 20
-74.34872013407724
 11
-41.26120385918396
 21
-74.12168936210878
  0
LINE
  5
278
100
AcDbEntity
  8
handle5
  6
ByLayer
 62
  256
370
   -1
100
AcDbLine
 10
-36.61196190751055
 20
-64.61871190421765
 11
-35.57378729270295
 21
-66.83825789684411
  0
LINE
  5
279
100
AcDbEntity
  8
handle5
  6
ByLayer
 62
  256
370
   -1
100
AcDbLine
 10
-34.86647153094853
 20
-65.9419433968109
 11
-39.30542933679739
 21
-71.56701562275617
  0
LINE
  5
27A
100
AcDbEntity
  8
handle5
  6
ByLayer
 62
  256
370
   -1
100
AcDbLine
 10
-44.41064036227833
 20
-63.00511253757117
 11
-43.37246908376719
 21
-65.22465589739957
  0
LINE
  5
27B
100
AcDbEntity
  8
handle5
  6
ByLayer
 62
  256
370
   -1
100
AcDbLine
 10
-43.56001669446339
 20
-67.07448827221862
 11
-42.27881289967192
 21
-65.45093963826646
  0
LINE
  5
27C
100
AcDbEntity
  8
handle5
  6
ByLayer
 62
  256
370
   -1
100
AcDbLine
 10
-43.37246908376719
 20
-65.22465589739957
 11
-35.57378589886866
 21
-66.8382561305695
  0
LINE
  5
27D
100
AcDbEntity
  8
handle5
  6
ByLayer
 62
  256
370
   -1
100
AcDbLine
 10
-38.79314462196677
 20
-72.62076254249925
 11
-42.27881289967192
 21
-65.45093963826646
  0
LINE
  5
27E
100
AcDbEntity
  8
handle5
  6
ByLayer
 62
  256
370
   -1
100
AcDbLine
 10
-40.15725228572765
 20
-74.34936742414742
 11
-38.79314462196677
 21
-72.62076254249925
  0
LINE
  5
27F
100
AcDbEntity
  8
handle5
  6
ByLayer
 62
  256
370
   -1
100
AcDbLine
 10
-41.48340030654329
 20
-54.14879452966986
 11
-42.49093486030655
 21
-51.9947596792503
  0
LINE
  5
280
100
AcDbEntity
  8
handle5
  6
ByLayer
 62
  256
370
   -1
100
AcDbLine
 10
-38.49292107387231
 20
-53.79040526881415
 11
-40.82242845041014
 21
-53.31120728674379
  0
LINE
  5
281
100
AcDbEntity
  8
handle5
  6
ByLayer
 62
  256
370
   -1
100
AcDbLine
 10
-37.5771902760782
 20
-49.19882327242421
 11
-35.62390328803727
 21
-46.72360704683804
  0
LINE
  5
282
100
AcDbEntity
  8
handle5
  6
ByLayer
 62
  256
370
   -1
100
AcDbLine
 10
-35.24769394988894
 20
-49.67802113285177
 11
-37.5771902760782
 21
-49.19882327242421
  0
LINE
  5
283
100
AcDbEntity
  8
handle5
  6
ByLayer
 62
  256
370
   -1
100
AcDbLine
 10
-38.33586271448078
 20
-51.87560432244939
 11
-37.08557540291987
 21
-50.29123322943147
  0
LINE
  5
284
100
AcDbEntity
  8
handle5
  6
ByLayer
 62
  256
370
   -1
100
AcDbLine
 10
-38.33586271448078
 20
-51.87560432244939
 11
-40.73594946517585
 21
-51.38188788680866
  0
LINE
  5
285
100
AcDbEntity
  8
handle5
  6
ByLayer
 62
  256
370
   -1
100
AcDbLine
 10
-42.49149480322909
 20
-51.99435379381579
 11
-41.21029162791953
 21
-50.37080594487456
  0
LINE
  5
286
100
AcDbEntity
  8
handle5
  6
ByLayer
 62
  256
370
   -1
100
AcDbLine
 10
-37.83198783503232
 20
-52.95285283723209
 11
-32.41403125081072
 21
-64.53608319992858
  0
LINE
  5
287
100
AcDbEntity
  8
handle5
  6
ByLayer
 62
  256
370
   -1
100
AcDbLine
 10
-38.14626817151408
 20
-56.78225204717712
 11
-35.81701756508316
 21
-57.26140090326463
  0
LINE
  5
288
100
AcDbEntity
  8
handle5
  6
ByLayer
 62
  256
370
   -1
100
AcDbLine
 10
-38.49293834411299
 20
-53.79039164021233
 11
-37.48529631538092
 21
-55.94466480425105
  0
LINE
  5
289
100
AcDbEntity
  8
handle5
  6
ByLayer
 62
  256
370
   -1
100
AcDbLine
 10
-34.240058141049
 20
-51.83228078993147
 11
-32.28677115300805
 21
-49.35706456434531
  0
LINE
  5
28A
100
AcDbEntity
  8
handle5
  6
ByLayer
 62
  256
370
   -1
100
AcDbLine
 10
-35.24769394988894
 20
-49.67802113285177
 11
-34.240058141049
 21
-51.83228078993147
  0
LINE
  5
28B
100
AcDbEntity
  8
handle5
  6
ByLayer
 62
  256
370
   -1
100
AcDbLine
 10
-36.66711629070292
 20
-53.19247540716977
 11
-24.14269969761579
 21
-55.78386018690803
  0
LINE
  5
28C
100
AcDbEntity
  8
handle5
  6
ByLayer
 62
  256
370
   -1
100
AcDbLine
 10
-25.77415633551505
 20
-54.49641588631688
 11
-27.00010402634576
 21
-54.24422748213834
  0
LINE
  5
28D
100
AcDbEntity
  8
handle5
  6
ByLayer
 62
  256
370
   -1
100
AcDbLine
 10
-27.5303959572499
 20
-53.11050060119699
 11
-27.00010402634576
 21
-54.24422748213834
  0
LINE
  5
28E
100
AcDbEntity
  8
handle5
  6
ByLayer
 62
  256
370
   -1
100
AcDbLine
 10
-27.5303959572499
 20
-53.11050060119699
 11
-35.41682897914201
 21
-51.60810431415187
  0
LINE
  5
28F
100
AcDbEntity
  8
handle5
  6
ByLayer
 62
  256
370
   -1
100
AcDbLine
 10
-36.66711629070292
 20
-53.19247540716977
 11
-35.41682897914201
 21
-51.60810431415187
  0
LINE
  5
290
100
AcDbEntity
  8
handle5
  6
ByLayer
 62
  256
370
   -1
100
AcDbLine
 10
-27.5303959572499
 20
-53.11050060119699
 11
-28.86843706158276
 21
-54.80607379255257
  0
LINE
  5
291
100
AcDbEntity
  8
handle5
  6
ByLayer
 62
  256
370
   -1
100
AcDbLine
 10
-28.86843706158276
 20
-54.80607379255257
 11
-27.83026322112753
 21
-57.02562076644271
  0
LINE
  5
292
100
AcDbEntity
  8
handle5
  6
ByLayer
 62
  256
370
   -1
100
AcDbLine
 10
-24.81778017875925
 20
-56.60349763176055
 11
-27.12294730450267
 21
-56.12930607015674
  0
LINE
  5
293
100
AcDbEntity
  8
handle5
  6
ByLayer
 62
  256
370
   -1
100
AcDbLine
 10
-27.12294730450267
 20
-56.12930607015674
 11
-31.56190526522198
 21
-61.75437849235476
  0
LINE
  5
294
100
AcDbEntity
  8
handle5
  6
ByLayer
 62
  256
370
   -1
100
AcDbLine
 10
-29.23241410305117
 20
-62.23357482539475
 11
-31.56190526522198
 21
-61.75437849235476
  0
LINE
  5
295
100
AcDbEntity
  8
handle5
  6
ByLayer
 62
  256
370
   -1
100
AcDbLine
 10
-36.66711629070292
 20
-53.19247540716977
 11
-35.62894501219179
 21
-55.41201876699817
  0
LINE
  5
296
100
AcDbEntity
  8
handle5
  6
ByLayer
 62
  256
370
   -1
100
AcDbLine
 10
-35.81649262288798
 20
-57.26185114181722
 11
-34.53528944757841
 21
-55.63830329287599
  0
LINE
  5
297
100
AcDbEntity
  8
handle5
  6
ByLayer
 62
  256
370
   -1
100
AcDbLine
 10
-35.62894501219179
 20
-55.41201876699817
 11
-27.83026182729325
 21
-57.0256190001681
  0
LINE
  5
298
100
AcDbEntity
  8
handle5
  6
ByLayer
 62
  256
370
   -1
100
AcDbLine
 10
-31.04962055039135
 20
-62.80812541209785
 11
-34.53528944757841
 21
-55.63830329287599
  0
LINE
  5
299
100
AcDbEntity
  8
handle5
  6
ByLayer
 62
  256
370
   -1
100
AcDbLine
 10
-32.41372836902272
 20
-64.53673048999873
 11
-31.04962055039135
 21
-62.80812541209785
  0
LINE
  5
29A
100
AcDbEntity
  8
handle5
  6
ByLayer
 62
  256
370
   -1
100
AcDbLine
 10
-32.53697897494344
 20
-66.42113796357626
 11
-34.86647153094853
 21
-65.9419433968109
  0
LINE
  5
29B
100
AcDbEntity
  8
handle5
  6
ByLayer
 62
  256
370
   -1
100
AcDbLine
 10
-44.41064036227833
 20
-63.00511253757117
 11
-31.88622314970929
 21
-65.5964965322985
  0
LINE
  5
29C
100
AcDbEntity
  8
handle5
  6
ByLayer
 62
  256
370
   -1
100
AcDbLine
 10
-36.97593817462658
 20
-72.04621195579617
 11
-39.30542933679739
 21
-71.56701562275617
  0
LINE
  5
29D
100
AcDbEntity
  8
handle5
  6
ByLayer
 62
  256
370
   -1
100
AcDbLine
 10
-33.73987685444978
 20
-44.33615818427938
 11
-34.74741140821304
 21
-42.18212333385982
  0
LINE
  5
29E
100
AcDbEntity
  8
handle5
  6
ByLayer
 62
  256
370
   -1
100
AcDbLine
 10
-30.74939762177882
 20
-43.9777689234237
 11
-33.07890499831662
 21
-43.49857094135331
  0
LINE
  5
29F
100
AcDbEntity
  8
handle5
  6
ByLayer
 62
  256
370
   -1
100
AcDbLine
 10
-33.07890499831662
 20
-43.49857094135331
 11
-35.62390328803727
 21
-46.72360704683804
  0
LINE
  5
2A0
100
AcDbEntity
  8
handle5
  6
ByLayer
 62
  256
370
   -1
100
AcDbLine
 10
-27.50417049779544
 20
-39.86538478746129
 11
-29.8336668239847
 21
-39.38618692703373
  0
LINE
  5
2A1
100
AcDbEntity
  8
handle5
  6
ByLayer
 62
  256
370
   -1
100
AcDbLine
 10
-30.59233926238728
 20
-42.06296797705892
 11
-29.34205133134445
 21
-40.47859609903006
  0
LINE
  5
2A2
100
AcDbEntity
  8
handle5
  6
ByLayer
 62
  256
370
   -1
100
AcDbLine
 10
-30.59233926238728
 20
-42.06296797705892
 11
-32.99242601308235
 21
-41.56925154141818
  0
LINE
  5
2A3
100
AcDbEntity
  8
handle5
  6
ByLayer
 62
  256
370
   -1
100
AcDbLine
 10
-34.74797135113558
 20
-42.18171744842532
 11
-33.46676755634412
 21
-40.55816881447316
  0
LINE
  5
2A4
100
AcDbEntity
  8
handle5
  6
ByLayer
 62
  256
370
   -1
100
AcDbLine
 10
-30.08846438293883
 20
-43.14021649184161
 11
-24.67050764384676
 21
-54.72344665828537
  0
LINE
  5
2A5
100
AcDbEntity
  8
handle5
  6
ByLayer
 62
  256
370
   -1
100
AcDbLine
 10
-30.40274471942058
 20
-46.96961570178665
 11
-28.07349411298966
 21
-47.44876455787416
  0
LINE
  5
2A6
100
AcDbEntity
  8
handle5
  6
ByLayer
 62
  256
370
   -1
100
AcDbLine
 10
-30.74941489201948
 20
-43.97775529482188
 11
-29.74177286328743
 21
-46.13202845886058
  0
LINE
  5
2A7
100
AcDbEntity
  8
handle5
  6
ByLayer
 62
  256
370
   -1
100
AcDbLine
 10
-29.74177286328743
 20
-46.13202845886058
 11
-32.28677115300805
 21
-49.35706456434531
  0
LINE
  5
2A8
100
AcDbEntity
  8
handle5
  6
ByLayer
 62
  256
370
   -1
100
AcDbLine
 10
-27.50417049779544
 20
-39.86538478746129
 11
-26.4965346889555
 21
-42.019644444541
  0
LINE
  5
2A9
100
AcDbEntity
  8
handle5
  6
ByLayer
 62
  256
370
   -1
100
AcDbLine
 10
-16.92698295278945
 20
-44.91080874287302
 11
-19.25658057425226
 21
-44.43159113674785
  0
LINE
  5
2AA
100
AcDbEntity
  8
handle5
  6
ByLayer
 62
  256
370
   -1
100
AcDbLine
 10
-22.65922064784516
 20
-37.15697857138523
 11
-19.25658057425226
 21
-44.43159113674785
  0
LINE
  5
2AB
100
AcDbEntity
  8
handle5
  6
ByLayer
 62
  256
370
   -1
100
AcDbLine
 10
-19.78687188567449
 20
-43.29786347079558
 11
-27.67330490756661
 21
-41.79546718375043
  0
LINE
  5
2AC
100
AcDbEntity
  8
handle5
  6
ByLayer
 62
  256
370
   -1
100
AcDbLine
 10
-28.92359283860943
 20
-43.37983906177929
 11
-27.67330490756661
 21
-41.79546718375043
  0
LINE
  5
2AD
100
AcDbEntity
  8
handle5
  6
ByLayer
 62
  256
370
   -1
100
AcDbLine
 10
-19.78687188567449
 20
-43.29786347079558
 11
-21.12491438384163
 21
-44.99343842842578
  0
LINE
  5
2AE
100
AcDbEntity
  8
handle5
  6
ByLayer
 62
  256
370
   -1
100
AcDbLine
 10
-30.40274471942058
 20
-46.96961570178665
 11
-27.5303959572499
 21
-53.11050060119699
  0
LINE
  5
2AF
100
AcDbEntity
  8
handle5
  6
ByLayer
 62
  256
370
   -1
100
AcDbLine
 10
-24.67050764384676
 20
-54.72344665828537
 11
-25.77415633551505
 21
-54.49641588631688
  0
LINE
  5
2B0
100
AcDbEntity
  8
handle5
  6
ByLayer
 62
  256
370
   -1
100
AcDbLine
 10
-21.12491438384163
 20
-44.99343842842578
 11
-20.08673976903402
 21
-47.21298442105223
  0
LINE
  5
2B1
100
AcDbEntity
  8
handle5
  6
ByLayer
 62
  256
370
   -1
100
AcDbLine
 10
-19.37942400727963
 20
-46.31666992101902
 11
-23.81838181312849
 21
-51.9417421469643
  0
LINE
  5
2B2
100
AcDbEntity
  8
handle5
  6
ByLayer
 62
  256
370
   -1
100
AcDbLine
 10
-28.92359283860943
 20
-43.37983906177929
 11
-27.88542156009828
 21
-45.59938242160769
  0
LINE
  5
2B3
100
AcDbEntity
  8
handle5
  6
ByLayer
 62
  256
370
   -1
100
AcDbLine
 10
-28.07296917079448
 20
-47.44921479642674
 11
-26.791765376003
 21
-45.82566616247458
  0
LINE
  5
2B4
100
AcDbEntity
  8
handle5
  6
ByLayer
 62
  256
370
   -1
100
AcDbLine
 10
-27.88542156009828
 20
-45.59938242160769
 11
-20.08673837519975
 21
-47.21298265477763
  0
LINE
  5
2B5
100
AcDbEntity
  8
handle5
  6
ByLayer
 62
  256
370
   -1
100
AcDbLine
 10
-23.30609709829786
 20
-52.99548906670738
 11
-26.791765376003
 21
-45.82566616247458
  0
LINE
  5
2B6
100
AcDbEntity
  8
handle5
  6
ByLayer
 62
  256
370
   -1
100
AcDbLine
 10
-24.67020476205875
 20
-54.72409394835552
 11
-23.30609709829786
 21
-52.99548906670738
  0
LINE
  5
2B7
100
AcDbEntity
  8
handle5
  6
ByLayer
 62
  256
370
   -1
100
AcDbLine
 10
-22.65922064784516
 20
-37.15697857138523
 11
-20.32997004141425
 21
-37.63612742747274
  0
LINE
  5
2B8
100
AcDbEntity
  8
handle5
  6
ByLayer
 62
  256
370
   -1
100
AcDbLine
 10
-13.74536657938225
 20
-42.60830134960287
 11
-16.07485774155307
 21
-42.12910501656288
  0
LINE
  5
2B9
100
AcDbEntity
  8
handle5
  6
ByLayer
 62
  256
370
   -1
100
AcDbLine
 10
-16.92668084535381
 20
-44.91145701420685
 11
-15.56257302672244
 21
-43.18285193630595
  0
LINE
  5
2BA
100
AcDbEntity
  8
handle5
  6
ByLayer
 62
  256
370
   -1
100
AcDbLine
 10
-17.04993145127453
 20
-46.79586448778437
 11
-19.37942400727963
 21
-46.31666992101902
  0
LINE
  5
2BB
100
AcDbEntity
  8
handle5
  6
ByLayer
 62
  256
370
   -1
100
AcDbLine
 10
-28.92359283860943
 20
-43.37983906177929
 11
-16.39917562604038
 21
-45.97122305650662
  0
LINE
  5
2BC
100
AcDbEntity
  8
handle5
  6
ByLayer
 62
  256
370
   -1
100
AcDbLine
 10
-21.48889065095766
 20
-52.42093848000427
 11
-23.81838181312849
 21
-51.9417421469643
  0
LINE
  5
2BD
100
AcDbEntity
  8
handle5
  6
ByLayer
 62
  256
370
   -1
100
AcDbLine
 10
-48.92600988509685
 20
-103.9364192963816
 11
-46.9727228970559
 21
-101.4612030707955
  0
LINE
  5
2BE
100
AcDbEntity
  8
handle5
  6
ByLayer
 62
  256
370
   -1
100
AcDbLine
 10
-46.59651355890753
 20
-104.4156171568092
 11
-48.92600988509685
 21
-103.9364192963816
  0
LINE
  5
2BF
100
AcDbEntity
  8
handle5
  6
ByLayer
 62
  256
370
   -1
100
AcDbLine
 10
-49.68468232349942
 20
-106.6132003464068
 11
-55.11679474495361
 21
-95.0344071384918
  0
LINE
  5
2C0
100
AcDbEntity
  8
handle5
  6
ByLayer
 62
  256
370
   -1
100
AcDbLine
 10
-53.48533751829616
 20
-96.32185190369435
 11
-52.95504225109553
 21
-97.45558141743379
  0
LINE
  5
2C1
100
AcDbEntity
  8
handle5
  6
ByLayer
 62
  256
370
   -1
100
AcDbLine
 10
-51.72909456026481
 20
-97.70776982161235
 11
-52.95504225109553
 21
-97.45558141743379
  0
LINE
  5
2C2
100
AcDbEntity
  8
handle5
  6
ByLayer
 62
  256
370
   -1
100
AcDbLine
 10
-51.72909456026481
 20
-97.70776982161235
 11
-48.43439501193851
 21
-105.0288292533889
  0
LINE
  5
2C3
100
AcDbEntity
  8
handle5
  6
ByLayer
 62
  256
370
   -1
100
AcDbLine
 10
-49.68468232349942
 20
-106.6132003464068
 11
-48.43439501193851
 21
-105.0288292533889
  0
LINE
  5
2C4
100
AcDbEntity
  8
handle5
  6
ByLayer
 62
  256
370
   -1
100
AcDbLine
 10
-51.72909456026481
 20
-97.70776982161235
 11
-53.06713566459766
 21
-99.40334301296794
  0
LINE
  5
2C5
100
AcDbEntity
  8
handle5
  6
ByLayer
 62
  256
370
   -1
100
AcDbLine
 10
-53.06713566459766
 20
-99.40334301296794
 11
-55.46722672219433
 21
-98.90962477092231
  0
LINE
  5
2C6
100
AcDbEntity
  8
handle5
  6
ByLayer
 62
  256
370
   -1
100
AcDbLine
 10
-54.75991080556946
 20
-98.01331007463637
 11
-59.19886876628878
 21
-103.6383824968344
  0
LINE
  5
2C7
100
AcDbEntity
  8
handle5
  6
ByLayer
 62
  256
370
   -1
100
AcDbLine
 10
-60.206509150389
 20
-101.4841217769785
 11
-59.19886876628878
 21
-103.6383824968344
  0
LINE
  5
2C8
100
AcDbEntity
  8
handle5
  6
ByLayer
 62
  256
370
   -1
100
AcDbLine
 10
-49.68468232349942
 20
-106.6132003464068
 11
-52.0847690741945
 21
-106.119483910766
  0
LINE
  5
2C9
100
AcDbEntity
  8
handle5
  6
ByLayer
 62
  256
370
   -1
100
AcDbLine
 10
-53.84031441224774
 20
-106.7319498177732
 11
-52.55911123693816
 21
-105.108401968832
  0
LINE
  5
2CA
100
AcDbEntity
  8
handle5
  6
ByLayer
 62
  256
370
   -1
100
AcDbLine
 10
-52.0847690741945
 20
-106.119483910766
 11
-55.46722532836004
 21
-98.90962300464771
  0
LINE
  5
2CB
100
AcDbEntity
  8
handle5
  6
ByLayer
 62
  256
370
   -1
100
AcDbLine
 10
-45.58887775006764
 20
-106.5698768138889
 11
-43.63559076202667
 21
-104.0946605883027
  0
LINE
  5
2CC
100
AcDbEntity
  8
handle5
  6
ByLayer
 62
  256
370
   -1
100
AcDbLine
 10
-46.59651355890753
 20
-104.4156171568092
 11
-45.58887775006764
 21
-106.5698768138889
  0
LINE
  5
2CD
100
AcDbEntity
  8
handle5
  6
ByLayer
 62
  256
370
   -1
100
AcDbLine
 10
-48.01593589972155
 20
-107.9300714311272
 11
-35.49151930663442
 21
-110.5214562108654
  0
LINE
  5
2CE
100
AcDbEntity
  8
handle5
  6
ByLayer
 62
  256
370
   -1
100
AcDbLine
 10
-37.12297594453362
 20
-109.2340119102743
 11
-38.34892363536434
 21
-108.9818235060958
  0
LINE
  5
2CF
100
AcDbEntity
  8
handle5
  6
ByLayer
 62
  256
370
   -1
100
AcDbLine
 10
-38.87921556626851
 20
-107.8480966251544
 11
-38.34892363536434
 21
-108.9818235060958
  0
LINE
  5
2D0
100
AcDbEntity
  8
handle5
  6
ByLayer
 62
  256
370
   -1
100
AcDbLine
 10
-38.87921556626851
 20
-107.8480966251544
 11
-46.76564858816064
 21
-106.3457003381093
  0
LINE
  5
2D1
100
AcDbEntity
  8
handle5
  6
ByLayer
 62
  256
370
   -1
100
AcDbLine
 10
-48.01593589972155
 20
-107.9300714311272
 11
-46.76564858816064
 21
-106.3457003381093
  0
LINE
  5
2D2
100
AcDbEntity
  8
handle5
  6
ByLayer
 62
  256
370
   -1
100
AcDbLine
 10
-38.87921556626851
 20
-107.8480966251544
 11
-40.21725667060139
 21
-109.54366981651
  0
LINE
  5
2D3
100
AcDbEntity
  8
handle5
  6
ByLayer
 62
  256
370
   -1
100
AcDbLine
 10
-36.16659978777784
 20
-111.341093655718
 11
-38.47176691352124
 21
-110.8669020941142
  0
LINE
  5
2D4
100
AcDbEntity
  8
handle5
  6
ByLayer
 62
  256
370
   -1
100
AcDbLine
 10
-55.76754855687159
 20
-95.85904601848399
 11
-54.75991080556946
 21
-98.01331007463637
  0
LINE
  5
2D5
100
AcDbEntity
  8
handle5
  6
ByLayer
 62
  256
370
   -1
100
AcDbLine
 10
-41.4372839919574
 20
-97.87781251579906
 11
-53.96272538942959
 21
-95.30122676834662
  0
LINE
  5
2D6
100
AcDbEntity
  8
handle5
  6
ByLayer
 62
  256
370
   -1
100
AcDbLine
 10
-45.08869646346839
 20
-99.07375420823679
 11
-46.09623101723163
 21
-96.91971935781726
  0
LINE
  5
2D7
100
AcDbEntity
  8
handle5
  6
ByLayer
 62
  256
370
   -1
100
AcDbLine
 10
-42.0982172307974
 20
-98.71536494738113
 11
-44.42772460733526
 21
-98.23616696531073
  0
LINE
  5
2D8
100
AcDbEntity
  8
handle5
  6
ByLayer
 62
  256
370
   -1
100
AcDbLine
 10
-44.42772460733526
 20
-98.23616696531073
 11
-46.9727228970559
 21
-101.4612030707955
  0
LINE
  5
2D9
100
AcDbEntity
  8
handle5
  6
ByLayer
 62
  256
370
   -1
100
AcDbLine
 10
-29.81710753959773
 20
-83.1526597475915
 11
-45.30415506326665
 21
-102.7779332233834
  0
LINE
  5
2DA
100
AcDbEntity
  8
handle5
  6
ByLayer
 62
  256
370
   -1
100
AcDbLine
 10
-41.18248643300332
 20
-94.12378295099116
 11
-36.68420053575986
 21
-88.42352983490932
  0
LINE
  5
2DB
100
AcDbEntity
  8
handle5
  6
ByLayer
 62
  256
370
   -1
100
AcDbLine
 10
-38.852990106814
 20
-94.60298081141875
 11
-41.18248643300332
 21
-94.12378295099116
  0
LINE
  5
2DC
100
AcDbEntity
  8
handle5
  6
ByLayer
 62
  256
370
   -1
100
AcDbLine
 10
-41.94115887140592
 20
-96.80056400101631
 11
-47.3732706733782
 21
-85.22177000809037
  0
LINE
  5
2DD
100
AcDbEntity
  8
handle5
  6
ByLayer
 62
  256
370
   -1
100
AcDbLine
 10
-46.21920147272466
 20
-85.48858983419794
 11
-45.21151879900202
 21
-87.64294507204333
  0
LINE
  5
2DE
100
AcDbEntity
  8
handle5
  6
ByLayer
 62
  256
370
   -1
100
AcDbLine
 10
-37.345172391893
 20
-89.26111707783539
 11
-45.21151879900202
 21
-87.64294507204333
  0
LINE
  5
2DF
100
AcDbEntity
  8
handle5
  6
ByLayer
 62
  256
370
   -1
100
AcDbLine
 10
-43.9855704886894
 20
-87.89513269121093
 11
-40.6908709403631
 21
-95.21619212298747
  0
LINE
  5
2E0
100
AcDbEntity
  8
handle5
  6
ByLayer
 62
  256
370
   -1
100
AcDbLine
 10
-41.94115887140592
 20
-96.80056400101631
 11
-40.6908709403631
 21
-95.21619212298747
  0
LINE
  5
2E1
100
AcDbEntity
  8
handle5
  6
ByLayer
 62
  256
370
   -1
100
AcDbLine
 10
-43.9855704886894
 20
-87.89513269121093
 11
-45.32361298685653
 21
-89.59070764884115
  0
LINE
  5
2E2
100
AcDbEntity
  8
handle5
  6
ByLayer
 62
  256
370
   -1
100
AcDbLine
 10
-45.08869646346839
 20
-99.07375420823679
 11
-51.72909456026481
 21
-97.70776982161235
  0
LINE
  5
2E3
100
AcDbEntity
  8
handle5
  6
ByLayer
 62
  256
370
   -1
100
AcDbLine
 10
-53.96272538942959
 20
-95.30122676834662
 11
-53.48533751829616
 21
-96.32185190369435
  0
LINE
  5
2E4
100
AcDbEntity
  8
handle5
  6
ByLayer
 62
  256
370
   -1
100
AcDbLine
 10
-45.32361298685653
 20
-89.59070764884115
 11
-47.72370327010081
 21
-89.09698842553183
  0
LINE
  5
2E5
100
AcDbEntity
  8
handle5
  6
ByLayer
 62
  256
370
   -1
100
AcDbLine
 10
-48.01350121336526
 20
-86.06891013694637
 11
-47.01638750834643
 21
-88.20067392549863
  0
LINE
  5
2E6
100
AcDbEntity
  8
handle5
  6
ByLayer
 62
  256
370
   -1
100
AcDbLine
 10
-47.01638750834643
 20
-88.20067392549863
 11
-51.45534562393622
 21
-93.82574654394939
  0
LINE
  5
2E7
100
AcDbEntity
  8
handle5
  6
ByLayer
 62
  256
370
   -1
100
AcDbLine
 10
-41.94115887140592
 20
-96.80056400101631
 11
-44.34124562210098
 21
-96.30684756537559
  0
LINE
  5
2E8
100
AcDbEntity
  8
handle5
  6
ByLayer
 62
  256
370
   -1
100
AcDbLine
 10
-46.09679096015419
 20
-96.91931347238274
 11
-44.81558716536276
 21
-95.29576483843057
  0
LINE
  5
2E9
100
AcDbEntity
  8
handle5
  6
ByLayer
 62
  256
370
   -1
100
AcDbLine
 10
-44.34124562210098
 20
-96.30684756537559
 11
-47.72370187626656
 21
-89.09698665925723
  0
LINE
  5
2EA
100
AcDbEntity
  8
handle5
  6
ByLayer
 62
  256
370
   -1
100
AcDbLine
 10
-52.59932103165173
 20
-93.57247515584214
 11
-44.81558716536276
 21
-95.29576483843057
  0
LINE
  5
2EB
100
AcDbEntity
  8
handle5
  6
ByLayer
 62
  256
370
   -1
100
AcDbLine
 10
-53.96342869541262
 20
-95.30108003749029
 11
-52.59932103165173
 21
-93.57247515584214
  0
LINE
  5
2EC
100
AcDbEntity
  8
handle5
  6
ByLayer
 62
  256
370
   -1
100
AcDbLine
 10
-41.4372839919574
 20
-97.87781251579906
 11
-36.01932725286538
 21
-109.4610426822428
  0
LINE
  5
2ED
100
AcDbEntity
  8
handle5
  6
ByLayer
 62
  256
370
   -1
100
AcDbLine
 10
-41.7515643284392
 20
-101.7072117257441
 11
-39.42231372200824
 21
-102.1863605818316
  0
LINE
  5
2EE
100
AcDbEntity
  8
handle5
  6
ByLayer
 62
  256
370
   -1
100
AcDbLine
 10
-42.09823450103806
 20
-98.71535131877931
 11
-41.09059247230606
 21
-100.869624482818
  0
LINE
  5
2EF
100
AcDbEntity
  8
handle5
  6
ByLayer
 62
  256
370
   -1
100
AcDbLine
 10
-41.09059247230606
 20
-100.869624482818
 11
-43.63559076202667
 21
-104.0946605883027
  0
LINE
  5
2F0
100
AcDbEntity
  8
handle5
  6
ByLayer
 62
  256
370
   -1
100
AcDbLine
 10
-37.84535429797413
 20
-96.75724046849842
 11
-33.34706840073063
 21
-91.05698735241658
  0
LINE
  5
2F1
100
AcDbEntity
  8
handle5
  6
ByLayer
 62
  256
370
   -1
100
AcDbLine
 10
-38.852990106814
 20
-94.60298081141875
 11
-37.84535429797413
 21
-96.75724046849842
  0
LINE
  5
2F2
100
AcDbEntity
  8
handle5
  6
ByLayer
 62
  256
370
   -1
100
AcDbLine
 10
-28.27580256180808
 20
-99.64840476683044
 11
-30.60540018327083
 21
-99.16918716070532
  0
LINE
  5
2F3
100
AcDbEntity
  8
handle5
  6
ByLayer
 62
  256
370
   -1
100
AcDbLine
 10
-34.00804025686379
 20
-91.89457459534265
 11
-30.60540018327083
 21
-99.16918716070532
  0
LINE
  5
2F4
100
AcDbEntity
  8
handle5
  6
ByLayer
 62
  256
370
   -1
100
AcDbLine
 10
-31.13569149469312
 20
-98.03545949475298
 11
-39.02212451658522
 21
-96.53306320770785
  0
LINE
  5
2F5
100
AcDbEntity
  8
handle5
  6
ByLayer
 62
  256
370
   -1
100
AcDbLine
 10
-40.27241244762804
 20
-98.1174350857367
 11
-39.02212451658522
 21
-96.53306320770785
  0
LINE
  5
2F6
100
AcDbEntity
  8
handle5
  6
ByLayer
 62
  256
370
   -1
100
AcDbLine
 10
-31.13569149469312
 20
-98.03545949475298
 11
-32.47373399286026
 21
-99.73103445238318
  0
LINE
  5
2F7
100
AcDbEntity
  8
handle5
  6
ByLayer
 62
  256
370
   -1
100
AcDbLine
 10
-41.7515643284392
 20
-101.7072117257441
 11
-38.87921556626851
 21
-107.8480966251544
  0
LINE
  5
2F8
100
AcDbEntity
  8
handle5
  6
ByLayer
 62
  256
370
   -1
100
AcDbLine
 10
-36.01932725286538
 20
-109.4610426822428
 11
-37.12297594453362
 21
-109.2340119102743
  0
LINE
  5
2F9
100
AcDbEntity
  8
handle5
  6
ByLayer
 62
  256
370
   -1
100
AcDbLine
 10
-32.47373399286026
 20
-99.73103445238318
 11
-31.43555937805261
 21
-101.9505804450097
  0
LINE
  5
2FA
100
AcDbEntity
  8
handle5
  6
ByLayer
 62
  256
370
   -1
100
AcDbLine
 10
-30.72824361629821
 20
-101.0542659449765
 11
-35.16720142214706
 21
-106.6793381709217
  0
LINE
  5
2FB
100
AcDbEntity
  8
handle5
  6
ByLayer
 62
  256
370
   -1
100
AcDbLine
 10
-40.27241244762804
 20
-98.1174350857367
 11
-39.2342411691169
 21
-100.3369784455651
  0
LINE
  5
2FC
100
AcDbEntity
  8
handle5
  6
ByLayer
 62
  256
370
   -1
100
AcDbLine
 10
-39.4217887798131
 20
-102.1868108203842
 11
-38.14058498502162
 21
-100.563262186432
  0
LINE
  5
2FD
100
AcDbEntity
  8
handle5
  6
ByLayer
 62
  256
370
   -1
100
AcDbLine
 10
-39.2342411691169
 20
-100.3369784455651
 11
-31.43555798421832
 21
-101.9505786787351
  0
LINE
  5
2FE
100
AcDbEntity
  8
handle5
  6
ByLayer
 62
  256
370
   -1
100
AcDbLine
 10
-34.65491670731643
 20
-107.7330850906648
 11
-38.14058498502162
 21
-100.563262186432
  0
LINE
  5
2FF
100
AcDbEntity
  8
handle5
  6
ByLayer
 62
  256
370
   -1
100
AcDbLine
 10
-36.01902437107732
 20
-109.461689972313
 11
-34.65491670731643
 21
-107.7330850906648
  0
LINE
  5
300
100
AcDbEntity
  8
handle5
  6
ByLayer
 62
  256
370
   -1
100
AcDbLine
 10
-33.69375992038198
 20
-88.06517538539765
 11
-46.21920147272466
 21
-85.48858983419794
  0
LINE
  5
301
100
AcDbEntity
  8
handle5
  6
ByLayer
 62
  256
370
   -1
100
AcDbLine
 10
-37.345172391893
 20
-89.26111707783539
 11
-38.35270694565621
 21
-87.10708222741586
  0
LINE
  5
302
100
AcDbEntity
  8
handle5
  6
ByLayer
 62
  256
370
   -1
100
AcDbLine
 10
-34.35469315922199
 20
-88.90272781697972
 11
-36.68420053575986
 21
-88.42352983490932
  0
LINE
  5
303
100
AcDbEntity
  8
handle5
  6
ByLayer
 62
  256
370
   -1
100
AcDbLine
 10
-33.43896236142793
 20
-84.31114582058973
 11
-31.48567537338698
 21
-81.83592959500356
  0
LINE
  5
304
100
AcDbEntity
  8
handle5
  6
ByLayer
 62
  256
370
   -1
100
AcDbLine
 10
-31.10946603523861
 20
-84.79034368101733
 11
-33.43896236142793
 21
-84.31114582058973
  0
LINE
  5
305
100
AcDbEntity
  8
handle5
  6
ByLayer
 62
  256
370
   -1
100
AcDbLine
 10
-34.19763479983051
 20
-86.98792687061491
 11
-39.6297472212847
 21
-75.40913366269993
  0
LINE
  5
306
100
AcDbEntity
  8
handle5
  6
ByLayer
 62
  256
370
   -1
100
AcDbLine
 10
-37.99828999462724
 20
-76.69657842790247
 11
-37.46799472742661
 21
-77.83030794164191
  0
LINE
  5
307
100
AcDbEntity
  8
handle5
  6
ByLayer
 62
  256
370
   -1
100
AcDbLine
 10
-36.24204703659589
 20
-78.08249634582046
 11
-37.46799472742661
 21
-77.83030794164191
  0
LINE
  5
308
100
AcDbEntity
  8
handle5
  6
ByLayer
 62
  256
370
   -1
100
AcDbLine
 10
-36.24204703659589
 20
-78.08249634582046
 11
-32.94734748826959
 21
-85.40355577759701
  0
LINE
  5
309
100
AcDbEntity
  8
handle5
  6
ByLayer
 62
  256
370
   -1
100
AcDbLine
 10
-34.19763479983051
 20
-86.98792687061491
 11
-32.94734748826959
 21
-85.40355577759701
  0
LINE
  5
30A
100
AcDbEntity
  8
handle5
  6
ByLayer
 62
  256
370
   -1
100
AcDbLine
 10
-36.24204703659589
 20
-78.08249634582046
 11
-37.58008814092877
 21
-79.77806953717607
  0
LINE
  5
30B
100
AcDbEntity
  8
handle5
  6
ByLayer
 62
  256
370
   -1
100
AcDbLine
 10
-37.58008814092877
 20
-79.77806953717607
 11
-39.98017919852541
 21
-79.28435129513043
  0
LINE
  5
30C
100
AcDbEntity
  8
handle5
  6
ByLayer
 62
  256
370
   -1
100
AcDbLine
 10
-39.27286328190056
 20
-78.38803659884448
 11
-43.71182124261988
 21
-84.01310902104251
  0
LINE
  5
30D
100
AcDbEntity
  8
handle5
  6
ByLayer
 62
  256
370
   -1
100
AcDbLine
 10
-44.71946162672009
 20
-81.85884830118663
 11
-43.71182124261988
 21
-84.01310902104251
  0
LINE
  5
30E
100
AcDbEntity
  8
handle5
  6
ByLayer
 62
  256
370
   -1
100
AcDbLine
 10
-34.19763479983051
 20
-86.98792687061491
 11
-36.59772155052558
 21
-86.49421043497418
  0
LINE
  5
30F
100
AcDbEntity
  8
handle5
  6
ByLayer
 62
  256
370
   -1
100
AcDbLine
 10
-38.35326688857882
 20
-87.10667634198131
 11
-37.07206371326924
 21
-85.4831284930401
  0
LINE
  5
310
100
AcDbEntity
  8
handle5
  6
ByLayer
 62
  256
370
   -1
100
AcDbLine
 10
-36.59772155052558
 20
-86.49421043497418
 11
-39.98017780469114
 21
-79.28434952885584
  0
LINE
  5
311
100
AcDbEntity
  8
handle5
  6
ByLayer
 62
  256
370
   -1
100
AcDbLine
 10
-44.8557969600763
 20
-83.75983802544073
 11
-37.07206371326924
 21
-85.4831284930401
  0
LINE
  5
312
100
AcDbEntity
  8
handle5
  6
ByLayer
 62
  256
370
   -1
100
AcDbLine
 10
-46.21990477870769
 20
-85.48844310334161
 11
-44.8557969600763
 21
-83.75983802544073
  0
LINE
  5
313
100
AcDbEntity
  8
handle5
  6
ByLayer
 62
  256
370
   -1
100
AcDbLine
 10
-33.69375992038198
 20
-88.06517538539765
 11
-28.27580333616046
 21
-99.64840574809409
  0
LINE
  5
314
100
AcDbEntity
  8
handle5
  6
ByLayer
 62
  256
370
   -1
100
AcDbLine
 10
-34.00804025686379
 20
-91.89457459534265
 11
-31.67878965043282
 21
-92.37372345143019
  0
LINE
  5
315
100
AcDbEntity
  8
handle5
  6
ByLayer
 62
  256
370
   -1
100
AcDbLine
 10
-34.35471042946264
 20
-88.9027141883779
 11
-33.34706840073063
 21
-91.05698735241658
  0
LINE
  5
316
100
AcDbEntity
  8
handle5
  6
ByLayer
 62
  256
370
   -1
100
AcDbLine
 10
-30.10183022639871
 20
-86.944603338097
 11
-28.14854323835777
 21
-84.46938711251083
  0
LINE
  5
317
100
AcDbEntity
  8
handle5
  6
ByLayer
 62
  256
370
   -1
100
AcDbLine
 10
-31.10946603523861
 20
-84.79034368101733
 11
-30.10183022639871
 21
-86.944603338097
  0
LINE
  5
318
100
AcDbEntity
  8
handle5
  6
ByLayer
 62
  256
370
   -1
100
AcDbLine
 10
-32.52888837605263
 20
-88.30479795533529
 11
-20.0044717829655
 21
-90.89618273507357
  0
LINE
  5
319
100
AcDbEntity
  8
handle5
  6
ByLayer
 62
  256
370
   -1
100
AcDbLine
 10
-21.63592842086471
 20
-89.60873843448243
 11
-22.86187611169543
 21
-89.35655003030389
  0
LINE
  5
31A
100
AcDbEntity
  8
handle5
  6
ByLayer
 62
  256
370
   -1
100
AcDbLine
 10
-23.39216804259962
 20
-88.22282314936251
 11
-22.86187611169543
 21
-89.35655003030389
  0
LINE
  5
31B
100
AcDbEntity
  8
handle5
  6
ByLayer
 62
  256
370
   -1
100
AcDbLine
 10
-23.39216804259962
 20
-88.22282314936251
 11
-31.27860106449172
 21
-86.7204268623174
  0
LINE
  5
31C
100
AcDbEntity
  8
handle5
  6
ByLayer
 62
  256
370
   -1
100
AcDbLine
 10
-32.52888837605263
 20
-88.30479795533529
 11
-31.27860106449172
 21
-86.7204268623174
  0
LINE
  5
31D
100
AcDbEntity
  8
handle5
  6
ByLayer
 62
  256
370
   -1
100
AcDbLine
 10
-23.39216804259962
 20
-88.22282314936251
 11
-24.73020914693248
 21
-89.91839634071812
  0
LINE
  5
31E
100
AcDbEntity
  8
handle5
  6
ByLayer
 62
  256
370
   -1
100
AcDbLine
 10
-24.73020914693248
 20
-89.91839634071812
 11
-23.69203530647721
 21
-92.13794331460826
  0
LINE
  5
31F
100
AcDbEntity
  8
handle5
  6
ByLayer
 62
  256
370
   -1
100
AcDbLine
 10
-20.67955226410892
 20
-91.71582017992611
 11
-22.98471938985233
 21
-91.24162861832231
  0
LINE
  5
320
100
AcDbEntity
  8
handle5
  6
ByLayer
 62
  256
370
   -1
100
AcDbLine
 10
-22.98471938985233
 20
-91.24162861832231
 11
-27.42367735057165
 21
-96.86670104052033
  0
LINE
  5
321
100
AcDbEntity
  8
handle5
  6
ByLayer
 62
  256
370
   -1
100
AcDbLine
 10
-25.09418618840088
 20
-97.34589737356029
 11
-27.42367735057165
 21
-96.86670104052033
  0
LINE
  5
322
100
AcDbEntity
  8
handle5
  6
ByLayer
 62
  256
370
   -1
100
AcDbLine
 10
-32.52888837605263
 20
-88.30479795533529
 11
-31.49071709754149
 21
-90.5243413151637
  0
LINE
  5
323
100
AcDbEntity
  8
handle5
  6
ByLayer
 62
  256
370
   -1
100
AcDbLine
 10
-31.67826470823769
 20
-92.37417368998274
 11
-30.39706153292812
 21
-90.75062584104153
  0
LINE
  5
324
100
AcDbEntity
  8
handle5
  6
ByLayer
 62
  256
370
   -1
100
AcDbLine
 10
-31.49071709754149
 20
-90.5243413151637
 11
-23.69203391264292
 21
-92.13794154833366
  0
LINE
  5
325
100
AcDbEntity
  8
handle5
  6
ByLayer
 62
  256
370
   -1
100
AcDbLine
 10
-26.91139263574103
 20
-97.92044796026342
 11
-30.39706153292812
 21
-90.75062584104153
  0
LINE
  5
326
100
AcDbEntity
  8
handle5
  6
ByLayer
 62
  256
370
   -1
100
AcDbLine
 10
-28.27550045437239
 20
-99.64905303816428
 11
-26.91139263574103
 21
-97.92044796026342
  0
LINE
  5
327
100
AcDbEntity
  8
handle5
  6
ByLayer
 62
  256
370
   -1
100
AcDbLine
 10
-39.6297472212847
 20
-75.40913366269993
 11
-55.11679474495361
 21
-95.0344071384918
  0
LINE
  5
328
100
AcDbEntity
  8
handle5
  6
ByLayer
 62
  256
370
   -1
100
AcDbLine
 10
-28.39875106029315
 20
-101.5334605117418
 11
-30.72824361629821
 21
-101.0542659449765
  0
LINE
  5
329
100
AcDbEntity
  8
handle5
  6
ByLayer
 62
  256
370
   -1
100
AcDbLine
 10
-40.27241244762804
 20
-98.1174350857367
 11
-27.747995235059
 21
-100.708819080464
  0
LINE
  5
32A
100
AcDbEntity
  8
handle5
  6
ByLayer
 62
  256
370
   -1
100
AcDbLine
 10
-32.83771025997628
 20
-107.1585345039617
 11
-35.16720142214706
 21
-106.6793381709217
  0
LINE
  5
32B
100
AcDbEntity
  8
handle5
  6
ByLayer
 62
  256
370
   -1
100
AcDbLine
 10
-40.28050103320267
 20
-76.23377254269209
 11
-39.27286328190056
 21
-78.38803659884448
  0
LINE
  5
32C
100
AcDbEntity
  8
handle5
  6
ByLayer
 62
  256
370
   -1
100
AcDbLine
 10
-52.46298554342502
 20
-91.67148523533531
 11
-51.45534562393622
 21
-93.82574654394939
  0
LINE
  5
32D
100
AcDbEntity
  8
handle5
  6
ByLayer
 62
  256
370
   -1
100
AcDbLine
 10
-25.95023646828849
 20
-78.25253904000718
 11
-38.47567786576067
 21
-75.67595329255474
  0
LINE
  5
32E
100
AcDbEntity
  8
handle5
  6
ByLayer
 62
  256
370
   -1
100
AcDbLine
 10
-29.60164893979949
 20
-79.44848073244492
 11
-30.60918349356271
 21
-77.29444588202539
  0
LINE
  5
32F
100
AcDbEntity
  8
handle5
  6
ByLayer
 62
  256
370
   -1
100
AcDbLine
 10
-26.61116970712849
 20
-79.09009147158926
 11
-28.94067708366635
 21
-78.61089348951884
  0
LINE
  5
330
100
AcDbEntity
  8
handle5
  6
ByLayer
 62
  256
370
   -1
100
AcDbLine
 10
-28.94067708366635
 20
-78.61089348951884
 11
-31.48567537338698
 21
-81.83592959500356
  0
LINE
  5
331
100
AcDbEntity
  8
handle5
  6
ByLayer
 62
  256
370
   -1
100
AcDbLine
 10
-14.33006001592883
 20
-63.52738627179961
 11
-29.81710753959773
 21
-83.1526597475915
  0
LINE
  5
332
100
AcDbEntity
  8
handle5
  6
ByLayer
 62
  256
370
   -1
100
AcDbLine
 10
-25.69543890933442
 20
-74.49850947519928
 11
-21.19715301209093
 21
-68.79825635911743
  0
LINE
  5
333
100
AcDbEntity
  8
handle5
  6
ByLayer
 62
  256
370
   -1
100
AcDbLine
 10
-23.3659425831451
 20
-74.97770733562686
 11
-25.69543890933442
 21
-74.49850947519928
  0
LINE
  5
334
100
AcDbEntity
  8
handle5
  6
ByLayer
 62
  256
370
   -1
100
AcDbLine
 10
-26.454111347737
 20
-77.17529052522444
 11
-31.88622314970929
 21
-65.5964965322985
  0
LINE
  5
335
100
AcDbEntity
  8
handle5
  6
ByLayer
 62
  256
370
   -1
100
AcDbLine
 10
-30.73215394905574
 20
-65.86331635840607
 11
-29.72447127533311
 21
-68.01767159625145
  0
LINE
  5
336
100
AcDbEntity
  8
handle5
  6
ByLayer
 62
  256
370
   -1
100
AcDbLine
 10
-21.85812486822408
 20
-69.63584360204351
 11
-29.72447127533311
 21
-68.01767159625145
  0
LINE
  5
337
100
AcDbEntity
  8
handle5
  6
ByLayer
 62
  256
370
   -1
100
AcDbLine
 10
-28.49852296502049
 20
-68.26985921541905
 11
-25.20382341669418
 21
-75.59091864719559
  0
LINE
  5
338
100
AcDbEntity
  8
handle5
  6
ByLayer
 62
  256
370
   -1
100
AcDbLine
 10
-26.454111347737
 20
-77.17529052522444
 11
-25.20382341669418
 21
-75.59091864719559
  0
LINE
  5
339
100
AcDbEntity
  8
handle5
  6
ByLayer
 62
  256
370
   -1
100
AcDbLine
 10
-28.49852296502049
 20
-68.26985921541905
 11
-29.83656546318762
 21
-69.96543417304926
  0
LINE
  5
33A
100
AcDbEntity
  8
handle5
  6
ByLayer
 62
  256
370
   -1
100
AcDbLine
 10
-29.60164893979949
 20
-79.44848073244492
 11
-36.24204703659589
 21
-78.08249634582046
  0
LINE
  5
33B
100
AcDbEntity
  8
handle5
  6
ByLayer
 62
  256
370
   -1
100
AcDbLine
 10
-38.47567786576067
 20
-75.67595329255474
 11
-37.99828999462724
 21
-76.69657842790247
  0
LINE
  5
33C
100
AcDbEntity
  8
handle5
  6
ByLayer
 62
  256
370
   -1
100
AcDbLine
 10
-29.83656546318762
 20
-69.96543417304926
 11
-32.23665574643191
 21
-69.47171494973996
  0
LINE
  5
33D
100
AcDbEntity
  8
handle5
  6
ByLayer
 62
  256
370
   -1
100
AcDbLine
 10
-32.52645368969634
 20
-66.4436366611545
 11
-31.52933998467752
 21
-68.57540044970675
  0
LINE
  5
33E
100
AcDbEntity
  8
handle5
  6
ByLayer
 62
  256
370
   -1
100
AcDbLine
 10
-31.52933998467752
 20
-68.57540044970675
 11
-35.96829810026733
 21
-74.20047306815749
  0
LINE
  5
33F
100
AcDbEntity
  8
handle5
  6
ByLayer
 62
  256
370
   -1
100
AcDbLine
 10
-26.454111347737
 20
-77.17529052522444
 11
-28.85419809843206
 21
-76.68157408958371
  0
LINE
  5
340
100
AcDbEntity
  8
handle5
  6
ByLayer
 62
  256
370
   -1
100
AcDbLine
 10
-30.60974343648529
 20
-77.29403999659084
 11
-29.32853964169383
 21
-75.67049136263867
  0
LINE
  5
341
100
AcDbEntity
  8
handle5
  6
ByLayer
 62
  256
370
   -1
100
AcDbLine
 10
-28.85419809843206
 20
-76.68157408958371
 11
-32.23665435259763
 21
-69.47171318346535
  0
LINE
  5
342
100
AcDbEntity
  8
handle5
  6
ByLayer
 62
  256
370
   -1
100
AcDbLine
 10
-37.11227350798281
 20
-73.94720168005026
 11
-29.32853964169383
 21
-75.67049136263867
  0
LINE
  5
343
100
AcDbEntity
  8
handle5
  6
ByLayer
 62
  256
370
   -1
100
AcDbLine
 10
-38.4763811717437
 20
-75.67580656169841
 11
-37.11227350798281
 21
-73.94720168005026
  0
LINE
  5
344
100
AcDbEntity
  8
handle5
  6
ByLayer
 62
  256
370
   -1
100
AcDbLine
 10
-25.95023646828849
 20
-78.25253904000718
 11
-20.53227972919646
 21
-89.83576920645089
  0
LINE
  5
345
100
AcDbEntity
  8
handle5
  6
ByLayer
 62
  256
370
   -1
100
AcDbLine
 10
-26.26451680477028
 20
-82.08193824995219
 11
-23.93526619833932
 21
-82.56108710603972
  0
LINE
  5
346
100
AcDbEntity
  8
handle5
  6
ByLayer
 62
  256
370
   -1
100
AcDbLine
 10
-26.61118697736915
 20
-79.09007784298744
 11
-25.60354494863713
 21
-81.24435100702613
  0
LINE
  5
347
100
AcDbEntity
  8
handle5
  6
ByLayer
 62
  256
370
   -1
100
AcDbLine
 10
-25.60354494863713
 20
-81.24435100702613
 11
-28.14854323835777
 21
-84.46938711251083
  0
LINE
  5
348
100
AcDbEntity
  8
handle5
  6
ByLayer
 62
  256
370
   -1
100
AcDbLine
 10
-22.35830677430521
 20
-77.13196699270654
 11
-17.86002087706173
 21
-71.4317138766247
  0
LINE
  5
349
100
AcDbEntity
  8
handle5
  6
ByLayer
 62
  256
370
   -1
100
AcDbLine
 10
-23.3659425831451
 20
-74.97770733562686
 11
-22.35830677430521
 21
-77.13196699270654
  0
LINE
  5
34A
100
AcDbEntity
  8
handle5
  6
ByLayer
 62
  256
370
   -1
100
AcDbLine
 10
-18.52099273319488
 20
-72.26930111955076
 11
-15.11835265960192
 21
-79.54391368491343
  0
LINE
  5
34B
100
AcDbEntity
  8
handle5
  6
ByLayer
 62
  256
370
   -1
100
AcDbLine
 10
-15.64864397102421
 20
-78.4101860189611
 11
-23.53507699291631
 21
-76.90778973191597
  0
LINE
  5
34C
100
AcDbEntity
  8
handle5
  6
ByLayer
 62
  256
370
   -1
100
AcDbLine
 10
-24.78536492395913
 20
-78.49216160994482
 11
-23.53507699291631
 21
-76.90778973191597
  0
LINE
  5
34D
100
AcDbEntity
  8
handle5
  6
ByLayer
 62
  256
370
   -1
100
AcDbLine
 10
-15.64864397102421
 20
-78.4101860189611
 11
-16.98668646919134
 21
-80.10576097659128
  0
LINE
  5
34E
100
AcDbEntity
  8
handle5
  6
ByLayer
 62
  256
370
   -1
100
AcDbLine
 10
-26.26451680477028
 20
-82.08193824995219
 11
-23.39216804259962
 21
-88.22282314936251
  0
LINE
  5
34F
100
AcDbEntity
  8
handle5
  6
ByLayer
 62
  256
370
   -1
100
AcDbLine
 10
-20.53227972919646
 20
-89.83576920645089
 11
-21.63592842086471
 21
-89.60873843448243
  0
LINE
  5
350
100
AcDbEntity
  8
handle5
  6
ByLayer
 62
  256
370
   -1
100
AcDbLine
 10
-16.98668646919134
 20
-80.10576097659128
 11
-15.94851185438369
 21
-82.32530696921779
  0
LINE
  5
351
100
AcDbEntity
  8
handle5
  6
ByLayer
 62
  256
370
   -1
100
AcDbLine
 10
-15.24119609262929
 20
-81.42899246918458
 11
-19.68015389847814
 21
-87.05406469512985
  0
LINE
  5
352
100
AcDbEntity
  8
handle5
  6
ByLayer
 62
  256
370
   -1
100
AcDbLine
 10
-24.78536492395913
 20
-78.49216160994482
 11
-23.74719364544799
 21
-80.71170496977322
  0
LINE
  5
353
100
AcDbEntity
  8
handle5
  6
ByLayer
 62
  256
370
   -1
100
AcDbLine
 10
-23.93474125614419
 20
-82.56153734459227
 11
-22.65353746135272
 21
-80.93798871064011
  0
LINE
  5
354
100
AcDbEntity
  8
handle5
  6
ByLayer
 62
  256
370
   -1
100
AcDbLine
 10
-23.74719364544799
 20
-80.71170496977322
 11
-15.94851046054942
 21
-82.32530520294318
  0
LINE
  5
355
100
AcDbEntity
  8
handle5
  6
ByLayer
 62
  256
370
   -1
100
AcDbLine
 10
-19.16786918364752
 20
-88.10781161487293
 11
-22.65353746135272
 21
-80.93798871064011
  0
LINE
  5
356
100
AcDbEntity
  8
handle5
  6
ByLayer
 62
  256
370
   -1
100
AcDbLine
 10
-20.53197684740841
 20
-89.8364164965211
 11
-19.16786918364752
 21
-88.10781161487293
  0
LINE
  5
357
100
AcDbEntity
  8
handle5
  6
ByLayer
 62
  256
370
   -1
100
AcDbLine
 10
-18.20671239671308
 20
-68.43990190960577
 11
-30.73215394905574
 21
-65.86331635840607
  0
LINE
  5
358
100
AcDbEntity
  8
handle5
  6
ByLayer
 62
  256
370
   -1
100
AcDbLine
 10
-21.85812486822408
 20
-69.63584360204351
 11
-22.86565942198731
 21
-67.48180875162399
  0
LINE
  5
359
100
AcDbEntity
  8
handle5
  6
ByLayer
 62
  256
370
   -1
100
AcDbLine
 10
-18.86764563555307
 20
-69.27745434118783
 11
-21.19715301209093
 21
-68.79825635911743
  0
LINE
  5
35A
100
AcDbEntity
  8
handle5
  6
ByLayer
 62
  256
370
   -1
100
AcDbLine
 10
-17.95191483775901
 20
-64.68587234479786
 11
-15.99862784971807
 21
-62.21065611921168
  0
LINE
  5
35B
100
AcDbEntity
  8
handle5
  6
ByLayer
 62
  256
370
   -1
100
AcDbLine
 10
-15.62241851156969
 20
-65.16507020522545
 11
-17.95191483775901
 21
-64.68587234479786
  0
LINE
  5
35C
100
AcDbEntity
  8
handle5
  6
ByLayer
 62
  256
370
   -1
100
AcDbLine
 10
-18.71058727616159
 20
-67.36265339482304
 11
-24.14269969761579
 21
-55.78386018690803
  0
LINE
  5
35D
100
AcDbEntity
  8
handle5
  6
ByLayer
 62
  256
370
   -1
100
AcDbLine
 10
-22.51124247095834
 20
-57.07130495211058
 11
-21.9809472037577
 21
-58.20503446585003
  0
LINE
  5
35E
100
AcDbEntity
  8
handle5
  6
ByLayer
 62
  256
370
   -1
100
AcDbLine
 10
-20.75499951292698
 20
-58.45722287002857
 11
-21.9809472037577
 21
-58.20503446585003
  0
LINE
  5
35F
100
AcDbEntity
  8
handle5
  6
ByLayer
 62
  256
370
   -1
100
AcDbLine
 10
-20.75499951292698
 20
-58.45722287002857
 11
-17.46029996460067
 21
-65.77828230180513
  0
LINE
  5
360
100
AcDbEntity
  8
handle5
  6
ByLayer
 62
  256
370
   -1
100
AcDbLine
 10
-18.71058727616159
 20
-67.36265339482304
 11
-17.46029996460067
 21
-65.77828230180513
  0
LINE
  5
361
100
AcDbEntity
  8
handle5
  6
ByLayer
 62
  256
370
   -1
100
AcDbLine
 10
-20.75499951292698
 20
-58.45722287002857
 11
-22.09304061725984
 21
-60.15279606138416
  0
LINE
  5
362
100
AcDbEntity
  8
handle5
  6
ByLayer
 62
  256
370
   -1
100
AcDbLine
 10
-22.09304061725984
 20
-60.15279606138416
 11
-24.4931316748565
 21
-59.65907781933856
  0
LINE
  5
363
100
AcDbEntity
  8
handle5
  6
ByLayer
 62
  256
370
   -1
100
AcDbLine
 10
-23.78581575823164
 20
-58.76276312305259
 11
-28.22477371895095
 21
-64.38783554525061
  0
LINE
  5
364
100
AcDbEntity
  8
handle5
  6
ByLayer
 62
  256
370
   -1
100
AcDbLine
 10
-29.23241410305117
 20
-62.23357482539475
 11
-28.22477371895095
 21
-64.38783554525061
  0
LINE
  5
365
100
AcDbEntity
  8
handle5
  6
ByLayer
 62
  256
370
   -1
100
AcDbLine
 10
-18.71058727616159
 20
-67.36265339482304
 11
-21.11067402685666
 21
-66.86893695918229
  0
LINE
  5
366
100
AcDbEntity
  8
handle5
  6
ByLayer
 62
  256
370
   -1
100
AcDbLine
 10
-22.86621936490989
 20
-67.48140286618944
 11
-21.58501618960033
 21
-65.85785501724823
  0
LINE
  5
367
100
AcDbEntity
  8
handle5
  6
ByLayer
 62
  256
370
   -1
100
AcDbLine
 10
-21.11067402685666
 20
-66.86893695918229
 11
-24.49313028102223
 21
-59.65907605306396
  0
LINE
  5
368
100
AcDbEntity
  8
handle5
  6
ByLayer
 62
  256
370
   -1
100
AcDbLine
 10
-29.3687494364074
 20
-64.13456454964884
 11
-21.58501618960033
 21
-65.85785501724823
  0
LINE
  5
369
100
AcDbEntity
  8
handle5
  6
ByLayer
 62
  256
370
   -1
100
AcDbLine
 10
-30.73285725503877
 20
-65.86316962754974
 11
-29.3687494364074
 21
-64.13456454964884
  0
LINE
  5
36A
100
AcDbEntity
  8
handle5
  6
ByLayer
 62
  256
370
   -1
100
AcDbLine
 10
-18.52099273319488
 20
-72.26930111955076
 11
-16.19174212676392
 21
-72.74844997563829
  0
LINE
  5
36B
100
AcDbEntity
  8
handle5
  6
ByLayer
 62
  256
370
   -1
100
AcDbLine
 10
-18.86766290579373
 20
-69.27744071258601
 11
-17.86002087706173
 21
-71.4317138766247
  0
LINE
  5
36C
100
AcDbEntity
  8
handle5
  6
ByLayer
 62
  256
370
   -1
100
AcDbLine
 10
-14.6147827027298
 20
-67.31932986230512
 11
-12.66149571468885
 21
-64.84411363671896
  0
LINE
  5
36D
100
AcDbEntity
  8
handle5
  6
ByLayer
 62
  256
370
   -1
100
AcDbLine
 10
-15.62241851156969
 20
-65.16507020522545
 11
-14.6147827027298
 21
-67.31932986230512
  0
LINE
  5
36E
100
AcDbEntity
  8
handle5
  6
ByLayer
 62
  256
370
   -1
100
AcDbLine
 10
-17.04184085238373
 20
-68.67952447954342
 11
-15.79155354082281
 21
-67.09515338652551
  0
LINE
  5
36F
100
AcDbEntity
  8
handle5
  6
ByLayer
 62
  256
370
   -1
100
AcDbLine
 10
-17.04184085238373
 20
-68.67952447954342
 11
-16.00366957387258
 21
-70.89906783937181
  0
LINE
  5
370
100
AcDbEntity
  8
handle5
  6
ByLayer
 62
  256
370
   -1
100
AcDbLine
 10
-16.19121718456878
 20
-72.74890021419087
 11
-14.91001400925921
 21
-71.12535236524963
  0
LINE
  5
371
100
AcDbEntity
  8
handle5
  6
ByLayer
 62
  256
370
   -1
100
AcDbLine
 10
-24.14269969761579
 20
-55.78386018690803
 11
-39.6297472212847
 21
-75.40913366269993
  0
LINE
  5
372
100
AcDbEntity
  8
handle5
  6
ByLayer
 62
  256
370
   -1
100
AcDbLine
 10
-17.35066273630737
 20
-87.5332610281698
 11
-19.68015389847814
 21
-87.05406469512985
  0
LINE
  5
373
100
AcDbEntity
  8
handle5
  6
ByLayer
 62
  256
370
   -1
100
AcDbLine
 10
-24.79345350953376
 20
-56.60849906690022
 11
-23.78581575823164
 21
-58.76276312305259
  0
LINE
  5
374
100
AcDbEntity
  8
handle5
  6
ByLayer
 62
  256
370
   -1
100
AcDbLine
 10
-36.97593801975609
 20
-72.04621175954343
 11
-35.96829810026733
 21
-74.20047306815749
  0
LINE
  5
375
100
AcDbEntity
  8
handle5
  6
ByLayer
 62
  256
370
   -1
100
AcDbLine
 10
-10.46318894461958
 20
-58.6272655642153
 11
-22.98863034209176
 21
-56.05067981676285
  0
LINE
  5
376
100
AcDbEntity
  8
handle5
  6
ByLayer
 62
  256
370
   -1
100
AcDbLine
 10
-14.11460141613058
 20
-59.82320725665303
 11
-15.1221359698938
 21
-57.66917240623351
  0
LINE
  5
377
100
AcDbEntity
  8
handle5
  6
ByLayer
 62
  256
370
   -1
100
AcDbLine
 10
-11.12412218345957
 20
-59.46481799579738
 11
-13.45362955999743
 21
-58.98562001372697
  0
LINE
  5
378
100
AcDbEntity
  8
handle5
  6
ByLayer
 62
  256
370
   -1
100
AcDbLine
 10
-13.45362955999743
 20
-58.98562001372697
 11
-15.99862784971807
 21
-62.21065611921168
  0
LINE
  5
379
100
AcDbEntity
  8
handle5
  6
ByLayer
 62
  256
370
   -1
100
AcDbLine
 10
-10.2083913856655
 20
-54.87323599940738
 11
-5.710105488422027
 21
-49.17298288332557
  0
LINE
  5
37A
100
AcDbEntity
  8
handle5
  6
ByLayer
 62
  256
370
   -1
100
AcDbLine
 10
-7.878895059476189
 20
-55.35243385983497
 11
-10.2083913856655
 21
-54.87323599940738
  0
LINE
  5
37B
100
AcDbEntity
  8
handle5
  6
ByLayer
 62
  256
370
   -1
100
AcDbLine
 10
-10.96706382406808
 20
-57.55001704943256
 11
-16.39917562604038
 21
-45.97122305650662
  0
LINE
  5
37C
100
AcDbEntity
  8
handle5
  6
ByLayer
 62
  256
370
   -1
100
AcDbLine
 10
-15.24510642538683
 20
-46.23804288261419
 11
-14.2374237516642
 21
-48.39239812045955
  0
LINE
  5
37D
100
AcDbEntity
  8
handle5
  6
ByLayer
 62
  256
370
   -1
100
AcDbLine
 10
-6.371077344555165
 20
-50.01057012625162
 11
-14.2374237516642
 21
-48.39239812045955
  0
LINE
  5
37E
100
AcDbEntity
  8
handle5
  6
ByLayer
 62
  256
370
   -1
100
AcDbLine
 10
-13.01147544135157
 20
-48.64458573962717
 11
-9.716775893025257
 21
-55.9656451714037
  0
LINE
  5
37F
100
AcDbEntity
  8
handle5
  6
ByLayer
 62
  256
370
   -1
100
AcDbLine
 10
-10.96706382406808
 20
-57.55001704943256
 11
-9.716775893025257
 21
-55.9656451714037
  0
LINE
  5
380
100
AcDbEntity
  8
handle5
  6
ByLayer
 62
  256
370
   -1
100
AcDbLine
 10
-13.01147544135157
 20
-48.64458573962717
 11
-14.34951793951871
 21
-50.34016069725737
  0
LINE
  5
381
100
AcDbEntity
  8
handle5
  6
ByLayer
 62
  256
370
   -1
100
AcDbLine
 10
-14.11460141613058
 20
-59.82320725665303
 11
-20.75499951292698
 21
-58.45722287002857
  0
LINE
  5
382
100
AcDbEntity
  8
handle5
  6
ByLayer
 62
  256
370
   -1
100
AcDbLine
 10
-22.98863034209176
 20
-56.05067981676285
 11
-22.51124247095834
 21
-57.07130495211058
  0
LINE
  5
383
100
AcDbEntity
  8
handle5
  6
ByLayer
 62
  256
370
   -1
100
AcDbLine
 10
-14.34951793951871
 20
-50.34016069725737
 11
-16.74960822276299
 21
-49.84644147394808
  0
LINE
  5
384
100
AcDbEntity
  8
handle5
  6
ByLayer
 62
  256
370
   -1
100
AcDbLine
 10
-17.03940616602743
 20
-46.81836318536261
 11
-16.0422924610086
 21
-48.95012697391487
  0
LINE
  5
385
100
AcDbEntity
  8
handle5
  6
ByLayer
 62
  256
370
   -1
100
AcDbLine
 10
-16.0422924610086
 20
-48.95012697391487
 11
-20.48125057659841
 21
-54.57519959236562
  0
LINE
  5
386
100
AcDbEntity
  8
handle5
  6
ByLayer
 62
  256
370
   -1
100
AcDbLine
 10
-10.96706382406808
 20
-57.55001704943256
 11
-13.36715057476315
 21
-57.05630061379182
  0
LINE
  5
387
100
AcDbEntity
  8
handle5
  6
ByLayer
 62
  256
370
   -1
100
AcDbLine
 10
-15.12269591281639
 20
-57.66876652079896
 11
-13.84149211802491
 21
-56.0452178868468
  0
LINE
  5
388
100
AcDbEntity
  8
handle5
  6
ByLayer
 62
  256
370
   -1
100
AcDbLine
 10
-13.36715057476315
 20
-57.05630061379182
 11
-16.74960682892872
 21
-49.84643970767348
  0
LINE
  5
389
100
AcDbEntity
  8
handle5
  6
ByLayer
 62
  256
370
   -1
100
AcDbLine
 10
-21.62522598431389
 20
-54.32192820425837
 11
-13.84149211802491
 21
-56.0452178868468
  0
LINE
  5
38A
100
AcDbEntity
  8
handle5
  6
ByLayer
 62
  256
370
   -1
100
AcDbLine
 10
-22.98933364807479
 20
-56.05053308590652
 11
-21.62522598431389
 21
-54.32192820425837
  0
LINE
  5
38B
100
AcDbEntity
  8
handle5
  6
ByLayer
 62
  256
370
   -1
100
AcDbLine
 10
-10.77746928110137
 20
-62.45666477416029
 11
-8.448218674670411
 21
-62.93581363024784
  0
LINE
  5
38C
100
AcDbEntity
  8
handle5
  6
ByLayer
 62
  256
370
   -1
100
AcDbLine
 10
-11.12413945370024
 20
-59.46480436719555
 11
-10.11649742496822
 21
-61.61907753123423
  0
LINE
  5
38D
100
AcDbEntity
  8
handle5
  6
ByLayer
 62
  256
370
   -1
100
AcDbLine
 10
-10.11649742496822
 20
-61.61907753123423
 11
-12.66149571468885
 21
-64.84411363671896
  0
LINE
  5
38E
100
AcDbEntity
  8
handle5
  6
ByLayer
 62
  256
370
   -1
100
AcDbLine
 10
-7.878895059476189
 20
-55.35243385983497
 11
-6.871259250636292
 21
-57.50669351691464
  0
LINE
  5
38F
100
AcDbEntity
  8
handle5
  6
ByLayer
 62
  256
370
   -1
100
AcDbLine
 10
-9.298317400290223
 20
-58.86688813415294
 11
-8.048029469247396
 21
-57.2825162561241
  0
LINE
  5
390
100
AcDbEntity
  8
handle5
  6
ByLayer
 62
  256
370
   -1
100
AcDbLine
 10
-9.298317400290223
 20
-58.86688813415294
 11
-8.260146121779069
 21
-61.08643149398135
  0
LINE
  5
391
100
AcDbEntity
  8
handle5
  6
ByLayer
 62
  256
370
   -1
100
AcDbLine
 10
-6.371077344555165
 20
-50.01057012625162
 11
-7.378611898318393
 21
-47.85653527583209
  0
LINE
  5
392
100
AcDbEntity
  8
handle5
  6
ByLayer
 62
  256
370
   -1
100
AcDbLine
 10
-13.74536657938225
 20
-42.60830134960287
 11
-12.73772619528205
 21
-44.76256206945874
  0
LINE
  5
393
100
AcDbEntity
  8
handle5
  6
ByLayer
 62
  256
370
   -1
100
AcDbLine
 10
-7.379171841240975
 20
-47.85612939039756
 11
-6.097968665931411
 21
-46.23258154145633
  0
LINE
  5
394
100
AcDbEntity
  8
handle5
  6
ByLayer
 62
  256
370
   -1
100
AcDbLine
 10
-13.88170191273848
 20
-44.50929107385696
 11
-6.097968665931411
 21
-46.23258154145633
  0
LINE
  5
395
100
AcDbEntity
  8
handle5
  6
ByLayer
 62
  256
370
   -1
100
AcDbLine
 10
-15.24580973136986
 20
-46.23789615175786
 11
-13.88170191273848
 21
-44.50929107385696
  0
LINE
  5
396
100
AcDbEntity
  8
handle5
  6
ByLayer
 62
  256
370
   -1
100
AcDbLine
 10
-21.48889049608718
 20
-52.42093828375154
 11
-20.48125057659841
 21
-54.57519959236562
  0
LINE
  5
397
100
AcDbEntity
  8
handle5
  6
ByLayer
 62
  256
370
   -1
100
AcDbLine
 10
-33.86006207997698
 20
-111.808900976068
 11
-33.32976681277627
 21
-112.9426304898075
  0
LINE
  5
398
100
AcDbEntity
  8
handle5
  6
ByLayer
 62
  256
370
   -1
100
AcDbLine
 10
-32.10381912194556
 20
-113.194818893986
 11
-33.32976681277627
 21
-112.9426304898075
  0
LINE
  5
399
100
AcDbEntity
  8
handle5
  6
ByLayer
 62
  256
370
   -1
100
AcDbLine
 10
-21.81200855363819
 20
-113.3648615881727
 11
-34.33744995111033
 21
-110.7882758407203
  0
LINE
  5
39A
100
AcDbEntity
  8
handle5
  6
ByLayer
 62
  256
370
   -1
100
AcDbLine
 10
-25.46342102514918
 20
-114.5608032806105
 11
-26.47095557891241
 21
-112.4067684301909
  0
LINE
  5
39B
100
AcDbEntity
  8
handle5
  6
ByLayer
 62
  256
370
   -1
100
AcDbLine
 10
-22.47294179247818
 20
-114.2024140197548
 11
-24.80244916901604
 21
-113.7232160376844
  0
LINE
  5
39C
100
AcDbEntity
  8
handle5
  6
ByLayer
 62
  256
370
   -1
100
AcDbLine
 10
-19.22771466849479
 20
-110.0900298837924
 11
-21.5572109946841
 21
-109.6108320233648
  0
LINE
  5
39D
100
AcDbEntity
  8
handle5
  6
ByLayer
 62
  256
370
   -1
100
AcDbLine
 10
-22.31588343308669
 20
-112.28761307339
 11
-27.747995235059
 21
-100.708819080464
  0
LINE
  5
39E
100
AcDbEntity
  8
handle5
  6
ByLayer
 62
  256
370
   -1
100
AcDbLine
 10
-26.59392603440541
 20
-100.9756389065716
 11
-25.58624336068278
 21
-103.129994144417
  0
LINE
  5
39F
100
AcDbEntity
  8
handle5
  6
ByLayer
 62
  256
370
   -1
100
AcDbLine
 10
-24.36029505037016
 20
-103.3821817635846
 11
-21.06559550204387
 21
-110.7032411953611
  0
LINE
  5
3A0
100
AcDbEntity
  8
handle5
  6
ByLayer
 62
  256
370
   -1
100
AcDbLine
 10
-22.31588343308669
 20
-112.28761307339
 11
-21.06559550204387
 21
-110.7032411953611
  0
LINE
  5
3A1
100
AcDbEntity
  8
handle5
  6
ByLayer
 62
  256
370
   -1
100
AcDbLine
 10
-24.36029505037016
 20
-103.3821817635846
 11
-25.69833754853729
 21
-105.0777567212148
  0
LINE
  5
3A2
100
AcDbEntity
  8
handle5
  6
ByLayer
 62
  256
370
   -1
100
AcDbLine
 10
-25.46342102514918
 20
-114.5608032806105
 11
-32.10381912194556
 21
-113.194818893986
  0
LINE
  5
3A3
100
AcDbEntity
  8
handle5
  6
ByLayer
 62
  256
370
   -1
100
AcDbLine
 10
-34.33744995111033
 20
-110.7882758407203
 11
-33.86006207997698
 21
-111.808900976068
  0
LINE
  5
3A4
100
AcDbEntity
  8
handle5
  6
ByLayer
 62
  256
370
   -1
100
AcDbLine
 10
-25.69833754853729
 20
-105.0777567212148
 11
-28.09842783178162
 21
-104.5840374979055
  0
LINE
  5
3A5
100
AcDbEntity
  8
handle5
  6
ByLayer
 62
  256
370
   -1
100
AcDbLine
 10
-28.38822577504605
 20
-101.55595920932
 11
-27.39111207002723
 21
-103.6877229978723
  0
LINE
  5
3A6
100
AcDbEntity
  8
handle5
  6
ByLayer
 62
  256
370
   -1
100
AcDbLine
 10
-27.39111207002723
 20
-103.6877229978723
 11
-31.83007018561704
 21
-109.312795616323
  0
LINE
  5
3A7
100
AcDbEntity
  8
handle5
  6
ByLayer
 62
  256
370
   -1
100
AcDbLine
 10
-22.31588343308669
 20
-112.28761307339
 11
-24.71597018378175
 21
-111.7938966377493
  0
LINE
  5
3A8
100
AcDbEntity
  8
handle5
  6
ByLayer
 62
  256
370
   -1
100
AcDbLine
 10
-26.47151552183499
 20
-112.4063625447564
 11
-25.19031172704353
 21
-110.7828139108042
  0
LINE
  5
3A9
100
AcDbEntity
  8
handle5
  6
ByLayer
 62
  256
370
   -1
100
AcDbLine
 10
-24.71597018378175
 20
-111.7938966377493
 11
-28.09842643794735
 21
-104.5840357316309
  0
LINE
  5
3AA
100
AcDbEntity
  8
handle5
  6
ByLayer
 62
  256
370
   -1
100
AcDbLine
 10
-32.97404559333252
 20
-109.0595242282158
 11
-25.19031172704353
 21
-110.7828139108042
  0
LINE
  5
3AB
100
AcDbEntity
  8
handle5
  6
ByLayer
 62
  256
370
   -1
100
AcDbLine
 10
-34.33815325709341
 20
-110.7881291098639
 11
-32.97404559333252
 21
-109.0595242282158
  0
LINE
  5
3AC
100
AcDbEntity
  8
handle5
  6
ByLayer
 62
  256
370
   -1
100
AcDbLine
 10
-19.22771466849479
 20
-110.0900298837924
 11
-18.22007885965489
 21
-112.2442895408721
  0
LINE
  5
3AD
100
AcDbEntity
  8
handle5
  6
ByLayer
 62
  256
370
   -1
100
AcDbLine
 10
-20.64713700930882
 20
-113.6044841581104
 11
-19.396849078266
 21
-112.0201122800815
  0
LINE
  5
3AE
100
AcDbEntity
  8
handle5
  6
ByLayer
 62
  256
370
   -1
100
AcDbLine
 10
-18.37301455630806
 20
-92.18362750027612
 11
-17.84271928910738
 21
-93.3173570140156
  0
LINE
  5
3AF
100
AcDbEntity
  8
handle5
  6
ByLayer
 62
  256
370
   -1
100
AcDbLine
 10
-17.95481270260951
 20
-95.26511860954973
 11
-20.35490376020622
 21
-94.77140036750407
  0
LINE
  5
3B0
100
AcDbEntity
  8
handle5
  6
ByLayer
 62
  256
370
   -1
100
AcDbLine
 10
-19.64758784358135
 20
-93.87508567121814
 11
-24.08654580430067
 21
-99.50015809341615
  0
LINE
  5
3B1
100
AcDbEntity
  8
handle5
  6
ByLayer
 62
  256
370
   -1
100
AcDbLine
 10
-25.09418618840088
 20
-97.34589737356029
 11
-24.08654580430067
 21
-99.50015809341615
  0
LINE
  5
3B2
100
AcDbEntity
  8
handle5
  6
ByLayer
 62
  256
370
   -1
100
AcDbLine
 10
-26.59462934038848
 20
-100.9754921757153
 11
-25.23052152175712
 21
-99.24688709781438
  0
LINE
  5
3B3
100
AcDbEntity
  8
handle5
  6
ByLayer
 62
  256
370
   -1
100
AcDbLine
 10
-20.0044717829655
 20
-90.89618273507357
 11
-35.49151930663442
 21
-110.5214562108654
  0
LINE
  5
3B4
100
AcDbEntity
  8
handle5
  6
ByLayer
 62
  256
370
   -1
100
AcDbLine
 10
-20.65522559488347
 20
-91.72082161506576
 11
-19.64758784358135
 21
-93.87508567121814
  0
LINE
  5
3B5
100
AcDbEntity
  8
handle5
  6
ByLayer
 62
  256
370
   -1
100
AcDbLine
 10
-32.8377101051058
 20
-107.1585343077089
 11
-31.83007018561704
 21
-109.312795616323
  0
LINE
  5
3B6
100
AcDbEntity
  8
handle5
  6
ByLayer
 62
  256
370
   -1
100
AcDbLine
 10
-18.85040242744143
 20
-91.16300236492842
 11
-18.37301455630806
 21
-92.18362750027612
  0
LINE
  5
3B7
100
AcDbEntity
  8
handle5
  6
ByLayer
 62
  256
370
   -1
100
AcDbLine
 10
-18.85110573342449
 20
-91.16285563407206
 11
-17.48699806966361
 21
-89.43425075242389
  0
LINE
  5
3B8
100
AcDbEntity
  8
handle5
  6
ByLayer
 62
  256
370
   -1
100
AcDbLine
 10
-17.3506625814369
 20
-87.53326083191706
 11
-16.34302266194812
 21
-89.68752214053116
  0
LINE
  5
3B9
100
AcDbEntity
  8
handle5
  6
ByLayer
 62
  256
370
   -1
100
AcDbLine
 10
-37.1991090269473
 20
-35.40385540758415
 11
-38.19129955499959
 21
-36.66116480909257
  0
LINE
  5
3BA
100
AcDbEntity
  8
handle5
  6
ByLayer
 62
  256
370
   -1
100
AcDbLine
 10
-32.99242601308235
 20
-41.56925154141818
 11
-35.88050961160965
 21
-35.41316866378158
  0
LINE
  5
3BB
100
AcDbEntity
  8
handle5
  6
ByLayer
 62
  256
370
   -1
100
AcDbLine
 10
-30.59233926238728
 20
-42.06296797705892
 11
-33.68268269351302
 21
-35.47576004378241
  0
LINE
  5
3BC
100
AcDbEntity
  8
handle5
  6
ByLayer
 62
  256
370
   -1
100
AcDbLine
 10
-38.99565490001331
 20
-39.33409375239997
 11
-33.46676755634412
 21
-40.55816881447316
  0
LINE
  5
3BD
100
AcDbEntity
  8
handle5
  6
ByLayer
 62
  256
370
   -1
100
AcDbLine
 10
-30.08846438293883
 20
-43.14021649184161
 11
-39.55501023875652
 21
-41.19287057757887
  0
LINE
  5
3BE
100
AcDbEntity
  8
handle5
  6
ByLayer
 62
  256
370
   -1
100
AcDbLine
 10
-33.73987685444978
 20
-44.33615818427938
 11
-40.10677828675728
 21
-43.02643430614251
  0
LINE
  5
3BF
100
AcDbEntity
  8
handle5
  6
ByLayer
 62
  256
370
   -1
100
AcDbLine
 10
-40.20622908233592
 20
-43.35691624001041
 11
-37.08557540291987
 21
-50.29123322943147
  0
LINE
  5
3C0
100
AcDbEntity
  8
handle5
  6
ByLayer
 62
  256
370
   -1
100
AcDbLine
 10
-38.33586271448078
 20
-51.87560432244939
 11
-41.0370700521309
 21
-46.11785876276153
  0
LINE
  5
3C1
100
AcDbEntity
  8
handle5
  6
ByLayer
 62
  256
370
   -1
100
AcDbLine
 10
-40.73594946517585
 20
-51.38188788680866
 11
-41.88445820724867
 21
-48.93378873708338
  0
LINE
  5
3C2
100
AcDbEntity
  8
handle5
  6
ByLayer
 62
  256
370
   -1
100
AcDbLine
 10
-42.24777361043463
 20
-50.14111117578575
 11
-41.21029162791953
 21
-50.37080594487456
  0
LINE
  5
3C3
100
AcDbEntity
  8
handle5
  6
ByLayer
 62
  256
370
   -1
100
AcDbLine
 10
-37.83198783503232
 20
-52.95285283723209
 11
-42.78716104652003
 21
-51.93353326697526
  0
LINE
  5
3C4
100
AcDbEntity
  8
handle5
  6
ByLayer
 62
  256
370
   -1
100
AcDbLine
 10
-41.48340030654329
 20
-54.14879452966986
 11
-43.33892910480827
 21
-53.76709702972502
  0
LINE
  5
3C5
100
AcDbEntity
  8
handle5
  6
ByLayer
 62
  256
370
   -1
100
AcDbLine
 10
-31.53912878613916
 20
-35.59653192691476
 11
-29.34205133134445
 21
-40.47859609903006
  0
LINE
  5
3C6
100
AcDbEntity
  8
handle5
  6
ByLayer
 62
  256
370
   -1
100
AcDbLine
 10
-29.8336668239847
 20
-39.38618692703373
 11
-27.19197230987736
 21
-36.03861682371853
  0
LINE
  5
3C7
100
AcDbEntity
  8
handle5
  6
ByLayer
 62
  256
370
   -1
100
AcDbLine
 10
-24.77687005719475
 20
-36.40933437400223
 11
-33.95533545424807
 21
-48.04033719942593
  0
LINE
  5
3C8
100
AcDbEntity
  8
handle5
  6
ByLayer
 62
  256
370
   -1
100
AcDbLine
 10
-26.4965346889555
 20
-42.019644444541
 11
-22.42841666616614
 21
-36.86450247141653
  0
LINE
  5
3C9
100
AcDbEntity
  8
handle5
  6
ByLayer
 62
  256
370
   -1
100
AcDbLine
 10
-20.47782871165445
 20
-37.31933961940818
 11
-16.92698372714183
 21
-44.9108097241367
  0
LINE
  5
3CA
100
AcDbEntity
  8
handle5
  6
ByLayer
 62
  256
370
   -1
100
AcDbLine
 10
-20.32944509921907
 20
-37.63657766602533
 11
-20.14595899542874
 21
-37.40406304628328
  0
LINE
  5
3CB
100
AcDbEntity
  8
handle5
  6
ByLayer
 62
  256
370
   -1
100
AcDbLine
 10
-15.56257302672244
 20
-43.18285193630595
 11
-18.09277456940417
 21
-37.97837167099775
  0
LINE
  5
3CC
100
AcDbEntity
  8
handle5
  6
ByLayer
 62
  256
370
   -1
100
AcDbLine
 10
-13.94296919527438
 20
-39.4275638947522
 11
-16.07485774155307
 21
-42.12910501656288
  0
LINE
  5
3CD
100
AcDbEntity
  8
handle5
  6
ByLayer
 62
  256
370
   -1
100
AcDbLine
 10
-11.91794209376761
 20
-40.29257879294803
 11
-24.14269969761579
 21
-55.78386018690803
  0
LINE
  5
3CE
100
AcDbEntity
  8
handle5
  6
ByLayer
 62
  256
370
   -1
100
AcDbLine
 10
-9.958893147039316
 20
-41.24120924659271
 11
-12.73772619528205
 21
-44.76256206945874
  0
LINE
  5
3CF
100
AcDbEntity
  8
handle5
  6
ByLayer
 62
  256
370
   -1
100
AcDbLine
 10
-5.623626503187747
 20
-47.24366348339042
 11
-7.9141497408873
 21
-42.361307968605
  0
LINE
  5
3D0
100
AcDbEntity
  8
handle5
  6
ByLayer
 62
  256
370
   -1
100
AcDbLine
 10
-3.639872442939176
 20
-46.84994796726664
 11
-4.812980179067708
 21
-44.34941579241871
  0
LINE
  5
3D1
100
AcDbEntity
  8
handle5
  6
ByLayer
 62
  256
370
   -1
100
AcDbLine
 10
-3.854392800475836
 20
-47.60760856048624
 11
-5.623626503187747
 21
-47.24366348339042
  0
LINE
  5
3D2
100
AcDbEntity
  8
handle5
  6
ByLayer
 62
  256
370
   -1
100
AcDbLine
 10
-4.114880716797959
 20
-48.52762114797902
 11
-15.24510642538683
 21
-46.23804288261419
  0
LINE
  5
3D3
100
AcDbEntity
  8
handle5
  6
ByLayer
 62
  256
370
   -1
100
AcDbLine
 10
-4.3753458946073
 20
-49.44755342572741
 11
-5.710105488422027
 21
-49.17298288332557
  0
LINE
  5
3D4
100
AcDbEntity
  8
handle5
  6
ByLayer
 62
  256
370
   -1
100
AcDbLine
 10
-5.022309530445472
 20
-51.73255265726618
 11
-14.33006001592883
 21
-63.52738627179961
  0
LINE
  5
3D5
100
AcDbEntity
  8
handle5
  6
ByLayer
 62
  256
370
   -1
100
AcDbLine
 10
-6.871259250636292
 20
-57.50669351691464
 11
-6.537378699058671
 21
-57.08359820950083
  0
LINE
  5
3D6
100
AcDbEntity
  8
handle5
  6
ByLayer
 62
  256
370
   -1
100
AcDbLine
 10
-6.668128956424095
 20
-57.54539269230285
 11
-8.048029469247396
 21
-57.2825162561241
  0
LINE
  5
3D7
100
AcDbEntity
  8
handle5
  6
ByLayer
 62
  256
370
   -1
100
AcDbLine
 10
-9.298317400290223
 20
-58.86688813415294
 11
-7.167140502912577
 21
-59.30784259998266
  0
LINE
  5
3D8
100
AcDbEntity
  8
handle5
  6
ByLayer
 62
  256
370
   -1
100
AcDbLine
 10
-8.260146121779069
 20
-61.08643149398135
 11
-7.703340663395185
 21
-61.20163830469248
  0
LINE
  5
3D9
100
AcDbEntity
  8
handle5
  6
ByLayer
 62
  256
370
   -1
100
AcDbLine
 10
-8.447693732475273
 20
-62.93626386880039
 11
-8.052784485557648
 21
-62.4358326563932
  0
LINE
  5
3DA
100
AcDbEntity
  8
handle5
  6
ByLayer
 62
  256
370
   -1
100
AcDbLine
 10
-10.46318894461958
 20
-58.6272655642153
 11
-8.289955681865809
 21
-63.27349333975624
  0
LINE
  5
3DB
100
AcDbEntity
  8
handle5
  6
ByLayer
 62
  256
370
   -1
100
AcDbLine
 10
-10.77746928110137
 20
-62.45666477416029
 11
-9.083862765734679
 21
-66.07747949301729
  0
LINE
  5
3DC
100
AcDbEntity
  8
handle5
  6
ByLayer
 62
  256
370
   -1
100
AcDbLine
 10
-9.700541215319394
 20
-68.25551501982406
 11
-15.79155354082281
 21
-67.09515338652551
  0
LINE
  5
3DD
100
AcDbEntity
  8
handle5
  6
ByLayer
 62
  256
370
   -1
100
AcDbLine
 10
-17.04184085238373
 20
-68.67952447954342
 11
-10.22022103227171
 21
-70.09096282029265
  0
LINE
  5
3DE
100
AcDbEntity
  8
handle5
  6
ByLayer
 62
  256
370
   -1
100
AcDbLine
 10
-16.00366957387258
 20
-70.89906783937181
 11
-10.75642131338292
 21
-71.98475895104852
  0
LINE
  5
3DF
100
AcDbEntity
  8
handle5
  6
ByLayer
 62
  256
370
   -1
100
AcDbLine
 10
-18.20671239671308
 20
-68.43990190960577
 11
-12.94050813348538
 21
-79.69869591611868
  0
LINE
  5
3E0
100
AcDbEntity
  8
handle5
  6
ByLayer
 62
  256
370
   -1
100
AcDbLine
 10
-13.01895934798577
 20
-79.97577634988133
 11
-15.11835265960192
 21
-79.54391368491343
  0
LINE
  5
3E1
100
AcDbEntity
  8
handle5
  6
ByLayer
 62
  256
370
   -1
100
AcDbLine
 10
-24.78536492395913
 20
-78.49216160994482
 11
-13.27330153981195
 21
-80.87408296354099
  0
LINE
  5
3E2
100
AcDbEntity
  8
handle5
  6
ByLayer
 62
  256
370
   -1
100
AcDbLine
 10
-13.53007680099248
 20
-81.78098289110115
 11
-15.24119609262929
 21
-81.42899246918458
  0
LINE
  5
3E3
100
AcDbEntity
  8
handle5
  6
ByLayer
 62
  256
370
   -1
100
AcDbLine
 10
-13.93225797334131
 20
-83.20143934158759
 11
-20.0044717829655
 21
-90.89618273507357
  0
LINE
  5
3E4
100
AcDbEntity
  8
handle5
  6
ByLayer
 62
  256
370
   -1
100
AcDbLine
 10
-15.44733017133726
 20
-88.55249559324469
 11
-16.34302266194812
 21
-89.68752214053116
  0
LINE
  5
3E5
100
AcDbEntity
  8
handle5
  6
ByLayer
 62
  256
370
   -1
100
AcDbLine
 10
-17.48699806966361
 20
-89.43425075242389
 11
-15.80257428858641
 21
-89.80717590285957
  0
LINE
  5
3E6
100
AcDbEntity
  8
handle5
  6
ByLayer
 62
  256
370
   -1
100
AcDbLine
 10
-16.33307376427605
 20
-91.68083746146041
 11
-18.85040242744143
 21
-91.16300236492842
  0
LINE
  5
3E7
100
AcDbEntity
  8
handle5
  6
ByLayer
 62
  256
370
   -1
100
AcDbLine
 10
-16.85401550419779
 20
-93.52074222497244
 11
-17.84271928910738
 21
-93.3173570140156
  0
LINE
  5
3E8
100
AcDbEntity
  8
handle5
  6
ByLayer
 62
  256
370
   -1
100
AcDbLine
 10
-17.00831569464875
 20
-94.06571229295776
 11
-17.95481270260951
 21
-95.26511860954973
  0
LINE
  5
3E9
100
AcDbEntity
  8
handle5
  6
ByLayer
 62
  256
370
   -1
100
AcDbLine
 10
-17.5763308680311
 20
-96.07187486962188
 11
-20.0044717829655
 21
-90.89618273507357
  0
LINE
  5
3EA
100
AcDbEntity
  8
handle5
  6
ByLayer
 62
  256
370
   -1
100
AcDbLine
 10
-18.39247553666432
 20
-98.95440154862963
 11
-20.35490236637194
 21
-94.77139860122946
  0
LINE
  5
3EB
100
AcDbEntity
  8
handle5
  6
ByLayer
 62
  256
370
   -1
100
AcDbLine
 10
-25.23052152175712
 20
-99.24688709781438
 11
-18.87376257960812
 21
-100.6542506009671
  0
LINE
  5
3EC
100
AcDbEntity
  8
handle5
  6
ByLayer
 62
  256
370
   -1
100
AcDbLine
 10
-19.38465030227508
 20
-102.4586457617309
 11
-26.59392603440541
 21
-100.9756389065716
  0
LINE
  5
3ED
100
AcDbEntity
  8
handle5
  6
ByLayer
 62
  256
370
   -1
100
AcDbLine
 10
-19.44431347025668
 20
-104.3934395224699
 11
-25.58624336068278
 21
-103.129994144417
  0
LINE
  5
3EE
100
AcDbEntity
  8
handle5
  6
ByLayer
 62
  256
370
   -1
100
AcDbLine
 10
-21.5572109946841
 20
-109.6108320233648
 11
-18.33405186611067
 21
-105.5264266996532
  0
LINE
  5
3EF
100
AcDbEntity
  8
handle5
  6
ByLayer
 62
  256
370
   -1
100
AcDbLine
 10
-18.22007885965489
 20
-112.2442895408721
 11
-16.17299012189075
 21
-109.6502072119817
  0
LINE
  5
3F0
100
AcDbEntity
  8
handle5
  6
ByLayer
 62
  256
370
   -1
100
AcDbLine
 10
-17.08043599937982
 20
-112.4613980171595
 11
-19.396849078266
 21
-112.0201122800815
  0
LINE
  5
3F1
100
AcDbEntity
  8
handle5
  6
ByLayer
 62
  256
370
   -1
100
AcDbLine
 10
-20.64713700930882
 20
-113.6044841581104
 11
-19.08802264015258
 21
-113.9270751380824
  0
LINE
  5
3F2
100
AcDbEntity
  8
handle5
  6
ByLayer
 62
  256
370
   -1
100
AcDbLine
 10
-20.64713700930882
 20
-113.6044841581104
 11
-20.28604010197123
 21
-114.3764860999143
  0
LINE
  5
3F3
100
AcDbEntity
  8
handle5
  6
ByLayer
 62
  256
370
   -1
100
AcDbLine
 10
-21.81200855363819
 20
-113.3648615881727
 11
-21.22569505992946
 21
-114.6183607345056
  0
LINE
  5
3F4
100
AcDbEntity
  8
handle5
  6
ByLayer
 62
  256
370
   -1
100
AcDbLine
 10
-22.47295906271885
 20
-114.202400391153
 11
-22.20601290029405
 21
-114.7731139358018
  0
LINE
  5
3F5
100
AcDbEntity
  8
handle5
  6
ByLayer
 62
  256
370
   -1
100
AcDbLine
 10
-16.98010856310886
 20
-107.2418508221188
 11
-22.95401738257894
 21
-114.8120215807716
  0
LINE
  5
3F6
100
AcDbEntity
  8
handle5
  6
ByLayer
 62
  256
370
   -1
100
AcDbLine
 10
-24.80244916901604
 20
-113.7232160376844
 11
-25.58056696377224
 21
-114.7092512710064
  0
LINE
  5
3F7
100
AcDbEntity
  8
handle5
  6
ByLayer
 62
  256
370
   -1
100
AcDbLine
 10
-32.10381912194556
 20
-113.194818893986
 11
-31.91675034388558
 21
-113.6104991773984
  0
LINE
  5
3F8
100
AcDbEntity
  8
handle5
  6
ByLayer
 62
  256
370
   -1
100
AcDbLine
 10
-32.10381912194556
 20
-113.194818893986
 11
-32.35037094482284
 21
-113.5072507466375
  0
LINE
  5
3F9
100
AcDbEntity
  8
handle5
  6
ByLayer
 62
  256
370
   -1
100
AcDbLine
 10
-34.30460760128148
 20
-113.051412170182
 11
-35.49151930663442
 21
-110.5214562108654
  0
LINE
  5
3FA
100
AcDbEntity
  8
handle5
  6
ByLayer
 62
  256
370
   -1
100
AcDbLine
 10
-36.14227311855238
 20
-111.3460950908576
 11
-35.47975835679659
 21
-112.7625086145436
  0
LINE
  5
3FB
100
AcDbEntity
  8
handle5
  6
ByLayer
 62
  256
370
   -1
100
AcDbLine
 10
-35.49151930663442
 20
-110.5214562108654
 11
-36.95695055344223
 21
-112.3784589051892
  0
LINE
  5
3FC
100
AcDbEntity
  8
handle5
  6
ByLayer
 62
  256
370
   -1
100
AcDbLine
 10
-38.47176691352124
 20
-110.8669020941142
 11
-39.16307443913233
 21
-111.7429308675299
  0
LINE
  5
3FD
100
AcDbEntity
  8
handle5
  6
ByLayer
 62
  256
370
   -1
100
AcDbLine
 10
-40.21725667060139
 20
-109.54366981651
 11
-39.19243435235933
 21
-111.7346721193918
  0
LINE
  5
3FE
100
AcDbEntity
  8
handle5
  6
ByLayer
 62
  256
370
   -1
100
AcDbLine
 10
-48.01593589972155
 20
-107.9300714311272
 11
-47.40769093475109
 21
-109.2304600096721
  0
LINE
  5
3FF
100
AcDbEntity
  8
handle5
  6
ByLayer
 62
  256
370
   -1
100
AcDbLine
 10
-49.1808074440509
 20
-107.6904488611895
 11
-48.65881938716605
 21
-108.80642456448
  0
LINE
  5
400
100
AcDbEntity
  8
handle5
  6
ByLayer
 62
  256
370
   -1
100
AcDbLine
 10
-45.30415506326665
 20
-102.7779332233834
 11
-49.75725356720935
 21
-108.4209246212565
  0
LINE
  5
401
100
AcDbEntity
  8
handle5
  6
ByLayer
 62
  256
370
   -1
100
AcDbLine
 10
-53.77724710231679
 20
-106.8659918613337
 11
-53.83975446932514
 21
-106.7323557032077
  0
LINE
  5
402
100
AcDbEntity
  8
handle5
  6
ByLayer
 62
  256
370
   -1
100
AcDbLine
 10
-49.1808074440509
 20
-107.6904488611895
 11
-54.31525624210087
 21
-106.634250839655
  0
LINE
  5
403
100
AcDbEntity
  8
handle5
  6
ByLayer
 62
  256
370
   -1
100
AcDbLine
 10
-59.78785564521058
 20
-103.5079840284306
 11
-52.55911123693816
 21
-105.108401968832
  0
LINE
  5
404
100
AcDbEntity
  8
handle5
  6
ByLayer
 62
  256
370
   -1
100
AcDbLine
 10
-55.11679474495361
 20
-95.0344071384918
 11
-60.86555908275405
 21
-102.3192735473272
  0
LINE
  5
405
100
AcDbEntity
  8
handle5
  6
ByLayer
 62
  256
370
   -1
100
AcDbLine
 10
-60.206509150389
 20
-101.4841217769785
 11
-61.62933215249382
 21
-101.1914348691054
  0
LINE
  5
406
100
AcDbEntity
  8
handle5
  6
ByLayer
 62
  256
370
   -1
100
AcDbLine
 10
-58.0970423518405
 20
-95.37985302174052
 11
-62.02537064105886
 21
-100.357852660521
  0
LINE
  5
407
100
AcDbEntity
  8
handle5
  6
ByLayer
 62
  256
370
   -1
100
AcDbLine
 10
-60.88984640495138
 20
-95.84466407988266
 11
-58.80435687463108
 21
-96.27616595175186
  0
LINE
  5
408
100
AcDbEntity
  8
handle5
  6
ByLayer
 62
  256
370
   -1
100
AcDbLine
 10
-59.47817727892783
 20
-94.83558726093671
 11
-58.80435826846536
 21
-96.27616771802647
  0
LINE
  5
409
100
AcDbEntity
  8
handle5
  6
ByLayer
 62
  256
370
   -1
100
AcDbLine
 10
-58.33740867844321
 20
-94.36804077590493
 11
-55.11679474495361
 21
-95.0344071384918
  0
LINE
  5
40A
100
AcDbEntity
  8
handle5
  6
ByLayer
 62
  256
370
   -1
100
AcDbLine
 10
-55.64460269118459
 20
-93.97399360986914
 11
-56.1348386723819
 21
-93.87314752170883
  0
LINE
  5
40B
100
AcDbEntity
  8
handle5
  6
ByLayer
 62
  256
370
   -1
100
AcDbLine
 10
-55.77067623764579
 20
-93.70445677580342
 11
-55.64460269118459
 21
-93.97399360986914
  0
LINE
  5
40C
100
AcDbEntity
  8
handle5
  6
ByLayer
 62
  256
370
   -1
100
AcDbLine
 10
-54.28019214563568
 20
-92.24603601829112
 11
-54.67430982430902
 21
-91.43535819860607
  0
LINE
  5
40D
100
AcDbEntity
  8
handle5
  6
ByLayer
 62
  256
370
   -1
100
AcDbLine
 10
-52.4629856982955
 20
-91.67148543158804
 11
-54.61231637979382
 21
-91.22934965627796
  0
LINE
  5
40E
100
AcDbEntity
  8
handle5
  6
ByLayer
 62
  256
370
   -1
100
AcDbLine
 10
-50.35351905461745
 20
-85.56721687260278
 11
-54.48324125303532
 21
-90.80042400256967
  0
LINE
  5
40F
100
AcDbEntity
  8
handle5
  6
ByLayer
 62
  256
370
   -1
100
AcDbLine
 10
-53.05404940479731
 20
-86.0511197549187
 11
-51.06083342253758
 21
-86.46352960636139
  0
LINE
  5
410
100
AcDbEntity
  8
handle5
  6
ByLayer
 62
  256
370
   -1
100
AcDbLine
 10
-52.48613055747151
 20
-84.16388579311656
 11
-47.3732706733782
 21
-85.22177000809037
  0
LINE
  5
411
100
AcDbEntity
  8
handle5
  6
ByLayer
 62
  256
370
   -1
100
AcDbLine
 10
-50.76096693301233
 20
-82.54841042237933
 11
-51.93281192819428
 21
-82.32516937476419
  0
LINE
  5
412
100
AcDbEntity
  8
handle5
  6
ByLayer
 62
  256
370
   -1
100
AcDbLine
 10
-51.51492472477921
 20
-80.936501035615
 11
-50.23067562159008
 21
-83.68213808833164
  0
LINE
  5
413
100
AcDbEntity
  8
handle5
  6
ByLayer
 62
  256
370
   -1
100
AcDbLine
 10
-50.69066109075271
 20
-78.19741545862087
 11
-47.90107877447964
 21
-84.16135667572046
  0
LINE
  5
414
100
AcDbEntity
  8
handle5
  6
ByLayer
 62
  256
370
   -1
100
AcDbLine
 10
-46.53666807406026
 20
-82.43339888788972
 11
-49.88981851172495
 21
-75.53615968182281
  0
LINE
  5
415
100
AcDbEntity
  8
handle5
  6
ByLayer
 62
  256
370
   -1
100
AcDbLine
 10
-49.82036656281973
 20
-75.30536600891611
 11
-43.31730935096218
 21
-76.65089247595998
  0
LINE
  5
416
100
AcDbEntity
  8
handle5
  6
ByLayer
 62
  256
370
   -1
100
AcDbLine
 10
-49.25244803375109
 20
-73.41813310470472
 11
-39.6297472212847
 21
-75.40913366269993
  0
LINE
  5
417
100
AcDbEntity
  8
handle5
  6
ByLayer
 62
  256
370
   -1
100
AcDbLine
 10
-43.01744348091881
 20
-72.73577407698886
 11
-48.72018319239784
 21
-71.64937989285929
  0
LINE
  5
418
100
AcDbEntity
  8
handle5
  6
ByLayer
 62
  256
370
   -1
100
AcDbLine
 10
-48.00622385224712
 20
-69.27684318198445
 11
-47.77381867667697
 21
-68.98233804013719
  0
LINE
  5
419
100
AcDbEntity
  8
handle5
  6
ByLayer
 62
  256
370
   -1
100
AcDbLine
 10
-33.95533545424807
 20
-48.04033719942593
 11
-46.33727050216669
 21
-63.73079473198785
  0
LINE
  5
41A
100
AcDbEntity
  8
handle5
  6
ByLayer
 62
  256
370
   -1
100
AcDbLine
 10
-46.23644514544772
 20
-63.60304239921557
 11
-46.29518995297889
 21
-63.5909581304515
  0
LINE
  5
41B
100
AcDbEntity
  8
handle5
  6
ByLayer
 62
  256
370
   -1
100
AcDbLine
 10
-45.57551190660773
 20
-62.76548996763351
 11
-46.01931206170889
 21
-62.67419664566071
  0
LINE
  5
41C
100
AcDbEntity
  8
handle5
  6
ByLayer
 62
  256
370
   -1
100
AcDbLine
 10
-45.5027009779389
 20
-60.95746196265983
 11
-44.82909885501338
 21
-60.10386957482194
  0
LINE
  5
41D
100
AcDbEntity
  8
handle5
  6
ByLayer
 62
  256
370
   -1
100
AcDbLine
 10
-45.07883719200677
 20
-59.54893302273156
 11
-44.82909885501338
 21
-60.10386957482194
  0
LINE
  5
41E
100
AcDbEntity
  8
handle5
  6
ByLayer
 62
  256
370
   -1
100
AcDbLine
 10
-42.99121802146433
 20
-59.49065826325318
 11
-44.94062609312449
 21
-59.08964789610317
  0
LINE
  5
41F
100
AcDbEntity
  8
handle5
  6
ByLayer
 62
  256
370
   -1
100
AcDbLine
 10
-44.66831361871337
 20
-58.18473454034664
 11
-40.82242845041014
 21
-53.31120728674379
  0
ENDSEC
  0
SECTION
  2
OBJECTS
  0
DICTIONARY
  5
C
330
0
100
AcDbDictionary
281
    1
  3
ACAD_GROUP
350
D
  0
DICTIONARY
  5
D
330
C
100
AcDbDictionary
281
    1
  0
ENDSEC
  0
EOF
