999
dxfrw 0.6.3
  0
SECTION
  2
HEADER
  9
$ACADVER
  1
AC1021
  9
$DWGCODEPAGE
  3
ANSI_1252
  9
$INSBASE
 10
0
 20
0
 30
0
  9
$EXTMIN
 10
-0.01112786136051591
 20
-118.9599751813441
 30
0
  9
$EXTMAX
 10
127.0040597387291
 20
0
 30
0
  9
$LIMMIN
 10
0
 20
0
  9
$LIMMAX
 10
420
 20
297
  9
$ORTHOMODE
 70
    0
  9
$REGENMODE
 70
    1
  9
$FILLMODE
 70
    1
  9
$QTEXTMODE
 70
    0
  9
$MIRRTEXT
 70
    0
  9
$LTSCALE
 40
1
  9
$ATTMODE
 70
    0
  9
$TEXTSIZE
 40
2.5
  9
$TRACEWID
 40
15.68
  9
$TEXTSTYLE
  7
STANDARD
  9
$CLAYER
  8
handle9
  9
$CELTYPE
  6
BYLAYER
  9
$CECOLOR
 62
  256
  9
$CELTSCALE
 40
1
  9
$DISPSILH
 70
    0
  9
$DIMSCALE
 40
1
  9
$DIMASZ
 40
2.5
  9
$DIMEXO
 40
0.625
  9
$DIMDLI
 40
3.75
  9
$DIMRND
 40
0
  9
$DIMDLE
 40
0
  9
$DIMEXE
 40
1.25
  9
$DIMTP
 40
0
  9
$DIMTM
 40
0
  9
$DIMTXT
 40
2.5
  9
$DIMCEN
 40
2.5
  9
$DIMTSZ
 40
0
  9
$DIMTOL
 70
    0
  9
$DIMLIM
 70
    0
  9
$DIMTIH
 70
    0
  9
$DIMTOH
 70
    0
  9
$DIMSE1
 70
    0
  9
$DIMSE2
 70
    0
  9
$DIMTAD
 70
    1
  9
$DIMZIN
 70
    8
  9
$DIMBLK
  1

  9
$DIMASO
 70
    1
  9
$DIMSHO
 70
    1
  9
$DIMPOST
  1

  9
$DIMAPOST
  1

  9
$DIMALT
 70
    0
  9
$DIMALTD
 70
    3
  9
$DIMALTF
 40
0.03937
  9
$DIMLFAC
 40
1
  9
$DIMTOFL
 70
    1
  9
$DIMTVP
 40
0
  9
$DIMTIX
 70
    0
  9
$DIMSOXD
 70
    0
  9
$DIMSAH
 70
    0
  9
$DIMBLK1
  1

  9
$DIMBLK2
  1

  9
$DIMSTYLE
  2
STANDARD
  9
$DIMCLRD
 70
    0
  9
$DIMCLRE
 70
    0
  9
$DIMCLRT
 70
    0
  9
$DIMTFAC
 40
1
  9
$DIMGAP
 40
0.625
  9
$DIMJUST
 70
    0
  9
$DIMSD1
 70
    0
  9
$DIMSD2
 70
    0
  9
$DIMTOLJ
 70
    0
  9
$DIMTZIN
 70
    8
  9
$DIMALTZ
 70
    0
  9
$DIMALTTZ
 70
    0
  9
$DIMUPT
 70
    0
  9
$DIMDEC
 70
    2
  9
$DIMTDEC
 70
    2
  9
$DIMALTU
 70
    2
  9
$DIMALTTD
 70
    3
  9
$DIMTXSTY
  7
STANDARD
  9
$DIMAUNIT
 70
    0
  9
$DIMADEC
 70
    0
  9
$DIMALTRND
 40
0
  9
$DIMAZIN
 70
    0
  9
$DIMDSEP
 70
   44
  9
$DIMATFIT
 70
    3
  9
$DIMFRAC
 70
    0
  9
$DIMLDRBLK
  1
STANDARD
  9
$DIMLUNIT
 70
    2
  9
$DIMLWD
 70
   -2
  9
$DIMLWE
 70
   -2
  9
$DIMTMOVE
 70
    0
  9
$DIMFXL
 40
1
  9
$DIMFXLON
 70
    0
  9
$DIMJOGANG
 40
0.7854
  9
$DIMTFILL
 70
    0
  9
$DIMTFILLCLR
 70
    0
  9
$DIMARCSYM
 70
    0
  9
$DIMLTYPE
  6

  9
$DIMLTEX1
  6

  9
$DIMLTEX2
  6

  9
$LUNITS
 70
    2
  9
$LUPREC
 70
    4
  9
$SKETCHINC
 40
1
  9
$FILLETRAD
 40
0
  9
$AUNITS
 70
    0
  9
$AUPREC
 70
    2
  9
$MENU
  1
.
  9
$ELEVATION
 40
0
  9
$PELEVATION
 40
0
  9
$THICKNESS
 40
0
  9
$LIMCHECK
 70
    0
  9
$CHAMFERA
 40
0
  9
$CHAMFERB
 40
0
  9
$CHAMFERC
 40
0
  9
$CHAMFERD
 40
0
  9
$SKPOLY
 70
    0
  9
$USRTIMER
 70
    1
  9
$ANGBASE
 50
0
  9
$ANGDIR
 70
    0
  9
$PDMODE
 70
   34
  9
$PDSIZE
 40
0
  9
$PLINEWID
 40
0
  9
$SPLFRAME
 70
    0
  9
$SPLINETYPE
 70
    2
  9
$SPLINESEGS
 70
    8
  9
$HANDSEED
  5
20000
  9
$SURFTAB1
 70
    6
  9
$SURFTAB2
 70
    6
  9
$SURFTYPE
 70
    6
  9
$SURFU
 70
    6
  9
$SURFV
 70
    6
  9
$UCSBASE
  2

  9
$UCSNAME
  2

  9
$UCSORG
 10
0
 20
0
 30
0
  9
$UCSXDIR
 10
1
 20
0
 30
0
  9
$UCSYDIR
 10
0
 20
1
 30
0
  9
$UCSORTHOREF
  2

  9
$UCSORTHOVIEW
 70
    0
  9
$UCSORGTOP
 10
0
 20
0
 30
0
  9
$UCSORGBOTTOM
 10
0
 20
0
 30
0
  9
$UCSORGLEFT
 10
0
 20
0
 30
0
  9
$UCSORGRIGHT
 10
0
 20
0
 30
0
  9
$UCSORGFRONT
 10
0
 20
0
 30
0
  9
$UCSORGBACK
 10
0
 20
0
 30
0
  9
$PUCSBASE
  2

  9
$PUCSNAME
  2

  9
$PUCSORG
 10
0
 20
0
 30
0
  9
$PUCSXDIR
 10
1
 20
0
 30
0
  9
$PUCSYDIR
 10
0
 20
1
 30
0
  9
$PUCSORTHOREF
  2

  9
$PUCSORTHOVIEW
 70
    0
  9
$PUCSORGTOP
 10
0
 20
0
 30
0
  9
$PUCSORGBOTTOM
 10
0
 20
0
 30
0
  9
$PUCSORGLEFT
 10
0
 20
0
 30
0
  9
$PUCSORGRIGHT
 10
0
 20
0
 30
0
  9
$PUCSORGFRONT
 10
0
 20
0
 30
0
  9
$PUCSORGBACK
 10
0
 20
0
 30
0
  9
$USERI1
 70
    0
  9
$USERI2
 70
    0
  9
$USERI3
 70
    0
  9
$USERI4
 70
    0
  9
$USERI5
 70
    0
  9
$USERR1
 40
0
  9
$USERR2
 40
0
  9
$USERR3
 40
0
  9
$USERR4
 40
0
  9
$USERR5
 40
0
  9
$WORLDVIEW
 70
    1
  9
$SHADEDGE
 70
    3
  9
$SHADEDIF
 70
   70
  9
$TILEMODE
 70
    1
  9
$MAXACTVP
 70
   64
  9
$PINSBASE
 10
0
 20
0
 30
0
  9
$PLIMCHECK
 70
    0
  9
$PEXTMIN
 10
0
 20
0
 30
0
  9
$PEXTMAX
 10
0
 20
0
 30
0
  9
$GRIDMODE
 70
    1
  9
$SNAPSTYLE
 70
    0
  9
$PLIMMIN
 10
0
 20
0
  9
$PLIMMAX
 10
7.820100000000001e-07
 20
1.106e-06
  9
$UNITMODE
 70
    0
  9
$VISRETAIN
 70
    1
  9
$PLINEGEN
 70
    0
  9
$PSLTSCALE
 70
    1
  9
$TREEDEPTH
 70
 3020
  9
$CMLSTYLE
  2
Standard
  9
$CMLJUST
 70
    0
  9
$CMLSCALE
 40
20
  9
$PROXYGRAPHICS
 70
    1
  9
$MEASUREMENT
 70
    1
  9
$CELWEIGHT
370
   -1
  9
$ENDCAPS
280
    0
  9
$JOINSTYLE
280
    0
  9
$LWDISPLAY
290
    0
  9
$INSUNITS
 70
    4
  9
$HYPERLINKBASE
  1

  9
$STYLESHEET
  1

  9
$XEDIT
290
    1
  9
$CEPSNTYPE
380
    0
  9
$PSTYLEMODE
290
    1
  9
$EXTNAMES
290
    1
  9
$PSVPSCALE
 40
1
  9
$OLESTARTUP
290
    0
  9
$SORTENTS
280
  127
  9
$INDEXCTL
280
    0
  9
$HIDETEXT
280
    1
  9
$XCLIPFRAME
290
    0
  9
$HALOGAP
280
    0
  9
$OBSCOLOR
 70
  257
  9
$OBSLTYPE
280
    0
  9
$INTERSECTIONDISPLAY
280
    0
  9
$INTERSECTIONCOLOR
 70
  257
  9
$DIMASSOC
280
    1
  9
$PROJECTNAME
  1

  9
$CAMERADISPLAY
290
    0
  9
$LENSLENGTH
 40
50
  9
$CAMERAHEIGHT
 40
0
  9
$STEPSPERSEC
 40
2
  9
$STEPSIZE
 40
50
  9
$3DDWFPREC
 40
2
  9
$PSOLWIDTH
 40
5
  9
$PSOLHEIGHT
 40
80
  9
$LOFTANG1
 40
1.570796326794897
  9
$LOFTANG2
 40
1.570796326794897
  9
$LOFTMAG1
 40
0
  9
$LOFTMAG2
 40
0
  9
$LOFTPARAM
 70
    7
  9
$LOFTNORMALS
280
    1
  9
$LATITUDE
 40
1
  9
$LONGITUDE
 40
1
  9
$NORTHDIRECTION
 40
0
  9
$TIMEZONE
 70
-8000
  9
$LIGHTGLYPHDISPLAY
280
    1
  9
$TILEMODELIGHTSYNCH
280
    1
  9
$SOLIDHIST
280
    1
  9
$SHOWHIST
280
    1
  9
$DWFFRAME
280
    2
  9
$DGNFRAME
280
    0
  9
$REALWORLDSCALE
290
    1
  9
$INTERFERECOLOR
 62
    1
  9
$CSHADOW
280
    0
  9
$SHADOWPLANELOCATION
 40
0
  0
ENDSEC
  0
SECTION
  2
CLASSES
  0
ENDSEC
  0
SECTION
  2
TABLES
  0
TABLE
  2
VPORT
  5
8
330
0
100
AcDbSymbolTable
 70
    1
  0
VPORT
  5
31
330
2
100
AcDbSymbolTableRecord
100
AcDbViewportTableRecord
  2
*ACTIVE
 70
    0
 10
0
 20
0
 11
1
 21
1
 12
21.9371206537092
 22
-1.991387132689651
 13
0
 23
0
 14
10
 24
10
 15
10
 25
10
 16
0
 26
0
 36
1
 17
0
 27
0
 37
0
 40
33.58275260567828
 41
1.405123339658444
 42
50
 43
0
 44
0
 50
0
 51
0
 71
    0
 72
  100
 73
    1
 74
    3
 75
    0
 76
    1
 77
    0
 78
    0
281
    0
 65
    1
110
0
120
0
130
0
111
1
121
0
131
0
112
0
122
1
132
0
 79
    0
146
0
348
10020
 60
    7
 61
    5
292
1
282
    1
141
0
142
0
 63
  250
421
3358443
  0
ENDTAB
  0
TABLE
  2
LTYPE
  5
5
330
0
100
AcDbSymbolTable
 70
    4
  0
LTYPE
  5
14
330
5
100
AcDbSymbolTableRecord
100
AcDbLinetypeTableRecord
  2
ByBlock
 70
    0
  3

 72
   65
 73
    0
 40
0
  0
LTYPE
  5
15
330
5
100
AcDbSymbolTableRecord
100
AcDbLinetypeTableRecord
  2
ByLayer
 70
    0
  3

 72
   65
 73
    0
 40
0
  0
LTYPE
  5
16
330
5
100
AcDbSymbolTableRecord
100
AcDbLinetypeTableRecord
  2
Continuous
 70
    0
  3
Solid line
 72
   65
 73
    0
 40
0
  0
LTYPE
  5
32
330
5
100
AcDbSymbolTableRecord
100
AcDbLinetypeTableRecord
  2
DOT
 70
    0
  3
Dot . . . . . . . . . . . . . . . . . . . . . .
 72
   65
 73
    2
 40
6.35
 49
0
 74
    0
 49
-6.35
 74
    0
  0
LTYPE
  5
33
330
5
100
AcDbSymbolTableRecord
100
AcDbLinetypeTableRecord
  2
DOTTINY
 70
    0
  3
Dot (.15x) .....................................
 72
   65
 73
    2
 40
0.9525
 49
0
 74
    0
 49
-0.9525
 74
    0
  0
LTYPE
  5
34
330
5
100
AcDbSymbolTableRecord
100
AcDbLinetypeTableRecord
  2
DOT2
 70
    0
  3
Dot (.5x) .....................................
 72
   65
 73
    2
 40
3.175
 49
0
 74
    0
 49
-3.175
 74
    0
  0
LTYPE
  5
35
330
5
100
AcDbSymbolTableRecord
100
AcDbLinetypeTableRecord
  2
DOTX2
 70
    0
  3
Dot (2x) .  .  .  .  .  .  .  .  .  .  .  .  .
 72
   65
 73
    2
 40
12.7
 49
0
 74
    0
 49
-12.7
 74
    0
  0
LTYPE
  5
36
330
5
100
AcDbSymbolTableRecord
100
AcDbLinetypeTableRecord
  2
DASHED
 70
    0
  3
Dashed _ _ _ _ _ _ _ _ _ _ _ _ _ _ _ _ _
 72
   65
 73
    2
 40
19.05
 49
12.7
 74
    0
 49
-6.35
 74
    0
  0
LTYPE
  5
37
330
5
100
AcDbSymbolTableRecord
100
AcDbLinetypeTableRecord
  2
DASHEDTINY
 70
    0
  3
Dashed (.15x) _ _ _ _ _ _ _ _ _ _ _ _ _ _ _ _ _
 72
   65
 73
    2
 40
2.8575
 49
1.905
 74
    0
 49
-0.9525
 74
    0
  0
LTYPE
  5
38
330
5
100
AcDbSymbolTableRecord
100
AcDbLinetypeTableRecord
  2
DASHED2
 70
    0
  3
Dashed (.5x) _ _ _ _ _ _ _ _ _ _ _ _ _ _ _ _ _
 72
   65
 73
    2
 40
9.524999999999999
 49
6.35
 74
    0
 49
-3.175
 74
    0
  0
LTYPE
  5
39
330
5
100
AcDbSymbolTableRecord
100
AcDbLinetypeTableRecord
  2
DASHEDX2
 70
    0
  3
Dashed (2x) ____  ____  ____  ____  ____  ___
 72
   65
 73
    2
 40
38.09999999999999
 49
25.4
 74
    0
 49
-12.7
 74
    0
  0
LTYPE
  5
3A
330
5
100
AcDbSymbolTableRecord
100
AcDbLinetypeTableRecord
  2
DASHDOT
 70
    0
  3
Dash dot __ . __ . __ . __ . __ . __ . __ . __
 72
   65
 73
    4
 40
25.4
 49
12.7
 74
    0
 49
-6.35
 74
    0
 49
0
 74
    0
 49
-6.35
 74
    0
  0
LTYPE
  5
3B
330
5
100
AcDbSymbolTableRecord
100
AcDbLinetypeTableRecord
  2
DASHDOTTINY
 70
    0
  3
Dash dot (.15x) _._._._._._._._._._._._._._._.
 72
   65
 73
    4
 40
3.81
 49
1.905
 74
    0
 49
-0.9525
 74
    0
 49
0
 74
    0
 49
-0.9525
 74
    0
  0
LTYPE
  5
3C
330
5
100
AcDbSymbolTableRecord
100
AcDbLinetypeTableRecord
  2
DASHDOT2
 70
    0
  3
Dash dot (.5x) _._._._._._._._._._._._._._._.
 72
   65
 73
    4
 40
12.7
 49
6.35
 74
    0
 49
-3.175
 74
    0
 49
0
 74
    0
 49
-3.175
 74
    0
  0
LTYPE
  5
3D
330
5
100
AcDbSymbolTableRecord
100
AcDbLinetypeTableRecord
  2
DASHDOTX2
 70
    0
  3
Dash dot (2x) ____  .  ____  .  ____  .  ___
 72
   65
 73
    4
 40
50.8
 49
25.4
 74
    0
 49
-12.7
 74
    0
 49
0
 74
    0
 49
-12.7
 74
    0
  0
LTYPE
  5
3E
330
5
100
AcDbSymbolTableRecord
100
AcDbLinetypeTableRecord
  2
DIVIDE
 70
    0
  3
Divide ____ . . ____ . . ____ . . ____ . . ____
 72
   65
 73
    6
 40
31.75
 49
12.7
 74
    0
 49
-6.35
 74
    0
 49
0
 74
    0
 49
-6.35
 74
    0
 49
0
 74
    0
 49
-6.35
 74
    0
  0
LTYPE
  5
3F
330
5
100
AcDbSymbolTableRecord
100
AcDbLinetypeTableRecord
  2
DIVIDETINY
 70
    0
  3
Divide (.15x) __..__..__..__..__..__..__..__.._
 72
   65
 73
    6
 40
4.7625
 49
1.905
 74
    0
 49
-0.9525
 74
    0
 49
0
 74
    0
 49
-0.9525
 74
    0
 49
0
 74
    0
 49
-0.9525
 74
    0
  0
LTYPE
  5
40
330
5
100
AcDbSymbolTableRecord
100
AcDbLinetypeTableRecord
  2
DIVIDE2
 70
    0
  3
Divide (.5x) __..__..__..__..__..__..__..__.._
 72
   65
 73
    6
 40
15.875
 49
6.35
 74
    0
 49
-3.175
 74
    0
 49
0
 74
    0
 49
-3.175
 74
    0
 49
0
 74
    0
 49
-3.175
 74
    0
  0
LTYPE
  5
41
330
5
100
AcDbSymbolTableRecord
100
AcDbLinetypeTableRecord
  2
DIVIDEX2
 70
    0
  3
Divide (2x) ________  .  .  ________  .  .  _
 72
   65
 73
    6
 40
63.5
 49
25.4
 74
    0
 49
-12.7
 74
    0
 49
0
 74
    0
 49
-12.7
 74
    0
 49
0
 74
    0
 49
-12.7
 74
    0
  0
LTYPE
  5
42
330
5
100
AcDbSymbolTableRecord
100
AcDbLinetypeTableRecord
  2
BORDER
 70
    0
  3
Border __ __ . __ __ . __ __ . __ __ . __ __ .
 72
   65
 73
    6
 40
44.45
 49
12.7
 74
    0
 49
-6.35
 74
    0
 49
12.7
 74
    0
 49
-6.35
 74
    0
 49
0
 74
    0
 49
-6.35
 74
    0
  0
LTYPE
  5
43
330
5
100
AcDbSymbolTableRecord
100
AcDbLinetypeTableRecord
  2
BORDERTINY
 70
    0
  3
Border (.15x) __.__.__.__.__.__.__.__.__.__.__.
 72
   65
 73
    6
 40
6.6675
 49
1.905
 74
    0
 49
-0.9525
 74
    0
 49
1.905
 74
    0
 49
-0.9525
 74
    0
 49
0
 74
    0
 49
-0.9525
 74
    0
  0
LTYPE
  5
44
330
5
100
AcDbSymbolTableRecord
100
AcDbLinetypeTableRecord
  2
BORDER2
 70
    0
  3
Border (.5x) __.__.__.__.__.__.__.__.__.__.__.
 72
   65
 73
    6
 40
22.225
 49
6.35
 74
    0
 49
-3.175
 74
    0
 49
6.35
 74
    0
 49
-3.175
 74
    0
 49
0
 74
    0
 49
-3.175
 74
    0
  0
LTYPE
  5
45
330
5
100
AcDbSymbolTableRecord
100
AcDbLinetypeTableRecord
  2
BORDERX2
 70
    0
  3
Border (2x) ____  ____  .  ____  ____  .  ___
 72
   65
 73
    6
 40
88.89999999999999
 49
25.4
 74
    0
 49
-12.7
 74
    0
 49
25.4
 74
    0
 49
-12.7
 74
    0
 49
0
 74
    0
 49
-12.7
 74
    0
  0
LTYPE
  5
46
330
5
100
AcDbSymbolTableRecord
100
AcDbLinetypeTableRecord
  2
CENTER
 70
    0
  3
Center ____ _ ____ _ ____ _ ____ _ ____ _ ____
 72
   65
 73
    4
 40
50.8
 49
31.75
 74
    0
 49
-6.35
 74
    0
 49
6.35
 74
    0
 49
-6.35
 74
    0
  0
LTYPE
  5
47
330
5
100
AcDbSymbolTableRecord
100
AcDbLinetypeTableRecord
  2
CENTERTINY
 70
    0
  3
Center (.15x) ___ _ ___ _ ___ _ ___ _ ___ _ ___
 72
   65
 73
    4
 40
7.619999999999999
 49
4.7625
 74
    0
 49
-0.9525
 74
    0
 49
0.9525
 74
    0
 49
-0.9525
 74
    0
  0
LTYPE
  5
48
330
5
100
AcDbSymbolTableRecord
100
AcDbLinetypeTableRecord
  2
CENTER2
 70
    0
  3
Center (.5x) ___ _ ___ _ ___ _ ___ _ ___ _ ___
 72
   65
 73
    4
 40
28.575
 49
19.05
 74
    0
 49
-3.175
 74
    0
 49
3.175
 74
    0
 49
-3.175
 74
    0
  0
LTYPE
  5
49
330
5
100
AcDbSymbolTableRecord
100
AcDbLinetypeTableRecord
  2
CENTERX2
 70
    0
  3
Center (2x) ________  __  ________  __  _____
 72
   65
 73
    4
 40
101.6
 49
63.5
 74
    0
 49
-12.7
 74
    0
 49
12.7
 74
    0
 49
-12.7
 74
    0
  0
ENDTAB
  0
TABLE
  2
LAYER
  5
2
330
0
100
AcDbSymbolTable
 70
    1
  0
LAYER
  5
10
330
2
100
AcDbSymbolTableRecord
100
AcDbLayerTableRecord
  2
0
 70
    0
 62
    7
  6
CONTINUOUS
370
    0
390
F
  0
LAYER
  5
4A
330
2
100
AcDbSymbolTableRecord
100
AcDbLayerTableRecord
  2
border
 70
    0
 62
   16
420
8388608
  6
CONTINUOUS
370
    0
390
F
  0
LAYER
  5
4B
330
2
100
AcDbSymbolTableRecord
100
AcDbLayerTableRecord
  2
case1
 70
    0
 62
    7
  6
CONTINUOUS
370
    0
390
F
  0
LAYER
  5
4C
330
2
100
AcDbSymbolTableRecord
100
AcDbLayerTableRecord
  2
construction1
 70
    0
 62
    2
  6
CONTINUOUS
370
    0
390
F
  0
LAYER
  5
4D
330
2
100
AcDbSymbolTableRecord
100
AcDbLayerTableRecord
  2
dimensions
 70
    0
 62
   56
420
8421376
  6
CONTINUOUS
370
    0
390
F
  0
LAYER
  5
4E
330
2
100
AcDbSymbolTableRecord
100
AcDbLayerTableRecord
  2
handle1
 70
    0
 62
    7
  6
CONTINUOUS
370
    0
390
F
  0
LAYER
  5
4F
330
2
100
AcDbSymbolTableRecord
100
AcDbLayerTableRecord
  2
handle3
 70
    0
 62
    7
  6
CONTINUOUS
370
    0
390
F
  0
LAYER
  5
50
330
2
100
AcDbSymbolTableRecord
100
AcDbLayerTableRecord
  2
handle4
 70
    0
 62
    7
  6
CONTINUOUS
370
    0
390
F
  0
LAYER
  5
51
330
2
100
AcDbSymbolTableRecord
100
AcDbLayerTableRecord
  2
handle9
 70
    0
 62
    7
  6
CONTINUOUS
370
    0
390
F
  0
LAYER
  5
52
330
2
100
AcDbSymbolTableRecord
100
AcDbLayerTableRecord
  2
pot
 70
    0
 62
    7
  6
CONTINUOUS
370
    0
390
F
  0
LAYER
  5
53
330
2
100
AcDbSymbolTableRecord
100
AcDbLayerTableRecord
  2
trigger
 70
    0
 62
    7
  6
CONTINUOUS
370
    0
390
F
  0
ENDTAB
  0
TABLE
  2
STYLE
  5
3
330
0
100
AcDbSymbolTable
 70
    3
  0
STYLE
  5
54
330
2
100
AcDbSymbolTableRecord
100
AcDbTextStyleTableRecord
  2
Standard
 70
    0
 40
0
 41
1
 50
0
 71
    0
 42
1
  3
txt
  4

  0
ENDTAB
  0
TABLE
  2
VIEW
  5
6
330
0
100
AcDbSymbolTable
 70
    0
  0
ENDTAB
  0
TABLE
  2
UCS
  5
7
330
0
100
AcDbSymbolTable
 70
    0
  0
ENDTAB
  0
TABLE
  2
APPID
  5
9
330
0
100
AcDbSymbolTable
 70
    1
  0
APPID
  5
12
330
9
100
AcDbSymbolTableRecord
100
AcDbRegAppTableRecord
  2
ACAD
 70
    0
  0
APPID
  5
55
330
9
100
AcDbSymbolTableRecord
100
AcDbRegAppTableRecord
  2
LibreCad
 70
    0
  0
ENDTAB
  0
TABLE
  2
DIMSTYLE
  5
A
330
0
100
AcDbSymbolTable
 70
    1
100
AcDbDimStyleTable
 71
    1
  0
DIMSTYLE
105
56
330
A
100
AcDbSymbolTableRecord
100
AcDbDimStyleTableRecord
  2
Standard
 70
    0
 40
1
 41
2.5
 42
0.625
 43
0.38
 44
1.25
 45
0
 46
0
 47
0
 48
0
 49
1
140
2.5
141
0.09
142
0
143
25.4
144
1
145
0
146
1
147
0.625
148
0
 71
    0
 72
    0
 73
    0
 74
    1
 75
    0
 76
    0
 77
    0
 78
    8
 79
    0
170
    0
171
    2
172
    0
173
    0
174
    0
175
    0
176
    0
177
    0
178
    0
179
    0
271
    2
272
    4
273
    2
274
    2
275
    0
276
    0
277
    2
278
   44
279
    0
280
    0
281
    0
282
    0
283
    1
284
    0
285
    0
286
    0
288
    0
289
    3
340
STANDARD
341

371
   -2
372
   -2
  0
ENDTAB
  0
TABLE
  2
BLOCK_RECORD
  5
1
330
0
100
AcDbSymbolTable
 70
    2
  0
BLOCK_RECORD
  5
1F
330
1
100
AcDbSymbolTableRecord
100
AcDbBlockTableRecord
  2
*Model_Space
 70
    0
280
    1
281
    0
  0
BLOCK_RECORD
  5
1E
330
1
100
AcDbSymbolTableRecord
100
AcDbBlockTableRecord
  2
*Paper_Space
 70
    0
280
    1
281
    0
  0
BLOCK_RECORD
  5
57
330
1
100
AcDbSymbolTableRecord
100
AcDbBlockTableRecord
  2
*D2
 70
    0
280
    1
281
    0
  0
BLOCK_RECORD
  5
5A
330
1
100
AcDbSymbolTableRecord
100
AcDbBlockTableRecord
  2
*D1
 70
    0
280
    1
281
    0
  0
ENDTAB
  0
ENDSEC
  0
SECTION
  2
BLOCKS
  0
BLOCK
  5
20
330
1F
100
AcDbEntity
  8
0
100
AcDbBlockBegin
  2
*Model_Space
 70
    0
 10
0
 20
0
 30
0
  3
*Model_Space
  1

  0
ENDBLK
  5
21
330
1F
100
AcDbEntity
  8
0
100
AcDbBlockEnd
  0
BLOCK
  5
1C
330
1B
100
AcDbEntity
  8
0
100
AcDbBlockBegin
  2
*Paper_Space
 70
    0
 10
0
 20
0
 30
0
  3
*Paper_Space
  1

  0
ENDBLK
  5
1D
330
1F
100
AcDbEntity
  8
0
100
AcDbBlockEnd
  0
BLOCK
  5
58
330
57
100
AcDbEntity
  8
0
100
AcDbBlockBegin
  2
*D2
 70
    1
 10
0
 20
0
  3
*D2
  1

  0
LINE
  5
5D
100
AcDbEntity
  8
construction1
  6
ByBlock
 62
    0
370
   -2
100
AcDbLine
 10
85.44616443837012
 20
-85.59650948114574
 11
86.52798275033432
 21
-88.27410368604437
  0
LINE
  5
5E
100
AcDbEntity
  8
construction1
  6
ByBlock
 62
    0
370
   -2
100
AcDbLine
 10
88.22771599087054
 20
-84.472689673177
 11
89.30953430283473
 21
-87.15028387807563
  0
LINE
  5
5F
100
AcDbEntity
  8
construction1
  6
ByBlock
 62
    0
370
   -2
100
AcDbLine
 10
81.42380524284675
 20
-88.98815688578375
 11
93.4771953036817
 21
-84.11827105125261
  0
SOLID
  5
60
100
AcDbEntity
  8
construction1
  6
ByBlock
 62
    0
370
   -2
100
AcDbTrace
 10
86.05972449701402
 20
-87.11512387250255
 30
0
 11
83.89770785131658
 21
-88.43761279117986
 31
0
 12
83.58582188854419
 22
-87.66566796710644
 32
0
 13
83.58582188854419
 23
-87.66566796710644
 33
0
  0
SOLID
  5
61
100
AcDbEntity
  8
construction1
  6
ByBlock
 62
    0
370
   -2
100
AcDbTrace
 10
88.84127604951443
 20
-85.99130406453381
 30
0
 11
91.00329269521187
 21
-84.6688151458565
 31
0
 12
91.31517865798426
 22
-85.44075996992991
 32
0
 13
91.31517865798426
 23
-85.44075996992991
 33
0
  0
MTEXT
  5
62
100
AcDbEntity
  8
construction1
  6
CONTINUOUS
 62
    0
370
   -2
100
AcDbMText
 10
89.20646872321527
 20
-90.89938826929998
 30
0
 40
2.5
 41
1.111111111111266
 71
    5
 72
    1
  1
3
  7
STANDARD
210
0
220
0
230
1
 50
22.00000057101058
 73
    2
 44
1
  0
ENDBLK
  5
59
330
57
100
AcDbEntity
  8
0
100
AcDbBlockEnd
  0
BLOCK
  5
5B
330
5A
100
AcDbEntity
  8
0
100
AcDbBlockBegin
  2
*D1
 70
    1
 10
0
 20
0
  3
*D1
  1

  0
LINE
  5
63
100
AcDbEntity
  8
construction1
  6
ByBlock
 62
    0
370
   -2
100
AcDbLine
 10
25.24322704268544
 20
-33.36341251151909
 11
27.06708470119661
 21
-28.84927671754338
  0
LINE
  5
64
100
AcDbEntity
  8
construction1
  6
ByBlock
 62
    0
370
   -2
100
AcDbLine
 10
28.02477252589485
 20
-34.4872473413926
 11
29.84863018440602
 21
-29.97311154741689
  0
LINE
  5
65
100
AcDbEntity
  8
construction1
  6
ByBlock
 62
    0
370
   -2
100
AcDbLine
 10
21.96291105006682
 20
-28.13519595242475
 11
34.01627481064119
 21
-33.00514688187675
  0
SOLID
  5
66
100
AcDbEntity
  8
construction1
  6
ByBlock
 62
    0
370
   -2
100
AcDbTrace
 10
26.5988201887493
 20
-30.008254002214
 30
0
 11
24.12492055355902
 21
-29.45769654717185
 31
0
 12
24.43681068525709
 22
-28.68575340746689
 32
0
 13
24.43681068525709
 23
-28.68575340746689
 33
0
  0
SOLID
  5
67
100
AcDbEntity
  8
construction1
  6
ByBlock
 62
    0
370
   -2
100
AcDbTrace
 10
29.38036567195871
 20
-31.13208883208751
 30
0
 11
31.85426530714898
 21
-31.68264628712965
 31
0
 12
31.54237517545091
 22
-32.45458942683462
 32
0
 13
31.54237517545091
 23
-32.45458942683462
 33
0
  0
MTEXT
  5
68
100
AcDbEntity
  8
construction1
  6
CONTINUOUS
 62
    0
370
   -2
100
AcDbMText
 10
29.74558485203137
 20
-26.22400659963591
 30
0
 40
2.5
 41
1.111111111111266
 71
    5
 72
    1
  1
3
  7
STANDARD
210
0
220
0
230
1
 50
337.99969
 73
    2
 44
1
  0
ENDBLK
  5
5C
330
5A
100
AcDbEntity
  8
0
100
AcDbBlockEnd
  0
ENDSEC
  0
SECTION
  2
ENTITIES
  0
ARC
  5
69
100
AcDbEntity
  8
handle9
  6
ByLayer
 62
  256
370
   -1
100
AcDbCircle
 10
85.51719909362519
 20
-47.60086346923049
 40
32.52597293708969
100
AcDbArc
 50
125.1288662052149
 51
175.9354260707858
  0
SPLINE
  5
6A
100
AcDbEntity
  8
handle9
  6
ByLayer
 62
  256
370
   -1
100
AcDbSpline
210
0
220
0
230
0
 70
    8
 71
    2
 72
   10
 73
    7
 74
    0
 42
1e-07
 43
1e-07
 40
0
 40
0
 40
0
 40
0.2
 40
0.4
 40
0.6
 40
0.8
 40
1
 40
1
 40
1
 10
13.02772168714551
 20
-23.46843047748999
 30
0
 10
17.76808021005248
 20
-24.08661314302509
 30
0
 10
22.23762530906099
 20
-24.70639414631592
 30
0
 10
24.26554052049959
 20
-25.37492450117261
 30
0
 10
24.32605337061669
 20
-28.1980676608076
 30
0
 10
21.63453406818509
 20
-37.87725967747059
 30
0
 10
17.07303550854168
 20
-45.29520458657132
 30
0
  0
ARC
  5
6B
100
AcDbEntity
  8
handle9
  6
ByLayer
 62
  256
370
   -1
100
AcDbCircle
 10
-55.35135981159929
 20
-99.3673368106229
 40
145.1303352441764
100
AcDbArc
 50
32.68259845427928
 51
38.20739148355526
  0
LINE
  5
6C
100
AcDbEntity
  8
handle9
  6
ByLayer
 62
  256
370
   -1
100
AcDbLine
 10
9.854132700131393
 20
-22.9746840829516
 11
13.02772168714551
 21
-23.46843047748999
  0
ARC
  5
6D
100
AcDbEntity
  8
handle9
  6
ByLayer
 62
  256
370
   -1
100
AcDbCircle
 10
54.35202348279298
 20
-10.16408009155671
 40
3.5
100
AcDbArc
 50
44.2073248295368
 51
98.83311680187342
  0
SPLINE
  5
6E
100
AcDbEntity
  8
handle9
  6
ByLayer
 62
  256
370
   -1
100
AcDbSpline
210
0
220
0
230
0
 70
    8
 71
    2
 72
    8
 73
    5
 74
    0
 42
1e-07
 43
1e-07
 40
0
 40
0
 40
0
 40
0.3333333333333333
 40
0.6666666666666666
 40
1
 40
1
 40
1
 10
9.854132700131393
 20
-22.9746840829516
 30
0
 10
8.05654184455229
 20
-22.68755492828581
 30
0
 10
5.675009787242393
 20
-22.23075645506509
 30
0
 10
3.499849827744887
 20
-21.8247514508071
 30
0
 10
2.136451256359285
 20
-21.2963687775306
 30
0
  0
ARC
  5
6F
100
AcDbEntity
  8
handle9
  6
ByLayer
 62
  256
370
   -1
100
AcDbCircle
 10
3.488872138639484
 20
-18.0682179512568
 40
3.5
100
AcDbArc
 50
98.83314334081139
 51
247.2689478552649
  0
LINE
  5
70
100
AcDbEntity
  8
handle9
  6
ByLayer
 62
  256
370
   -1
100
AcDbLine
 10
58.68873535960079
 20
-9.602806502540515
 11
56.8608986436742
 21
-7.723681471020795
  0
CIRCLE
  5
71
100
AcDbEntity
  8
handle1
  6
ByLayer
 62
  256
370
   -1
100
AcDbCircle
 10
55.1726755543292
 20
-111.8238787592176
 40
1.6
  0
CIRCLE
  5
72
100
AcDbEntity
  8
handle1
  6
ByLayer
 62
  256
370
   -1
100
AcDbCircle
 10
14.97267555492251
 20
-111.8236612562864
 40
1.6
  0
CIRCLE
  5
73
100
AcDbEntity
  8
handle1
  6
ByLayer
 62
  256
370
   -1
100
AcDbCircle
 10
60.36714202309749
 20
-18.399609533622
 40
1.6
  0
CIRCLE
  5
74
100
AcDbEntity
  8
handle1
  6
ByLayer
 62
  256
370
   -1
100
AcDbCircle
 10
54.35202348279298
 20
-10.16408009155671
 40
1.6
  0
CIRCLE
  5
75
100
AcDbEntity
  8
handle1
  6
ByLayer
 62
  256
370
   -1
100
AcDbCircle
 10
3.488872138639484
 20
-18.0682179512568
 40
1.6
  0
LINE
  5
76
100
AcDbEntity
  8
handle3
  6
ByLayer
 62
  256
370
   -1
100
AcDbLine
 10
25.00909478646178
 20
-33.94290115385439
 11
22.7614251267146
 21
-39.50599212027331
  0
LINE
  5
77
100
AcDbEntity
  8
handle9
  6
ByLayer
 62
  256
370
   -1
100
AcDbLine
 10
53.56404575464449
 20
-105.2382193785946
 11
53.07303550801461
 21
-45.29539936531592
  0
ARC
  5
78
100
AcDbEntity
  8
handle9
  6
ByLayer
 62
  256
370
   -1
100
AcDbCircle
 10
55.16399999800239
 20
-105.2261190000267
 40
1.6
100
AcDbArc
 50
180.4333170196897
 51
244.966715278985
  0
SPLINE
  5
79
100
AcDbEntity
  8
handle9
  6
ByLayer
 62
  256
370
   -1
100
AcDbSpline
210
0
220
0
230
0
 70
    8
 71
    2
 72
    8
 73
    5
 74
    0
 42
1e-07
 43
1e-07
 40
0
 40
0
 40
0
 40
0.3333333333333333
 40
0.6666666666666666
 40
1
 40
1
 40
1
 10
35.07263694404011
 20
-118.9599751784766
 30
0
 10
50.81343657510569
 20
-118.9600542062248
 30
0
 10
59.13474807299888
 20
-114.6042106841182
 30
0
 10
58.52347250769309
 20
-108.4974333187385
 30
0
 10
54.48696849409171
 20
-106.6758183973898
 30
0
  0
ARC
  5
7A
100
AcDbEntity
  8
handle9
  6
ByLayer
 62
  256
370
   -1
100
AcDbCircle
 10
14.98142250588008
 20
-105.2259015913602
 40
1.6
100
AcDbArc
 50
295.0326647210154
 51
359.5660629803104
  0
SPLINE
  5
7B
100
AcDbEntity
  8
handle9
  6
ByLayer
 62
  256
370
   -1
100
AcDbSpline
210
0
220
0
230
0
 70
    8
 71
    2
 72
    8
 73
    5
 74
    0
 42
1e-07
 43
1e-07
 40
0
 40
0
 40
0
 40
0.3333333333333333
 40
0.6666666666666666
 40
1
 40
1
 40
1
 10
35.07263694404019
 20
-118.9599751784766
 30
0
 10
19.33183731304119
 20
-118.959883874381
 30
0
 10
11.01057295039799
 20
-114.6039503072735
 30
0
 10
11.62191459735847
 20
-108.4971795568896
 30
0
 10
15.65843832249387
 20
-106.6756083148244
 30
0
  0
LINE
  5
7C
100
AcDbEntity
  8
handle9
  6
ByLayer
 62
  256
370
   -1
100
AcDbLine
 10
17.07303550854168
 20
-45.29520458657132
 11
16.58137661820549
 21
-105.2380192830984
  0
LINE
  5
7D
100
AcDbEntity
  8
handle3
  6
ByLayer
 62
  256
370
   -1
100
AcDbLine
 10
22.76142519951559
 20
-39.50599194008751
 11
25.5429705987241
 21
-40.62982697786779
  0
LINE
  5
7E
100
AcDbEntity
  8
handle3
  6
ByLayer
 62
  256
370
   -1
100
AcDbLine
 10
27.79064026967119
 20
-35.06673598372791
 11
25.00909478646178
 21
-33.94290115385439
  0
LINE
  5
7F
100
AcDbEntity
  8
handle3
  6
ByLayer
 62
  256
370
   -1
100
AcDbLine
 10
25.5429706099241
 20
-40.62982695014691
 11
27.79064026967119
 21
-35.06673598372791
  0
DIMENSION
  5
80
100
AcDbEntity
  8
construction1
  6
ByLayer
 62
  256
370
   -1
100
AcDbDimension
  2
*D1
 10
29.38036567195871
 20
-31.13208883208751
 30
0
 11
29.74558485203137
 21
-26.22400659963591
 31
0
 70
   33
 71
    5
 72
    0
  3
Standard
 53
0
210
0
220
0
230
1
100
AcDbAlignedDimension
 13
25.00909478646178
 23
-33.94290115385439
 33
0
 14
27.79064026967119
 24
-35.06673598372791
 34
0
  0
ARC
  5
81
100
AcDbEntity
  8
handle9
  6
ByLayer
 62
  256
370
   -1
100
AcDbCircle
 10
145.7202135146754
 20
-71.35938463954832
 40
32.52597293708969
100
AcDbArc
 50
184.0642639292142
 51
234.870823794785
  0
SPLINE
  5
82
100
AcDbEntity
  8
handle9
  6
ByLayer
 62
  256
370
   -1
100
AcDbSpline
210
0
220
0
230
0
 70
    8
 71
    2
 72
   10
 73
    7
 74
    0
 42
1e-07
 43
1e-07
 40
0
 40
0
 40
0
 40
0.2
 40
0.4
 40
0.6
 40
0.8
 40
1
 40
1
 40
1
 10
73.23060554022888
 20
-95.49142542511895
 30
0
 10
77.97096740775669
 20
-94.87326840740074
 30
0
 10
82.44051586003778
 20
-94.25351158668529
 30
0
 10
84.46843468854397
 20
-93.58499220391542
 30
0
 10
84.52896281333469
 20
-90.76184937172789
 30
0
 10
81.83749588041098
 20
-81.08264279268573
 30
0
 10
77.27603745577858
 20
-73.6646732036111
 30
0
  0
ARC
  5
83
100
AcDbEntity
  8
handle9
  6
ByLayer
 62
  256
370
   -1
100
AcDbCircle
 10
4.851934695087401
 20
-19.59214912666228
 40
145.1303352441764
100
AcDbArc
 50
321.7922985164448
 51
327.3170915457207
  0
LINE
  5
84
100
AcDbEntity
  8
handle9
  6
ByLayer
 62
  256
370
   -1
100
AcDbLine
 10
70.05701388183618
 20
-95.98515464888125
 11
73.23060554022888
 21
-95.49142542511895
  0
LINE
  5
85
100
AcDbEntity
  8
handle9
  6
ByLayer
 62
  256
370
   -1
100
AcDbLine
 10
63.154258547804
 20
-104.3500727016551
 11
114.0173671257116
 21
-112.2544857573718
  0
ARC
  5
86
100
AcDbEntity
  8
handle9
  6
ByLayer
 62
  256
370
   -1
100
AcDbCircle
 10
114.5548353518087
 20
-108.795999396847
 40
3.5
100
AcDbArc
 50
261.1665731981266
 51
315.7923651704632
  0
SPLINE
  5
87
100
AcDbEntity
  8
handle9
  6
ByLayer
 62
  256
370
   -1
100
AcDbSpline
210
0
220
0
230
0
 70
    8
 71
    2
 72
    8
 73
    5
 74
    0
 42
1e-07
 43
1e-07
 40
0
 40
0
 40
0
 40
0.3333333333333333
 40
0.6666666666666666
 40
1
 40
1
 40
1
 10
70.05701388183618
 20
-95.98515464888125
 30
0
 10
68.25942147276507
 20
-96.27227407764035
 30
0
 10
65.87788694397258
 20
-96.72905966552595
 30
0
 10
63.70272478780836
 20
-97.13505290103005
 30
0
 10
62.33932335761741
 20
-97.66342819760261
 30
0
  0
ARC
  5
88
100
AcDbEntity
  8
handle9
  6
ByLayer
 62
  256
370
   -1
100
AcDbCircle
 10
63.69172677390096
 20
-100.8915863411303
 40
3.5
100
AcDbArc
 50
112.7307421447351
 51
261.1665466591886
  0
LINE
  5
89
100
AcDbEntity
  8
handle9
  6
ByLayer
 62
  256
370
   -1
100
AcDbLine
 10
118.8915441917707
 20
-109.3572964497241
 11
117.063697308826
 21
-111.2364115916681
  0
CIRCLE
  5
8A
100
AcDbEntity
  8
handle1
  6
ByLayer
 62
  256
370
   -1
100
AcDbCircle
 10
115.376037455776
 20
-7.136205170829101
 40
1.6
  0
CIRCLE
  5
8B
100
AcDbEntity
  8
handle1
  6
ByLayer
 62
  256
370
   -1
100
AcDbCircle
 10
75.17603745578089
 20
-7.136205170828987
 40
1.6
  0
CIRCLE
  5
8C
100
AcDbEntity
  8
handle1
  6
ByLayer
 62
  256
370
   -1
100
AcDbCircle
 10
120.5699984505275
 20
-100.5605024998255
 40
1.6
  0
CIRCLE
  5
8D
100
AcDbEntity
  8
handle1
  6
ByLayer
 62
  256
370
   -1
100
AcDbCircle
 10
114.5548353518087
 20
-108.795999396847
 40
1.6
  0
CIRCLE
  5
8E
100
AcDbEntity
  8
handle1
  6
ByLayer
 62
  256
370
   -1
100
AcDbCircle
 10
63.69172677390096
 20
-100.8915863411303
 40
1.6
  0
LINE
  5
8F
100
AcDbEntity
  8
handle3
  6
ByLayer
 62
  256
370
   -1
100
AcDbLine
 10
85.21203531170997
 20
-85.01701957437484
 11
82.96439575121448
 21
-79.45391644697409
  0
LINE
  5
90
100
AcDbEntity
  8
handle9
  6
ByLayer
 62
  256
370
   -1
100
AcDbLine
 10
113.7673720242686
 20
-13.72185584783091
 11
113.2760374557785
 21
-73.66467320361124
  0
ARC
  5
91
100
AcDbEntity
  8
handle9
  6
ByLayer
 62
  256
370
   -1
100
AcDbCircle
 10
115.3673262021337
 20
-13.73396488298408
 40
1.6
100
AcDbArc
 50
115.0329747210151
 51
179.5663729803103
  0
SPLINE
  5
92
100
AcDbEntity
  8
handle9
  6
ByLayer
 62
  256
370
   -1
100
AcDbSpline
210
0
220
0
230
0
 70
    8
 71
    2
 72
    8
 73
    5
 74
    0
 42
1e-07
 43
1e-07
 40
0
 40
0
 40
0
 40
0.3333333333333333
 40
0.6666666666666666
 40
1
 40
1
 40
1
 10
95.27603745577846
 20
-5.684341886080801e-14
 30
0
 10
111.0168370870412
 20
-6.138173716863093e-06
 30
0
 10
119.3381250174311
 20
-4.355894682844564
 30
0
 10
118.7268164112891
 20
-10.46266874081562
 30
0
 10
114.6903025418615
 20
-12.28426182254924
 30
0
  0
ARC
  5
93
100
AcDbEntity
  8
handle9
  6
ByLayer
 62
  256
370
   -1
100
AcDbCircle
 10
75.18474870942327
 20
-13.73396488298397
 40
1.6
100
AcDbArc
 50
0.4336270196895056
 51
64.96702527898462
  0
SPLINE
  5
94
100
AcDbEntity
  8
handle9
  6
ByLayer
 62
  256
370
   -1
100
AcDbSpline
210
0
220
0
230
0
 70
    8
 71
    2
 72
    8
 73
    5
 74
    0
 42
1e-07
 43
1e-07
 40
0
 40
0
 40
0
 40
0.3333333333333333
 40
0.6666666666666666
 40
1
 40
1
 40
1
 10
95.27603745577846
 20
0
 30
0
 10
79.53523782451578
 20
-6.138173603176256e-06
 30
0
 10
71.21394989412579
 20
-4.35589468284445
 30
0
 10
71.82525850026786
 20
-10.46266874081556
 30
0
 10
75.86177236969539
 20
-12.28426182254924
 30
0
  0
LINE
  5
95
100
AcDbEntity
  8
handle9
  6
ByLayer
 62
  256
370
   -1
100
AcDbLine
 10
77.27603745577858
 20
-73.6646732036111
 11
76.78470288728829
 21
-13.72185584783085
  0
CIRCLE
  5
96
100
AcDbEntity
  8
pot
  6
ByLayer
 62
  256
370
   -1
100
AcDbCircle
 10
103.8253743130657
 20
-100.8482403433244
 40
6
  0
LINE
  5
97
100
AcDbEntity
  8
handle3
  6
ByLayer
 62
  256
370
   -1
100
AcDbLine
 10
87.99358687541039
 20
-83.89319979412704
 11
85.21203531170997
 21
-85.01701957437484
  0
LINE
  5
98
100
AcDbEntity
  8
handle3
  6
ByLayer
 62
  256
370
   -1
100
AcDbLine
 10
82.96439582401447
 20
-79.45391662716037
 11
85.74594730371487
 21
-78.33009663900538
  0
LINE
  5
99
100
AcDbEntity
  8
handle3
  6
ByLayer
 62
  256
370
   -1
100
AcDbLine
 10
85.74594730371487
 20
-78.33009663900538
 11
87.99358686421039
 21
-83.8931997664061
  0
DIMENSION
  5
9A
100
AcDbEntity
  8
construction1
  6
ByLayer
 62
  256
370
   -1
100
AcDbDimension
  2
*D2
 10
88.84127604951443
 20
-85.99130406453381
 30
0
 11
89.20646872321527
 21
-90.89938826929998
 31
0
 70
   33
 71
    5
 72
    0
  3
Standard
 53
0
210
0
220
0
230
1
100
AcDbAlignedDimension
 13
85.21203531170997
 23
-85.01701957437484
 33
0
 14
87.99358686421039
 24
-83.8931997664061
 34
0
  0
LINE
  5
9B
100
AcDbEntity
  8
handle4
  6
ByLayer
 62
  256
370
   -1
100
AcDbLine
 10
92.77584925674608
 20
-59.76449992278145
 11
92.77573755567397
 21
-67.76449992200156
  0
LINE
  5
9C
100
AcDbEntity
  8
handle4
  6
ByLayer
 62
  256
370
   -1
100
AcDbLine
 10
107.775849255284
 20
-59.76470936229163
 11
107.7757375542118
 21
-67.76470936151182
  0
ARC
  5
9D
100
AcDbEntity
  8
handle4
  6
ByLayer
 62
  256
370
   -1
100
AcDbCircle
 10
94.77573755547897
 20
-67.76452784726968
 40
2
100
AcDbArc
 50
179.9991999999999
 51
269.9992
  0
LINE
  5
9E
100
AcDbEntity
  8
handle4
  6
ByLayer
 62
  256
370
   -1
100
AcDbLine
 10
94.77570963021088
 20
-69.7645278470747
 11
105.7757096291388
 21
-69.76468143604887
  0
ARC
  5
9F
100
AcDbEntity
  8
handle4
  6
ByLayer
 62
  256
370
   -1
100
AcDbCircle
 10
105.7757375544068
 20
-67.76468143624373
 40
2
100
AcDbArc
 50
269.9992
 51
359.9991999999999
  0
ARC
  5
A0
100
AcDbEntity
  8
handle4
  6
ByLayer
 62
  256
370
   -1
100
AcDbCircle
 10
105.7758492554789
 20
-59.76468143702363
 40
2
100
AcDbArc
 50
359.9991999999999
 51
89.99919999999999
  0
LINE
  5
A1
100
AcDbEntity
  8
handle4
  6
ByLayer
 62
  256
370
   -1
100
AcDbLine
 10
94.77587718181917
 20
-57.76452784824443
 11
105.775877180747
 21
-57.76468143721848
  0
ARC
  5
A2
100
AcDbEntity
  8
handle4
  6
ByLayer
 62
  256
370
   -1
100
AcDbCircle
 10
94.77584925655117
 20
-59.76452784804945
 40
2
100
AcDbArc
 50
89.99919999999999
 51
179.9991999999999
  0
ARC
  5
A3
100
AcDbEntity
  8
handle9
  6
ByLayer
 62
  256
370
   -1
100
AcDbCircle
 10
15.75953399654414
 20
-15.65528639921217
 40
3
100
AcDbArc
 50
98.83342680187347
 51
138.3558512805861
  0
ARC
  5
A4
100
AcDbEntity
  8
handle9
  6
ByLayer
 62
  256
370
   -1
100
AcDbCircle
 10
11.08899470587112
 20
-11.50214749781777
 40
3.25
100
AcDbArc
 50
239.3110023231499
 51
318.3558512805864
  0
ARC
  5
A5
100
AcDbEntity
  8
handle9
  6
ByLayer
 62
  256
370
   -1
100
AcDbCircle
 10
7.899133494307454
 20
-16.87683683311593
 40
3
100
AcDbArc
 50
59.31100232314992
 51
98.83342680187327
  0
LINE
  5
A6
100
AcDbEntity
  8
handle9
  6
ByLayer
 62
  256
370
   -1
100
AcDbLine
 10
15.29884694560379
 20
-12.69086951876234
 11
53.81457396891576
 21
-6.70559082309958
  0
LINE
  5
A7
100
AcDbEntity
  8
handle9
  6
ByLayer
 62
  256
370
   -1
100
AcDbLine
 10
7.438446443367121
 20
-13.9124199526661
 11
2.951421022818288
 21
-14.60972893174227
  0
ENDSEC
  0
SECTION
  2
OBJECTS
  0
DICTIONARY
  5
C
330
0
100
AcDbDictionary
281
    1
  3
ACAD_GROUP
350
D
  0
DICTIONARY
  5
D
330
C
100
AcDbDictionary
281
    1
  0
ENDSEC
  0
EOF
