999
dxfrw 0.6.3
  0
SECTION
  2
HEADER
  9
$ACADVER
  1
AC1021
  9
$DWGCODEPAGE
  3
ANSI_1252
  9
$INSBASE
 10
0
 20
0
 30
0
  9
$EXTMIN
 10
-1.243449787580175e-14
 20
-111.1018641407463
 30
0
  9
$EXTMAX
 10
169.3483781164747
 20
0.0004774842279857694
 30
0
  9
$LIMMIN
 10
0
 20
0
  9
$LIMMAX
 10
420
 20
297
  9
$ORTHOMODE
 70
    0
  9
$REGENMODE
 70
    1
  9
$FILLMODE
 70
    1
  9
$QTEXTMODE
 70
    0
  9
$MIRRTEXT
 70
    0
  9
$LTSCALE
 40
1
  9
$ATTMODE
 70
    0
  9
$TEXTSIZE
 40
2.5
  9
$TRACEWID
 40
15.68
  9
$TEXTSTYLE
  7
STANDARD
  9
$CLAYER
  8
0
  9
$CELTYPE
  6
BYLAYER
  9
$CECOLOR
 62
  256
  9
$CELTSCALE
 40
1
  9
$DISPSILH
 70
    0
  9
$DIMSCALE
 40
1
  9
$DIMASZ
 40
2.5
  9
$DIMEXO
 40
0.625
  9
$DIMDLI
 40
3.75
  9
$DIMRND
 40
0
  9
$DIMDLE
 40
0
  9
$DIMEXE
 40
1.25
  9
$DIMTP
 40
0
  9
$DIMTM
 40
0
  9
$DIMTXT
 40
2.5
  9
$DIMCEN
 40
2.5
  9
$DIMTSZ
 40
0
  9
$DIMTOL
 70
    0
  9
$DIMLIM
 70
    0
  9
$DIMTIH
 70
    0
  9
$DIMTOH
 70
    0
  9
$DIMSE1
 70
    0
  9
$DIMSE2
 70
    0
  9
$DIMTAD
 70
    1
  9
$DIMZIN
 70
    8
  9
$DIMBLK
  1

  9
$DIMASO
 70
    1
  9
$DIMSHO
 70
    1
  9
$DIMPOST
  1

  9
$DIMAPOST
  1

  9
$DIMALT
 70
    0
  9
$DIMALTD
 70
    3
  9
$DIMALTF
 40
0.03937
  9
$DIMLFAC
 40
1
  9
$DIMTOFL
 70
    1
  9
$DIMTVP
 40
0
  9
$DIMTIX
 70
    0
  9
$DIMSOXD
 70
    0
  9
$DIMSAH
 70
    0
  9
$DIMBLK1
  1

  9
$DIMBLK2
  1

  9
$DIMSTYLE
  2
STANDARD
  9
$DIMCLRD
 70
    0
  9
$DIMCLRE
 70
    0
  9
$DIMCLRT
 70
    0
  9
$DIMTFAC
 40
1
  9
$DIMGAP
 40
0.625
  9
$DIMJUST
 70
    0
  9
$DIMSD1
 70
    0
  9
$DIMSD2
 70
    0
  9
$DIMTOLJ
 70
    0
  9
$DIMTZIN
 70
    8
  9
$DIMALTZ
 70
    0
  9
$DIMALTTZ
 70
    0
  9
$DIMUPT
 70
    0
  9
$DIMDEC
 70
    2
  9
$DIMTDEC
 70
    2
  9
$DIMALTU
 70
    2
  9
$DIMALTTD
 70
    3
  9
$DIMTXSTY
  7
STANDARD
  9
$DIMAUNIT
 70
    0
  9
$DIMADEC
 70
    0
  9
$DIMALTRND
 40
0
  9
$DIMAZIN
 70
    0
  9
$DIMDSEP
 70
   44
  9
$DIMATFIT
 70
    3
  9
$DIMFRAC
 70
    0
  9
$DIMLDRBLK
  1
STANDARD
  9
$DIMLUNIT
 70
    2
  9
$DIMLWD
 70
   -2
  9
$DIMLWE
 70
   -2
  9
$DIMTMOVE
 70
    0
  9
$DIMFXL
 40
1
  9
$DIMFXLON
 70
    0
  9
$DIMJOGANG
 40
0.7854
  9
$DIMTFILL
 70
    0
  9
$DIMTFILLCLR
 70
    0
  9
$DIMARCSYM
 70
    0
  9
$DIMLTYPE
  6

  9
$DIMLTEX1
  6

  9
$DIMLTEX2
  6

  9
$LUNITS
 70
    2
  9
$LUPREC
 70
    4
  9
$SKETCHINC
 40
1
  9
$FILLETRAD
 40
0
  9
$AUNITS
 70
    0
  9
$AUPREC
 70
    2
  9
$MENU
  1
.
  9
$ELEVATION
 40
0
  9
$PELEVATION
 40
0
  9
$THICKNESS
 40
0
  9
$LIMCHECK
 70
    0
  9
$CHAMFERA
 40
0
  9
$CHAMFERB
 40
0
  9
$CHAMFERC
 40
0
  9
$CHAMFERD
 40
0
  9
$SKPOLY
 70
    0
  9
$USRTIMER
 70
    1
  9
$ANGBASE
 50
0
  9
$ANGDIR
 70
    0
  9
$PDMODE
 70
   34
  9
$PDSIZE
 40
0
  9
$PLINEWID
 40
0
  9
$SPLFRAME
 70
    0
  9
$SPLINETYPE
 70
    2
  9
$SPLINESEGS
 70
    8
  9
$HANDSEED
  5
20000
  9
$SURFTAB1
 70
    6
  9
$SURFTAB2
 70
    6
  9
$SURFTYPE
 70
    6
  9
$SURFU
 70
    6
  9
$SURFV
 70
    6
  9
$UCSBASE
  2

  9
$UCSNAME
  2

  9
$UCSORG
 10
0
 20
0
 30
0
  9
$UCSXDIR
 10
1
 20
0
 30
0
  9
$UCSYDIR
 10
0
 20
1
 30
0
  9
$UCSORTHOREF
  2

  9
$UCSORTHOVIEW
 70
    0
  9
$UCSORGTOP
 10
0
 20
0
 30
0
  9
$UCSORGBOTTOM
 10
0
 20
0
 30
0
  9
$UCSORGLEFT
 10
0
 20
0
 30
0
  9
$UCSORGRIGHT
 10
0
 20
0
 30
0
  9
$UCSORGFRONT
 10
0
 20
0
 30
0
  9
$UCSORGBACK
 10
0
 20
0
 30
0
  9
$PUCSBASE
  2

  9
$PUCSNAME
  2

  9
$PUCSORG
 10
0
 20
0
 30
0
  9
$PUCSXDIR
 10
1
 20
0
 30
0
  9
$PUCSYDIR
 10
0
 20
1
 30
0
  9
$PUCSORTHOREF
  2

  9
$PUCSORTHOVIEW
 70
    0
  9
$PUCSORGTOP
 10
0
 20
0
 30
0
  9
$PUCSORGBOTTOM
 10
0
 20
0
 30
0
  9
$PUCSORGLEFT
 10
0
 20
0
 30
0
  9
$PUCSORGRIGHT
 10
0
 20
0
 30
0
  9
$PUCSORGFRONT
 10
0
 20
0
 30
0
  9
$PUCSORGBACK
 10
0
 20
0
 30
0
  9
$USERI1
 70
    0
  9
$USERI2
 70
    0
  9
$USERI3
 70
    0
  9
$USERI4
 70
    0
  9
$USERI5
 70
    0
  9
$USERR1
 40
0
  9
$USERR2
 40
0
  9
$USERR3
 40
0
  9
$USERR4
 40
0
  9
$USERR5
 40
0
  9
$WORLDVIEW
 70
    1
  9
$SHADEDGE
 70
    3
  9
$SHADEDIF
 70
   70
  9
$TILEMODE
 70
    1
  9
$MAXACTVP
 70
   64
  9
$PINSBASE
 10
0
 20
0
 30
0
  9
$PLIMCHECK
 70
    0
  9
$PEXTMIN
 10
0
 20
0
 30
0
  9
$PEXTMAX
 10
0
 20
0
 30
0
  9
$GRIDMODE
 70
    1
  9
$SNAPSTYLE
 70
    0
  9
$PLIMMIN
 10
0
 20
0
  9
$PLIMMAX
 10
7.820100000000001e-07
 20
1.106e-06
  9
$UNITMODE
 70
    0
  9
$VISRETAIN
 70
    1
  9
$PLINEGEN
 70
    0
  9
$PSLTSCALE
 70
    1
  9
$TREEDEPTH
 70
 3020
  9
$CMLSTYLE
  2
Standard
  9
$CMLJUST
 70
    0
  9
$CMLSCALE
 40
20
  9
$PROXYGRAPHICS
 70
    1
  9
$MEASUREMENT
 70
    1
  9
$CELWEIGHT
370
   -1
  9
$ENDCAPS
280
    0
  9
$JOINSTYLE
280
    0
  9
$LWDISPLAY
290
    0
  9
$INSUNITS
 70
    4
  9
$HYPERLINKBASE
  1

  9
$STYLESHEET
  1

  9
$XEDIT
290
    1
  9
$CEPSNTYPE
380
    0
  9
$PSTYLEMODE
290
    1
  9
$EXTNAMES
290
    1
  9
$PSVPSCALE
 40
1
  9
$OLESTARTUP
290
    0
  9
$SORTENTS
280
  127
  9
$INDEXCTL
280
    0
  9
$HIDETEXT
280
    1
  9
$XCLIPFRAME
290
    0
  9
$HALOGAP
280
    0
  9
$OBSCOLOR
 70
  257
  9
$OBSLTYPE
280
    0
  9
$INTERSECTIONDISPLAY
280
    0
  9
$INTERSECTIONCOLOR
 70
  257
  9
$DIMASSOC
280
    1
  9
$PROJECTNAME
  1

  9
$CAMERADISPLAY
290
    0
  9
$LENSLENGTH
 40
50
  9
$CAMERAHEIGHT
 40
0
  9
$STEPSPERSEC
 40
2
  9
$STEPSIZE
 40
50
  9
$3DDWFPREC
 40
2
  9
$PSOLWIDTH
 40
5
  9
$PSOLHEIGHT
 40
80
  9
$LOFTANG1
 40
1.570796326794897
  9
$LOFTANG2
 40
1.570796326794897
  9
$LOFTMAG1
 40
0
  9
$LOFTMAG2
 40
0
  9
$LOFTPARAM
 70
    7
  9
$LOFTNORMALS
280
    1
  9
$LATITUDE
 40
1
  9
$LONGITUDE
 40
1
  9
$NORTHDIRECTION
 40
0
  9
$TIMEZONE
 70
-8000
  9
$LIGHTGLYPHDISPLAY
280
    1
  9
$TILEMODELIGHTSYNCH
280
    1
  9
$SOLIDHIST
280
    1
  9
$SHOWHIST
280
    1
  9
$DWFFRAME
280
    2
  9
$DGNFRAME
280
    0
  9
$REALWORLDSCALE
290
    1
  9
$INTERFERECOLOR
 62
    1
  9
$CSHADOW
280
    0
  9
$SHADOWPLANELOCATION
 40
0
  0
ENDSEC
  0
SECTION
  2
CLASSES
  0
ENDSEC
  0
SECTION
  2
TABLES
  0
TABLE
  2
VPORT
  5
8
330
0
100
AcDbSymbolTable
 70
    1
  0
VPORT
  5
31
330
2
100
AcDbSymbolTableRecord
100
AcDbViewportTableRecord
  2
*ACTIVE
 70
    0
 10
0
 20
0
 11
1
 21
1
 12
85.26744770768998
 22
1.782594725596306
 13
0
 23
0
 14
10
 24
10
 15
10
 25
10
 16
0
 26
0
 36
1
 17
0
 27
0
 37
0
 40
121.2164413405488
 41
2.05718954248366
 42
50
 43
0
 44
0
 50
0
 51
0
 71
    0
 72
  100
 73
    1
 74
    3
 75
    0
 76
    1
 77
    0
 78
    0
281
    0
 65
    1
110
0
120
0
130
0
111
1
121
0
131
0
112
0
122
1
132
0
 79
    0
146
0
348
10020
 60
    7
 61
    5
292
1
282
    1
141
0
142
0
 63
  250
421
3358443
  0
ENDTAB
  0
TABLE
  2
LTYPE
  5
5
330
0
100
AcDbSymbolTable
 70
    4
  0
LTYPE
  5
14
330
5
100
AcDbSymbolTableRecord
100
AcDbLinetypeTableRecord
  2
ByBlock
 70
    0
  3

 72
   65
 73
    0
 40
0
  0
LTYPE
  5
15
330
5
100
AcDbSymbolTableRecord
100
AcDbLinetypeTableRecord
  2
ByLayer
 70
    0
  3

 72
   65
 73
    0
 40
0
  0
LTYPE
  5
16
330
5
100
AcDbSymbolTableRecord
100
AcDbLinetypeTableRecord
  2
Continuous
 70
    0
  3
Solid line
 72
   65
 73
    0
 40
0
  0
LTYPE
  5
32
330
5
100
AcDbSymbolTableRecord
100
AcDbLinetypeTableRecord
  2
DOT
 70
    0
  3
Dot . . . . . . . . . . . . . . . . . . . . . .
 72
   65
 73
    2
 40
6.35
 49
0
 74
    0
 49
-6.35
 74
    0
  0
LTYPE
  5
33
330
5
100
AcDbSymbolTableRecord
100
AcDbLinetypeTableRecord
  2
DOTTINY
 70
    0
  3
Dot (.15x) .....................................
 72
   65
 73
    2
 40
0.9525
 49
0
 74
    0
 49
-0.9525
 74
    0
  0
LTYPE
  5
34
330
5
100
AcDbSymbolTableRecord
100
AcDbLinetypeTableRecord
  2
DOT2
 70
    0
  3
Dot (.5x) .....................................
 72
   65
 73
    2
 40
3.175
 49
0
 74
    0
 49
-3.175
 74
    0
  0
LTYPE
  5
35
330
5
100
AcDbSymbolTableRecord
100
AcDbLinetypeTableRecord
  2
DOTX2
 70
    0
  3
Dot (2x) .  .  .  .  .  .  .  .  .  .  .  .  .
 72
   65
 73
    2
 40
12.7
 49
0
 74
    0
 49
-12.7
 74
    0
  0
LTYPE
  5
36
330
5
100
AcDbSymbolTableRecord
100
AcDbLinetypeTableRecord
  2
DASHED
 70
    0
  3
Dashed _ _ _ _ _ _ _ _ _ _ _ _ _ _ _ _ _
 72
   65
 73
    2
 40
19.05
 49
12.7
 74
    0
 49
-6.35
 74
    0
  0
LTYPE
  5
37
330
5
100
AcDbSymbolTableRecord
100
AcDbLinetypeTableRecord
  2
DASHEDTINY
 70
    0
  3
Dashed (.15x) _ _ _ _ _ _ _ _ _ _ _ _ _ _ _ _ _
 72
   65
 73
    2
 40
2.8575
 49
1.905
 74
    0
 49
-0.9525
 74
    0
  0
LTYPE
  5
38
330
5
100
AcDbSymbolTableRecord
100
AcDbLinetypeTableRecord
  2
DASHED2
 70
    0
  3
Dashed (.5x) _ _ _ _ _ _ _ _ _ _ _ _ _ _ _ _ _
 72
   65
 73
    2
 40
9.524999999999999
 49
6.35
 74
    0
 49
-3.175
 74
    0
  0
LTYPE
  5
39
330
5
100
AcDbSymbolTableRecord
100
AcDbLinetypeTableRecord
  2
DASHEDX2
 70
    0
  3
Dashed (2x) ____  ____  ____  ____  ____  ___
 72
   65
 73
    2
 40
38.09999999999999
 49
25.4
 74
    0
 49
-12.7
 74
    0
  0
LTYPE
  5
3A
330
5
100
AcDbSymbolTableRecord
100
AcDbLinetypeTableRecord
  2
DASHDOT
 70
    0
  3
Dash dot __ . __ . __ . __ . __ . __ . __ . __
 72
   65
 73
    4
 40
25.4
 49
12.7
 74
    0
 49
-6.35
 74
    0
 49
0
 74
    0
 49
-6.35
 74
    0
  0
LTYPE
  5
3B
330
5
100
AcDbSymbolTableRecord
100
AcDbLinetypeTableRecord
  2
DASHDOTTINY
 70
    0
  3
Dash dot (.15x) _._._._._._._._._._._._._._._.
 72
   65
 73
    4
 40
3.81
 49
1.905
 74
    0
 49
-0.9525
 74
    0
 49
0
 74
    0
 49
-0.9525
 74
    0
  0
LTYPE
  5
3C
330
5
100
AcDbSymbolTableRecord
100
AcDbLinetypeTableRecord
  2
DASHDOT2
 70
    0
  3
Dash dot (.5x) _._._._._._._._._._._._._._._.
 72
   65
 73
    4
 40
12.7
 49
6.35
 74
    0
 49
-3.175
 74
    0
 49
0
 74
    0
 49
-3.175
 74
    0
  0
LTYPE
  5
3D
330
5
100
AcDbSymbolTableRecord
100
AcDbLinetypeTableRecord
  2
DASHDOTX2
 70
    0
  3
Dash dot (2x) ____  .  ____  .  ____  .  ___
 72
   65
 73
    4
 40
50.8
 49
25.4
 74
    0
 49
-12.7
 74
    0
 49
0
 74
    0
 49
-12.7
 74
    0
  0
LTYPE
  5
3E
330
5
100
AcDbSymbolTableRecord
100
AcDbLinetypeTableRecord
  2
DIVIDE
 70
    0
  3
Divide ____ . . ____ . . ____ . . ____ . . ____
 72
   65
 73
    6
 40
31.75
 49
12.7
 74
    0
 49
-6.35
 74
    0
 49
0
 74
    0
 49
-6.35
 74
    0
 49
0
 74
    0
 49
-6.35
 74
    0
  0
LTYPE
  5
3F
330
5
100
AcDbSymbolTableRecord
100
AcDbLinetypeTableRecord
  2
DIVIDETINY
 70
    0
  3
Divide (.15x) __..__..__..__..__..__..__..__.._
 72
   65
 73
    6
 40
4.7625
 49
1.905
 74
    0
 49
-0.9525
 74
    0
 49
0
 74
    0
 49
-0.9525
 74
    0
 49
0
 74
    0
 49
-0.9525
 74
    0
  0
LTYPE
  5
40
330
5
100
AcDbSymbolTableRecord
100
AcDbLinetypeTableRecord
  2
DIVIDE2
 70
    0
  3
Divide (.5x) __..__..__..__..__..__..__..__.._
 72
   65
 73
    6
 40
15.875
 49
6.35
 74
    0
 49
-3.175
 74
    0
 49
0
 74
    0
 49
-3.175
 74
    0
 49
0
 74
    0
 49
-3.175
 74
    0
  0
LTYPE
  5
41
330
5
100
AcDbSymbolTableRecord
100
AcDbLinetypeTableRecord
  2
DIVIDEX2
 70
    0
  3
Divide (2x) ________  .  .  ________  .  .  _
 72
   65
 73
    6
 40
63.5
 49
25.4
 74
    0
 49
-12.7
 74
    0
 49
0
 74
    0
 49
-12.7
 74
    0
 49
0
 74
    0
 49
-12.7
 74
    0
  0
LTYPE
  5
42
330
5
100
AcDbSymbolTableRecord
100
AcDbLinetypeTableRecord
  2
BORDER
 70
    0
  3
Border __ __ . __ __ . __ __ . __ __ . __ __ .
 72
   65
 73
    6
 40
44.45
 49
12.7
 74
    0
 49
-6.35
 74
    0
 49
12.7
 74
    0
 49
-6.35
 74
    0
 49
0
 74
    0
 49
-6.35
 74
    0
  0
LTYPE
  5
43
330
5
100
AcDbSymbolTableRecord
100
AcDbLinetypeTableRecord
  2
BORDERTINY
 70
    0
  3
Border (.15x) __.__.__.__.__.__.__.__.__.__.__.
 72
   65
 73
    6
 40
6.6675
 49
1.905
 74
    0
 49
-0.9525
 74
    0
 49
1.905
 74
    0
 49
-0.9525
 74
    0
 49
0
 74
    0
 49
-0.9525
 74
    0
  0
LTYPE
  5
44
330
5
100
AcDbSymbolTableRecord
100
AcDbLinetypeTableRecord
  2
BORDER2
 70
    0
  3
Border (.5x) __.__.__.__.__.__.__.__.__.__.__.
 72
   65
 73
    6
 40
22.225
 49
6.35
 74
    0
 49
-3.175
 74
    0
 49
6.35
 74
    0
 49
-3.175
 74
    0
 49
0
 74
    0
 49
-3.175
 74
    0
  0
LTYPE
  5
45
330
5
100
AcDbSymbolTableRecord
100
AcDbLinetypeTableRecord
  2
BORDERX2
 70
    0
  3
Border (2x) ____  ____  .  ____  ____  .  ___
 72
   65
 73
    6
 40
88.89999999999999
 49
25.4
 74
    0
 49
-12.7
 74
    0
 49
25.4
 74
    0
 49
-12.7
 74
    0
 49
0
 74
    0
 49
-12.7
 74
    0
  0
LTYPE
  5
46
330
5
100
AcDbSymbolTableRecord
100
AcDbLinetypeTableRecord
  2
CENTER
 70
    0
  3
Center ____ _ ____ _ ____ _ ____ _ ____ _ ____
 72
   65
 73
    4
 40
50.8
 49
31.75
 74
    0
 49
-6.35
 74
    0
 49
6.35
 74
    0
 49
-6.35
 74
    0
  0
LTYPE
  5
47
330
5
100
AcDbSymbolTableRecord
100
AcDbLinetypeTableRecord
  2
CENTERTINY
 70
    0
  3
Center (.15x) ___ _ ___ _ ___ _ ___ _ ___ _ ___
 72
   65
 73
    4
 40
7.619999999999999
 49
4.7625
 74
    0
 49
-0.9525
 74
    0
 49
0.9525
 74
    0
 49
-0.9525
 74
    0
  0
LTYPE
  5
48
330
5
100
AcDbSymbolTableRecord
100
AcDbLinetypeTableRecord
  2
CENTER2
 70
    0
  3
Center (.5x) ___ _ ___ _ ___ _ ___ _ ___ _ ___
 72
   65
 73
    4
 40
28.575
 49
19.05
 74
    0
 49
-3.175
 74
    0
 49
3.175
 74
    0
 49
-3.175
 74
    0
  0
LTYPE
  5
49
330
5
100
AcDbSymbolTableRecord
100
AcDbLinetypeTableRecord
  2
CENTERX2
 70
    0
  3
Center (2x) ________  __  ________  __  _____
 72
   65
 73
    4
 40
101.6
 49
63.5
 74
    0
 49
-12.7
 74
    0
 49
12.7
 74
    0
 49
-12.7
 74
    0
  0
ENDTAB
  0
TABLE
  2
LAYER
  5
2
330
0
100
AcDbSymbolTable
 70
    1
  0
LAYER
  5
10
330
2
100
AcDbSymbolTableRecord
100
AcDbLayerTableRecord
  2
0
 70
    0
 62
    7
  6
CONTINUOUS
370
    0
390
F
  0
LAYER
  5
4A
330
2
100
AcDbSymbolTableRecord
100
AcDbLayerTableRecord
  2
border
 70
    0
 62
   16
420
8388608
  6
CONTINUOUS
370
    0
390
F
  0
LAYER
  5
4B
330
2
100
AcDbSymbolTableRecord
100
AcDbLayerTableRecord
  2
case0
 70
    0
 62
    7
  6
CONTINUOUS
370
    0
390
F
  0
LAYER
  5
4C
330
2
100
AcDbSymbolTableRecord
100
AcDbLayerTableRecord
  2
case1
 70
    0
 62
    7
  6
CONTINUOUS
370
    0
390
F
  0
LAYER
  5
4D
330
2
100
AcDbSymbolTableRecord
100
AcDbLayerTableRecord
  2
case2
 70
    0
 62
    7
  6
CONTINUOUS
370
    0
390
F
  0
LAYER
  5
4E
330
2
100
AcDbSymbolTableRecord
100
AcDbLayerTableRecord
  2
case4
 70
    0
 62
    7
  6
CONTINUOUS
370
    0
390
F
  0
LAYER
  5
4F
330
2
100
AcDbSymbolTableRecord
100
AcDbLayerTableRecord
  2
case5
 70
    0
 62
    7
  6
CONTINUOUS
370
    0
390
F
  0
LAYER
  5
50
330
2
100
AcDbSymbolTableRecord
100
AcDbLayerTableRecord
  2
case6
 70
    0
 62
    7
  6
CONTINUOUS
370
    0
390
F
  0
LAYER
  5
51
330
2
100
AcDbSymbolTableRecord
100
AcDbLayerTableRecord
  2
case7
 70
    0
 62
    7
  6
CONTINUOUS
370
    0
390
F
  0
LAYER
  5
52
330
2
100
AcDbSymbolTableRecord
100
AcDbLayerTableRecord
  2
construction1
 70
    0
 62
    2
  6
CONTINUOUS
370
    0
390
F
  0
LAYER
  5
53
330
2
100
AcDbSymbolTableRecord
100
AcDbLayerTableRecord
  2
controller-pcb
 70
    0
 62
    2
  6
CONTINUOUS
370
    0
390
F
  0
LAYER
  5
54
330
2
100
AcDbSymbolTableRecord
100
AcDbLayerTableRecord
  2
dimensions
 70
    0
 62
   56
420
8421376
  6
CONTINUOUS
370
    0
390
F
  0
LAYER
  5
55
330
2
100
AcDbSymbolTableRecord
100
AcDbLayerTableRecord
  2
handle1
 70
    0
 62
    7
  6
CONTINUOUS
370
    0
390
F
  0
LAYER
  5
56
330
2
100
AcDbSymbolTableRecord
100
AcDbLayerTableRecord
  2
handle3
 70
    0
 62
    7
  6
CONTINUOUS
370
    0
390
F
  0
LAYER
  5
57
330
2
100
AcDbSymbolTableRecord
100
AcDbLayerTableRecord
  2
handle4
 70
    0
 62
    7
  6
CONTINUOUS
370
    0
390
F
  0
LAYER
  5
58
330
2
100
AcDbSymbolTableRecord
100
AcDbLayerTableRecord
  2
handle5
 70
    0
 62
    4
  6
CONTINUOUS
370
    0
390
F
  0
LAYER
  5
59
330
2
100
AcDbSymbolTableRecord
100
AcDbLayerTableRecord
  2
handle9
 70
    0
 62
    7
  6
CONTINUOUS
370
    0
390
F
  0
LAYER
  5
5A
330
2
100
AcDbSymbolTableRecord
100
AcDbLayerTableRecord
  2
pot
 70
    0
 62
    7
  6
CONTINUOUS
370
    0
390
F
  0
LAYER
  5
5B
330
2
100
AcDbSymbolTableRecord
100
AcDbLayerTableRecord
  2
trigger
 70
    0
 62
    7
  6
CONTINUOUS
370
    0
390
F
  0
ENDTAB
  0
TABLE
  2
STYLE
  5
3
330
0
100
AcDbSymbolTable
 70
    3
  0
STYLE
  5
5C
330
2
100
AcDbSymbolTableRecord
100
AcDbTextStyleTableRecord
  2
Standard
 70
    0
 40
0
 41
1
 50
0
 71
    0
 42
1
  3
txt
  4

  0
ENDTAB
  0
TABLE
  2
VIEW
  5
6
330
0
100
AcDbSymbolTable
 70
    0
  0
ENDTAB
  0
TABLE
  2
UCS
  5
7
330
0
100
AcDbSymbolTable
 70
    0
  0
ENDTAB
  0
TABLE
  2
APPID
  5
9
330
0
100
AcDbSymbolTable
 70
    1
  0
APPID
  5
12
330
9
100
AcDbSymbolTableRecord
100
AcDbRegAppTableRecord
  2
ACAD
 70
    0
  0
APPID
  5
5D
330
9
100
AcDbSymbolTableRecord
100
AcDbRegAppTableRecord
  2
LibreCad
 70
    0
  0
ENDTAB
  0
TABLE
  2
DIMSTYLE
  5
A
330
0
100
AcDbSymbolTable
 70
    1
100
AcDbDimStyleTable
 71
    1
  0
DIMSTYLE
105
5E
330
A
100
AcDbSymbolTableRecord
100
AcDbDimStyleTableRecord
  2
Standard
 70
    0
 40
1
 41
2.5
 42
0.625
 43
0.38
 44
1.25
 45
0
 46
0
 47
0
 48
0
 49
1
140
2.5
141
0.09
142
0
143
25.4
144
1
145
0
146
1
147
0.625
148
0
 71
    0
 72
    0
 73
    0
 74
    1
 75
    0
 76
    0
 77
    0
 78
    8
 79
    0
170
    0
171
    2
172
    0
173
    0
174
    0
175
    0
176
    0
177
    0
178
    0
179
    0
271
    2
272
    4
273
    2
274
    2
275
    0
276
    0
277
    2
278
   44
279
    0
280
    0
281
    0
282
    0
283
    1
284
    0
285
    0
286
    0
288
    0
289
    3
340
STANDARD
341

371
   -2
372
   -2
  0
ENDTAB
  0
TABLE
  2
BLOCK_RECORD
  5
1
330
0
100
AcDbSymbolTable
 70
    2
  0
BLOCK_RECORD
  5
1F
330
1
100
AcDbSymbolTableRecord
100
AcDbBlockTableRecord
  2
*Model_Space
 70
    0
280
    1
281
    0
  0
BLOCK_RECORD
  5
1E
330
1
100
AcDbSymbolTableRecord
100
AcDbBlockTableRecord
  2
*Paper_Space
 70
    0
280
    1
281
    0
  0
ENDTAB
  0
ENDSEC
  0
SECTION
  2
BLOCKS
  0
BLOCK
  5
20
330
1F
100
AcDbEntity
  8
0
100
AcDbBlockBegin
  2
*Model_Space
 70
    0
 10
0
 20
0
 30
0
  3
*Model_Space
  1

  0
ENDBLK
  5
21
330
1F
100
AcDbEntity
  8
0
100
AcDbBlockEnd
  0
BLOCK
  5
1C
330
1B
100
AcDbEntity
  8
0
100
AcDbBlockBegin
  2
*Paper_Space
 70
    0
 10
0
 20
0
 30
0
  3
*Paper_Space
  1

  0
ENDBLK
  5
1D
330
1F
100
AcDbEntity
  8
0
100
AcDbBlockEnd
  0
ENDSEC
  0
SECTION
  2
ENTITIES
  0
LINE
  5
5F
100
AcDbEntity
  8
case5
  6
ByLayer
 62
  256
370
   -1
100
AcDbLine
 10
158.1623905847576
 20
-18.81739434657936
 11
158.5904167959565
 21
-24.80210766991629
  0
ARC
  5
60
100
AcDbEntity
  8
case6
  6
ByLayer
 62
  256
370
   -1
100
AcDbCircle
 10
5.313363870310431
 20
-15.88058768710893
 40
11.79106548259033
100
AcDbArc
 50
311.9782033831041
 51
116.7838719533752
  0
ARC
  5
61
100
AcDbEntity
  8
case6
  6
ByLayer
 62
  256
370
   -1
100
AcDbCircle
 10
77.21423344355522
 20
91.1093188113188
 40
145.1303352441764
100
AcDbArc
 50
238.7737324542767
 51
309.4079155457181
  0
ARC
  5
62
100
AcDbEntity
  8
case6
  6
ByLayer
 62
  256
370
   -1
100
AcDbCircle
 10
94.11004018007127
 20
-145.1298577599484
 40
145.1303352441764
100
AcDbArc
 50
123.8831225164422
 51
129.4079155457181
  0
CIRCLE
  5
63
100
AcDbEntity
  8
case4
  6
ByLayer
 62
  256
370
   -1
100
AcDbCircle
 10
151.8923264539547
 20
-15.25561167555365
 40
1.6
  0
CIRCLE
  5
64
100
AcDbEntity
  8
case4
  6
ByLayer
 62
  256
370
   -1
100
AcDbCircle
 10
152.8910542800855
 20
-29.21994276333984
 40
1.6
  0
CIRCLE
  5
65
100
AcDbEntity
  8
case4
  6
ByLayer
 62
  256
370
   -1
100
AcDbCircle
 10
8.89757418770815
 20
-32.50046476340472
 40
1.6
  0
CIRCLE
  5
66
100
AcDbEntity
  8
case4
  6
ByLayer
 62
  256
370
   -1
100
AcDbCircle
 10
17.15376309224549
 20
-26.51373435210063
 40
1.6
  0
CIRCLE
  5
67
100
AcDbEntity
  8
handle1
  6
ByLayer
 62
  256
370
   -1
100
AcDbCircle
 10
8.89757418770815
 20
-32.50046476340472
 40
1.6
  0
CIRCLE
  5
68
100
AcDbEntity
  8
handle1
  6
ByLayer
 62
  256
370
   -1
100
AcDbCircle
 10
17.15376309224549
 20
-26.51373435210063
 40
1.6
  0
CIRCLE
  5
69
100
AcDbEntity
  8
handle1
  6
ByLayer
 62
  256
370
   -1
100
AcDbCircle
 10
63.1216300356061
 20
-49.67600472097639
 40
1.6
  0
ARC
  5
6A
100
AcDbEntity
  8
case6
  6
ByLayer
 62
  256
370
   -1
100
AcDbCircle
 10
94.11004018007127
 20
-145.1298577599484
 40
145.1303352441764
100
AcDbArc
 50
58.7737324542767
 51
112.9759524526095
  0
ARC
  5
6B
100
AcDbEntity
  8
case6
  6
ByLayer
 62
  256
370
   -1
100
AcDbCircle
 10
15.2158398808369
 20
-24.29623614109513
 40
24.29627777164739
100
AcDbArc
 50
33.40268433807468
 51
128.7748881819204
  0
ARC
  5
6C
100
AcDbEntity
  8
case6
  6
ByLayer
 62
  256
370
   -1
100
AcDbCircle
 10
36.83462414799039
 20
-10.0398211206002
 40
1.6
100
AcDbArc
 50
213.402684338075
 51
292.9759524526098
  0
CIRCLE
  5
6D
100
AcDbEntity
  8
case2
  6
ByLayer
 62
  256
370
   -1
100
AcDbCircle
 10
35.71527516720624
 20
-21.61328435823716
 40
3.556
  0
LINE
  5
6E
100
AcDbEntity
  8
case5
  6
ByLayer
 62
  256
370
   -1
100
AcDbLine
 10
142.4134449459722
 20
-27.3203317815049
 11
137.0736663656807
 21
-30.056527080357
  0
CIRCLE
  5
6F
100
AcDbEntity
  8
case2
  6
ByLayer
 62
  256
370
   -1
100
AcDbCircle
 10
24.75300957438565
 20
-36.95916847539193
 40
3.556
  0
CIRCLE
  5
70
100
AcDbEntity
  8
case2
  6
ByLayer
 62
  256
370
   -1
100
AcDbCircle
 10
90.61739042229071
 20
-26.65587013823428
 40
1.6
  0
CIRCLE
  5
71
100
AcDbEntity
  8
case2
  6
ByLayer
 62
  256
370
   -1
100
AcDbCircle
 10
85.76400044094348
 20
-25.45395263317816
 40
1.6
  0
CIRCLE
  5
72
100
AcDbEntity
  8
case2
  6
ByLayer
 62
  256
370
   -1
100
AcDbCircle
 10
90.26070191295815
 20
-21.66860903545332
 40
1.6
  0
CIRCLE
  5
73
100
AcDbEntity
  8
case2
  6
ByLayer
 62
  256
370
   -1
100
AcDbCircle
 10
95.25033478147387
 20
-24.77549077100146
 40
1.6
  0
CIRCLE
  5
74
100
AcDbEntity
  8
case2
  6
ByLayer
 62
  256
370
   -1
100
AcDbCircle
 10
93.83739601358559
 20
-30.48099288032135
 40
1.6
  0
CIRCLE
  5
75
100
AcDbEntity
  8
case2
  6
ByLayer
 62
  256
370
   -1
100
AcDbCircle
 10
87.9745189624925
 20
-30.90030537121709
 40
1.6
  0
CIRCLE
  5
76
100
AcDbEntity
  8
case2
  6
ByLayer
 62
  256
370
   -1
100
AcDbCircle
 10
85.40731193161108
 20
-20.46669153039739
 40
1.6
  0
CIRCLE
  5
77
100
AcDbEntity
  8
case2
  6
ByLayer
 62
  256
370
   -1
100
AcDbCircle
 10
94.89364627214117
 20
-19.78822966822072
 40
1.6
  0
CIRCLE
  5
78
100
AcDbEntity
  8
case2
  6
ByLayer
 62
  256
370
   -1
100
AcDbCircle
 10
98.4703403727685
 20
-28.6006135130885
 40
1.6
  0
CIRCLE
  5
79
100
AcDbEntity
  8
case2
  6
ByLayer
 62
  256
370
   -1
100
AcDbCircle
 10
91.19452455378732
 20
-34.72542811330391
 40
1.6
  0
CIRCLE
  5
7A
100
AcDbEntity
  8
case2
  6
ByLayer
 62
  256
370
   -1
100
AcDbCircle
 10
83.1211289811455
 20
-29.69838786616087
 40
1.6
  0
CIRCLE
  5
7B
100
AcDbEntity
  8
case2
  6
ByLayer
 62
  256
370
   -1
100
AcDbCircle
 10
89.90401340362561
 20
-16.68134793267244
 40
1.6
  0
CIRCLE
  5
7C
100
AcDbEntity
  8
case2
  6
ByLayer
 62
  256
370
   -1
100
AcDbCircle
 10
99.88327914065694
 20
-22.89511140376873
 40
1.6
  0
CIRCLE
  5
7D
100
AcDbEntity
  8
case2
  6
ByLayer
 62
  256
370
   -1
100
AcDbCircle
 10
97.05740160488037
 20
-34.30611562240835
 40
1.6
  0
CIRCLE
  5
7E
100
AcDbEntity
  8
case2
  6
ByLayer
 62
  256
370
   -1
100
AcDbCircle
 10
85.33164750269428
 20
-35.14474060419981
 40
1.6
  0
CIRCLE
  5
7F
100
AcDbEntity
  8
case2
  6
ByLayer
 62
  256
370
   -1
100
AcDbCircle
 10
80.91061045959638
 20
-24.25203512812206
 40
1.6
  0
CIRCLE
  5
80
100
AcDbEntity
  8
case2
  6
ByLayer
 62
  256
370
   -1
100
AcDbCircle
 10
89.54732489429301
 20
-11.69408682989157
 40
1.6
  0
CIRCLE
  5
81
100
AcDbEntity
  8
case2
  6
ByLayer
 62
  256
370
   -1
100
AcDbCircle
 10
104.51622349984
 20
-21.01473203653594
 40
1.6
  0
CIRCLE
  5
82
100
AcDbEntity
  8
case2
  6
ByLayer
 62
  256
370
   -1
100
AcDbCircle
 10
100.2774071961751
 20
-38.1312383644953
 40
1.6
  0
CIRCLE
  5
83
100
AcDbEntity
  8
case2
  6
ByLayer
 62
  256
370
   -1
100
AcDbCircle
 10
82.68877604289614
 20
-39.38917583718253
 40
1.6
  0
CIRCLE
  5
84
100
AcDbEntity
  8
case2
  6
ByLayer
 62
  256
370
   -1
100
AcDbCircle
 10
76.05722047824928
 20
-23.05011762306599
 40
1.6
  0
CIRCLE
  5
85
100
AcDbEntity
  8
case2
  6
ByLayer
 62
  256
370
   -1
100
AcDbCircle
 10
99.52659063132414
 20
-17.90785030098797
 40
1.6
  0
CIRCLE
  5
86
100
AcDbEntity
  8
case2
  6
ByLayer
 62
  256
370
   -1
100
AcDbCircle
 10
94.53695776280765
 20
-14.80096856543962
 40
1.6
  0
CIRCLE
  5
87
100
AcDbEntity
  8
case2
  6
ByLayer
 62
  256
370
   -1
100
AcDbCircle
 10
101.6903459640633
 20
-32.4257362551754
 40
1.6
  0
CIRCLE
  5
88
100
AcDbEntity
  8
case2
  6
ByLayer
 62
  256
370
   -1
100
AcDbCircle
 10
103.1032847319515
 20
-26.72023414585476
 40
1.6
  0
CIRCLE
  5
89
100
AcDbEntity
  8
case2
  6
ByLayer
 62
  256
370
   -1
100
AcDbCircle
 10
88.55165309398923
 20
-38.96986334628657
 40
1.6
  0
CIRCLE
  5
8A
100
AcDbEntity
  8
case2
  6
ByLayer
 62
  256
370
   -1
100
AcDbCircle
 10
94.41453014508303
 20
-38.55055085539055
 40
1.6
  0
CIRCLE
  5
8B
100
AcDbEntity
  8
case2
  6
ByLayer
 62
  256
370
   -1
100
AcDbCircle
 10
78.26773899979844
 20
-28.49647036110484
 40
1.6
  0
CIRCLE
  5
8C
100
AcDbEntity
  8
case2
  6
ByLayer
 62
  256
370
   -1
100
AcDbCircle
 10
80.47825752134797
 20
-33.94282309914434
 40
1.6
  0
CIRCLE
  5
8D
100
AcDbEntity
  8
case2
  6
ByLayer
 62
  256
370
   -1
100
AcDbCircle
 10
85.05062342227852
 20
-15.47943042761661
 40
1.6
  0
CIRCLE
  5
8E
100
AcDbEntity
  8
case2
  6
ByLayer
 62
  256
370
   -1
100
AcDbCircle
 10
80.55392195026347
 20
-19.26477402534213
 40
1.6
  0
CIRCLE
  5
8F
100
AcDbEntity
  8
case2
  6
ByLayer
 62
  256
370
   -1
100
AcDbCircle
 10
99.52659063132414
 20
-17.90785030098797
 40
1.6
  0
CIRCLE
  5
90
100
AcDbEntity
  8
case2
  6
ByLayer
 62
  256
370
   -1
100
AcDbCircle
 10
94.53695776280765
 20
-14.80096856543962
 40
1.6
  0
LINE
  5
91
100
AcDbEntity
  8
case7
  6
ByLayer
 62
  256
370
   -1
100
AcDbLine
 10
158.1623905847576
 20
-18.81739434657936
 11
156.5664670318678
 21
-18.93153466956574
  0
LINE
  5
92
100
AcDbEntity
  8
case7
  6
ByLayer
 62
  256
370
   -1
100
AcDbLine
 10
158.5904167959565
 20
-24.80210766991629
 11
156.9944932430667
 21
-24.91624799290267
  0
LINE
  5
93
100
AcDbEntity
  8
case5
  6
ByLayer
 62
  256
370
   -1
100
AcDbLine
 10
156.9944932430667
 20
-24.91624799290267
 11
156.5664670318678
 21
-18.93153466956574
  0
LINE
  5
94
100
AcDbEntity
  8
case5
  6
ByLayer
 62
  256
370
   -1
100
AcDbLine
 10
135.7055687162547
 20
-27.38663779021125
 11
137.0736663656807
 21
-30.056527080357
  0
LINE
  5
95
100
AcDbEntity
  8
case5
  6
ByLayer
 62
  256
370
   -1
100
AcDbLine
 10
141.0453471591654
 20
-24.65044256175546
 11
142.4134445418008
 21
-27.32033198860936
  0
LINE
  5
96
100
AcDbEntity
  8
case5
  6
ByLayer
 62
  256
370
   -1
100
AcDbLine
 10
135.7055687162547
 20
-27.38663779021125
 11
141.0453472965461
 21
-24.65044249135918
  0
CIRCLE
  5
97
100
AcDbEntity
  8
case1
  6
ByLayer
 62
  256
370
   -1
100
AcDbCircle
 10
31.98431679897404
 20
-39.36153635926149
 40
1.3
  0
LINE
  5
98
100
AcDbEntity
  8
case5
  6
ByLayer
 62
  256
370
   -1
100
AcDbLine
 10
10.88085432440692
 20
-84.02344866612709
 11
11.10393451463672
 21
-90.01930016768441
  0
ARC
  5
99
100
AcDbEntity
  8
case6
  6
ByLayer
 62
  256
370
   -1
100
AcDbCircle
 10
162.5113625225862
 20
-64.53912716213844
 40
11.79106548259033
100
AcDbArc
 50
69.43770204662212
 51
234.2433706168933
  0
ARC
  5
9A
100
AcDbEntity
  8
case6
  6
ByLayer
 62
  256
370
   -1
100
AcDbCircle
 10
79.43908248833797
 20
34.02847110343012
 40
145.1303352441764
100
AcDbArc
 50
236.8136584542793
 51
307.4478415457207
  0
ARC
  5
9B
100
AcDbEntity
  8
case6
  6
ByLayer
 62
  256
370
   -1
100
AcDbCircle
 10
88.24489783854827
 20
-202.6503713146577
 40
145.1303352441764
100
AcDbArc
 50
56.8136584542793
 51
62.33845148355517
  0
CIRCLE
  5
9C
100
AcDbEntity
  8
case4
  6
ByLayer
 62
  256
370
   -1
100
AcDbCircle
 10
16.72798569914437
 20
-79.80313414152576
 40
1.6
  0
CIRCLE
  5
9D
100
AcDbEntity
  8
case4
  6
ByLayer
 62
  256
370
   -1
100
AcDbCircle
 10
17.24850614301389
 20
-93.79345431182612
 40
1.6
  0
CIRCLE
  5
9E
100
AcDbEntity
  8
case4
  6
ByLayer
 62
  256
370
   -1
100
AcDbCircle
 10
160.7494196774596
 20
-81.44955101965985
 40
1.6
  0
CIRCLE
  5
9F
100
AcDbEntity
  8
case4
  6
ByLayer
 62
  256
370
   -1
100
AcDbCircle
 10
151.8930538218046
 20
-76.39283468632384
 40
1.6
  0
CIRCLE
  5
A0
100
AcDbEntity
  8
handle1
  6
ByLayer
 62
  256
370
   -1
100
AcDbCircle
 10
160.7494196774596
 20
-81.44955101965985
 40
1.6
  0
CIRCLE
  5
A1
100
AcDbEntity
  8
handle1
  6
ByLayer
 62
  256
370
   -1
100
AcDbCircle
 10
151.8930538218046
 20
-76.39283468632384
 40
1.6
  0
CIRCLE
  5
A2
100
AcDbEntity
  8
handle1
  6
ByLayer
 62
  256
370
   -1
100
AcDbCircle
 10
108.7061076938359
 20
-104.4003915969746
 40
1.6
  0
ARC
  5
A3
100
AcDbEntity
  8
case6
  6
ByLayer
 62
  256
370
   -1
100
AcDbCircle
 10
88.24489783854827
 20
-202.6503713146577
 40
145.1303352441764
100
AcDbArc
 50
73.24562154738791
 51
127.4478415457207
  0
ARC
  5
A4
100
AcDbEntity
  8
case6
  6
ByLayer
 62
  256
370
   -1
100
AcDbCircle
 10
153.5792446586213
 20
-73.97837715905936
 40
24.29627777164739
100
AcDbArc
 50
57.44668581807697
 51
152.8188896619227
  0
ARC
  5
A5
100
AcDbEntity
  8
case6
  6
ByLayer
 62
  256
370
   -1
100
AcDbCircle
 10
130.5427699059687
 20
-62.1488364496018
 40
1.6
100
AcDbArc
 50
253.2456215473876
 51
332.8188896619223
  0
LINE
  5
A6
100
AcDbEntity
  8
case5
  6
ByLayer
 62
  256
370
   -1
100
AcDbLine
 10
27.45853690563269
 20
-90.7695344936126
 11
33.0633969679246
 21
-92.91092275409336
  0
LINE
  5
A7
100
AcDbEntity
  8
case7
  6
ByLayer
 62
  256
370
   -1
100
AcDbLine
 10
10.88085432440692
 20
-84.02344866612709
 11
12.47974805815553
 21
-83.96396061539916
  0
LINE
  5
A8
100
AcDbEntity
  8
case7
  6
ByLayer
 62
  256
370
   -1
100
AcDbLine
 10
11.10393451463672
 20
-90.01930016768441
 11
12.70282824838532
 21
-89.95981211695647
  0
LINE
  5
A9
100
AcDbEntity
  8
case5
  6
ByLayer
 62
  256
370
   -1
100
AcDbLine
 10
12.70282824838532
 20
-89.95981211695647
 11
12.47974805815553
 21
-83.96396061539916
  0
LINE
  5
AA
100
AcDbEntity
  8
case5
  6
ByLayer
 62
  256
370
   -1
100
AcDbLine
 10
34.13409109816502
 20
-90.10849272294745
 11
33.06339696792462
 21
-92.91092275409336
  0
LINE
  5
AB
100
AcDbEntity
  8
case5
  6
ByLayer
 62
  256
370
   -1
100
AcDbLine
 10
28.52923118007384
 20
-87.96710451755983
 11
27.4585373298683
 21
-90.76953465569565
  0
LINE
  5
AC
100
AcDbEntity
  8
case5
  6
ByLayer
 62
  256
370
   -1
100
AcDbLine
 10
34.13409124236574
 20
-90.10849277804064
 11
28.52923118007384
 21
-87.96710451755983
  0
CIRCLE
  5
AD
100
AcDbEntity
  8
case1
  6
ByLayer
 62
  256
370
   -1
100
AcDbCircle
 10
32.27646752592072
 20
-28.41312094686696
 40
1.3
  0
CIRCLE
  5
AE
100
AcDbEntity
  8
controller-pcb
  6
ByLayer
 62
  256
370
   -1
100
AcDbCircle
 10
112.0606676053752
 20
-71.18770515677824
 40
1.5
  0
CIRCLE
  5
AF
100
AcDbEntity
  8
controller-pcb
  6
ByLayer
 62
  256
370
   -1
100
AcDbCircle
 10
44.7972068437381
 20
-73.69029309083949
 40
1.5
  0
CIRCLE
  5
B0
100
AcDbEntity
  8
controller-pcb
  6
ByLayer
 62
  256
370
   -1
100
AcDbCircle
 10
45.69436100877893
 20
-97.8036092129358
 40
1.5
  0
CIRCLE
  5
B1
100
AcDbEntity
  8
controller-pcb
  6
ByLayer
 62
  256
370
   -1
100
AcDbCircle
 10
112.957821770416
 20
-95.30102127887454
 40
1.5
  0
CIRCLE
  5
B2
100
AcDbEntity
  8
case2
  6
ByLayer
 62
  256
370
   -1
100
AcDbCircle
 10
110.4927222863562
 20
-18.58904404036583
 40
1.6
  0
CIRCLE
  5
B3
100
AcDbEntity
  8
case2
  6
ByLayer
 62
  256
370
   -1
100
AcDbCircle
 10
89.08719821093118
 20
-5.26051990047652
 40
1.6
  0
CIRCLE
  5
B4
100
AcDbEntity
  8
case2
  6
ByLayer
 62
  256
370
   -1
100
AcDbCircle
 10
69.79634776228484
 20
-21.49964258796081
 40
1.6
  0
CIRCLE
  5
B5
100
AcDbEntity
  8
case2
  6
ByLayer
 62
  256
370
   -1
100
AcDbCircle
 10
79.27947058855483
 20
-44.86449649619337
 40
1.6
  0
CIRCLE
  5
B6
100
AcDbEntity
  8
case2
  6
ByLayer
 62
  256
370
   -1
100
AcDbCircle
 10
104.4312132633251
 20
-43.06564766617246
 40
1.6
  0
ENDSEC
  0
SECTION
  2
OBJECTS
  0
DICTIONARY
  5
C
330
0
100
AcDbDictionary
281
    1
  3
ACAD_GROUP
350
D
  0
DICTIONARY
  5
D
330
C
100
AcDbDictionary
281
    1
  0
ENDSEC
  0
EOF
