999
dxfrw 0.6.3
  0
SECTION
  2
HEADER
  9
$ACADVER
  1
AC1021
  9
$DWGCODEPAGE
  3
ANSI_1252
  9
$INSBASE
 10
0
 20
0
 30
0
  9
$EXTMIN
 10
8.518019994000326
 20
-118.9500685282756
 30
0
  9
$EXTMAX
 10
115.1413754089747
 20
-0.009917858716562478
 30
0
  9
$LIMMIN
 10
0
 20
0
  9
$LIMMAX
 10
420
 20
297
  9
$ORTHOMODE
 70
    0
  9
$REGENMODE
 70
    1
  9
$FILLMODE
 70
    1
  9
$QTEXTMODE
 70
    0
  9
$MIRRTEXT
 70
    0
  9
$LTSCALE
 40
1
  9
$ATTMODE
 70
    0
  9
$TEXTSIZE
 40
2.5
  9
$TRACEWID
 40
15.68
  9
$TEXTSTYLE
  7
STANDARD
  9
$CLAYER
  8
0
  9
$CELTYPE
  6
BYLAYER
  9
$CECOLOR
 62
  256
  9
$CELTSCALE
 40
1
  9
$DISPSILH
 70
    0
  9
$DIMSCALE
 40
1
  9
$DIMASZ
 40
2.5
  9
$DIMEXO
 40
0.625
  9
$DIMDLI
 40
3.75
  9
$DIMRND
 40
0
  9
$DIMDLE
 40
0
  9
$DIMEXE
 40
1.25
  9
$DIMTP
 40
0
  9
$DIMTM
 40
0
  9
$DIMTXT
 40
2.5
  9
$DIMCEN
 40
2.5
  9
$DIMTSZ
 40
0
  9
$DIMTOL
 70
    0
  9
$DIMLIM
 70
    0
  9
$DIMTIH
 70
    0
  9
$DIMTOH
 70
    0
  9
$DIMSE1
 70
    0
  9
$DIMSE2
 70
    0
  9
$DIMTAD
 70
    1
  9
$DIMZIN
 70
    8
  9
$DIMBLK
  1

  9
$DIMASO
 70
    1
  9
$DIMSHO
 70
    1
  9
$DIMPOST
  1

  9
$DIMAPOST
  1

  9
$DIMALT
 70
    0
  9
$DIMALTD
 70
    3
  9
$DIMALTF
 40
0.03937
  9
$DIMLFAC
 40
1
  9
$DIMTOFL
 70
    1
  9
$DIMTVP
 40
0
  9
$DIMTIX
 70
    0
  9
$DIMSOXD
 70
    0
  9
$DIMSAH
 70
    0
  9
$DIMBLK1
  1

  9
$DIMBLK2
  1

  9
$DIMSTYLE
  2
STANDARD
  9
$DIMCLRD
 70
    0
  9
$DIMCLRE
 70
    0
  9
$DIMCLRT
 70
    0
  9
$DIMTFAC
 40
1
  9
$DIMGAP
 40
0.625
  9
$DIMJUST
 70
    0
  9
$DIMSD1
 70
    0
  9
$DIMSD2
 70
    0
  9
$DIMTOLJ
 70
    0
  9
$DIMTZIN
 70
    8
  9
$DIMALTZ
 70
    0
  9
$DIMALTTZ
 70
    0
  9
$DIMUPT
 70
    0
  9
$DIMDEC
 70
    2
  9
$DIMTDEC
 70
    2
  9
$DIMALTU
 70
    2
  9
$DIMALTTD
 70
    3
  9
$DIMTXSTY
  7
STANDARD
  9
$DIMAUNIT
 70
    0
  9
$DIMADEC
 70
    0
  9
$DIMALTRND
 40
0
  9
$DIMAZIN
 70
    0
  9
$DIMDSEP
 70
   44
  9
$DIMATFIT
 70
    3
  9
$DIMFRAC
 70
    0
  9
$DIMLDRBLK
  1
STANDARD
  9
$DIMLUNIT
 70
    2
  9
$DIMLWD
 70
   -2
  9
$DIMLWE
 70
   -2
  9
$DIMTMOVE
 70
    0
  9
$DIMFXL
 40
1
  9
$DIMFXLON
 70
    0
  9
$DIMJOGANG
 40
0.7854
  9
$DIMTFILL
 70
    0
  9
$DIMTFILLCLR
 70
    0
  9
$DIMARCSYM
 70
    0
  9
$DIMLTYPE
  6

  9
$DIMLTEX1
  6

  9
$DIMLTEX2
  6

  9
$LUNITS
 70
    2
  9
$LUPREC
 70
    4
  9
$SKETCHINC
 40
1
  9
$FILLETRAD
 40
0
  9
$AUNITS
 70
    0
  9
$AUPREC
 70
    2
  9
$MENU
  1
.
  9
$ELEVATION
 40
0
  9
$PELEVATION
 40
0
  9
$THICKNESS
 40
0
  9
$LIMCHECK
 70
    0
  9
$CHAMFERA
 40
0
  9
$CHAMFERB
 40
0
  9
$CHAMFERC
 40
0
  9
$CHAMFERD
 40
0
  9
$SKPOLY
 70
    0
  9
$USRTIMER
 70
    1
  9
$ANGBASE
 50
0
  9
$ANGDIR
 70
    0
  9
$PDMODE
 70
   34
  9
$PDSIZE
 40
0
  9
$PLINEWID
 40
0
  9
$SPLFRAME
 70
    0
  9
$SPLINETYPE
 70
    2
  9
$SPLINESEGS
 70
    8
  9
$HANDSEED
  5
20000
  9
$SURFTAB1
 70
    6
  9
$SURFTAB2
 70
    6
  9
$SURFTYPE
 70
    6
  9
$SURFU
 70
    6
  9
$SURFV
 70
    6
  9
$UCSBASE
  2

  9
$UCSNAME
  2

  9
$UCSORG
 10
0
 20
0
 30
0
  9
$UCSXDIR
 10
1
 20
0
 30
0
  9
$UCSYDIR
 10
0
 20
1
 30
0
  9
$UCSORTHOREF
  2

  9
$UCSORTHOVIEW
 70
    0
  9
$UCSORGTOP
 10
0
 20
0
 30
0
  9
$UCSORGBOTTOM
 10
0
 20
0
 30
0
  9
$UCSORGLEFT
 10
0
 20
0
 30
0
  9
$UCSORGRIGHT
 10
0
 20
0
 30
0
  9
$UCSORGFRONT
 10
0
 20
0
 30
0
  9
$UCSORGBACK
 10
0
 20
0
 30
0
  9
$PUCSBASE
  2

  9
$PUCSNAME
  2

  9
$PUCSORG
 10
0
 20
0
 30
0
  9
$PUCSXDIR
 10
1
 20
0
 30
0
  9
$PUCSYDIR
 10
0
 20
1
 30
0
  9
$PUCSORTHOREF
  2

  9
$PUCSORTHOVIEW
 70
    0
  9
$PUCSORGTOP
 10
0
 20
0
 30
0
  9
$PUCSORGBOTTOM
 10
0
 20
0
 30
0
  9
$PUCSORGLEFT
 10
0
 20
0
 30
0
  9
$PUCSORGRIGHT
 10
0
 20
0
 30
0
  9
$PUCSORGFRONT
 10
0
 20
0
 30
0
  9
$PUCSORGBACK
 10
0
 20
0
 30
0
  9
$USERI1
 70
    0
  9
$USERI2
 70
    0
  9
$USERI3
 70
    0
  9
$USERI4
 70
    0
  9
$USERI5
 70
    0
  9
$USERR1
 40
0
  9
$USERR2
 40
0
  9
$USERR3
 40
0
  9
$USERR4
 40
0
  9
$USERR5
 40
0
  9
$WORLDVIEW
 70
    1
  9
$SHADEDGE
 70
    3
  9
$SHADEDIF
 70
   70
  9
$TILEMODE
 70
    1
  9
$MAXACTVP
 70
   64
  9
$PINSBASE
 10
0
 20
0
 30
0
  9
$PLIMCHECK
 70
    0
  9
$PEXTMIN
 10
0
 20
0
 30
0
  9
$PEXTMAX
 10
0
 20
0
 30
0
  9
$GRIDMODE
 70
    1
  9
$SNAPSTYLE
 70
    0
  9
$PLIMMIN
 10
0
 20
0
  9
$PLIMMAX
 10
7.820100000000001e-07
 20
1.106e-06
  9
$UNITMODE
 70
    0
  9
$VISRETAIN
 70
    1
  9
$PLINEGEN
 70
    0
  9
$PSLTSCALE
 70
    1
  9
$TREEDEPTH
 70
 3020
  9
$CMLSTYLE
  2
Standard
  9
$CMLJUST
 70
    0
  9
$CMLSCALE
 40
20
  9
$PROXYGRAPHICS
 70
    1
  9
$MEASUREMENT
 70
    1
  9
$CELWEIGHT
370
   -1
  9
$ENDCAPS
280
    0
  9
$JOINSTYLE
280
    0
  9
$LWDISPLAY
290
    0
  9
$INSUNITS
 70
    4
  9
$HYPERLINKBASE
  1

  9
$STYLESHEET
  1

  9
$XEDIT
290
    1
  9
$CEPSNTYPE
380
    0
  9
$PSTYLEMODE
290
    1
  9
$EXTNAMES
290
    1
  9
$PSVPSCALE
 40
1
  9
$OLESTARTUP
290
    0
  9
$SORTENTS
280
  127
  9
$INDEXCTL
280
    0
  9
$HIDETEXT
280
    1
  9
$XCLIPFRAME
290
    0
  9
$HALOGAP
280
    0
  9
$OBSCOLOR
 70
  257
  9
$OBSLTYPE
280
    0
  9
$INTERSECTIONDISPLAY
280
    0
  9
$INTERSECTIONCOLOR
 70
  257
  9
$DIMASSOC
280
    1
  9
$PROJECTNAME
  1

  9
$CAMERADISPLAY
290
    0
  9
$LENSLENGTH
 40
50
  9
$CAMERAHEIGHT
 40
0
  9
$STEPSPERSEC
 40
2
  9
$STEPSIZE
 40
50
  9
$3DDWFPREC
 40
2
  9
$PSOLWIDTH
 40
5
  9
$PSOLHEIGHT
 40
80
  9
$LOFTANG1
 40
1.570796326794897
  9
$LOFTANG2
 40
1.570796326794897
  9
$LOFTMAG1
 40
0
  9
$LOFTMAG2
 40
0
  9
$LOFTPARAM
 70
    7
  9
$LOFTNORMALS
280
    1
  9
$LATITUDE
 40
1
  9
$LONGITUDE
 40
1
  9
$NORTHDIRECTION
 40
0
  9
$TIMEZONE
 70
-8000
  9
$LIGHTGLYPHDISPLAY
280
    1
  9
$TILEMODELIGHTSYNCH
280
    1
  9
$SOLIDHIST
280
    1
  9
$SHOWHIST
280
    1
  9
$DWFFRAME
280
    2
  9
$DGNFRAME
280
    0
  9
$REALWORLDSCALE
290
    1
  9
$INTERFERECOLOR
 62
    1
  9
$CSHADOW
280
    0
  9
$SHADOWPLANELOCATION
 40
0
  0
ENDSEC
  0
SECTION
  2
CLASSES
  0
ENDSEC
  0
SECTION
  2
TABLES
  0
TABLE
  2
VPORT
  5
8
330
0
100
AcDbSymbolTable
 70
    1
  0
VPORT
  5
31
330
2
100
AcDbSymbolTableRecord
100
AcDbViewportTableRecord
  2
*ACTIVE
 70
    0
 10
0
 20
0
 11
1
 21
1
 12
68.71712300588226
 22
0.5779404794439215
 13
0
 23
0
 14
10
 24
10
 15
10
 25
10
 16
0
 26
0
 36
1
 17
0
 27
0
 37
0
 40
121.2519125873347
 41
1.244995233555767
 42
50
 43
0
 44
0
 50
0
 51
0
 71
    0
 72
  100
 73
    1
 74
    3
 75
    0
 76
    1
 77
    0
 78
    0
281
    0
 65
    1
110
0
120
0
130
0
111
1
121
0
131
0
112
0
122
1
132
0
 79
    0
146
0
348
10020
 60
    7
 61
    5
292
1
282
    1
141
0
142
0
 63
  250
421
3358443
  0
ENDTAB
  0
TABLE
  2
LTYPE
  5
5
330
0
100
AcDbSymbolTable
 70
    4
  0
LTYPE
  5
14
330
5
100
AcDbSymbolTableRecord
100
AcDbLinetypeTableRecord
  2
ByBlock
 70
    0
  3

 72
   65
 73
    0
 40
0
  0
LTYPE
  5
15
330
5
100
AcDbSymbolTableRecord
100
AcDbLinetypeTableRecord
  2
ByLayer
 70
    0
  3

 72
   65
 73
    0
 40
0
  0
LTYPE
  5
16
330
5
100
AcDbSymbolTableRecord
100
AcDbLinetypeTableRecord
  2
Continuous
 70
    0
  3
Solid line
 72
   65
 73
    0
 40
0
  0
LTYPE
  5
32
330
5
100
AcDbSymbolTableRecord
100
AcDbLinetypeTableRecord
  2
DOT
 70
    0
  3
Dot . . . . . . . . . . . . . . . . . . . . . .
 72
   65
 73
    2
 40
6.35
 49
0
 74
    0
 49
-6.35
 74
    0
  0
LTYPE
  5
33
330
5
100
AcDbSymbolTableRecord
100
AcDbLinetypeTableRecord
  2
DOTTINY
 70
    0
  3
Dot (.15x) .....................................
 72
   65
 73
    2
 40
0.9525
 49
0
 74
    0
 49
-0.9525
 74
    0
  0
LTYPE
  5
34
330
5
100
AcDbSymbolTableRecord
100
AcDbLinetypeTableRecord
  2
DOT2
 70
    0
  3
Dot (.5x) .....................................
 72
   65
 73
    2
 40
3.175
 49
0
 74
    0
 49
-3.175
 74
    0
  0
LTYPE
  5
35
330
5
100
AcDbSymbolTableRecord
100
AcDbLinetypeTableRecord
  2
DOTX2
 70
    0
  3
Dot (2x) .  .  .  .  .  .  .  .  .  .  .  .  .
 72
   65
 73
    2
 40
12.7
 49
0
 74
    0
 49
-12.7
 74
    0
  0
LTYPE
  5
36
330
5
100
AcDbSymbolTableRecord
100
AcDbLinetypeTableRecord
  2
DASHED
 70
    0
  3
Dashed _ _ _ _ _ _ _ _ _ _ _ _ _ _ _ _ _
 72
   65
 73
    2
 40
19.05
 49
12.7
 74
    0
 49
-6.35
 74
    0
  0
LTYPE
  5
37
330
5
100
AcDbSymbolTableRecord
100
AcDbLinetypeTableRecord
  2
DASHEDTINY
 70
    0
  3
Dashed (.15x) _ _ _ _ _ _ _ _ _ _ _ _ _ _ _ _ _
 72
   65
 73
    2
 40
2.8575
 49
1.905
 74
    0
 49
-0.9525
 74
    0
  0
LTYPE
  5
38
330
5
100
AcDbSymbolTableRecord
100
AcDbLinetypeTableRecord
  2
DASHED2
 70
    0
  3
Dashed (.5x) _ _ _ _ _ _ _ _ _ _ _ _ _ _ _ _ _
 72
   65
 73
    2
 40
9.524999999999999
 49
6.35
 74
    0
 49
-3.175
 74
    0
  0
LTYPE
  5
39
330
5
100
AcDbSymbolTableRecord
100
AcDbLinetypeTableRecord
  2
DASHEDX2
 70
    0
  3
Dashed (2x) ____  ____  ____  ____  ____  ___
 72
   65
 73
    2
 40
38.09999999999999
 49
25.4
 74
    0
 49
-12.7
 74
    0
  0
LTYPE
  5
3A
330
5
100
AcDbSymbolTableRecord
100
AcDbLinetypeTableRecord
  2
DASHDOT
 70
    0
  3
Dash dot __ . __ . __ . __ . __ . __ . __ . __
 72
   65
 73
    4
 40
25.4
 49
12.7
 74
    0
 49
-6.35
 74
    0
 49
0
 74
    0
 49
-6.35
 74
    0
  0
LTYPE
  5
3B
330
5
100
AcDbSymbolTableRecord
100
AcDbLinetypeTableRecord
  2
DASHDOTTINY
 70
    0
  3
Dash dot (.15x) _._._._._._._._._._._._._._._.
 72
   65
 73
    4
 40
3.81
 49
1.905
 74
    0
 49
-0.9525
 74
    0
 49
0
 74
    0
 49
-0.9525
 74
    0
  0
LTYPE
  5
3C
330
5
100
AcDbSymbolTableRecord
100
AcDbLinetypeTableRecord
  2
DASHDOT2
 70
    0
  3
Dash dot (.5x) _._._._._._._._._._._._._._._.
 72
   65
 73
    4
 40
12.7
 49
6.35
 74
    0
 49
-3.175
 74
    0
 49
0
 74
    0
 49
-3.175
 74
    0
  0
LTYPE
  5
3D
330
5
100
AcDbSymbolTableRecord
100
AcDbLinetypeTableRecord
  2
DASHDOTX2
 70
    0
  3
Dash dot (2x) ____  .  ____  .  ____  .  ___
 72
   65
 73
    4
 40
50.8
 49
25.4
 74
    0
 49
-12.7
 74
    0
 49
0
 74
    0
 49
-12.7
 74
    0
  0
LTYPE
  5
3E
330
5
100
AcDbSymbolTableRecord
100
AcDbLinetypeTableRecord
  2
DIVIDE
 70
    0
  3
Divide ____ . . ____ . . ____ . . ____ . . ____
 72
   65
 73
    6
 40
31.75
 49
12.7
 74
    0
 49
-6.35
 74
    0
 49
0
 74
    0
 49
-6.35
 74
    0
 49
0
 74
    0
 49
-6.35
 74
    0
  0
LTYPE
  5
3F
330
5
100
AcDbSymbolTableRecord
100
AcDbLinetypeTableRecord
  2
DIVIDETINY
 70
    0
  3
Divide (.15x) __..__..__..__..__..__..__..__.._
 72
   65
 73
    6
 40
4.7625
 49
1.905
 74
    0
 49
-0.9525
 74
    0
 49
0
 74
    0
 49
-0.9525
 74
    0
 49
0
 74
    0
 49
-0.9525
 74
    0
  0
LTYPE
  5
40
330
5
100
AcDbSymbolTableRecord
100
AcDbLinetypeTableRecord
  2
DIVIDE2
 70
    0
  3
Divide (.5x) __..__..__..__..__..__..__..__.._
 72
   65
 73
    6
 40
15.875
 49
6.35
 74
    0
 49
-3.175
 74
    0
 49
0
 74
    0
 49
-3.175
 74
    0
 49
0
 74
    0
 49
-3.175
 74
    0
  0
LTYPE
  5
41
330
5
100
AcDbSymbolTableRecord
100
AcDbLinetypeTableRecord
  2
DIVIDEX2
 70
    0
  3
Divide (2x) ________  .  .  ________  .  .  _
 72
   65
 73
    6
 40
63.5
 49
25.4
 74
    0
 49
-12.7
 74
    0
 49
0
 74
    0
 49
-12.7
 74
    0
 49
0
 74
    0
 49
-12.7
 74
    0
  0
LTYPE
  5
42
330
5
100
AcDbSymbolTableRecord
100
AcDbLinetypeTableRecord
  2
BORDER
 70
    0
  3
Border __ __ . __ __ . __ __ . __ __ . __ __ .
 72
   65
 73
    6
 40
44.45
 49
12.7
 74
    0
 49
-6.35
 74
    0
 49
12.7
 74
    0
 49
-6.35
 74
    0
 49
0
 74
    0
 49
-6.35
 74
    0
  0
LTYPE
  5
43
330
5
100
AcDbSymbolTableRecord
100
AcDbLinetypeTableRecord
  2
BORDERTINY
 70
    0
  3
Border (.15x) __.__.__.__.__.__.__.__.__.__.__.
 72
   65
 73
    6
 40
6.6675
 49
1.905
 74
    0
 49
-0.9525
 74
    0
 49
1.905
 74
    0
 49
-0.9525
 74
    0
 49
0
 74
    0
 49
-0.9525
 74
    0
  0
LTYPE
  5
44
330
5
100
AcDbSymbolTableRecord
100
AcDbLinetypeTableRecord
  2
BORDER2
 70
    0
  3
Border (.5x) __.__.__.__.__.__.__.__.__.__.__.
 72
   65
 73
    6
 40
22.225
 49
6.35
 74
    0
 49
-3.175
 74
    0
 49
6.35
 74
    0
 49
-3.175
 74
    0
 49
0
 74
    0
 49
-3.175
 74
    0
  0
LTYPE
  5
45
330
5
100
AcDbSymbolTableRecord
100
AcDbLinetypeTableRecord
  2
BORDERX2
 70
    0
  3
Border (2x) ____  ____  .  ____  ____  .  ___
 72
   65
 73
    6
 40
88.89999999999999
 49
25.4
 74
    0
 49
-12.7
 74
    0
 49
25.4
 74
    0
 49
-12.7
 74
    0
 49
0
 74
    0
 49
-12.7
 74
    0
  0
LTYPE
  5
46
330
5
100
AcDbSymbolTableRecord
100
AcDbLinetypeTableRecord
  2
CENTER
 70
    0
  3
Center ____ _ ____ _ ____ _ ____ _ ____ _ ____
 72
   65
 73
    4
 40
50.8
 49
31.75
 74
    0
 49
-6.35
 74
    0
 49
6.35
 74
    0
 49
-6.35
 74
    0
  0
LTYPE
  5
47
330
5
100
AcDbSymbolTableRecord
100
AcDbLinetypeTableRecord
  2
CENTERTINY
 70
    0
  3
Center (.15x) ___ _ ___ _ ___ _ ___ _ ___ _ ___
 72
   65
 73
    4
 40
7.619999999999999
 49
4.7625
 74
    0
 49
-0.9525
 74
    0
 49
0.9525
 74
    0
 49
-0.9525
 74
    0
  0
LTYPE
  5
48
330
5
100
AcDbSymbolTableRecord
100
AcDbLinetypeTableRecord
  2
CENTER2
 70
    0
  3
Center (.5x) ___ _ ___ _ ___ _ ___ _ ___ _ ___
 72
   65
 73
    4
 40
28.575
 49
19.05
 74
    0
 49
-3.175
 74
    0
 49
3.175
 74
    0
 49
-3.175
 74
    0
  0
LTYPE
  5
49
330
5
100
AcDbSymbolTableRecord
100
AcDbLinetypeTableRecord
  2
CENTERX2
 70
    0
  3
Center (2x) ________  __  ________  __  _____
 72
   65
 73
    4
 40
101.6
 49
63.5
 74
    0
 49
-12.7
 74
    0
 49
12.7
 74
    0
 49
-12.7
 74
    0
  0
ENDTAB
  0
TABLE
  2
LAYER
  5
2
330
0
100
AcDbSymbolTable
 70
    1
  0
LAYER
  5
10
330
2
100
AcDbSymbolTableRecord
100
AcDbLayerTableRecord
  2
0
 70
    0
 62
    7
  6
CONTINUOUS
370
    0
390
F
  0
LAYER
  5
4A
330
2
100
AcDbSymbolTableRecord
100
AcDbLayerTableRecord
  2
border
 70
    0
 62
   16
420
8388608
  6
CONTINUOUS
370
    0
390
F
  0
LAYER
  5
4B
330
2
100
AcDbSymbolTableRecord
100
AcDbLayerTableRecord
  2
case1
 70
    0
 62
    7
  6
CONTINUOUS
370
    0
390
F
  0
LAYER
  5
4C
330
2
100
AcDbSymbolTableRecord
100
AcDbLayerTableRecord
  2
construction1
 70
    0
 62
    2
  6
CONTINUOUS
370
    0
390
F
  0
LAYER
  5
4D
330
2
100
AcDbSymbolTableRecord
100
AcDbLayerTableRecord
  2
dimensions
 70
    0
 62
   56
420
8421376
  6
CONTINUOUS
370
    0
390
F
  0
LAYER
  5
4E
330
2
100
AcDbSymbolTableRecord
100
AcDbLayerTableRecord
  2
handle1
 70
    0
 62
    7
  6
CONTINUOUS
370
    0
390
F
  0
LAYER
  5
4F
330
2
100
AcDbSymbolTableRecord
100
AcDbLayerTableRecord
  2
handle3
 70
    0
 62
    7
  6
CONTINUOUS
370
    0
390
F
  0
LAYER
  5
50
330
2
100
AcDbSymbolTableRecord
100
AcDbLayerTableRecord
  2
handle4
 70
    0
 62
    7
  6
CONTINUOUS
370
    0
390
F
  0
LAYER
  5
51
330
2
100
AcDbSymbolTableRecord
100
AcDbLayerTableRecord
  2
handle5
 70
    0
 62
    4
  6
CONTINUOUS
370
    0
390
F
  0
LAYER
  5
52
330
2
100
AcDbSymbolTableRecord
100
AcDbLayerTableRecord
  2
handle9
 70
    0
 62
    7
  6
CONTINUOUS
370
    0
390
F
  0
LAYER
  5
53
330
2
100
AcDbSymbolTableRecord
100
AcDbLayerTableRecord
  2
pot
 70
    0
 62
    7
  6
CONTINUOUS
370
    0
390
F
  0
LAYER
  5
54
330
2
100
AcDbSymbolTableRecord
100
AcDbLayerTableRecord
  2
trigger
 70
    0
 62
    7
  6
CONTINUOUS
370
    0
390
F
  0
ENDTAB
  0
TABLE
  2
STYLE
  5
3
330
0
100
AcDbSymbolTable
 70
    3
  0
STYLE
  5
55
330
2
100
AcDbSymbolTableRecord
100
AcDbTextStyleTableRecord
  2
Standard
 70
    0
 40
0
 41
1
 50
0
 71
    0
 42
1
  3
txt
  4

  0
ENDTAB
  0
TABLE
  2
VIEW
  5
6
330
0
100
AcDbSymbolTable
 70
    0
  0
ENDTAB
  0
TABLE
  2
UCS
  5
7
330
0
100
AcDbSymbolTable
 70
    0
  0
ENDTAB
  0
TABLE
  2
APPID
  5
9
330
0
100
AcDbSymbolTable
 70
    1
  0
APPID
  5
12
330
9
100
AcDbSymbolTableRecord
100
AcDbRegAppTableRecord
  2
ACAD
 70
    0
  0
APPID
  5
56
330
9
100
AcDbSymbolTableRecord
100
AcDbRegAppTableRecord
  2
LibreCad
 70
    0
  0
ENDTAB
  0
TABLE
  2
DIMSTYLE
  5
A
330
0
100
AcDbSymbolTable
 70
    1
100
AcDbDimStyleTable
 71
    1
  0
DIMSTYLE
105
57
330
A
100
AcDbSymbolTableRecord
100
AcDbDimStyleTableRecord
  2
Standard
 70
    0
 40
1
 41
2.5
 42
0.625
 43
0.38
 44
1.25
 45
0
 46
0
 47
0
 48
0
 49
1
140
2.5
141
0.09
142
0
143
25.4
144
1
145
0
146
1
147
0.625
148
0
 71
    0
 72
    0
 73
    0
 74
    1
 75
    0
 76
    0
 77
    0
 78
    8
 79
    0
170
    0
171
    2
172
    0
173
    0
174
    0
175
    0
176
    0
177
    0
178
    0
179
    0
271
    2
272
    4
273
    2
274
    2
275
    0
276
    0
277
    2
278
   44
279
    0
280
    0
281
    0
282
    0
283
    1
284
    0
285
    0
286
    0
288
    0
289
    3
340
STANDARD
341

371
   -2
372
   -2
  0
ENDTAB
  0
TABLE
  2
BLOCK_RECORD
  5
1
330
0
100
AcDbSymbolTable
 70
    2
  0
BLOCK_RECORD
  5
1F
330
1
100
AcDbSymbolTableRecord
100
AcDbBlockTableRecord
  2
*Model_Space
 70
    0
280
    1
281
    0
  0
BLOCK_RECORD
  5
1E
330
1
100
AcDbSymbolTableRecord
100
AcDbBlockTableRecord
  2
*Paper_Space
 70
    0
280
    1
281
    0
  0
ENDTAB
  0
ENDSEC
  0
SECTION
  2
BLOCKS
  0
BLOCK
  5
20
330
1F
100
AcDbEntity
  8
0
100
AcDbBlockBegin
  2
*Model_Space
 70
    0
 10
0
 20
0
 30
0
  3
*Model_Space
  1

  0
ENDBLK
  5
21
330
1F
100
AcDbEntity
  8
0
100
AcDbBlockEnd
  0
BLOCK
  5
1C
330
1B
100
AcDbEntity
  8
0
100
AcDbBlockBegin
  2
*Paper_Space
 70
    0
 10
0
 20
0
 30
0
  3
*Paper_Space
  1

  0
ENDBLK
  5
1D
330
1F
100
AcDbEntity
  8
0
100
AcDbBlockEnd
  0
ENDSEC
  0
SECTION
  2
ENTITIES
  0
LINE
  5
58
100
AcDbEntity
  8
handle5
  6
ByLayer
 62
  256
370
   -1
100
AcDbLine
 10
110.245137316545
 20
-108.3588404340957
 11
112.5908122007189
 21
-108.5497918741539
  0
LINE
  5
59
100
AcDbEntity
  8
handle5
  6
ByLayer
 62
  256
370
   -1
100
AcDbLine
 10
105.9480976196594
 20
-94.92310062725693
 11
108.3186324449926
 21
-95.11607532463375
  0
LINE
  5
5A
100
AcDbEntity
  8
handle5
  6
ByLayer
 62
  256
370
   -1
100
AcDbLine
 10
109.1454477298077
 20
-94.17643508480165
 11
109.9545855813967
 21
-96.17909034743906
  0
LINE
  5
5B
100
AcDbEntity
  8
handle5
  6
ByLayer
 62
  256
370
   -1
100
AcDbLine
 10
109.9545855813967
 20
-96.17909034743906
 11
108.3358936488917
 21
-98.01866295319797
  0
LINE
  5
5C
100
AcDbEntity
  8
handle5
  6
ByLayer
 62
  256
370
   -1
100
AcDbLine
 10
110.6302711316785
 20
-106.5134113096775
 11
109.8053712156416
 21
-104.4717441762515
  0
LINE
  5
5D
100
AcDbEntity
  8
handle5
  6
ByLayer
 62
  256
370
   -1
100
AcDbLine
 10
102.3884960773325
 20
-83.42475007022853
 11
103.6359871332136
 21
-83.52630201433664
  0
LINE
  5
5E
100
AcDbEntity
  8
handle5
  6
ByLayer
 62
  256
370
   -1
100
AcDbLine
 10
104.4628027926403
 20
-82.58666270168629
 11
103.6359871332136
 21
-83.52630201433664
  0
LINE
  5
5F
100
AcDbEntity
  8
handle5
  6
ByLayer
 62
  256
370
   -1
100
AcDbLine
 10
104.4628027926403
 20
-82.58666270168629
 11
105.2719398013534
 21
-84.58931587816477
  0
LINE
  5
60
100
AcDbEntity
  8
handle5
  6
ByLayer
 62
  256
370
   -1
100
AcDbLine
 10
105.2719398013534
 20
-84.58931587816477
 11
103.6532483371128
 21
-86.42888964290086
  0
LINE
  5
61
100
AcDbEntity
  8
handle5
  6
ByLayer
 62
  256
370
   -1
100
AcDbLine
 10
100.8798470675988
 20
-85.17929474068336
 11
103.2255219517726
 21
-85.3702461807415
  0
LINE
  5
62
100
AcDbEntity
  8
handle5
  6
ByLayer
 62
  256
370
   -1
100
AcDbLine
 10
103.2255219517726
 20
-85.3702461807415
 11
105.9098379675576
 21
-92.01405796761554
  0
LINE
  5
63
100
AcDbEntity
  8
handle5
  6
ByLayer
 62
  256
370
   -1
100
AcDbLine
 10
103.539411296688
 20
-91.8210926902704
 11
105.9098379675576
 21
-92.01405796761554
  0
LINE
  5
64
100
AcDbEntity
  8
handle5
  6
ByLayer
 62
  256
370
   -1
100
AcDbLine
 10
105.9476259135524
 20
-94.92363823117586
 11
105.1227259038627
 21
-92.88197086595443
  0
LINE
  5
65
100
AcDbEntity
  8
handle5
  6
ByLayer
 62
  256
370
   -1
100
AcDbLine
 10
105.5377398434587
 20
-96.76705235932985
 11
107.9081673572044
 21
-96.96001972283403
  0
LINE
  5
66
100
AcDbEntity
  8
handle5
  6
ByLayer
 62
  256
370
   -1
100
AcDbLine
 10
109.7129780879694
 20
-73.73307932205483
 11
101.2654530571036
 21
-83.33332917132344
  0
LINE
  5
67
100
AcDbEntity
  8
handle5
  6
ByLayer
 62
  256
370
   -1
100
AcDbLine
 10
108.9412863531944
 20
-77.49706156238307
 11
106.571103902606
 21
-77.30411813862332
  0
LINE
  5
68
100
AcDbEntity
  8
handle5
  6
ByLayer
 62
  256
370
   -1
100
AcDbLine
 10
110.1126724904713
 20
-74.72230690282703
 11
108.5415850370066
 21
-76.50778149993852
  0
LINE
  5
69
100
AcDbEntity
  8
handle5
  6
ByLayer
 62
  256
370
   -1
100
AcDbLine
 10
108.5415850370066
 20
-76.50778149993852
 11
110.0805903012366
 21
-80.31689386019167
  0
LINE
  5
6A
100
AcDbEntity
  8
handle5
  6
ByLayer
 62
  256
370
   -1
100
AcDbLine
 10
106.5791323885512
 20
-71.65061641195319
 11
103.8589397252277
 21
-64.9180081896414
  0
LINE
  5
6B
100
AcDbEntity
  8
handle5
  6
ByLayer
 62
  256
370
   -1
100
AcDbLine
 10
108.150210085485
 20
-69.86515303692289
 11
106.5791323885512
 21
-71.65061641195319
  0
LINE
  5
6C
100
AcDbEntity
  8
handle5
  6
ByLayer
 62
  256
370
   -1
100
AcDbLine
 10
96.58280737071313
 20
-71.74355493384456
 11
98.95334219604638
 21
-71.93652963122139
  0
LINE
  5
6D
100
AcDbEntity
  8
handle5
  6
ByLayer
 62
  256
370
   -1
100
AcDbLine
 10
104.2586410414155
 20
-65.90728825208606
 11
98.95334219604638
 21
-71.93652963122139
  0
LINE
  5
6E
100
AcDbEntity
  8
handle5
  6
ByLayer
 62
  256
370
   -1
100
AcDbLine
 10
99.78015748086142
 20
-70.99688939138929
 11
107.771565878402
 21
-71.76527226199181
  0
LINE
  5
6F
100
AcDbEntity
  8
handle5
  6
ByLayer
 62
  256
370
   -1
100
AcDbLine
 10
108.5276369985477
 20
-73.63658480127577
 11
107.771565878402
 21
-71.76527226199181
  0
LINE
  5
70
100
AcDbEntity
  8
handle5
  6
ByLayer
 62
  256
370
   -1
100
AcDbLine
 10
99.78015748086142
 20
-70.99688939138929
 11
100.5892953324506
 21
-72.99954465402669
  0
LINE
  5
71
100
AcDbEntity
  8
handle5
  6
ByLayer
 62
  256
370
   -1
100
AcDbLine
 10
108.9412863531944
 20
-77.49706156238307
 11
104.4628027926403
 21
-82.58666270168629
  0
LINE
  5
72
100
AcDbEntity
  8
handle5
  6
ByLayer
 62
  256
370
   -1
100
AcDbLine
 10
101.2654530571036
 20
-83.33332917132344
 11
102.3884960773325
 21
-83.42475007022853
  0
LINE
  5
73
100
AcDbEntity
  8
handle5
  6
ByLayer
 62
  256
370
   -1
100
AcDbLine
 10
100.5892953324506
 20
-72.99954465402669
 11
98.97060339994556
 21
-74.83911725978561
  0
LINE
  5
74
100
AcDbEntity
  8
handle5
  6
ByLayer
 62
  256
370
   -1
100
AcDbLine
 10
98.54287710825822
 20
-73.78047402942167
 11
101.2271930303903
 21
-80.4242855845003
  0
LINE
  5
75
100
AcDbEntity
  8
handle5
  6
ByLayer
 62
  256
370
   -1
100
AcDbLine
 10
108.5276369985477
 20
-73.63658480127577
 11
106.9089490065655
 21
-75.47615581493523
  0
LINE
  5
76
100
AcDbEntity
  8
handle5
  6
ByLayer
 62
  256
370
   -1
100
AcDbLine
 10
106.570473802741
 20
-77.30440318813254
 11
105.7957073155888
 21
-75.38681871255341
  0
LINE
  5
77
100
AcDbEntity
  8
handle5
  6
ByLayer
 62
  256
370
   -1
100
AcDbLine
 10
106.9089490065655
 20
-75.47615581493523
 11
98.97060255706947
 21
-74.83911517362645
  0
LINE
  5
78
100
AcDbEntity
  8
handle5
  6
ByLayer
 62
  256
370
   -1
100
AcDbLine
 10
100.4400809666953
 20
-81.29219848283918
 11
105.7957073155888
 21
-75.38681871255341
  0
LINE
  5
79
100
AcDbEntity
  8
handle5
  6
ByLayer
 62
  256
370
   -1
100
AcDbLine
 10
101.2649808827322
 20
-83.33386561626509
 11
100.4400809666953
 21
-81.29219848283918
  0
LINE
  5
7A
100
AcDbEntity
  8
handle5
  6
ByLayer
 62
  256
370
   -1
100
AcDbLine
 10
108.2001507943512
 20
-64.31479013570635
 11
109.7710682823308
 21
-62.52951417389858
  0
LINE
  5
7B
100
AcDbEntity
  8
handle5
  6
ByLayer
 62
  256
370
   -1
100
AcDbLine
 10
105.4300067806921
 20
-63.13254183398527
 11
107.8004494781635
 21
-63.3255100732618
  0
LINE
  5
7C
100
AcDbEntity
  8
handle5
  6
ByLayer
 62
  256
370
   -1
100
AcDbLine
 10
105.8379968297079
 20
-58.46834498527647
 11
104.6568098052261
 21
-55.54485005039959
  0
LINE
  5
7D
100
AcDbEntity
  8
handle5
  6
ByLayer
 62
  256
370
   -1
100
AcDbLine
 10
103.4675647737061
 20
-58.27537972662577
 11
105.8379968297079
 21
-58.46834498527647
  0
LINE
  5
7E
100
AcDbEntity
  8
handle5
  6
ByLayer
 62
  256
370
   -1
100
AcDbLine
 10
105.8159595832615
 20
-61.25047636577148
 11
105.0598888377275
 21
-59.37916475366927
  0
LINE
  5
7F
100
AcDbEntity
  8
handle5
  6
ByLayer
 62
  256
370
   -1
100
AcDbLine
 10
105.8159595832615
 20
-61.25047636577148
 11
108.2582218344459
 21
-61.44929142084487
  0
LINE
  5
80
100
AcDbEntity
  8
handle5
  6
ByLayer
 62
  256
370
   -1
100
AcDbLine
 10
109.7717195477517
 20
-62.52928151016278
 11
108.9969534352109
 21
-60.61169796176551
  0
LINE
  5
81
100
AcDbEntity
  8
handle5
  6
ByLayer
 62
  256
370
   -1
100
AcDbLine
 10
105.0303327761904
 20
-62.14330601175772
 11
96.58280783897762
 21
-71.74355609282185
  0
LINE
  5
82
100
AcDbEntity
  8
handle5
  6
ByLayer
 62
  256
370
   -1
100
AcDbLine
 10
104.2586410414155
 20
-65.90728825208606
 11
101.8884585908271
 21
-65.71434482832632
  0
LINE
  5
83
100
AcDbEntity
  8
handle5
  6
ByLayer
 62
  256
370
   -1
100
AcDbLine
 10
105.4300271786924
 20
-63.1325335925298
 11
103.8589397252277
 21
-64.9180081896414
  0
LINE
  5
84
100
AcDbEntity
  8
handle5
  6
ByLayer
 62
  256
370
   -1
100
AcDbLine
 10
101.8964870767723
 20
-60.06084310165608
 11
100.7153000522904
 21
-57.1373481667793
  0
LINE
  5
85
100
AcDbEntity
  8
handle5
  6
ByLayer
 62
  256
370
   -1
100
AcDbLine
 10
103.4675647737061
 20
-58.27537972662577
 11
101.8964870767723
 21
-60.06084310165608
  0
LINE
  5
86
100
AcDbEntity
  8
handle5
  6
ByLayer
 62
  256
370
   -1
100
AcDbLine
 10
103.8449916867688
 20
-62.04681149097866
 11
91.09628115487016
 21
-61.02374460767425
  0
LINE
  5
87
100
AcDbEntity
  8
handle5
  6
ByLayer
 62
  256
370
   -1
100
AcDbLine
 10
93.02320582838644
 20
-60.24520437681616
 11
94.27069688426747
 21
-60.34675632092427
  0
LINE
  5
88
100
AcDbEntity
  8
handle5
  6
ByLayer
 62
  256
370
   -1
100
AcDbLine
 10
95.09751254369407
 20
-59.40711700827393
 11
94.27069688426747
 21
-60.34675632092427
  0
LINE
  5
89
100
AcDbEntity
  8
handle5
  6
ByLayer
 62
  256
370
   -1
100
AcDbLine
 10
95.09751254369407
 20
-59.40711700827393
 11
103.0889209412347
 21
-60.17549987887645
  0
LINE
  5
8A
100
AcDbEntity
  8
handle5
  6
ByLayer
 62
  256
370
   -1
100
AcDbLine
 10
103.8449916867688
 20
-62.04681149097866
 11
103.0889209412347
 21
-60.17549987887645
  0
LINE
  5
8B
100
AcDbEntity
  8
handle5
  6
ByLayer
 62
  256
370
   -1
100
AcDbLine
 10
95.09751254369407
 20
-59.40711700827393
 11
95.90664955240716
 21
-61.4097701847524
  0
LINE
  5
8C
100
AcDbEntity
  8
handle5
  6
ByLayer
 62
  256
370
   -1
100
AcDbLine
 10
95.90664955240716
 20
-61.4097701847524
 11
94.28795808816653
 21
-63.24934394948849
  0
LINE
  5
8D
100
AcDbEntity
  8
handle5
  6
ByLayer
 62
  256
370
   -1
100
AcDbLine
 10
91.51455681865252
 20
-61.999749047271
 11
93.86023170282641
 21
-62.19070048732914
  0
LINE
  5
8E
100
AcDbEntity
  8
handle5
  6
ByLayer
 62
  256
370
   -1
100
AcDbLine
 10
93.86023170282641
 20
-62.19070048732914
 11
96.54454771861135
 21
-68.83451227420318
  0
LINE
  5
8F
100
AcDbEntity
  8
handle5
  6
ByLayer
 62
  256
370
   -1
100
AcDbLine
 10
94.17412104774172
 20
-68.64154699685804
 11
96.54454771861135
 21
-68.83451227420318
  0
LINE
  5
90
100
AcDbEntity
  8
handle5
  6
ByLayer
 62
  256
370
   -1
100
AcDbLine
 10
103.8449916867688
 20
-62.04681149097866
 11
102.2263036947866
 21
-63.88638250463822
  0
LINE
  5
91
100
AcDbEntity
  8
handle5
  6
ByLayer
 62
  256
370
   -1
100
AcDbLine
 10
101.8878284909621
 20
-65.71462987783542
 11
101.1130623784215
 21
-63.79704632943816
  0
LINE
  5
92
100
AcDbEntity
  8
handle5
  6
ByLayer
 62
  256
370
   -1
100
AcDbLine
 10
102.2263036947866
 20
-63.88638250463822
 11
94.28795724529044
 21
-63.24934186332933
  0
LINE
  5
93
100
AcDbEntity
  8
handle5
  6
ByLayer
 62
  256
370
   -1
100
AcDbLine
 10
95.75743565491645
 20
-69.70242517254206
 11
101.1130623784215
 21
-63.79704632943816
  0
LINE
  5
94
100
AcDbEntity
  8
handle5
  6
ByLayer
 62
  256
370
   -1
100
AcDbLine
 10
96.58233566460615
 20
-71.74409253776338
 11
95.75743565491645
 21
-69.70242517254206
  0
LINE
  5
95
100
AcDbEntity
  8
handle5
  6
ByLayer
 62
  256
370
   -1
100
AcDbLine
 10
96.17244959451246
 20
-73.58750666591749
 11
98.54287710825822
 21
-73.78047402942167
  0
LINE
  5
96
100
AcDbEntity
  8
handle5
  6
ByLayer
 62
  256
370
   -1
100
AcDbLine
 10
108.5276369985477
 20
-73.63658480127577
 11
95.77892609203754
 21
-72.61351699078949
  0
LINE
  5
97
100
AcDbEntity
  8
handle5
  6
ByLayer
 62
  256
370
   -1
100
AcDbLine
 10
98.85676635952065
 20
-80.23132030715516
 11
101.2271930303903
 21
-80.4242855845003
  0
LINE
  5
98
100
AcDbEntity
  8
handle5
  6
ByLayer
 62
  256
370
   -1
100
AcDbLine
 10
103.5175058571838
 20
-52.7250177525911
 11
105.0884233451634
 21
-50.93974179078322
  0
LINE
  5
99
100
AcDbEntity
  8
handle5
  6
ByLayer
 62
  256
370
   -1
100
AcDbLine
 10
100.7473618435248
 20
-51.54276945087003
 11
103.1178045409961
 21
-51.73573769014644
  0
LINE
  5
9A
100
AcDbEntity
  8
handle5
  6
ByLayer
 62
  256
370
   -1
100
AcDbLine
 10
103.1178045409961
 20
-51.73573769014644
 11
104.6568098052261
 21
-55.54485005039959
  0
LINE
  5
9B
100
AcDbEntity
  8
handle5
  6
ByLayer
 62
  256
370
   -1
100
AcDbLine
 10
98.7849198365388
 20
-46.68560734351041
 11
101.1553518925408
 21
-46.87857260216123
  0
LINE
  5
9C
100
AcDbEntity
  8
handle5
  6
ByLayer
 62
  256
370
   -1
100
AcDbLine
 10
101.1333146460943
 20
-49.66070398265623
 11
100.3772435259484
 21
-47.78939144337215
  0
LINE
  5
9D
100
AcDbEntity
  8
handle5
  6
ByLayer
 62
  256
370
   -1
100
AcDbLine
 10
101.1333146460943
 20
-49.66070398265623
 11
103.5755768972786
 21
-49.85951903772963
  0
LINE
  5
9E
100
AcDbEntity
  8
handle5
  6
ByLayer
 62
  256
370
   -1
100
AcDbLine
 10
105.0890746105844
 20
-50.93950912704742
 11
104.314308123432
 21
-49.0219246514684
  0
LINE
  5
9F
100
AcDbEntity
  8
handle5
  6
ByLayer
 62
  256
370
   -1
100
AcDbLine
 10
100.3476878390232
 20
-50.55353362864247
 11
91.90016280815735
 21
-60.15378347791108
  0
LINE
  5
A0
100
AcDbEntity
  8
handle5
  6
ByLayer
 62
  256
370
   -1
100
AcDbLine
 10
99.5759961042482
 20
-54.3175158689707
 11
97.20581365365979
 21
-54.12457244521096
  0
LINE
  5
A1
100
AcDbEntity
  8
handle5
  6
ByLayer
 62
  256
370
   -1
100
AcDbLine
 10
100.747382241525
 20
-51.54276120941455
 11
99.17629478806039
 21
-53.32823580652615
  0
LINE
  5
A2
100
AcDbEntity
  8
handle5
  6
ByLayer
 62
  256
370
   -1
100
AcDbLine
 10
99.17629478806039
 20
-53.32823580652615
 11
100.7153000522904
 21
-57.1373481667793
  0
LINE
  5
A3
100
AcDbEntity
  8
handle5
  6
ByLayer
 62
  256
370
   -1
100
AcDbLine
 10
98.7849198365388
 20
-46.68560734351041
 11
97.21384213960495
 21
-48.47107071854083
  0
LINE
  5
A4
100
AcDbEntity
  8
handle5
  6
ByLayer
 62
  256
370
   -1
100
AcDbLine
 10
87.21751712176689
 20
-48.56400924043209
 11
89.5880519471001
 21
-48.75698393780891
  0
LINE
  5
A5
100
AcDbEntity
  8
handle5
  6
ByLayer
 62
  256
370
   -1
100
AcDbLine
 10
94.89335079246918
 20
-42.72774255867358
 11
89.5880519471001
 21
-48.75698393780891
  0
LINE
  5
A6
100
AcDbEntity
  8
handle5
  6
ByLayer
 62
  256
370
   -1
100
AcDbLine
 10
90.41486723191514
 20
-47.81734369797681
 11
98.40627562945578
 21
-48.58572656857933
  0
LINE
  5
A7
100
AcDbEntity
  8
handle5
  6
ByLayer
 62
  256
370
   -1
100
AcDbLine
 10
99.1623467496014
 20
-50.4570391078633
 11
98.40627562945578
 21
-48.58572656857933
  0
LINE
  5
A8
100
AcDbEntity
  8
handle5
  6
ByLayer
 62
  256
370
   -1
100
AcDbLine
 10
90.41486723191514
 20
-47.81734369797681
 11
91.22400508350432
 21
-49.81999896061433
  0
LINE
  5
A9
100
AcDbEntity
  8
handle5
  6
ByLayer
 62
  256
370
   -1
100
AcDbLine
 10
99.5759961042482
 20
-54.3175158689707
 11
95.09751254369407
 21
-59.40711700827393
  0
LINE
  5
AA
100
AcDbEntity
  8
handle5
  6
ByLayer
 62
  256
370
   -1
100
AcDbLine
 10
91.90016280815735
 20
-60.15378347791108
 11
93.02320582838644
 21
-60.24520437681616
  0
LINE
  5
AB
100
AcDbEntity
  8
handle5
  6
ByLayer
 62
  256
370
   -1
100
AcDbLine
 10
91.22400508350432
 20
-49.81999896061433
 11
89.60531315099934
 21
-51.65957156637324
  0
LINE
  5
AC
100
AcDbEntity
  8
handle5
  6
ByLayer
 62
  256
370
   -1
100
AcDbLine
 10
89.17758685931204
 20
-50.6009283360093
 11
91.86190278144397
 21
-57.24473989108782
  0
LINE
  5
AD
100
AcDbEntity
  8
handle5
  6
ByLayer
 62
  256
370
   -1
100
AcDbLine
 10
99.1623467496014
 20
-50.4570391078633
 11
97.54365875761927
 21
-52.29661012152286
  0
LINE
  5
AE
100
AcDbEntity
  8
handle5
  6
ByLayer
 62
  256
370
   -1
100
AcDbLine
 10
97.20518355379477
 20
-54.12485749472006
 11
96.43041706664248
 21
-52.20727301914104
  0
LINE
  5
AF
100
AcDbEntity
  8
handle5
  6
ByLayer
 62
  256
370
   -1
100
AcDbLine
 10
97.54365875761927
 20
-52.29661012152286
 11
89.60531230812319
 21
-51.65956948021409
  0
LINE
  5
B0
100
AcDbEntity
  8
handle5
  6
ByLayer
 62
  256
370
   -1
100
AcDbLine
 10
91.07479071774907
 20
-58.11265278942682
 11
96.43041706664248
 21
-52.20727301914104
  0
LINE
  5
B1
100
AcDbEntity
  8
handle5
  6
ByLayer
 62
  256
370
   -1
100
AcDbLine
 10
91.89969063378595
 20
-60.15431992285272
 11
91.07479071774907
 21
-58.11265278942682
  0
LINE
  5
B2
100
AcDbEntity
  8
handle5
  6
ByLayer
 62
  256
370
   -1
100
AcDbLine
 10
94.89335079246918
 20
-42.72774255867358
 11
92.52316834188088
 21
-42.53479913491384
  0
LINE
  5
B3
100
AcDbEntity
  8
handle5
  6
ByLayer
 62
  256
370
   -1
100
AcDbLine
 10
84.80883079879544
 20
-45.46200130344567
 11
87.17925746966512
 21
-45.65496658079081
  0
LINE
  5
B4
100
AcDbEntity
  8
handle5
  6
ByLayer
 62
  256
370
   -1
100
AcDbLine
 10
87.21704541565994
 20
-48.56454684435101
 11
86.39214540597017
 21
-46.5228794791297
  0
LINE
  5
B5
100
AcDbEntity
  8
handle5
  6
ByLayer
 62
  256
370
   -1
100
AcDbLine
 10
86.80715934556628
 20
-50.40796097250512
 11
89.17758685931204
 21
-50.6009283360093
  0
LINE
  5
B6
100
AcDbEntity
  8
handle5
  6
ByLayer
 62
  256
370
   -1
100
AcDbLine
 10
99.1623467496014
 20
-50.4570391078633
 11
86.41363584309124
 21
-49.43397129737713
  0
LINE
  5
B7
100
AcDbEntity
  8
handle5
  6
ByLayer
 62
  256
370
   -1
100
AcDbLine
 10
89.49147611057437
 20
-57.05177461374279
 11
91.86190278144397
 21
-57.24473989108782
  0
LINE
  5
B8
100
AcDbEntity
  8
handle5
  6
ByLayer
 62
  256
370
   -1
100
AcDbLine
 10
101.3890293162336
 20
-114.1927275575765
 11
100.2078422917516
 21
-111.2692326226997
  0
LINE
  5
B9
100
AcDbEntity
  8
handle5
  6
ByLayer
 62
  256
370
   -1
100
AcDbLine
 10
99.01859726023169
 20
-113.9997622989258
 11
101.3890293162336
 21
-114.1927275575765
  0
LINE
  5
BA
100
AcDbEntity
  8
handle5
  6
ByLayer
 62
  256
370
   -1
100
AcDbLine
 10
101.3669920697871
 20
-116.9748589380715
 11
109.8268616527627
 21
-107.382835994499
  0
LINE
  5
BB
100
AcDbEntity
  8
handle5
  6
ByLayer
 62
  256
370
   -1
100
AcDbLine
 10
107.8999362838601
 20
-108.1613765063158
 11
107.0731166839107
 21
-109.1010174110655
  0
LINE
  5
BC
100
AcDbEntity
  8
handle5
  6
ByLayer
 62
  256
370
   -1
100
AcDbLine
 10
105.8256256280297
 20
-108.9994654669572
 11
107.0731166839107
 21
-109.1010174110655
  0
LINE
  5
BD
100
AcDbEntity
  8
handle5
  6
ByLayer
 62
  256
370
   -1
100
AcDbLine
 10
105.8256256280297
 20
-108.9994654669572
 11
100.610921324253
 21
-115.1035473259693
  0
LINE
  5
BE
100
AcDbEntity
  8
handle5
  6
ByLayer
 62
  256
370
   -1
100
AcDbLine
 10
101.3669920697871
 20
-116.9748589380715
 11
100.610921324253
 21
-115.1035473259693
  0
LINE
  5
BF
100
AcDbEntity
  8
handle5
  6
ByLayer
 62
  256
370
   -1
100
AcDbLine
 10
105.8256256280297
 20
-108.9994654669572
 11
106.6347626367427
 21
-111.0021186434357
  0
LINE
  5
C0
100
AcDbEntity
  8
handle5
  6
ByLayer
 62
  256
370
   -1
100
AcDbLine
 10
106.6347626367427
 20
-111.0021186434357
 11
109.0770295285098
 21
-111.2009331717342
  0
LINE
  5
C1
100
AcDbEntity
  8
handle5
  6
ByLayer
 62
  256
370
   -1
100
AcDbLine
 10
108.6493031431695
 20
-110.1422897095749
 11
111.3336191589544
 21
-116.7861014964488
  0
LINE
  5
C2
100
AcDbEntity
  8
handle5
  6
ByLayer
 62
  256
370
   -1
100
AcDbLine
 10
112.9047015456342
 20
-115.0006383836828
 11
111.3336191589544
 21
-116.7861014964488
  0
LINE
  5
C3
100
AcDbEntity
  8
handle5
  6
ByLayer
 62
  256
370
   -1
100
AcDbLine
 10
101.3669920697871
 20
-116.9748589380715
 11
103.8092543209715
 21
-117.1736739931449
  0
LINE
  5
C4
100
AcDbEntity
  8
handle5
  6
ByLayer
 62
  256
370
   -1
100
AcDbLine
 10
105.3227520342773
 20
-118.2536640824628
 11
104.5479859217366
 21
-116.3360805340655
  0
LINE
  5
C5
100
AcDbEntity
  8
handle5
  6
ByLayer
 62
  256
370
   -1
100
AcDbLine
 10
103.8092543209715
 20
-117.1736739931449
 11
109.0770286856336
 21
-111.2009310855751
  0
LINE
  5
C6
100
AcDbEntity
  8
handle5
  6
ByLayer
 62
  256
370
   -1
100
AcDbLine
 10
97.44751956329789
 20
-115.7852256739562
 11
96.26633253881596
 21
-112.8617307390793
  0
LINE
  5
C7
100
AcDbEntity
  8
handle5
  6
ByLayer
 62
  256
370
   -1
100
AcDbLine
 10
99.01859726023169
 20
-113.9997622989258
 11
97.44751956329789
 21
-115.7852256739562
  0
LINE
  5
C8
100
AcDbEntity
  8
handle5
  6
ByLayer
 62
  256
370
   -1
100
AcDbLine
 10
99.39602417329428
 20
-117.7711940632786
 11
86.64731364139573
 21
-116.7481271799741
  0
LINE
  5
C9
100
AcDbEntity
  8
handle5
  6
ByLayer
 62
  256
370
   -1
100
AcDbLine
 10
88.5742383149119
 20
-115.969586949116
 11
89.82172937079287
 21
-116.0711388932243
  0
LINE
  5
CA
100
AcDbEntity
  8
handle5
  6
ByLayer
 62
  256
370
   -1
100
AcDbLine
 10
90.64854503021962
 20
-115.1314995805739
 11
89.82172937079287
 21
-116.0711388932243
  0
LINE
  5
CB
100
AcDbEntity
  8
handle5
  6
ByLayer
 62
  256
370
   -1
100
AcDbLine
 10
90.64854503021962
 20
-115.1314995805739
 11
98.6399534277602
 21
-115.8998824511764
  0
LINE
  5
CC
100
AcDbEntity
  8
handle5
  6
ByLayer
 62
  256
370
   -1
100
AcDbLine
 10
99.39602417329428
 20
-117.7711940632786
 11
98.6399534277602
 21
-115.8998824511764
  0
LINE
  5
CD
100
AcDbEntity
  8
handle5
  6
ByLayer
 62
  256
370
   -1
100
AcDbLine
 10
90.64854503021962
 20
-115.1314995805739
 11
91.45768203893266
 21
-117.1341527570524
  0
LINE
  5
CE
100
AcDbEntity
  8
handle5
  6
ByLayer
 62
  256
370
   -1
100
AcDbLine
 10
87.06558930517804
 20
-117.7241316195711
 11
89.41126418935193
 21
-117.9150830596291
  0
LINE
  5
CF
100
AcDbEntity
  8
handle5
  6
ByLayer
 62
  256
370
   -1
100
AcDbLine
 10
110.22038393775
 20
-108.3568226562859
 11
108.6493031431695
 21
-110.1422897095749
  0
LINE
  5
D0
100
AcDbEntity
  8
handle5
  6
ByLayer
 62
  256
370
   -1
100
AcDbLine
 10
95.89872032554861
 20
-106.2779162009425
 11
108.6442664391246
 21
-107.3154761183428
  0
LINE
  5
D1
100
AcDbEntity
  8
handle5
  6
ByLayer
 62
  256
370
   -1
100
AcDbLine
 10
99.06853834370942
 20
-108.4494003248911
 11
100.639455831689
 21
-106.6641243630833
  0
LINE
  5
D2
100
AcDbEntity
  8
handle5
  6
ByLayer
 62
  256
370
   -1
100
AcDbLine
 10
96.29839433005033
 20
-107.26715202317
 11
98.66883702752172
 21
-107.4601202624464
  0
LINE
  5
D3
100
AcDbEntity
  8
handle5
  6
ByLayer
 62
  256
370
   -1
100
AcDbLine
 10
98.66883702752172
 20
-107.4601202624464
 11
100.2078422917516
 21
-111.2692326226997
  0
LINE
  5
D4
100
AcDbEntity
  8
handle5
  6
ByLayer
 62
  256
370
   -1
100
AcDbLine
 10
88.8717950801784
 20
-88.88593683035327
 11
98.23708532912464
 21
-112.0654825237656
  0
LINE
  5
D5
100
AcDbEntity
  8
handle5
  6
ByLayer
 62
  256
370
   -1
100
AcDbLine
 10
96.70638437906628
 20
-102.6029551744612
 11
93.98619171574279
 21
-95.8703469521493
  0
LINE
  5
D6
100
AcDbEntity
  8
handle5
  6
ByLayer
 62
  256
370
   -1
100
AcDbLine
 10
94.33595232306432
 20
-102.4099899158105
 11
96.70638437906628
 21
-102.6029551744612
  0
LINE
  5
D7
100
AcDbEntity
  8
handle5
  6
ByLayer
 62
  256
370
   -1
100
AcDbLine
 10
96.68434713261985
 20
-105.3850865549562
 11
105.1442163409838
 21
-95.79306268420186
  0
LINE
  5
D8
100
AcDbEntity
  8
handle5
  6
ByLayer
 62
  256
370
   -1
100
AcDbLine
 10
103.9616212209986
 20
-95.72570303984111
 11
102.3904717467434
 21
-97.51124502795011
  0
LINE
  5
D9
100
AcDbEntity
  8
handle5
  6
ByLayer
 62
  256
370
   -1
100
AcDbLine
 10
94.38589303193049
 20
-96.85962701459397
 11
102.3904717467434
 21
-97.51124502795011
  0
LINE
  5
DA
100
AcDbEntity
  8
handle5
  6
ByLayer
 62
  256
370
   -1
100
AcDbLine
 10
101.1429803162508
 20
-97.40969215666013
 11
95.92827601247411
 21
-103.5137740156721
  0
LINE
  5
DB
100
AcDbEntity
  8
handle5
  6
ByLayer
 62
  256
370
   -1
100
AcDbLine
 10
96.68434713261985
 20
-105.3850865549562
 11
95.92827601247411
 21
-103.5137740156721
  0
LINE
  5
DC
100
AcDbEntity
  8
handle5
  6
ByLayer
 62
  256
370
   -1
100
AcDbLine
 10
101.1429803162508
 20
-97.40969215666013
 11
101.9521181678399
 21
-99.41234741929776
  0
LINE
  5
DD
100
AcDbEntity
  8
handle5
  6
ByLayer
 62
  256
370
   -1
100
AcDbLine
 10
99.06853834370942
 20
-108.4494003248911
 11
105.8256256280297
 21
-108.9994654669572
  0
LINE
  5
DE
100
AcDbEntity
  8
handle5
  6
ByLayer
 62
  256
370
   -1
100
AcDbLine
 10
108.6442664391246
 20
-107.3154761183428
 11
107.8999362838601
 21
-108.1613765063158
  0
LINE
  5
DF
100
AcDbEntity
  8
handle5
  6
ByLayer
 62
  256
370
   -1
100
AcDbLine
 10
101.9521181678399
 20
-99.41234741929776
 11
104.3943845913424
 21
-99.61116078861886
  0
LINE
  5
E0
100
AcDbEntity
  8
handle5
  6
ByLayer
 62
  256
370
   -1
100
AcDbLine
 10
105.5213301421353
 20
-96.7856989334046
 11
103.9666582996551
 21
-98.55251755825492
  0
LINE
  5
E1
100
AcDbEntity
  8
handle5
  6
ByLayer
 62
  256
370
   -1
100
AcDbLine
 10
103.9666582996551
 20
-98.55251755825492
 11
106.6509744090929
 21
-105.1963295769245
  0
LINE
  5
E2
100
AcDbEntity
  8
handle5
  6
ByLayer
 62
  256
370
   -1
100
AcDbLine
 10
96.68434713261985
 20
-105.3850865549562
 11
99.12660938380414
 21
-105.5839016100296
  0
LINE
  5
E3
100
AcDbEntity
  8
handle5
  6
ByLayer
 62
  256
370
   -1
100
AcDbLine
 10
100.6401070971099
 20
-106.6638916993474
 11
99.86534060995758
 21
-104.7463072237684
  0
LINE
  5
E4
100
AcDbEntity
  8
handle5
  6
ByLayer
 62
  256
370
   -1
100
AcDbLine
 10
99.12660938380414
 20
-105.5839016100296
 11
104.3943837484663
 21
-99.61115870245982
  0
LINE
  5
E5
100
AcDbEntity
  8
handle5
  6
ByLayer
 62
  256
370
   -1
100
AcDbLine
 10
107.820082764024
 20
-105.2738652714275
 11
99.86534060995758
 21
-104.7463072237684
  0
LINE
  5
E6
100
AcDbEntity
  8
handle5
  6
ByLayer
 62
  256
370
   -1
100
AcDbLine
 10
108.6449826800608
 20
-107.3155324048534
 11
107.820082764024
 21
-105.2738652714275
  0
LINE
  5
E7
100
AcDbEntity
  8
handle5
  6
ByLayer
 62
  256
370
   -1
100
AcDbLine
 10
95.89872032554861
 20
-106.2779162009425
 11
87.45119529468286
 21
-115.8781660502111
  0
LINE
  5
E8
100
AcDbEntity
  8
handle5
  6
ByLayer
 62
  256
370
   -1
100
AcDbLine
 10
95.12702859077372
 20
-110.0418984412708
 11
92.7568461401853
 21
-109.8489550175111
  0
LINE
  5
E9
100
AcDbEntity
  8
handle5
  6
ByLayer
 62
  256
370
   -1
100
AcDbLine
 10
96.29841472805062
 20
-107.2671437817147
 11
94.72732727458589
 21
-109.0526183788261
  0
LINE
  5
EA
100
AcDbEntity
  8
handle5
  6
ByLayer
 62
  256
370
   -1
100
AcDbLine
 10
94.72732727458589
 20
-109.0526183788261
 11
96.26633253881596
 21
-112.8617307390793
  0
LINE
  5
EB
100
AcDbEntity
  8
handle5
  6
ByLayer
 62
  256
370
   -1
100
AcDbLine
 10
92.76487462613051
 20
-104.1954532908409
 11
90.04468196280698
 21
-97.46284506852902
  0
LINE
  5
EC
100
AcDbEntity
  8
handle5
  6
ByLayer
 62
  256
370
   -1
100
AcDbLine
 10
94.33595232306432
 20
-102.4099899158105
 11
92.76487462613051
 21
-104.1954532908409
  0
LINE
  5
ED
100
AcDbEntity
  8
handle5
  6
ByLayer
 62
  256
370
   -1
100
AcDbLine
 10
82.7685496082924
 20
-104.2883918127322
 11
85.13908443362567
 21
-104.481366510109
  0
LINE
  5
EE
100
AcDbEntity
  8
handle5
  6
ByLayer
 62
  256
370
   -1
100
AcDbLine
 10
90.44438327899474
 20
-98.45212513097368
 11
85.13908443362567
 21
-104.481366510109
  0
LINE
  5
EF
100
AcDbEntity
  8
handle5
  6
ByLayer
 62
  256
370
   -1
100
AcDbLine
 10
85.96589971844071
 20
-103.5417262702768
 11
93.95730811598128
 21
-104.3101091408793
  0
LINE
  5
F0
100
AcDbEntity
  8
handle5
  6
ByLayer
 62
  256
370
   -1
100
AcDbLine
 10
94.71337923612697
 20
-106.1814216801634
 11
93.95730811598128
 21
-104.3101091408793
  0
LINE
  5
F1
100
AcDbEntity
  8
handle5
  6
ByLayer
 62
  256
370
   -1
100
AcDbLine
 10
85.96589971844071
 20
-103.5417262702768
 11
86.77503757002991
 21
-105.5443815329143
  0
LINE
  5
F2
100
AcDbEntity
  8
handle5
  6
ByLayer
 62
  256
370
   -1
100
AcDbLine
 10
95.12702859077372
 20
-110.0418984412708
 11
90.64854503021962
 21
-115.1314995805739
  0
LINE
  5
F3
100
AcDbEntity
  8
handle5
  6
ByLayer
 62
  256
370
   -1
100
AcDbLine
 10
87.45119529468286
 20
-115.8781660502111
 11
88.5742383149119
 21
-115.969586949116
  0
LINE
  5
F4
100
AcDbEntity
  8
handle5
  6
ByLayer
 62
  256
370
   -1
100
AcDbLine
 10
86.77503757002991
 20
-105.5443815329143
 11
85.15634563752474
 21
-107.3839541386732
  0
LINE
  5
F5
100
AcDbEntity
  8
handle5
  6
ByLayer
 62
  256
370
   -1
100
AcDbLine
 10
84.72861934583746
 20
-106.3253109083093
 11
87.41293526796956
 21
-112.9691224633878
  0
LINE
  5
F6
100
AcDbEntity
  8
handle5
  6
ByLayer
 62
  256
370
   -1
100
AcDbLine
 10
94.71337923612697
 20
-106.1814216801634
 11
93.09469124414477
 21
-108.0209926938228
  0
LINE
  5
F7
100
AcDbEntity
  8
handle5
  6
ByLayer
 62
  256
370
   -1
100
AcDbLine
 10
92.75621604032034
 20
-109.8492400670202
 11
91.98144955316805
 21
-107.931655591441
  0
LINE
  5
F8
100
AcDbEntity
  8
handle5
  6
ByLayer
 62
  256
370
   -1
100
AcDbLine
 10
93.09469124414477
 20
-108.0209926938228
 11
85.15634479464859
 21
-107.3839520525142
  0
LINE
  5
F9
100
AcDbEntity
  8
handle5
  6
ByLayer
 62
  256
370
   -1
100
AcDbLine
 10
86.62582320427464
 20
-113.8370353617268
 11
91.98144955316805
 21
-107.931655591441
  0
LINE
  5
FA
100
AcDbEntity
  8
handle5
  6
ByLayer
 62
  256
370
   -1
100
AcDbLine
 10
87.45072312031147
 20
-115.8787024951527
 11
86.62582320427464
 21
-113.8370353617268
  0
LINE
  5
FB
100
AcDbEntity
  8
handle5
  6
ByLayer
 62
  256
370
   -1
100
AcDbLine
 10
91.21607501376968
 20
-94.68814289064545
 11
103.9616212209986
 21
-95.72570303984111
  0
LINE
  5
FC
100
AcDbEntity
  8
handle5
  6
ByLayer
 62
  256
370
   -1
100
AcDbLine
 10
94.38589303193049
 20
-96.85962701459397
 11
95.95681051991006
 21
-95.0743510527862
  0
LINE
  5
FD
100
AcDbEntity
  8
handle5
  6
ByLayer
 62
  256
370
   -1
100
AcDbLine
 10
91.6157490182714
 20
-95.67737871287289
 11
93.98619171574279
 21
-95.8703469521493
  0
LINE
  5
FE
100
AcDbEntity
  8
handle5
  6
ByLayer
 62
  256
370
   -1
100
AcDbLine
 10
92.02373906728735
 20
-91.0131818641641
 11
90.84255204280538
 21
-88.08968692928732
  0
LINE
  5
FF
100
AcDbEntity
  8
handle5
  6
ByLayer
 62
  256
370
   -1
100
AcDbLine
 10
89.65330701128539
 20
-90.82021660551339
 11
92.02373906728735
 21
-91.0131818641641
  0
LINE
  5
100
100
AcDbEntity
  8
handle5
  6
ByLayer
 62
  256
370
   -1
100
AcDbLine
 10
92.00170182084094
 20
-93.7953132446591
 11
100.4615714038164
 21
-84.20329030108661
  0
LINE
  5
101
100
AcDbEntity
  8
handle5
  6
ByLayer
 62
  256
370
   -1
100
AcDbLine
 10
98.53464603491392
 20
-84.98183081290341
 11
97.70782643496445
 21
-85.92147171765299
  0
LINE
  5
102
100
AcDbEntity
  8
handle5
  6
ByLayer
 62
  256
370
   -1
100
AcDbLine
 10
96.46033537908342
 20
-85.81991977354488
 11
97.70782643496445
 21
-85.92147171765299
  0
LINE
  5
103
100
AcDbEntity
  8
handle5
  6
ByLayer
 62
  256
370
   -1
100
AcDbLine
 10
96.46033537908342
 20
-85.81991977354488
 11
91.24563107530673
 21
-91.92400163255689
  0
LINE
  5
104
100
AcDbEntity
  8
handle5
  6
ByLayer
 62
  256
370
   -1
100
AcDbLine
 10
92.00170182084094
 20
-93.7953132446591
 11
91.24563107530673
 21
-91.92400163255689
  0
LINE
  5
105
100
AcDbEntity
  8
handle5
  6
ByLayer
 62
  256
370
   -1
100
AcDbLine
 10
96.46033537908342
 20
-85.81991977354488
 11
97.26947238779645
 21
-87.82257295002336
  0
LINE
  5
106
100
AcDbEntity
  8
handle5
  6
ByLayer
 62
  256
370
   -1
100
AcDbLine
 10
97.26947238779645
 20
-87.82257295002336
 11
99.71173927956352
 21
-88.02138747832186
  0
LINE
  5
107
100
AcDbEntity
  8
handle5
  6
ByLayer
 62
  256
370
   -1
100
AcDbLine
 10
99.2840128942233
 20
-86.96274401616239
 11
101.9683289100082
 21
-93.60655580303654
  0
LINE
  5
108
100
AcDbEntity
  8
handle5
  6
ByLayer
 62
  256
370
   -1
100
AcDbLine
 10
103.539411296688
 20
-91.8210926902704
 11
101.9683289100082
 21
-93.60655580303654
  0
LINE
  5
109
100
AcDbEntity
  8
handle5
  6
ByLayer
 62
  256
370
   -1
100
AcDbLine
 10
92.00170182084094
 20
-93.7953132446591
 11
94.44396407202521
 21
-93.99412829973249
  0
LINE
  5
10A
100
AcDbEntity
  8
handle5
  6
ByLayer
 62
  256
370
   -1
100
AcDbLine
 10
95.95746178533098
 20
-95.0741183890504
 11
95.18269567279033
 21
-93.15653484065314
  0
LINE
  5
10B
100
AcDbEntity
  8
handle5
  6
ByLayer
 62
  256
370
   -1
100
AcDbLine
 10
94.44396407202521
 20
-93.99412829973249
 11
99.71173843668737
 21
-88.0213853921627
  0
LINE
  5
10C
100
AcDbEntity
  8
handle5
  6
ByLayer
 62
  256
370
   -1
100
AcDbLine
 10
103.137437452245
 20
-93.68409196113038
 11
95.18269567279033
 21
-93.15653484065314
  0
LINE
  5
10D
100
AcDbEntity
  8
handle5
  6
ByLayer
 62
  256
370
   -1
100
AcDbLine
 10
103.9623374619348
 20
-95.72575932635169
 11
103.137437452245
 21
-93.68409196113038
  0
LINE
  5
10E
100
AcDbEntity
  8
handle5
  6
ByLayer
 62
  256
370
   -1
100
AcDbLine
 10
91.21607501376968
 20
-94.68814289064545
 11
82.76855007655701
 21
-104.2883929717095
  0
LINE
  5
10F
100
AcDbEntity
  8
handle5
  6
ByLayer
 62
  256
370
   -1
100
AcDbLine
 10
90.44438327899474
 20
-98.45212513097368
 11
88.07420082840639
 21
-98.25918170721394
  0
LINE
  5
110
100
AcDbEntity
  8
handle5
  6
ByLayer
 62
  256
370
   -1
100
AcDbLine
 10
91.61576941627169
 20
-95.67737047141753
 11
90.04468196280698
 21
-97.46284506852902
  0
LINE
  5
111
100
AcDbEntity
  8
handle5
  6
ByLayer
 62
  256
370
   -1
100
AcDbLine
 10
88.08222931435159
 20
-92.6056799805437
 11
86.90104228986968
 21
-89.68218504566693
  0
LINE
  5
112
100
AcDbEntity
  8
handle5
  6
ByLayer
 62
  256
370
   -1
100
AcDbLine
 10
89.65330701128539
 20
-90.82021660551339
 11
88.08222931435159
 21
-92.6056799805437
  0
LINE
  5
113
100
AcDbEntity
  8
handle5
  6
ByLayer
 62
  256
370
   -1
100
AcDbLine
 10
90.03073392434806
 20
-94.59164836986628
 11
77.28202339244945
 21
-93.56858148656187
  0
LINE
  5
114
100
AcDbEntity
  8
handle5
  6
ByLayer
 62
  256
370
   -1
100
AcDbLine
 10
79.20894806596563
 20
-92.79004125570367
 11
80.45643912184664
 21
-92.89159319981189
  0
LINE
  5
115
100
AcDbEntity
  8
handle5
  6
ByLayer
 62
  256
370
   -1
100
AcDbLine
 10
81.28325478127334
 20
-91.95195388716155
 11
80.45643912184664
 21
-92.89159319981189
  0
LINE
  5
116
100
AcDbEntity
  8
handle5
  6
ByLayer
 62
  256
370
   -1
100
AcDbLine
 10
81.28325478127334
 20
-91.95195388716155
 11
89.27466317881397
 21
-92.72033675776407
  0
LINE
  5
117
100
AcDbEntity
  8
handle5
  6
ByLayer
 62
  256
370
   -1
100
AcDbLine
 10
90.03073392434806
 20
-94.59164836986628
 11
89.27466317881397
 21
-92.72033675776407
  0
LINE
  5
118
100
AcDbEntity
  8
handle5
  6
ByLayer
 62
  256
370
   -1
100
AcDbLine
 10
81.28325478127334
 20
-91.95195388716155
 11
82.09239178998638
 21
-93.95460706364003
  0
LINE
  5
119
100
AcDbEntity
  8
handle5
  6
ByLayer
 62
  256
370
   -1
100
AcDbLine
 10
82.09239178998638
 20
-93.95460706364003
 11
80.47370032574584
 21
-95.79418082837611
  0
LINE
  5
11A
100
AcDbEntity
  8
handle5
  6
ByLayer
 62
  256
370
   -1
100
AcDbLine
 10
77.70029905623181
 20
-94.54458592615862
 11
80.0459739404057
 21
-94.73553736621676
  0
LINE
  5
11B
100
AcDbEntity
  8
handle5
  6
ByLayer
 62
  256
370
   -1
100
AcDbLine
 10
80.0459739404057
 20
-94.73553736621676
 11
82.73028995619063
 21
-101.3793491530908
  0
LINE
  5
11C
100
AcDbEntity
  8
handle5
  6
ByLayer
 62
  256
370
   -1
100
AcDbLine
 10
80.35986328532101
 20
-101.1863838757457
 11
82.73028995619063
 21
-101.3793491530908
  0
LINE
  5
11D
100
AcDbEntity
  8
handle5
  6
ByLayer
 62
  256
370
   -1
100
AcDbLine
 10
90.03073392434806
 20
-94.59164836986628
 11
88.41204593236586
 21
-96.43121938352573
  0
LINE
  5
11E
100
AcDbEntity
  8
handle5
  6
ByLayer
 62
  256
370
   -1
100
AcDbLine
 10
88.07357072854143
 20
-98.25946675672304
 11
87.29880461600078
 21
-96.34188320832578
  0
LINE
  5
11F
100
AcDbEntity
  8
handle5
  6
ByLayer
 62
  256
370
   -1
100
AcDbLine
 10
88.41204593236586
 20
-96.43121938352573
 11
80.47369948286973
 21
-95.79417874221696
  0
LINE
  5
120
100
AcDbEntity
  8
handle5
  6
ByLayer
 62
  256
370
   -1
100
AcDbLine
 10
81.94317789249573
 20
-102.2472620514297
 11
87.29880461600078
 21
-96.34188320832578
  0
LINE
  5
121
100
AcDbEntity
  8
handle5
  6
ByLayer
 62
  256
370
   -1
100
AcDbLine
 10
82.76807790218544
 20
-104.288929416651
 11
81.94317789249573
 21
-102.2472620514297
  0
LINE
  5
122
100
AcDbEntity
  8
handle5
  6
ByLayer
 62
  256
370
   -1
100
AcDbLine
 10
100.4615714038164
 20
-84.20329030108661
 11
109.8268616527627
 21
-107.382835994499
  0
LINE
  5
123
100
AcDbEntity
  8
handle5
  6
ByLayer
 62
  256
370
   -1
100
AcDbLine
 10
82.35819183209185
 20
-106.1323435448051
 11
84.72861934583746
 21
-106.3253109083093
  0
LINE
  5
124
100
AcDbEntity
  8
handle5
  6
ByLayer
 62
  256
370
   -1
100
AcDbLine
 10
94.71337923612697
 20
-106.1814216801634
 11
81.96466832961681
 21
-105.158353869677
  0
LINE
  5
125
100
AcDbEntity
  8
handle5
  6
ByLayer
 62
  256
370
   -1
100
AcDbLine
 10
85.04250859709994
 20
-112.7761571860428
 11
87.41293526796956
 21
-112.9691224633878
  0
LINE
  5
126
100
AcDbEntity
  8
handle5
  6
ByLayer
 62
  256
370
   -1
100
AcDbLine
 10
100.8550936888037
 20
-85.17727696287358
 11
99.2840128942233
 21
-86.96274401616239
  0
LINE
  5
127
100
AcDbEntity
  8
handle5
  6
ByLayer
 62
  256
370
   -1
100
AcDbLine
 10
108.222056514814
 20
-103.4108657687721
 11
106.6509744090929
 21
-105.1963295769245
  0
LINE
  5
128
100
AcDbEntity
  8
handle5
  6
ByLayer
 62
  256
370
   -1
100
AcDbLine
 10
86.53343007660237
 20
-83.09837050753009
 11
99.27897619017837
 21
-84.13593042493034
  0
LINE
  5
129
100
AcDbEntity
  8
handle5
  6
ByLayer
 62
  256
370
   -1
100
AcDbLine
 10
89.70324809476313
 20
-85.26985463147872
 11
91.27416558274268
 21
-83.48457866967095
  0
LINE
  5
12A
100
AcDbEntity
  8
handle5
  6
ByLayer
 62
  256
370
   -1
100
AcDbLine
 10
86.93310408110409
 20
-84.08760632975765
 11
89.30354677857554
 21
-84.28057456903417
  0
LINE
  5
12B
100
AcDbEntity
  8
handle5
  6
ByLayer
 62
  256
370
   -1
100
AcDbLine
 10
89.30354677857554
 20
-84.28057456903417
 11
90.84255204280538
 21
-88.08968692928732
  0
LINE
  5
12C
100
AcDbEntity
  8
handle5
  6
ByLayer
 62
  256
370
   -1
100
AcDbLine
 10
79.50650483123212
 20
-65.70639113694091
 11
88.8717950801784
 21
-88.88593683035327
  0
LINE
  5
12D
100
AcDbEntity
  8
handle5
  6
ByLayer
 62
  256
370
   -1
100
AcDbLine
 10
87.34109413012004
 20
-79.42340948104885
 11
84.62090146679651
 21
-72.69080125873694
  0
LINE
  5
12E
100
AcDbEntity
  8
handle5
  6
ByLayer
 62
  256
370
   -1
100
AcDbLine
 10
84.97066207411804
 20
-79.23044422239815
 11
87.34109413012004
 21
-79.42340948104885
  0
LINE
  5
12F
100
AcDbEntity
  8
handle5
  6
ByLayer
 62
  256
370
   -1
100
AcDbLine
 10
87.31905688367364
 20
-82.20554086154374
 11
95.77892609203754
 21
-72.61351699078949
  0
LINE
  5
130
100
AcDbEntity
  8
handle5
  6
ByLayer
 62
  256
370
   -1
100
AcDbLine
 10
94.59633097205233
 20
-72.54615734642874
 11
93.02518149779708
 21
-74.33169933453775
  0
LINE
  5
131
100
AcDbEntity
  8
handle5
  6
ByLayer
 62
  256
370
   -1
100
AcDbLine
 10
85.02060278298421
 20
-73.6800813211816
 11
93.02518149779708
 21
-74.33169933453775
  0
LINE
  5
132
100
AcDbEntity
  8
handle5
  6
ByLayer
 62
  256
370
   -1
100
AcDbLine
 10
91.77769006730449
 20
-74.23014646324776
 11
86.56298576352782
 21
-80.33422832225978
  0
LINE
  5
133
100
AcDbEntity
  8
handle5
  6
ByLayer
 62
  256
370
   -1
100
AcDbLine
 10
87.31905688367364
 20
-82.20554086154374
 11
86.56298576352782
 21
-80.33422832225978
  0
LINE
  5
134
100
AcDbEntity
  8
handle5
  6
ByLayer
 62
  256
370
   -1
100
AcDbLine
 10
91.77769006730449
 20
-74.23014646324776
 11
92.58682791889368
 21
-76.23280172588528
  0
LINE
  5
135
100
AcDbEntity
  8
handle5
  6
ByLayer
 62
  256
370
   -1
100
AcDbLine
 10
89.70324809476313
 20
-85.26985463147872
 11
96.46033537908342
 21
-85.81991977354488
  0
LINE
  5
136
100
AcDbEntity
  8
handle5
  6
ByLayer
 62
  256
370
   -1
100
AcDbLine
 10
99.27897619017837
 20
-84.13593042493034
 11
98.53464603491392
 21
-84.98183081290341
  0
LINE
  5
137
100
AcDbEntity
  8
handle5
  6
ByLayer
 62
  256
370
   -1
100
AcDbLine
 10
92.58682791889368
 20
-76.23280172588528
 11
95.02909434239622
 21
-76.4316150952065
  0
LINE
  5
138
100
AcDbEntity
  8
handle5
  6
ByLayer
 62
  256
370
   -1
100
AcDbLine
 10
96.15603989318902
 20
-73.60615323999224
 11
94.6013680507088
 21
-75.37297186484255
  0
LINE
  5
139
100
AcDbEntity
  8
handle5
  6
ByLayer
 62
  256
370
   -1
100
AcDbLine
 10
94.6013680507088
 20
-75.37297186484255
 11
97.28568416014673
 21
-82.01678388351212
  0
LINE
  5
13A
100
AcDbEntity
  8
handle5
  6
ByLayer
 62
  256
370
   -1
100
AcDbLine
 10
87.31905688367364
 20
-82.20554086154374
 11
89.76131913485784
 21
-82.40435591661725
  0
LINE
  5
13B
100
AcDbEntity
  8
handle5
  6
ByLayer
 62
  256
370
   -1
100
AcDbLine
 10
91.27481684816365
 20
-83.48434600593504
 11
90.50005036101135
 21
-81.56676153035602
  0
LINE
  5
13C
100
AcDbEntity
  8
handle5
  6
ByLayer
 62
  256
370
   -1
100
AcDbLine
 10
89.76131913485784
 20
-82.40435591661725
 11
95.02909349952006
 21
-76.43161300904745
  0
LINE
  5
13D
100
AcDbEntity
  8
handle5
  6
ByLayer
 62
  256
370
   -1
100
AcDbLine
 10
98.45479251507773
 20
-82.09431957801513
 11
90.50005036101135
 21
-81.56676153035602
  0
LINE
  5
13E
100
AcDbEntity
  8
handle5
  6
ByLayer
 62
  256
370
   -1
100
AcDbLine
 10
99.27969243111455
 20
-84.13598671144103
 11
98.45479251507773
 21
-82.09431957801513
  0
LINE
  5
13F
100
AcDbEntity
  8
handle5
  6
ByLayer
 62
  256
370
   -1
100
AcDbLine
 10
86.53343007660237
 20
-83.09837050753009
 11
78.08590504573664
 21
-92.6986203567987
  0
LINE
  5
140
100
AcDbEntity
  8
handle5
  6
ByLayer
 62
  256
370
   -1
100
AcDbLine
 10
85.76173834182748
 20
-86.86235274785844
 11
83.39155589123908
 21
-86.66940932409869
  0
LINE
  5
141
100
AcDbEntity
  8
handle5
  6
ByLayer
 62
  256
370
   -1
100
AcDbLine
 10
86.93312447910432
 20
-84.08759808830229
 11
85.36203702563978
 21
-85.87307268541377
  0
LINE
  5
142
100
AcDbEntity
  8
handle5
  6
ByLayer
 62
  256
370
   -1
100
AcDbLine
 10
85.36203702563978
 20
-85.87307268541377
 11
86.90104228986968
 21
-89.68218504566693
  0
LINE
  5
143
100
AcDbEntity
  8
handle5
  6
ByLayer
 62
  256
370
   -1
100
AcDbLine
 10
83.39958437718428
 20
-81.01590759742845
 11
80.67939171386075
 21
-74.28329937511666
  0
LINE
  5
144
100
AcDbEntity
  8
handle5
  6
ByLayer
 62
  256
370
   -1
100
AcDbLine
 10
84.97066207411804
 20
-79.23044422239815
 11
83.39958437718428
 21
-81.01590759742845
  0
LINE
  5
145
100
AcDbEntity
  8
handle5
  6
ByLayer
 62
  256
370
   -1
100
AcDbLine
 10
81.07909303004857
 20
-75.27257943756121
 11
75.77379418467939
 21
-81.30182081669665
  0
LINE
  5
146
100
AcDbEntity
  8
handle5
  6
ByLayer
 62
  256
370
   -1
100
AcDbLine
 10
76.60060946949449
 20
-80.36218057686443
 11
84.59201786703507
 21
-81.13056344746695
  0
LINE
  5
147
100
AcDbEntity
  8
handle5
  6
ByLayer
 62
  256
370
   -1
100
AcDbLine
 10
85.34808898718069
 20
-83.00187598675092
 11
84.59201786703507
 21
-81.13056344746695
  0
LINE
  5
148
100
AcDbEntity
  8
handle5
  6
ByLayer
 62
  256
370
   -1
100
AcDbLine
 10
76.60060946949449
 20
-80.36218057686443
 11
77.40974732108363
 21
-82.36483583950195
  0
LINE
  5
149
100
AcDbEntity
  8
handle5
  6
ByLayer
 62
  256
370
   -1
100
AcDbLine
 10
85.76173834182748
 20
-86.86235274785844
 11
81.28325478127334
 21
-91.95195388716155
  0
LINE
  5
14A
100
AcDbEntity
  8
handle5
  6
ByLayer
 62
  256
370
   -1
100
AcDbLine
 10
78.08590504573664
 20
-92.6986203567987
 11
79.20894806596563
 21
-92.79004125570367
  0
LINE
  5
14B
100
AcDbEntity
  8
handle5
  6
ByLayer
 62
  256
370
   -1
100
AcDbLine
 10
77.40974732108363
 20
-82.36483583950195
 11
75.79105538857863
 21
-84.20440844526087
  0
LINE
  5
14C
100
AcDbEntity
  8
handle5
  6
ByLayer
 62
  256
370
   -1
100
AcDbLine
 10
75.36332909689122
 20
-83.14576521489693
 11
78.04764501902328
 21
-89.78957676997555
  0
LINE
  5
14D
100
AcDbEntity
  8
handle5
  6
ByLayer
 62
  256
370
   -1
100
AcDbLine
 10
85.34808898718069
 20
-83.00187598675092
 11
83.72940099519855
 21
-84.84144700041048
  0
LINE
  5
14E
100
AcDbEntity
  8
handle5
  6
ByLayer
 62
  256
370
   -1
100
AcDbLine
 10
83.39092579137412
 20
-86.66969437360768
 11
82.61615930422187
 21
-84.75210989802866
  0
LINE
  5
14F
100
AcDbEntity
  8
handle5
  6
ByLayer
 62
  256
370
   -1
100
AcDbLine
 10
83.72940099519855
 20
-84.84144700041048
 11
75.79105454570248
 21
-84.20440635910171
  0
LINE
  5
150
100
AcDbEntity
  8
handle5
  6
ByLayer
 62
  256
370
   -1
100
AcDbLine
 10
77.26053295532836
 20
-90.65748966831444
 11
82.61615930422187
 21
-84.75210989802866
  0
LINE
  5
151
100
AcDbEntity
  8
handle5
  6
ByLayer
 62
  256
370
   -1
100
AcDbLine
 10
78.08543287136524
 20
-92.69915680174034
 11
77.26053295532836
 21
-90.65748966831444
  0
LINE
  5
152
100
AcDbEntity
  8
handle5
  6
ByLayer
 62
  256
370
   -1
100
AcDbLine
 10
81.85078476482346
 20
-71.50859719723297
 11
94.59633097205233
 21
-72.54615734642874
  0
LINE
  5
153
100
AcDbEntity
  8
handle5
  6
ByLayer
 62
  256
370
   -1
100
AcDbLine
 10
85.02060278298421
 20
-73.6800813211816
 11
86.59152027096377
 21
-71.89480535937383
  0
LINE
  5
154
100
AcDbEntity
  8
handle5
  6
ByLayer
 62
  256
370
   -1
100
AcDbLine
 10
82.25045876932518
 20
-72.49783301946053
 11
84.62090146679651
 21
-72.69080125873694
  0
LINE
  5
155
100
AcDbEntity
  8
handle5
  6
ByLayer
 62
  256
370
   -1
100
AcDbLine
 10
82.65844881834113
 20
-67.83363617075173
 11
81.4772617938591
 21
-64.91014123587485
  0
LINE
  5
156
100
AcDbEntity
  8
handle5
  6
ByLayer
 62
  256
370
   -1
100
AcDbLine
 10
80.28801676233911
 20
-67.64067091210103
 11
82.65844881834113
 21
-67.83363617075173
  0
LINE
  5
157
100
AcDbEntity
  8
handle5
  6
ByLayer
 62
  256
370
   -1
100
AcDbLine
 10
82.63641157189471
 20
-70.61576755124673
 11
91.09628115487016
 21
-61.02374460767425
  0
LINE
  5
158
100
AcDbEntity
  8
handle5
  6
ByLayer
 62
  256
370
   -1
100
AcDbLine
 10
89.16935578596764
 20
-61.80228511949105
 11
88.34253618601815
 21
-62.74192602424063
  0
LINE
  5
159
100
AcDbEntity
  8
handle5
  6
ByLayer
 62
  256
370
   -1
100
AcDbLine
 10
87.09504513013718
 20
-62.64037408013252
 11
88.34253618601815
 21
-62.74192602424063
  0
LINE
  5
15A
100
AcDbEntity
  8
handle5
  6
ByLayer
 62
  256
370
   -1
100
AcDbLine
 10
87.09504513013718
 20
-62.64037408013252
 11
81.88034082636062
 21
-68.74445593914453
  0
LINE
  5
15B
100
AcDbEntity
  8
handle5
  6
ByLayer
 62
  256
370
   -1
100
AcDbLine
 10
82.63641157189471
 20
-70.61576755124673
 11
81.88034082636062
 21
-68.74445593914453
  0
LINE
  5
15C
100
AcDbEntity
  8
handle5
  6
ByLayer
 62
  256
370
   -1
100
AcDbLine
 10
87.09504513013718
 20
-62.64037408013252
 11
87.90418213885022
 21
-64.64302725661088
  0
LINE
  5
15D
100
AcDbEntity
  8
handle5
  6
ByLayer
 62
  256
370
   -1
100
AcDbLine
 10
87.90418213885022
 20
-64.64302725661088
 11
90.34644903061729
 21
-64.84184178490949
  0
LINE
  5
15E
100
AcDbEntity
  8
handle5
  6
ByLayer
 62
  256
370
   -1
100
AcDbLine
 10
89.918722645277
 20
-63.78319832275002
 11
92.60303866106193
 21
-70.42701010962406
  0
LINE
  5
15F
100
AcDbEntity
  8
handle5
  6
ByLayer
 62
  256
370
   -1
100
AcDbLine
 10
94.17412104774172
 20
-68.64154699685804
 11
92.60303866106193
 21
-70.42701010962406
  0
LINE
  5
160
100
AcDbEntity
  8
handle5
  6
ByLayer
 62
  256
370
   -1
100
AcDbLine
 10
82.63641157189471
 20
-70.61576755124673
 11
85.07867382307893
 21
-70.81458260632013
  0
LINE
  5
161
100
AcDbEntity
  8
handle5
  6
ByLayer
 62
  256
370
   -1
100
AcDbLine
 10
86.59217153638474
 20
-71.89457269563792
 11
85.81740542384409
 21
-69.97698914724077
  0
LINE
  5
162
100
AcDbEntity
  8
handle5
  6
ByLayer
 62
  256
370
   -1
100
AcDbLine
 10
85.07867382307893
 20
-70.81458260632013
 11
90.34644818774115
 21
-64.84183969875033
  0
LINE
  5
163
100
AcDbEntity
  8
handle5
  6
ByLayer
 62
  256
370
   -1
100
AcDbLine
 10
93.7721472032988
 20
-70.50454626771801
 11
85.81740542384409
 21
-69.97698914724077
  0
LINE
  5
164
100
AcDbEntity
  8
handle5
  6
ByLayer
 62
  256
370
   -1
100
AcDbLine
 10
94.59704721298853
 20
-72.54621363293933
 11
93.7721472032988
 21
-70.50454626771801
  0
LINE
  5
165
100
AcDbEntity
  8
handle5
  6
ByLayer
 62
  256
370
   -1
100
AcDbLine
 10
81.07909303004857
 20
-75.27257943756121
 11
78.70891057946017
 21
-75.07963601380146
  0
LINE
  5
166
100
AcDbEntity
  8
handle5
  6
ByLayer
 62
  256
370
   -1
100
AcDbLine
 10
82.25047916732547
 20
-72.49782477800517
 11
80.67939171386075
 21
-74.28329937511666
  0
LINE
  5
167
100
AcDbEntity
  8
handle5
  6
ByLayer
 62
  256
370
   -1
100
AcDbLine
 10
78.71693906540537
 20
-69.42613428713133
 11
77.53575204092346
 21
-66.50263935225456
  0
LINE
  5
168
100
AcDbEntity
  8
handle5
  6
ByLayer
 62
  256
370
   -1
100
AcDbLine
 10
80.28801676233911
 20
-67.64067091210103
 11
78.71693906540537
 21
-69.42613428713133
  0
LINE
  5
169
100
AcDbEntity
  8
handle5
  6
ByLayer
 62
  256
370
   -1
100
AcDbLine
 10
80.66544367540178
 20
-71.41210267645391
 11
79.90937292986769
 21
-69.54079106435171
  0
LINE
  5
16A
100
AcDbEntity
  8
handle5
  6
ByLayer
 62
  256
370
   -1
100
AcDbLine
 10
80.66544367540178
 20
-71.41210267645391
 11
79.04675568341963
 21
-73.25167369011336
  0
LINE
  5
16B
100
AcDbEntity
  8
handle5
  6
ByLayer
 62
  256
370
   -1
100
AcDbLine
 10
78.7082804795952
 20
-75.07992106331068
 11
77.93351436705461
 21
-73.16233751491342
  0
LINE
  5
16C
100
AcDbEntity
  8
handle5
  6
ByLayer
 62
  256
370
   -1
100
AcDbLine
 10
91.09628115487016
 20
-61.02374460767425
 11
100.4615714038164
 21
-84.20329030108661
  0
LINE
  5
16D
100
AcDbEntity
  8
handle5
  6
ByLayer
 62
  256
370
   -1
100
AcDbLine
 10
75.67721834815366
 20
-89.59661149263042
 11
78.04764501902328
 21
-89.78957676997555
  0
LINE
  5
16E
100
AcDbEntity
  8
handle5
  6
ByLayer
 62
  256
370
   -1
100
AcDbLine
 10
91.48980343985738
 20
-61.99773126946121
 11
89.918722645277
 21
-63.78319832275002
  0
LINE
  5
16F
100
AcDbEntity
  8
handle5
  6
ByLayer
 62
  256
370
   -1
100
AcDbLine
 10
98.85676626586775
 20
-80.23132007535975
 11
97.28568416014673
 21
-82.01678388351212
  0
LINE
  5
170
100
AcDbEntity
  8
handle5
  6
ByLayer
 62
  256
370
   -1
100
AcDbLine
 10
77.16813982765622
 20
-59.91882481411773
 11
89.91368594123209
 21
-60.95638473151797
  0
LINE
  5
171
100
AcDbEntity
  8
handle5
  6
ByLayer
 62
  256
370
   -1
100
AcDbLine
 10
80.3379578458169
 20
-62.09030893806636
 11
81.90887533379646
 21
-60.30503297625859
  0
LINE
  5
172
100
AcDbEntity
  8
handle5
  6
ByLayer
 62
  256
370
   -1
100
AcDbLine
 10
77.56781383215794
 20
-60.90806063634528
 11
79.93825652962926
 21
-61.10102887562169
  0
LINE
  5
173
100
AcDbEntity
  8
handle5
  6
ByLayer
 62
  256
370
   -1
100
AcDbLine
 10
79.93825652962926
 20
-61.10102887562169
 11
81.4772617938591
 21
-64.91014123587485
  0
LINE
  5
174
100
AcDbEntity
  8
handle5
  6
ByLayer
 62
  256
370
   -1
100
AcDbLine
 10
77.97580388117389
 20
-56.24386378763649
 11
75.2556112178504
 21
-49.51125556532469
  0
LINE
  5
175
100
AcDbEntity
  8
handle5
  6
ByLayer
 62
  256
370
   -1
100
AcDbLine
 10
75.6053718251718
 20
-56.05089852898567
 11
77.97580388117389
 21
-56.24386378763649
  0
LINE
  5
176
100
AcDbEntity
  8
handle5
  6
ByLayer
 62
  256
370
   -1
100
AcDbLine
 10
77.95376663472736
 20
-59.02599516813137
 11
86.41363584309124
 21
-49.43397129737713
  0
LINE
  5
177
100
AcDbEntity
  8
handle5
  6
ByLayer
 62
  256
370
   -1
100
AcDbLine
 10
85.23104072310605
 20
-49.36661165301638
 11
83.65989124885084
 21
-51.15215364112538
  0
LINE
  5
178
100
AcDbEntity
  8
handle5
  6
ByLayer
 62
  256
370
   -1
100
AcDbLine
 10
75.65531253403799
 20
-50.50053562776924
 11
83.65989124885084
 21
-51.15215364112538
  0
LINE
  5
179
100
AcDbEntity
  8
handle5
  6
ByLayer
 62
  256
370
   -1
100
AcDbLine
 10
82.41239981835827
 20
-51.0506007698354
 11
77.1976955145816
 21
-57.15468262884741
  0
LINE
  5
17A
100
AcDbEntity
  8
handle5
  6
ByLayer
 62
  256
370
   -1
100
AcDbLine
 10
77.95376663472736
 20
-59.02599516813137
 11
77.1976955145816
 21
-57.15468262884741
  0
LINE
  5
17B
100
AcDbEntity
  8
handle5
  6
ByLayer
 62
  256
370
   -1
100
AcDbLine
 10
82.41239981835827
 20
-51.0506007698354
 11
83.22153766994741
 21
-53.05325603247292
  0
LINE
  5
17C
100
AcDbEntity
  8
handle5
  6
ByLayer
 62
  256
370
   -1
100
AcDbLine
 10
80.3379578458169
 20
-62.09030893806636
 11
87.09504513013718
 21
-62.64037408013252
  0
LINE
  5
17D
100
AcDbEntity
  8
handle5
  6
ByLayer
 62
  256
370
   -1
100
AcDbLine
 10
89.91368594123209
 20
-60.95638473151797
 11
89.16935578596764
 21
-61.80228511949105
  0
LINE
  5
17E
100
AcDbEntity
  8
handle5
  6
ByLayer
 62
  256
370
   -1
100
AcDbLine
 10
83.22153766994741
 20
-53.05325603247292
 11
85.66380409344993
 21
-53.25206940179413
  0
LINE
  5
17F
100
AcDbEntity
  8
handle5
  6
ByLayer
 62
  256
370
   -1
100
AcDbLine
 10
86.79074964424281
 20
-50.42660754657976
 11
85.23607780176258
 21
-52.19342617143019
  0
LINE
  5
180
100
AcDbEntity
  8
handle5
  6
ByLayer
 62
  256
370
   -1
100
AcDbLine
 10
85.23607780176258
 20
-52.19342617143019
 11
87.92039391120051
 21
-58.83723819009975
  0
LINE
  5
181
100
AcDbEntity
  8
handle5
  6
ByLayer
 62
  256
370
   -1
100
AcDbLine
 10
77.95376663472736
 20
-59.02599516813137
 11
80.39602888591162
 21
-59.22481022320488
  0
LINE
  5
182
100
AcDbEntity
  8
handle5
  6
ByLayer
 62
  256
370
   -1
100
AcDbLine
 10
81.90952659921737
 20
-60.30480031252267
 11
81.13476011206507
 21
-58.38721583694365
  0
LINE
  5
183
100
AcDbEntity
  8
handle5
  6
ByLayer
 62
  256
370
   -1
100
AcDbLine
 10
80.39602888591162
 20
-59.22481022320488
 11
85.66380325057378
 21
-53.25206731563509
  0
LINE
  5
184
100
AcDbEntity
  8
handle5
  6
ByLayer
 62
  256
370
   -1
100
AcDbLine
 10
89.08950226613155
 20
-58.91477388460277
 11
81.13476011206507
 21
-58.38721583694365
  0
LINE
  5
185
100
AcDbEntity
  8
handle5
  6
ByLayer
 62
  256
370
   -1
100
AcDbLine
 10
89.91440218216832
 20
-60.95644101802867
 11
89.08950226613155
 21
-58.91477388460277
  0
LINE
  5
186
100
AcDbEntity
  8
handle5
  6
ByLayer
 62
  256
370
   -1
100
AcDbLine
 10
76.39644809288126
 20
-63.68280705444596
 11
74.0262656422928
 21
-63.48986363068622
  0
LINE
  5
187
100
AcDbEntity
  8
handle5
  6
ByLayer
 62
  256
370
   -1
100
AcDbLine
 10
77.5678342301581
 20
-60.90805239488981
 11
75.9967467766935
 21
-62.69352699200141
  0
LINE
  5
188
100
AcDbEntity
  8
handle5
  6
ByLayer
 62
  256
370
   -1
100
AcDbLine
 10
75.9967467766935
 20
-62.69352699200141
 11
77.53575204092346
 21
-66.50263935225456
  0
LINE
  5
189
100
AcDbEntity
  8
handle5
  6
ByLayer
 62
  256
370
   -1
100
AcDbLine
 10
75.6053718251718
 20
-56.05089852898567
 11
74.03429412823812
 21
-57.83636190401609
  0
LINE
  5
18A
100
AcDbEntity
  8
handle5
  6
ByLayer
 62
  256
370
   -1
100
AcDbLine
 10
75.98279873823458
 20
-59.82233029333867
 11
75.22672761808877
 21
-57.95101775405459
  0
LINE
  5
18B
100
AcDbEntity
  8
handle5
  6
ByLayer
 62
  256
370
   -1
100
AcDbLine
 10
75.98279873823458
 20
-59.82233029333867
 11
74.36411074625227
 21
-61.66190130699812
  0
LINE
  5
18C
100
AcDbEntity
  8
handle5
  6
ByLayer
 62
  256
370
   -1
100
AcDbLine
 10
75.65531253403799
 20
-50.50053562776924
 11
77.22623002201755
 21
-48.71525966596147
  0
LINE
  5
18D
100
AcDbEntity
  8
handle5
  6
ByLayer
 62
  256
370
   -1
100
AcDbLine
 10
84.80883079879544
 20
-45.46200130344567
 11
83.23774841211571
 21
-47.2474644162117
  0
LINE
  5
18E
100
AcDbEntity
  8
handle5
  6
ByLayer
 62
  256
370
   -1
100
AcDbLine
 10
77.22688128743846
 20
-48.71502700222555
 11
76.45211517489781
 21
-46.79744345382841
  0
LINE
  5
18F
100
AcDbEntity
  8
handle5
  6
ByLayer
 62
  256
370
   -1
100
AcDbLine
 10
84.40685695435252
 20
-47.32500057430565
 11
76.45211517489781
 21
-46.79744345382841
  0
LINE
  5
190
100
AcDbEntity
  8
handle5
  6
ByLayer
 62
  256
370
   -1
100
AcDbLine
 10
85.23175696404229
 20
-49.36666793952696
 11
84.40685695435252
 21
-47.32500057430565
  0
LINE
  5
191
100
AcDbEntity
  8
handle5
  6
ByLayer
 62
  256
370
   -1
100
AcDbLine
 10
89.49147601692147
 20
-57.05177438194727
 11
87.92039391120051
 21
-58.83723819009975
  0
LINE
  5
192
100
AcDbEntity
  8
handle5
  6
ByLayer
 62
  256
370
   -1
100
AcDbLine
 10
84.72038827249321
 20
-117.526667691791
 11
83.89356867254372
 21
-118.4663085965407
  0
LINE
  5
193
100
AcDbEntity
  8
handle5
  6
ByLayer
 62
  256
370
   -1
100
AcDbLine
 10
82.64607761666271
 20
-118.3647566524325
 11
83.89356867254372
 21
-118.4663085965407
  0
LINE
  5
194
100
AcDbEntity
  8
handle5
  6
ByLayer
 62
  256
370
   -1
100
AcDbLine
 10
72.71917231418178
 20
-115.6432073864177
 11
85.46471842775759
 21
-116.6807673038181
  0
LINE
  5
195
100
AcDbEntity
  8
handle5
  6
ByLayer
 62
  256
370
   -1
100
AcDbLine
 10
75.88899033234242
 20
-117.8146915103663
 11
77.45990782032197
 21
-116.0294155485586
  0
LINE
  5
196
100
AcDbEntity
  8
handle5
  6
ByLayer
 62
  256
370
   -1
100
AcDbLine
 10
73.11884631868338
 20
-116.6324432086453
 11
75.48928901615483
 21
-116.8254114479218
  0
LINE
  5
197
100
AcDbEntity
  8
handle5
  6
ByLayer
 62
  256
370
   -1
100
AcDbLine
 10
71.15640431169732
 20
-111.7752811012858
 11
73.52683636769933
 21
-111.9682463599365
  0
LINE
  5
198
100
AcDbEntity
  8
handle5
  6
ByLayer
 62
  256
370
   -1
100
AcDbLine
 10
73.50479912125292
 20
-114.7503777404315
 11
81.96466832961681
 21
-105.158353869677
  0
LINE
  5
199
100
AcDbEntity
  8
handle5
  6
ByLayer
 62
  256
370
   -1
100
AcDbLine
 10
80.78207320963162
 20
-105.0909942253164
 11
79.21092373537637
 21
-106.8765362134254
  0
LINE
  5
19A
100
AcDbEntity
  8
handle5
  6
ByLayer
 62
  256
370
   -1
100
AcDbLine
 10
77.96343230488378
 20
-106.7749833421354
 11
72.74872800110711
 21
-112.8790652011474
  0
LINE
  5
19B
100
AcDbEntity
  8
handle5
  6
ByLayer
 62
  256
370
   -1
100
AcDbLine
 10
73.50479912125292
 20
-114.7503777404315
 11
72.74872800110711
 21
-112.8790652011474
  0
LINE
  5
19C
100
AcDbEntity
  8
handle5
  6
ByLayer
 62
  256
370
   -1
100
AcDbLine
 10
77.96343230488378
 20
-106.7749833421354
 11
78.77257015647297
 21
-108.7776386047729
  0
LINE
  5
19D
100
AcDbEntity
  8
handle5
  6
ByLayer
 62
  256
370
   -1
100
AcDbLine
 10
75.88899033234242
 20
-117.8146915103663
 11
82.64607761666271
 21
-118.3647566524325
  0
LINE
  5
19E
100
AcDbEntity
  8
handle5
  6
ByLayer
 62
  256
370
   -1
100
AcDbLine
 10
85.46471842775759
 20
-116.6807673038181
 11
84.72038827249321
 21
-117.526667691791
  0
LINE
  5
19F
100
AcDbEntity
  8
handle5
  6
ByLayer
 62
  256
370
   -1
100
AcDbLine
 10
78.77257015647297
 20
-108.7776386047729
 11
81.2148365799755
 21
-108.9764519740941
  0
LINE
  5
1A0
100
AcDbEntity
  8
handle5
  6
ByLayer
 62
  256
370
   -1
100
AcDbLine
 10
82.34178213076831
 20
-106.1509901188797
 11
80.78711028828809
 21
-107.9178087437303
  0
LINE
  5
1A1
100
AcDbEntity
  8
handle5
  6
ByLayer
 62
  256
370
   -1
100
AcDbLine
 10
80.78711028828809
 20
-107.9178087437303
 11
83.47142639772608
 21
-114.5616207623997
  0
LINE
  5
1A2
100
AcDbEntity
  8
handle5
  6
ByLayer
 62
  256
370
   -1
100
AcDbLine
 10
73.50479912125292
 20
-114.7503777404315
 11
75.94706137243713
 21
-114.949192795505
  0
LINE
  5
1A3
100
AcDbEntity
  8
handle5
  6
ByLayer
 62
  256
370
   -1
100
AcDbLine
 10
77.46055908574294
 20
-116.0291828848228
 11
76.68579259859075
 21
-114.1115984092436
  0
LINE
  5
1A4
100
AcDbEntity
  8
handle5
  6
ByLayer
 62
  256
370
   -1
100
AcDbLine
 10
75.94706137243713
 20
-114.949192795505
 11
81.21483573709935
 21
-108.9764498879351
  0
LINE
  5
1A5
100
AcDbEntity
  8
handle5
  6
ByLayer
 62
  256
370
   -1
100
AcDbLine
 10
84.64053475265712
 20
-114.6391564569028
 11
76.68579259859075
 21
-114.1115984092436
  0
LINE
  5
1A6
100
AcDbEntity
  8
handle5
  6
ByLayer
 62
  256
370
   -1
100
AcDbLine
 10
85.46543466869383
 20
-116.6808235903285
 11
84.64053475265712
 21
-114.6391564569028
  0
LINE
  5
1A7
100
AcDbEntity
  8
handle5
  6
ByLayer
 62
  256
370
   -1
100
AcDbLine
 10
71.15640431169732
 20
-111.7752811012858
 11
69.58532661476352
 21
-113.5607444763162
  0
LINE
  5
1A8
100
AcDbEntity
  8
handle5
  6
ByLayer
 62
  256
370
   -1
100
AcDbLine
 10
71.53383122476009
 20
-115.5467128656387
 11
70.77776010461436
 21
-113.6754003263546
  0
LINE
  5
1A9
100
AcDbEntity
  8
handle5
  6
ByLayer
 62
  256
370
   -1
100
AcDbLine
 10
75.35509802354693
 20
-94.34712199837867
 11
74.52827842359744
 21
-95.28676290312836
  0
LINE
  5
1AA
100
AcDbEntity
  8
handle5
  6
ByLayer
 62
  256
370
   -1
100
AcDbLine
 10
74.08992437642951
 20
-97.18786413549861
 11
76.5321912681966
 21
-97.386678663797
  0
LINE
  5
1AB
100
AcDbEntity
  8
handle5
  6
ByLayer
 62
  256
370
   -1
100
AcDbLine
 10
76.10446488285642
 20
-96.32803520163765
 11
78.78878089864135
 21
-102.9718469885117
  0
LINE
  5
1AC
100
AcDbEntity
  8
handle5
  6
ByLayer
 62
  256
370
   -1
100
AcDbLine
 10
80.35986328532101
 20
-101.1863838757457
 11
78.78878089864135
 21
-102.9718469885117
  0
LINE
  5
1AD
100
AcDbEntity
  8
handle5
  6
ByLayer
 62
  256
370
   -1
100
AcDbLine
 10
80.78278945056782
 20
-105.0910505118271
 11
79.95788944087822
 21
-103.0493831466056
  0
LINE
  5
1AE
100
AcDbEntity
  8
handle5
  6
ByLayer
 62
  256
370
   -1
100
AcDbLine
 10
77.28202339244945
 20
-93.56858148656187
 11
86.64731364139573
 21
-116.7481271799741
  0
LINE
  5
1AF
100
AcDbEntity
  8
handle5
  6
ByLayer
 62
  256
370
   -1
100
AcDbLine
 10
77.67554567743679
 20
-94.54256814834883
 11
76.10446488285642
 21
-96.32803520163765
  0
LINE
  5
1B0
100
AcDbEntity
  8
handle5
  6
ByLayer
 62
  256
370
   -1
100
AcDbLine
 10
85.04250850344704
 20
-112.7761569542473
 11
83.47142639772608
 21
-114.5616207623997
  0
LINE
  5
1B1
100
AcDbEntity
  8
handle5
  6
ByLayer
 62
  256
370
   -1
100
AcDbLine
 10
76.09942817881137
 20
-93.50122161040571
 11
75.35509802354693
 21
-94.34712199837867
  0
LINE
  5
1B2
100
AcDbEntity
  8
handle5
  6
ByLayer
 62
  256
370
   -1
100
AcDbLine
 10
76.10014441974761
 20
-93.50127789691629
 11
75.27524450371084
 21
-91.45961076349039
  0
LINE
  5
1B3
100
AcDbEntity
  8
handle5
  6
ByLayer
 62
  256
370
   -1
100
AcDbLine
 10
75.67721825450087
 20
-89.596611260835
 11
74.1061361487798
 21
-91.38207506898738
  0
LINE
  5
1B4
100
AcDbEntity
  8
handle5
  6
ByLayer
 62
  256
370
   -1
100
AcDbLine
 10
109.341775692016
 20
-45.12040066763126
 11
109.9417707694033
 21
-46.60541746288612
  0
LINE
  5
1B5
100
AcDbEntity
  8
handle5
  6
ByLayer
 62
  256
370
   -1
100
AcDbLine
 10
103.5755768972786
 20
-49.85951903772963
 11
108.0734244968114
 21
-44.75973960722575
  0
LINE
  5
1B6
100
AcDbEntity
  8
handle5
  6
ByLayer
 62
  256
370
   -1
100
AcDbLine
 10
101.1333146460943
 20
-49.66070398265623
 11
105.9461576414756
 21
-44.20377506793392
  0
LINE
  5
1B7
100
AcDbEntity
  8
handle5
  6
ByLayer
 62
  256
370
   -1
100
AcDbLine
 10
109.9646648767954
 20
-49.39665599029098
 11
104.314308123432
 21
-49.0219246514684
  0
LINE
  5
1B8
100
AcDbEntity
  8
handle5
  6
ByLayer
 62
  256
370
   -1
100
AcDbLine
 10
100.3476878390232
 20
-50.55353362864247
 11
109.9805856278353
 21
-51.33770627570067
  0
LINE
  5
1B9
100
AcDbEntity
  8
handle5
  6
ByLayer
 62
  256
370
   -1
100
AcDbLine
 10
103.5175058571838
 20
-52.7250177525911
 11
109.9962904242599
 21
-53.25242747860938
  0
LINE
  5
1BA
100
AcDbEntity
  8
handle5
  6
ByLayer
 62
  256
370
   -1
100
AcDbLine
 10
109.9991210602571
 20
-53.59753725368699
 11
105.0598888377275
 21
-59.37916475366927
  0
LINE
  5
1BB
100
AcDbEntity
  8
handle5
  6
ByLayer
 62
  256
370
   -1
100
AcDbLine
 10
105.8159595832615
 20
-61.25047636577148
 11
110.0227690194659
 21
-56.48068503086569
  0
LINE
  5
1BC
100
AcDbEntity
  8
handle5
  6
ByLayer
 62
  256
370
   -1
100
AcDbLine
 10
108.2582218344459
 20
-61.44929142084487
 11
110.0468879558868
 21
-59.42125412249135
  0
LINE
  5
1BD
100
AcDbEntity
  8
handle5
  6
ByLayer
 62
  256
370
   -1
100
AcDbLine
 10
110.0572288853146
 20
-60.68201524909892
 11
108.9969534352109
 21
-60.61169796176551
  0
LINE
  5
1BE
100
AcDbEntity
  8
handle5
  6
ByLayer
 62
  256
370
   -1
100
AcDbLine
 10
105.0303327761904
 20
-62.14330601175772
 11
110.0725812963656
 21
-62.55377379727389
  0
LINE
  5
1BF
100
AcDbEntity
  8
handle5
  6
ByLayer
 62
  256
370
   -1
100
AcDbLine
 10
108.2001507943512
 20
-64.31479013570635
 11
110.0882860930829
 21
-64.46849503588186
  0
LINE
  5
1C0
100
AcDbEntity
  8
handle5
  6
ByLayer
 62
  256
370
   -1
100
AcDbLine
 10
103.854680266749
 20
-43.7188713738048
 11
100.3772435259484
 21
-47.78939144337215
  0
LINE
  5
1C1
100
AcDbEntity
  8
handle5
  6
ByLayer
 62
  256
370
   -1
100
AcDbLine
 10
101.1553518925408
 20
-46.87857260216123
 11
99.55787271932492
 21
-42.92473449297967
  0
LINE
  5
1C2
100
AcDbEntity
  8
handle5
  6
ByLayer
 62
  256
370
   -1
100
AcDbLine
 10
97.13567325269071
 20
-42.60364239273775
 11
102.6860528425991
 21
-56.34109995146554
  0
LINE
  5
1C3
100
AcDbEntity
  8
handle5
  6
ByLayer
 62
  256
370
   -1
100
AcDbLine
 10
97.21384213960495
 20
-48.47107071854083
 11
94.75377956201135
 21
-42.38229702224231
  0
LINE
  5
1C4
100
AcDbEntity
  8
handle5
  6
ByLayer
 62
  256
370
   -1
100
AcDbLine
 10
92.75389483642772
 20
-42.27215491468877
 11
87.21751759003145
 21
-48.56401039940948
  0
LINE
  5
1C5
100
AcDbEntity
  8
handle5
  6
ByLayer
 62
  256
370
   -1
100
AcDbLine
 10
92.52253824201591
 20
-42.53508418442306
 11
92.41158096523232
 21
-42.26045956533954
  0
LINE
  5
1C6
100
AcDbEntity
  8
handle5
  6
ByLayer
 62
  256
370
   -1
100
AcDbLine
 10
86.39214540597017
 20
-46.5228794791297
 11
90.27972492012755
 21
-42.2362420790601
  0
LINE
  5
1C7
100
AcDbEntity
  8
handle5
  6
ByLayer
 62
  256
370
   -1
100
AcDbLine
 10
85.89006693907561
 20
-42.46415775191571
 11
87.17925746966512
 21
-45.65496658079081
  0
LINE
  5
1C8
100
AcDbEntity
  8
handle5
  6
ByLayer
 62
  256
370
   -1
100
AcDbLine
 10
83.70375504503052
 20
-42.72688543963574
 11
91.09628115487016
 21
-61.02374460767425
  0
LINE
  5
1C9
100
AcDbEntity
  8
handle5
  6
ByLayer
 62
  256
370
   -1
100
AcDbLine
 10
81.55733915332161
 20
-43.08837033984463
 11
83.23774841211571
 21
-47.2474644162117
  0
LINE
  5
1CA
100
AcDbEntity
  8
handle5
  6
ByLayer
 62
  256
370
   -1
100
AcDbLine
 10
75.71338357413271
 20
-47.63503691290776
 11
79.28060179856868
 21
-43.59042985975049
  0
LINE
  5
1CB
100
AcDbEntity
  8
handle5
  6
ByLayer
 62
  256
370
   -1
100
AcDbLine
 10
73.91951001431573
 20
-46.70106168273361
 11
75.74648590959191
 21
-44.62958829499865
  0
LINE
  5
1CC
100
AcDbEntity
  8
handle5
  6
ByLayer
 62
  256
370
   -1
100
AcDbLine
 10
73.91306002982543
 20
-47.4884795870359
 11
75.71338357413271
 21
-47.63503691290776
  0
LINE
  5
1CD
100
AcDbEntity
  8
handle5
  6
ByLayer
 62
  256
370
   -1
100
AcDbLine
 10
73.90522793855223
 20
-48.44462590117467
 11
85.23104072310605
 21
-49.36661165301638
  0
LINE
  5
1CE
100
AcDbEntity
  8
handle5
  6
ByLayer
 62
  256
370
   -1
100
AcDbLine
 10
73.89739653095785
 20
-49.4006887513836
 11
75.2556112178504
 21
-49.51125556532469
  0
LINE
  5
1CF
100
AcDbEntity
  8
handle5
  6
ByLayer
 62
  256
370
   -1
100
AcDbLine
 10
73.87794427260411
 20
-51.77543190462671
 11
79.50650483123212
 21
-65.70639113694091
  0
LINE
  5
1D0
100
AcDbEntity
  8
handle5
  6
ByLayer
 62
  256
370
   -1
100
AcDbLine
 10
74.03429412823812
 20
-57.83636190401609
 11
73.83239068155314
 21
-57.33664112188461
  0
LINE
  5
1D1
100
AcDbEntity
  8
handle5
  6
ByLayer
 62
  256
370
   -1
100
AcDbLine
 10
73.82845941301616
 20
-57.81657269958629
 11
75.22672761808877
 21
-57.95101775405459
  0
LINE
  5
1D2
100
AcDbEntity
  8
handle5
  6
ByLayer
 62
  256
370
   -1
100
AcDbLine
 10
75.98279873823458
 20
-59.82233029333867
 11
73.81345563075365
 21
-59.64824327234959
  0
LINE
  5
1D3
100
AcDbEntity
  8
handle5
  6
ByLayer
 62
  256
370
   -1
100
AcDbLine
 10
74.36411074625227
 20
-61.66190130699812
 11
73.79733369827818
 21
-61.6164182814818
  0
LINE
  5
1D4
100
AcDbEntity
  8
handle5
  6
ByLayer
 62
  256
370
   -1
100
AcDbLine
 10
74.02563554242795
 20
-63.49014868019543
 11
73.78682696941077
 21
-62.89908592793819
  0
LINE
  5
1D5
100
AcDbEntity
  8
handle5
  6
ByLayer
 62
  256
370
   -1
100
AcDbLine
 10
77.16813982765622
 20
-59.91882481411773
 11
73.77969594205604
 21
-63.76964594612144
  0
LINE
  5
1D6
100
AcDbEntity
  8
handle5
  6
ByLayer
 62
  256
370
   -1
100
AcDbLine
 10
76.39644809288126
 20
-63.68280705444596
 11
73.75582553443354
 21
-66.68375936346416
  0
LINE
  5
1D7
100
AcDbEntity
  8
handle5
  6
ByLayer
 62
  256
370
   -1
100
AcDbLine
 10
73.73728386090198
 20
-68.94733778546714
 11
79.90937292986769
 21
-69.54079106435171
  0
LINE
  5
1D8
100
AcDbEntity
  8
handle5
  6
ByLayer
 62
  256
370
   -1
100
AcDbLine
 10
80.66544367540178
 20
-71.41210267645391
 11
73.72165864566479
 21
-70.85487326168806
  0
LINE
  5
1D9
100
AcDbEntity
  8
handle5
  6
ByLayer
 62
  256
370
   -1
100
AcDbLine
 10
79.04675568341963
 20
-73.25167369011336
 11
73.7055367095623
 21
-72.82304871359923
  0
LINE
  5
1DA
100
AcDbEntity
  8
handle5
  6
ByLayer
 62
  256
370
   -1
100
AcDbLine
 10
81.85078476482346
 20
-71.50859719723297
 11
73.63986776197642
 21
-80.83995250048253
  0
LINE
  5
1DB
100
AcDbEntity
  8
handle5
  6
ByLayer
 62
  256
370
   -1
100
AcDbLine
 10
73.63750896898074
 20
-81.12791533823469
 11
75.77379418467939
 21
-81.30182081669665
  0
LINE
  5
1DC
100
AcDbEntity
  8
handle5
  6
ByLayer
 62
  256
370
   -1
100
AcDbLine
 10
85.34808898718069
 20
-83.00187598675092
 11
73.62986166123176
 21
-82.06150317093812
  0
LINE
  5
1DD
100
AcDbEntity
  8
handle5
  6
ByLayer
 62
  256
370
   -1
100
AcDbLine
 10
73.62214119837614
 20
-83.00402182211502
 11
75.36332909689122
 21
-83.14576521489693
  0
LINE
  5
1DE
100
AcDbEntity
  8
handle5
  6
ByLayer
 62
  256
370
   -1
100
AcDbLine
 10
73.61004881537934
 20
-84.48026705831188
 11
77.28202339244945
 21
-93.56858148656187
  0
LINE
  5
1DF
100
AcDbEntity
  8
handle5
  6
ByLayer
 62
  256
370
   -1
100
AcDbLine
 10
73.56449513324395
 20
-90.0414873952148
 11
74.1061361487798
 21
-91.38207506898738
  0
LINE
  5
1E0
100
AcDbEntity
  8
handle5
  6
ByLayer
 62
  256
370
   -1
100
AcDbLine
 10
75.27524450371084
 20
-91.45961076349039
 11
73.55381400687969
 21
-91.34544559075442
  0
LINE
  5
1E1
100
AcDbEntity
  8
handle5
  6
ByLayer
 62
  256
370
   -1
100
AcDbLine
 10
73.53786347691785
 20
-93.29269568010596
 11
76.09942817881137
 21
-93.50122161040571
  0
LINE
  5
1E2
100
AcDbEntity
  8
handle5
  6
ByLayer
 62
  256
370
   -1
100
AcDbLine
 10
73.52220031943733
 20
-95.204863167719
 11
74.52827842359744
 21
-95.28676290312836
  0
LINE
  5
1E3
100
AcDbEntity
  8
handle5
  6
ByLayer
 62
  256
370
   -1
100
AcDbLine
 10
73.5175609749636
 20
-95.77123707271113
 11
74.08992437642951
 21
-97.18786413549861
  0
LINE
  5
1E4
100
AcDbEntity
  8
handle5
  6
ByLayer
 62
  256
370
   -1
100
AcDbLine
 10
73.50048246036164
 20
-97.85619219106246
 11
77.28202339244945
 21
-93.56858148656187
  0
LINE
  5
1E5
100
AcDbEntity
  8
handle5
  6
ByLayer
 62
  256
370
   -1
100
AcDbLine
 10
73.47594343518479
 20
-100.8519308331294
 11
76.53219042532044
 21
-97.38667657763796
  0
LINE
  5
1E6
100
AcDbEntity
  8
handle5
  6
ByLayer
 62
  256
370
   -1
100
AcDbLine
 10
79.95788944087822
 20
-103.0493831466056
 11
73.46147257564475
 21
-102.6185418861522
  0
LINE
  5
1E7
100
AcDbEntity
  8
handle5
  6
ByLayer
 62
  256
370
   -1
100
AcDbLine
 10
73.44611171234334
 20
-104.4938051224042
 11
80.78207320963162
 21
-105.0909942253164
  0
LINE
  5
1E8
100
AcDbEntity
  8
handle5
  6
ByLayer
 62
  256
370
   -1
100
AcDbLine
 10
72.96106405155321
 20
-106.3677622609135
 11
79.21092373537637
 21
-106.8765362134254
  0
LINE
  5
1E9
100
AcDbEntity
  8
handle5
  6
ByLayer
 62
  256
370
   -1
100
AcDbLine
 10
73.52683636769933
 20
-111.9682463599365
 11
71.57773530686133
 21
-107.144127096163
  0
LINE
  5
1EA
100
AcDbEntity
  8
handle5
  6
ByLayer
 62
  256
370
   -1
100
AcDbLine
 10
69.58532661476352
 20
-113.5607444763162
 11
68.34741602107495
 21
-110.4968559680026
  0
LINE
  5
1EB
100
AcDbEntity
  8
handle5
  6
ByLayer
 62
  256
370
   -1
100
AcDbLine
 10
68.43051352566063
 20
-113.4497099380492
 11
70.77776010461436
 21
-113.6754003263546
  0
LINE
  5
1EC
100
AcDbEntity
  8
handle5
  6
ByLayer
 62
  256
370
   -1
100
AcDbLine
 10
71.53383122476009
 20
-115.5467128656387
 11
69.94679543497404
 21
-115.4193552651309
  0
LINE
  5
1ED
100
AcDbEntity
  8
handle5
  6
ByLayer
 62
  256
370
   -1
100
AcDbLine
 10
71.53383122476009
 20
-115.5467128656387
 11
70.97081889726873
 21
-116.1865527625899
  0
LINE
  5
1EE
100
AcDbEntity
  8
handle5
  6
ByLayer
 62
  256
370
   -1
100
AcDbLine
 10
72.71917231418178
 20
-115.6432073864177
 11
71.80500888458062
 21
-116.6821149120148
  0
LINE
  5
1EF
100
AcDbEntity
  8
handle5
  6
ByLayer
 62
  256
370
   -1
100
AcDbLine
 10
73.11886671668361
 20
-116.6324349671899
 11
72.70265167743617
 21
-117.1054457966464
  0
LINE
  5
1F0
100
AcDbEntity
  8
handle5
  6
ByLayer
 62
  256
370
   -1
100
AcDbLine
 10
69.79723733619267
 20
-108.4112771915049
 11
73.409765155299
 21
-117.3524580226191
  0
LINE
  5
1F1
100
AcDbEntity
  8
handle5
  6
ByLayer
 62
  256
370
   -1
100
AcDbLine
 10
75.48928901615483
 20
-116.8254114479218
 11
75.95983054349392
 21
-117.9900244544256
  0
LINE
  5
1F2
100
AcDbEntity
  8
handle5
  6
ByLayer
 62
  256
370
   -1
100
AcDbLine
 10
82.64607761666271
 20
-118.3647566524325
 11
82.34999345246416
 21
-118.7113385236455
  0
LINE
  5
1F3
100
AcDbEntity
  8
handle5
  6
ByLayer
 62
  256
370
   -1
100
AcDbLine
 10
82.64607761666271
 20
-118.3647566524325
 11
82.79517184389516
 21
-118.7337720658251
  0
LINE
  5
1F4
100
AcDbEntity
  8
handle5
  6
ByLayer
 62
  256
370
   -1
100
AcDbLine
 10
84.79883970441762
 20
-118.8439756135919
 11
86.64731364139573
 21
-116.7481271799741
  0
LINE
  5
1F5
100
AcDbEntity
  8
handle5
  6
ByLayer
 62
  256
370
   -1
100
AcDbLine
 10
87.04083592638297
 20
-117.7221138417612
 11
86.00786131127417
 21
-118.896045919935
  0
LINE
  5
1F6
100
AcDbEntity
  8
handle5
  6
ByLayer
 62
  256
370
   -1
100
AcDbLine
 10
86.64731364139573
 20
-116.7481271799741
 11
87.53348571165357
 21
-118.9414458544357
  0
LINE
  5
1F7
100
AcDbEntity
  8
handle5
  6
ByLayer
 62
  256
370
   -1
100
AcDbLine
 10
89.41126418935193
 20
-117.9150830596291
 11
89.82931001885771
 21
-118.9497666785443
  0
LINE
  5
1F8
100
AcDbEntity
  8
handle5
  6
ByLayer
 62
  256
370
   -1
100
AcDbLine
 10
91.45768203893266
 20
-117.1341527570524
 11
89.85980789275487
 21
-118.9500685282756
  0
LINE
  5
1F9
100
AcDbEntity
  8
handle5
  6
ByLayer
 62
  256
370
   -1
100
AcDbLine
 10
99.39602417329428
 20
-117.7711940632786
 11
98.44766541847173
 21
-118.8489640131165
  0
LINE
  5
1FA
100
AcDbEntity
  8
handle5
  6
ByLayer
 62
  256
370
   -1
100
AcDbLine
 10
100.581365262716
 20
-117.8676885840577
 11
99.76749622207008
 21
-118.7926158712231
  0
LINE
  5
1FB
100
AcDbEntity
  8
handle5
  6
ByLayer
 62
  256
370
   -1
100
AcDbLine
 10
98.23708532912464
 20
-112.0654825237656
 11
100.9299523803062
 21
-118.7304585362467
  0
LINE
  5
1FC
100
AcDbEntity
  8
handle5
  6
ByLayer
 62
  256
370
   -1
100
AcDbLine
 10
105.2246411675014
 20
-118.36465513095
 11
105.3221007688563
 21
-118.2538967461986
  0
LINE
  5
1FD
100
AcDbEntity
  8
handle5
  6
ByLayer
 62
  256
370
   -1
100
AcDbLine
 10
100.581365262716
 20
-117.8676885840577
 11
105.8060397087803
 21
-118.2930068803175
  0
LINE
  5
1FE
100
AcDbEntity
  8
handle5
  6
ByLayer
 62
  256
370
   -1
100
AcDbLine
 10
111.9355457640619
 20
-116.826022245038
 11
104.5479859217366
 21
-116.3360805340655
  0
LINE
  5
1FF
100
AcDbEntity
  8
handle5
  6
ByLayer
 62
  256
370
   -1
100
AcDbLine
 10
109.8268616527627
 20
-107.382835994499
 11
113.3032406406886
 21
-115.9870418926892
  0
LINE
  5
200
100
AcDbEntity
  8
handle5
  6
ByLayer
 62
  256
370
   -1
100
AcDbLine
 10
112.9047015456342
 20
-115.0006383836828
 11
114.3525274257604
 21
-115.1184990734646
  0
LINE
  5
201
100
AcDbEntity
  8
handle5
  6
ByLayer
 62
  256
370
   -1
100
AcDbLine
 10
112.5908122007189
 20
-108.5497918741539
 11
114.9663414657676
 21
-114.4293415390916
  0
LINE
  5
202
100
AcDbEntity
  8
handle5
  6
ByLayer
 62
  256
370
   -1
100
AcDbLine
 10
115.1413754089747
 20
-109.7787878544302
 11
113.018537743183
 21
-109.6084332501542
  0
LINE
  5
203
100
AcDbEntity
  8
handle5
  6
ByLayer
 62
  256
370
   -1
100
AcDbLine
 10
114.0691382430494
 20
-108.4144736648424
 11
113.0185385860592
 21
-109.6084353363132
  0
LINE
  5
204
100
AcDbEntity
  8
handle5
  6
ByLayer
 62
  256
370
   -1
100
AcDbLine
 10
113.1051520599758
 20
-107.6459143929835
 11
109.8268616527627
 21
-107.382835994499
  0
LINE
  5
205
100
AcDbEntity
  8
handle5
  6
ByLayer
 62
  256
370
   -1
100
AcDbLine
 10
110.6307433060499
 20
-106.5128748647358
 11
111.1295941642125
 21
-106.5534836331011
  0
LINE
  5
206
100
AcDbEntity
  8
handle5
  6
ByLayer
 62
  256
370
   -1
100
AcDbLine
 10
110.8273136167312
 20
-106.2894811383375
 11
110.6307433060499
 21
-106.5128748647358
  0
LINE
  5
207
100
AcDbEntity
  8
handle5
  6
ByLayer
 62
  256
370
   -1
100
AcDbLine
 10
109.8053712156416
 20
-104.4717441762515
 11
110.4109213874604
 21
-103.8040344628413
  0
LINE
  5
208
100
AcDbEntity
  8
handle5
  6
ByLayer
 62
  256
370
   -1
100
AcDbLine
 10
108.2220566084669
 20
-103.4108660005675
 11
110.409156887995
 21
-103.5889075393365
  0
LINE
  5
209
100
AcDbEntity
  8
handle5
  6
ByLayer
 62
  256
370
   -1
100
AcDbLine
 10
107.9081673572044
 20
-96.96001972283403
 11
110.4054830641906
 21
-103.1409967136407
  0
LINE
  5
20A
100
AcDbEntity
  8
handle5
  6
ByLayer
 62
  256
370
   -1
100
AcDbLine
 10
110.364804436442
 20
-98.18147804495214
 11
108.3358928060156
 21
-98.01866086703882
  0
LINE
  5
20B
100
AcDbEntity
  8
handle5
  6
ByLayer
 62
  256
370
   -1
100
AcDbLine
 10
110.3486399450125
 20
-96.21071104884533
 11
105.1442163409838
 21
-95.79306268420186
  0
LINE
  5
20C
100
AcDbEntity
  8
handle5
  6
ByLayer
 62
  256
370
   -1
100
AcDbLine
 10
109.1454477298077
 20
-94.17643508480165
 11
110.332891014892
 21
-94.29060908701518
  0
LINE
  5
20D
100
AcDbEntity
  8
handle5
  6
ByLayer
 62
  256
370
   -1
100
AcDbLine
 10
110.3209968258721
 20
-92.84047530035929
 11
108.3186324449926
 21
-95.11607532463375
  0
LINE
  5
20E
100
AcDbEntity
  8
handle5
  6
ByLayer
 62
  256
370
   -1
100
AcDbLine
 10
110.2975360752552
 20
-89.9801519043678
 11
105.9480980879238
 21
-94.92310178623421
  0
LINE
  5
20F
100
AcDbEntity
  8
handle5
  6
ByLayer
 62
  256
370
   -1
100
AcDbLine
 10
105.1227259038627
 20
-92.88197086595443
 11
110.274741950591
 21
-87.20110322292925
  0
LINE
  5
210
100
AcDbEntity
  8
handle5
  6
ByLayer
 62
  256
370
   -1
100
AcDbLine
 10
110.2727651621148
 20
-86.96009412565735
 11
103.6532474942367
 21
-86.4288875567417
  0
LINE
  5
211
100
AcDbEntity
  8
handle5
  6
ByLayer
 62
  256
370
   -1
100
AcDbLine
 10
110.2566006797438
 20
-84.98932823395245
 11
100.4615714038164
 21
-84.20329030108661
  0
LINE
  5
212
100
AcDbEntity
  8
handle5
  6
ByLayer
 62
  256
370
   -1
100
AcDbLine
 10
104.4628027926403
 20
-82.58666270168629
 11
110.2414509968151
 21
-83.14228620062948
  0
LINE
  5
213
100
AcDbEntity
  8
handle5
  6
ByLayer
 62
  256
370
   -1
100
AcDbLine
 10
110.2211298018255
 20
-80.66473591196308
 11
110.0805903012366
 21
-80.31689386019167
  0
LINE
  5
214
100
AcDbEntity
  8
handle5
  6
ByLayer
 62
  256
370
   -1
100
AcDbLine
 10
102.6860528425991
 20
-56.34109995146554
 11
110.1736269195906
 21
-74.87320742885657
  0
LINE
  5
215
100
AcDbEntity
  8
handle5
  6
ByLayer
 62
  256
370
   -1
100
AcDbLine
 10
110.112652092471
 20
-74.72231514428239
 11
110.1724291944579
 21
-74.72718135856877
  0
LINE
  5
216
100
AcDbEntity
  8
handle5
  6
ByLayer
 62
  256
370
   -1
100
AcDbLine
 10
109.7129780879694
 20
-73.73307932205483
 11
110.1645769707997
 21
-73.76984203864555
  0
LINE
  5
217
100
AcDbEntity
  8
handle5
  6
ByLayer
 62
  256
370
   -1
100
AcDbLine
 10
110.1498728357365
 20
-71.97712098613789
 11
109.7425337748947
 21
-70.96893713678452
  0
LINE
  5
218
100
AcDbEntity
  8
handle5
  6
ByLayer
 62
  256
370
   -1
100
AcDbLine
 10
110.1378085371713
 20
-70.50624752579523
 11
109.7425337748947
 21
-70.96893713678452
  0
LINE
  5
219
100
AcDbEntity
  8
handle5
  6
ByLayer
 62
  256
370
   -1
100
AcDbLine
 10
108.150210085485
 20
-69.86515303692289
 11
110.1338746791319
 21
-70.02663345160937
  0
LINE
  5
21A
100
AcDbEntity
  8
handle5
  6
ByLayer
 62
  256
370
   -1
100
AcDbLine
 10
110.1261239367864
 20
-69.08166668439497
 11
107.8004494781635
 21
-63.3255100732618
  0
ELLIPSE
  5
21B
100
AcDbEntity
  8
handle5
  6
ByLayer
 62
  256
370
   -1
100
AcDbEllipse
 10
629.2510095298175
 20
-1420.846274670865
 30
0
 11
-555.7052720695427
 21
1375.397387972622
 31
0
 40
0.169317757651324
 41
6.148231702358434
 42
6.281534110374036
  0
LINE
  5
21C
100
AcDbEntity
  8
handle5
  6
ByLayer
 62
  256
370
   -1
100
AcDbLine
 10
13.41425040370352
 20
-10.60103565749488
 11
11.06857655271072
 21
-10.41007152611718
  0
LINE
  5
21D
100
AcDbEntity
  8
handle5
  6
ByLayer
 62
  256
370
   -1
100
AcDbLine
 10
17.71121740617812
 20
-24.03679871335931
 11
15.34068362497322
 21
-23.84381119015756
  0
LINE
  5
21E
100
AcDbEntity
  8
handle5
  6
ByLayer
 62
  256
370
   -1
100
AcDbLine
 10
14.51386325622722
 20
-24.78344695647474
 11
13.70473624005773
 21
-22.78078731600948
  0
LINE
  5
21F
100
AcDbEntity
  8
handle5
  6
ByLayer
 62
  256
370
   -1
100
AcDbLine
 10
13.70473624005773
 20
-22.78078731600948
 11
15.32343812558463
 21
-20.94122346824371
  0
LINE
  5
220
100
AcDbEntity
  8
handle5
  6
ByLayer
 62
  256
370
   -1
100
AcDbLine
 10
13.02910660384323
 20
-12.4464626981117
 11
13.85399547338572
 21
-14.48813429464582
  0
LINE
  5
221
100
AcDbEntity
  8
handle5
  6
ByLayer
 62
  256
370
   -1
100
AcDbLine
 10
21.27075673638923
 20
-35.53516852951719
 11
20.02326622997542
 21
-35.43360983583426
  0
LINE
  5
222
100
AcDbEntity
  8
handle5
  6
ByLayer
 62
  256
370
   -1
100
AcDbLine
 10
19.19644548662292
 20
-36.37324467496768
 11
20.02326622997542
 21
-35.43360983583426
  0
LINE
  5
223
100
AcDbEntity
  8
handle5
  6
ByLayer
 62
  256
370
   -1
100
AcDbLine
 10
19.19644548662292
 20
-36.37324467496768
 11
18.38731931331823
 21
-34.37058712066602
  0
LINE
  5
224
100
AcDbEntity
  8
handle5
  6
ByLayer
 62
  256
370
   -1
100
AcDbLine
 10
18.38731931331823
 20
-34.37058712066602
 11
20.00602073058683
 21
-32.53102211392053
  0
LINE
  5
225
100
AcDbEntity
  8
handle5
  6
ByLayer
 62
  256
370
   -1
100
AcDbLine
 10
22.77941523910133
 20
-33.78063202166453
 11
20.43374138810843
 21
-33.58966789028682
  0
LINE
  5
226
100
AcDbEntity
  8
handle5
  6
ByLayer
 62
  256
370
   -1
100
AcDbLine
 10
20.43374138810843
 20
-33.58966789028682
 11
17.74946131884393
 21
-26.94584157996274
  0
LINE
  5
227
100
AcDbEntity
  8
handle5
  6
ByLayer
 62
  256
370
   -1
100
AcDbLine
 10
20.11988694563622
 20
-27.13881968254754
 11
17.74946131884393
 21
-26.94584157996274
  0
LINE
  5
228
100
AcDbEntity
  8
handle5
  6
ByLayer
 62
  256
370
   -1
100
AcDbLine
 10
17.71168911519382
 20
-24.03626111199254
 11
18.53657807838792
 21
-26.07793294032253
  0
LINE
  5
229
100
AcDbEntity
  8
handle5
  6
ByLayer
 62
  256
370
   -1
100
AcDbLine
 10
18.12158515911173
 20
-22.19284920156259
 11
15.75115868945463
 21
-21.99986901281408
  0
LINE
  5
22A
100
AcDbEntity
  8
handle5
  6
ByLayer
 62
  256
370
   -1
100
AcDbLine
 10
13.94622228887462
 20
-45.22679964828745
 11
22.39379926196713
 21
-35.62659550466839
  0
LINE
  5
22B
100
AcDbEntity
  8
handle5
  6
ByLayer
 62
  256
370
   -1
100
AcDbLine
 10
14.71793438874222
 20
-41.46282158326841
 11
17.08811579537142
 21
-41.65577783094653
  0
LINE
  5
22C
100
AcDbEntity
  8
handle5
  6
ByLayer
 62
  256
370
   -1
100
AcDbLine
 10
13.54653323861493
 20
-44.23756990497503
 11
15.11763035240382
 21
-42.45210380829081
  0
LINE
  5
22D
100
AcDbEntity
  8
handle5
  6
ByLayer
 62
  256
370
   -1
100
AcDbLine
 10
15.11763035240382
 20
-42.45210380829081
 11
13.57864569747763
 21
-38.64298312127363
  0
LINE
  5
22E
100
AcDbEntity
  8
handle5
  6
ByLayer
 62
  256
370
   -1
100
AcDbLine
 10
17.08005672103833
 20
-47.30927951409564
 11
19.80021295740603
 21
-54.04190245396757
  0
LINE
  5
22F
100
AcDbEntity
  8
handle5
  6
ByLayer
 62
  256
370
   -1
100
AcDbLine
 10
15.50896936384103
 20
-49.09473438875153
 11
17.08005672103833
 21
-47.30927951409564
  0
LINE
  5
230
100
AcDbEntity
  8
handle5
  6
ByLayer
 62
  256
370
   -1
100
AcDbLine
 10
27.07638224157597
 20
-47.21639507752894
 11
24.70584846037103
 21
-47.02340755432721
  0
LINE
  5
231
100
AcDbEntity
  8
handle5
  6
ByLayer
 62
  256
370
   -1
100
AcDbLine
 10
19.40051699374443
 20
-53.05262022894516
 11
24.70584846037103
 21
-47.02340755432721
  0
LINE
  5
232
100
AcDbEntity
  8
handle5
  6
ByLayer
 62
  256
370
   -1
100
AcDbLine
 10
23.87902809162503
 20
-47.96304332064443
 11
15.88762385155293
 21
-47.19461721237275
  0
LINE
  5
233
100
AcDbEntity
  8
handle5
  6
ByLayer
 62
  256
370
   -1
100
AcDbLine
 10
15.13156285619343
 20
-45.32330058237761
 11
15.88762385155293
 21
-47.19461721237275
  0
LINE
  5
234
100
AcDbEntity
  8
handle5
  6
ByLayer
 62
  256
370
   -1
100
AcDbLine
 10
23.87902809162503
 20
-47.96304332064443
 11
23.06990107545552
 21
-45.96038368017918
  0
LINE
  5
235
100
AcDbEntity
  8
handle5
  6
ByLayer
 62
  256
370
   -1
100
AcDbLine
 10
14.71793438874222
 20
-41.46282158326841
 11
19.19644548662292
 21
-36.37324467496768
  0
LINE
  5
236
100
AcDbEntity
  8
handle5
  6
ByLayer
 62
  256
370
   -1
100
AcDbLine
 10
22.39379926196713
 20
-35.62659550466839
 11
21.27075673638923
 21
-35.53516852951719
  0
LINE
  5
237
100
AcDbEntity
  8
handle5
  6
ByLayer
 62
  256
370
   -1
100
AcDbLine
 10
23.06990107545552
 20
-45.96038368017918
 11
24.68860296098242
 21
-44.12081983241336
  0
LINE
  5
238
100
AcDbEntity
  8
handle5
  6
ByLayer
 62
  256
370
   -1
100
AcDbLine
 10
25.11632352485242
 20
-45.17946537698373
 11
22.43204354923952
 21
-38.53563929845558
  0
LINE
  5
239
100
AcDbEntity
  8
handle5
  6
ByLayer
 62
  256
370
   -1
100
AcDbLine
 10
15.13156285619343
 20
-45.32330058237761
 11
16.75026080118903
 21
-43.48373832668989
  0
LINE
  5
23A
100
AcDbEntity
  8
handle5
  6
ByLayer
 62
  256
370
   -1
100
AcDbLine
 10
17.08874589677862
 20
-41.65549278484656
 11
17.86350200878913
 21
-43.57308145228757
  0
LINE
  5
23B
100
AcDbEntity
  8
handle5
  6
ByLayer
 62
  256
370
   -1
100
AcDbLine
 10
16.75026080118903
 20
-43.48373832668989
 11
24.68860380384733
 21
-44.12082191857706
  0
LINE
  5
23C
100
AcDbEntity
  8
handle5
  6
ByLayer
 62
  256
370
   -1
100
AcDbLine
 10
23.21916030878353
 20
-37.66773065881551
 11
17.86350200878913
 21
-43.57308145228757
  0
LINE
  5
23D
100
AcDbEntity
  8
handle5
  6
ByLayer
 62
  256
370
   -1
100
AcDbLine
 10
22.39427143924102
 20
-35.6260590622814
 11
23.21916030878353
 21
-37.66773065881551
  0
LINE
  5
23E
100
AcDbEntity
  8
handle5
  6
ByLayer
 62
  256
370
   -1
100
AcDbLine
 10
15.45899862462242
 20
-54.64509701968149
 11
13.88807147739323
 21
-56.4303644819816
  0
LINE
  5
23F
100
AcDbEntity
  8
handle5
  6
ByLayer
 62
  256
370
   -1
100
AcDbLine
 10
18.22913624166192
 20
-55.82736030930681
 11
15.85869458828402
 21
-55.63437924470389
  0
LINE
  5
240
100
AcDbEntity
  8
handle5
  6
ByLayer
 62
  256
370
   -1
100
AcDbLine
 10
17.82112095691852
 20
-60.49155495050871
 11
19.00229216375342
 21
-63.41505627617954
  0
LINE
  5
241
100
AcDbEntity
  8
handle5
  6
ByLayer
 62
  256
370
   -1
100
AcDbLine
 10
20.19155196884323
 20
-60.68453303442828
 11
17.82112095691852
 21
-60.49155495050871
  0
LINE
  5
242
100
AcDbEntity
  8
handle5
  6
ByLayer
 62
  256
370
   -1
100
AcDbLine
 10
17.84317325614403
 20
-57.70942368928746
 11
18.59923387689693
 21
-59.58073939209868
  0
LINE
  5
243
100
AcDbEntity
  8
handle5
  6
ByLayer
 62
  256
370
   -1
100
AcDbLine
 10
17.84317325614403
 20
-57.70942368928746
 11
15.40091208068843
 21
-57.51059542030652
  0
LINE
  5
244
100
AcDbEntity
  8
handle5
  6
ByLayer
 62
  256
370
   -1
100
AcDbLine
 10
13.88742021071353
 20
-56.43059714219379
 11
14.66217594811732
 21
-58.34818488245099
  0
LINE
  5
245
100
AcDbEntity
  8
handle5
  6
ByLayer
 62
  256
370
   -1
100
AcDbLine
 10
18.62880489387683
 20
-56.81659829396432
 11
27.07638177331768
 21
-47.21639391854916
  0
LINE
  5
246
100
AcDbEntity
  8
handle5
  6
ByLayer
 62
  256
370
   -1
100
AcDbLine
 10
19.40051699374443
 20
-53.05262022894516
 11
21.77069840037363
 21
-53.24557647662328
  0
LINE
  5
247
100
AcDbEntity
  8
handle5
  6
ByLayer
 62
  256
370
   -1
100
AcDbLine
 10
18.22911584361712
 20
-55.82736855065178
 11
19.80021295740603
 21
-54.04190245396757
  0
LINE
  5
248
100
AcDbEntity
  8
handle5
  6
ByLayer
 62
  256
370
   -1
100
AcDbLine
 10
21.76263932604053
 20
-58.89907815977239
 11
22.94381053287543
 21
-61.82257948544321
  0
LINE
  5
249
100
AcDbEntity
  8
handle5
  6
ByLayer
 62
  256
370
   -1
100
AcDbLine
 10
20.19155196884323
 20
-60.68453303442828
 11
21.76263932604053
 21
-58.89907815977239
  0
LINE
  5
24A
100
AcDbEntity
  8
handle5
  6
ByLayer
 62
  256
370
   -1
100
AcDbLine
 10
19.81414546119562
 20
-56.91309922805445
 11
32.56285045758301
 21
-57.93623508850595
  0
LINE
  5
24B
100
AcDbEntity
  8
handle5
  6
ByLayer
 62
  256
370
   -1
100
AcDbLine
 10
30.63592157178704
 20
-58.71476489368678
 11
29.38843106537314
 21
-58.61320620000396
  0
LINE
  5
24C
100
AcDbEntity
  8
handle5
  6
ByLayer
 62
  256
370
   -1
100
AcDbLine
 10
28.56161032202067
 20
-59.55284103913738
 11
29.38843106537314
 21
-58.61320620000396
  0
LINE
  5
24D
100
AcDbEntity
  8
handle5
  6
ByLayer
 62
  256
370
   -1
100
AcDbLine
 10
28.56161032202067
 20
-59.55284103913738
 11
20.57020608194853
 21
-58.78441493086569
  0
LINE
  5
24E
100
AcDbEntity
  8
handle5
  6
ByLayer
 62
  256
370
   -1
100
AcDbLine
 10
19.81414546119562
 20
-56.91309922805445
 11
20.57020608194853
 21
-58.78441493086569
  0
LINE
  5
24F
100
AcDbEntity
  8
handle5
  6
ByLayer
 62
  256
370
   -1
100
AcDbLine
 10
28.56161032202067
 20
-59.55284103913738
 11
27.75248414871595
 21
-57.55018348483571
  0
LINE
  5
250
100
AcDbEntity
  8
handle5
  6
ByLayer
 62
  256
370
   -1
100
AcDbLine
 10
27.75248414871595
 20
-57.55018348483571
 11
29.37118556598466
 21
-55.71061847809011
  0
LINE
  5
251
100
AcDbEntity
  8
handle5
  6
ByLayer
 62
  256
370
   -1
100
AcDbLine
 10
32.14458007449912
 20
-56.96022838583423
 11
29.79890622350626
 21
-56.76926425445646
  0
LINE
  5
252
100
AcDbEntity
  8
handle5
  6
ByLayer
 62
  256
370
   -1
100
AcDbLine
 10
29.79890622350626
 20
-56.76926425445646
 11
27.11462615424171
 21
-50.12543794413244
  0
LINE
  5
253
100
AcDbEntity
  8
handle5
  6
ByLayer
 62
  256
370
   -1
100
AcDbLine
 10
29.48505178103397
 20
-50.31841604671723
 11
27.11462615424171
 21
-50.12543794413244
  0
LINE
  5
254
100
AcDbEntity
  8
handle5
  6
ByLayer
 62
  256
370
   -1
100
AcDbLine
 10
19.81414546119562
 20
-56.91309922805445
 11
21.43284340619122
 21
-55.07353697236675
  0
LINE
  5
255
100
AcDbEntity
  8
handle5
  6
ByLayer
 62
  256
370
   -1
100
AcDbLine
 10
21.77132850178083
 20
-53.24529143052331
 11
22.54608423918482
 21
-55.16287917078051
  0
LINE
  5
256
100
AcDbEntity
  8
handle5
  6
ByLayer
 62
  256
370
   -1
100
AcDbLine
 10
21.43284340619122
 20
-55.07353697236675
 11
29.3711864088495
 21
-55.71062056425382
  0
LINE
  5
257
100
AcDbEntity
  8
handle5
  6
ByLayer
 62
  256
370
   -1
100
AcDbLine
 10
27.90174291378577
 20
-49.25752930449227
 11
22.54608423918482
 21
-55.16287917078051
  0
LINE
  5
258
100
AcDbEntity
  8
handle5
  6
ByLayer
 62
  256
370
   -1
100
AcDbLine
 10
27.07685395059161
 20
-47.21585747616217
 11
27.90174291378577
 21
-49.25752930449227
  0
LINE
  5
259
100
AcDbEntity
  8
handle5
  6
ByLayer
 62
  256
370
   -1
100
AcDbLine
 10
27.48674999450958
 20
-45.37244556573222
 11
25.11632352485242
 21
-45.17946537698373
  0
LINE
  5
25A
100
AcDbEntity
  8
handle5
  6
ByLayer
 62
  256
370
   -1
100
AcDbLine
 10
15.13156285619343
 20
-45.32330058237761
 11
27.88026822718746
 21
-46.34643737001301
  0
LINE
  5
25B
100
AcDbEntity
  8
handle5
  6
ByLayer
 62
  256
370
   -1
100
AcDbLine
 10
24.80246917603172
 20
-38.72861740104048
 11
22.43204354923952
 21
-38.53563929845558
  0
LINE
  5
25C
100
AcDbEntity
  8
handle5
  6
ByLayer
 62
  256
370
   -1
100
AcDbLine
 10
20.14158085501802
 20
-66.23489473817443
 11
18.57065370778882
 21
-68.02016220047454
  0
LINE
  5
25D
100
AcDbEntity
  8
handle5
  6
ByLayer
 62
  256
370
   -1
100
AcDbLine
 10
22.91171847205753
 20
-67.41715802779964
 11
20.54127681867962
 21
-67.22417696319684
  0
LINE
  5
25E
100
AcDbEntity
  8
handle5
  6
ByLayer
 62
  256
370
   -1
100
AcDbLine
 10
20.54127681867962
 20
-67.22417696319684
 11
19.00229216375342
 21
-63.41505627617954
  0
LINE
  5
25F
100
AcDbEntity
  8
handle5
  6
ByLayer
 62
  256
370
   -1
100
AcDbLine
 10
24.87413419923882
 20
-72.2743307529212
 11
22.50370318731403
 21
-72.08135266900166
  0
LINE
  5
260
100
AcDbEntity
  8
handle5
  6
ByLayer
 62
  256
370
   -1
100
AcDbLine
 10
22.52575548653962
 20
-69.29922140778041
 11
23.28181648189913
 21
-71.1705380377754
  0
LINE
  5
261
100
AcDbEntity
  8
handle5
  6
ByLayer
 62
  256
370
   -1
100
AcDbLine
 10
22.52575548653962
 20
-69.29922140778041
 11
20.08349431108402
 21
-69.10039313879935
  0
LINE
  5
262
100
AcDbEntity
  8
handle5
  6
ByLayer
 62
  256
370
   -1
100
AcDbLine
 10
18.57000244110903
 20
-68.02039486068674
 11
19.34475855311952
 21
-69.93798352812775
  0
LINE
  5
263
100
AcDbEntity
  8
handle5
  6
ByLayer
 62
  256
370
   -1
100
AcDbLine
 10
23.31138712427243
 20
-68.40639601245715
 11
31.75896409736498
 21
-58.80619186883797
  0
LINE
  5
264
100
AcDbEntity
  8
handle5
  6
ByLayer
 62
  256
370
   -1
100
AcDbLine
 10
24.08309922414003
 20
-64.6424179474381
 11
26.45328063076923
 21
-64.83537419511623
  0
LINE
  5
265
100
AcDbEntity
  8
handle5
  6
ByLayer
 62
  256
370
   -1
100
AcDbLine
 10
22.91169807401272
 20
-67.41716626914473
 11
24.48279518780163
 21
-65.63170017246051
  0
LINE
  5
266
100
AcDbEntity
  8
handle5
  6
ByLayer
 62
  256
370
   -1
100
AcDbLine
 10
24.48279518780163
 20
-65.63170017246051
 11
22.94381053287543
 21
-61.82257948544321
  0
LINE
  5
267
100
AcDbEntity
  8
handle5
  6
ByLayer
 62
  256
370
   -1
100
AcDbLine
 10
24.87413419923882
 20
-72.2743307529212
 11
26.44522155643612
 21
-70.48887587826533
  0
LINE
  5
268
100
AcDbEntity
  8
handle5
  6
ByLayer
 62
  256
370
   -1
100
AcDbLine
 10
36.44154707697373
 20
-70.39599144169864
 11
34.07101329576875
 21
-70.2030039184969
  0
LINE
  5
269
100
AcDbEntity
  8
handle5
  6
ByLayer
 62
  256
370
   -1
100
AcDbLine
 10
28.76568182914218
 20
-76.23221659311483
 11
34.07101329576875
 21
-70.2030039184969
  0
LINE
  5
26A
100
AcDbEntity
  8
handle5
  6
ByLayer
 62
  256
370
   -1
100
AcDbLine
 10
33.24419292702294
 20
-71.14263968481413
 11
25.25278868695072
 21
-70.37421357654245
  0
LINE
  5
26B
100
AcDbEntity
  8
handle5
  6
ByLayer
 62
  256
370
   -1
100
AcDbLine
 10
24.49672769159123
 20
-68.50289694654731
 11
25.25278868695072
 21
-70.37421357654245
  0
LINE
  5
26C
100
AcDbEntity
  8
handle5
  6
ByLayer
 62
  256
370
   -1
100
AcDbLine
 10
33.24419292702294
 20
-71.14263968481413
 11
32.43506591085327
 21
-69.13998004434887
  0
LINE
  5
26D
100
AcDbEntity
  8
handle5
  6
ByLayer
 62
  256
370
   -1
100
AcDbLine
 10
24.08309922414003
 20
-64.6424179474381
 11
28.56161032202067
 21
-59.55284103913738
  0
LINE
  5
26E
100
AcDbEntity
  8
handle5
  6
ByLayer
 62
  256
370
   -1
100
AcDbLine
 10
31.75896409736498
 20
-58.80619186883797
 11
30.63592157178704
 21
-58.71476489368678
  0
LINE
  5
26F
100
AcDbEntity
  8
handle5
  6
ByLayer
 62
  256
370
   -1
100
AcDbLine
 10
32.43506591085327
 20
-69.13998004434887
 11
34.05376779638021
 21
-67.30041619658306
  0
LINE
  5
270
100
AcDbEntity
  8
handle5
  6
ByLayer
 62
  256
370
   -1
100
AcDbLine
 10
34.48148836025018
 20
-68.35906174115343
 11
31.79720838463732
 21
-61.71523566262528
  0
LINE
  5
271
100
AcDbEntity
  8
handle5
  6
ByLayer
 62
  256
370
   -1
100
AcDbLine
 10
24.49672769159123
 20
-68.50289694654731
 11
26.11542563658682
 21
-66.66333469085959
  0
LINE
  5
272
100
AcDbEntity
  8
handle5
  6
ByLayer
 62
  256
370
   -1
100
AcDbLine
 10
26.45391073217652
 20
-64.83508914901626
 11
27.22866684418693
 21
-66.75267781645735
  0
LINE
  5
273
100
AcDbEntity
  8
handle5
  6
ByLayer
 62
  256
370
   -1
100
AcDbLine
 10
26.11542563658682
 20
-66.66333469085959
 11
34.05376863924511
 21
-67.30041828274676
  0
LINE
  5
274
100
AcDbEntity
  8
handle5
  6
ByLayer
 62
  256
370
   -1
100
AcDbLine
 10
32.58432514418132
 20
-60.8473270229851
 11
27.22866684418693
 21
-66.75267781645735
  0
LINE
  5
275
100
AcDbEntity
  8
handle5
  6
ByLayer
 62
  256
370
   -1
100
AcDbLine
 10
31.75943627463886
 20
-58.8056554264511
 11
32.58432514418132
 21
-60.8473270229851
  0
LINE
  5
276
100
AcDbEntity
  8
handle5
  6
ByLayer
 62
  256
370
   -1
100
AcDbLine
 10
28.76568182914218
 20
-76.23221659311483
 11
31.13586323577135
 21
-76.42517284079298
  0
LINE
  5
277
100
AcDbEntity
  8
handle5
  6
ByLayer
 62
  256
370
   -1
100
AcDbLine
 10
38.85021661643174
 20
-73.4980124108869
 11
36.47979098963947
 21
-73.305034308302
  0
LINE
  5
278
100
AcDbEntity
  8
handle5
  6
ByLayer
 62
  256
370
   -1
100
AcDbLine
 10
36.44201878598938
 20
-70.39545384033187
 11
37.26690774918353
 21
-72.43712566866196
  0
LINE
  5
279
100
AcDbEntity
  8
handle5
  6
ByLayer
 62
  256
370
   -1
100
AcDbLine
 10
36.85191482990734
 20
-68.55204192990192
 11
34.48148836025018
 21
-68.35906174115343
  0
LINE
  5
27A
100
AcDbEntity
  8
handle5
  6
ByLayer
 62
  256
370
   -1
100
AcDbLine
 10
24.49672769159123
 20
-68.50289694654731
 11
37.24543306258528
 21
-69.5260337341827
  0
LINE
  5
27B
100
AcDbEntity
  8
handle5
  6
ByLayer
 62
  256
370
   -1
100
AcDbLine
 10
34.16763401142953
 20
-61.90821376521006
 11
31.79720838463732
 21
-61.71523566262528
  0
LINE
  5
27C
100
AcDbEntity
  8
handle5
  6
ByLayer
 62
  256
370
   -1
100
AcDbLine
 10
22.27038996825213
 20
-4.767196450255085
 11
23.45156117508712
 21
-7.690697775925955
  0
LINE
  5
27D
100
AcDbEntity
  8
handle5
  6
ByLayer
 62
  256
370
   -1
100
AcDbLine
 10
24.64082098017693
 20
-4.960174534174655
 11
22.27038996825213
 21
-4.767196450255085
  0
LINE
  5
27E
100
AcDbEntity
  8
handle5
  6
ByLayer
 62
  256
370
   -1
100
AcDbLine
 10
22.29244226747782
 20
-1.985065189033832
 11
13.83252078678753
 21
-11.57704236016656
  0
LINE
  5
27F
100
AcDbEntity
  8
handle5
  6
ByLayer
 62
  256
370
   -1
100
AcDbLine
 10
15.75945036797143
 20
-10.7985122740307
 11
16.58627505185522
 21
-9.858875842819316
  0
LINE
  5
280
100
AcDbEntity
  8
handle5
  6
ByLayer
 62
  256
370
   -1
100
AcDbLine
 10
17.83376555826912
 20
-9.960434536502191
 11
16.58627505185522
 21
-9.858875842819316
  0
LINE
  5
281
100
AcDbEntity
  8
handle5
  6
ByLayer
 62
  256
370
   -1
100
AcDbLine
 10
17.83376555826912
 20
-9.960434536502191
 11
23.04850288823063
 21
-3.856380891845049
  0
LINE
  5
282
100
AcDbEntity
  8
handle5
  6
ByLayer
 62
  256
370
   -1
100
AcDbLine
 10
22.29244226747782
 20
-1.985065189033832
 11
23.04850288823063
 21
-3.856380891845049
  0
LINE
  5
283
100
AcDbEntity
  8
handle5
  6
ByLayer
 62
  256
370
   -1
100
AcDbLine
 10
17.83376555826912
 20
-9.960434536502191
 11
17.02463938496443
 21
-7.957776982200585
  0
LINE
  5
284
100
AcDbEntity
  8
handle5
  6
ByLayer
 62
  256
370
   -1
100
AcDbLine
 10
17.02463938496443
 20
-7.957776982200585
 11
14.58237356892323
 21
-7.758949239969468
  0
LINE
  5
285
100
AcDbEntity
  8
handle5
  6
ByLayer
 62
  256
370
   -1
100
AcDbLine
 10
15.01009422644482
 20
-8.817595016335773
 11
12.32581415718023
 21
-2.173768706011628
  0
LINE
  5
286
100
AcDbEntity
  8
handle5
  6
ByLayer
 62
  256
370
   -1
100
AcDbLine
 10
10.75472211023843
 20
-3.959223318377895
 11
12.32581415718023
 21
-2.173768706011628
  0
LINE
  5
287
100
AcDbEntity
  8
handle5
  6
ByLayer
 62
  256
370
   -1
100
AcDbLine
 10
22.29244226747782
 20
-1.985065189033832
 11
19.85018109202203
 21
-1.786236920052829
  0
LINE
  5
288
100
AcDbEntity
  8
handle5
  6
ByLayer
 62
  256
370
   -1
100
AcDbLine
 10
18.33668922204723
 20
-0.7062386419401605
 11
19.11144495945112
 21
-2.623826382197364
  0
LINE
  5
289
100
AcDbEntity
  8
handle5
  6
ByLayer
 62
  256
370
   -1
100
AcDbLine
 10
19.85018109202203
 20
-1.786236920052829
 11
14.58237441178802
 21
-7.758951326133129
  0
LINE
  5
28A
100
AcDbEntity
  8
handle5
  6
ByLayer
 62
  256
370
   -1
100
AcDbLine
 10
26.21190833737423
 20
-3.174719659518758
 11
27.39307954420912
 21
-6.098220985189627
  0
LINE
  5
28B
100
AcDbEntity
  8
handle5
  6
ByLayer
 62
  256
370
   -1
100
AcDbLine
 10
24.64082098017693
 20
-4.960174534174655
 11
26.21190833737423
 21
-3.174719659518758
  0
LINE
  5
28C
100
AcDbEntity
  8
handle5
  6
ByLayer
 62
  256
370
   -1
100
AcDbLine
 10
24.26341447252932
 20
-1.188740727800848
 11
37.01211946891675
 21
-2.211876588252266
  0
LINE
  5
28D
100
AcDbEntity
  8
handle5
  6
ByLayer
 62
  256
370
   -1
100
AcDbLine
 10
35.08519058312078
 20
-2.990406393433205
 11
33.83770007670688
 21
-2.888847699750386
  0
LINE
  5
28E
100
AcDbEntity
  8
handle5
  6
ByLayer
 62
  256
370
   -1
100
AcDbLine
 10
33.01087933335441
 20
-3.82848253888369
 11
33.83770007670688
 21
-2.888847699750386
  0
LINE
  5
28F
100
AcDbEntity
  8
handle5
  6
ByLayer
 62
  256
370
   -1
100
AcDbLine
 10
33.01087933335441
 20
-3.82848253888369
 11
25.01947509328222
 21
-3.060056430612064
  0
LINE
  5
290
100
AcDbEntity
  8
handle5
  6
ByLayer
 62
  256
370
   -1
100
AcDbLine
 10
24.26341447252932
 20
-1.188740727800848
 11
25.01947509328222
 21
-3.060056430612064
  0
LINE
  5
291
100
AcDbEntity
  8
handle5
  6
ByLayer
 62
  256
370
   -1
100
AcDbLine
 10
33.01087933335441
 20
-3.82848253888369
 11
32.20175316004969
 21
-1.825824984582084
  0
LINE
  5
292
100
AcDbEntity
  8
handle5
  6
ByLayer
 62
  256
370
   -1
100
AcDbLine
 10
36.59384908583286
 20
-1.235869885580655
 11
34.24817523484001
 21
-1.044905754202887
  0
LINE
  5
293
100
AcDbEntity
  8
handle5
  6
ByLayer
 62
  256
370
   -1
100
AcDbLine
 10
13.43900377158103
 20
-10.60305356923339
 11
15.01009422644482
 21
-8.817595016335773
  0
LINE
  5
294
100
AcDbEntity
  8
handle5
  6
ByLayer
 62
  256
370
   -1
100
AcDbLine
 10
27.76065613560621
 20
-12.68203751220358
 11
15.01511563595632
 21
-11.64440863477762
  0
LINE
  5
295
100
AcDbEntity
  8
handle5
  6
ByLayer
 62
  256
370
   -1
100
AcDbLine
 10
24.59084986635163
 20
-10.51053623792081
 11
23.01992271912263
 21
-12.29580370022094
  0
LINE
  5
296
100
AcDbEntity
  8
handle5
  6
ByLayer
 62
  256
370
   -1
100
AcDbLine
 10
27.36098748339128
 20
-11.69279952754606
 11
24.99054583001323
 21
-11.49981846294309
  0
LINE
  5
297
100
AcDbEntity
  8
handle5
  6
ByLayer
 62
  256
370
   -1
100
AcDbLine
 10
24.99054583001323
 20
-11.49981846294309
 11
23.45156117508712
 21
-7.690697775925955
  0
LINE
  5
298
100
AcDbEntity
  8
handle5
  6
ByLayer
 62
  256
370
   -1
100
AcDbLine
 10
34.78748728120956
 20
-30.07405490186266
 11
25.42232244581173
 21
-6.894458537692927
  0
LINE
  5
299
100
AcDbEntity
  8
handle5
  6
ByLayer
 62
  256
370
   -1
100
AcDbLine
 10
26.95297219864783
 20
-16.35699416874796
 11
29.67312843501549
 21
-23.08961710861996
  0
LINE
  5
29A
100
AcDbEntity
  8
handle5
  6
ByLayer
 62
  256
370
   -1
100
AcDbLine
 10
29.32340321057256
 20
-16.54997225266753
 11
26.95297219864783
 21
-16.35699416874796
  0
LINE
  5
29B
100
AcDbEntity
  8
handle5
  6
ByLayer
 62
  256
370
   -1
100
AcDbLine
 10
26.97502449787332
 20
-13.57486290752672
 11
18.51510339178972
 21
-23.16684100584335
  0
LINE
  5
29C
100
AcDbEntity
  8
handle5
  6
ByLayer
 62
  256
370
   -1
100
AcDbLine
 10
19.69769814730682
 20
-23.23420704865844
 11
21.26885728225092
 21
-21.44867356131227
  0
LINE
  5
29D
100
AcDbEntity
  8
handle5
  6
ByLayer
 62
  256
370
   -1
100
AcDbLine
 10
29.27343247135389
 20
-22.10033488359756
 11
21.26885728225092
 21
-21.44867356131227
  0
LINE
  5
29E
100
AcDbEntity
  8
handle5
  6
ByLayer
 62
  256
370
   -1
100
AcDbLine
 10
22.51634816327133
 20
-21.55023318217895
 11
27.7310854932328
 21
-15.4461795375218
  0
LINE
  5
29F
100
AcDbEntity
  8
handle5
  6
ByLayer
 62
  256
370
   -1
100
AcDbLine
 10
26.97502449787332
 20
-13.57486290752672
 11
27.7310854932328
 21
-15.4461795375218
  0
LINE
  5
2A0
100
AcDbEntity
  8
handle5
  6
ByLayer
 62
  256
370
   -1
100
AcDbLine
 10
22.51634816327133
 20
-21.55023318217895
 11
21.70722114710182
 21
-19.54757354171362
  0
LINE
  5
2A1
100
AcDbEntity
  8
handle5
  6
ByLayer
 62
  256
370
   -1
100
AcDbLine
 10
24.59084986635163
 20
-10.51053623792081
 11
17.83376555826912
 21
-9.960434536502191
  0
LINE
  5
2A2
100
AcDbEntity
  8
handle5
  6
ByLayer
 62
  256
370
   -1
100
AcDbLine
 10
15.01511563595632
 20
-11.64440863477762
 11
15.75945036797143
 21
-10.7985122740307
  0
LINE
  5
2A3
100
AcDbEntity
  8
handle5
  6
ByLayer
 62
  256
370
   -1
100
AcDbLine
 10
21.70722114710182
 20
-19.54757354171362
 11
19.26495579931883
 21
-19.34874695846237
  0
LINE
  5
2A4
100
AcDbEntity
  8
handle5
  6
ByLayer
 62
  256
370
   -1
100
AcDbLine
 10
18.13799496132262
 20
-22.1742027162731
 11
19.69267636318872
 21
-20.40739250303273
  0
LINE
  5
2A5
100
AcDbEntity
  8
handle5
  6
ByLayer
 62
  256
370
   -1
100
AcDbLine
 10
19.69267636318872
 20
-20.40739250303273
 11
17.00839620027253
 21
-13.76356596091267
  0
LINE
  5
2A6
100
AcDbEntity
  8
handle5
  6
ByLayer
 62
  256
370
   -1
100
AcDbLine
 10
26.97502449787332
 20
-13.57486290752672
 11
24.53276332241772
 21
-13.3760346385458
  0
LINE
  5
2A7
100
AcDbEntity
  8
handle5
  6
ByLayer
 62
  256
370
   -1
100
AcDbLine
 10
23.01927145244282
 20
-12.2960363604331
 11
23.79402756445333
 21
-14.21362502787406
  0
LINE
  5
2A8
100
AcDbEntity
  8
handle5
  6
ByLayer
 62
  256
370
   -1
100
AcDbLine
 10
24.53276332241772
 20
-13.3760346385458
 11
19.26495664218362
 21
-19.34874904462601
  0
LINE
  5
2A9
100
AcDbEntity
  8
handle5
  6
ByLayer
 62
  256
370
   -1
100
AcDbLine
 10
15.83928826486712
 20
-13.68602394092585
 11
23.79402756445333
 21
-14.21362502787406
  0
LINE
  5
2AA
100
AcDbEntity
  8
handle5
  6
ByLayer
 62
  256
370
   -1
100
AcDbLine
 10
15.01439939532453
 20
-11.64435234439174
 11
15.83928826486712
 21
-13.68602394092585
  0
LINE
  5
2AB
100
AcDbEntity
  8
handle5
  6
ByLayer
 62
  256
370
   -1
100
AcDbLine
 10
27.76065613560621
 20
-12.68203751220358
 11
36.20823310869872
 21
-3.081833368584398
  0
LINE
  5
2AC
100
AcDbEntity
  8
handle5
  6
ByLayer
 62
  256
370
   -1
100
AcDbLine
 10
28.53236823547371
 20
-8.918059447184532
 11
30.90254964210294
 21
-9.111015694862544
  0
LINE
  5
2AD
100
AcDbEntity
  8
handle5
  6
ByLayer
 62
  256
370
   -1
100
AcDbLine
 10
27.36096708534643
 20
-11.6928077688911
 11
28.93206419913531
 21
-9.907341672206769
  0
LINE
  5
2AE
100
AcDbEntity
  8
handle5
  6
ByLayer
 62
  256
370
   -1
100
AcDbLine
 10
28.93206419913531
 20
-9.907341672206769
 11
27.39307954420912
 21
-6.098220985189627
  0
LINE
  5
2AF
100
AcDbEntity
  8
handle5
  6
ByLayer
 62
  256
370
   -1
100
AcDbLine
 10
30.89449056776982
 20
-14.76451737801171
 11
33.61464680413752
 21
-21.49714031788364
  0
LINE
  5
2B0
100
AcDbEntity
  8
handle5
  6
ByLayer
 62
  256
370
   -1
100
AcDbLine
 10
29.32340321057256
 20
-16.54997225266753
 11
30.89449056776982
 21
-14.76451737801171
  0
LINE
  5
2B1
100
AcDbEntity
  8
handle5
  6
ByLayer
 62
  256
370
   -1
100
AcDbLine
 10
40.89081608830742
 20
-14.67163294144501
 11
38.52028230710249
 21
-14.47864541824327
  0
LINE
  5
2B2
100
AcDbEntity
  8
handle5
  6
ByLayer
 62
  256
370
   -1
100
AcDbLine
 10
33.21495084047592
 20
-20.50785809286127
 11
38.52028230710249
 21
-14.47864541824327
  0
LINE
  5
2B3
100
AcDbEntity
  8
handle5
  6
ByLayer
 62
  256
370
   -1
100
AcDbLine
 10
37.69346193835668
 20
-15.4182811845605
 11
29.70205769828442
 21
-14.64985507628881
  0
LINE
  5
2B4
100
AcDbEntity
  8
handle5
  6
ByLayer
 62
  256
370
   -1
100
AcDbLine
 10
28.94599670292496
 20
-12.77853844629372
 11
29.70205769828442
 21
-14.64985507628881
  0
LINE
  5
2B5
100
AcDbEntity
  8
handle5
  6
ByLayer
 62
  256
370
   -1
100
AcDbLine
 10
37.69346193835668
 20
-15.4182811845605
 11
36.88433492218707
 21
-13.4156215440952
  0
LINE
  5
2B6
100
AcDbEntity
  8
handle5
  6
ByLayer
 62
  256
370
   -1
100
AcDbLine
 10
28.53236823547371
 20
-8.918059447184532
 11
33.01087933335441
 21
-3.82848253888369
  0
LINE
  5
2B7
100
AcDbEntity
  8
handle5
  6
ByLayer
 62
  256
370
   -1
100
AcDbLine
 10
36.20823310869872
 20
-3.081833368584398
 11
35.08519058312078
 21
-2.990406393433205
  0
LINE
  5
2B8
100
AcDbEntity
  8
handle5
  6
ByLayer
 62
  256
370
   -1
100
AcDbLine
 10
36.88433492218707
 20
-13.4156215440952
 11
38.50303680771395
 21
-11.57605769632943
  0
LINE
  5
2B9
100
AcDbEntity
  8
handle5
  6
ByLayer
 62
  256
370
   -1
100
AcDbLine
 10
38.93075737158392
 20
-12.63470324089986
 11
36.246477395971
 21
-5.990877162371646
  0
LINE
  5
2BA
100
AcDbEntity
  8
handle5
  6
ByLayer
 62
  256
370
   -1
100
AcDbLine
 10
28.94599670292496
 20
-12.77853844629372
 11
30.56469464792053
 21
-10.938976190606
  0
LINE
  5
2BB
100
AcDbEntity
  8
handle5
  6
ByLayer
 62
  256
370
   -1
100
AcDbLine
 10
30.90317974351018
 20
-9.110730648762626
 11
31.67793585552062
 21
-11.02831931620366
  0
LINE
  5
2BC
100
AcDbEntity
  8
handle5
  6
ByLayer
 62
  256
370
   -1
100
AcDbLine
 10
30.56469464792053
 20
-10.938976190606
 11
38.50303765057879
 21
-11.57605978249308
  0
LINE
  5
2BD
100
AcDbEntity
  8
handle5
  6
ByLayer
 62
  256
370
   -1
100
AcDbLine
 10
37.03359415551506
 20
-5.122968522731526
 11
31.67793585552062
 21
-11.02831931620366
  0
LINE
  5
2BE
100
AcDbEntity
  8
handle5
  6
ByLayer
 62
  256
370
   -1
100
AcDbLine
 10
36.2087052859726
 20
-3.081296926197467
 11
37.03359415551506
 21
-5.122968522731526
  0
LINE
  5
2BF
100
AcDbEntity
  8
handle5
  6
ByLayer
 62
  256
370
   -1
100
AcDbLine
 10
32.44323874060836
 20
-24.27183615788034
 11
19.69769814730682
 21
-23.23420704865844
  0
LINE
  5
2C0
100
AcDbEntity
  8
handle5
  6
ByLayer
 62
  256
370
   -1
100
AcDbLine
 10
29.27343247135389
 20
-22.10033488359756
 11
27.70250532412473
 21
-23.88560234589766
  0
LINE
  5
2C1
100
AcDbEntity
  8
handle5
  6
ByLayer
 62
  256
370
   -1
100
AcDbLine
 10
32.04357008839344
 20
-23.28259817322283
 11
29.67312843501549
 21
-23.08961710861996
  0
LINE
  5
2C2
100
AcDbEntity
  8
handle5
  6
ByLayer
 62
  256
370
   -1
100
AcDbLine
 10
31.63555480365
 20
-27.94679281442479
 11
32.8167260104849
 21
-30.87029414009566
  0
LINE
  5
2C3
100
AcDbEntity
  8
handle5
  6
ByLayer
 62
  256
370
   -1
100
AcDbLine
 10
34.00598581557472
 20
-28.13977089834429
 11
31.63555480365
 21
-27.94679281442479
  0
LINE
  5
2C4
100
AcDbEntity
  8
handle5
  6
ByLayer
 62
  256
370
   -1
100
AcDbLine
 10
31.65760710287555
 20
-25.16466155320353
 11
23.19768562218522
 21
-34.75663872433626
  0
LINE
  5
2C5
100
AcDbEntity
  8
handle5
  6
ByLayer
 62
  256
370
   -1
100
AcDbLine
 10
25.12461520336913
 20
-33.97810863820041
 11
25.95143988725303
 21
-33.03847220698901
  0
LINE
  5
2C6
100
AcDbEntity
  8
handle5
  6
ByLayer
 62
  256
370
   -1
100
AcDbLine
 10
27.19893039366696
 20
-33.14003090067189
 11
25.95143988725303
 21
-33.03847220698901
  0
LINE
  5
2C7
100
AcDbEntity
  8
handle5
  6
ByLayer
 62
  256
370
   -1
100
AcDbLine
 10
27.19893039366696
 20
-33.14003090067189
 11
32.41366772362841
 21
-27.03597725601474
  0
LINE
  5
2C8
100
AcDbEntity
  8
handle5
  6
ByLayer
 62
  256
370
   -1
100
AcDbLine
 10
31.65760710287555
 20
-25.16466155320353
 11
32.41366772362841
 21
-27.03597725601474
  0
LINE
  5
2C9
100
AcDbEntity
  8
handle5
  6
ByLayer
 62
  256
370
   -1
100
AcDbLine
 10
27.19893039366696
 20
-33.14003090067189
 11
26.38980422036222
 21
-31.13737334637022
  0
LINE
  5
2CA
100
AcDbEntity
  8
handle5
  6
ByLayer
 62
  256
370
   -1
100
AcDbLine
 10
26.38980422036222
 20
-31.13737334637022
 11
23.94753840432102
 21
-30.93854560413917
  0
LINE
  5
2CB
100
AcDbEntity
  8
handle5
  6
ByLayer
 62
  256
370
   -1
100
AcDbLine
 10
24.37525906184263
 20
-31.99719138050545
 11
21.69097899257802
 21
-25.35336507018132
  0
LINE
  5
2CC
100
AcDbEntity
  8
handle5
  6
ByLayer
 62
  256
370
   -1
100
AcDbLine
 10
20.11988694563622
 20
-27.13881968254754
 11
21.69097899257802
 21
-25.35336507018132
  0
LINE
  5
2CD
100
AcDbEntity
  8
handle5
  6
ByLayer
 62
  256
370
   -1
100
AcDbLine
 10
31.65760710287555
 20
-25.16466155320353
 11
29.21534592741989
 21
-24.96583328422252
  0
LINE
  5
2CE
100
AcDbEntity
  8
handle5
  6
ByLayer
 62
  256
370
   -1
100
AcDbLine
 10
27.70185405744502
 20
-23.88583500610985
 11
28.47660979484891
 21
-25.80342274636707
  0
LINE
  5
2CF
100
AcDbEntity
  8
handle5
  6
ByLayer
 62
  256
370
   -1
100
AcDbLine
 10
29.21534592741989
 20
-24.96583328422252
 11
23.94753924718583
 21
-30.93854769030275
  0
LINE
  5
2D0
100
AcDbEntity
  8
handle5
  6
ByLayer
 62
  256
370
   -1
100
AcDbLine
 10
20.52187086986923
 20
-25.2758225866026
 11
28.47660979484891
 21
-25.80342274636707
  0
LINE
  5
2D1
100
AcDbEntity
  8
handle5
  6
ByLayer
 62
  256
370
   -1
100
AcDbLine
 10
19.69698190667522
 20
-23.23415075827257
 11
20.52187086986923
 21
-25.2758225866026
  0
LINE
  5
2D2
100
AcDbEntity
  8
handle5
  6
ByLayer
 62
  256
370
   -1
100
AcDbLine
 10
32.44323874060836
 20
-24.27183615788034
 11
40.89081562004918
 21
-14.67163178246522
  0
LINE
  5
2D3
100
AcDbEntity
  8
handle5
  6
ByLayer
 62
  256
370
   -1
100
AcDbLine
 10
33.21495084047592
 20
-20.50785809286127
 11
35.58513224710509
 21
-20.70081434053928
  0
LINE
  5
2D4
100
AcDbEntity
  8
handle5
  6
ByLayer
 62
  256
370
   -1
100
AcDbLine
 10
32.0435496903487
 20
-23.28260641456791
 11
33.61464680413752
 21
-21.49714031788364
  0
LINE
  5
2D5
100
AcDbEntity
  8
handle5
  6
ByLayer
 62
  256
370
   -1
100
AcDbLine
 10
35.57707317277203
 20
-26.35431602368846
 11
36.75824437960694
 21
-29.27781734935934
  0
LINE
  5
2D6
100
AcDbEntity
  8
handle5
  6
ByLayer
 62
  256
370
   -1
100
AcDbLine
 10
34.00598581557472
 20
-28.13977089834429
 11
35.57707317277203
 21
-26.35431602368846
  0
LINE
  5
2D7
100
AcDbEntity
  8
handle5
  6
ByLayer
 62
  256
370
   -1
100
AcDbLine
 10
33.62857930792711
 20
-24.36833709197049
 11
46.37728430431463
 21
-25.39147295242202
  0
LINE
  5
2D8
100
AcDbEntity
  8
handle5
  6
ByLayer
 62
  256
370
   -1
100
AcDbLine
 10
44.4503554185186
 20
-26.17000275760292
 11
43.2028649121047
 21
-26.06844406392002
  0
LINE
  5
2D9
100
AcDbEntity
  8
handle5
  6
ByLayer
 62
  256
370
   -1
100
AcDbLine
 10
42.37604416875223
 20
-27.0080789030534
 11
43.2028649121047
 21
-26.06844406392002
  0
LINE
  5
2DA
100
AcDbEntity
  8
handle5
  6
ByLayer
 62
  256
370
   -1
100
AcDbLine
 10
42.37604416875223
 20
-27.0080789030534
 11
34.38463992868003
 21
-26.23965279478176
  0
LINE
  5
2DB
100
AcDbEntity
  8
handle5
  6
ByLayer
 62
  256
370
   -1
100
AcDbLine
 10
33.62857930792711
 20
-24.36833709197049
 11
34.38463992868003
 21
-26.23965279478176
  0
LINE
  5
2DC
100
AcDbEntity
  8
handle5
  6
ByLayer
 62
  256
370
   -1
100
AcDbLine
 10
42.37604416875223
 20
-27.0080789030534
 11
41.56691799544745
 21
-25.00542134875178
  0
LINE
  5
2DD
100
AcDbEntity
  8
handle5
  6
ByLayer
 62
  256
370
   -1
100
AcDbLine
 10
41.56691799544745
 20
-25.00542134875178
 11
43.18561941271622
 21
-23.16585634200623
  0
LINE
  5
2DE
100
AcDbEntity
  8
handle5
  6
ByLayer
 62
  256
370
   -1
100
AcDbLine
 10
45.95901392123062
 20
-24.41546624975029
 11
43.61334007023777
 21
-24.22450211837252
  0
LINE
  5
2DF
100
AcDbEntity
  8
handle5
  6
ByLayer
 62
  256
370
   -1
100
AcDbLine
 10
43.61334007023777
 20
-24.22450211837252
 11
40.92906000097321
 21
-17.58067580804846
  0
LINE
  5
2E0
100
AcDbEntity
  8
handle5
  6
ByLayer
 62
  256
370
   -1
100
AcDbLine
 10
43.29948562776553
 20
-17.77365391063323
 11
40.92906000097321
 21
-17.58067580804846
  0
LINE
  5
2E1
100
AcDbEntity
  8
handle5
  6
ByLayer
 62
  256
370
   -1
100
AcDbLine
 10
33.62857930792711
 20
-24.36833709197049
 11
35.24727725292269
 21
-22.52877483628277
  0
LINE
  5
2E2
100
AcDbEntity
  8
handle5
  6
ByLayer
 62
  256
370
   -1
100
AcDbLine
 10
35.58576234851239
 20
-20.70052929443937
 11
36.36051808591623
 21
-22.61811703469658
  0
LINE
  5
2E3
100
AcDbEntity
  8
handle5
  6
ByLayer
 62
  256
370
   -1
100
AcDbLine
 10
35.24727725292269
 20
-22.52877483628277
 11
43.185620255581
 21
-23.16585842816984
  0
LINE
  5
2E4
100
AcDbEntity
  8
handle5
  6
ByLayer
 62
  256
370
   -1
100
AcDbLine
 10
41.71617676051721
 20
-16.71276716840829
 11
36.36051808591623
 21
-22.61811703469658
  0
LINE
  5
2E5
100
AcDbEntity
  8
handle5
  6
ByLayer
 62
  256
370
   -1
100
AcDbLine
 10
40.89128779732312
 20
-14.67109534007824
 11
41.71617676051721
 21
-16.71276716840829
  0
LINE
  5
2E6
100
AcDbEntity
  8
handle5
  6
ByLayer
 62
  256
370
   -1
100
AcDbLine
 10
23.19768562218522
 20
-34.75663872433626
 11
13.83252078678753
 21
-11.57704236016656
  0
LINE
  5
2E7
100
AcDbEntity
  8
handle5
  6
ByLayer
 62
  256
370
   -1
100
AcDbLine
 10
41.30118384124108
 20
-12.82768342964829
 11
38.93075737158392
 21
-12.63470324089986
  0
LINE
  5
2E8
100
AcDbEntity
  8
handle5
  6
ByLayer
 62
  256
370
   -1
100
AcDbLine
 10
28.94599670292496
 20
-12.77853844629372
 11
41.69470207391902
 21
-13.80167523392905
  0
LINE
  5
2E9
100
AcDbEntity
  8
handle5
  6
ByLayer
 62
  256
370
   -1
100
AcDbLine
 10
38.61690302276327
 20
-6.183855264956492
 11
36.246477395971
 21
-5.990877162371646
  0
LINE
  5
2EA
100
AcDbEntity
  8
handle5
  6
ByLayer
 62
  256
370
   -1
100
AcDbLine
 10
22.80416860697882
 20
-33.78264993340304
 11
24.37525906184263
 21
-31.99719138050545
  0
LINE
  5
2EB
100
AcDbEntity
  8
handle5
  6
ByLayer
 62
  256
370
   -1
100
AcDbLine
 10
15.43730443428562
 20
-15.54902126866672
 11
17.00839620027253
 21
-13.76356596091267
  0
LINE
  5
2EC
100
AcDbEntity
  8
handle5
  6
ByLayer
 62
  256
370
   -1
100
AcDbLine
 10
37.12582097100398
 20
-35.86163387637322
 11
24.38028047135403
 21
-34.82400499894726
  0
LINE
  5
2ED
100
AcDbEntity
  8
handle5
  6
ByLayer
 62
  256
370
   -1
100
AcDbLine
 10
33.95601470174944
 20
-33.69013260209044
 11
32.3850875545204
 21
-35.47540006439061
  0
LINE
  5
2EE
100
AcDbEntity
  8
handle5
  6
ByLayer
 62
  256
370
   -1
100
AcDbLine
 10
36.72615231878905
 20
-34.87239589171571
 11
34.35571066541104
 21
-34.67941482711279
  0
LINE
  5
2EF
100
AcDbEntity
  8
handle5
  6
ByLayer
 62
  256
370
   -1
100
AcDbLine
 10
34.35571066541104
 20
-34.67941482711279
 11
32.8167260104849
 21
-30.87029414009566
  0
LINE
  5
2F0
100
AcDbEntity
  8
handle5
  6
ByLayer
 62
  256
370
   -1
100
AcDbLine
 10
44.15265211660738
 20
-53.25365126603236
 11
34.78748728120956
 21
-30.07405490186266
  0
LINE
  5
2F1
100
AcDbEntity
  8
handle5
  6
ByLayer
 62
  256
370
   -1
100
AcDbLine
 10
36.31813703404561
 20
-39.53659053291761
 11
39.03829327041325
 21
-46.26921347278966
  0
LINE
  5
2F2
100
AcDbEntity
  8
handle5
  6
ByLayer
 62
  256
370
   -1
100
AcDbLine
 10
38.68856804597033
 20
-39.72956861683718
 11
36.31813703404561
 21
-39.53659053291761
  0
LINE
  5
2F3
100
AcDbEntity
  8
handle5
  6
ByLayer
 62
  256
370
   -1
100
AcDbLine
 10
36.34018933327116
 20
-36.75445927169636
 11
27.88026822718746
 21
-46.34643737001301
  0
LINE
  5
2F4
100
AcDbEntity
  8
handle5
  6
ByLayer
 62
  256
370
   -1
100
AcDbLine
 10
29.06286298270464
 20
-46.41380341282814
 11
30.63402211764867
 21
-44.6282699254819
  0
LINE
  5
2F5
100
AcDbEntity
  8
handle5
  6
ByLayer
 62
  256
370
   -1
100
AcDbLine
 10
38.63859730675171
 20
-45.27993124776725
 11
30.63402211764867
 21
-44.6282699254819
  0
LINE
  5
2F6
100
AcDbEntity
  8
handle5
  6
ByLayer
 62
  256
370
   -1
100
AcDbLine
 10
31.88151299866911
 20
-44.72982954634864
 11
37.09625032863062
 21
-38.6257759016915
  0
LINE
  5
2F7
100
AcDbEntity
  8
handle5
  6
ByLayer
 62
  256
370
   -1
100
AcDbLine
 10
36.34018933327116
 20
-36.75445927169636
 11
37.09625032863062
 21
-38.6257759016915
  0
LINE
  5
2F8
100
AcDbEntity
  8
handle5
  6
ByLayer
 62
  256
370
   -1
100
AcDbLine
 10
31.88151299866911
 20
-44.72982954634864
 11
31.07238598249955
 21
-42.72716990588327
  0
LINE
  5
2F9
100
AcDbEntity
  8
handle5
  6
ByLayer
 62
  256
370
   -1
100
AcDbLine
 10
33.95601470174944
 20
-33.69013260209044
 11
27.19893039366696
 21
-33.14003090067189
  0
LINE
  5
2FA
100
AcDbEntity
  8
handle5
  6
ByLayer
 62
  256
370
   -1
100
AcDbLine
 10
24.38028047135403
 20
-34.82400499894726
 11
25.12461520336913
 21
-33.97810863820041
  0
LINE
  5
2FB
100
AcDbEntity
  8
handle5
  6
ByLayer
 62
  256
370
   -1
100
AcDbLine
 10
31.07238598249955
 20
-42.72716990588327
 11
28.6301206347166
 21
-42.528343322632
  0
LINE
  5
2FC
100
AcDbEntity
  8
handle5
  6
ByLayer
 62
  256
370
   -1
100
AcDbLine
 10
27.50315979672035
 20
-45.3537990804428
 11
29.05784119858657
 21
-43.58698886720236
  0
LINE
  5
2FD
100
AcDbEntity
  8
handle5
  6
ByLayer
 62
  256
370
   -1
100
AcDbLine
 10
29.05784119858657
 20
-43.58698886720236
 11
26.37356103567032
 21
-36.94316232508226
  0
LINE
  5
2FE
100
AcDbEntity
  8
handle5
  6
ByLayer
 62
  256
370
   -1
100
AcDbLine
 10
36.34018933327116
 20
-36.75445927169636
 11
33.8979281578155
 21
-36.55563100271542
  0
LINE
  5
2FF
100
AcDbEntity
  8
handle5
  6
ByLayer
 62
  256
370
   -1
100
AcDbLine
 10
32.38443628784063
 20
-35.4756327246028
 11
33.15919239985112
 21
-37.39322139204381
  0
LINE
  5
300
100
AcDbEntity
  8
handle5
  6
ByLayer
 62
  256
370
   -1
100
AcDbLine
 10
33.8979281578155
 20
-36.55563100271542
 11
28.63012147758144
 21
-42.5283454087957
  0
LINE
  5
301
100
AcDbEntity
  8
handle5
  6
ByLayer
 62
  256
370
   -1
100
AcDbLine
 10
25.20445310026493
 20
-36.86562030509555
 11
33.15919239985112
 21
-37.39322139204381
  0
LINE
  5
302
100
AcDbEntity
  8
handle5
  6
ByLayer
 62
  256
370
   -1
100
AcDbLine
 10
24.37956423072242
 20
-34.82394870856143
 11
25.20445310026493
 21
-36.86562030509555
  0
LINE
  5
303
100
AcDbEntity
  8
handle5
  6
ByLayer
 62
  256
370
   -1
100
AcDbLine
 10
37.12582097100398
 20
-35.86163387637322
 11
45.57339794409648
 21
-26.26142973275409
  0
LINE
  5
304
100
AcDbEntity
  8
handle5
  6
ByLayer
 62
  256
370
   -1
100
AcDbLine
 10
37.89753307087148
 20
-32.09765581135417
 11
40.26771447750076
 21
-32.29061205903224
  0
LINE
  5
305
100
AcDbEntity
  8
handle5
  6
ByLayer
 62
  256
370
   -1
100
AcDbLine
 10
36.72613192074425
 20
-34.8724041330608
 11
38.29722903453307
 21
-33.08693803637652
  0
LINE
  5
306
100
AcDbEntity
  8
handle5
  6
ByLayer
 62
  256
370
   -1
100
AcDbLine
 10
38.29722903453307
 20
-33.08693803637652
 11
36.75824437960694
 21
-29.27781734935934
  0
LINE
  5
307
100
AcDbEntity
  8
handle5
  6
ByLayer
 62
  256
370
   -1
100
AcDbLine
 10
40.25965540316764
 20
-37.9441137421814
 11
42.97981163953528
 21
-44.67673668205333
  0
LINE
  5
308
100
AcDbEntity
  8
handle5
  6
ByLayer
 62
  256
370
   -1
100
AcDbLine
 10
38.68856804597033
 20
-39.72956861683718
 11
40.25965540316764
 21
-37.9441137421814
  0
LINE
  5
309
100
AcDbEntity
  8
handle5
  6
ByLayer
 62
  256
370
   -1
100
AcDbLine
 10
42.58011567587369
 20
-43.68745445703092
 11
47.88544714250031
 21
-37.65824178241297
  0
LINE
  5
30A
100
AcDbEntity
  8
handle5
  6
ByLayer
 62
  256
370
   -1
100
AcDbLine
 10
47.05862677375444
 20
-38.5978775487302
 11
39.06722253368224
 21
-37.82945144045851
  0
LINE
  5
30B
100
AcDbEntity
  8
handle5
  6
ByLayer
 62
  256
370
   -1
100
AcDbLine
 10
38.31116153832278
 20
-35.95813481046338
 11
39.06722253368224
 21
-37.82945144045851
  0
LINE
  5
30C
100
AcDbEntity
  8
handle5
  6
ByLayer
 62
  256
370
   -1
100
AcDbLine
 10
47.05862677375444
 20
-38.5978775487302
 11
46.24949975758483
 21
-36.59521790826483
  0
LINE
  5
30D
100
AcDbEntity
  8
handle5
  6
ByLayer
 62
  256
370
   -1
100
AcDbLine
 10
37.89753307087148
 20
-32.09765581135417
 11
42.37604416875223
 21
-27.0080789030534
  0
LINE
  5
30E
100
AcDbEntity
  8
handle5
  6
ByLayer
 62
  256
370
   -1
100
AcDbLine
 10
45.57339794409648
 20
-26.26142973275409
 11
44.4503554185186
 21
-26.17000275760292
  0
LINE
  5
30F
100
AcDbEntity
  8
handle5
  6
ByLayer
 62
  256
370
   -1
100
AcDbLine
 10
46.24949975758483
 20
-36.59521790826483
 11
47.86820164311172
 21
-34.75565406049913
  0
LINE
  5
310
100
AcDbEntity
  8
handle5
  6
ByLayer
 62
  256
370
   -1
100
AcDbLine
 10
48.29592220698174
 20
-35.81429960506949
 11
45.61164223136882
 21
-29.17047352654135
  0
LINE
  5
311
100
AcDbEntity
  8
handle5
  6
ByLayer
 62
  256
370
   -1
100
AcDbLine
 10
38.31116153832278
 20
-35.95813481046338
 11
39.9298594833183
 21
-34.11857255477565
  0
LINE
  5
312
100
AcDbEntity
  8
handle5
  6
ByLayer
 62
  256
370
   -1
100
AcDbLine
 10
40.26834457890794
 20
-32.29032701293232
 11
41.04310069091844
 21
-34.20791568037333
  0
LINE
  5
313
100
AcDbEntity
  8
handle5
  6
ByLayer
 62
  256
370
   -1
100
AcDbLine
 10
39.9298594833183
 20
-34.11857255477565
 11
47.86820248597661
 21
-34.75565614666283
  0
LINE
  5
314
100
AcDbEntity
  8
handle5
  6
ByLayer
 62
  256
370
   -1
100
AcDbLine
 10
46.39875899091282
 20
-28.30256488690116
 11
41.04310069091844
 21
-34.20791568037333
  0
LINE
  5
315
100
AcDbEntity
  8
handle5
  6
ByLayer
 62
  256
370
   -1
100
AcDbLine
 10
45.57387012137036
 20
-26.26089329036717
 11
46.39875899091282
 21
-28.30256488690116
  0
LINE
  5
316
100
AcDbEntity
  8
handle5
  6
ByLayer
 62
  256
370
   -1
100
AcDbLine
 10
41.80840357600619
 20
-47.45143252204997
 11
29.06286298270464
 21
-46.41380341282814
  0
LINE
  5
317
100
AcDbEntity
  8
handle5
  6
ByLayer
 62
  256
370
   -1
100
AcDbLine
 10
38.63859730675171
 20
-45.27993124776725
 11
37.06767015952255
 21
-47.06519871006736
  0
LINE
  5
318
100
AcDbEntity
  8
handle5
  6
ByLayer
 62
  256
370
   -1
100
AcDbLine
 10
41.4087349237912
 20
-46.46219453739246
 11
39.03829327041325
 21
-46.26921347278966
  0
LINE
  5
319
100
AcDbEntity
  8
handle5
  6
ByLayer
 62
  256
370
   -1
100
AcDbLine
 10
41.00071963904782
 20
-51.12638917859448
 11
42.18189084588272
 21
-54.04989050426531
  0
LINE
  5
31A
100
AcDbEntity
  8
handle5
  6
ByLayer
 62
  256
370
   -1
100
AcDbLine
 10
43.37115065097248
 20
-51.31936726251394
 11
41.00071963904782
 21
-51.12638917859448
  0
LINE
  5
31B
100
AcDbEntity
  8
handle5
  6
ByLayer
 62
  256
370
   -1
100
AcDbLine
 10
41.02277193827331
 20
-48.34425791737323
 11
32.56285045758301
 21
-57.93623508850595
  0
LINE
  5
31C
100
AcDbEntity
  8
handle5
  6
ByLayer
 62
  256
370
   -1
100
AcDbLine
 10
34.48978003876698
 20
-57.15770500237005
 11
35.31660472265088
 21
-56.21806857115865
  0
LINE
  5
31D
100
AcDbEntity
  8
handle5
  6
ByLayer
 62
  256
370
   -1
100
AcDbLine
 10
36.56409522906472
 20
-56.31962726484147
 11
35.31660472265088
 21
-56.21806857115865
  0
LINE
  5
31E
100
AcDbEntity
  8
handle5
  6
ByLayer
 62
  256
370
   -1
100
AcDbLine
 10
36.56409522906472
 20
-56.31962726484147
 11
41.77883255902617
 21
-50.21557362018433
  0
LINE
  5
31F
100
AcDbEntity
  8
handle5
  6
ByLayer
 62
  256
370
   -1
100
AcDbLine
 10
41.02277193827331
 20
-48.34425791737323
 11
41.77883255902617
 21
-50.21557362018433
  0
LINE
  5
320
100
AcDbEntity
  8
handle5
  6
ByLayer
 62
  256
370
   -1
100
AcDbLine
 10
36.56409522906472
 20
-56.31962726484147
 11
35.75496905576
 21
-54.31696971053992
  0
LINE
  5
321
100
AcDbEntity
  8
handle5
  6
ByLayer
 62
  256
370
   -1
100
AcDbLine
 10
35.75496905576
 20
-54.31696971053992
 11
33.31270323971876
 21
-54.11814196830875
  0
LINE
  5
322
100
AcDbEntity
  8
handle5
  6
ByLayer
 62
  256
370
   -1
100
AcDbLine
 10
33.74042389724042
 20
-55.1767877446751
 11
31.05614382797586
 21
-48.53296143435108
  0
LINE
  5
323
100
AcDbEntity
  8
handle5
  6
ByLayer
 62
  256
370
   -1
100
AcDbLine
 10
29.48505178103397
 20
-50.31841604671723
 11
31.05614382797586
 21
-48.53296143435108
  0
LINE
  5
324
100
AcDbEntity
  8
handle5
  6
ByLayer
 62
  256
370
   -1
100
AcDbLine
 10
41.02277193827331
 20
-48.34425791737323
 11
38.58051076281777
 21
-48.14542964839228
  0
LINE
  5
325
100
AcDbEntity
  8
handle5
  6
ByLayer
 62
  256
370
   -1
100
AcDbLine
 10
37.06701889284284
 20
-47.06543137027955
 11
37.84177463024668
 21
-48.98301911053676
  0
LINE
  5
326
100
AcDbEntity
  8
handle5
  6
ByLayer
 62
  256
370
   -1
100
AcDbLine
 10
38.58051076281777
 20
-48.14542964839228
 11
33.31270408258359
 21
-54.11814405447245
  0
LINE
  5
327
100
AcDbEntity
  8
handle5
  6
ByLayer
 62
  256
370
   -1
100
AcDbLine
 10
29.88703570526707
 20
-48.4554189507723
 11
37.84177463024668
 21
-48.98301911053676
  0
LINE
  5
328
100
AcDbEntity
  8
handle5
  6
ByLayer
 62
  256
370
   -1
100
AcDbLine
 10
29.06214674207297
 20
-46.4137471224422
 11
29.88703570526707
 21
-48.4554189507723
  0
LINE
  5
329
100
AcDbEntity
  8
handle5
  6
ByLayer
 62
  256
370
   -1
100
AcDbLine
 10
42.58011567587369
 20
-43.68745445703092
 11
44.95029708250291
 21
-43.88041070470894
  0
LINE
  5
32A
100
AcDbEntity
  8
handle5
  6
ByLayer
 62
  256
370
   -1
100
AcDbLine
 10
41.4087145257464
 20
-46.46220277873755
 11
42.97981163953528
 21
-44.67673668205333
  0
LINE
  5
32B
100
AcDbEntity
  8
handle5
  6
ByLayer
 62
  256
370
   -1
100
AcDbLine
 10
44.94223800816985
 20
-49.53391238785815
 11
46.1234092150047
 21
-52.45741371352898
  0
LINE
  5
32C
100
AcDbEntity
  8
handle5
  6
ByLayer
 62
  256
370
   -1
100
AcDbLine
 10
43.37115065097248
 20
-51.31936726251394
 11
44.94223800816985
 21
-49.53391238785815
  0
LINE
  5
32D
100
AcDbEntity
  8
handle5
  6
ByLayer
 62
  256
370
   -1
100
AcDbLine
 10
42.99374414332493
 20
-47.54793345614013
 11
43.74980476407785
 21
-49.41924915895135
  0
LINE
  5
32E
100
AcDbEntity
  8
handle5
  6
ByLayer
 62
  256
370
   -1
100
AcDbLine
 10
42.99374414332493
 20
-47.54793345614013
 11
44.61244208832051
 21
-45.70837120045252
  0
LINE
  5
32F
100
AcDbEntity
  8
handle5
  6
ByLayer
 62
  256
370
   -1
100
AcDbLine
 10
44.95092718391015
 20
-43.88012565860907
 11
45.72568292131399
 21
-45.79771339886628
  0
LINE
  5
330
100
AcDbEntity
  8
handle5
  6
ByLayer
 62
  256
370
   -1
100
AcDbLine
 10
32.56285045758301
 20
-57.93623508850595
 11
23.19768562218522
 21
-34.75663872433626
  0
LINE
  5
331
100
AcDbEntity
  8
handle5
  6
ByLayer
 62
  256
370
   -1
100
AcDbLine
 10
47.98206785816114
 20
-29.36345162912619
 11
45.61164223136882
 21
-29.17047352654135
  0
LINE
  5
332
100
AcDbEntity
  8
handle5
  6
ByLayer
 62
  256
370
   -1
100
AcDbLine
 10
32.16933344237657
 20
-56.96224629757268
 11
33.74042389724042
 21
-55.1767877446751
  0
LINE
  5
333
100
AcDbEntity
  8
handle5
  6
ByLayer
 62
  256
370
   -1
100
AcDbLine
 10
24.80246926968343
 20
-38.72861763283646
 11
26.37356103567032
 21
-36.94316232508226
  0
LINE
  5
334
100
AcDbEntity
  8
handle5
  6
ByLayer
 62
  256
370
   -1
100
AcDbLine
 10
46.4909858064018
 20
-59.04123024054292
 11
33.74544530675183
 21
-58.00360136311696
  0
LINE
  5
335
100
AcDbEntity
  8
handle5
  6
ByLayer
 62
  256
370
   -1
100
AcDbLine
 10
43.32117953714732
 20
-56.8697289662602
 11
41.75025238991816
 21
-58.65499642856031
  0
LINE
  5
336
100
AcDbEntity
  8
handle5
  6
ByLayer
 62
  256
370
   -1
100
AcDbLine
 10
46.09131715418687
 20
-58.05199225588541
 11
43.72087550080886
 21
-57.85901119128249
  0
LINE
  5
337
100
AcDbEntity
  8
handle5
  6
ByLayer
 62
  256
370
   -1
100
AcDbLine
 10
43.72087550080886
 20
-57.85901119128249
 11
42.18189084588272
 21
-54.04989050426531
  0
LINE
  5
338
100
AcDbEntity
  8
handle5
  6
ByLayer
 62
  256
370
   -1
100
AcDbLine
 10
45.68330186944337
 20
-62.71618689708731
 11
48.40345810581107
 21
-69.44880983695924
  0
LINE
  5
339
100
AcDbEntity
  8
handle5
  6
ByLayer
 62
  256
370
   -1
100
AcDbLine
 10
48.05373288136815
 20
-62.90916498100688
 11
45.68330186944337
 21
-62.71618689708731
  0
LINE
  5
33A
100
AcDbEntity
  8
handle5
  6
ByLayer
 62
  256
370
   -1
100
AcDbLine
 10
45.70535416866892
 20
-59.93405563586606
 11
37.24543306258528
 21
-69.5260337341827
  0
LINE
  5
33B
100
AcDbEntity
  8
handle5
  6
ByLayer
 62
  256
370
   -1
100
AcDbLine
 10
38.42802781810241
 20
-69.59339977699773
 11
39.99918695304643
 21
-67.8078662896516
  0
LINE
  5
33C
100
AcDbEntity
  8
handle5
  6
ByLayer
 62
  256
370
   -1
100
AcDbLine
 10
48.00376214214947
 20
-68.45952761193695
 11
39.99918695304643
 21
-67.8078662896516
  0
LINE
  5
33D
100
AcDbEntity
  8
handle5
  6
ByLayer
 62
  256
370
   -1
100
AcDbLine
 10
41.24667783406693
 20
-67.90942591051834
 11
46.46141516402844
 21
-61.80537226586119
  0
LINE
  5
33E
100
AcDbEntity
  8
handle5
  6
ByLayer
 62
  256
370
   -1
100
AcDbLine
 10
45.70535416866892
 20
-59.93405563586606
 11
46.46141516402844
 21
-61.80537226586119
  0
LINE
  5
33F
100
AcDbEntity
  8
handle5
  6
ByLayer
 62
  256
370
   -1
100
AcDbLine
 10
41.24667783406693
 20
-67.90942591051834
 11
40.43755081789732
 21
-65.90676627005297
  0
LINE
  5
340
100
AcDbEntity
  8
handle5
  6
ByLayer
 62
  256
370
   -1
100
AcDbLine
 10
43.32117953714732
 20
-56.8697289662602
 11
36.56409522906472
 21
-56.31962726484147
  0
LINE
  5
341
100
AcDbEntity
  8
handle5
  6
ByLayer
 62
  256
370
   -1
100
AcDbLine
 10
33.74544530675183
 20
-58.00360136311696
 11
34.48978003876698
 21
-57.15770500237005
  0
LINE
  5
342
100
AcDbEntity
  8
handle5
  6
ByLayer
 62
  256
370
   -1
100
AcDbLine
 10
40.43755081789732
 20
-65.90676627005297
 11
37.99528547011437
 21
-65.70793968680169
  0
LINE
  5
343
100
AcDbEntity
  8
handle5
  6
ByLayer
 62
  256
370
   -1
100
AcDbLine
 10
36.86832463211812
 20
-68.53339544461249
 11
38.42300603398439
 21
-66.76658523137218
  0
LINE
  5
344
100
AcDbEntity
  8
handle5
  6
ByLayer
 62
  256
370
   -1
100
AcDbLine
 10
38.42300603398439
 20
-66.76658523137218
 11
35.73872587106808
 21
-60.12275868925195
  0
LINE
  5
345
100
AcDbEntity
  8
handle5
  6
ByLayer
 62
  256
370
   -1
100
AcDbLine
 10
45.70535416866892
 20
-59.93405563586606
 11
43.26309299321332
 21
-59.73522736688511
  0
LINE
  5
346
100
AcDbEntity
  8
handle5
  6
ByLayer
 62
  256
370
   -1
100
AcDbLine
 10
41.74960112323839
 20
-58.65522908877239
 11
42.52435723524889
 21
-60.57281775621351
  0
LINE
  5
347
100
AcDbEntity
  8
handle5
  6
ByLayer
 62
  256
370
   -1
100
AcDbLine
 10
43.26309299321332
 20
-59.73522736688511
 11
37.9952863129792
 21
-65.70794177296537
  0
LINE
  5
348
100
AcDbEntity
  8
handle5
  6
ByLayer
 62
  256
370
   -1
100
AcDbLine
 10
34.56961793566268
 20
-60.04521666926524
 11
42.52435723524889
 21
-60.57281775621351
  0
LINE
  5
349
100
AcDbEntity
  8
handle5
  6
ByLayer
 62
  256
370
   -1
100
AcDbLine
 10
33.74472906612021
 20
-58.00354507273113
 11
34.56961793566268
 21
-60.04521666926524
  0
LINE
  5
34A
100
AcDbEntity
  8
handle5
  6
ByLayer
 62
  256
370
   -1
100
AcDbLine
 10
47.26269790626935
 20
-55.27725217552387
 11
49.63287931289852
 21
-55.47020842320188
  0
LINE
  5
34B
100
AcDbEntity
  8
handle5
  6
ByLayer
 62
  256
370
   -1
100
AcDbLine
 10
46.09129675614201
 20
-58.05200049723038
 11
47.6623938699309
 21
-56.26653440054628
  0
LINE
  5
34C
100
AcDbEntity
  8
handle5
  6
ByLayer
 62
  256
370
   -1
100
AcDbLine
 10
47.6623938699309
 20
-56.26653440054628
 11
46.1234092150047
 21
-52.45741371352898
  0
LINE
  5
34D
100
AcDbEntity
  8
handle5
  6
ByLayer
 62
  256
370
   -1
100
AcDbLine
 10
48.05373288136815
 20
-62.90916498100688
 11
49.62482023856541
 21
-61.12371010635098
  0
LINE
  5
34E
100
AcDbEntity
  8
handle5
  6
ByLayer
 62
  256
370
   -1
100
AcDbLine
 10
47.67632637372054
 20
-59.13773117463307
 11
48.43238736908
 21
-61.0090478046281
  0
LINE
  5
34F
100
AcDbEntity
  8
handle5
  6
ByLayer
 62
  256
370
   -1
100
AcDbLine
 10
47.67632637372054
 20
-59.13773117463307
 11
49.29502431871612
 21
-57.29816891894535
  0
LINE
  5
350
100
AcDbEntity
  8
handle5
  6
ByLayer
 62
  256
370
   -1
100
AcDbLine
 10
48.00376214214947
 20
-68.45952761193695
 11
46.43283499492037
 21
-70.24479507423706
  0
LINE
  5
351
100
AcDbEntity
  8
handle5
  6
ByLayer
 62
  256
370
   -1
100
AcDbLine
 10
38.85021661643174
 20
-73.4980124108869
 11
40.42130866337362
 21
-71.71255779852066
  0
LINE
  5
352
100
AcDbEntity
  8
handle5
  6
ByLayer
 62
  256
370
   -1
100
AcDbLine
 10
46.4321837282406
 20
-70.24502773444914
 11
47.20693946564444
 21
-72.16261547470634
  0
LINE
  5
353
100
AcDbEntity
  8
handle5
  6
ByLayer
 62
  256
370
   -1
100
AcDbLine
 10
39.25220054066489
 20
-71.635015314942
 11
47.20693946564444
 21
-72.16261547470634
  0
LINE
  5
354
100
AcDbEntity
  8
handle5
  6
ByLayer
 62
  256
370
   -1
100
AcDbLine
 10
38.42731157747073
 20
-69.5933434866119
 11
39.25220054066489
 21
-71.635015314942
  0
LINE
  5
355
100
AcDbEntity
  8
handle5
  6
ByLayer
 62
  256
370
   -1
100
AcDbLine
 10
34.16763410508122
 20
-61.90821399700604
 11
35.73872587106808
 21
-60.12275868925195
  0
LINE
  5
356
100
AcDbEntity
  8
handle5
  6
ByLayer
 62
  256
370
   -1
100
AcDbLine
 10
38.93904905010072
 20
-1.433346502116421
 11
39.76587373398456
 21
-0.493710070905081
  0
LINE
  5
357
100
AcDbEntity
  8
handle5
  6
ByLayer
 62
  256
370
   -1
100
AcDbLine
 10
41.01336424039846
 20
-0.5952687645878996
 11
39.76587373398456
 21
-0.493710070905081
  0
LINE
  5
358
100
AcDbEntity
  8
handle5
  6
ByLayer
 62
  256
370
   -1
100
AcDbLine
 10
50.94025481773559
 20
-3.316871740289286
 11
38.19471431808557
 21
-2.279242862863328
  0
LINE
  5
359
100
AcDbEntity
  8
handle5
  6
ByLayer
 62
  256
370
   -1
100
AcDbLine
 10
47.77044854848106
 20
-1.145370466006568
 11
46.1995214012519
 21
-2.930637928306623
  0
LINE
  5
35A
100
AcDbEntity
  8
handle5
  6
ByLayer
 62
  256
370
   -1
100
AcDbLine
 10
50.54058616552061
 20
-2.32763375563178
 11
48.17014451214254
 21
-2.134652691028805
  0
LINE
  5
35B
100
AcDbEntity
  8
handle5
  6
ByLayer
 62
  256
370
   -1
100
AcDbLine
 10
52.50300189270189
 20
-7.184806480753252
 11
50.13257088077711
 21
-6.991828396833725
  0
LINE
  5
35C
100
AcDbEntity
  8
handle5
  6
ByLayer
 62
  256
370
   -1
100
AcDbLine
 10
50.15462318000266
 20
-4.209697135612487
 11
41.69470207391902
 21
-13.80167523392905
  0
LINE
  5
35D
100
AcDbEntity
  8
handle5
  6
ByLayer
 62
  256
370
   -1
100
AcDbLine
 10
42.8772968294362
 20
-13.86904127674415
 11
44.44845596438017
 21
-12.08350778939797
  0
LINE
  5
35E
100
AcDbEntity
  8
handle5
  6
ByLayer
 62
  256
370
   -1
100
AcDbLine
 10
45.69594684540067
 20
-12.18506741026471
 11
50.91068417536212
 21
-6.081013765607522
  0
LINE
  5
35F
100
AcDbEntity
  8
handle5
  6
ByLayer
 62
  256
370
   -1
100
AcDbLine
 10
50.15462318000266
 20
-4.209697135612487
 11
50.91068417536212
 21
-6.081013765607522
  0
LINE
  5
360
100
AcDbEntity
  8
handle5
  6
ByLayer
 62
  256
370
   -1
100
AcDbLine
 10
45.69594684540067
 20
-12.18506741026471
 11
44.88681982923106
 21
-10.18240776979934
  0
LINE
  5
361
100
AcDbEntity
  8
handle5
  6
ByLayer
 62
  256
370
   -1
100
AcDbLine
 10
47.77044854848106
 20
-1.145370466006568
 11
41.01336424039846
 21
-0.5952687645878996
  0
LINE
  5
362
100
AcDbEntity
  8
handle5
  6
ByLayer
 62
  256
370
   -1
100
AcDbLine
 10
38.19471431808557
 20
-2.279242862863328
 11
38.93904905010072
 21
-1.433346502116421
  0
LINE
  5
363
100
AcDbEntity
  8
handle5
  6
ByLayer
 62
  256
370
   -1
100
AcDbLine
 10
44.88681982923106
 20
-10.18240776979934
 11
42.44455448144811
 21
-9.983581186548136
  0
LINE
  5
364
100
AcDbEntity
  8
handle5
  6
ByLayer
 62
  256
370
   -1
100
AcDbLine
 10
41.31759364345191
 20
-12.80903694435886
 11
42.87227504531808
 21
-11.04222673111849
  0
LINE
  5
365
100
AcDbEntity
  8
handle5
  6
ByLayer
 62
  256
370
   -1
100
AcDbLine
 10
42.87227504531808
 20
-11.04222673111849
 11
40.18799488240182
 21
-4.39840018899838
  0
LINE
  5
366
100
AcDbEntity
  8
handle5
  6
ByLayer
 62
  256
370
   -1
100
AcDbLine
 10
50.15462318000266
 20
-4.209697135612487
 11
47.71236200454706
 21
-4.010868866631483
  0
LINE
  5
367
100
AcDbEntity
  8
handle5
  6
ByLayer
 62
  256
370
   -1
100
AcDbLine
 10
46.19887013457213
 20
-2.930870588518814
 11
46.97362624658263
 21
-4.848459255959767
  0
LINE
  5
368
100
AcDbEntity
  8
handle5
  6
ByLayer
 62
  256
370
   -1
100
AcDbLine
 10
47.71236200454706
 20
-4.010868866631483
 11
42.44455532431289
 21
-9.983583272711712
  0
LINE
  5
369
100
AcDbEntity
  8
handle5
  6
ByLayer
 62
  256
370
   -1
100
AcDbLine
 10
39.01888694699642
 20
-4.320858169011558
 11
46.97362624658263
 21
-4.848459255959767
  0
LINE
  5
36A
100
AcDbEntity
  8
handle5
  6
ByLayer
 62
  256
370
   -1
100
AcDbLine
 10
38.19399807745395
 20
-2.2791865724775
 11
39.01888694699642
 21
-4.320858169011558
  0
LINE
  5
36B
100
AcDbEntity
  8
handle5
  6
ByLayer
 62
  256
370
   -1
100
AcDbLine
 10
52.50300189270189
 20
-7.184806480753252
 11
54.07408924989915
 21
-5.399351606097412
  0
LINE
  5
36C
100
AcDbEntity
  8
handle5
  6
ByLayer
 62
  256
370
   -1
100
AcDbLine
 10
52.12559538505428
 20
-3.413372674379446
 11
52.88165638041374
 21
-5.284689304374524
  0
LINE
  5
36D
100
AcDbEntity
  8
handle5
  6
ByLayer
 62
  256
370
   -1
100
AcDbLine
 10
48.30421388549848
 20
-24.61294286628612
 11
49.13103856938233
 21
-23.67330643507472
  0
LINE
  5
36E
100
AcDbEntity
  8
handle5
  6
ByLayer
 62
  256
370
   -1
100
AcDbLine
 10
49.5694029024915
 20
-21.77220757445599
 11
47.12713708645032
 21
-21.57337983222488
  0
LINE
  5
36F
100
AcDbEntity
  8
handle5
  6
ByLayer
 62
  256
370
   -1
100
AcDbLine
 10
47.55485774397192
 20
-22.63202560859122
 11
44.87057767470736
 21
-15.98819929826709
  0
LINE
  5
370
100
AcDbEntity
  8
handle5
  6
ByLayer
 62
  256
370
   -1
100
AcDbLine
 10
43.29948562776553
 20
-17.77365391063323
 11
44.87057767470736
 21
-15.98819929826709
  0
LINE
  5
371
100
AcDbEntity
  8
handle5
  6
ByLayer
 62
  256
370
   -1
100
AcDbLine
 10
42.87658058880447
 20
-13.86898498635833
 11
43.70146955199857
 21
-15.91065681468831
  0
LINE
  5
372
100
AcDbEntity
  8
handle5
  6
ByLayer
 62
  256
370
   -1
100
AcDbLine
 10
46.37728430431463
 20
-25.39147295242202
 11
37.01211946891675
 21
-2.211876588252266
  0
LINE
  5
373
100
AcDbEntity
  8
handle5
  6
ByLayer
 62
  256
370
   -1
100
AcDbLine
 10
45.98376728910813
 20
-24.41748416148875
 11
47.55485774397192
 21
-22.63202560859122
  0
LINE
  5
374
100
AcDbEntity
  8
handle5
  6
ByLayer
 62
  256
370
   -1
100
AcDbLine
 10
38.61690311641496
 20
-6.183855496752415
 11
40.18799488240182
 21
-4.39840018899838
  0
LINE
  5
375
100
AcDbEntity
  8
handle5
  6
ByLayer
 62
  256
370
   -1
100
AcDbLine
 10
47.55987915348339
 20
-25.45883922703303
 11
48.30421388549848
 21
-24.61294286628612
  0
LINE
  5
376
100
AcDbEntity
  8
handle5
  6
ByLayer
 62
  256
370
   -1
100
AcDbLine
 10
47.55916291285172
 20
-25.45878293664719
 11
48.38405178239418
 21
-27.50045453318125
  0
LINE
  5
377
100
AcDbEntity
  8
handle5
  6
ByLayer
 62
  256
370
   -1
100
AcDbLine
 10
47.98206795181272
 20
-29.36345186092212
 11
49.55315971779964
 21
-27.57799655316802
  0
LINE
  5
378
100
AcDbEntity
  8
handle5
  6
ByLayer
 62
  256
370
   -1
100
AcDbLine
 10
14.31726987533303
 20
-73.83948031069059
 11
13.71728283266853
 21
-72.35446026917162
  0
LINE
  5
379
100
AcDbEntity
  8
handle5
  6
ByLayer
 62
  256
370
   -1
100
AcDbLine
 10
20.08349431108402
 20
-69.10039313879935
 11
15.58561911915503
 21
-74.20014823353114
  0
LINE
  5
37A
100
AcDbEntity
  8
handle5
  6
ByLayer
 62
  256
370
   -1
100
AcDbLine
 10
22.52575548653962
 20
-69.29922140778041
 11
17.71288296640202
 21
-74.75612428243625
  0
LINE
  5
37B
100
AcDbEntity
  8
handle5
  6
ByLayer
 62
  256
370
   -1
100
AcDbLine
 10
13.69440382733053
 20
-69.56322161793861
 11
19.34475855311952
 21
-69.93798352812775
  0
LINE
  5
37C
100
AcDbEntity
  8
handle5
  6
ByLayer
 62
  256
370
   -1
100
AcDbLine
 10
23.31138712427243
 20
-68.40639601245715
 11
13.67849357838362
 21
-67.62217124641774
  0
LINE
  5
37D
100
AcDbEntity
  8
handle5
  6
ByLayer
 62
  256
370
   -1
100
AcDbLine
 10
20.14158085501802
 20
-66.23489473817443
 11
13.66279914159803
 21
-65.70744995856597
  0
LINE
  5
37E
100
AcDbEntity
  8
handle5
  6
ByLayer
 62
  256
370
   -1
100
AcDbLine
 10
13.65997037282433
 20
-65.36234016817815
 11
18.59923387689693
 21
-59.58073939209868
  0
LINE
  5
37F
100
AcDbEntity
  8
handle5
  6
ByLayer
 62
  256
370
   -1
100
AcDbLine
 10
17.84317325614403
 20
-57.70942368928746
 11
13.63633801294652
 21
-62.47919226309392
  0
LINE
  5
380
100
AcDbEntity
  8
handle5
  6
ByLayer
 62
  256
370
   -1
100
AcDbLine
 10
15.40091208068843
 20
-57.51059542030652
 11
13.61223498653602
 21
-59.53862304101534
  0
LINE
  5
381
100
AcDbEntity
  8
handle5
  6
ByLayer
 62
  256
370
   -1
100
AcDbLine
 10
13.60190087848243
 20
-58.27786185847634
 11
14.66217594811732
 21
-58.34818488245099
  0
LINE
  5
382
100
AcDbEntity
  8
handle5
  6
ByLayer
 62
  256
370
   -1
100
AcDbLine
 10
18.62880489387683
 20
-56.81659829396432
 11
13.58655859462013
 21
-56.40610322726428
  0
LINE
  5
383
100
AcDbEntity
  8
handle5
  6
ByLayer
 62
  256
370
   -1
100
AcDbLine
 10
15.45899862462242
 20
-54.64509701968149
 11
13.57086415754172
 21
-54.49138190371315
  0
LINE
  5
384
100
AcDbEntity
  8
handle5
  6
ByLayer
 62
  256
370
   -1
100
AcDbLine
 10
19.80435771751652
 20
-75.24103929253971
 11
23.28181648189913
 21
-71.1705380377754
  0
LINE
  5
385
100
AcDbEntity
  8
handle5
  6
ByLayer
 62
  256
370
   -1
100
AcDbLine
 10
22.50370318731403
 20
-72.08135266900166
 11
24.10116096818362
 21
-76.03519942131942
  0
LINE
  5
386
100
AcDbEntity
  8
handle5
  6
ByLayer
 62
  256
370
   -1
100
AcDbLine
 10
26.52335869750702
 20
-76.35630462691682
 11
20.97305343447803
 21
-62.6188170379466
  0
LINE
  5
387
100
AcDbEntity
  8
handle5
  6
ByLayer
 62
  256
370
   -1
100
AcDbLine
 10
26.44522155643612
 20
-70.48887587826533
 11
28.90525119055769
 21
-76.57766288469409
  0
LINE
  5
388
100
AcDbEntity
  8
handle5
  6
ByLayer
 62
  256
370
   -1
100
AcDbLine
 10
30.90513532018593
 20
-76.68781581266379
 11
36.44154660871544
 21
-70.39599028271883
  0
LINE
  5
389
100
AcDbEntity
  8
handle5
  6
ByLayer
 62
  256
370
   -1
100
AcDbLine
 10
31.13649333717865
 20
-76.42488779469301
 11
31.24744912809848
 21
-76.69951301410907
  0
LINE
  5
38A
100
AcDbEntity
  8
handle5
  6
ByLayer
 62
  256
370
   -1
100
AcDbLine
 10
37.26690774918353
 20
-72.43712566866196
 11
33.37930504214279
 21
-76.72374203483938
  0
LINE
  5
38B
100
AcDbEntity
  8
handle5
  6
ByLayer
 62
  256
370
   -1
100
AcDbLine
 10
37.76896425627302
 20
-76.49585011232244
 11
36.47979098963947
 21
-73.305034308302
  0
LINE
  5
38C
100
AcDbEntity
  8
handle5
  6
ByLayer
 62
  256
370
   -1
100
AcDbLine
 10
39.95527757177962
 20
-76.23313425369196
 11
32.56285045758301
 21
-57.93623508850595
  0
LINE
  5
38D
100
AcDbEntity
  8
handle5
  6
ByLayer
 62
  256
370
   -1
100
AcDbLine
 10
42.1016954192786
 20
-75.87166096671598
 11
40.42130866337362
 21
-71.71255779852066
  0
LINE
  5
38E
100
AcDbEntity
  8
handle5
  6
ByLayer
 62
  256
370
   -1
100
AcDbLine
 10
47.94567559821553
 20
-71.32502601256186
 11
44.37843549040167
 21
-75.36961376515197
  0
LINE
  5
38F
100
AcDbEntity
  8
handle5
  6
ByLayer
 62
  256
370
   -1
100
AcDbLine
 10
49.7395441047139
 20
-72.25901094851227
 11
47.9125570017149
 21
-74.3304744513261
  0
LINE
  5
390
100
AcDbEntity
  8
handle5
  6
ByLayer
 62
  256
370
   -1
100
AcDbLine
 10
49.74599834954506
 20
-71.47159307911934
 11
47.94567559821553
 21
-71.32502601256186
  0
LINE
  5
391
100
AcDbEntity
  8
handle5
  6
ByLayer
 62
  256
370
   -1
100
AcDbLine
 10
49.75383561406755
 20
-70.5154468073703
 11
38.42802781810241
 21
-69.59339977699773
  0
LINE
  5
392
100
AcDbEntity
  8
handle5
  6
ByLayer
 62
  256
370
   -1
100
AcDbLine
 10
49.76167219445949
 20
-69.55938399954726
 11
48.40345810581107
 21
-69.44880983695924
  0
LINE
  5
393
100
AcDbEntity
  8
handle5
  6
ByLayer
 62
  256
370
   -1
100
AcDbLine
 10
49.78113730141001
 20
-67.18464095158589
 11
44.15265211660738
 21
-53.25365126603236
  0
LINE
  5
394
100
AcDbEntity
  8
handle5
  6
ByLayer
 62
  256
370
   -1
100
AcDbLine
 10
49.62482023856541
 20
-61.12371010635098
 11
49.82672098149777
 21
-61.62343198087791
  0
LINE
  5
395
100
AcDbEntity
  8
handle5
  6
ByLayer
 62
  256
370
   -1
100
AcDbLine
 10
49.83065484671442
 20
-61.14350042445352
 11
48.43238736908
 21
-61.0090478046281
  0
LINE
  5
396
100
AcDbEntity
  8
handle5
  6
ByLayer
 62
  256
370
   -1
100
AcDbLine
 10
47.67632637372054
 20
-59.13773117463307
 11
49.84566853926816
 21
-59.31182993289525
  0
LINE
  5
397
100
AcDbEntity
  8
handle5
  6
ByLayer
 62
  256
370
   -1
100
AcDbLine
 10
49.29502431871612
 20
-57.29816891894535
 11
49.86180112059503
 21
-57.34365501102008
  0
LINE
  5
398
100
AcDbEntity
  8
handle5
  6
ByLayer
 62
  256
370
   -1
100
AcDbLine
 10
49.63350941430576
 20
-55.46992337710202
 11
49.87231478936212
 21
-56.06098742142927
  0
LINE
  5
399
100
AcDbEntity
  8
handle5
  6
ByLayer
 62
  256
370
   -1
100
AcDbLine
 10
46.4909858064018
 20
-59.04123024054292
 11
49.87945052689975
 21
-55.19042744184122
  0
LINE
  5
39A
100
AcDbEntity
  8
handle5
  6
ByLayer
 62
  256
370
   -1
100
AcDbLine
 10
47.26269790626935
 20
-55.27725217552387
 11
49.90333670139279
 21
-52.27631415369257
  0
LINE
  5
39B
100
AcDbEntity
  8
handle5
  6
ByLayer
 62
  256
370
   -1
100
AcDbLine
 10
49.92189062206205
 20
-50.01273583204289
 11
43.74980476407785
 21
-49.41924915895135
  0
LINE
  5
39C
100
AcDbEntity
  8
handle5
  6
ByLayer
 62
  256
370
   -1
100
AcDbLine
 10
42.99374414332493
 20
-47.54793345614013
 11
49.93752615805914
 21
-48.10520044039043
  0
LINE
  5
39D
100
AcDbEntity
  8
handle5
  6
ByLayer
 62
  256
370
   -1
100
AcDbLine
 10
44.61244208832051
 20
-45.70837120045252
 11
49.95365874301535
 21
-46.13702507573606
  0
LINE
  5
39E
100
AcDbEntity
  8
handle5
  6
ByLayer
 62
  256
370
   -1
100
AcDbLine
 10
41.80840357600619
 20
-47.45143252204997
 11
50.0193710662241
 21
-38.1201216442733
  0
LINE
  5
39F
100
AcDbEntity
  8
handle5
  6
ByLayer
 62
  256
370
   -1
100
AcDbLine
 10
50.02173141724859
 20
-37.8321588192876
 11
47.88544714250031
 21
-37.65824178241297
  0
LINE
  5
3A0
100
AcDbEntity
  8
handle5
  6
ByLayer
 62
  256
370
   -1
100
AcDbLine
 10
38.31116153832278
 20
-35.95813481046338
 11
50.02938377619375
 21
-36.89857102797379
  0
LINE
  5
3A1
100
AcDbEntity
  8
handle5
  6
ByLayer
 62
  256
370
   -1
100
AcDbLine
 10
50.03710933856581
 20
-35.95605241858249
 11
48.29592220698174
 21
-35.81429960506949
  0
LINE
  5
3A2
100
AcDbEntity
  8
handle5
  6
ByLayer
 62
  256
370
   -1
100
AcDbLine
 10
50.04920970881784
 20
-34.47980724783332
 11
46.37728430431463
 21
-25.39147295242202
  0
LINE
  5
3A3
100
AcDbEntity
  8
handle5
  6
ByLayer
 62
  256
370
   -1
100
AcDbLine
 10
50.09479348005027
 20
-28.91858715748095
 11
49.55315971779964
 21
-27.57799655316802
  0
LINE
  5
3A4
100
AcDbEntity
  8
handle5
  6
ByLayer
 62
  256
370
   -1
100
AcDbLine
 10
48.38405178239418
 20
-27.50045453318125
 11
50.10548166150704
 21
-27.6146290197508
  0
LINE
  5
3A5
100
AcDbEntity
  8
handle5
  6
ByLayer
 62
  256
370
   -1
100
AcDbLine
 10
50.1214427271056
 20
-25.66737901672849
 11
47.55987915348339
 21
-25.45883922703303
  0
LINE
  5
3A6
100
AcDbEntity
  8
handle5
  6
ByLayer
 62
  256
370
   -1
100
AcDbLine
 10
50.13711623040757
 20
-23.75521161388916
 11
49.13103856938233
 21
-23.67330643507472
  0
LINE
  5
3A7
100
AcDbEntity
  8
handle5
  6
ByLayer
 62
  256
370
   -1
100
AcDbLine
 10
50.14175863925902
 20
-23.18883773400671
 11
49.5694029024915
 21
-21.77220757445599
  0
LINE
  5
3A8
100
AcDbEntity
  8
handle5
  6
ByLayer
 62
  256
370
   -1
100
AcDbLine
 10
50.15884843455342
 20
-21.10388270808955
 11
46.37728430431463
 21
-25.39147295242202
  0
LINE
  5
3A9
100
AcDbEntity
  8
handle5
  6
ByLayer
 62
  256
370
   -1
100
AcDbLine
 10
50.18340366823588
 20
-18.10814419883536
 11
47.12713792931515
 21
-21.57338191838845
  0
LINE
  5
3AA
100
AcDbEntity
  8
handle5
  6
ByLayer
 62
  256
370
   -1
100
AcDbLine
 10
43.70146955199857
 20
-15.91065681468831
 11
50.19788408606132
 21
-16.34153322413335
  0
LINE
  5
3AB
100
AcDbEntity
  8
handle5
  6
ByLayer
 62
  256
370
   -1
100
AcDbLine
 10
50.21325509551303
 20
-14.46627007101898
 11
42.8772968294362
 21
-13.86904127674415
  0
LINE
  5
3AC
100
AcDbEntity
  8
handle5
  6
ByLayer
 62
  256
370
   -1
100
AcDbLine
 10
50.6983128953799
 20
-12.59231555689747
 11
44.44845596438017
 21
-12.08350778939797
  0
LINE
  5
3AD
100
AcDbEntity
  8
handle5
  6
ByLayer
 62
  256
370
   -1
100
AcDbLine
 10
50.13257088077711
 20
-6.991828396833725
 11
52.08164584058949
 21
-11.81595820618822
  0
LINE
  5
3AE
100
AcDbEntity
  8
handle5
  6
ByLayer
 62
  256
370
   -1
100
AcDbLine
 10
54.07408924989915
 20
-5.399351606097412
 11
55.31198326633756
 21
-8.463246812106888
  0
LINE
  5
3AF
100
AcDbEntity
  8
handle5
  6
ByLayer
 62
  256
370
   -1
100
AcDbLine
 10
55.2289017382306
 20
-5.510392392502865
 11
52.88165638041374
 21
-5.284689304374524
  0
LINE
  5
3B0
100
AcDbEntity
  8
handle5
  6
ByLayer
 62
  256
370
   -1
100
AcDbLine
 10
52.12559538505428
 20
-3.413372674379446
 11
53.71263048574605
 21
-3.540738861575278
  0
LINE
  5
3B1
100
AcDbEntity
  8
handle5
  6
ByLayer
 62
  256
370
   -1
100
AcDbLine
 10
52.12559538505428
 20
-3.413372674379446
 11
52.6886111744044
 21
-2.773535823627469
  0
LINE
  5
3B2
100
AcDbEntity
  8
handle5
  6
ByLayer
 62
  256
370
   -1
100
AcDbLine
 10
50.94025481773559
 20
-3.316871740289286
 11
51.85442386835399
 21
-2.277969160807686
  0
LINE
  5
3B3
100
AcDbEntity
  8
handle5
  6
ByLayer
 62
  256
370
   -1
100
AcDbLine
 10
50.54056576747575
 20
-2.327641996976866
 11
50.95678336595205
 21
-1.854633419467177
  0
LINE
  5
3B4
100
AcDbEntity
  8
handle5
  6
ByLayer
 62
  256
370
   -1
100
AcDbLine
 10
53.86215066717398
 20
-10.548817744286
 11
50.24967122456422
 21
-1.607617367646015
  0
LINE
  5
3B5
100
AcDbEntity
  8
handle5
  6
ByLayer
 62
  256
370
   -1
100
AcDbLine
 10
48.17014451214254
 20
-2.134652691028805
 11
47.69960928597305
 21
-0.9700371386674078
  0
LINE
  5
3B6
100
AcDbEntity
  8
handle5
  6
ByLayer
 62
  256
370
   -1
100
AcDbLine
 10
41.01336424039846
 20
-0.5952687645878996
 11
41.30945027978106
 21
-0.2486884953494269
  0
LINE
  5
3B7
100
AcDbEntity
  8
handle5
  6
ByLayer
 62
  256
370
   -1
100
AcDbLine
 10
41.01336424039846
 20
-0.5952687645878996
 11
40.86427200973378
 21
-0.2262525445232199
  0
LINE
  5
3B8
100
AcDbEntity
  8
handle5
  6
ByLayer
 62
  256
370
   -1
100
AcDbLine
 10
38.86060474549913
 20
-0.1160381558717063
 11
37.01211946891675
 21
-2.211876588252266
  0
LINE
  5
3B9
100
AcDbEntity
  8
handle5
  6
ByLayer
 62
  256
370
   -1
100
AcDbLine
 10
36.61860245371031
 20
-1.237887797319104
 11
37.65158342038791
 21
-0.06396130809304168
  0
LINE
  5
3BA
100
AcDbEntity
  8
handle5
  6
ByLayer
 62
  256
370
   -1
100
AcDbLine
 10
37.01211946891675
 20
-2.211876588252266
 11
36.12595926566803
 21
-0.0185531191705195
  0
LINE
  5
3BB
100
AcDbEntity
  8
handle5
  6
ByLayer
 62
  256
370
   -1
100
AcDbLine
 10
34.24817523484001
 20
-1.044905754202887
 11
33.8301350035174
 21
-0.01021987345717435
  0
LINE
  5
3BC
100
AcDbEntity
  8
handle5
  6
ByLayer
 62
  256
370
   -1
100
AcDbLine
 10
32.20175316004969
 20
-1.825824984582084
 11
33.79963713125386
 21
-0.009917858716562478
  0
LINE
  5
3BD
100
AcDbEntity
  8
handle5
  6
ByLayer
 62
  256
370
   -1
100
AcDbLine
 10
24.26341447252932
 20
-1.188740727800848
 11
25.21177905863452
 21
-0.1109759090934403
  0
LINE
  5
3BE
100
AcDbEntity
  8
handle5
  6
ByLayer
 62
  256
370
   -1
100
AcDbLine
 10
23.07807390521063
 20
-1.09223979371069
 11
23.89194795018292
 21
-0.167316910014165
  0
LINE
  5
3BF
100
AcDbEntity
  8
handle5
  6
ByLayer
 62
  256
370
   -1
100
AcDbLine
 10
25.42232244581173
 20
-6.894458537692927
 11
22.72949145566022
 21
-0.2294679554966592
  0
LINE
  5
3C0
100
AcDbEntity
  8
handle5
  6
ByLayer
 62
  256
370
   -1
100
AcDbLine
 10
18.43480068934093
 20
-0.5952481242854333
 11
18.33734048872692
 21
-0.7060059817279694
  0
LINE
  5
3C1
100
AcDbEntity
  8
handle5
  6
ByLayer
 62
  256
370
   -1
100
AcDbLine
 10
23.07807390521063
 20
-1.09223979371069
 11
17.85340176041622
 21
-0.6668932292480463
  0
LINE
  5
3C2
100
AcDbEntity
  8
handle5
  6
ByLayer
 62
  256
370
   -1
100
AcDbLine
 10
11.72388776807362
 20
-2.133844700686722
 11
19.11144495945112
 21
-2.623826382197364
  0
LINE
  5
3C3
100
AcDbEntity
  8
handle5
  6
ByLayer
 62
  256
370
   -1
100
AcDbLine
 10
13.83252078678753
 20
-11.57704236016656
 11
10.35618835214653
 21
-2.972817653081904
  0
LINE
  5
3C4
100
AcDbEntity
  8
handle5
  6
ByLayer
 62
  256
370
   -1
100
AcDbLine
 10
10.75472211023843
 20
-3.959223318377895
 11
9.306896867821223
 21
-3.841354795105871
  0
LINE
  5
3C5
100
AcDbEntity
  8
handle5
  6
ByLayer
 62
  256
370
   -1
100
AcDbLine
 10
11.06857655271072
 20
-10.41007152611718
 11
8.693079099121732
 21
-4.530509008415265
  0
LINE
  5
3C6
100
AcDbEntity
  8
handle5
  6
ByLayer
 62
  256
370
   -1
100
AcDbLine
 10
8.518019994000326
 20
-9.181061745983754
 11
10.64085673805383
 21
-9.351427835914464
  0
LINE
  5
3C7
100
AcDbEntity
  8
handle5
  6
ByLayer
 62
  256
370
   -1
100
AcDbLine
 10
9.590249778259732
 20
-10.54538173691298
 11
10.64085589518912
 21
-9.351425749750831
  0
LINE
  5
3C8
100
AcDbEntity
  8
handle5
  6
ByLayer
 62
  256
370
   -1
100
AcDbLine
 10
10.55423180301352
 20
-11.31394622442786
 11
13.83252078678753
 21
-11.57704236016656
  0
LINE
  5
3C9
100
AcDbEntity
  8
handle5
  6
ByLayer
 62
  256
370
   -1
100
AcDbLine
 10
13.02863442656943
 20
-12.44699914049869
 11
12.52978378812863
 21
-12.406387673091
  0
LINE
  5
3CA
100
AcDbEntity
  8
handle5
  6
ByLayer
 62
  256
370
   -1
100
AcDbLine
 10
12.83206290721452
 20
-12.67039180334592
 11
13.02863442656943
 21
-12.44699914049869
  0
LINE
  5
3CB
100
AcDbEntity
  8
handle5
  6
ByLayer
 62
  256
370
   -1
100
AcDbLine
 10
13.85399547338572
 20
-14.48813429464582
 11
13.24844168891853
 21
-15.15584073170453
  0
LINE
  5
3CC
100
AcDbEntity
  8
handle5
  6
ByLayer
 62
  256
370
   -1
100
AcDbLine
 10
15.43730434063403
 20
-15.54902103687072
 11
13.25020502443533
 21
-15.37096766475312
  0
LINE
  5
3CD
100
AcDbEntity
  8
handle5
  6
ByLayer
 62
  256
370
   -1
100
AcDbLine
 10
15.75115868945463
 20
-21.99986901281408
 11
13.25387642480882
 21
-15.81887851031962
  0
LINE
  5
3CE
100
AcDbEntity
  8
handle5
  6
ByLayer
 62
  256
370
   -1
100
AcDbLine
 10
13.29452821897853
 20
-20.77839739902805
 11
15.32343896844942
 21
-20.94122555440736
  0
LINE
  5
3CF
100
AcDbEntity
  8
handle5
  6
ByLayer
 62
  256
370
   -1
100
AcDbLine
 10
13.31068204753223
 20
-22.74916448256444
 11
18.51510339178972
 21
-23.16684100584335
  0
LINE
  5
3D0
100
AcDbEntity
  8
handle5
  6
ByLayer
 62
  256
370
   -1
100
AcDbLine
 10
14.51386325622722
 20
-24.78344695647474
 11
13.32642058890113
 21
-24.66926652957637
  0
LINE
  5
3D1
100
AcDbEntity
  8
handle5
  6
ByLayer
 62
  256
370
   -1
100
AcDbLine
 10
13.33830693194203
 20
-26.11940038056481
 11
15.34068362497322
 21
-23.84381119015756
  0
LINE
  5
3D2
100
AcDbEntity
  8
handle5
  6
ByLayer
 62
  256
370
   -1
100
AcDbLine
 10
13.36175220671983
 20
-28.97972390344927
 11
17.71121693791993
 21
-24.03679755437946
  0
LINE
  5
3D3
100
AcDbEntity
  8
handle5
  6
ByLayer
 62
  256
370
   -1
100
AcDbLine
 10
18.53657807838792
 20
-26.07793294032253
 11
13.38453129528313
 21
-31.75877270817528
  0
LINE
  5
3D4
100
AcDbEntity
  8
handle5
  6
ByLayer
 62
  256
370
   -1
100
AcDbLine
 10
13.38650677977462
 20
-31.99978181613914
 11
20.00602157345172
 21
-32.53102420008412
  0
LINE
  5
3D5
100
AcDbEntity
  8
handle5
  6
ByLayer
 62
  256
370
   -1
100
AcDbLine
 10
13.40266059927572
 20
-33.97054779527338
 11
23.19768562218522
 21
-34.75663872433626
  0
LINE
  5
3D6
100
AcDbEntity
  8
handle5
  6
ByLayer
 62
  256
370
   -1
100
AcDbLine
 10
19.19644548662292
 20
-36.37324467496768
 11
13.41780028874523
 21
-35.81758991053692
  0
LINE
  5
3D7
100
AcDbEntity
  8
handle5
  6
ByLayer
 62
  256
370
   -1
100
AcDbLine
 10
13.43810807889743
 20
-38.29514030911542
 11
13.57864569747763
 21
-38.64298312127363
  0
LINE
  5
3D8
100
AcDbEntity
  8
handle5
  6
ByLayer
 62
  256
370
   -1
100
AcDbLine
 10
20.97305343447803
 20
-62.6188170379466
 11
13.48557962594693
 21
-44.08666904915248
  0
LINE
  5
3D9
100
AcDbEntity
  8
handle5
  6
ByLayer
 62
  256
370
   -1
100
AcDbLine
 10
13.54655363665972
 20
-44.23756166362995
 11
13.48677656100243
 21
-44.23269512591838
  0
LINE
  5
3DA
100
AcDbEntity
  8
handle5
  6
ByLayer
 62
  256
370
   -1
100
AcDbLine
 10
13.94622228887462
 20
-45.22679964828745
 11
13.49462360495643
 21
-45.19003448831216
  0
LINE
  5
3DB
100
AcDbEntity
  8
handle5
  6
ByLayer
 62
  256
370
   -1
100
AcDbLine
 10
13.50931804046503
 20
-46.9827556203507
 11
13.91665164650132
 21
-47.99094167360573
  0
LINE
  5
3DC
100
AcDbEntity
  8
handle5
  6
ByLayer
 62
  256
370
   -1
100
AcDbLine
 10
13.52137438083882
 20
-48.45362914594585
 11
13.91665164650132
 21
-47.99094167360573
  0
LINE
  5
3DD
100
AcDbEntity
  8
handle5
  6
ByLayer
 62
  256
370
   -1
100
AcDbLine
 10
15.50896936384103
 20
-49.09473438875153
 11
13.52530564391623
 21
-48.93324324140912
  0
LINE
  5
3DE
100
AcDbEntity
  8
handle5
  6
ByLayer
 62
  256
370
   -1
100
AcDbLine
 10
13.53305127349942
 20
-49.87821005054508
 11
15.85869458828402
 21
-55.63437924470389
  0
ELLIPSE
  5
3DF
100
AcDbEntity
  8
handle5
  6
ByLayer
 62
  256
370
   -1
100
AcDbEllipse
 10
-505.584520561565
 20
1301.889206652069
 30
0
 11
-555.6978304453958
 21
1375.400394607359
 31
0
 40
0.169317757651324
 41
3.006639048768646
 42
3.139941456784253
  0
ENDSEC
  0
SECTION
  2
OBJECTS
  0
DICTIONARY
  5
C
330
0
100
AcDbDictionary
281
    1
  3
ACAD_GROUP
350
D
  0
DICTIONARY
  5
D
330
C
100
AcDbDictionary
281
    1
  0
ENDSEC
  0
EOF
