999
dxfrw 0.6.3
  0
SECTION
  2
HEADER
  9
$ACADVER
  1
AC1021
  9
$DWGCODEPAGE
  3
ANSI_1252
  9
$INSBASE
 10
0
 20
0
 30
0
  9
$EXTMIN
 10
-5.5
 20
-15.9497934640496
 30
0
  9
$EXTMAX
 10
198.8049939504249
 20
132.2987022289464
 30
0
  9
$LIMMIN
 10
0
 20
0
  9
$LIMMAX
 10
420
 20
297
  9
$ORTHOMODE
 70
    0
  9
$REGENMODE
 70
    1
  9
$FILLMODE
 70
    1
  9
$QTEXTMODE
 70
    0
  9
$MIRRTEXT
 70
    0
  9
$LTSCALE
 40
1
  9
$ATTMODE
 70
    0
  9
$TEXTSIZE
 40
2.5
  9
$TRACEWID
 40
15.68
  9
$TEXTSTYLE
  7
STANDARD
  9
$CLAYER
  8
construction1
  9
$CELTYPE
  6
BYLAYER
  9
$CECOLOR
 62
  256
  9
$CELTSCALE
 40
1
  9
$DISPSILH
 70
    0
  9
$DIMSCALE
 40
1
  9
$DIMASZ
 40
2.5
  9
$DIMEXO
 40
0.025
  9
$DIMDLI
 40
3.75
  9
$DIMRND
 40
0
  9
$DIMDLE
 40
0
  9
$DIMEXE
 40
1.25
  9
$DIMTP
 40
0
  9
$DIMTM
 40
0
  9
$DIMTXT
 40
2
  9
$DIMCEN
 40
2.5
  9
$DIMTSZ
 40
0
  9
$DIMTOL
 70
    0
  9
$DIMLIM
 70
    0
  9
$DIMTIH
 70
    0
  9
$DIMTOH
 70
    0
  9
$DIMSE1
 70
    0
  9
$DIMSE2
 70
    0
  9
$DIMTAD
 70
    1
  9
$DIMZIN
 70
    8
  9
$DIMBLK
  1

  9
$DIMASO
 70
    1
  9
$DIMSHO
 70
    1
  9
$DIMPOST
  1

  9
$DIMAPOST
  1

  9
$DIMALT
 70
    0
  9
$DIMALTD
 70
    3
  9
$DIMALTF
 40
0.03937
  9
$DIMLFAC
 40
1
  9
$DIMTOFL
 70
    1
  9
$DIMTVP
 40
0
  9
$DIMTIX
 70
    0
  9
$DIMSOXD
 70
    0
  9
$DIMSAH
 70
    0
  9
$DIMBLK1
  1

  9
$DIMBLK2
  1

  9
$DIMSTYLE
  2
STANDARD
  9
$DIMCLRD
 70
    0
  9
$DIMCLRE
 70
    0
  9
$DIMCLRT
 70
    0
  9
$DIMTFAC
 40
1
  9
$DIMGAP
 40
0.5
  9
$DIMJUST
 70
    0
  9
$DIMSD1
 70
    0
  9
$DIMSD2
 70
    0
  9
$DIMTOLJ
 70
    0
  9
$DIMTZIN
 70
    8
  9
$DIMALTZ
 70
    0
  9
$DIMALTTZ
 70
    0
  9
$DIMUPT
 70
    0
  9
$DIMDEC
 70
    2
  9
$DIMTDEC
 70
    2
  9
$DIMALTU
 70
    2
  9
$DIMALTTD
 70
    3
  9
$DIMTXSTY
  7
standard
  9
$DIMAUNIT
 70
    0
  9
$DIMADEC
 70
    0
  9
$DIMALTRND
 40
0
  9
$DIMAZIN
 70
    0
  9
$DIMDSEP
 70
   44
  9
$DIMATFIT
 70
    3
  9
$DIMFRAC
 70
    0
  9
$DIMLDRBLK
  1
STANDARD
  9
$DIMLUNIT
 70
    2
  9
$DIMLWD
 70
   -2
  9
$DIMLWE
 70
   -2
  9
$DIMTMOVE
 70
    0
  9
$DIMFXL
 40
1
  9
$DIMFXLON
 70
    0
  9
$DIMJOGANG
 40
0.7854
  9
$DIMTFILL
 70
    0
  9
$DIMTFILLCLR
 70
    0
  9
$DIMARCSYM
 70
    0
  9
$DIMLTYPE
  6

  9
$DIMLTEX1
  6

  9
$DIMLTEX2
  6

  9
$LUNITS
 70
    2
  9
$LUPREC
 70
    4
  9
$SKETCHINC
 40
1
  9
$FILLETRAD
 40
0
  9
$AUNITS
 70
    0
  9
$AUPREC
 70
    2
  9
$MENU
  1
.
  9
$ELEVATION
 40
0
  9
$PELEVATION
 40
0
  9
$THICKNESS
 40
0
  9
$LIMCHECK
 70
    0
  9
$CHAMFERA
 40
0
  9
$CHAMFERB
 40
0
  9
$CHAMFERC
 40
0
  9
$CHAMFERD
 40
0
  9
$SKPOLY
 70
    0
  9
$USRTIMER
 70
    1
  9
$ANGBASE
 50
0
  9
$ANGDIR
 70
    0
  9
$PDMODE
 70
   34
  9
$PDSIZE
 40
0
  9
$PLINEWID
 40
0
  9
$SPLFRAME
 70
    0
  9
$SPLINETYPE
 70
    2
  9
$SPLINESEGS
 70
    8
  9
$HANDSEED
  5
20000
  9
$SURFTAB1
 70
    6
  9
$SURFTAB2
 70
    6
  9
$SURFTYPE
 70
    6
  9
$SURFU
 70
    6
  9
$SURFV
 70
    6
  9
$UCSBASE
  2

  9
$UCSNAME
  2

  9
$UCSORG
 10
0
 20
0
 30
0
  9
$UCSXDIR
 10
1
 20
0
 30
0
  9
$UCSYDIR
 10
0
 20
1
 30
0
  9
$UCSORTHOREF
  2

  9
$UCSORTHOVIEW
 70
    0
  9
$UCSORGTOP
 10
0
 20
0
 30
0
  9
$UCSORGBOTTOM
 10
0
 20
0
 30
0
  9
$UCSORGLEFT
 10
0
 20
0
 30
0
  9
$UCSORGRIGHT
 10
0
 20
0
 30
0
  9
$UCSORGFRONT
 10
0
 20
0
 30
0
  9
$UCSORGBACK
 10
0
 20
0
 30
0
  9
$PUCSBASE
  2

  9
$PUCSNAME
  2

  9
$PUCSORG
 10
0
 20
0
 30
0
  9
$PUCSXDIR
 10
1
 20
0
 30
0
  9
$PUCSYDIR
 10
0
 20
1
 30
0
  9
$PUCSORTHOREF
  2

  9
$PUCSORTHOVIEW
 70
    0
  9
$PUCSORGTOP
 10
0
 20
0
 30
0
  9
$PUCSORGBOTTOM
 10
0
 20
0
 30
0
  9
$PUCSORGLEFT
 10
0
 20
0
 30
0
  9
$PUCSORGRIGHT
 10
0
 20
0
 30
0
  9
$PUCSORGFRONT
 10
0
 20
0
 30
0
  9
$PUCSORGBACK
 10
0
 20
0
 30
0
  9
$USERI1
 70
    0
  9
$USERI2
 70
    0
  9
$USERI3
 70
    0
  9
$USERI4
 70
    0
  9
$USERI5
 70
    0
  9
$USERR1
 40
0
  9
$USERR2
 40
0
  9
$USERR3
 40
0
  9
$USERR4
 40
0
  9
$USERR5
 40
0
  9
$WORLDVIEW
 70
    1
  9
$SHADEDGE
 70
    3
  9
$SHADEDIF
 70
   70
  9
$TILEMODE
 70
    1
  9
$MAXACTVP
 70
   64
  9
$PINSBASE
 10
0
 20
0
 30
0
  9
$PLIMCHECK
 70
    0
  9
$PEXTMIN
 10
0
 20
0
 30
0
  9
$PEXTMAX
 10
0
 20
0
 30
0
  9
$GRIDMODE
 70
    1
  9
$SNAPSTYLE
 70
    0
  9
$GRIDUNIT
 10
0
 20
0
  9
$PLIMMIN
 10
0
 20
0
  9
$PLIMMAX
 10
7.820100000000001e-007
 20
1.106e-006
  9
$UNITMODE
 70
    0
  9
$VISRETAIN
 70
    1
  9
$PLINEGEN
 70
    0
  9
$PSLTSCALE
 70
    1
  9
$TREEDEPTH
 70
 3020
  9
$CMLSTYLE
  2
Standard
  9
$CMLJUST
 70
    0
  9
$CMLSCALE
 40
20
  9
$PROXYGRAPHICS
 70
    1
  9
$MEASUREMENT
 70
    1
  9
$CELWEIGHT
370
   -1
  9
$ENDCAPS
280
    0
  9
$JOINSTYLE
280
    0
  9
$LWDISPLAY
290
    0
  9
$INSUNITS
 70
    4
  9
$HYPERLINKBASE
  1

  9
$STYLESHEET
  1

  9
$XEDIT
290
    1
  9
$CEPSNTYPE
380
    0
  9
$PSTYLEMODE
290
    1
  9
$EXTNAMES
290
    1
  9
$PSVPSCALE
 40
1
  9
$OLESTARTUP
290
    0
  9
$SORTENTS
280
  127
  9
$INDEXCTL
280
    0
  9
$HIDETEXT
280
    1
  9
$XCLIPFRAME
290
    0
  9
$HALOGAP
280
    0
  9
$OBSCOLOR
 70
  257
  9
$OBSLTYPE
280
    0
  9
$INTERSECTIONDISPLAY
280
    0
  9
$INTERSECTIONCOLOR
 70
  257
  9
$DIMASSOC
280
    1
  9
$PROJECTNAME
  1

  9
$CAMERADISPLAY
290
    0
  9
$LENSLENGTH
 40
50
  9
$CAMERAHEIGHT
 40
0
  9
$STEPSPERSEC
 40
2
  9
$STEPSIZE
 40
50
  9
$3DDWFPREC
 40
2
  9
$PSOLWIDTH
 40
5
  9
$PSOLHEIGHT
 40
80
  9
$LOFTANG1
 40
1.570796326794897
  9
$LOFTANG2
 40
1.570796326794897
  9
$LOFTMAG1
 40
0
  9
$LOFTMAG2
 40
0
  9
$LOFTPARAM
 70
    7
  9
$LOFTNORMALS
280
    1
  9
$LATITUDE
 40
1
  9
$LONGITUDE
 40
1
  9
$NORTHDIRECTION
 40
0
  9
$TIMEZONE
 70
-8000
  9
$LIGHTGLYPHDISPLAY
280
    1
  9
$TILEMODELIGHTSYNCH
280
    1
  9
$SOLIDHIST
280
    1
  9
$SHOWHIST
280
    1
  9
$DWFFRAME
280
    2
  9
$DGNFRAME
280
    0
  9
$REALWORLDSCALE
290
    1
  9
$INTERFERECOLOR
 62
    1
  9
$CSHADOW
280
    0
  9
$SHADOWPLANELOCATION
 40
0
  0
ENDSEC
  0
SECTION
  2
CLASSES
  0
ENDSEC
  0
SECTION
  2
TABLES
  0
TABLE
  2
VPORT
  5
8
330
0
100
AcDbSymbolTable
 70
    1
  0
VPORT
  5
31
330
2
100
AcDbSymbolTableRecord
100
AcDbViewportTableRecord
  2
*ACTIVE
 70
    0
 10
0
 20
0
 11
1
 21
1
 12
116.4260235306258
 22
68.16354309101048
 13
0
 23
0
 14
10
 24
10
 15
10
 25
10
 16
0
 26
0
 36
1
 17
0
 27
0
 37
0
 40
152.0941116642857
 41
2.017699115044248
 42
50
 43
0
 44
0
 50
0
 51
0
 71
    0
 72
  100
 73
    1
 74
    3
 75
    0
 76
    1
 77
    0
 78
    0
281
    0
 65
    1
110
0
120
0
130
0
111
1
121
0
131
0
112
0
122
1
132
0
 79
    0
146
0
348
10020
 60
    7
 61
    5
292
1
282
    1
141
0
142
0
 63
  250
421
3358443
  0
ENDTAB
  0
TABLE
  2
LTYPE
  5
5
330
0
100
AcDbSymbolTable
 70
    4
  0
LTYPE
  5
14
330
5
100
AcDbSymbolTableRecord
100
AcDbLinetypeTableRecord
  2
ByBlock
 70
    0
  3

 72
   65
 73
    0
 40
0
  0
LTYPE
  5
15
330
5
100
AcDbSymbolTableRecord
100
AcDbLinetypeTableRecord
  2
ByLayer
 70
    0
  3

 72
   65
 73
    0
 40
0
  0
LTYPE
  5
16
330
5
100
AcDbSymbolTableRecord
100
AcDbLinetypeTableRecord
  2
Continuous
 70
    0
  3
Solid line
 72
   65
 73
    0
 40
0
  0
LTYPE
  5
32
330
5
100
AcDbSymbolTableRecord
100
AcDbLinetypeTableRecord
  2
DOT
 70
    0
  3
Dot . . . . . . . . . . . . . . . . . . . . . .
 72
   65
 73
    2
 40
6.35
 49
0
 74
    0
 49
-6.35
 74
    0
  0
LTYPE
  5
33
330
5
100
AcDbSymbolTableRecord
100
AcDbLinetypeTableRecord
  2
DOTTINY
 70
    0
  3
Dot (.15x) .....................................
 72
   65
 73
    2
 40
0.9525
 49
0
 74
    0
 49
-0.9525
 74
    0
  0
LTYPE
  5
34
330
5
100
AcDbSymbolTableRecord
100
AcDbLinetypeTableRecord
  2
DOT2
 70
    0
  3
Dot (.5x) .....................................
 72
   65
 73
    2
 40
3.175
 49
0
 74
    0
 49
-3.175
 74
    0
  0
LTYPE
  5
35
330
5
100
AcDbSymbolTableRecord
100
AcDbLinetypeTableRecord
  2
DOTX2
 70
    0
  3
Dot (2x) .  .  .  .  .  .  .  .  .  .  .  .  .
 72
   65
 73
    2
 40
12.7
 49
0
 74
    0
 49
-12.7
 74
    0
  0
LTYPE
  5
36
330
5
100
AcDbSymbolTableRecord
100
AcDbLinetypeTableRecord
  2
DASHED
 70
    0
  3
Dashed _ _ _ _ _ _ _ _ _ _ _ _ _ _ _ _ _
 72
   65
 73
    2
 40
19.05
 49
12.7
 74
    0
 49
-6.35
 74
    0
  0
LTYPE
  5
37
330
5
100
AcDbSymbolTableRecord
100
AcDbLinetypeTableRecord
  2
DASHEDTINY
 70
    0
  3
Dashed (.15x) _ _ _ _ _ _ _ _ _ _ _ _ _ _ _ _ _
 72
   65
 73
    2
 40
2.8575
 49
1.905
 74
    0
 49
-0.9525
 74
    0
  0
LTYPE
  5
38
330
5
100
AcDbSymbolTableRecord
100
AcDbLinetypeTableRecord
  2
DASHED2
 70
    0
  3
Dashed (.5x) _ _ _ _ _ _ _ _ _ _ _ _ _ _ _ _ _
 72
   65
 73
    2
 40
9.524999999999999
 49
6.35
 74
    0
 49
-3.175
 74
    0
  0
LTYPE
  5
39
330
5
100
AcDbSymbolTableRecord
100
AcDbLinetypeTableRecord
  2
DASHEDX2
 70
    0
  3
Dashed (2x) ____  ____  ____  ____  ____  ___
 72
   65
 73
    2
 40
38.09999999999999
 49
25.4
 74
    0
 49
-12.7
 74
    0
  0
LTYPE
  5
3A
330
5
100
AcDbSymbolTableRecord
100
AcDbLinetypeTableRecord
  2
DASHDOT
 70
    0
  3
Dash dot __ . __ . __ . __ . __ . __ . __ . __
 72
   65
 73
    4
 40
25.4
 49
12.7
 74
    0
 49
-6.35
 74
    0
 49
0
 74
    0
 49
-6.35
 74
    0
  0
LTYPE
  5
3B
330
5
100
AcDbSymbolTableRecord
100
AcDbLinetypeTableRecord
  2
DASHDOTTINY
 70
    0
  3
Dash dot (.15x) _._._._._._._._._._._._._._._.
 72
   65
 73
    4
 40
3.81
 49
1.905
 74
    0
 49
-0.9525
 74
    0
 49
0
 74
    0
 49
-0.9525
 74
    0
  0
LTYPE
  5
3C
330
5
100
AcDbSymbolTableRecord
100
AcDbLinetypeTableRecord
  2
DASHDOT2
 70
    0
  3
Dash dot (.5x) _._._._._._._._._._._._._._._.
 72
   65
 73
    4
 40
12.7
 49
6.35
 74
    0
 49
-3.175
 74
    0
 49
0
 74
    0
 49
-3.175
 74
    0
  0
LTYPE
  5
3D
330
5
100
AcDbSymbolTableRecord
100
AcDbLinetypeTableRecord
  2
DASHDOTX2
 70
    0
  3
Dash dot (2x) ____  .  ____  .  ____  .  ___
 72
   65
 73
    4
 40
50.8
 49
25.4
 74
    0
 49
-12.7
 74
    0
 49
0
 74
    0
 49
-12.7
 74
    0
  0
LTYPE
  5
3E
330
5
100
AcDbSymbolTableRecord
100
AcDbLinetypeTableRecord
  2
DIVIDE
 70
    0
  3
Divide ____ . . ____ . . ____ . . ____ . . ____
 72
   65
 73
    6
 40
31.75
 49
12.7
 74
    0
 49
-6.35
 74
    0
 49
0
 74
    0
 49
-6.35
 74
    0
 49
0
 74
    0
 49
-6.35
 74
    0
  0
LTYPE
  5
3F
330
5
100
AcDbSymbolTableRecord
100
AcDbLinetypeTableRecord
  2
DIVIDETINY
 70
    0
  3
Divide (.15x) __..__..__..__..__..__..__..__.._
 72
   65
 73
    6
 40
4.7625
 49
1.905
 74
    0
 49
-0.9525
 74
    0
 49
0
 74
    0
 49
-0.9525
 74
    0
 49
0
 74
    0
 49
-0.9525
 74
    0
  0
LTYPE
  5
40
330
5
100
AcDbSymbolTableRecord
100
AcDbLinetypeTableRecord
  2
DIVIDE2
 70
    0
  3
Divide (.5x) __..__..__..__..__..__..__..__.._
 72
   65
 73
    6
 40
15.875
 49
6.35
 74
    0
 49
-3.175
 74
    0
 49
0
 74
    0
 49
-3.175
 74
    0
 49
0
 74
    0
 49
-3.175
 74
    0
  0
LTYPE
  5
41
330
5
100
AcDbSymbolTableRecord
100
AcDbLinetypeTableRecord
  2
DIVIDEX2
 70
    0
  3
Divide (2x) ________  .  .  ________  .  .  _
 72
   65
 73
    6
 40
63.5
 49
25.4
 74
    0
 49
-12.7
 74
    0
 49
0
 74
    0
 49
-12.7
 74
    0
 49
0
 74
    0
 49
-12.7
 74
    0
  0
LTYPE
  5
42
330
5
100
AcDbSymbolTableRecord
100
AcDbLinetypeTableRecord
  2
BORDER
 70
    0
  3
Border __ __ . __ __ . __ __ . __ __ . __ __ .
 72
   65
 73
    6
 40
44.45
 49
12.7
 74
    0
 49
-6.35
 74
    0
 49
12.7
 74
    0
 49
-6.35
 74
    0
 49
0
 74
    0
 49
-6.35
 74
    0
  0
LTYPE
  5
43
330
5
100
AcDbSymbolTableRecord
100
AcDbLinetypeTableRecord
  2
BORDERTINY
 70
    0
  3
Border (.15x) __.__.__.__.__.__.__.__.__.__.__.
 72
   65
 73
    6
 40
6.6675
 49
1.905
 74
    0
 49
-0.9525
 74
    0
 49
1.905
 74
    0
 49
-0.9525
 74
    0
 49
0
 74
    0
 49
-0.9525
 74
    0
  0
LTYPE
  5
44
330
5
100
AcDbSymbolTableRecord
100
AcDbLinetypeTableRecord
  2
BORDER2
 70
    0
  3
Border (.5x) __.__.__.__.__.__.__.__.__.__.__.
 72
   65
 73
    6
 40
22.225
 49
6.35
 74
    0
 49
-3.175
 74
    0
 49
6.35
 74
    0
 49
-3.175
 74
    0
 49
0
 74
    0
 49
-3.175
 74
    0
  0
LTYPE
  5
45
330
5
100
AcDbSymbolTableRecord
100
AcDbLinetypeTableRecord
  2
BORDERX2
 70
    0
  3
Border (2x) ____  ____  .  ____  ____  .  ___
 72
   65
 73
    6
 40
88.89999999999999
 49
25.4
 74
    0
 49
-12.7
 74
    0
 49
25.4
 74
    0
 49
-12.7
 74
    0
 49
0
 74
    0
 49
-12.7
 74
    0
  0
LTYPE
  5
46
330
5
100
AcDbSymbolTableRecord
100
AcDbLinetypeTableRecord
  2
CENTER
 70
    0
  3
Center ____ _ ____ _ ____ _ ____ _ ____ _ ____
 72
   65
 73
    4
 40
50.8
 49
31.75
 74
    0
 49
-6.35
 74
    0
 49
6.35
 74
    0
 49
-6.35
 74
    0
  0
LTYPE
  5
47
330
5
100
AcDbSymbolTableRecord
100
AcDbLinetypeTableRecord
  2
CENTERTINY
 70
    0
  3
Center (.15x) ___ _ ___ _ ___ _ ___ _ ___ _ ___
 72
   65
 73
    4
 40
7.62
 49
4.7625
 74
    0
 49
-0.9525
 74
    0
 49
0.9525
 74
    0
 49
-0.9525
 74
    0
  0
LTYPE
  5
48
330
5
100
AcDbSymbolTableRecord
100
AcDbLinetypeTableRecord
  2
CENTER2
 70
    0
  3
Center (.5x) ___ _ ___ _ ___ _ ___ _ ___ _ ___
 72
   65
 73
    4
 40
28.575
 49
19.05
 74
    0
 49
-3.175
 74
    0
 49
3.175
 74
    0
 49
-3.175
 74
    0
  0
LTYPE
  5
49
330
5
100
AcDbSymbolTableRecord
100
AcDbLinetypeTableRecord
  2
CENTERX2
 70
    0
  3
Center (2x) ________  __  ________  __  _____
 72
   65
 73
    4
 40
101.6
 49
63.5
 74
    0
 49
-12.7
 74
    0
 49
12.7
 74
    0
 49
-12.7
 74
    0
  0
ENDTAB
  0
TABLE
  2
LAYER
  5
2
330
0
100
AcDbSymbolTable
 70
    1
  0
LAYER
  5
10
330
2
100
AcDbSymbolTableRecord
100
AcDbLayerTableRecord
  2
0
 70
    0
 62
    7
  6
CONTINUOUS
370
    0
390
F
  0
LAYER
  5
4A
330
2
100
AcDbSymbolTableRecord
100
AcDbLayerTableRecord
  2
amp
 70
    0
 62
    4
  6
CONTINUOUS
370
    0
390
F
  0
LAYER
  5
4B
330
2
100
AcDbSymbolTableRecord
100
AcDbLayerTableRecord
  2
base
 70
    0
 62
    7
  6
CONTINUOUS
370
   -3
390
F
  0
LAYER
  5
4C
330
2
100
AcDbSymbolTableRecord
100
AcDbLayerTableRecord
  2
battery
 70
    0
 62
    4
  6
CONTINUOUS
370
    0
390
F
  0
LAYER
  5
4D
330
2
100
AcDbSymbolTableRecord
100
AcDbLayerTableRecord
  2
board
 70
    0
 62
   34
420
11162880
  6
CONTINUOUS
370
    0
390
F
  0
LAYER
  5
4E
330
2
100
AcDbSymbolTableRecord
100
AcDbLayerTableRecord
  2
breadboard
 70
    0
 62
    4
  6
CONTINUOUS
370
    0
390
F
  0
LAYER
  5
4F
330
2
100
AcDbSymbolTableRecord
100
AcDbLayerTableRecord
  2
buttons
 70
    1
 62
    6
  6
CONTINUOUS
370
    0
390
F
  0
LAYER
  5
50
330
2
100
AcDbSymbolTableRecord
100
AcDbLayerTableRecord
  2
case1
 70
    0
 62
    7
  6
CONTINUOUS
370
    0
390
F
  0
LAYER
  5
51
330
2
100
AcDbSymbolTableRecord
100
AcDbLayerTableRecord
  2
case2
 70
    0
 62
    7
  6
CONTINUOUS
370
    0
390
F
  0
LAYER
  5
52
330
2
100
AcDbSymbolTableRecord
100
AcDbLayerTableRecord
  2
case3
 70
    0
 62
    7
  6
CONTINUOUS
370
    0
390
F
  0
LAYER
  5
53
330
2
100
AcDbSymbolTableRecord
100
AcDbLayerTableRecord
  2
case4-slots
 70
    0
 62
    7
  6
CONTINUOUS
370
    0
390
F
  0
LAYER
  5
54
330
2
100
AcDbSymbolTableRecord
100
AcDbLayerTableRecord
  2
construction1
 70
    0
 62
    2
  6
CONTINUOUS
370
    0
390
F
  0
LAYER
  5
55
330
2
100
AcDbSymbolTableRecord
100
AcDbLayerTableRecord
  2
construction2
 70
    1
 62
    3
  6
CONTINUOUS
370
    0
390
F
  0
LAYER
  5
56
330
2
100
AcDbSymbolTableRecord
100
AcDbLayerTableRecord
  2
handle1
 70
    0
 62
    7
  6
CONTINUOUS
370
    0
390
F
  0
LAYER
  5
57
330
2
100
AcDbSymbolTableRecord
100
AcDbLayerTableRecord
  2
handle2
 70
    0
 62
    7
  6
CONTINUOUS
370
    0
390
F
  0
LAYER
  5
58
330
2
100
AcDbSymbolTableRecord
100
AcDbLayerTableRecord
  2
handle3
 70
    0
 62
    7
  6
CONTINUOUS
370
    0
390
F
  0
LAYER
  5
59
330
2
100
AcDbSymbolTableRecord
100
AcDbLayerTableRecord
  2
isd1820
 70
    0
 62
    4
  6
CONTINUOUS
370
    0
390
F
  0
LAYER
  5
5A
330
2
100
AcDbSymbolTableRecord
100
AcDbLayerTableRecord
  2
pot
 70
    0
 62
    6
  6
CONTINUOUS
370
    0
390
F
  0
LAYER
  5
5B
330
2
100
AcDbSymbolTableRecord
100
AcDbLayerTableRecord
  2
speaker
 70
    0
 62
    4
  6
CONTINUOUS
370
    0
390
F
  0
ENDTAB
  0
TABLE
  2
STYLE
  5
3
330
0
100
AcDbSymbolTable
 70
    3
  0
STYLE
  5
5C
330
2
100
AcDbSymbolTableRecord
100
AcDbTextStyleTableRecord
  2
Standard
 70
    0
 40
0
 41
1
 50
0
 71
    0
 42
1
  3
txt
  4

  0
ENDTAB
  0
TABLE
  2
VIEW
  5
6
330
0
100
AcDbSymbolTable
 70
    0
  0
ENDTAB
  0
TABLE
  2
UCS
  5
7
330
0
100
AcDbSymbolTable
 70
    0
  0
ENDTAB
  0
TABLE
  2
APPID
  5
9
330
0
100
AcDbSymbolTable
 70
    1
  0
APPID
  5
12
330
9
100
AcDbSymbolTableRecord
100
AcDbRegAppTableRecord
  2
ACAD
 70
    0
  0
APPID
  5
5D
330
9
100
AcDbSymbolTableRecord
100
AcDbRegAppTableRecord
  2
LibreCad
 70
    0
  0
ENDTAB
  0
TABLE
  2
DIMSTYLE
  5
A
330
0
100
AcDbSymbolTable
 70
    1
100
AcDbDimStyleTable
 71
    1
  0
DIMSTYLE
105
5E
330
A
100
AcDbSymbolTableRecord
100
AcDbDimStyleTableRecord
  2
Standard
 70
    0
 40
1
 41
2.5
 42
0.025
 43
0.38
 44
1.25
 45
0
 46
0
 47
0
 48
0
 49
1
140
2
141
0.09
142
0
143
25.4
144
1
145
0
146
1
147
0.5
148
0
 71
    0
 72
    0
 73
    0
 74
    1
 75
    0
 76
    0
 77
    0
 78
    8
 79
    0
170
    0
171
    2
172
    0
173
    0
174
    0
175
    0
176
    0
177
    0
178
    0
179
    0
271
    2
272
    4
273
    2
274
    2
275
    0
276
    0
277
    2
278
   44
279
    0
280
    0
281
    0
282
    0
283
    1
284
    0
285
    0
286
    0
288
    0
289
    3
340
standard
341

371
   -2
372
   -2
  0
ENDTAB
  0
TABLE
  2
BLOCK_RECORD
  5
1
330
0
100
AcDbSymbolTable
 70
    2
  0
BLOCK_RECORD
  5
1F
330
1
100
AcDbSymbolTableRecord
100
AcDbBlockTableRecord
  2
*Model_Space
 70
    0
280
    1
281
    0
  0
BLOCK_RECORD
  5
1E
330
1
100
AcDbSymbolTableRecord
100
AcDbBlockTableRecord
  2
*Paper_Space
 70
    0
280
    1
281
    0
  0
BLOCK_RECORD
  5
5F
330
1
100
AcDbSymbolTableRecord
100
AcDbBlockTableRecord
  2
*D2
 70
    0
280
    1
281
    0
  0
BLOCK_RECORD
  5
62
330
1
100
AcDbSymbolTableRecord
100
AcDbBlockTableRecord
  2
*D1
 70
    0
280
    1
281
    0
  0
BLOCK_RECORD
  5
65
330
1
100
AcDbSymbolTableRecord
100
AcDbBlockTableRecord
  2
button-block
 70
    0
280
    1
281
    0
  0
BLOCK_RECORD
  5
68
330
1
100
AcDbSymbolTableRecord
100
AcDbBlockTableRecord
  2
potentiometer
 70
    0
280
    1
281
    0
  0
BLOCK_RECORD
  5
6B
330
1
100
AcDbSymbolTableRecord
100
AcDbBlockTableRecord
  2
spacer tab
 70
    0
280
    1
281
    0
  0
BLOCK_RECORD
  5
6E
330
1
100
AcDbSymbolTableRecord
100
AcDbBlockTableRecord
  2
spacers
 70
    0
280
    1
281
    0
  0
BLOCK_RECORD
  5
71
330
1
100
AcDbSymbolTableRecord
100
AcDbBlockTableRecord
  2
5x7
 70
    0
280
    1
281
    0
  0
BLOCK_RECORD
  5
74
330
1
100
AcDbSymbolTableRecord
100
AcDbBlockTableRecord
  2
slot
 70
    0
280
    1
281
    0
  0
ENDTAB
  0
ENDSEC
  0
SECTION
  2
BLOCKS
  0
BLOCK
  5
20
330
1F
100
AcDbEntity
  8
0
100
AcDbBlockBegin
  2
*Model_Space
 70
    0
 10
0
 20
0
 30
0
  3
*Model_Space
  1

  0
ENDBLK
  5
21
330
1F
100
AcDbEntity
  8
0
100
AcDbBlockEnd
  0
BLOCK
  5
1C
330
1B
100
AcDbEntity
  8
0
100
AcDbBlockBegin
  2
*Paper_Space
 70
    0
 10
0
 20
0
 30
0
  3
*Paper_Space
  1

  0
ENDBLK
  5
1D
330
1F
100
AcDbEntity
  8
0
100
AcDbBlockEnd
  0
BLOCK
  5
60
330
5F
100
AcDbEntity
  8
0
100
AcDbBlockBegin
  2
*D2
 70
    1
 10
0
 20
0
  3
*D2
  1

  0
LINE
  5
77
100
AcDbEntity
  8
pot
  6
ByBlock
 62
    0
370
   -2
100
AcDbLine
 10
95.92285214119981
 20
57.14878067672856
 11
95.92285214119981
 21
59.25
  0
LINE
  5
78
100
AcDbEntity
  8
pot
  6
ByBlock
 62
    0
370
   -2
100
AcDbLine
 10
112.9228521411998
 20
57.14878067672856
 11
112.9228521411998
 21
59.25
  0
LINE
  5
79
100
AcDbEntity
  8
pot
  6
ByBlock
 62
    0
370
   -2
100
AcDbLine
 10
95.92285214119981
 20
58
 11
112.9228521411998
 21
58
  0
SOLID
  5
7A
100
AcDbEntity
  8
pot
  6
ByBlock
 62
    0
370
   -2
100
AcDbTrace
 10
95.92285214119981
 20
58
 30
0
 11
98.42285214119981
 21
58.41628465777284
 31
0
 12
98.42285214119981
 22
57.58371534222716
 32
0
 13
98.42285214119981
 23
57.58371534222716
 33
0
  0
SOLID
  5
7B
100
AcDbEntity
  8
pot
  6
ByBlock
 62
    0
370
   -2
100
AcDbTrace
 10
112.9228521411998
 20
58
 30
0
 11
110.4228521411998
 21
57.58371534222716
 31
0
 12
110.4228521411998
 22
58.41628465777284
 32
0
 13
110.4228521411998
 23
58.41628465777284
 33
0
  0
MTEXT
  5
7C
100
AcDbEntity
  8
pot
  6
CONTINUOUS
 62
    0
370
   -2
100
AcDbMText
 10
104.4228521411998
 20
59.5
 30
0
 40
2
 41
2
 71
    5
 72
    1
  1
17
  7
standard
210
0
220
0
230
1
 50
0
 73
    2
 44
1
  0
ENDBLK
  5
61
330
5F
100
AcDbEntity
  8
0
100
AcDbBlockEnd
  0
BLOCK
  5
63
330
62
100
AcDbEntity
  8
0
100
AcDbBlockBegin
  2
*D1
 70
    1
 10
0
 20
0
  3
*D1
  1

  0
LINE
  5
7D
100
AcDbEntity
  8
pot
  6
ByBlock
 62
    0
370
   -2
100
AcDbLine
 10
112.9478521411998
 20
57.12378067672856
 11
117.9315566746672
 21
57.12378067672856
  0
LINE
  5
7E
100
AcDbEntity
  8
pot
  6
ByBlock
 62
    0
370
   -2
100
AcDbLine
 10
112.9478521411998
 20
48.12378067672856
 11
117.9315566746672
 21
48.12378067672856
  0
LINE
  5
7F
100
AcDbEntity
  8
pot
  6
ByBlock
 62
    0
370
   -2
100
AcDbLine
 10
116.6815566746672
 20
57.12378067672856
 11
116.6815566746672
 21
48.12378067672856
  0
SOLID
  5
80
100
AcDbEntity
  8
pot
  6
ByBlock
 62
    0
370
   -2
100
AcDbTrace
 10
116.6815566746672
 20
57.12378067672856
 30
0
 11
117.09784133244
 21
54.62378067672856
 31
0
 12
116.2652720168944
 22
54.62378067672856
 32
0
 13
116.2652720168944
 23
54.62378067672856
 33
0
  0
SOLID
  5
81
100
AcDbEntity
  8
pot
  6
ByBlock
 62
    0
370
   -2
100
AcDbTrace
 10
116.6815566746672
 20
48.12378067672856
 30
0
 11
116.2652720168944
 21
50.62378067672856
 31
0
 12
117.09784133244
 22
50.62378067672856
 32
0
 13
117.09784133244
 23
50.62378067672856
 33
0
  0
MTEXT
  5
82
100
AcDbEntity
  8
pot
  6
CONTINUOUS
 62
    0
370
   -2
100
AcDbMText
 10
115.1815566746672
 20
52.62378067672856
 30
0
 40
2
 41
0.8888888888890129
 71
    5
 72
    1
  1
9
  7
standard
210
0
220
0
230
1
 50
90
 73
    2
 44
1
  0
ENDBLK
  5
64
330
62
100
AcDbEntity
  8
0
100
AcDbBlockEnd
  0
BLOCK
  5
66
330
65
100
AcDbEntity
  8
0
100
AcDbBlockBegin
  2
button-block
 70
    0
 10
0
 20
0
  3
button-block
  1

  0
LWPOLYLINE
  5
83
100
AcDbEntity
  8
0
  6
ByLayer
 62
  256
370
   -1
100
AcDbPolyline
 90
    4
 70
    1
 43
0
 10
-12.5
 20
3.000000000000001
 10
-12.5
 20
3.000000000000001
 10
-12.5
 20
3.000000000000001
 10
-12.5
 20
3.000000000000001
  0
LWPOLYLINE
  5
84
100
AcDbEntity
  8
0
  6
ByLayer
 62
    1
370
   -1
100
AcDbPolyline
 90
    4
 70
    1
 43
0
 10
-12.5
 20
-2.999999999999999
 10
-9
 20
-2.999999999999999
 10
-9
 20
3.000000000000001
 10
-12.5
 20
3.000000000000001
  0
LINE
  5
85
100
AcDbEntity
  8
0
  6
ByLayer
 62
    8
370
   -1
100
AcDbLine
 10
2
 20
-3.499999999999999
 11
8.25
 21
-3.499999999999999
  0
LINE
  5
86
100
AcDbEntity
  8
0
  6
ByLayer
 62
    8
370
   -1
100
AcDbLine
 10
8.25
 20
3.500000000000001
 11
2
 21
3.500000000000001
  0
LINE
  5
87
100
AcDbEntity
  8
0
  6
ByLayer
 62
  253
420
10526884
370
   -1
100
AcDbLine
 10
-9
 20
-1.999999999999999
 11
-6.5
 21
-1.999999999999999
  0
LINE
  5
88
100
AcDbEntity
  8
0
  6
ByLayer
 62
  253
420
10526884
370
   -1
100
AcDbLine
 10
-6.5
 20
2.000000000000001
 11
-9
 21
2.000000000000001
  0
LWPOLYLINE
  5
89
100
AcDbEntity
  8
0
  6
ByLayer
 62
    7
370
   -1
100
AcDbPolyline
 90
    4
 70
    1
 43
0
 10
0
 20
-4.999999999999999
 10
2
 20
-4.999999999999999
 10
2
 20
5.000000000000001
 10
0
 20
5.000000000000001
  0
LINE
  5
8A
100
AcDbEntity
  8
0
  6
ByLayer
 62
    7
370
   -1
100
AcDbLine
 10
8.25
 20
-3.499999999999999
 11
8.25
 21
3.500000000000001
  0
LINE
  5
8B
100
AcDbEntity
  8
0
  6
ByLayer
 62
    7
370
   -1
100
AcDbLine
 10
-6.5
 20
-3.539999999999999
 11
0
 21
-3.539999999999999
  0
LINE
  5
8C
100
AcDbEntity
  8
0
  6
ByLayer
 62
    7
370
   -1
100
AcDbLine
 10
0
 20
3.540000000000001
 11
-6.5
 21
3.540000000000001
  0
LINE
  5
8D
100
AcDbEntity
  8
0
  6
ByLayer
 62
    7
370
   -1
100
AcDbLine
 10
-6.5
 20
3.540000000000001
 11
-6.5
 21
-3.539999999999999
  0
CIRCLE
  5
8E
100
AcDbEntity
  8
0
  6
ByLayer
 62
    7
370
   -1
100
AcDbCircle
 10
13.5
 20
1.127570259384925e-015
 40
0.5
  0
LINE
  5
8F
100
AcDbEntity
  8
0
  6
ByLayer
 62
    7
370
   -1
100
AcDbLine
 10
13.5
 20
1.000000000000001
 11
8.25
 21
1.000000000000001
  0
LINE
  5
90
100
AcDbEntity
  8
0
  6
ByLayer
 62
    7
370
   -1
100
AcDbLine
 10
8.25
 20
-0.999999999999999
 11
13.49999973529911
 21
-0.999999999999999
  0
ARC
  5
91
100
AcDbEntity
  8
0
  6
ByLayer
 62
    7
370
   -1
100
AcDbCircle
 10
13.5
 20
1.127570259384925e-015
 40
1
100
AcDbArc
 50
270.0000245596733
 51
90
  0
LINE
  5
92
100
AcDbEntity
  8
0
  6
ByLayer
 62
    7
370
   -1
100
AcDbLine
 10
-5.5575
 20
-3.539999999999999
 11
-5.5
 21
-3.999999999999999
  0
LINE
  5
93
100
AcDbEntity
  8
0
  6
ByLayer
 62
    7
370
   -1
100
AcDbLine
 10
-4.5
 20
-3.999999999999999
 11
-4.5575
 21
-3.539999999999999
  0
LINE
  5
94
100
AcDbEntity
  8
0
  6
ByLayer
 62
    7
370
   -1
100
AcDbLine
 10
-3.557499999999999
 20
-3.539999999999999
 11
-3.5
 21
-3.999999999999999
  0
LINE
  5
95
100
AcDbEntity
  8
0
  6
ByLayer
 62
    7
370
   -1
100
AcDbLine
 10
-2.557499999999999
 20
-3.539999999999999
 11
-2.5
 21
-3.999999999999999
  0
LINE
  5
96
100
AcDbEntity
  8
0
  6
ByLayer
 62
    7
370
   -1
100
AcDbLine
 10
-1.557499999999999
 20
-3.539999999999999
 11
-1.5
 21
-3.999999999999999
  0
LINE
  5
97
100
AcDbEntity
  8
0
  6
ByLayer
 62
    7
370
   -1
100
AcDbLine
 10
-0.5574999999999992
 20
-3.539999999999999
 11
-0.5
 21
-3.999999999999999
  0
LINE
  5
98
100
AcDbEntity
  8
0
  6
ByLayer
 62
    7
370
   -1
100
AcDbLine
 10
-0.5
 20
4.000000000000001
 11
-0.4425000000000008
 21
3.540000000000001
  0
LINE
  5
99
100
AcDbEntity
  8
0
  6
ByLayer
 62
    7
370
   -1
100
AcDbLine
 10
-0.4425000000000008
 20
3.540000000000001
 11
0
 21
1.002670169114595e-015
  0
LINE
  5
9A
100
AcDbEntity
  8
0
  6
ByLayer
 62
    7
370
   -1
100
AcDbLine
 10
-1.5
 20
4.000000000000001
 11
-1.442499999999999
 21
3.540000000000001
  0
LINE
  5
9B
100
AcDbEntity
  8
0
  6
ByLayer
 62
    7
370
   -1
100
AcDbLine
 10
-1.442499999999999
 20
3.540000000000001
 11
-0.5574999999999992
 21
-3.539999999999999
  0
LINE
  5
9C
100
AcDbEntity
  8
0
  6
ByLayer
 62
    7
370
   -1
100
AcDbLine
 10
-2.5
 20
4.000000000000001
 11
-2.442500000000001
 21
3.540000000000001
  0
LINE
  5
9D
100
AcDbEntity
  8
0
  6
ByLayer
 62
    7
370
   -1
100
AcDbLine
 10
-2.442500000000001
 20
3.540000000000001
 11
-1.557499999999999
 21
-3.539999999999999
  0
LINE
  5
9E
100
AcDbEntity
  8
0
  6
ByLayer
 62
    7
370
   -1
100
AcDbLine
 10
-3.5
 20
4.000000000000001
 11
-3.442499999999999
 21
3.540000000000001
  0
LINE
  5
9F
100
AcDbEntity
  8
0
  6
ByLayer
 62
    7
370
   -1
100
AcDbLine
 10
-3.442499999999999
 20
3.540000000000001
 11
-2.557499999999999
 21
-3.539999999999999
  0
LINE
  5
A0
100
AcDbEntity
  8
0
  6
ByLayer
 62
    7
370
   -1
100
AcDbLine
 10
-4.5
 20
4.000000000000001
 11
-4.442500000000001
 21
3.540000000000001
  0
LINE
  5
A1
100
AcDbEntity
  8
0
  6
ByLayer
 62
    7
370
   -1
100
AcDbLine
 10
-4.442500000000001
 20
3.540000000000001
 11
-3.557499999999999
 21
-3.539999999999999
  0
LINE
  5
A2
100
AcDbEntity
  8
0
  6
ByLayer
 62
    7
370
   -1
100
AcDbLine
 10
-4.5575
 20
-3.539999999999999
 11
-5.4425
 21
3.540000000000001
  0
LINE
  5
A3
100
AcDbEntity
  8
0
  6
ByLayer
 62
    7
370
   -1
100
AcDbLine
 10
-5.4425
 20
3.540000000000001
 11
-5.5
 21
4.000000000000001
  0
LINE
  5
A4
100
AcDbEntity
  8
0
  6
ByLayer
 62
    7
370
   -1
100
AcDbLine
 10
-6.4425
 20
3.540000000000001
 11
-5.5575
 21
-3.539999999999999
  0
ENDBLK
  5
67
330
65
100
AcDbEntity
  8
0
100
AcDbBlockEnd
  0
BLOCK
  5
69
330
68
100
AcDbEntity
  8
0
100
AcDbBlockBegin
  2
potentiometer
 70
    0
 10
0
 20
0
  3
potentiometer
  1

  0
LINE
  5
A5
100
AcDbEntity
  8
0
  6
ByLayer
 62
  256
370
   -1
100
AcDbLine
 10
-3.5
 20
7.5
 11
-3.5
 21
-7.5
  0
LWPOLYLINE
  5
A6
100
AcDbEntity
  8
0
  6
ByLayer
 62
   56
420
8421376
370
   -1
100
AcDbPolyline
 90
    4
 70
    1
 43
0
 10
-9
 20
-8.5
 10
-3.5
 20
-8.5
 10
-3.5
 20
8.5
 10
-9
 20
8.5
  0
LINE
  5
A7
100
AcDbEntity
  8
0
  6
ByLayer
 62
   34
420
11162880
370
   -1
100
AcDbLine
 10
-2
 20
7.5
 11
-3.5
 21
7.5
  0
LINE
  5
A8
100
AcDbEntity
  8
0
  6
ByLayer
 62
   34
420
11162880
370
   -1
100
AcDbLine
 10
-2
 20
-12
 11
-3.5
 21
-12
  0
LINE
  5
A9
100
AcDbEntity
  8
0
  6
ByLayer
 62
   34
420
11162880
370
   -1
100
AcDbLine
 10
-3.5
 20
-12
 11
-3.5
 21
-8.5
  0
LINE
  5
AA
100
AcDbEntity
  8
0
  6
ByLayer
 62
   34
420
11162880
370
   -1
100
AcDbLine
 10
-2
 20
-12
 11
-2
 21
7.5
  0
LINE
  5
AB
100
AcDbEntity
  8
0
  6
ByLayer
 62
  253
420
10526884
370
   -1
100
AcDbLine
 10
-3.920000000000002
 20
-8.5
 11
-3.920000000000002
 21
-17
  0
LINE
  5
AC
100
AcDbEntity
  8
0
  6
ByLayer
 62
  253
420
10526884
370
   -1
100
AcDbLine
 10
-3.920000000000002
 20
-17
 11
-3.5
 21
-17
  0
LINE
  5
AD
100
AcDbEntity
  8
0
  6
ByLayer
 62
  253
420
10526884
370
   -1
100
AcDbLine
 10
-3.5
 20
-17
 11
-3.5
 21
-12
  0
LWPOLYLINE
  5
AE
100
AcDbEntity
  8
0
  6
ByLayer
 62
  253
420
10526884
370
   -1
100
AcDbPolyline
 90
    4
 70
    1
 43
0
 10
6.5
 20
-3
 10
15
 20
-3
 10
15
 20
3
 10
6.5
 20
3
  0
LINE
  5
AF
100
AcDbEntity
  8
0
  6
ByLayer
 62
  253
420
10526884
370
   -1
100
AcDbLine
 10
7
 20
2
 11
14
 21
2
  0
LINE
  5
B0
100
AcDbEntity
  8
0
  6
ByLayer
 62
  253
420
10526884
370
   -1
100
AcDbLine
 10
7
 20
1
 11
14
 21
1
  0
LINE
  5
B1
100
AcDbEntity
  8
0
  6
ByLayer
 62
  253
420
10526884
370
   -1
100
AcDbLine
 10
7
 20
0
 11
14
 21
0
  0
LINE
  5
B2
100
AcDbEntity
  8
0
  6
ByLayer
 62
  253
420
10526884
370
   -1
100
AcDbLine
 10
7
 20
-1
 11
14
 21
-1
  0
LINE
  5
B3
100
AcDbEntity
  8
0
  6
ByLayer
 62
  253
420
10526884
370
   -1
100
AcDbLine
 10
7
 20
-2
 11
14
 21
-2
  0
LWPOLYLINE
  5
B4
100
AcDbEntity
  8
0
  6
ByLayer
 62
    7
370
   -1
100
AcDbPolyline
 90
    4
 70
    1
 43
0
 10
0
 20
-3.5
 10
6.5
 20
-3.5
 10
6.5
 20
3.5
 10
0
 20
3.5
  0
LINE
  5
B5
100
AcDbEntity
  8
0
  6
ByLayer
 62
    7
370
   -1
100
AcDbLine
 10
0
 20
3.5
 11
1
 21
-4
  0
LINE
  5
B6
100
AcDbEntity
  8
0
  6
ByLayer
 62
    7
370
   -1
100
AcDbLine
 10
6
 20
-4
 11
5
 21
4
  0
LINE
  5
B7
100
AcDbEntity
  8
0
  6
ByLayer
 62
    7
370
   -1
100
AcDbLine
 10
5
 20
-4
 11
4
 21
4
  0
LINE
  5
B8
100
AcDbEntity
  8
0
  6
ByLayer
 62
    7
370
   -1
100
AcDbLine
 10
3
 20
4
 11
4
 21
-4
  0
LINE
  5
B9
100
AcDbEntity
  8
0
  6
ByLayer
 62
    7
370
   -1
100
AcDbLine
 10
3
 20
-4
 11
2
 21
4
  0
LINE
  5
BA
100
AcDbEntity
  8
0
  6
ByLayer
 62
    7
370
   -1
100
AcDbLine
 10
1
 20
4
 11
2
 21
-4
  0
LINE
  5
BB
100
AcDbEntity
  8
0
  6
ByLayer
 62
    7
370
   -1
100
AcDbLine
 10
6
 20
4
 11
6.5
 21
0
  0
LINE
  5
BC
100
AcDbEntity
  8
0
  6
ByLayer
 62
    7
370
   -1
100
AcDbLine
 10
0
 20
-5
 11
0
 21
5
  0
LINE
  5
BD
100
AcDbEntity
  8
0
  6
ByLayer
 62
    7
370
   -1
100
AcDbLine
 10
0
 20
5
 11
-2
 21
5
  0
LINE
  5
BE
100
AcDbEntity
  8
0
  6
ByLayer
 62
    7
370
   -1
100
AcDbLine
 10
-2
 20
-5
 11
0
 21
-5
  0
ENDBLK
  5
6A
330
68
100
AcDbEntity
  8
0
100
AcDbBlockEnd
  0
BLOCK
  5
6C
330
6B
100
AcDbEntity
  8
0
100
AcDbBlockBegin
  2
spacer tab
 70
    0
 10
0
 20
0
  3
spacer tab
  1

  0
ENDBLK
  5
6D
330
6B
100
AcDbEntity
  8
0
100
AcDbBlockEnd
  0
BLOCK
  5
6F
330
6E
100
AcDbEntity
  8
0
100
AcDbBlockBegin
  2
spacers
 70
    0
 10
0
 20
0
  3
spacers
  1

  0
DIMENSION
  5
BF
100
AcDbEntity
  8
construction1
  6
ByLayer
 62
  256
370
   -1
100
AcDbDimension
 10
-7
 20
-2
 30
0
 11
-17
 21
-0.9750000000000014
 31
0
 70
   33
 71
    5
  3
Standard
 53
0
210
0
220
0
230
1
100
AcDbAlignedDimension
 13
-27
 23
-4
 33
0
 14
-7
 24
-4
 34
0
  0
LINE
  5
C0
100
AcDbEntity
  8
construction1
  6
ByLayer
 62
  256
370
   -1
100
AcDbLine
 10
-33
 20
-10
 11
-2
 21
-10
  0
ENDBLK
  5
70
330
6E
100
AcDbEntity
  8
0
100
AcDbBlockEnd
  0
BLOCK
  5
72
330
71
100
AcDbEntity
  8
0
100
AcDbBlockBegin
  2
5x7
 70
    0
 10
0
 20
0
  3
5x7
  1

  0
LWPOLYLINE
  5
C1
100
AcDbEntity
  8
board
  6
ByLayer
 62
  256
370
   -1
100
AcDbPolyline
 90
    4
 70
    1
 43
0
 10
-220
 20
-120
 10
-42.19999999999999
 20
-120
 10
-42.19999999999999
 20
7
 10
-220
 20
7
  0
LWPOLYLINE
  5
C2
100
AcDbEntity
  8
board
  6
ByLayer
 62
   16
420
8388608
370
   -1
100
AcDbPolyline
 90
    4
 70
    1
 43
0
 10
-215
 20
-115
 10
-47.19999999999999
 20
-115
 10
-47.19999999999999
 20
2
 10
-215
 20
2
  0
DIMENSION
  5
C3
100
AcDbEntity
  8
construction1
  6
ByLayer
 62
  256
370
   -1
100
AcDbDimension
 10
-42.19999999999999
 20
9.798702228946411
 30
0
 11
-131.1
 21
11.29870222894641
 31
0
 70
   32
  1
7"
 71
    5
 72
    0
  3
Standard
 53
0
210
0
220
0
230
1
100
AcDbAlignedDimension
 13
-220
 23
7
 33
0
 14
-42.19999999999999
 24
7
 34
0
100
AcDbRotatedDimension
  0
DIMENSION
  5
C4
100
AcDbEntity
  8
construction1
  6
ByLayer
 62
  256
370
   -1
100
AcDbDimension
 10
-223
 20
-120
 30
0
 11
-224.5
 21
-56.5
 31
0
 70
   33
  1
5"
 71
    5
  3
Standard
 53
0
210
0
220
0
230
1
100
AcDbAlignedDimension
 13
-220
 23
7
 33
0
 14
-220
 24
-120
 34
0
  0
ENDBLK
  5
73
330
71
100
AcDbEntity
  8
0
100
AcDbBlockEnd
  0
BLOCK
  5
75
330
74
100
AcDbEntity
  8
0
100
AcDbBlockBegin
  2
slot
 70
    0
 10
0
 20
0
  3
slot
  1

  0
DIMENSION
  5
C5
100
AcDbEntity
  8
construction1
  6
ByLayer
 62
  256
370
   -1
100
AcDbDimension
 10
17.99999989366499
 20
11
 30
0
 11
14.99999984966394
 21
12.5
 31
0
 70
   33
 71
    5
  3
Standard
 53
0
210
0
220
0
230
1
100
AcDbAlignedDimension
 13
11.99999980566288
 23
9.6
 33
0
 14
17.99999989366499
 24
9.6
 34
0
  0
ARC
  5
C6
100
AcDbEntity
  8
case4-slots
  6
ByLayer
 62
  256
370
   -1
100
AcDbCircle
 10
12
 20
8.300000000000001
 40
1.3
100
AcDbArc
 50
89.99999143484852
 51
270
  0
ARC
  5
C7
100
AcDbEntity
  8
case4-slots
  6
ByLayer
 62
  256
370
   -1
100
AcDbCircle
 10
18
 20
8.300000000000001
 40
1.3
100
AcDbArc
 50
270
 51
450
  0
LINE
  5
C8
100
AcDbEntity
  8
case4-slots
  6
ByLayer
 62
  256
370
   -1
100
AcDbLine
 10
12
 20
7
 11
18
 21
7
  0
LINE
  5
C9
100
AcDbEntity
  8
case4-slots
  6
ByLayer
 62
  256
370
   -1
100
AcDbLine
 10
18
 20
9.6
 11
12
 21
9.6
  0
ENDBLK
  5
76
330
74
100
AcDbEntity
  8
0
100
AcDbBlockEnd
  0
ENDSEC
  0
SECTION
  2
ENTITIES
  0
LINE
  5
CA
100
AcDbEntity
  8
construction1
  6
ByLayer
 62
  256
370
   -1
100
AcDbLine
 10
0
 20
90
 11
177.8
 21
90
  0
LWPOLYLINE
  5
CB
100
AcDbEntity
  8
breadboard
  6
ByLayer
 62
  256
370
   -1
100
AcDbPolyline
 90
    4
 70
    1
 43
0
 10
106.9515963062485
 20
72.5
 10
153.9515963062485
 20
72.5
 10
153.9515963062485
 20
107.5
 10
106.9515963062485
 20
107.5
  0
LINE
  5
CC
100
AcDbEntity
  8
construction2
  6
ByLayer
 62
  256
370
   -1
100
AcDbLine
 10
153.9515963062485
 20
107.5
 11
106.9515963062485
 21
72.5
  0
LINE
  5
CD
100
AcDbEntity
  8
construction2
  6
ByLayer
 62
  256
370
   -1
100
AcDbLine
 10
106.9515963062485
 20
107.5
 11
153.9515963062485
 21
72.5
  0
ARC
  5
CE
100
AcDbEntity
  8
case1
  6
ByLayer
 62
  256
370
   -1
100
AcDbCircle
 10
168.2500960682599
 20
106.8332226221709
 40
11.79106548259033
100
AcDbArc
 50
67.30695204662213
 51
232.1126206168933
  0
ARC
  5
CF
100
AcDbEntity
  8
case1
  6
ByLayer
 62
  256
370
   -1
100
AcDbCircle
 10
88.90000000000001
 20
208.4212996385659
 40
145.1303352441764
100
AcDbArc
 50
234.6829084542793
 51
305.3170915457207
  0
ARC
  5
D0
100
AcDbEntity
  8
case1
  6
ByLayer
 62
  256
370
   -1
100
AcDbCircle
 10
88.90000000000001
 20
-28.42129963856594
 40
145.1303352441764
100
AcDbArc
 50
70.57462765201606
 51
125.3170915457207
  0
ARC
  5
D1
100
AcDbEntity
  8
case1
  6
ByLayer
 62
  256
370
   -1
100
AcDbCircle
 10
88.90000000000001
 20
-28.42129963856594
 40
145.1303352441764
100
AcDbArc
 50
54.68290845427929
 51
60.20770148355518
  0
LWPOLYLINE
  5
D2
100
AcDbEntity
  8
battery
  6
ByLayer
 62
  256
370
   -1
100
AcDbPolyline
 90
    4
 70
    1
 43
0
 10
162.9441801130134
 20
-15.6838451486178
 10
194.4684311682843
 20
-2.947220972476792
 10
168.2459696291705
 20
61.95564884719832
 10
136.7217185738998
 20
49.2190246710573
  0
LINE
  5
D3
100
AcDbEntity
  8
construction2
  6
ByLayer
 62
  256
370
   -1
100
AcDbLine
 10
168.9951828160023
 20
60.10128113806473
 11
163.895671615885
 21
58.04094487427722
  0
LINE
  5
D4
100
AcDbEntity
  8
construction2
  6
ByLayer
 62
  256
370
   -1
100
AcDbLine
 10
173.1158553435774
 20
49.90225873783007
 11
168.0163441434601
 21
47.84192247404254
  0
LINE
  5
D5
100
AcDbEntity
  8
construction2
  6
ByLayer
 62
  256
370
   -1
100
AcDbLine
 10
141.5916042883067
 20
37.16563456168906
 11
146.6911154884239
 21
39.22597082547658
  0
LINE
  5
D6
100
AcDbEntity
  8
construction2
  6
ByLayer
 62
  256
370
   -1
100
AcDbLine
 10
137.4709317607316
 20
47.36465696192371
 11
142.5704429608489
 21
49.42499322571124
  0
LINE
  5
D7
100
AcDbEntity
  8
construction2
  6
ByLayer
 62
  256
370
   -1
100
AcDbLine
 10
106.9515963062485
 20
90
 11
111.4515963062485
 21
90
  0
LINE
  5
D8
100
AcDbEntity
  8
construction2
  6
ByLayer
 62
  256
370
   -1
100
AcDbLine
 10
153.9515963062485
 20
90
 11
149.4515963062485
 21
90
  0
LINE
  5
D9
100
AcDbEntity
  8
construction2
  6
ByLayer
 62
  256
370
   -1
100
AcDbLine
 10
193.1679713856454
 20
0.271529938929406
 11
198.7310745130461
 21
2.519169499424878
  0
LINE
  5
DA
100
AcDbEntity
  8
construction2
  6
ByLayer
 62
  256
370
   -1
100
AcDbLine
 10
161.6437217975086
 20
-12.46509786849581
 11
156.0806186701078
 21
-14.71273742899128
  0
LINE
  5
DB
100
AcDbEntity
  8
construction2
  6
ByLayer
 62
  256
370
   -1
100
AcDbLine
 10
178.7063056406489
 20
-9.315533060547297
 11
179.4555188274807
 21
-11.16990076968087
  0
LINE
  5
DC
100
AcDbEntity
  8
construction2
  6
ByLayer
 62
  256
370
   -1
100
AcDbLine
 10
178.7063056406489
 20
-9.315533060547299
 11
176.0840594867375
 21
-2.825246078579787
  0
LINE
  5
DD
100
AcDbEntity
  8
construction2
  6
ByLayer
 62
  256
370
   -1
100
AcDbLine
 10
194.4684311682843
 20
-2.947220972476792
 11
191.8461850143729
 21
3.54306600949072
  0
LINE
  5
DE
100
AcDbEntity
  8
construction2
  6
ByLayer
 62
  256
370
   -1
100
AcDbLine
 10
162.9441801130134
 20
-15.6838451486178
 11
160.321933959102
 21
-9.193558166650291
  0
LINE
  5
DF
100
AcDbEntity
  8
construction2
  6
ByLayer
 62
  256
370
   -1
100
AcDbLine
 10
191.8461850143729
 20
3.54306600949072
 11
192.7733688689397
 21
3.917672602906632
  0
LINE
  5
E0
100
AcDbEntity
  8
construction2
  6
ByLayer
 62
  256
370
   -1
100
AcDbLine
 10
160.321933959102
 20
-9.193558166650291
 11
159.3947501045353
 21
-9.568164760066203
  0
LINE
  5
E1
100
AcDbEntity
  8
construction2
  6
ByLayer
 62
  256
370
   -1
100
AcDbLine
 10
136.7217185738998
 20
49.21902467105729
 11
135.794534719333
 21
48.84441807764138
  0
LINE
  5
E2
100
AcDbEntity
  8
construction2
  6
ByLayer
 62
  256
370
   -1
100
AcDbLine
 10
168.2459696291705
 20
61.95564884719832
 11
169.1731534837373
 21
62.33025544061423
  0
LINE
  5
E3
100
AcDbEntity
  8
construction2
  6
ByLayer
 62
  256
370
   -1
100
AcDbLine
 10
178.7063056406489
 20
-9.315533060547297
 11
174.2110265196579
 21
1.810673194254152
  0
LINE
  5
E4
100
AcDbEntity
  8
construction2
  6
ByLayer
 62
  256
370
   -1
100
AcDbLine
 10
194.4684311682843
 20
-2.947220972476794
 11
189.9731520472934
 21
8.178985282324655
  0
LINE
  5
E5
100
AcDbEntity
  8
construction2
  6
ByLayer
 62
  256
370
   -1
100
AcDbLine
 10
162.9441801130134
 20
-15.6838451486178
 11
158.4489009920225
 21
-4.557638893816351
  0
LINE
  5
E6
100
AcDbEntity
  8
construction2
  6
ByLayer
 62
  256
370
   -1
100
AcDbLine
 10
189.9731520472934
 20
8.178985282324655
 11
190.9003359018602
 21
8.553591875740567
  0
LINE
  5
E7
100
AcDbEntity
  8
construction2
  6
ByLayer
 62
  256
370
   -1
100
AcDbLine
 10
158.4489009920225
 20
-4.557638893816351
 11
157.5217171374557
 21
-4.932245487232263
  0
LINE
  5
E8
100
AcDbEntity
  8
construction2
  6
ByLayer
 62
  256
370
   -1
100
AcDbLine
 10
178.7063056406489
 20
-9.315533060547299
 11
165.595074871092
 21
23.13590184929026
  0
LINE
  5
E9
100
AcDbEntity
  8
construction2
  6
ByLayer
 62
  256
370
   -1
100
AcDbLine
 10
194.4684311682843
 20
-2.947220972476794
 11
181.3572003987274
 21
29.50421393736077
  0
LINE
  5
EA
100
AcDbEntity
  8
construction2
  6
ByLayer
 62
  256
370
   -1
100
AcDbLine
 10
162.9441801130134
 20
-15.6838451486178
 11
149.8329493434565
 21
16.76758976121976
  0
LINE
  5
EB
100
AcDbEntity
  8
construction2
  6
ByLayer
 62
  256
370
   -1
100
AcDbLine
 10
181.3572003987274
 20
29.50421393736077
 11
182.2843842532942
 21
29.87882053077668
  0
LINE
  5
EC
100
AcDbEntity
  8
construction2
  6
ByLayer
 62
  256
370
   -1
100
AcDbLine
 10
149.8329493434565
 20
16.76758976121976
 11
148.9057654888897
 21
16.39298316780384
  0
LINE
  5
ED
100
AcDbEntity
  8
construction2
  6
ByLayer
 62
  256
370
   -1
100
AcDbLine
 10
178.7063056406489
 20
-9.315533060547299
 11
179.8301254208966
 21
-12.09708462424766
  0
LINE
  5
EE
100
AcDbEntity
  8
construction1
  6
ByLayer
 62
  256
370
   -1
100
AcDbLine
 10
162.9441801130134
 20
-15.6838451486178
 11
159.5727207722702
 21
-7.339190457516713
  0
LINE
  5
EF
100
AcDbEntity
  8
construction1
  6
ByLayer
 62
  256
370
   -1
100
AcDbLine
 10
194.4684311682843
 20
-2.947220972476792
 11
191.0969718275411
 21
5.397433718624296
  0
LINE
  5
F0
100
AcDbEntity
  8
construction1
  6
ByLayer
 62
  256
370
   -1
100
AcDbLine
 10
159.5727207722702
 20
-7.339190457516713
 11
158.18194499042
 21
-7.901100347640581
  0
LINE
  5
F1
100
AcDbEntity
  8
construction1
  6
ByLayer
 62
  256
370
   -1
100
AcDbLine
 10
191.0969718275411
 20
5.397433718624296
 11
192.4877476093913
 21
5.959343608748163
  0
CIRCLE
  5
F2
100
AcDbEntity
  8
case1
  6
ByLayer
 62
  256
370
   -1
100
AcDbCircle
 10
120
 20
70
 40
1.6
  0
LINE
  5
F3
100
AcDbEntity
  8
construction2
  6
ByLayer
 62
  256
370
   -1
100
AcDbLine
 10
135.794534719333
 20
49
 11
135.794534719333
 21
67
  0
CIRCLE
  5
F4
100
AcDbEntity
  8
case1
  6
ByLayer
 62
  256
370
   -1
100
AcDbCircle
 10
165.8606413641577
 20
90
 40
1.6
  0
LINE
  5
F5
100
AcDbEntity
  8
construction2
  6
ByLayer
 62
  256
370
   -1
100
AcDbLine
 10
135.794534719333
 20
48.84441807764138
 11
135.794534719333
 21
66.84441807764138
  0
LINE
  5
F6
100
AcDbEntity
  8
construction2
  6
ByLayer
 62
  256
370
   -1
100
AcDbLine
 10
136.9911866262072
 20
59.64196127529846
 11
136.9965975548781
 21
59.04405365716097
  0
LINE
  5
F7
100
AcDbEntity
  8
construction2
  6
ByLayer
 62
  256
370
   -1
100
AcDbLine
 10
136.9938920905427
 20
59.34300746622972
 11
135.794534719333
 21
59.34300746622972
  0
LINE
  5
F8
100
AcDbEntity
  8
construction2
  6
ByLayer
 62
  256
370
   -1
100
AcDbLine
 10
141.6
 20
62.44300746622974
 11
138.4
 21
56.24300746622973
  0
LINE
  5
F9
100
AcDbEntity
  8
construction2
  6
ByLayer
 62
  256
370
   -1
100
AcDbLine
 10
138.4
 20
62.44300746622974
 11
141.6
 21
56.24300746622973
  0
INSERT
  5
FA
100
AcDbEntity
  8
buttons
  6
ByLayer
 62
  256
370
   -1
100
AcDbBlockReference
  2
button-block
 10
141.6
 20
59.34300746622974
 30
0
 41
1
 42
1
 43
0
 50
0
 70
    1
 71
    1
 44
0
 45
0
  0
CIRCLE
  5
FB
100
AcDbEntity
  8
case2
  6
ByLayer
 62
  256
370
   -1
100
AcDbCircle
 10
111.4515963062485
 20
90
 40
1.6
  0
CIRCLE
  5
FC
100
AcDbEntity
  8
case2
  6
ByLayer
 62
  256
370
   -1
100
AcDbCircle
 10
149.4515963062485
 20
90
 40
1.6
  0
CIRCLE
  5
FD
100
AcDbEntity
  8
handle1
  6
ByLayer
 62
  256
370
   -1
100
AcDbCircle
 10
160.1602271931192
 20
-13.06446733614336
 40
1.6
  0
CIRCLE
  5
FE
100
AcDbEntity
  8
handle1
  6
ByLayer
 62
  256
370
   -1
100
AcDbCircle
 10
194.6514665830013
 20
0.8708979389276009
 40
1.6
  0
SPLINE
  5
FF
100
AcDbEntity
  8
handle1
  6
ByLayer
 62
  256
370
   -1
100
AcDbSpline
210
0
220
0
230
0
 70
    8
 71
    2
 72
   14
 73
   11
 74
    0
 42
1e-007
 43
1e-007
 40
0
 40
0
 40
0
 40
0.1111111111111111
 40
0.2222222222222222
 40
0.3333333333333333
 40
0.4444444444444444
 40
0.5555555555555556
 40
0.6666666666666666
 40
0.7777777777777778
 40
0.8888888888888888
 40
1
 40
1
 40
1
 10
135.794534719333
 20
48.84441807764138
 30
0
 10
146.756167312042
 20
21.51793468232149
 30
0
 10
156.7115053826948
 20
-2.474479752448898
 30
0
 10
158.962890663438
 20
-9.195490889927747
 30
0
 10
153.8671424400975
 20
-17.17153765453387
 30
0
 10
180.4570868365074
 20
-13.64886762668269
 30
0
 10
202.0313420463892
 20
2.28806728460181
 30
0
 10
192.8251408689035
 20
4.485746996027718
 30
0
 10
189.7758463528916
 20
10.88438066044131
 30
0
 10
180.2705851233262
 20
35.05863862866337
 30
0
 10
169.1731534837373
 20
62.33025544061423
 30
0
  0
ARC
  5
100
100
AcDbEntity
  8
handle1
  6
ByLayer
 62
  256
370
   -1
100
AcDbCircle
 10
200.118445996093
 20
72.34663137350711
 40
32.52597293708969
100
AcDbArc
 50
147.129176205215
 51
197.9357360707858
  0
SPLINE
  5
101
100
AcDbEntity
  8
handle1
  6
ByLayer
 62
  256
370
   -1
100
AcDbSpline
210
0
220
0
230
0
 70
    8
 71
    2
 72
   10
 73
    7
 74
    0
 42
1e-007
 43
1e-007
 40
0
 40
0
 40
0
 40
0.2
 40
0.4
 40
0.6
 40
0.8
 40
1
 40
1
 40
1
 10
123.8672302674539
 20
67.56638486627304
 30
0
 10
128.4939829504333
 20
68.76901047061091
 30
0
 10
132.8702411039468
 20
69.86870427250223
 30
0
 10
135.0009264687217
 20
70.00853565840374
 30
0
 10
136.1146150878671
 20
67.41363743989719
 30
0
 10
137.2450250061038
 20
57.43099211575856
 30
0
 10
135.794534719333
 20
48.84441807764138
 30
0
  0
CIRCLE
  5
102
100
AcDbEntity
  8
handle1
  6
ByLayer
 62
  256
370
   -1
100
AcDbCircle
 10
120
 20
70
 40
1.6
  0
CIRCLE
  5
103
100
AcDbEntity
  8
handle1
  6
ByLayer
 62
  256
370
   -1
100
AcDbCircle
 10
165.8606413641577
 20
90
 40
1.6
  0
ARC
  5
104
100
AcDbEntity
  8
handle1
  6
ByLayer
 62
  256
370
   -1
100
AcDbCircle
 10
88.90000000000001
 20
-28.42129963856594
 40
145.1303352441764
100
AcDbArc
 50
54.68290845427929
 51
60.20770148355518
  0
LINE
  5
105
100
AcDbEntity
  8
handle1
  6
ByLayer
 62
  256
370
   -1
100
AcDbLine
 10
120.7397730982209
 20
66.83531427102963
 11
123.8672302674539
 21
67.56638486627304
  0
CIRCLE
  5
106
100
AcDbEntity
  8
handle1
  6
ByLayer
 62
  256
370
   -1
100
AcDbCircle
 10
165.8606413641577
 20
90
 40
1.6
  0
CIRCLE
  5
107
100
AcDbEntity
  8
handle1
  6
ByLayer
 62
  256
370
   -1
100
AcDbCircle
 10
156.4443622049554
 20
96.34198266353567
 40
1.6
  0
LINE
  5
108
100
AcDbEntity
  8
handle1
  6
ByLayer
 62
  256
370
   -1
100
AcDbLine
 10
158.0200953043655
 20
99.18444026206259
 11
161.0090686602563
 21
97.52748529021957
  0
LINE
  5
109
100
AcDbEntity
  8
handle1
  6
ByLayer
 62
  256
370
   -1
100
AcDbLine
 10
118.0961557818141
 20
72.63398504036759
 11
154.5405179867695
 21
98.97596770390327
  0
ARC
  5
10A
100
AcDbEntity
  8
handle1
  6
ByLayer
 62
  256
370
   -1
100
AcDbCircle
 10
120
 20
70
 40
3.25
100
AcDbArc
 50
125.8594006995488
 51
283.1571612398608
  0
ARC
  5
10B
100
AcDbEntity
  8
handle1
  6
ByLayer
 62
  256
370
   -1
100
AcDbCircle
 10
156.4443622049554
 20
96.34198266353567
 40
3.25
100
AcDbArc
 50
60.99790969966945
 51
125.8593509199836
  0
LWPOLYLINE
  5
10C
100
AcDbEntity
  8
handle3
  6
ByLayer
 62
  256
370
   -1
100
AcDbPolyline
 90
    4
 70
    1
 43
0
 10
155.0357701795251
 20
42.59743016621979
 10
168.0163441434601
 20
47.84192247404255
 10
163.895671615885
 20
58.04094487427722
 10
150.9150976519501
 20
52.79645256645445
  0
CIRCLE
  5
10D
100
AcDbEntity
  8
handle2
  6
ByLayer
 62
  256
370
   -1
100
AcDbCircle
 10
149.4515963062485
 20
90
 40
1.6
  0
ARC
  5
10E
100
AcDbEntity
  8
case1
  6
ByLayer
 62
  256
370
   -1
100
AcDbCircle
 10
158.9732024029798
 20
97.73259550294341
 40
24.29627777164739
100
AcDbArc
 50
55.31593581807698
 51
153.8314932391925
  0
LWPOLYLINE
  5
10F
100
AcDbEntity
  8
handle1
  6
ByLayer
 62
  256
370
   -1
100
AcDbPolyline
 90
    4
 70
    1
 43
0
 10
15
 20
86.90000000000001
 10
18.19999999999999
 20
86.90000000000001
 10
18.19999999999999
 20
93.10000000000002
 10
15
 20
93.10000000000002
  0
LINE
  5
110
100
AcDbEntity
  8
construction2
  6
ByLayer
 62
  256
370
   -1
100
AcDbLine
 10
15
 20
93.10000000000002
 11
18.19999999999999
 21
86.90000000000001
  0
LINE
  5
111
100
AcDbEntity
  8
construction2
  6
ByLayer
 62
  256
370
   -1
100
AcDbLine
 10
18.19999999999999
 20
93.10000000000002
 11
15
 21
86.90000000000001
  0
CIRCLE
  5
112
100
AcDbEntity
  8
speaker
  6
ByLayer
 62
  256
370
   -1
100
AcDbCircle
 10
83.93208924863134
 20
90.00000000000003
 40
20
  0
CIRCLE
  5
113
100
AcDbEntity
  8
construction2
  6
ByLayer
 62
  256
370
   -1
100
AcDbCircle
 10
83.93208924863134
 20
90.00000000000003
 40
10
  0
LWPOLYLINE
  5
114
100
AcDbEntity
  8
isd1820
  6
ByLayer
 62
  256
370
   -1
100
AcDbPolyline
 90
    4
 70
    1
 43
0
 10
62.43208924863133
 20
70.74999999999999
 10
105.4320892486314
 20
70.74999999999999
 10
105.4320892486314
 20
109.25
 10
62.43208924863133
 20
109.25
  0
LINE
  5
115
100
AcDbEntity
  8
construction2
  6
ByLayer
 62
  256
370
   -1
100
AcDbLine
 10
91.00315706049665
 20
82.92893218813468
 11
76.86102143676585
 21
97.07106781186543
  0
LINE
  5
116
100
AcDbEntity
  8
construction2
  6
ByLayer
 62
  256
370
   -1
100
AcDbLine
 10
91.0031570604967
 20
97.07106781186533
 11
76.86102143676585
 21
82.92893218813451
  0
LINE
  5
117
100
AcDbEntity
  8
construction2
  6
ByLayer
 62
  256
370
   -1
100
AcDbLine
 10
83.93208924863134
 20
100
 11
83.93208924863134
 21
90.00000000000003
  0
LINE
  5
118
100
AcDbEntity
  8
construction2
  6
ByLayer
 62
  256
370
   -1
100
AcDbLine
 10
83.93208924863134
 20
90.00000000000003
 11
83.93208924863134
 21
79.99999999999999
  0
CIRCLE
  5
119
100
AcDbEntity
  8
construction2
  6
ByLayer
 62
  256
370
   -1
100
AcDbCircle
 10
83.93208924863127
 20
89.99999999999991
 40
5.000000000000114
  0
LINE
  5
11A
100
AcDbEntity
  8
construction2
  6
ByLayer
 62
  256
370
   -1
100
AcDbLine
 10
73.93208924863134
 20
90.00000000000003
 11
83.93208924863134
 21
90.00000000000003
  0
LINE
  5
11B
100
AcDbEntity
  8
construction2
  6
ByLayer
 62
  256
370
   -1
100
AcDbLine
 10
83.93208924863134
 20
90.00000000000003
 11
93.93208924863134
 21
90.00000000000003
  0
CIRCLE
  5
11C
100
AcDbEntity
  8
case3
  6
ByLayer
 62
  256
370
   -1
100
AcDbCircle
 10
83.93208924863134
 20
90.00000000000003
 40
1.6
  0
CIRCLE
  5
11D
100
AcDbEntity
  8
case3
  6
ByLayer
 62
  256
370
   -1
100
AcDbCircle
 10
74.6932939235185
 20
93.82683432365091
 40
1.6
  0
CIRCLE
  5
11E
100
AcDbEntity
  8
case3
  6
ByLayer
 62
  256
370
   -1
100
AcDbCircle
 10
87.75892357228223
 20
99.23879532511289
 40
1.6
  0
CIRCLE
  5
11F
100
AcDbEntity
  8
case3
  6
ByLayer
 62
  256
370
   -1
100
AcDbCircle
 10
93.17088457374425
 20
86.17316567634911
 40
1.6
  0
CIRCLE
  5
120
100
AcDbEntity
  8
case3
  6
ByLayer
 62
  256
370
   -1
100
AcDbCircle
 10
80.10525492498046
 20
80.76120467488717
 40
1.6
  0
CIRCLE
  5
121
100
AcDbEntity
  8
case3
  6
ByLayer
 62
  256
370
   -1
100
AcDbCircle
 10
74.69329392351852
 20
86.17316567634909
 40
1.6
  0
CIRCLE
  5
122
100
AcDbEntity
  8
case3
  6
ByLayer
 62
  256
370
   -1
100
AcDbCircle
 10
80.10525492498056
 20
99.23879532511272
 40
1.6
  0
CIRCLE
  5
123
100
AcDbEntity
  8
case3
  6
ByLayer
 62
  256
370
   -1
100
AcDbCircle
 10
93.17088457374403
 20
93.82683432365081
 40
1.6
  0
CIRCLE
  5
124
100
AcDbEntity
  8
case3
  6
ByLayer
 62
  256
370
   -1
100
AcDbCircle
 10
87.75892357228227
 20
80.76120467488713
 40
1.6
  0
CIRCLE
  5
125
100
AcDbEntity
  8
case3
  6
ByLayer
 62
  256
370
   -1
100
AcDbCircle
 10
78.93208924863131
 20
89.99999999999991
 40
1.6
  0
CIRCLE
  5
126
100
AcDbEntity
  8
case3
  6
ByLayer
 62
  256
370
   -1
100
AcDbCircle
 10
83.93208924863143
 20
84.9999999999998
 40
1.6
  0
CIRCLE
  5
127
100
AcDbEntity
  8
case3
  6
ByLayer
 62
  256
370
   -1
100
AcDbCircle
 10
88.93208924863153
 20
89.99999999999991
 40
1.6
  0
CIRCLE
  5
128
100
AcDbEntity
  8
case3
  6
ByLayer
 62
  256
370
   -1
100
AcDbCircle
 10
83.93208924863143
 20
95.00000000000003
 40
1.6
  0
CIRCLE
  5
129
100
AcDbEntity
  8
case2
  6
ByLayer
 62
  256
370
   -1
100
AcDbCircle
 10
66.03208924863134
 20
105.65
 40
1.6
  0
CIRCLE
  5
12A
100
AcDbEntity
  8
case2
  6
ByLayer
 62
  256
370
   -1
100
AcDbCircle
 10
101.8320892486313
 20
105.65
 40
1.6
  0
CIRCLE
  5
12B
100
AcDbEntity
  8
case2
  6
ByLayer
 62
  256
370
   -1
100
AcDbCircle
 10
101.8320892486313
 20
74.34999999999998
 40
1.6
  0
CIRCLE
  5
12C
100
AcDbEntity
  8
case2
  6
ByLayer
 62
  256
370
   -1
100
AcDbCircle
 10
66.03208924863134
 20
74.34999999999998
 40
1.6
  0
LWPOLYLINE
  5
12D
100
AcDbEntity
  8
amp
  6
ByLayer
 62
  256
370
   -1
100
AcDbPolyline
 90
    4
 70
    1
 43
0
 10
25.10000000000002
 20
78.75
 10
48.90000000000001
 20
78.75
 10
48.90000000000001
 20
101.25
 10
25.10000000000002
 20
101.25
  0
LINE
  5
12E
100
AcDbEntity
  8
construction2
  6
ByLayer
 62
  256
370
   -1
100
AcDbLine
 10
25.10000000000002
 20
101.25
 11
48.90000000000001
 21
78.75
  0
LINE
  5
12F
100
AcDbEntity
  8
construction2
  6
ByLayer
 62
  256
370
   -1
100
AcDbLine
 10
48.90000000000001
 20
101.25
 11
25.10000000000002
 21
78.75
  0
CIRCLE
  5
130
100
AcDbEntity
  8
case2
  6
ByLayer
 62
  256
370
   -1
100
AcDbCircle
 10
27.25000000000001
 20
98.75000000000001
 40
1.6
  0
CIRCLE
  5
131
100
AcDbEntity
  8
case2
  6
ByLayer
 62
  256
370
   -1
100
AcDbCircle
 10
46.75000000000001
 20
98.75000000000001
 40
1.6
  0
CIRCLE
  5
132
100
AcDbEntity
  8
case2
  6
ByLayer
 62
  256
370
   -1
100
AcDbCircle
 10
46.75000000000001
 20
81.25
 40
1.6
  0
CIRCLE
  5
133
100
AcDbEntity
  8
case2
  6
ByLayer
 62
  256
370
   -1
100
AcDbCircle
 10
27.25000000000001
 20
81.25
 40
1.6
  0
LINE
  5
134
100
AcDbEntity
  8
construction2
  6
ByLayer
 62
  256
370
   -1
100
AcDbLine
 10
51.43421677487564
 20
73.63991172018478
 11
56.61741768198338
 21
68.96931985656003
  0
LINE
  5
135
100
AcDbEntity
  8
construction2
  6
ByLayer
 62
  256
370
   -1
100
AcDbLine
 10
57.43065854651771
 20
72.06425754514947
 11
50.62097591034128
 21
70.54497403159534
  0
LINE
  5
136
100
AcDbEntity
  8
construction2
  6
ByLayer
 62
  256
370
   -1
100
AcDbLine
 10
97.52285214119982
 20
34.92378067672858
 11
91.3228521411998
 21
38.12378067672856
  0
LINE
  5
137
100
AcDbEntity
  8
construction2
  6
ByLayer
 62
  256
370
   -1
100
AcDbLine
 10
97.52285214119982
 20
38.12378067672856
 11
91.3228521411998
 21
34.92378067672858
  0
CIRCLE
  5
138
100
AcDbEntity
  8
case3
  6
ByLayer
 62
  256
370
   -1
100
AcDbCircle
 10
115.109
 20
103.067
 40
3.556
  0
CIRCLE
  5
139
100
AcDbEntity
  8
pot
  6
ByLayer
 62
  256
370
   -1
100
AcDbCircle
 10
115.1090803436049
 20
103.0672364655292
 40
8.5
  0
CIRCLE
  5
13A
100
AcDbEntity
  8
construction1
  6
ByLayer
 62
  256
370
   -1
100
AcDbCircle
 10
115.1090803436049
 20
103.0672364655292
 40
7.62
  0
LINE
  5
13B
100
AcDbEntity
  8
construction1
  6
ByLayer
 62
  256
370
   -1
100
AcDbLine
 10
115.1090803436049
 20
103.0672364655292
 11
122.7290803436049
 21
103.0672364655292
  0
CIRCLE
  5
13C
100
AcDbEntity
  8
case3
  6
ByLayer
 62
  256
370
   -1
100
AcDbCircle
 10
107.4889196563952
 20
103.0672364655292
 40
1.6
  0
INSERT
  5
13D
100
AcDbEntity
  8
buttons
  6
ByLayer
 62
  256
370
   -1
100
AcDbBlockReference
  2
button-block
 10
55.83265931630136
 20
80.55199560538163
 30
0
 41
1
 42
1
 43
0
 50
89.68020000000008
 70
    1
 71
    1
 44
0
 45
0
  0
LINE
  5
13E
100
AcDbEntity
  8
construction2
  6
ByLayer
 62
  256
370
   -1
100
AcDbLine
 10
20
 20
30
 11
40
 21
20
  0
LINE
  5
13F
100
AcDbEntity
  8
construction2
  6
ByLayer
 62
  256
370
   -1
100
AcDbLine
 10
40
 20
30
 11
20
 21
20
  0
INSERT
  5
140
100
AcDbEntity
  8
construction1
  6
ByLayer
 62
  256
370
   -1
100
AcDbBlockReference
  2
5x7
 10
220
 20
120
 30
0
 41
1
 42
1
 43
0
 50
0
 70
    1
 71
    1
 44
0
 45
0
  0
INSERT
  5
141
100
AcDbEntity
  8
pot
  6
ByLayer
 62
  256
370
   -1
100
AcDbBlockReference
  2
potentiometer
 10
104.4228521411998
 20
48.12378067672856
 30
0
 41
1
 42
1
 43
0
 50
270
 70
    1
 71
    1
 44
0
 45
0
  0
DIMENSION
  5
142
100
AcDbEntity
  8
pot
  6
ByLayer
 62
  256
370
   -1
100
AcDbDimension
  2
*D1
 10
116.6815566746672
 20
48.12378067672856
 30
0
 11
115.1815566746672
 21
52.62378067672856
 31
0
 70
   33
 71
    5
 72
    0
  3
Standard
 53
0
210
0
220
0
230
1
100
AcDbAlignedDimension
 13
112.9228521411998
 23
57.12378067672856
 33
0
 14
112.9228521411998
 24
48.12378067672856
 34
0
  0
DIMENSION
  5
143
100
AcDbEntity
  8
pot
  6
ByLayer
 62
  256
370
   -1
100
AcDbDimension
  2
*D2
 10
112.9228521411998
 20
58
 30
0
 11
104.4228521411998
 21
59.5
 31
0
 70
   33
 71
    5
  3
Standard
 53
0
210
0
220
0
230
1
100
AcDbAlignedDimension
 13
95.92285214119981
 23
57.12378067672856
 33
0
 14
112.9228521411998
 24
57.12378067672856
 34
0
  0
MTEXT
  5
144
100
AcDbEntity
  8
construction1
  6
ByLayer
 62
  256
370
   -1
100
AcDbMText
 10
10.19444341586986
 20
4
 30
0
 40
1
 41
27.83333436190812
 71
    1
 72
    1
  1
thickness of clear acrylic = 2.75 mm\Pthickness of dark grey acrylic = 2.54mm \P
  7

210
0
220
0
230
1
 50
0
 73
    2
 44
1
  0
ARC
  5
145
100
AcDbEntity
  8
case4-slots
  6
ByLayer
 62
  256
370
   -1
100
AcDbCircle
 10
52.81479840760785
 20
78.65204545140416
 40
1.3
100
AcDbArc
 50
89.99999143484852
 51
270
  0
ARC
  5
146
100
AcDbEntity
  8
case4-slots
  6
ByLayer
 62
  256
370
   -1
100
AcDbCircle
 10
58.81479840760785
 20
78.65204545140416
 40
1.3
100
AcDbArc
 50
270
 51
90
  0
LINE
  5
147
100
AcDbEntity
  8
case4-slots
  6
ByLayer
 62
  256
370
   -1
100
AcDbLine
 10
52.81479840760785
 20
77.35204545140417
 11
58.81479840760785
 21
77.35204545140417
  0
LINE
  5
148
100
AcDbEntity
  8
case4-slots
  6
ByLayer
 62
  256
370
   -1
100
AcDbLine
 10
58.81479840760785
 20
79.95204545140417
 11
52.81479840760785
 21
79.95204545140417
  0
ARC
  5
149
100
AcDbEntity
  8
case4-slots
  6
ByLayer
 62
  256
370
   -1
100
AcDbCircle
 10
139.7
 20
56.34300746622974
 40
1.3
100
AcDbArc
 50
179.9999914348485
 51
360
  0
ARC
  5
14A
100
AcDbEntity
  8
case4-slots
  6
ByLayer
 62
  256
370
   -1
100
AcDbCircle
 10
139.7
 20
62.34300746622974
 40
1.3
100
AcDbArc
 50
360
 51
180
  0
LINE
  5
14B
100
AcDbEntity
  8
case4-slots
  6
ByLayer
 62
  256
370
   -1
100
AcDbLine
 10
141
 20
56.34300746622974
 11
141
 21
62.34300746622974
  0
LINE
  5
14C
100
AcDbEntity
  8
case4-slots
  6
ByLayer
 62
  256
370
   -1
100
AcDbLine
 10
138.4
 20
62.34300746622974
 11
138.4
 21
56.34300746622974
  0
ENDSEC
  0
SECTION
  2
OBJECTS
  0
DICTIONARY
  5
C
330
0
100
AcDbDictionary
281
    1
  3
ACAD_GROUP
350
D
  0
DICTIONARY
  5
D
330
C
100
AcDbDictionary
281
    1
  0
ENDSEC
  0
EOF
