999
dxfrw 0.6.3
  0
SECTION
  2
HEADER
  9
$ACADVER
  1
AC1021
  9
$DWGCODEPAGE
  3
ANSI_1252
  9
$INSBASE
 10
0
 20
0
 30
0
  9
$EXTMIN
 10
-5
 20
-5
 30
0
  9
$EXTMAX
 10
172.8
 20
122
 30
0
  9
$LIMMIN
 10
0
 20
0
  9
$LIMMAX
 10
420
 20
297
  9
$ORTHOMODE
 70
    0
  9
$REGENMODE
 70
    1
  9
$FILLMODE
 70
    1
  9
$QTEXTMODE
 70
    0
  9
$MIRRTEXT
 70
    0
  9
$LTSCALE
 40
1
  9
$ATTMODE
 70
    0
  9
$TEXTSIZE
 40
2.5
  9
$TRACEWID
 40
15.68
  9
$TEXTSTYLE
  7
STANDARD
  9
$CLAYER
  8
case5-slots
  9
$CELTYPE
  6
BYLAYER
  9
$CECOLOR
 62
  256
  9
$CELTSCALE
 40
1
  9
$DISPSILH
 70
    0
  9
$DIMSCALE
 40
1
  9
$DIMASZ
 40
2.5
  9
$DIMEXO
 40
0.625
  9
$DIMDLI
 40
3.75
  9
$DIMRND
 40
0
  9
$DIMDLE
 40
0
  9
$DIMEXE
 40
1.25
  9
$DIMTP
 40
0
  9
$DIMTM
 40
0
  9
$DIMTXT
 40
2.5
  9
$DIMCEN
 40
2.5
  9
$DIMTSZ
 40
0
  9
$DIMTOL
 70
    0
  9
$DIMLIM
 70
    0
  9
$DIMTIH
 70
    0
  9
$DIMTOH
 70
    0
  9
$DIMSE1
 70
    0
  9
$DIMSE2
 70
    0
  9
$DIMTAD
 70
    1
  9
$DIMZIN
 70
    8
  9
$DIMBLK
  1

  9
$DIMASO
 70
    1
  9
$DIMSHO
 70
    1
  9
$DIMPOST
  1

  9
$DIMAPOST
  1

  9
$DIMALT
 70
    0
  9
$DIMALTD
 70
    3
  9
$DIMALTF
 40
0.03937
  9
$DIMLFAC
 40
1
  9
$DIMTOFL
 70
    1
  9
$DIMTVP
 40
0
  9
$DIMTIX
 70
    0
  9
$DIMSOXD
 70
    0
  9
$DIMSAH
 70
    0
  9
$DIMBLK1
  1

  9
$DIMBLK2
  1

  9
$DIMSTYLE
  2
STANDARD
  9
$DIMCLRD
 70
    0
  9
$DIMCLRE
 70
    0
  9
$DIMCLRT
 70
    0
  9
$DIMTFAC
 40
1
  9
$DIMGAP
 40
0.625
  9
$DIMJUST
 70
    0
  9
$DIMSD1
 70
    0
  9
$DIMSD2
 70
    0
  9
$DIMTOLJ
 70
    0
  9
$DIMTZIN
 70
    8
  9
$DIMALTZ
 70
    0
  9
$DIMALTTZ
 70
    0
  9
$DIMUPT
 70
    0
  9
$DIMDEC
 70
    2
  9
$DIMTDEC
 70
    2
  9
$DIMALTU
 70
    2
  9
$DIMALTTD
 70
    3
  9
$DIMTXSTY
  7
standard
  9
$DIMAUNIT
 70
    0
  9
$DIMADEC
 70
    0
  9
$DIMALTRND
 40
0
  9
$DIMAZIN
 70
    0
  9
$DIMDSEP
 70
   44
  9
$DIMATFIT
 70
    3
  9
$DIMFRAC
 70
    0
  9
$DIMLDRBLK
  1
STANDARD
  9
$DIMLUNIT
 70
    2
  9
$DIMLWD
 70
   -2
  9
$DIMLWE
 70
   -2
  9
$DIMTMOVE
 70
    0
  9
$DIMFXL
 40
1
  9
$DIMFXLON
 70
    0
  9
$DIMJOGANG
 40
0.7854
  9
$DIMTFILL
 70
    0
  9
$DIMTFILLCLR
 70
    0
  9
$DIMARCSYM
 70
    0
  9
$DIMLTYPE
  6

  9
$DIMLTEX1
  6

  9
$DIMLTEX2
  6

  9
$LUNITS
 70
    2
  9
$LUPREC
 70
    4
  9
$SKETCHINC
 40
1
  9
$FILLETRAD
 40
0
  9
$AUNITS
 70
    0
  9
$AUPREC
 70
    2
  9
$MENU
  1
.
  9
$ELEVATION
 40
0
  9
$PELEVATION
 40
0
  9
$THICKNESS
 40
0
  9
$LIMCHECK
 70
    0
  9
$CHAMFERA
 40
0
  9
$CHAMFERB
 40
0
  9
$CHAMFERC
 40
0
  9
$CHAMFERD
 40
0
  9
$SKPOLY
 70
    0
  9
$USRTIMER
 70
    1
  9
$ANGBASE
 50
0
  9
$ANGDIR
 70
    0
  9
$PDMODE
 70
   34
  9
$PDSIZE
 40
0
  9
$PLINEWID
 40
0
  9
$SPLFRAME
 70
    0
  9
$SPLINETYPE
 70
    2
  9
$SPLINESEGS
 70
    8
  9
$HANDSEED
  5
20000
  9
$SURFTAB1
 70
    6
  9
$SURFTAB2
 70
    6
  9
$SURFTYPE
 70
    6
  9
$SURFU
 70
    6
  9
$SURFV
 70
    6
  9
$UCSBASE
  2

  9
$UCSNAME
  2

  9
$UCSORG
 10
0
 20
0
 30
0
  9
$UCSXDIR
 10
1
 20
0
 30
0
  9
$UCSYDIR
 10
0
 20
1
 30
0
  9
$UCSORTHOREF
  2

  9
$UCSORTHOVIEW
 70
    0
  9
$UCSORGTOP
 10
0
 20
0
 30
0
  9
$UCSORGBOTTOM
 10
0
 20
0
 30
0
  9
$UCSORGLEFT
 10
0
 20
0
 30
0
  9
$UCSORGRIGHT
 10
0
 20
0
 30
0
  9
$UCSORGFRONT
 10
0
 20
0
 30
0
  9
$UCSORGBACK
 10
0
 20
0
 30
0
  9
$PUCSBASE
  2

  9
$PUCSNAME
  2

  9
$PUCSORG
 10
0
 20
0
 30
0
  9
$PUCSXDIR
 10
1
 20
0
 30
0
  9
$PUCSYDIR
 10
0
 20
1
 30
0
  9
$PUCSORTHOREF
  2

  9
$PUCSORTHOVIEW
 70
    0
  9
$PUCSORGTOP
 10
0
 20
0
 30
0
  9
$PUCSORGBOTTOM
 10
0
 20
0
 30
0
  9
$PUCSORGLEFT
 10
0
 20
0
 30
0
  9
$PUCSORGRIGHT
 10
0
 20
0
 30
0
  9
$PUCSORGFRONT
 10
0
 20
0
 30
0
  9
$PUCSORGBACK
 10
0
 20
0
 30
0
  9
$USERI1
 70
    0
  9
$USERI2
 70
    0
  9
$USERI3
 70
    0
  9
$USERI4
 70
    0
  9
$USERI5
 70
    0
  9
$USERR1
 40
0
  9
$USERR2
 40
0
  9
$USERR3
 40
0
  9
$USERR4
 40
0
  9
$USERR5
 40
0
  9
$WORLDVIEW
 70
    1
  9
$SHADEDGE
 70
    3
  9
$SHADEDIF
 70
   70
  9
$TILEMODE
 70
    1
  9
$MAXACTVP
 70
   64
  9
$PINSBASE
 10
0
 20
0
 30
0
  9
$PLIMCHECK
 70
    0
  9
$PEXTMIN
 10
0
 20
0
 30
0
  9
$PEXTMAX
 10
0
 20
0
 30
0
  9
$GRIDMODE
 70
    1
  9
$SNAPSTYLE
 70
    0
  9
$GRIDUNIT
 10
0
 20
0
  9
$PLIMMIN
 10
0
 20
0
  9
$PLIMMAX
 10
7.820100000000001e-007
 20
1.106e-006
  9
$UNITMODE
 70
    0
  9
$VISRETAIN
 70
    1
  9
$PLINEGEN
 70
    0
  9
$PSLTSCALE
 70
    1
  9
$TREEDEPTH
 70
 3020
  9
$CMLSTYLE
  2
Standard
  9
$CMLJUST
 70
    0
  9
$CMLSCALE
 40
20
  9
$PROXYGRAPHICS
 70
    1
  9
$MEASUREMENT
 70
    1
  9
$CELWEIGHT
370
   -1
  9
$ENDCAPS
280
    0
  9
$JOINSTYLE
280
    0
  9
$LWDISPLAY
290
    0
  9
$INSUNITS
 70
    4
  9
$HYPERLINKBASE
  1

  9
$STYLESHEET
  1

  9
$XEDIT
290
    1
  9
$CEPSNTYPE
380
    0
  9
$PSTYLEMODE
290
    1
  9
$EXTNAMES
290
    1
  9
$PSVPSCALE
 40
1
  9
$OLESTARTUP
290
    0
  9
$SORTENTS
280
  127
  9
$INDEXCTL
280
    0
  9
$HIDETEXT
280
    1
  9
$XCLIPFRAME
290
    0
  9
$HALOGAP
280
    0
  9
$OBSCOLOR
 70
  257
  9
$OBSLTYPE
280
    0
  9
$INTERSECTIONDISPLAY
280
    0
  9
$INTERSECTIONCOLOR
 70
  257
  9
$DIMASSOC
280
    1
  9
$PROJECTNAME
  1

  9
$CAMERADISPLAY
290
    0
  9
$LENSLENGTH
 40
50
  9
$CAMERAHEIGHT
 40
0
  9
$STEPSPERSEC
 40
2
  9
$STEPSIZE
 40
50
  9
$3DDWFPREC
 40
2
  9
$PSOLWIDTH
 40
5
  9
$PSOLHEIGHT
 40
80
  9
$LOFTANG1
 40
1.570796326794897
  9
$LOFTANG2
 40
1.570796326794897
  9
$LOFTMAG1
 40
0
  9
$LOFTMAG2
 40
0
  9
$LOFTPARAM
 70
    7
  9
$LOFTNORMALS
280
    1
  9
$LATITUDE
 40
1
  9
$LONGITUDE
 40
1
  9
$NORTHDIRECTION
 40
0
  9
$TIMEZONE
 70
-8000
  9
$LIGHTGLYPHDISPLAY
280
    1
  9
$TILEMODELIGHTSYNCH
280
    1
  9
$SOLIDHIST
280
    1
  9
$SHOWHIST
280
    1
  9
$DWFFRAME
280
    2
  9
$DGNFRAME
280
    0
  9
$REALWORLDSCALE
290
    1
  9
$INTERFERECOLOR
 62
    1
  9
$CSHADOW
280
    0
  9
$SHADOWPLANELOCATION
 40
0
  0
ENDSEC
  0
SECTION
  2
CLASSES
  0
ENDSEC
  0
SECTION
  2
TABLES
  0
TABLE
  2
VPORT
  5
8
330
0
100
AcDbSymbolTable
 70
    1
  0
VPORT
  5
31
330
2
100
AcDbSymbolTableRecord
100
AcDbViewportTableRecord
  2
*ACTIVE
 70
    0
 10
0
 20
0
 11
1
 21
1
 12
94.58524102352993
 22
61.85890055621319
 13
0
 23
0
 14
10
 24
10
 15
10
 25
10
 16
0
 26
0
 36
1
 17
0
 27
0
 37
0
 40
137.0224348538122
 41
1.783482142857143
 42
50
 43
0
 44
0
 50
0
 51
0
 71
    0
 72
  100
 73
    1
 74
    3
 75
    0
 76
    1
 77
    0
 78
    0
281
    0
 65
    1
110
0
120
0
130
0
111
1
121
0
131
0
112
0
122
1
132
0
 79
    0
146
0
348
10020
 60
    7
 61
    5
292
1
282
    1
141
0
142
0
 63
  250
421
3358443
  0
ENDTAB
  0
TABLE
  2
LTYPE
  5
5
330
0
100
AcDbSymbolTable
 70
    4
  0
LTYPE
  5
14
330
5
100
AcDbSymbolTableRecord
100
AcDbLinetypeTableRecord
  2
ByBlock
 70
    0
  3

 72
   65
 73
    0
 40
0
  0
LTYPE
  5
15
330
5
100
AcDbSymbolTableRecord
100
AcDbLinetypeTableRecord
  2
ByLayer
 70
    0
  3

 72
   65
 73
    0
 40
0
  0
LTYPE
  5
16
330
5
100
AcDbSymbolTableRecord
100
AcDbLinetypeTableRecord
  2
Continuous
 70
    0
  3
Solid line
 72
   65
 73
    0
 40
0
  0
LTYPE
  5
32
330
5
100
AcDbSymbolTableRecord
100
AcDbLinetypeTableRecord
  2
DOT
 70
    0
  3
Dot . . . . . . . . . . . . . . . . . . . . . .
 72
   65
 73
    2
 40
6.35
 49
0
 74
    0
 49
-6.35
 74
    0
  0
LTYPE
  5
33
330
5
100
AcDbSymbolTableRecord
100
AcDbLinetypeTableRecord
  2
DOTTINY
 70
    0
  3
Dot (.15x) .....................................
 72
   65
 73
    2
 40
0.9525
 49
0
 74
    0
 49
-0.9525
 74
    0
  0
LTYPE
  5
34
330
5
100
AcDbSymbolTableRecord
100
AcDbLinetypeTableRecord
  2
DOT2
 70
    0
  3
Dot (.5x) .....................................
 72
   65
 73
    2
 40
3.175
 49
0
 74
    0
 49
-3.175
 74
    0
  0
LTYPE
  5
35
330
5
100
AcDbSymbolTableRecord
100
AcDbLinetypeTableRecord
  2
DOTX2
 70
    0
  3
Dot (2x) .  .  .  .  .  .  .  .  .  .  .  .  .
 72
   65
 73
    2
 40
12.7
 49
0
 74
    0
 49
-12.7
 74
    0
  0
LTYPE
  5
36
330
5
100
AcDbSymbolTableRecord
100
AcDbLinetypeTableRecord
  2
DASHED
 70
    0
  3
Dashed _ _ _ _ _ _ _ _ _ _ _ _ _ _ _ _ _
 72
   65
 73
    2
 40
19.05
 49
12.7
 74
    0
 49
-6.35
 74
    0
  0
LTYPE
  5
37
330
5
100
AcDbSymbolTableRecord
100
AcDbLinetypeTableRecord
  2
DASHEDTINY
 70
    0
  3
Dashed (.15x) _ _ _ _ _ _ _ _ _ _ _ _ _ _ _ _ _
 72
   65
 73
    2
 40
2.8575
 49
1.905
 74
    0
 49
-0.9525
 74
    0
  0
LTYPE
  5
38
330
5
100
AcDbSymbolTableRecord
100
AcDbLinetypeTableRecord
  2
DASHED2
 70
    0
  3
Dashed (.5x) _ _ _ _ _ _ _ _ _ _ _ _ _ _ _ _ _
 72
   65
 73
    2
 40
9.524999999999999
 49
6.35
 74
    0
 49
-3.175
 74
    0
  0
LTYPE
  5
39
330
5
100
AcDbSymbolTableRecord
100
AcDbLinetypeTableRecord
  2
DASHEDX2
 70
    0
  3
Dashed (2x) ____  ____  ____  ____  ____  ___
 72
   65
 73
    2
 40
38.09999999999999
 49
25.4
 74
    0
 49
-12.7
 74
    0
  0
LTYPE
  5
3A
330
5
100
AcDbSymbolTableRecord
100
AcDbLinetypeTableRecord
  2
DASHDOT
 70
    0
  3
Dash dot __ . __ . __ . __ . __ . __ . __ . __
 72
   65
 73
    4
 40
25.4
 49
12.7
 74
    0
 49
-6.35
 74
    0
 49
0
 74
    0
 49
-6.35
 74
    0
  0
LTYPE
  5
3B
330
5
100
AcDbSymbolTableRecord
100
AcDbLinetypeTableRecord
  2
DASHDOTTINY
 70
    0
  3
Dash dot (.15x) _._._._._._._._._._._._._._._.
 72
   65
 73
    4
 40
3.81
 49
1.905
 74
    0
 49
-0.9525
 74
    0
 49
0
 74
    0
 49
-0.9525
 74
    0
  0
LTYPE
  5
3C
330
5
100
AcDbSymbolTableRecord
100
AcDbLinetypeTableRecord
  2
DASHDOT2
 70
    0
  3
Dash dot (.5x) _._._._._._._._._._._._._._._.
 72
   65
 73
    4
 40
12.7
 49
6.35
 74
    0
 49
-3.175
 74
    0
 49
0
 74
    0
 49
-3.175
 74
    0
  0
LTYPE
  5
3D
330
5
100
AcDbSymbolTableRecord
100
AcDbLinetypeTableRecord
  2
DASHDOTX2
 70
    0
  3
Dash dot (2x) ____  .  ____  .  ____  .  ___
 72
   65
 73
    4
 40
50.8
 49
25.4
 74
    0
 49
-12.7
 74
    0
 49
0
 74
    0
 49
-12.7
 74
    0
  0
LTYPE
  5
3E
330
5
100
AcDbSymbolTableRecord
100
AcDbLinetypeTableRecord
  2
DIVIDE
 70
    0
  3
Divide ____ . . ____ . . ____ . . ____ . . ____
 72
   65
 73
    6
 40
31.75
 49
12.7
 74
    0
 49
-6.35
 74
    0
 49
0
 74
    0
 49
-6.35
 74
    0
 49
0
 74
    0
 49
-6.35
 74
    0
  0
LTYPE
  5
3F
330
5
100
AcDbSymbolTableRecord
100
AcDbLinetypeTableRecord
  2
DIVIDETINY
 70
    0
  3
Divide (.15x) __..__..__..__..__..__..__..__.._
 72
   65
 73
    6
 40
4.7625
 49
1.905
 74
    0
 49
-0.9525
 74
    0
 49
0
 74
    0
 49
-0.9525
 74
    0
 49
0
 74
    0
 49
-0.9525
 74
    0
  0
LTYPE
  5
40
330
5
100
AcDbSymbolTableRecord
100
AcDbLinetypeTableRecord
  2
DIVIDE2
 70
    0
  3
Divide (.5x) __..__..__..__..__..__..__..__.._
 72
   65
 73
    6
 40
15.875
 49
6.35
 74
    0
 49
-3.175
 74
    0
 49
0
 74
    0
 49
-3.175
 74
    0
 49
0
 74
    0
 49
-3.175
 74
    0
  0
LTYPE
  5
41
330
5
100
AcDbSymbolTableRecord
100
AcDbLinetypeTableRecord
  2
DIVIDEX2
 70
    0
  3
Divide (2x) ________  .  .  ________  .  .  _
 72
   65
 73
    6
 40
63.5
 49
25.4
 74
    0
 49
-12.7
 74
    0
 49
0
 74
    0
 49
-12.7
 74
    0
 49
0
 74
    0
 49
-12.7
 74
    0
  0
LTYPE
  5
42
330
5
100
AcDbSymbolTableRecord
100
AcDbLinetypeTableRecord
  2
BORDER
 70
    0
  3
Border __ __ . __ __ . __ __ . __ __ . __ __ .
 72
   65
 73
    6
 40
44.45
 49
12.7
 74
    0
 49
-6.35
 74
    0
 49
12.7
 74
    0
 49
-6.35
 74
    0
 49
0
 74
    0
 49
-6.35
 74
    0
  0
LTYPE
  5
43
330
5
100
AcDbSymbolTableRecord
100
AcDbLinetypeTableRecord
  2
BORDERTINY
 70
    0
  3
Border (.15x) __.__.__.__.__.__.__.__.__.__.__.
 72
   65
 73
    6
 40
6.6675
 49
1.905
 74
    0
 49
-0.9525
 74
    0
 49
1.905
 74
    0
 49
-0.9525
 74
    0
 49
0
 74
    0
 49
-0.9525
 74
    0
  0
LTYPE
  5
44
330
5
100
AcDbSymbolTableRecord
100
AcDbLinetypeTableRecord
  2
BORDER2
 70
    0
  3
Border (.5x) __.__.__.__.__.__.__.__.__.__.__.
 72
   65
 73
    6
 40
22.225
 49
6.35
 74
    0
 49
-3.175
 74
    0
 49
6.35
 74
    0
 49
-3.175
 74
    0
 49
0
 74
    0
 49
-3.175
 74
    0
  0
LTYPE
  5
45
330
5
100
AcDbSymbolTableRecord
100
AcDbLinetypeTableRecord
  2
BORDERX2
 70
    0
  3
Border (2x) ____  ____  .  ____  ____  .  ___
 72
   65
 73
    6
 40
88.89999999999999
 49
25.4
 74
    0
 49
-12.7
 74
    0
 49
25.4
 74
    0
 49
-12.7
 74
    0
 49
0
 74
    0
 49
-12.7
 74
    0
  0
LTYPE
  5
46
330
5
100
AcDbSymbolTableRecord
100
AcDbLinetypeTableRecord
  2
CENTER
 70
    0
  3
Center ____ _ ____ _ ____ _ ____ _ ____ _ ____
 72
   65
 73
    4
 40
50.8
 49
31.75
 74
    0
 49
-6.35
 74
    0
 49
6.35
 74
    0
 49
-6.35
 74
    0
  0
LTYPE
  5
47
330
5
100
AcDbSymbolTableRecord
100
AcDbLinetypeTableRecord
  2
CENTERTINY
 70
    0
  3
Center (.15x) ___ _ ___ _ ___ _ ___ _ ___ _ ___
 72
   65
 73
    4
 40
7.62
 49
4.7625
 74
    0
 49
-0.9525
 74
    0
 49
0.9525
 74
    0
 49
-0.9525
 74
    0
  0
LTYPE
  5
48
330
5
100
AcDbSymbolTableRecord
100
AcDbLinetypeTableRecord
  2
CENTER2
 70
    0
  3
Center (.5x) ___ _ ___ _ ___ _ ___ _ ___ _ ___
 72
   65
 73
    4
 40
28.575
 49
19.05
 74
    0
 49
-3.175
 74
    0
 49
3.175
 74
    0
 49
-3.175
 74
    0
  0
LTYPE
  5
49
330
5
100
AcDbSymbolTableRecord
100
AcDbLinetypeTableRecord
  2
CENTERX2
 70
    0
  3
Center (2x) ________  __  ________  __  _____
 72
   65
 73
    4
 40
101.6
 49
63.5
 74
    0
 49
-12.7
 74
    0
 49
12.7
 74
    0
 49
-12.7
 74
    0
  0
ENDTAB
  0
TABLE
  2
LAYER
  5
2
330
0
100
AcDbSymbolTable
 70
    1
  0
LAYER
  5
10
330
2
100
AcDbSymbolTableRecord
100
AcDbLayerTableRecord
  2
0
 70
    0
 62
    7
  6
CONTINUOUS
370
   -3
390
F
  0
LAYER
  5
4A
330
2
100
AcDbSymbolTableRecord
100
AcDbLayerTableRecord
  2
board
 70
    0
 62
    7
  6
CONTINUOUS
370
   -3
390
F
  0
LAYER
  5
4B
330
2
100
AcDbSymbolTableRecord
100
AcDbLayerTableRecord
  2
case1
 70
    0
 62
    7
  6
CONTINUOUS
370
   -3
390
F
  0
LAYER
  5
4C
330
2
100
AcDbSymbolTableRecord
100
AcDbLayerTableRecord
  2
case2
 70
    0
 62
    7
  6
CONTINUOUS
370
   -3
390
F
  0
LAYER
  5
4D
330
2
100
AcDbSymbolTableRecord
100
AcDbLayerTableRecord
  2
case3
 70
    0
 62
    7
  6
CONTINUOUS
370
   -3
390
F
  0
LAYER
  5
4E
330
2
100
AcDbSymbolTableRecord
100
AcDbLayerTableRecord
  2
case4-knob guide
 70
    1
 62
    7
  6
CONTINUOUS
370
   -3
390
F
  0
LAYER
  5
4F
330
2
100
AcDbSymbolTableRecord
100
AcDbLayerTableRecord
  2
case5-slots
 70
    1
 62
    7
  6
CONTINUOUS
370
    0
390
F
  0
LAYER
  5
50
330
2
100
AcDbSymbolTableRecord
100
AcDbLayerTableRecord
  2
case9a
 70
    0
 62
    7
  6
CONTINUOUS
370
    0
390
F
  0
LAYER
  5
51
330
2
100
AcDbSymbolTableRecord
100
AcDbLayerTableRecord
  2
construction
 70
    1
 62
    2
  6
CONTINUOUS
370
    0
390
F
  0
ENDTAB
  0
TABLE
  2
STYLE
  5
3
330
0
100
AcDbSymbolTable
 70
    3
  0
STYLE
  5
52
330
2
100
AcDbSymbolTableRecord
100
AcDbTextStyleTableRecord
  2
Standard
 70
    0
 40
0
 41
1
 50
0
 71
    0
 42
1
  3
txt
  4

  0
ENDTAB
  0
TABLE
  2
VIEW
  5
6
330
0
100
AcDbSymbolTable
 70
    0
  0
ENDTAB
  0
TABLE
  2
UCS
  5
7
330
0
100
AcDbSymbolTable
 70
    0
  0
ENDTAB
  0
TABLE
  2
APPID
  5
9
330
0
100
AcDbSymbolTable
 70
    1
  0
APPID
  5
12
330
9
100
AcDbSymbolTableRecord
100
AcDbRegAppTableRecord
  2
ACAD
 70
    0
  0
APPID
  5
53
330
9
100
AcDbSymbolTableRecord
100
AcDbRegAppTableRecord
  2
LibreCad
 70
    0
  0
ENDTAB
  0
TABLE
  2
DIMSTYLE
  5
A
330
0
100
AcDbSymbolTable
 70
    1
100
AcDbDimStyleTable
 71
    1
  0
DIMSTYLE
105
54
330
A
100
AcDbSymbolTableRecord
100
AcDbDimStyleTableRecord
  2
Standard
 70
    0
 40
1
 41
2.5
 42
0.625
 43
0.38
 44
1.25
 45
0
 46
0
 47
0
 48
0
 49
1
140
2.5
141
0.09
142
0
143
25.4
144
1
145
0
146
1
147
0.625
148
0
 71
    0
 72
    0
 73
    0
 74
    1
 75
    0
 76
    0
 77
    0
 78
    8
 79
    0
170
    0
171
    2
172
    0
173
    0
174
    0
175
    0
176
    0
177
    0
178
    0
179
    0
271
    2
272
    4
273
    2
274
    2
275
    0
276
    0
277
    2
278
   44
279
    0
280
    0
281
    0
282
    0
283
    1
284
    0
285
    0
286
    0
288
    0
289
    3
340
standard
341

371
   -2
372
   -2
  0
ENDTAB
  0
TABLE
  2
BLOCK_RECORD
  5
1
330
0
100
AcDbSymbolTable
 70
    2
  0
BLOCK_RECORD
  5
1F
330
1
100
AcDbSymbolTableRecord
100
AcDbBlockTableRecord
  2
*Model_Space
 70
    0
280
    1
281
    0
  0
BLOCK_RECORD
  5
1E
330
1
100
AcDbSymbolTableRecord
100
AcDbBlockTableRecord
  2
*Paper_Space
 70
    0
280
    1
281
    0
  0
BLOCK_RECORD
  5
55
330
1
100
AcDbSymbolTableRecord
100
AcDbBlockTableRecord
  2
*D1
 70
    0
280
    1
281
    0
  0
ENDTAB
  0
ENDSEC
  0
SECTION
  2
BLOCKS
  0
BLOCK
  5
20
330
1F
100
AcDbEntity
  8
0
100
AcDbBlockBegin
  2
*Model_Space
 70
    0
 10
0
 20
0
 30
0
  3
*Model_Space
  1

  0
ENDBLK
  5
21
330
1F
100
AcDbEntity
  8
0
100
AcDbBlockEnd
  0
BLOCK
  5
1C
330
1B
100
AcDbEntity
  8
0
100
AcDbBlockBegin
  2
*Paper_Space
 70
    0
 10
0
 20
0
 30
0
  3
*Paper_Space
  1

  0
ENDBLK
  5
1D
330
1F
100
AcDbEntity
  8
0
100
AcDbBlockEnd
  0
BLOCK
  5
56
330
55
100
AcDbEntity
  8
0
100
AcDbBlockBegin
  2
*D1
 70
    1
 10
0
 20
0
  3
*D1
  1

  0
LINE
  5
58
100
AcDbEntity
  8
construction
  6
ByBlock
 62
    0
370
   -2
100
AcDbLine
 10
115.3528011504173
 20
81.64911353551229
 11
114.7941354351664
 21
83.27907083982419
  0
LINE
  5
59
100
AcDbEntity
  8
construction
  6
ByBlock
 62
    0
370
   -2
100
AcDbLine
 10
121.0286656667949
 20
83.59450860894233
 11
120.469999951544
 21
85.22446591325424
  0
LINE
  5
5A
100
AcDbEntity
  8
construction
  6
ByBlock
 62
    0
370
   -2
100
AcDbLine
 10
110.469538978483
 20
80.47543650438716
 11
125.6051776888232
 21
85.6631567002006
  0
SOLID
  5
5B
100
AcDbEntity
  8
construction
  6
ByBlock
 62
    0
370
   -2
100
AcDbTrace
 10
115.1994260754643
 20
82.09659906557886
 30
0
 11
112.9694555473696
 21
80.8922218986888
 31
0
 12
112.6995095065777
 22
81.67981367127722
 32
0
 13
112.6995095065777
 23
81.67981367127722
 33
0
  0
SOLID
  5
5C
100
AcDbEntity
  8
construction
  6
ByBlock
 62
    0
370
   -2
100
AcDbTrace
 10
120.8752905918419
 20
84.04199413900891
 30
0
 11
123.1052611199366
 21
85.24637130589896
 31
0
 12
123.3752071607285
 22
84.45877953331055
 32
0
 13
123.3752071607285
 23
84.45877953331055
 33
0
  0
MTEXT
  5
5D
100
AcDbEntity
  8
construction
  6
CONTINUOUS
 62
    0
370
   -2
100
AcDbMText
 10
117.4294223732062
 20
84.84300426366188
 30
0
 40
2.5
 41
1.111111111111266
 71
    5
 72
    1
  1
6
  7
standard
210
0
220
0
230
1
 50
18.91908346667301
 73
    2
 44
1
  0
ENDBLK
  5
57
330
55
100
AcDbEntity
  8
0
100
AcDbBlockEnd
  0
ENDSEC
  0
SECTION
  2
ENTITIES
  0
CIRCLE
  5
5E
100
AcDbEntity
  8
case1
  6
ByLayer
 62
  256
370
   -1
100
AcDbCircle
 10
115
 20
6.708503560576759
 40
1.6
  0
CIRCLE
  5
5F
100
AcDbEntity
  8
case1
  6
ByLayer
 62
  256
370
   -1
100
AcDbCircle
 10
160.8606413641577
 20
26.70850356057676
 40
1.6
  0
CIRCLE
  5
60
100
AcDbEntity
  8
case2
  6
ByLayer
 62
  256
370
   -1
100
AcDbCircle
 10
106.4515963062485
 20
26.70850356057676
 40
1.6
  0
CIRCLE
  5
61
100
AcDbEntity
  8
case2
  6
ByLayer
 62
  256
370
   -1
100
AcDbCircle
 10
144.4515963062485
 20
26.70850356057676
 40
1.6
  0
CIRCLE
  5
62
100
AcDbEntity
  8
case2
  6
ByLayer
 62
  256
370
   -1
100
AcDbCircle
 10
61.03208924863134
 20
42.35850356057676
 40
1.6
  0
CIRCLE
  5
63
100
AcDbEntity
  8
case2
  6
ByLayer
 62
  256
370
   -1
100
AcDbCircle
 10
96.83208924863131
 20
42.35850356057676
 40
1.6
  0
CIRCLE
  5
64
100
AcDbEntity
  8
case2
  6
ByLayer
 62
  256
370
   -1
100
AcDbCircle
 10
96.83208924863131
 20
11.05850356057674
 40
1.6
  0
CIRCLE
  5
65
100
AcDbEntity
  8
case2
  6
ByLayer
 62
  256
370
   -1
100
AcDbCircle
 10
61.03208924863134
 20
11.05850356057674
 40
1.6
  0
CIRCLE
  5
66
100
AcDbEntity
  8
case2
  6
ByLayer
 62
  256
370
   -1
100
AcDbCircle
 10
22.25000000000001
 20
35.45850356057677
 40
1.6
  0
CIRCLE
  5
67
100
AcDbEntity
  8
case2
  6
ByLayer
 62
  256
370
   -1
100
AcDbCircle
 10
41.75000000000001
 20
35.45850356057677
 40
1.6
  0
CIRCLE
  5
68
100
AcDbEntity
  8
case2
  6
ByLayer
 62
  256
370
   -1
100
AcDbCircle
 10
41.75000000000001
 20
17.95850356057676
 40
1.6
  0
CIRCLE
  5
69
100
AcDbEntity
  8
case2
  6
ByLayer
 62
  256
370
   -1
100
AcDbCircle
 10
22.25000000000001
 20
17.95850356057676
 40
1.6
  0
CIRCLE
  5
6A
100
AcDbEntity
  8
case1
  6
ByLayer
 62
  256
370
   -1
100
AcDbCircle
 10
151.4443622049554
 20
33.05048622411243
 40
1.6
  0
CIRCLE
  5
6B
100
AcDbEntity
  8
case1
  6
ByLayer
 62
  256
370
   -1
100
AcDbCircle
 10
17
 20
33.70850356057676
 40
1.6
  0
CIRCLE
  5
6C
100
AcDbEntity
  8
case1
  6
ByLayer
 62
  256
370
   -1
100
AcDbCircle
 10
17
 20
19.70850356057676
 40
1.6
  0
CIRCLE
  5
6D
100
AcDbEntity
  8
case1
  6
ByLayer
 62
  256
370
   -1
100
AcDbCircle
 10
55.28564757439548
 20
67.73385915239761
 40
1.6
  0
CIRCLE
  5
6E
100
AcDbEntity
  8
case1
  6
ByLayer
 62
  256
370
   -1
100
AcDbCircle
 10
8.077301445724089
 20
84.30402759232149
 40
1.6
  0
CIRCLE
  5
6F
100
AcDbEntity
  8
case3
  6
ByLayer
 62
  256
370
   -1
100
AcDbCircle
 10
89.78361907104561
 20
90.33439340681318
 40
1.6
  0
CIRCLE
  5
70
100
AcDbEntity
  8
case3
  6
ByLayer
 62
  256
370
   -1
100
AcDbCircle
 10
98.7156789638416
 20
94.83087048020131
 40
1.6
  0
CIRCLE
  5
71
100
AcDbEntity
  8
case3
  6
ByLayer
 62
  256
370
   -1
100
AcDbCircle
 10
85.28714199765749
 20
99.2664532996092
 40
1.6
  0
CIRCLE
  5
72
100
AcDbEntity
  8
case3
  6
ByLayer
 62
  256
370
   -1
100
AcDbCircle
 10
80.85155917824957
 20
85.83791633342506
 40
1.6
  0
CIRCLE
  5
73
100
AcDbEntity
  8
case3
  6
ByLayer
 62
  256
370
   -1
100
AcDbCircle
 10
94.2800961444337
 20
81.40233351401719
 40
1.6
  0
CIRCLE
  5
74
100
AcDbEntity
  8
case3
  6
ByLayer
 62
  256
370
   -1
100
AcDbCircle
 10
99.2790286212486
 20
87.19796271669529
 40
1.6
  0
CIRCLE
  5
75
100
AcDbEntity
  8
case3
  6
ByLayer
 62
  256
370
   -1
100
AcDbCircle
 10
92.9200497611633
 20
99.82980295701603
 40
1.6
  0
CIRCLE
  5
76
100
AcDbEntity
  8
case3
  6
ByLayer
 62
  256
370
   -1
100
AcDbCircle
 10
80.28820952084277
 20
93.47082409693094
 40
1.6
  0
CIRCLE
  5
77
100
AcDbEntity
  8
case3
  6
ByLayer
 62
  256
370
   -1
100
AcDbCircle
 10
86.64718838092772
 20
80.83898385661011
 40
1.6
  0
CIRCLE
  5
78
100
AcDbEntity
  8
case3
  6
ByLayer
 62
  256
370
   -1
100
AcDbCircle
 10
94.77005637010279
 20
90.70241930613497
 40
1.6
  0
CIRCLE
  5
79
100
AcDbEntity
  8
case3
  6
ByLayer
 62
  256
370
   -1
100
AcDbCircle
 10
90.1516449703674
 20
85.34795610775581
 40
1.6
  0
CIRCLE
  5
7A
100
AcDbEntity
  8
case3
  6
ByLayer
 62
  256
370
   -1
100
AcDbCircle
 10
84.79718177198829
 20
89.96636750749117
 40
1.6
  0
CIRCLE
  5
7B
100
AcDbEntity
  8
case3
  6
ByLayer
 62
  256
370
   -1
100
AcDbCircle
 10
89.41559317172361
 20
95.32083070587035
 40
1.6
  0
CIRCLE
  5
7C
100
AcDbEntity
  8
case3
  6
ByLayer
 62
  256
370
   -1
100
AcDbCircle
 10
57.72947805775769
 20
101.0711665206988
 40
3.556
  0
CIRCLE
  5
7D
100
AcDbEntity
  8
case1
  6
ByLayer
 62
  256
370
   -1
100
AcDbCircle
 10
17.00123579463389
 20
91.32189429417339
 40
1.6
  0
CIRCLE
  5
7E
100
AcDbEntity
  8
case1
  6
ByLayer
 62
  256
370
   -1
100
AcDbCircle
 10
151.0324787795772
 20
101.8739281940156
 40
1.6
  0
CIRCLE
  5
7F
100
AcDbEntity
  8
case1
  6
ByLayer
 62
  256
370
   -1
100
AcDbCircle
 10
152.0629512976785
 20
87.91190375665562
 40
1.6
  0
LWPOLYLINE
  5
80
100
AcDbEntity
  8
board
  6
ByLayer
 62
   16
420
8388608
370
   -1
100
AcDbPolyline
 90
    4
 70
    1
 43
0
 10
0
 20
0
 10
167.8
 20
0
 10
167.8
 20
117
 10
0
 20
117
  0
LWPOLYLINE
  5
81
100
AcDbEntity
  8
board
  6
ByLayer
 62
   34
420
11162880
370
   -1
100
AcDbPolyline
 90
    4
 70
    1
 43
0
 10
-5
 20
-5
 10
172.8
 20
-5
 10
172.8
 20
122
 10
-5
 20
122
  0
CIRCLE
  5
82
100
AcDbEntity
  8
case4-knob guide
  6
ByLayer
 62
  256
370
   -1
100
AcDbCircle
 10
65.32887122210249
 20
101.6322797290779
 40
1.3
  0
LINE
  5
83
100
AcDbEntity
  8
case5-slots
  6
ByLayer
 62
  256
370
   -1
100
AcDbLine
 10
13.59999999999999
 20
23.70850356057676
 11
13.59999999999999
 21
29.70850356057676
  0
LINE
  5
84
100
AcDbEntity
  8
case5-slots
  6
ByLayer
 62
  256
370
   -1
100
AcDbLine
 10
11
 20
29.70850356057676
 11
11
 21
23.70850356057676
  0
LINE
  5
85
100
AcDbEntity
  8
case5-slots
  6
ByLayer
 62
  256
370
   -1
100
AcDbLine
 10
47.44962604843719
 20
14.56763662925357
 11
53.25328570849631
 21
13.0452915467567
  0
LINE
  5
86
100
AcDbEntity
  8
case5-slots
  6
ByLayer
 62
  256
370
   -1
100
AcDbLine
 10
53.91296857757829
 20
15.56021073278234
 11
48.10930891751917
 21
17.08255581527921
  0
LINE
  5
87
100
AcDbEntity
  8
case5-slots
  6
ByLayer
 62
  256
370
   -1
100
AcDbLine
 10
155.1593079415799
 20
92.15131120744023
 11
154.7176768623936
 21
98.13503596630882
  0
LINE
  5
88
100
AcDbEntity
  8
case5-slots
  6
ByLayer
 62
  256
370
   -1
100
AcDbLine
 10
157.3106242579032
 20
98.3264094339562
 11
157.7522553370896
 21
92.34268467508764
  0
LINE
  5
89
100
AcDbEntity
  8
case5-slots
  6
ByLayer
 62
  256
370
   -1
100
AcDbLine
 10
122.0743155187636
 20
80.54373143138935
 11
116.398451002386
 21
78.59833635795934
  0
LINE
  5
8A
100
AcDbEntity
  8
case5-slots
  6
ByLayer
 62
  256
370
   -1
100
AcDbLine
 10
115.5554464705663
 20
81.05787764838962
 11
121.2313109869439
 21
83.00327272181967
  0
ARC
  5
8B
100
AcDbEntity
  8
case9a
  6
ByLayer
 62
  256
370
   -1
100
AcDbCircle
 10
163.2500960682599
 20
43.54172618274765
 40
11.79106548259033
100
AcDbArc
 50
67.30695204662213
 51
232.1126206168933
  0
ARC
  5
8C
100
AcDbEntity
  8
case9a
  6
ByLayer
 62
  256
370
   -1
100
AcDbCircle
 10
83.90000000000001
 20
145.1298031991427
 40
145.1303352441764
100
AcDbArc
 50
234.6829084542793
 51
305.3170915457207
  0
ARC
  5
8D
100
AcDbEntity
  8
case9a
  6
ByLayer
 62
  256
370
   -1
100
AcDbCircle
 10
83.90000000000001
 20
-91.7127960779892
 40
145.1303352441764
100
AcDbArc
 50
70.57462765201606
 51
125.3170915457207
  0
ARC
  5
8E
100
AcDbEntity
  8
case9a
  6
ByLayer
 62
  256
370
   -1
100
AcDbCircle
 10
83.90000000000001
 20
-91.7127960779892
 40
145.1303352441764
100
AcDbArc
 50
54.68290845427929
 51
60.20770148355518
  0
ARC
  5
8F
100
AcDbEntity
  8
case9a
  6
ByLayer
 62
  256
370
   -1
100
AcDbCircle
 10
153.9732024029798
 20
34.44109906352017
 40
24.29627777164739
100
AcDbArc
 50
55.31593581807698
 51
153.8314932391925
  0
ARC
  5
90
100
AcDbEntity
  8
case9a
  6
ByLayer
 62
  256
370
   -1
100
AcDbCircle
 10
4.455315854733479
 20
100.9157131783533
 40
11.79106548259033
100
AcDbArc
 50
312.1084628497796
 51
116.9141314200508
  0
ARC
  5
91
100
AcDbEntity
  8
case9a
  6
ByLayer
 62
  256
370
   -1
100
AcDbCircle
 10
76.11276291757274
 20
208.0688065465219
 40
145.1303352441764
100
AcDbArc
 50
238.9039919209523
 51
309.5381750123937
  0
ARC
  5
92
100
AcDbEntity
  8
case9a
  6
ByLayer
 62
  256
370
   -1
100
AcDbCircle
 10
93.5456050369138
 20
-28.13134766170498
 40
145.1303352441764
100
AcDbArc
 50
58.90399192095227
 51
113.6464558146568
  0
ARC
  5
93
100
AcDbEntity
  8
case9a
  6
ByLayer
 62
  256
370
   -1
100
AcDbCircle
 10
93.5456050369138
 20
-28.13134766170498
 40
145.1303352441764
100
AcDbArc
 50
124.0133819831178
 51
129.5381750123936
  0
ARC
  5
94
100
AcDbEntity
  8
case9a
  6
ByLayer
 62
  256
370
   -1
100
AcDbCircle
 10
14.37689886911079
 20
92.52259930274363
 40
24.29627777164739
100
AcDbArc
 50
30.38959022748043
 51
128.9051476485959
  0
DIMENSION
  5
95
100
AcDbEntity
  8
construction
  6
ByLayer
 62
  256
370
   -1
100
AcDbDimension
  2
*D1
 10
120.8752905918419
 20
84.04199413900891
 30
0
 11
117.4294223732062
 21
84.84300426366188
 31
0
 70
   33
 71
    5
  3
Standard
 53
0
210
0
220
0
230
1
100
AcDbAlignedDimension
 13
115.5554464705663
 23
81.05787764838962
 33
0
 14
121.2313109869439
 24
83.00327272181967
 34
0
  0
LINE
  5
96
100
AcDbEntity
  8
case5-slots
  6
ByLayer
 62
  256
370
   -1
100
AcDbLine
 10
115.5554464705663
 20
81.05787764838962
 11
116.398451002386
 21
78.59833635795934
  0
LINE
  5
97
100
AcDbEntity
  8
case5-slots
  6
ByLayer
 62
  256
370
   -1
100
AcDbLine
 10
121.2313109869439
 20
83.00327272181967
 11
122.0743155187636
 21
80.54373143138935
  0
LINE
  5
98
100
AcDbEntity
  8
case5-slots
  6
ByLayer
 62
  256
370
   -1
100
AcDbLine
 10
154.7176768623935
 20
98.13503596630881
 11
157.3106242579032
 21
98.3264094339562
  0
LINE
  5
99
100
AcDbEntity
  8
case5-slots
  6
ByLayer
 62
  256
370
   -1
100
AcDbLine
 10
157.7522553227854
 20
92.34268486889761
 11
155.1593079415799
 21
92.15131120744023
  0
LINE
  5
9A
100
AcDbEntity
  8
case5-slots
  6
ByLayer
 62
  256
370
   -1
100
AcDbLine
 10
53.91296857757829
 20
15.56021073278234
 11
53.25328570849631
 21
13.0452915467567
  0
LINE
  5
9B
100
AcDbEntity
  8
case5-slots
  6
ByLayer
 62
  256
370
   -1
100
AcDbLine
 10
48.10930891751917
 20
17.08255581527921
 11
47.44962604843719
 21
14.56763662925357
  0
LINE
  5
9C
100
AcDbEntity
  8
case5-slots
  6
ByLayer
 62
  256
370
   -1
100
AcDbLine
 10
11
 20
29.70850356057676
 11
13.59999999999999
 21
29.70850356057676
  0
LINE
  5
9D
100
AcDbEntity
  8
case5-slots
  6
ByLayer
 62
  256
370
   -1
100
AcDbLine
 10
13.59999999999999
 20
23.70850356057676
 11
11
 21
23.70850356057676
  0
ENDSEC
  0
SECTION
  2
OBJECTS
  0
DICTIONARY
  5
C
330
0
100
AcDbDictionary
281
    1
  3
ACAD_GROUP
350
D
  0
DICTIONARY
  5
D
330
C
100
AcDbDictionary
281
    1
  0
ENDSEC
  0
EOF
