  0
SECTION
  2
HEADER
  9
$ACADVER
  1
AC1009
  9
$FILLMODE
 70
0
  9
$EXTMIN
 10
-5.6748
 20
-0.5588
 30
0.0000
  9
$EXTMAX
 10
86.6140
 20
37.4248
 30
0.0000
  0
ENDSEC
  0
SECTION
  2
TABLES
  0
TABLE
  2
LTYPE
 70
1
  0
LTYPE
  2
CONTINUOUS
 70
64
  3
Solid line
 72
65
 73
0
 40
0
  0
ENDTAB
  0
TABLE
  2
LAYER
 70
255
  0
LAYER
  2
19
 70
64
 62
53
  6
CONTINUOUS
  0
LAYER
  2
20
 70
64
 62
31
  6
CONTINUOUS
  0
LAYER
  2
21
 70
64
 62
253
  6
CONTINUOUS
  0
LAYER
  2
22
 70
64
 62
253
  6
CONTINUOUS
  0
LAYER
  2
23
 70
64
 62
6
  6
CONTINUOUS
  0
LAYER
  2
24
 70
64
 62
6
  6
CONTINUOUS
  0
LAYER
  2
39
 70
64
 62
12
  6
CONTINUOUS
  0
LAYER
  2
40
 70
64
 62
132
  6
CONTINUOUS
  0
LAYER
  2
41
 70
64
 62
12
  6
CONTINUOUS
  0
LAYER
  2
42
 70
64
 62
132
  6
CONTINUOUS
  0
LAYER
  2
51
 70
64
 62
253
  6
CONTINUOUS
  0
LAYER
  2
52
 70
64
 62
253
  6
CONTINUOUS
  0
LAYER
  2
105
 70
64
 62
5
  6
CONTINUOUS
  0
LAYER
  2
150
 70
64
 62
253
  6
CONTINUOUS
  0
ENDTAB
  0
ENDSEC
  0
SECTION
  2
BLOCKS
  0
BLOCK
  8
0
  2
RECT
 70
64
 10
0.0000
 20
0.0000
 30
0.0000
  3
RECT
  0
SOLID
  8
0
 10
-0.5000
 20
-0.5000
 30
0.0000
 11
0.5000
 21
-0.5000
 31
0.0000
 12
-0.5000
 22
0.5000
 32
0.0000
 13
0.5000
 23
0.5000
 33
0.0000
  0
ENDBLK
  8
0
  0
BLOCK
  8
0
  2
PIE
 70
64
 10
0.0000
 20
0.0000
 30
0.0000
  3
PIE
  0
CIRCLE
  8
0
 10
0.0000
 20
0.0000
 30
0.0000
 40
0.5000
  0
ENDBLK
  8
0
  0
BLOCK
  8
0
  2
OCTAGONP
 70
64
 10
0.0000
 20
0.0000
 30
0.0000
  3
OCTAGONP
  0
POLYLINE
  8
0
 66
1
 10
0.0000
 20
0.0000
 30
0.0000
 40
0.0000
 41
0.0000
 70
1
  0
VERTEX
  8
0
 10
-0.5000
 20
-0.2071
 30
0.0000
  0
VERTEX
  8
0
 10
-0.5000
 20
0.2071
 30
0.0000
  0
VERTEX
  8
0
 10
-0.2071
 20
0.5000
 30
0.0000
  0
VERTEX
  8
0
 10
0.2071
 20
0.5000
 30
0.0000
  0
VERTEX
  8
0
 10
0.5000
 20
0.2071
 30
0.0000
  0
VERTEX
  8
0
 10
0.5000
 20
-0.2071
 30
0.0000
  0
VERTEX
  8
0
 10
0.2071
 20
-0.5000
 30
0.0000
  0
VERTEX
  8
0
 10
-0.2071
 20
-0.5000
 30
0.0000
  0
SEQEND
  8
0
  0
ENDBLK
  8
0
  0
BLOCK
  8
0
  2
SQUAREP
 70
64
 10
0.0000
 20
0.0000
 30
0.0000
  3
SQUAREP
  0
SOLID
  8
0
 10
-0.5000
 20
-0.5000
 30
0.0000
 11
0.5000
 21
-0.5000
 31
0.0000
 12
-0.5000
 22
0.5000
 32
0.0000
 13
0.5000
 23
0.5000
 33
0.0000
  0
ENDBLK
  8
0
  0
BLOCK
  8
0
  2
ROUNDP
 70
64
 10
0.0000
 20
0.0000
 30
0.0000
  3
ROUNDP
  0
CIRCLE
  8
0
 10
0.0000
 20
0.0000
 30
0.0000
 40
0.5000
  0
ENDBLK
  8
0
  0
BLOCK
  8
0
  2
ANNULUSP
 70
64
 10
0.0000
 20
0.0000
 30
0.0000
  3
ANNULUSP
  0
CIRCLE
  8
0
 10
0.0000
 20
0.0000
 30
0.0000
 40
0.5000
  0
ENDBLK
  8
0
  0
BLOCK
  8
0
  2
THERMALP
 70
64
 10
0.0000
 20
0.0000
 30
0.0000
  3
THERMALP
  0
LINE
  8
0
 10
-0.2379
 20
0.4500
 30
0.0000
 11
0.2379
 21
0.4500
 31
0.0000
  0
LINE
  8
0
 10
0.4500
 20
0.2379
 30
0.0000
 11
0.4500
 21
-0.2379
 31
0.0000
  0
LINE
  8
0
 10
0.2379
 20
-0.4500
 30
0.0000
 11
-0.2379
 21
-0.4500
 31
0.0000
  0
LINE
  8
0
 10
-0.4500
 20
-0.2379
 30
0.0000
 11
-0.4500
 21
0.2379
 31
0.0000
  0
ENDBLK
  8
0
  0
BLOCK
  8
0
  2
OCTAGONV
 70
64
 10
0.0000
 20
0.0000
 30
0.0000
  3
OCTAGONV
  0
POLYLINE
  8
0
 66
1
 10
0.0000
 20
0.0000
 30
0.0000
 40
0.0000
 41
0.0000
 70
1
  0
VERTEX
  8
0
 10
-0.5000
 20
-0.2071
 30
0.0000
  0
VERTEX
  8
0
 10
-0.5000
 20
0.2071
 30
0.0000
  0
VERTEX
  8
0
 10
-0.2071
 20
0.5000
 30
0.0000
  0
VERTEX
  8
0
 10
0.2071
 20
0.5000
 30
0.0000
  0
VERTEX
  8
0
 10
0.5000
 20
0.2071
 30
0.0000
  0
VERTEX
  8
0
 10
0.5000
 20
-0.2071
 30
0.0000
  0
VERTEX
  8
0
 10
0.2071
 20
-0.5000
 30
0.0000
  0
VERTEX
  8
0
 10
-0.2071
 20
-0.5000
 30
0.0000
  0
SEQEND
  8
0
  0
ENDBLK
  8
0
  0
BLOCK
  8
0
  2
SQUAREV
 70
64
 10
0.0000
 20
0.0000
 30
0.0000
  3
SQUAREV
  0
SOLID
  8
0
 10
-0.5000
 20
-0.5000
 30
0.0000
 11
0.5000
 21
-0.5000
 31
0.0000
 12
-0.5000
 22
0.5000
 32
0.0000
 13
0.5000
 23
0.5000
 33
0.0000
  0
ENDBLK
  8
0
  0
BLOCK
  8
0
  2
ROUNDV
 70
64
 10
0.0000
 20
0.0000
 30
0.0000
  3
ROUNDV
  0
CIRCLE
  8
0
 10
0.0000
 20
0.0000
 30
0.0000
 40
0.5000
  0
ENDBLK
  8
0
  0
BLOCK
  8
0
  2
ANNULUSV
 70
64
 10
0.0000
 20
0.0000
 30
0.0000
  3
ANNULUSV
  0
CIRCLE
  8
0
 10
0.0000
 20
0.0000
 30
0.0000
 40
0.5000
  0
ENDBLK
  8
0
  0
BLOCK
  8
0
  2
THERMALV
 70
64
 10
0.0000
 20
0.0000
 30
0.0000
  3
THERMALV
  0
LINE
  8
0
 10
-0.2379
 20
0.4500
 30
0.0000
 11
0.2379
 21
0.4500
 31
0.0000
  0
LINE
  8
0
 10
0.4500
 20
0.2379
 30
0.0000
 11
0.4500
 21
-0.2379
 31
0.0000
  0
LINE
  8
0
 10
0.2379
 20
-0.4500
 30
0.0000
 11
-0.2379
 21
-0.4500
 31
0.0000
  0
LINE
  8
0
 10
-0.4500
 20
-0.2379
 30
0.0000
 11
-0.4500
 21
0.2379
 31
0.0000
  0
ENDBLK
  8
0
  0
BLOCK
  8
0
  2
LONGP100
 70
64
 10
0.0000
 20
0.0000
 30
0.0000
  3
LONGP100
  0
POLYLINE
  8
0
 66
1
 10
0.0000
 20
0.0000
 30
0.0000
 40
0.0000
 41
0.0000
 70
1
  0
VERTEX
  8
0
 10
-0.5000
 20
-0.5000
 30
0.0000
  0
VERTEX
  8
0
 10
0.5000
 20
-0.5000
 30
0.0000
 42
1.0000
  0
VERTEX
  8
0
 10
0.5000
 20
0.5000
 30
0.0000
  0
VERTEX
  8
0
 10
-0.5000
 20
0.5000
 30
0.0000
 42
1.0000
  0
SEQEND
  8
0
  0
ENDBLK
  8
0
  0
ENDSEC
  0
SECTION
  2
ENTITIES
  0
LINE
  8
20
 10
0.0000
 20
0.0000
 30
0.0000
 11
86.3600
 21
0.0000
 31
0.0000
  0
LINE
  8
20
 10
86.3600
 20
0.0000
 30
0.0000
 11
86.3600
 21
31.7500
 31
0.0000
  0
LINE
  8
20
 10
86.3600
 20
31.7500
 30
0.0000
 11
0.0000
 21
31.7500
 31
0.0000
  0
LINE
  8
20
 10
0.0000
 20
31.7500
 30
0.0000
 11
0.0000
 21
0.0000
 31
0.0000
  0
LINE
  8
20
 10
-1.2700
 20
0.0000
 30
0.0000
 11
-4.4900
 21
0.0000
 31
0.0000
  0
LINE
  8
20
 10
-1.2700
 20
31.7500
 30
0.0000
 11
-4.4900
 21
31.7500
 31
0.0000
  0
LINE
  8
20
 10
-2.5400
 20
0.0650
 30
0.0000
 11
-2.5400
 21
31.6850
 31
0.0000
  0
LINE
  8
20
 10
-2.5400
 20
0.0650
 30
0.0000
 11
-2.8592
 21
2.6000
 31
0.0000
  0
LINE
  8
20
 10
-2.8592
 20
2.6000
 30
0.0000
 11
-2.2208
 21
2.6000
 31
0.0000
  0
LINE
  8
20
 10
-2.2208
 20
2.6000
 30
0.0000
 11
-2.5400
 21
0.0650
 31
0.0000
  0
LINE
  8
20
 10
-2.5400
 20
0.0650
 30
0.0000
 11
-2.6700
 21
2.6000
 31
0.0000
  0
LINE
  8
20
 10
-2.4100
 20
2.6000
 30
0.0000
 11
-2.5400
 21
0.0650
 31
0.0000
  0
LINE
  8
20
 10
-2.5400
 20
0.0650
 30
0.0000
 11
-2.8000
 21
2.6000
 31
0.0000
  0
LINE
  8
20
 10
-2.2800
 20
2.6000
 30
0.0000
 11
-2.5400
 21
0.0650
 31
0.0000
  0
LINE
  8
20
 10
-2.5400
 20
31.6850
 30
0.0000
 11
-2.8592
 21
29.1500
 31
0.0000
  0
LINE
  8
20
 10
-2.8592
 20
29.1500
 30
0.0000
 11
-2.2208
 21
29.1500
 31
0.0000
  0
LINE
  8
20
 10
-2.2208
 20
29.1500
 30
0.0000
 11
-2.5400
 21
31.6850
 31
0.0000
  0
LINE
  8
20
 10
-2.5400
 20
31.6850
 30
0.0000
 11
-2.6700
 21
29.1500
 31
0.0000
  0
LINE
  8
20
 10
-2.4100
 20
29.1500
 30
0.0000
 11
-2.5400
 21
31.6850
 31
0.0000
  0
LINE
  8
20
 10
-2.5400
 20
31.6850
 30
0.0000
 11
-2.8000
 21
29.1500
 31
0.0000
  0
LINE
  8
20
 10
-2.2800
 20
29.1500
 30
0.0000
 11
-2.5400
 21
31.6850
 31
0.0000
  0
TEXT
  7
ISOCP
  8
20
 10
-3.1145
 20
12.6929
 30
0.0000
 40
1.7780
  1
31.75
 50
90.0000
  0
LINE
  8
20
 10
0.0000
 20
33.0200
 30
0.0000
 11
0.0000
 21
36.2400
 31
0.0000
  0
LINE
  8
20
 10
86.3600
 20
33.0200
 30
0.0000
 11
86.3600
 21
36.2400
 31
0.0000
  0
LINE
  8
20
 10
0.0650
 20
34.2900
 30
0.0000
 11
86.2950
 21
34.2900
 31
0.0000
  0
LINE
  8
20
 10
0.0650
 20
34.2900
 30
0.0000
 11
2.6000
 21
34.6092
 31
0.0000
  0
LINE
  8
20
 10
2.6000
 20
34.6092
 30
0.0000
 11
2.6000
 21
33.9708
 31
0.0000
  0
LINE
  8
20
 10
2.6000
 20
33.9708
 30
0.0000
 11
0.0650
 21
34.2900
 31
0.0000
  0
LINE
  8
20
 10
0.0650
 20
34.2900
 30
0.0000
 11
2.6000
 21
34.4200
 31
0.0000
  0
LINE
  8
20
 10
2.6000
 20
34.1600
 30
0.0000
 11
0.0650
 21
34.2900
 31
0.0000
  0
LINE
  8
20
 10
0.0650
 20
34.2900
 30
0.0000
 11
2.6000
 21
34.5500
 31
0.0000
  0
LINE
  8
20
 10
2.6000
 20
34.0300
 30
0.0000
 11
0.0650
 21
34.2900
 31
0.0000
  0
LINE
  8
20
 10
86.2950
 20
34.2900
 30
0.0000
 11
83.7600
 21
34.6092
 31
0.0000
  0
LINE
  8
20
 10
83.7600
 20
34.6092
 30
0.0000
 11
83.7600
 21
33.9708
 31
0.0000
  0
LINE
  8
20
 10
83.7600
 20
33.9708
 30
0.0000
 11
86.2950
 21
34.2900
 31
0.0000
  0
LINE
  8
20
 10
86.2950
 20
34.2900
 30
0.0000
 11
83.7600
 21
34.4200
 31
0.0000
  0
LINE
  8
20
 10
83.7600
 20
34.1600
 30
0.0000
 11
86.2950
 21
34.2900
 31
0.0000
  0
LINE
  8
20
 10
86.2950
 20
34.2900
 30
0.0000
 11
83.7600
 21
34.5500
 31
0.0000
  0
LINE
  8
20
 10
83.7600
 20
34.0300
 30
0.0000
 11
86.2950
 21
34.2900
 31
0.0000
  0
TEXT
  7
ISOCP
  8
20
 10
39.9979
 20
34.8645
 30
0.0000
 40
1.7780
  1
86.36
  0
CIRCLE
  8
39
 10
3.8100
 20
3.8100
 30
0.0000
 40
2.5000
  0
CIRCLE
  8
39
 10
82.5500
 20
27.9400
 30
0.0000
 40
2.5000
  0
CIRCLE
  8
39
 10
3.8100
 20
27.9400
 30
0.0000
 40
2.5000
  0
CIRCLE
  8
39
 10
82.5500
 20
3.8100
 30
0.0000
 40
2.5000
  0
CIRCLE
  8
20
 10
82.5500
 20
27.9400
 30
0.0000
 40
1.5000
  0
CIRCLE
  8
20
 10
3.8100
 20
3.8100
 30
0.0000
 40
1.5000
  0
CIRCLE
  8
20
 10
3.8100
 20
27.9400
 30
0.0000
 40
1.5000
  0
CIRCLE
  8
20
 10
82.5500
 20
3.8100
 30
0.0000
 40
1.5000
  0
POINT
  8
24
 10
7.6200
 20
11.4300
 30
0.0000
  0
LINE
  8
40
 10
6.6370
 20
13.4030
 30
0.0000
 11
6.6370
 21
9.4570
 31
0.0000
  0
LINE
  8
40
 10
8.6030
 20
9.4570
 30
0.0000
 11
8.6030
 21
13.4030
 31
0.0000
  0
LINE
  8
40
 10
8.6030
 20
13.4030
 30
0.0000
 11
6.6370
 21
13.4030
 31
0.0000
  0
LINE
  8
52
 10
6.9600
 20
11.8110
 30
0.0000
 11
6.9600
 21
11.0490
 31
0.0000
  0
LINE
  8
52
 10
8.2800
 20
11.7860
 30
0.0000
 11
8.2800
 21
11.0490
 31
0.0000
  0
LINE
  8
40
 10
6.6370
 20
9.4570
 30
0.0000
 11
8.6030
 21
9.4570
 31
0.0000
  0
INSERT
  8
52
  2
RECT
 10
7.6189
 20
12.1471
 30
0.0000
 41
0.7501
 42
1.4501
 43
1.0000
 50
270.0000
  0
INSERT
  8
52
  2
RECT
 10
7.6189
 20
10.6994
 30
0.0000
 41
0.7501
 42
1.4501
 43
1.0000
 50
270.0000
  0
POINT
  8
24
 10
16.5100
 20
19.0500
 30
0.0000
  0
LINE
  8
40
 10
17.4930
 20
17.0770
 30
0.0000
 11
17.4930
 21
21.0230
 31
0.0000
  0
LINE
  8
40
 10
15.5270
 20
21.0230
 30
0.0000
 11
15.5270
 21
17.0770
 31
0.0000
  0
LINE
  8
40
 10
15.5270
 20
17.0770
 30
0.0000
 11
17.4930
 21
17.0770
 31
0.0000
  0
LINE
  8
52
 10
17.1700
 20
18.6690
 30
0.0000
 11
17.1700
 21
19.4310
 31
0.0000
  0
LINE
  8
52
 10
15.8500
 20
18.6940
 30
0.0000
 11
15.8500
 21
19.4310
 31
0.0000
  0
LINE
  8
40
 10
17.4930
 20
21.0230
 30
0.0000
 11
15.5270
 21
21.0230
 31
0.0000
  0
INSERT
  8
52
  2
RECT
 10
16.5112
 20
18.3329
 30
0.0000
 41
0.7501
 42
1.4501
 43
1.0000
 50
90.0000
  0
INSERT
  8
52
  2
RECT
 10
16.5112
 20
19.7807
 30
0.0000
 41
0.7501
 42
1.4501
 43
1.0000
 50
90.0000
  0
POINT
  8
24
 10
16.5100
 20
12.7000
 30
0.0000
  0
LINE
  8
40
 10
18.4830
 20
13.6830
 30
0.0000
 11
14.5370
 21
13.6830
 31
0.0000
  0
LINE
  8
40
 10
14.5370
 20
11.7170
 30
0.0000
 11
18.4830
 21
11.7170
 31
0.0000
  0
LINE
  8
40
 10
18.4830
 20
11.7170
 30
0.0000
 11
18.4830
 21
13.6830
 31
0.0000
  0
LINE
  8
52
 10
16.8910
 20
13.3600
 30
0.0000
 11
16.1290
 21
13.3600
 31
0.0000
  0
LINE
  8
52
 10
16.8660
 20
12.0400
 30
0.0000
 11
16.1290
 21
12.0400
 31
0.0000
  0
LINE
  8
40
 10
14.5370
 20
13.6830
 30
0.0000
 11
14.5370
 21
11.7170
 31
0.0000
  0
INSERT
  8
52
  2
RECT
 10
17.2272
 20
12.7012
 30
0.0000
 41
0.7501
 42
1.4501
 43
1.0000
 50
180.0000
  0
INSERT
  8
52
  2
RECT
 10
15.7794
 20
12.7012
 30
0.0000
 41
0.7501
 42
1.4501
 43
1.0000
 50
180.0000
  0
POINT
  8
24
 10
34.2900
 20
11.4300
 30
0.0000
  0
LINE
  8
40
 10
33.3070
 20
13.4030
 30
0.0000
 11
33.3070
 21
9.4570
 31
0.0000
  0
LINE
  8
40
 10
35.2730
 20
9.4570
 30
0.0000
 11
35.2730
 21
13.4030
 31
0.0000
  0
LINE
  8
40
 10
35.2730
 20
13.4030
 30
0.0000
 11
33.3070
 21
13.4030
 31
0.0000
  0
LINE
  8
52
 10
33.6300
 20
11.8110
 30
0.0000
 11
33.6300
 21
11.0490
 31
0.0000
  0
LINE
  8
52
 10
34.9500
 20
11.7860
 30
0.0000
 11
34.9500
 21
11.0490
 31
0.0000
  0
LINE
  8
40
 10
33.3070
 20
9.4570
 30
0.0000
 11
35.2730
 21
9.4570
 31
0.0000
  0
INSERT
  8
52
  2
RECT
 10
34.2889
 20
12.1471
 30
0.0000
 41
0.7501
 42
1.4501
 43
1.0000
 50
270.0000
  0
INSERT
  8
52
  2
RECT
 10
34.2889
 20
10.6994
 30
0.0000
 41
0.7501
 42
1.4501
 43
1.0000
 50
270.0000
  0
POINT
  8
24
 10
24.1300
 20
22.8600
 30
0.0000
  0
LINE
  8
40
 10
22.1570
 20
21.8770
 30
0.0000
 11
26.1030
 21
21.8770
 31
0.0000
  0
LINE
  8
40
 10
26.1030
 20
23.8430
 30
0.0000
 11
22.1570
 21
23.8430
 31
0.0000
  0
LINE
  8
40
 10
22.1570
 20
23.8430
 30
0.0000
 11
22.1570
 21
21.8770
 31
0.0000
  0
LINE
  8
52
 10
23.7490
 20
22.2000
 30
0.0000
 11
24.5110
 21
22.2000
 31
0.0000
  0
LINE
  8
52
 10
23.7740
 20
23.5200
 30
0.0000
 11
24.5110
 21
23.5200
 31
0.0000
  0
LINE
  8
40
 10
26.1030
 20
21.8770
 30
0.0000
 11
26.1030
 21
23.8430
 31
0.0000
  0
INSERT
  8
52
  2
RECT
 10
23.4129
 20
22.8589
 30
0.0000
 41
0.7501
 42
1.4501
 43
1.0000
 50
0.0000
  0
INSERT
  8
52
  2
RECT
 10
24.8606
 20
22.8589
 30
0.0000
 41
0.7501
 42
1.4501
 43
1.0000
 50
0.0000
  0
POINT
  8
24
 10
24.1300
 20
17.7800
 30
0.0000
  0
LINE
  8
40
 10
22.1570
 20
16.7970
 30
0.0000
 11
26.1030
 21
16.7970
 31
0.0000
  0
LINE
  8
40
 10
26.1030
 20
18.7630
 30
0.0000
 11
22.1570
 21
18.7630
 31
0.0000
  0
LINE
  8
40
 10
22.1570
 20
18.7630
 30
0.0000
 11
22.1570
 21
16.7970
 31
0.0000
  0
LINE
  8
52
 10
23.7490
 20
17.1200
 30
0.0000
 11
24.5110
 21
17.1200
 31
0.0000
  0
LINE
  8
52
 10
23.7740
 20
18.4400
 30
0.0000
 11
24.5110
 21
18.4400
 31
0.0000
  0
LINE
  8
40
 10
26.1030
 20
16.7970
 30
0.0000
 11
26.1030
 21
18.7630
 31
0.0000
  0
INSERT
  8
52
  2
RECT
 10
23.4129
 20
17.7789
 30
0.0000
 41
0.7501
 42
1.4501
 43
1.0000
 50
0.0000
  0
INSERT
  8
52
  2
RECT
 10
24.8606
 20
17.7789
 30
0.0000
 41
0.7501
 42
1.4501
 43
1.0000
 50
0.0000
  0
POINT
  8
24
 10
24.1300
 20
20.3200
 30
0.0000
  0
LINE
  8
40
 10
22.1570
 20
19.3370
 30
0.0000
 11
26.1030
 21
19.3370
 31
0.0000
  0
LINE
  8
40
 10
26.1030
 20
21.3030
 30
0.0000
 11
22.1570
 21
21.3030
 31
0.0000
  0
LINE
  8
40
 10
22.1570
 20
21.3030
 30
0.0000
 11
22.1570
 21
19.3370
 31
0.0000
  0
LINE
  8
52
 10
23.7490
 20
19.6600
 30
0.0000
 11
24.5110
 21
19.6600
 31
0.0000
  0
LINE
  8
52
 10
23.7740
 20
20.9800
 30
0.0000
 11
24.5110
 21
20.9800
 31
0.0000
  0
LINE
  8
40
 10
26.1030
 20
19.3370
 30
0.0000
 11
26.1030
 21
21.3030
 31
0.0000
  0
INSERT
  8
52
  2
RECT
 10
23.4129
 20
20.3189
 30
0.0000
 41
0.7501
 42
1.4501
 43
1.0000
 50
0.0000
  0
INSERT
  8
52
  2
RECT
 10
24.8606
 20
20.3189
 30
0.0000
 41
0.7501
 42
1.4501
 43
1.0000
 50
0.0000
  0
POINT
  8
24
 10
57.1500
 20
17.7800
 30
0.0000
  0
LINE
  8
22
 10
56.1033
 20
16.6800
 30
0.0000
 11
56.1033
 21
18.8800
 31
0.0000
  0
LINE
  8
22
 10
58.1967
 20
16.6800
 30
0.0000
 11
58.1967
 21
18.8800
 31
0.0000
  0
LINE
  8
52
 10
57.8750
 20
16.6800
 30
0.0000
 11
57.8750
 21
18.8800
 31
0.0000
  0
LINE
  8
52
 10
57.8750
 20
18.8800
 30
0.0000
 11
56.4250
 21
18.8800
 31
0.0000
  0
LINE
  8
52
 10
56.4250
 20
18.8800
 30
0.0000
 11
56.4250
 21
16.6800
 31
0.0000
  0
LINE
  8
52
 10
56.4250
 20
16.6800
 30
0.0000
 11
57.8750
 21
16.6800
 31
0.0000
  0
POINT
  8
24
 10
74.9300
 20
22.8600
 30
0.0000
  0
LINE
  8
40
 10
76.9030
 20
23.8430
 30
0.0000
 11
72.9570
 21
23.8430
 31
0.0000
  0
LINE
  8
40
 10
72.9570
 20
21.8770
 30
0.0000
 11
76.9030
 21
21.8770
 31
0.0000
  0
LINE
  8
40
 10
76.9030
 20
21.8770
 30
0.0000
 11
76.9030
 21
23.8430
 31
0.0000
  0
LINE
  8
52
 10
75.3110
 20
23.5200
 30
0.0000
 11
74.5490
 21
23.5200
 31
0.0000
  0
LINE
  8
52
 10
75.2860
 20
22.2000
 30
0.0000
 11
74.5490
 21
22.2000
 31
0.0000
  0
LINE
  8
40
 10
72.9570
 20
23.8430
 30
0.0000
 11
72.9570
 21
21.8770
 31
0.0000
  0
INSERT
  8
52
  2
RECT
 10
75.6472
 20
22.8612
 30
0.0000
 41
0.7501
 42
1.4501
 43
1.0000
 50
180.0000
  0
INSERT
  8
52
  2
RECT
 10
74.1994
 20
22.8612
 30
0.0000
 41
0.7501
 42
1.4501
 43
1.0000
 50
180.0000
  0
POINT
  8
24
 10
16.5100
 20
10.1600
 30
0.0000
  0
LINE
  8
40
 10
18.4830
 20
11.1430
 30
0.0000
 11
14.5370
 21
11.1430
 31
0.0000
  0
LINE
  8
40
 10
14.5370
 20
9.1770
 30
0.0000
 11
18.4830
 21
9.1770
 31
0.0000
  0
LINE
  8
40
 10
18.4830
 20
9.1770
 30
0.0000
 11
18.4830
 21
11.1430
 31
0.0000
  0
LINE
  8
52
 10
16.8910
 20
10.8200
 30
0.0000
 11
16.1290
 21
10.8200
 31
0.0000
  0
LINE
  8
52
 10
16.8660
 20
9.5000
 30
0.0000
 11
16.1290
 21
9.5000
 31
0.0000
  0
LINE
  8
40
 10
14.5370
 20
11.1430
 30
0.0000
 11
14.5370
 21
9.1770
 31
0.0000
  0
INSERT
  8
52
  2
RECT
 10
17.2272
 20
10.1612
 30
0.0000
 41
0.7501
 42
1.4501
 43
1.0000
 50
180.0000
  0
INSERT
  8
52
  2
RECT
 10
15.7794
 20
10.1612
 30
0.0000
 41
0.7501
 42
1.4501
 43
1.0000
 50
180.0000
  0
POINT
  8
23
 10
16.5100
 20
25.4000
 30
0.0000
  0
LINE
  8
21
 10
17.7800
 20
27.0510
 30
0.0000
 11
17.7800
 21
26.7970
 31
0.0000
  0
LINE
  8
21
 10
17.5260
 20
26.7970
 30
0.0000
 11
17.7800
 21
26.7970
 31
0.0000
  0
LINE
  8
21
 10
17.7800
 20
26.7970
 30
0.0000
 11
17.7800
 21
26.5430
 31
0.0000
  0
LINE
  8
21
 10
17.7800
 20
26.7970
 30
0.0000
 11
18.0340
 21
26.7970
 31
0.0000
  0
LINE
  8
51
 10
16.5100
 20
27.0510
 30
0.0000
 11
16.5100
 21
26.1620
 31
0.0000
  0
LINE
  8
51
 10
16.5100
 20
26.1620
 30
0.0000
 11
15.2400
 21
26.1620
 31
0.0000
  0
LINE
  8
51
 10
15.2400
 20
26.1620
 30
0.0000
 11
15.2400
 21
25.6540
 31
0.0000
  0
LINE
  8
51
 10
15.2400
 20
25.6540
 30
0.0000
 11
17.7800
 21
25.6540
 31
0.0000
  0
LINE
  8
51
 10
17.7800
 20
25.6540
 30
0.0000
 11
17.7800
 21
26.1620
 31
0.0000
  0
LINE
  8
51
 10
17.7800
 20
26.1620
 30
0.0000
 11
16.5100
 21
26.1620
 31
0.0000
  0
LINE
  8
51
 10
16.5100
 20
24.7650
 30
0.0000
 11
16.5100
 21
23.7490
 31
0.0000
  0
CIRCLE
  8
21
 10
16.5100
 20
25.4000
 30
0.0000
 40
2.5400
  0
INSERT
  8
51
  2
RECT
 10
16.5100
 20
24.8920
 30
0.0000
 41
0.5080
 42
2.5400
 43
1.0000
 50
270.0000
  0
POINT
  8
24
 10
39.3700
 20
2.5400
 30
0.0000
  0
LINE
  8
40
 10
37.3970
 20
1.5570
 30
0.0000
 11
41.3430
 21
1.5570
 31
0.0000
  0
LINE
  8
40
 10
41.3430
 20
3.5230
 30
0.0000
 11
37.3970
 21
3.5230
 31
0.0000
  0
LINE
  8
40
 10
37.3970
 20
3.5230
 30
0.0000
 11
37.3970
 21
1.5570
 31
0.0000
  0
LINE
  8
52
 10
38.9890
 20
1.8800
 30
0.0000
 11
39.7510
 21
1.8800
 31
0.0000
  0
LINE
  8
52
 10
39.0140
 20
3.2000
 30
0.0000
 11
39.7510
 21
3.2000
 31
0.0000
  0
LINE
  8
40
 10
41.3430
 20
1.5570
 30
0.0000
 11
41.3430
 21
3.5230
 31
0.0000
  0
INSERT
  8
52
  2
RECT
 10
38.6529
 20
2.5389
 30
0.0000
 41
0.7501
 42
1.4501
 43
1.0000
 50
0.0000
  0
INSERT
  8
52
  2
RECT
 10
40.1007
 20
2.5389
 30
0.0000
 41
0.7501
 42
1.4501
 43
1.0000
 50
0.0000
  0
POINT
  8
23
 10
41.9100
 20
11.4300
 30
0.0000
  0
LINE
  8
39
 10
42.8930
 20
13.4030
 30
0.0000
 11
42.8930
 21
9.4570
 31
0.0000
  0
LINE
  8
39
 10
40.9270
 20
9.4570
 30
0.0000
 11
40.9270
 21
13.4030
 31
0.0000
  0
LINE
  8
39
 10
40.9270
 20
13.4030
 30
0.0000
 11
42.8930
 21
13.4030
 31
0.0000
  0
LINE
  8
51
 10
42.5700
 20
11.8110
 30
0.0000
 11
42.5700
 21
11.0490
 31
0.0000
  0
LINE
  8
51
 10
41.2500
 20
11.7860
 30
0.0000
 11
41.2500
 21
11.0490
 31
0.0000
  0
LINE
  8
39
 10
42.8930
 20
9.4570
 30
0.0000
 11
40.9270
 21
9.4570
 31
0.0000
  0
INSERT
  8
51
  2
RECT
 10
41.9111
 20
12.1471
 30
0.0000
 41
0.7501
 42
1.4501
 43
1.0000
 50
270.0000
  0
INSERT
  8
51
  2
RECT
 10
41.9111
 20
10.6994
 30
0.0000
 41
0.7501
 42
1.4501
 43
1.0000
 50
270.0000
  0
POINT
  8
23
 10
45.7200
 20
11.4300
 30
0.0000
  0
LINE
  8
39
 10
44.7370
 20
9.4570
 30
0.0000
 11
44.7370
 21
13.4030
 31
0.0000
  0
LINE
  8
39
 10
46.7030
 20
13.4030
 30
0.0000
 11
46.7030
 21
9.4570
 31
0.0000
  0
LINE
  8
39
 10
46.7030
 20
9.4570
 30
0.0000
 11
44.7370
 21
9.4570
 31
0.0000
  0
LINE
  8
51
 10
45.0600
 20
11.0490
 30
0.0000
 11
45.0600
 21
11.8110
 31
0.0000
  0
LINE
  8
51
 10
46.3800
 20
11.0740
 30
0.0000
 11
46.3800
 21
11.8110
 31
0.0000
  0
LINE
  8
39
 10
44.7370
 20
13.4030
 30
0.0000
 11
46.7030
 21
13.4030
 31
0.0000
  0
INSERT
  8
51
  2
RECT
 10
45.7189
 20
10.7129
 30
0.0000
 41
0.7501
 42
1.4501
 43
1.0000
 50
90.0000
  0
INSERT
  8
51
  2
RECT
 10
45.7189
 20
12.1607
 30
0.0000
 41
0.7501
 42
1.4501
 43
1.0000
 50
90.0000
  0
POINT
  8
23
 10
77.4700
 20
15.2400
 30
0.0000
  0
LINE
  8
21
 10
72.3900
 20
16.3830
 30
0.0000
 11
72.5170
 21
19.3040
 31
0.0000
  0
LINE
  8
21
 10
72.7710
 20
19.5580
 30
0.0000
 11
72.5170
 21
19.3040
 31
0.0000
  0
LINE
  8
21
 10
72.7710
 20
19.5580
 30
0.0000
 11
82.1690
 21
19.5580
 31
0.0000
  0
LINE
  8
21
 10
82.4230
 20
19.3040
 30
0.0000
 11
82.1690
 21
19.5580
 31
0.0000
  0
LINE
  8
21
 10
82.4230
 20
19.3040
 30
0.0000
 11
82.5500
 21
16.3830
 31
0.0000
  0
TEXT
  7
ISOCP
  8
51
 10
80.6450
 20
18.4150
 30
0.0000
 40
1.2700
  1
1
 72
2
 73
3
 11
80.6450
 21
18.4150
 31
0.0000
  0
TEXT
  7
ISOCP
  8
51
 10
78.1050
 20
18.4150
 30
0.0000
 40
1.2700
  1
2
 72
2
 73
3
 11
78.1050
 21
18.4150
 31
0.0000
  0
TEXT
  7
ISOCP
  8
51
 10
75.5650
 20
18.4150
 30
0.0000
 40
1.2700
  1
3
 72
2
 73
3
 11
75.5650
 21
18.4150
 31
0.0000
  0
CIRCLE
  8
21
 10
81.9658
 20
18.9484
 30
0.0000
 40
0.2540
  0
INSERT
  8
21
  2
RECT
 10
77.4700
 20
15.6210
 30
0.0000
 41
10.6680
 42
0.7620
 43
1.0000
 50
180.0000
  0
INSERT
  8
21
  2
RECT
 10
81.8515
 20
16.2560
 30
0.0000
 41
1.9050
 42
0.5080
 43
1.0000
 50
180.0000
  0
INSERT
  8
21
  2
RECT
 10
78.7400
 20
16.2560
 30
0.0000
 41
0.7620
 42
0.5080
 43
1.0000
 50
180.0000
  0
INSERT
  8
51
  2
RECT
 10
80.0100
 20
16.2560
 30
0.0000
 41
1.7780
 42
0.5080
 43
1.0000
 50
180.0000
  0
INSERT
  8
21
  2
RECT
 10
76.2000
 20
16.2560
 30
0.0000
 41
0.7620
 42
0.5080
 43
1.0000
 50
180.0000
  0
INSERT
  8
21
  2
RECT
 10
73.0885
 20
16.2560
 30
0.0000
 41
1.9050
 42
0.5080
 43
1.0000
 50
180.0000
  0
INSERT
  8
51
  2
RECT
 10
77.4700
 20
16.2560
 30
0.0000
 41
1.7780
 42
0.5080
 43
1.0000
 50
180.0000
  0
INSERT
  8
51
  2
RECT
 10
74.9300
 20
16.2560
 30
0.0000
 41
1.7780
 42
0.5080
 43
1.0000
 50
180.0000
  0
POINT
  8
23
 10
62.2300
 20
21.5900
 30
0.0000
  0
LINE
  8
21
 10
60.2400
 20
24.0499
 30
0.0000
 11
60.2400
 21
24.0900
 31
0.0000
  0
LINE
  8
21
 10
60.2400
 20
24.0900
 30
0.0000
 11
64.2200
 21
24.0900
 31
0.0000
  0
LINE
  8
21
 10
64.2200
 20
24.0900
 30
0.0000
 11
64.2200
 21
24.0499
 31
0.0000
  0
LINE
  8
21
 10
60.2400
 20
19.1301
 30
0.0000
 11
60.2400
 21
19.0900
 31
0.0000
  0
LINE
  8
21
 10
60.2400
 20
19.0900
 30
0.0000
 11
64.2200
 21
19.0900
 31
0.0000
  0
LINE
  8
21
 10
64.2200
 20
19.0900
 30
0.0000
 11
64.2200
 21
19.1301
 31
0.0000
  0
LINE
  8
51
 10
64.2200
 20
19.0900
 30
0.0000
 11
60.2400
 21
19.0900
 31
0.0000
  0
LINE
  8
51
 10
60.2400
 20
19.0900
 30
0.0000
 11
60.2400
 21
24.0900
 31
0.0000
  0
LINE
  8
51
 10
60.2400
 20
24.0900
 30
0.0000
 11
64.2200
 21
24.0900
 31
0.0000
  0
LINE
  8
51
 10
64.2200
 20
24.0900
 30
0.0000
 11
64.2200
 21
19.0900
 31
0.0000
  0
CIRCLE
  8
21
 10
59.5086
 20
24.2999
 30
0.0000
 40
0.2500
  0
POINT
  8
23
 10
44.4500
 20
6.3500
 30
0.0000
  0
LINE
  8
51
 10
40.7250
 20
9.1000
 30
0.0000
 11
48.1750
 21
9.1000
 31
0.0000
  0
LINE
  8
51
 10
48.1750
 20
9.1000
 30
0.0000
 11
48.1750
 21
3.6000
 31
0.0000
  0
LINE
  8
51
 10
48.1750
 20
3.6000
 30
0.0000
 11
40.7250
 21
3.6000
 31
0.0000
  0
LINE
  8
51
 10
40.7250
 20
3.6000
 30
0.0000
 11
40.7250
 21
9.1000
 31
0.0000
  0
LINE
  8
51
 10
42.5020
 20
8.8020
 30
0.0000
 11
46.3980
 21
8.8020
 31
0.0000
  0
LINE
  8
51
 10
46.3980
 20
8.8020
 30
0.0000
 11
46.3980
 21
3.8980
 31
0.0000
  0
LINE
  8
51
 10
46.3980
 20
3.8980
 30
0.0000
 11
42.5020
 21
3.8980
 31
0.0000
  0
LINE
  8
51
 10
42.5020
 20
3.8980
 30
0.0000
 11
42.5020
 21
8.8020
 31
0.0000
  0
LINE
  8
51
 10
42.5020
 20
7.5320
 30
0.0000
 11
43.7720
 21
8.8020
 31
0.0000
  0
LINE
  8
21
 10
42.8520
 20
8.8020
 30
0.0000
 11
46.0480
 21
8.8020
 31
0.0000
  0
LINE
  8
21
 10
46.0480
 20
8.8020
 30
0.0000
 11
46.0480
 21
3.8980
 31
0.0000
  0
LINE
  8
21
 10
46.0480
 20
3.8980
 30
0.0000
 11
42.8520
 21
3.8980
 31
0.0000
  0
LINE
  8
21
 10
42.8520
 20
3.8980
 30
0.0000
 11
42.8520
 21
8.8020
 31
0.0000
  0
LINE
  8
21
 10
40.9750
 20
8.9300
 30
0.0000
 11
42.5020
 21
8.9300
 31
0.0000
  0
POINT
  8
23
 10
43.1800
 20
25.4000
 30
0.0000
  0
LINE
  8
21
 10
45.0850
 20
24.1300
 30
0.0000
 11
43.8150
 21
24.1300
 31
0.0000
  0
LINE
  8
21
 10
43.8150
 20
24.1300
 30
0.0000
 11
43.1800
 21
24.7650
 31
0.0000
  0
LINE
  8
21
 10
43.1800
 20
24.7650
 30
0.0000
 11
43.1800
 21
26.0350
 31
0.0000
  0
LINE
  8
21
 10
43.1800
 20
26.0350
 30
0.0000
 11
43.8150
 21
26.6700
 31
0.0000
  0
LINE
  8
21
 10
45.7200
 20
24.7650
 30
0.0000
 11
45.7200
 21
26.0350
 31
0.0000
  0
LINE
  8
21
 10
45.0850
 20
24.1300
 30
0.0000
 11
45.7200
 21
24.7650
 31
0.0000
  0
LINE
  8
21
 10
45.7200
 20
26.0350
 30
0.0000
 11
45.0850
 21
26.6700
 31
0.0000
  0
LINE
  8
21
 10
43.8150
 20
26.6700
 30
0.0000
 11
45.0850
 21
26.6700
 31
0.0000
  0
LINE
  8
21
 10
43.1800
 20
24.7650
 30
0.0000
 11
42.5450
 21
24.1300
 31
0.0000
  0
LINE
  8
21
 10
42.5450
 20
24.1300
 30
0.0000
 11
41.2750
 21
24.1300
 31
0.0000
  0
LINE
  8
21
 10
41.2750
 20
24.1300
 30
0.0000
 11
40.6400
 21
24.7650
 31
0.0000
  0
LINE
  8
21
 10
40.6400
 20
24.7650
 30
0.0000
 11
40.6400
 21
26.0350
 31
0.0000
  0
LINE
  8
21
 10
40.6400
 20
26.0350
 30
0.0000
 11
41.2750
 21
26.6700
 31
0.0000
  0
LINE
  8
21
 10
41.2750
 20
26.6700
 30
0.0000
 11
42.5450
 21
26.6700
 31
0.0000
  0
LINE
  8
21
 10
42.5450
 20
26.6700
 30
0.0000
 11
43.1800
 21
26.0350
 31
0.0000
  0
INSERT
  8
51
  2
RECT
 10
44.4500
 20
25.4000
 30
0.0000
 41
0.5080
 42
0.5080
 43
1.0000
 50
180.0000
  0
INSERT
  8
51
  2
RECT
 10
41.9100
 20
25.4000
 30
0.0000
 41
0.5080
 42
0.5080
 43
1.0000
 50
180.0000
  0
POINT
  8
23
 10
8.8900
 20
20.3200
 30
0.0000
  0
LINE
  8
21
 10
6.9850
 20
21.5900
 30
0.0000
 11
8.2550
 21
21.5900
 31
0.0000
  0
LINE
  8
21
 10
8.2550
 20
21.5900
 30
0.0000
 11
8.8900
 21
20.9550
 31
0.0000
  0
LINE
  8
21
 10
8.8900
 20
20.9550
 30
0.0000
 11
8.8900
 21
19.6850
 31
0.0000
  0
LINE
  8
21
 10
8.8900
 20
19.6850
 30
0.0000
 11
8.2550
 21
19.0500
 31
0.0000
  0
LINE
  8
21
 10
6.3500
 20
20.9550
 30
0.0000
 11
6.3500
 21
19.6850
 31
0.0000
  0
LINE
  8
21
 10
6.9850
 20
21.5900
 30
0.0000
 11
6.3500
 21
20.9550
 31
0.0000
  0
LINE
  8
21
 10
6.3500
 20
19.6850
 30
0.0000
 11
6.9850
 21
19.0500
 31
0.0000
  0
LINE
  8
21
 10
8.2550
 20
19.0500
 30
0.0000
 11
6.9850
 21
19.0500
 31
0.0000
  0
LINE
  8
21
 10
8.8900
 20
20.9550
 30
0.0000
 11
9.5250
 21
21.5900
 31
0.0000
  0
LINE
  8
21
 10
9.5250
 20
21.5900
 30
0.0000
 11
10.7950
 21
21.5900
 31
0.0000
  0
LINE
  8
21
 10
10.7950
 20
21.5900
 30
0.0000
 11
11.4300
 21
20.9550
 31
0.0000
  0
LINE
  8
21
 10
11.4300
 20
20.9550
 30
0.0000
 11
11.4300
 21
19.6850
 31
0.0000
  0
LINE
  8
21
 10
11.4300
 20
19.6850
 30
0.0000
 11
10.7950
 21
19.0500
 31
0.0000
  0
LINE
  8
21
 10
10.7950
 20
19.0500
 30
0.0000
 11
9.5250
 21
19.0500
 31
0.0000
  0
LINE
  8
21
 10
9.5250
 20
19.0500
 30
0.0000
 11
8.8900
 21
19.6850
 31
0.0000
  0
INSERT
  8
51
  2
RECT
 10
7.6200
 20
20.3200
 30
0.0000
 41
0.5080
 42
0.5080
 43
1.0000
 50
0.0000
  0
INSERT
  8
51
  2
RECT
 10
10.1600
 20
20.3200
 30
0.0000
 41
0.5080
 42
0.5080
 43
1.0000
 50
0.0000
  0
POINT
  8
23
 10
38.1000
 20
25.4000
 30
0.0000
  0
LINE
  8
21
 10
36.1950
 20
26.6700
 30
0.0000
 11
37.4650
 21
26.6700
 31
0.0000
  0
LINE
  8
21
 10
37.4650
 20
26.6700
 30
0.0000
 11
38.1000
 21
26.0350
 31
0.0000
  0
LINE
  8
21
 10
38.1000
 20
26.0350
 30
0.0000
 11
38.1000
 21
24.7650
 31
0.0000
  0
LINE
  8
21
 10
38.1000
 20
24.7650
 30
0.0000
 11
37.4650
 21
24.1300
 31
0.0000
  0
LINE
  8
21
 10
35.5600
 20
26.0350
 30
0.0000
 11
35.5600
 21
24.7650
 31
0.0000
  0
LINE
  8
21
 10
36.1950
 20
26.6700
 30
0.0000
 11
35.5600
 21
26.0350
 31
0.0000
  0
LINE
  8
21
 10
35.5600
 20
24.7650
 30
0.0000
 11
36.1950
 21
24.1300
 31
0.0000
  0
LINE
  8
21
 10
37.4650
 20
24.1300
 30
0.0000
 11
36.1950
 21
24.1300
 31
0.0000
  0
LINE
  8
21
 10
38.1000
 20
26.0350
 30
0.0000
 11
38.7350
 21
26.6700
 31
0.0000
  0
LINE
  8
21
 10
38.7350
 20
26.6700
 30
0.0000
 11
40.0050
 21
26.6700
 31
0.0000
  0
LINE
  8
21
 10
40.0050
 20
26.6700
 30
0.0000
 11
40.6400
 21
26.0350
 31
0.0000
  0
LINE
  8
21
 10
40.6400
 20
26.0350
 30
0.0000
 11
40.6400
 21
24.7650
 31
0.0000
  0
LINE
  8
21
 10
40.6400
 20
24.7650
 30
0.0000
 11
40.0050
 21
24.1300
 31
0.0000
  0
LINE
  8
21
 10
40.0050
 20
24.1300
 30
0.0000
 11
38.7350
 21
24.1300
 31
0.0000
  0
LINE
  8
21
 10
38.7350
 20
24.1300
 30
0.0000
 11
38.1000
 21
24.7650
 31
0.0000
  0
INSERT
  8
51
  2
RECT
 10
36.8300
 20
25.4000
 30
0.0000
 41
0.5080
 42
0.5080
 43
1.0000
 50
0.0000
  0
INSERT
  8
51
  2
RECT
 10
39.3700
 20
25.4000
 30
0.0000
 41
0.5080
 42
0.5080
 43
1.0000
 50
0.0000
  0
POINT
  8
23
 10
3.8100
 20
20.3200
 30
0.0000
  0
LINE
  8
21
 10
1.9050
 20
21.5900
 30
0.0000
 11
3.1750
 21
21.5900
 31
0.0000
  0
LINE
  8
21
 10
3.1750
 20
21.5900
 30
0.0000
 11
3.8100
 21
20.9550
 31
0.0000
  0
LINE
  8
21
 10
3.8100
 20
20.9550
 30
0.0000
 11
3.8100
 21
19.6850
 31
0.0000
  0
LINE
  8
21
 10
3.8100
 20
19.6850
 30
0.0000
 11
3.1750
 21
19.0500
 31
0.0000
  0
LINE
  8
21
 10
1.2700
 20
20.9550
 30
0.0000
 11
1.2700
 21
19.6850
 31
0.0000
  0
LINE
  8
21
 10
1.9050
 20
21.5900
 30
0.0000
 11
1.2700
 21
20.9550
 31
0.0000
  0
LINE
  8
21
 10
1.2700
 20
19.6850
 30
0.0000
 11
1.9050
 21
19.0500
 31
0.0000
  0
LINE
  8
21
 10
3.1750
 20
19.0500
 30
0.0000
 11
1.9050
 21
19.0500
 31
0.0000
  0
LINE
  8
21
 10
3.8100
 20
20.9550
 30
0.0000
 11
4.4450
 21
21.5900
 31
0.0000
  0
LINE
  8
21
 10
4.4450
 20
21.5900
 30
0.0000
 11
5.7150
 21
21.5900
 31
0.0000
  0
LINE
  8
21
 10
5.7150
 20
21.5900
 30
0.0000
 11
6.3500
 21
20.9550
 31
0.0000
  0
LINE
  8
21
 10
6.3500
 20
20.9550
 30
0.0000
 11
6.3500
 21
19.6850
 31
0.0000
  0
LINE
  8
21
 10
6.3500
 20
19.6850
 30
0.0000
 11
5.7150
 21
19.0500
 31
0.0000
  0
LINE
  8
21
 10
5.7150
 20
19.0500
 30
0.0000
 11
4.4450
 21
19.0500
 31
0.0000
  0
LINE
  8
21
 10
4.4450
 20
19.0500
 30
0.0000
 11
3.8100
 21
19.6850
 31
0.0000
  0
INSERT
  8
51
  2
RECT
 10
2.5400
 20
20.3200
 30
0.0000
 41
0.5080
 42
0.5080
 43
1.0000
 50
0.0000
  0
INSERT
  8
51
  2
RECT
 10
5.0800
 20
20.3200
 30
0.0000
 41
0.5080
 42
0.5080
 43
1.0000
 50
0.0000
  0
POINT
  8
23
 10
73.6600
 20
26.6700
 30
0.0000
  0
LINE
  8
21
 10
71.7550
 20
27.9400
 30
0.0000
 11
73.0250
 21
27.9400
 31
0.0000
  0
LINE
  8
21
 10
73.0250
 20
27.9400
 30
0.0000
 11
73.6600
 21
27.3050
 31
0.0000
  0
LINE
  8
21
 10
73.6600
 20
27.3050
 30
0.0000
 11
73.6600
 21
26.0350
 31
0.0000
  0
LINE
  8
21
 10
73.6600
 20
26.0350
 30
0.0000
 11
73.0250
 21
25.4000
 31
0.0000
  0
LINE
  8
21
 10
71.1200
 20
27.3050
 30
0.0000
 11
71.1200
 21
26.0350
 31
0.0000
  0
LINE
  8
21
 10
71.7550
 20
27.9400
 30
0.0000
 11
71.1200
 21
27.3050
 31
0.0000
  0
LINE
  8
21
 10
71.1200
 20
26.0350
 30
0.0000
 11
71.7550
 21
25.4000
 31
0.0000
  0
LINE
  8
21
 10
73.0250
 20
25.4000
 30
0.0000
 11
71.7550
 21
25.4000
 31
0.0000
  0
LINE
  8
21
 10
73.6600
 20
27.3050
 30
0.0000
 11
74.2950
 21
27.9400
 31
0.0000
  0
LINE
  8
21
 10
74.2950
 20
27.9400
 30
0.0000
 11
75.5650
 21
27.9400
 31
0.0000
  0
LINE
  8
21
 10
75.5650
 20
27.9400
 30
0.0000
 11
76.2000
 21
27.3050
 31
0.0000
  0
LINE
  8
21
 10
76.2000
 20
27.3050
 30
0.0000
 11
76.2000
 21
26.0350
 31
0.0000
  0
LINE
  8
21
 10
76.2000
 20
26.0350
 30
0.0000
 11
75.5650
 21
25.4000
 31
0.0000
  0
LINE
  8
21
 10
75.5650
 20
25.4000
 30
0.0000
 11
74.2950
 21
25.4000
 31
0.0000
  0
LINE
  8
21
 10
74.2950
 20
25.4000
 30
0.0000
 11
73.6600
 21
26.0350
 31
0.0000
  0
INSERT
  8
51
  2
RECT
 10
72.3900
 20
26.6700
 30
0.0000
 41
0.5080
 42
0.5080
 43
1.0000
 50
0.0000
  0
INSERT
  8
51
  2
RECT
 10
74.9300
 20
26.6700
 30
0.0000
 41
0.5080
 42
0.5080
 43
1.0000
 50
0.0000
  0
POINT
  8
23
 10
68.5800
 20
26.6700
 30
0.0000
  0
LINE
  8
21
 10
70.4850
 20
25.4000
 30
0.0000
 11
69.2150
 21
25.4000
 31
0.0000
  0
LINE
  8
21
 10
69.2150
 20
25.4000
 30
0.0000
 11
68.5800
 21
26.0350
 31
0.0000
  0
LINE
  8
21
 10
68.5800
 20
26.0350
 30
0.0000
 11
68.5800
 21
27.3050
 31
0.0000
  0
LINE
  8
21
 10
68.5800
 20
27.3050
 30
0.0000
 11
69.2150
 21
27.9400
 31
0.0000
  0
LINE
  8
21
 10
71.1200
 20
26.0350
 30
0.0000
 11
71.1200
 21
27.3050
 31
0.0000
  0
LINE
  8
21
 10
70.4850
 20
25.4000
 30
0.0000
 11
71.1200
 21
26.0350
 31
0.0000
  0
LINE
  8
21
 10
71.1200
 20
27.3050
 30
0.0000
 11
70.4850
 21
27.9400
 31
0.0000
  0
LINE
  8
21
 10
69.2150
 20
27.9400
 30
0.0000
 11
70.4850
 21
27.9400
 31
0.0000
  0
LINE
  8
21
 10
68.5800
 20
26.0350
 30
0.0000
 11
67.9450
 21
25.4000
 31
0.0000
  0
LINE
  8
21
 10
67.9450
 20
25.4000
 30
0.0000
 11
66.6750
 21
25.4000
 31
0.0000
  0
LINE
  8
21
 10
66.6750
 20
25.4000
 30
0.0000
 11
66.0400
 21
26.0350
 31
0.0000
  0
LINE
  8
21
 10
66.0400
 20
26.0350
 30
0.0000
 11
66.0400
 21
27.3050
 31
0.0000
  0
LINE
  8
21
 10
66.0400
 20
27.3050
 30
0.0000
 11
66.6750
 21
27.9400
 31
0.0000
  0
LINE
  8
21
 10
66.6750
 20
27.9400
 30
0.0000
 11
67.9450
 21
27.9400
 31
0.0000
  0
LINE
  8
21
 10
67.9450
 20
27.9400
 30
0.0000
 11
68.5800
 21
27.3050
 31
0.0000
  0
INSERT
  8
51
  2
RECT
 10
69.8500
 20
26.6700
 30
0.0000
 41
0.5080
 42
0.5080
 43
1.0000
 50
180.0000
  0
INSERT
  8
51
  2
RECT
 10
67.3100
 20
26.6700
 30
0.0000
 41
0.5080
 42
0.5080
 43
1.0000
 50
180.0000
  0
POINT
  8
23
 10
60.9600
 20
3.8100
 30
0.0000
  0
LINE
  8
21
 10
62.2300
 20
5.7150
 30
0.0000
 11
62.2300
 21
4.4450
 31
0.0000
  0
LINE
  8
21
 10
62.2300
 20
4.4450
 30
0.0000
 11
61.5950
 21
3.8100
 31
0.0000
  0
LINE
  8
21
 10
61.5950
 20
3.8100
 30
0.0000
 11
60.3250
 21
3.8100
 31
0.0000
  0
LINE
  8
21
 10
60.3250
 20
3.8100
 30
0.0000
 11
59.6900
 21
4.4450
 31
0.0000
  0
LINE
  8
21
 10
61.5950
 20
6.3500
 30
0.0000
 11
60.3250
 21
6.3500
 31
0.0000
  0
LINE
  8
21
 10
62.2300
 20
5.7150
 30
0.0000
 11
61.5950
 21
6.3500
 31
0.0000
  0
LINE
  8
21
 10
60.3250
 20
6.3500
 30
0.0000
 11
59.6900
 21
5.7150
 31
0.0000
  0
LINE
  8
21
 10
59.6900
 20
4.4450
 30
0.0000
 11
59.6900
 21
5.7150
 31
0.0000
  0
LINE
  8
21
 10
61.5950
 20
3.8100
 30
0.0000
 11
62.2300
 21
3.1750
 31
0.0000
  0
LINE
  8
21
 10
62.2300
 20
3.1750
 30
0.0000
 11
62.2300
 21
1.9050
 31
0.0000
  0
LINE
  8
21
 10
62.2300
 20
1.9050
 30
0.0000
 11
61.5950
 21
1.2700
 31
0.0000
  0
LINE
  8
21
 10
61.5950
 20
1.2700
 30
0.0000
 11
60.3250
 21
1.2700
 31
0.0000
  0
LINE
  8
21
 10
60.3250
 20
1.2700
 30
0.0000
 11
59.6900
 21
1.9050
 31
0.0000
  0
LINE
  8
21
 10
59.6900
 20
1.9050
 30
0.0000
 11
59.6900
 21
3.1750
 31
0.0000
  0
LINE
  8
21
 10
59.6900
 20
3.1750
 30
0.0000
 11
60.3250
 21
3.8100
 31
0.0000
  0
INSERT
  8
51
  2
RECT
 10
60.9600
 20
5.0800
 30
0.0000
 41
0.5080
 42
0.5080
 43
1.0000
 50
270.0000
  0
INSERT
  8
51
  2
RECT
 10
60.9600
 20
2.5400
 30
0.0000
 41
0.5080
 42
0.5080
 43
1.0000
 50
270.0000
  0
POINT
  8
23
 10
60.9600
 20
8.8900
 30
0.0000
  0
LINE
  8
21
 10
62.2300
 20
10.7950
 30
0.0000
 11
62.2300
 21
9.5250
 31
0.0000
  0
LINE
  8
21
 10
62.2300
 20
9.5250
 30
0.0000
 11
61.5950
 21
8.8900
 31
0.0000
  0
LINE
  8
21
 10
61.5950
 20
8.8900
 30
0.0000
 11
60.3250
 21
8.8900
 31
0.0000
  0
LINE
  8
21
 10
60.3250
 20
8.8900
 30
0.0000
 11
59.6900
 21
9.5250
 31
0.0000
  0
LINE
  8
21
 10
61.5950
 20
11.4300
 30
0.0000
 11
60.3250
 21
11.4300
 31
0.0000
  0
LINE
  8
21
 10
62.2300
 20
10.7950
 30
0.0000
 11
61.5950
 21
11.4300
 31
0.0000
  0
LINE
  8
21
 10
60.3250
 20
11.4300
 30
0.0000
 11
59.6900
 21
10.7950
 31
0.0000
  0
LINE
  8
21
 10
59.6900
 20
9.5250
 30
0.0000
 11
59.6900
 21
10.7950
 31
0.0000
  0
LINE
  8
21
 10
61.5950
 20
8.8900
 30
0.0000
 11
62.2300
 21
8.2550
 31
0.0000
  0
LINE
  8
21
 10
62.2300
 20
8.2550
 30
0.0000
 11
62.2300
 21
6.9850
 31
0.0000
  0
LINE
  8
21
 10
62.2300
 20
6.9850
 30
0.0000
 11
61.5950
 21
6.3500
 31
0.0000
  0
LINE
  8
21
 10
61.5950
 20
6.3500
 30
0.0000
 11
60.3250
 21
6.3500
 31
0.0000
  0
LINE
  8
21
 10
60.3250
 20
6.3500
 30
0.0000
 11
59.6900
 21
6.9850
 31
0.0000
  0
LINE
  8
21
 10
59.6900
 20
6.9850
 30
0.0000
 11
59.6900
 21
8.2550
 31
0.0000
  0
LINE
  8
21
 10
59.6900
 20
8.2550
 30
0.0000
 11
60.3250
 21
8.8900
 31
0.0000
  0
INSERT
  8
51
  2
RECT
 10
60.9600
 20
10.1600
 30
0.0000
 41
0.5080
 42
0.5080
 43
1.0000
 50
270.0000
  0
INSERT
  8
51
  2
RECT
 10
60.9600
 20
7.6200
 30
0.0000
 41
0.5080
 42
0.5080
 43
1.0000
 50
270.0000
  0
POINT
  8
23
 10
63.5000
 20
3.8100
 30
0.0000
  0
LINE
  8
21
 10
64.7700
 20
5.7150
 30
0.0000
 11
64.7700
 21
4.4450
 31
0.0000
  0
LINE
  8
21
 10
64.7700
 20
4.4450
 30
0.0000
 11
64.1350
 21
3.8100
 31
0.0000
  0
LINE
  8
21
 10
64.1350
 20
3.8100
 30
0.0000
 11
62.8650
 21
3.8100
 31
0.0000
  0
LINE
  8
21
 10
62.8650
 20
3.8100
 30
0.0000
 11
62.2300
 21
4.4450
 31
0.0000
  0
LINE
  8
21
 10
64.1350
 20
6.3500
 30
0.0000
 11
62.8650
 21
6.3500
 31
0.0000
  0
LINE
  8
21
 10
64.7700
 20
5.7150
 30
0.0000
 11
64.1350
 21
6.3500
 31
0.0000
  0
LINE
  8
21
 10
62.8650
 20
6.3500
 30
0.0000
 11
62.2300
 21
5.7150
 31
0.0000
  0
LINE
  8
21
 10
62.2300
 20
4.4450
 30
0.0000
 11
62.2300
 21
5.7150
 31
0.0000
  0
LINE
  8
21
 10
64.1350
 20
3.8100
 30
0.0000
 11
64.7700
 21
3.1750
 31
0.0000
  0
LINE
  8
21
 10
64.7700
 20
3.1750
 30
0.0000
 11
64.7700
 21
1.9050
 31
0.0000
  0
LINE
  8
21
 10
64.7700
 20
1.9050
 30
0.0000
 11
64.1350
 21
1.2700
 31
0.0000
  0
LINE
  8
21
 10
64.1350
 20
1.2700
 30
0.0000
 11
62.8650
 21
1.2700
 31
0.0000
  0
LINE
  8
21
 10
62.8650
 20
1.2700
 30
0.0000
 11
62.2300
 21
1.9050
 31
0.0000
  0
LINE
  8
21
 10
62.2300
 20
1.9050
 30
0.0000
 11
62.2300
 21
3.1750
 31
0.0000
  0
LINE
  8
21
 10
62.2300
 20
3.1750
 30
0.0000
 11
62.8650
 21
3.8100
 31
0.0000
  0
INSERT
  8
51
  2
RECT
 10
63.5000
 20
5.0800
 30
0.0000
 41
0.5080
 42
0.5080
 43
1.0000
 50
270.0000
  0
INSERT
  8
51
  2
RECT
 10
63.5000
 20
2.5400
 30
0.0000
 41
0.5080
 42
0.5080
 43
1.0000
 50
270.0000
  0
POINT
  8
23
 10
63.5000
 20
8.8900
 30
0.0000
  0
LINE
  8
21
 10
64.7700
 20
10.7950
 30
0.0000
 11
64.7700
 21
9.5250
 31
0.0000
  0
LINE
  8
21
 10
64.7700
 20
9.5250
 30
0.0000
 11
64.1350
 21
8.8900
 31
0.0000
  0
LINE
  8
21
 10
64.1350
 20
8.8900
 30
0.0000
 11
62.8650
 21
8.8900
 31
0.0000
  0
LINE
  8
21
 10
62.8650
 20
8.8900
 30
0.0000
 11
62.2300
 21
9.5250
 31
0.0000
  0
LINE
  8
21
 10
64.1350
 20
11.4300
 30
0.0000
 11
62.8650
 21
11.4300
 31
0.0000
  0
LINE
  8
21
 10
64.7700
 20
10.7950
 30
0.0000
 11
64.1350
 21
11.4300
 31
0.0000
  0
LINE
  8
21
 10
62.8650
 20
11.4300
 30
0.0000
 11
62.2300
 21
10.7950
 31
0.0000
  0
LINE
  8
21
 10
62.2300
 20
9.5250
 30
0.0000
 11
62.2300
 21
10.7950
 31
0.0000
  0
LINE
  8
21
 10
64.1350
 20
8.8900
 30
0.0000
 11
64.7700
 21
8.2550
 31
0.0000
  0
LINE
  8
21
 10
64.7700
 20
8.2550
 30
0.0000
 11
64.7700
 21
6.9850
 31
0.0000
  0
LINE
  8
21
 10
64.7700
 20
6.9850
 30
0.0000
 11
64.1350
 21
6.3500
 31
0.0000
  0
LINE
  8
21
 10
64.1350
 20
6.3500
 30
0.0000
 11
62.8650
 21
6.3500
 31
0.0000
  0
LINE
  8
21
 10
62.8650
 20
6.3500
 30
0.0000
 11
62.2300
 21
6.9850
 31
0.0000
  0
LINE
  8
21
 10
62.2300
 20
6.9850
 30
0.0000
 11
62.2300
 21
8.2550
 31
0.0000
  0
LINE
  8
21
 10
62.2300
 20
8.2550
 30
0.0000
 11
62.8650
 21
8.8900
 31
0.0000
  0
INSERT
  8
51
  2
RECT
 10
63.5000
 20
10.1600
 30
0.0000
 41
0.5080
 42
0.5080
 43
1.0000
 50
270.0000
  0
INSERT
  8
51
  2
RECT
 10
63.5000
 20
7.6200
 30
0.0000
 41
0.5080
 42
0.5080
 43
1.0000
 50
270.0000
  0
POINT
  8
23
 10
66.0400
 20
3.8100
 30
0.0000
  0
LINE
  8
21
 10
67.3100
 20
5.7150
 30
0.0000
 11
67.3100
 21
4.4450
 31
0.0000
  0
LINE
  8
21
 10
67.3100
 20
4.4450
 30
0.0000
 11
66.6750
 21
3.8100
 31
0.0000
  0
LINE
  8
21
 10
66.6750
 20
3.8100
 30
0.0000
 11
65.4050
 21
3.8100
 31
0.0000
  0
LINE
  8
21
 10
65.4050
 20
3.8100
 30
0.0000
 11
64.7700
 21
4.4450
 31
0.0000
  0
LINE
  8
21
 10
66.6750
 20
6.3500
 30
0.0000
 11
65.4050
 21
6.3500
 31
0.0000
  0
LINE
  8
21
 10
67.3100
 20
5.7150
 30
0.0000
 11
66.6750
 21
6.3500
 31
0.0000
  0
LINE
  8
21
 10
65.4050
 20
6.3500
 30
0.0000
 11
64.7700
 21
5.7150
 31
0.0000
  0
LINE
  8
21
 10
64.7700
 20
4.4450
 30
0.0000
 11
64.7700
 21
5.7150
 31
0.0000
  0
LINE
  8
21
 10
66.6750
 20
3.8100
 30
0.0000
 11
67.3100
 21
3.1750
 31
0.0000
  0
LINE
  8
21
 10
67.3100
 20
3.1750
 30
0.0000
 11
67.3100
 21
1.9050
 31
0.0000
  0
LINE
  8
21
 10
67.3100
 20
1.9050
 30
0.0000
 11
66.6750
 21
1.2700
 31
0.0000
  0
LINE
  8
21
 10
66.6750
 20
1.2700
 30
0.0000
 11
65.4050
 21
1.2700
 31
0.0000
  0
LINE
  8
21
 10
65.4050
 20
1.2700
 30
0.0000
 11
64.7700
 21
1.9050
 31
0.0000
  0
LINE
  8
21
 10
64.7700
 20
1.9050
 30
0.0000
 11
64.7700
 21
3.1750
 31
0.0000
  0
LINE
  8
21
 10
64.7700
 20
3.1750
 30
0.0000
 11
65.4050
 21
3.8100
 31
0.0000
  0
INSERT
  8
51
  2
RECT
 10
66.0400
 20
5.0800
 30
0.0000
 41
0.5080
 42
0.5080
 43
1.0000
 50
270.0000
  0
INSERT
  8
51
  2
RECT
 10
66.0400
 20
2.5400
 30
0.0000
 41
0.5080
 42
0.5080
 43
1.0000
 50
270.0000
  0
POINT
  8
23
 10
66.0400
 20
8.8900
 30
0.0000
  0
LINE
  8
21
 10
67.3100
 20
10.7950
 30
0.0000
 11
67.3100
 21
9.5250
 31
0.0000
  0
LINE
  8
21
 10
67.3100
 20
9.5250
 30
0.0000
 11
66.6750
 21
8.8900
 31
0.0000
  0
LINE
  8
21
 10
66.6750
 20
8.8900
 30
0.0000
 11
65.4050
 21
8.8900
 31
0.0000
  0
LINE
  8
21
 10
65.4050
 20
8.8900
 30
0.0000
 11
64.7700
 21
9.5250
 31
0.0000
  0
LINE
  8
21
 10
66.6750
 20
11.4300
 30
0.0000
 11
65.4050
 21
11.4300
 31
0.0000
  0
LINE
  8
21
 10
67.3100
 20
10.7950
 30
0.0000
 11
66.6750
 21
11.4300
 31
0.0000
  0
LINE
  8
21
 10
65.4050
 20
11.4300
 30
0.0000
 11
64.7700
 21
10.7950
 31
0.0000
  0
LINE
  8
21
 10
64.7700
 20
9.5250
 30
0.0000
 11
64.7700
 21
10.7950
 31
0.0000
  0
LINE
  8
21
 10
66.6750
 20
8.8900
 30
0.0000
 11
67.3100
 21
8.2550
 31
0.0000
  0
LINE
  8
21
 10
67.3100
 20
8.2550
 30
0.0000
 11
67.3100
 21
6.9850
 31
0.0000
  0
LINE
  8
21
 10
67.3100
 20
6.9850
 30
0.0000
 11
66.6750
 21
6.3500
 31
0.0000
  0
LINE
  8
21
 10
66.6750
 20
6.3500
 30
0.0000
 11
65.4050
 21
6.3500
 31
0.0000
  0
LINE
  8
21
 10
65.4050
 20
6.3500
 30
0.0000
 11
64.7700
 21
6.9850
 31
0.0000
  0
LINE
  8
21
 10
64.7700
 20
6.9850
 30
0.0000
 11
64.7700
 21
8.2550
 31
0.0000
  0
LINE
  8
21
 10
64.7700
 20
8.2550
 30
0.0000
 11
65.4050
 21
8.8900
 31
0.0000
  0
INSERT
  8
51
  2
RECT
 10
66.0400
 20
10.1600
 30
0.0000
 41
0.5080
 42
0.5080
 43
1.0000
 50
270.0000
  0
INSERT
  8
51
  2
RECT
 10
66.0400
 20
7.6200
 30
0.0000
 41
0.5080
 42
0.5080
 43
1.0000
 50
270.0000
  0
POINT
  8
23
 10
55.8800
 20
10.1600
 30
0.0000
  0
LINE
  8
21
 10
57.1500
 20
12.0650
 30
0.0000
 11
57.1500
 21
10.7950
 31
0.0000
  0
LINE
  8
21
 10
57.1500
 20
10.7950
 30
0.0000
 11
56.5150
 21
10.1600
 31
0.0000
  0
LINE
  8
21
 10
56.5150
 20
10.1600
 30
0.0000
 11
55.2450
 21
10.1600
 31
0.0000
  0
LINE
  8
21
 10
55.2450
 20
10.1600
 30
0.0000
 11
54.6100
 21
10.7950
 31
0.0000
  0
LINE
  8
21
 10
56.5150
 20
12.7000
 30
0.0000
 11
55.2450
 21
12.7000
 31
0.0000
  0
LINE
  8
21
 10
57.1500
 20
12.0650
 30
0.0000
 11
56.5150
 21
12.7000
 31
0.0000
  0
LINE
  8
21
 10
55.2450
 20
12.7000
 30
0.0000
 11
54.6100
 21
12.0650
 31
0.0000
  0
LINE
  8
21
 10
54.6100
 20
10.7950
 30
0.0000
 11
54.6100
 21
12.0650
 31
0.0000
  0
LINE
  8
21
 10
56.5150
 20
10.1600
 30
0.0000
 11
57.1500
 21
9.5250
 31
0.0000
  0
LINE
  8
21
 10
57.1500
 20
9.5250
 30
0.0000
 11
57.1500
 21
8.2550
 31
0.0000
  0
LINE
  8
21
 10
57.1500
 20
8.2550
 30
0.0000
 11
56.5150
 21
7.6200
 31
0.0000
  0
LINE
  8
21
 10
56.5150
 20
7.6200
 30
0.0000
 11
55.2450
 21
7.6200
 31
0.0000
  0
LINE
  8
21
 10
55.2450
 20
7.6200
 30
0.0000
 11
54.6100
 21
8.2550
 31
0.0000
  0
LINE
  8
21
 10
54.6100
 20
8.2550
 30
0.0000
 11
54.6100
 21
9.5250
 31
0.0000
  0
LINE
  8
21
 10
54.6100
 20
9.5250
 30
0.0000
 11
55.2450
 21
10.1600
 31
0.0000
  0
INSERT
  8
51
  2
RECT
 10
55.8800
 20
11.4300
 30
0.0000
 41
0.5080
 42
0.5080
 43
1.0000
 50
270.0000
  0
INSERT
  8
51
  2
RECT
 10
55.8800
 20
8.8900
 30
0.0000
 41
0.5080
 42
0.5080
 43
1.0000
 50
270.0000
  0
POINT
  8
23
 10
55.8800
 20
5.0800
 30
0.0000
  0
LINE
  8
21
 10
57.1500
 20
6.9850
 30
0.0000
 11
57.1500
 21
5.7150
 31
0.0000
  0
LINE
  8
21
 10
57.1500
 20
5.7150
 30
0.0000
 11
56.5150
 21
5.0800
 31
0.0000
  0
LINE
  8
21
 10
56.5150
 20
5.0800
 30
0.0000
 11
55.2450
 21
5.0800
 31
0.0000
  0
LINE
  8
21
 10
55.2450
 20
5.0800
 30
0.0000
 11
54.6100
 21
5.7150
 31
0.0000
  0
LINE
  8
21
 10
56.5150
 20
7.6200
 30
0.0000
 11
55.2450
 21
7.6200
 31
0.0000
  0
LINE
  8
21
 10
57.1500
 20
6.9850
 30
0.0000
 11
56.5150
 21
7.6200
 31
0.0000
  0
LINE
  8
21
 10
55.2450
 20
7.6200
 30
0.0000
 11
54.6100
 21
6.9850
 31
0.0000
  0
LINE
  8
21
 10
54.6100
 20
5.7150
 30
0.0000
 11
54.6100
 21
6.9850
 31
0.0000
  0
LINE
  8
21
 10
56.5150
 20
5.0800
 30
0.0000
 11
57.1500
 21
4.4450
 31
0.0000
  0
LINE
  8
21
 10
57.1500
 20
4.4450
 30
0.0000
 11
57.1500
 21
3.1750
 31
0.0000
  0
LINE
  8
21
 10
57.1500
 20
3.1750
 30
0.0000
 11
56.5150
 21
2.5400
 31
0.0000
  0
LINE
  8
21
 10
56.5150
 20
2.5400
 30
0.0000
 11
55.2450
 21
2.5400
 31
0.0000
  0
LINE
  8
21
 10
55.2450
 20
2.5400
 30
0.0000
 11
54.6100
 21
3.1750
 31
0.0000
  0
LINE
  8
21
 10
54.6100
 20
3.1750
 30
0.0000
 11
54.6100
 21
4.4450
 31
0.0000
  0
LINE
  8
21
 10
54.6100
 20
4.4450
 30
0.0000
 11
55.2450
 21
5.0800
 31
0.0000
  0
INSERT
  8
51
  2
RECT
 10
55.8800
 20
6.3500
 30
0.0000
 41
0.5080
 42
0.5080
 43
1.0000
 50
270.0000
  0
INSERT
  8
51
  2
RECT
 10
55.8800
 20
3.8100
 30
0.0000
 41
0.5080
 42
0.5080
 43
1.0000
 50
270.0000
  0
POINT
  8
23
 10
68.5800
 20
3.8100
 30
0.0000
  0
LINE
  8
21
 10
69.8500
 20
5.7150
 30
0.0000
 11
69.8500
 21
4.4450
 31
0.0000
  0
LINE
  8
21
 10
69.8500
 20
4.4450
 30
0.0000
 11
69.2150
 21
3.8100
 31
0.0000
  0
LINE
  8
21
 10
69.2150
 20
3.8100
 30
0.0000
 11
67.9450
 21
3.8100
 31
0.0000
  0
LINE
  8
21
 10
67.9450
 20
3.8100
 30
0.0000
 11
67.3100
 21
4.4450
 31
0.0000
  0
LINE
  8
21
 10
69.2150
 20
6.3500
 30
0.0000
 11
67.9450
 21
6.3500
 31
0.0000
  0
LINE
  8
21
 10
69.8500
 20
5.7150
 30
0.0000
 11
69.2150
 21
6.3500
 31
0.0000
  0
LINE
  8
21
 10
67.9450
 20
6.3500
 30
0.0000
 11
67.3100
 21
5.7150
 31
0.0000
  0
LINE
  8
21
 10
67.3100
 20
4.4450
 30
0.0000
 11
67.3100
 21
5.7150
 31
0.0000
  0
LINE
  8
21
 10
69.2150
 20
3.8100
 30
0.0000
 11
69.8500
 21
3.1750
 31
0.0000
  0
LINE
  8
21
 10
69.8500
 20
3.1750
 30
0.0000
 11
69.8500
 21
1.9050
 31
0.0000
  0
LINE
  8
21
 10
69.8500
 20
1.9050
 30
0.0000
 11
69.2150
 21
1.2700
 31
0.0000
  0
LINE
  8
21
 10
69.2150
 20
1.2700
 30
0.0000
 11
67.9450
 21
1.2700
 31
0.0000
  0
LINE
  8
21
 10
67.9450
 20
1.2700
 30
0.0000
 11
67.3100
 21
1.9050
 31
0.0000
  0
LINE
  8
21
 10
67.3100
 20
1.9050
 30
0.0000
 11
67.3100
 21
3.1750
 31
0.0000
  0
LINE
  8
21
 10
67.3100
 20
3.1750
 30
0.0000
 11
67.9450
 21
3.8100
 31
0.0000
  0
INSERT
  8
51
  2
RECT
 10
68.5800
 20
5.0800
 30
0.0000
 41
0.5080
 42
0.5080
 43
1.0000
 50
270.0000
  0
INSERT
  8
51
  2
RECT
 10
68.5800
 20
2.5400
 30
0.0000
 41
0.5080
 42
0.5080
 43
1.0000
 50
270.0000
  0
POINT
  8
23
 10
68.5800
 20
8.8900
 30
0.0000
  0
LINE
  8
21
 10
69.8500
 20
10.7950
 30
0.0000
 11
69.8500
 21
9.5250
 31
0.0000
  0
LINE
  8
21
 10
69.8500
 20
9.5250
 30
0.0000
 11
69.2150
 21
8.8900
 31
0.0000
  0
LINE
  8
21
 10
69.2150
 20
8.8900
 30
0.0000
 11
67.9450
 21
8.8900
 31
0.0000
  0
LINE
  8
21
 10
67.9450
 20
8.8900
 30
0.0000
 11
67.3100
 21
9.5250
 31
0.0000
  0
LINE
  8
21
 10
69.2150
 20
11.4300
 30
0.0000
 11
67.9450
 21
11.4300
 31
0.0000
  0
LINE
  8
21
 10
69.8500
 20
10.7950
 30
0.0000
 11
69.2150
 21
11.4300
 31
0.0000
  0
LINE
  8
21
 10
67.9450
 20
11.4300
 30
0.0000
 11
67.3100
 21
10.7950
 31
0.0000
  0
LINE
  8
21
 10
67.3100
 20
9.5250
 30
0.0000
 11
67.3100
 21
10.7950
 31
0.0000
  0
LINE
  8
21
 10
69.2150
 20
8.8900
 30
0.0000
 11
69.8500
 21
8.2550
 31
0.0000
  0
LINE
  8
21
 10
69.8500
 20
8.2550
 30
0.0000
 11
69.8500
 21
6.9850
 31
0.0000
  0
LINE
  8
21
 10
69.8500
 20
6.9850
 30
0.0000
 11
69.2150
 21
6.3500
 31
0.0000
  0
LINE
  8
21
 10
69.2150
 20
6.3500
 30
0.0000
 11
67.9450
 21
6.3500
 31
0.0000
  0
LINE
  8
21
 10
67.9450
 20
6.3500
 30
0.0000
 11
67.3100
 21
6.9850
 31
0.0000
  0
LINE
  8
21
 10
67.3100
 20
6.9850
 30
0.0000
 11
67.3100
 21
8.2550
 31
0.0000
  0
LINE
  8
21
 10
67.3100
 20
8.2550
 30
0.0000
 11
67.9450
 21
8.8900
 31
0.0000
  0
INSERT
  8
51
  2
RECT
 10
68.5800
 20
10.1600
 30
0.0000
 41
0.5080
 42
0.5080
 43
1.0000
 50
270.0000
  0
INSERT
  8
51
  2
RECT
 10
68.5800
 20
7.6200
 30
0.0000
 41
0.5080
 42
0.5080
 43
1.0000
 50
270.0000
  0
POINT
  8
23
 10
13.9700
 20
5.0800
 30
0.0000
  0
LINE
  8
21
 10
15.8750
 20
3.8100
 30
0.0000
 11
14.6050
 21
3.8100
 31
0.0000
  0
LINE
  8
21
 10
14.6050
 20
3.8100
 30
0.0000
 11
13.9700
 21
4.4450
 31
0.0000
  0
LINE
  8
21
 10
13.9700
 20
4.4450
 30
0.0000
 11
13.9700
 21
5.7150
 31
0.0000
  0
LINE
  8
21
 10
13.9700
 20
5.7150
 30
0.0000
 11
14.6050
 21
6.3500
 31
0.0000
  0
LINE
  8
21
 10
16.5100
 20
4.4450
 30
0.0000
 11
16.5100
 21
5.7150
 31
0.0000
  0
LINE
  8
21
 10
15.8750
 20
3.8100
 30
0.0000
 11
16.5100
 21
4.4450
 31
0.0000
  0
LINE
  8
21
 10
16.5100
 20
5.7150
 30
0.0000
 11
15.8750
 21
6.3500
 31
0.0000
  0
LINE
  8
21
 10
14.6050
 20
6.3500
 30
0.0000
 11
15.8750
 21
6.3500
 31
0.0000
  0
LINE
  8
21
 10
13.9700
 20
4.4450
 30
0.0000
 11
13.3350
 21
3.8100
 31
0.0000
  0
LINE
  8
21
 10
13.3350
 20
3.8100
 30
0.0000
 11
12.0650
 21
3.8100
 31
0.0000
  0
LINE
  8
21
 10
12.0650
 20
3.8100
 30
0.0000
 11
11.4300
 21
4.4450
 31
0.0000
  0
LINE
  8
21
 10
11.4300
 20
4.4450
 30
0.0000
 11
11.4300
 21
5.7150
 31
0.0000
  0
LINE
  8
21
 10
11.4300
 20
5.7150
 30
0.0000
 11
12.0650
 21
6.3500
 31
0.0000
  0
LINE
  8
21
 10
12.0650
 20
6.3500
 30
0.0000
 11
13.3350
 21
6.3500
 31
0.0000
  0
LINE
  8
21
 10
13.3350
 20
6.3500
 30
0.0000
 11
13.9700
 21
5.7150
 31
0.0000
  0
INSERT
  8
51
  2
RECT
 10
15.2400
 20
5.0800
 30
0.0000
 41
0.5080
 42
0.5080
 43
1.0000
 50
180.0000
  0
INSERT
  8
51
  2
RECT
 10
12.7000
 20
5.0800
 30
0.0000
 41
0.5080
 42
0.5080
 43
1.0000
 50
180.0000
  0
POINT
  8
23
 10
73.6600
 20
3.8100
 30
0.0000
  0
LINE
  8
51
 10
74.2850
 20
3.3600
 30
0.0000
 11
74.2850
 21
4.2600
 31
0.0000
  0
LINE
  8
51
 10
73.0350
 20
3.3600
 30
0.0000
 11
73.0350
 21
4.2850
 31
0.0000
  0
INSERT
  8
21
  2
RECT
 10
74.2600
 20
3.6600
 30
0.0000
 41
0.1500
 42
0.3000
 43
1.0000
 50
180.0000
  0
INSERT
  8
21
  2
RECT
 10
73.0600
 20
3.6600
 30
0.0000
 41
0.1500
 42
0.3000
 43
1.0000
 50
180.0000
  0
INSERT
  8
21
  2
RECT
 10
73.6600
 20
3.6600
 30
0.0000
 41
0.3000
 42
0.3000
 43
1.0000
 50
180.0000
  0
INSERT
  8
51
  2
RECT
 10
73.6600
 20
3.0600
 30
0.0000
 41
1.3500
 42
0.6000
 43
1.0000
 50
180.0000
  0
INSERT
  8
51
  2
RECT
 10
73.6600
 20
4.5600
 30
0.0000
 41
1.3500
 42
0.6000
 43
1.0000
 50
180.0000
  0
POINT
  8
23
 10
73.6600
 20
8.8900
 30
0.0000
  0
LINE
  8
51
 10
74.2850
 20
8.4400
 30
0.0000
 11
74.2850
 21
9.3400
 31
0.0000
  0
LINE
  8
51
 10
73.0350
 20
8.4400
 30
0.0000
 11
73.0350
 21
9.3650
 31
0.0000
  0
INSERT
  8
21
  2
RECT
 10
74.2600
 20
8.7400
 30
0.0000
 41
0.1500
 42
0.3000
 43
1.0000
 50
180.0000
  0
INSERT
  8
21
  2
RECT
 10
73.0600
 20
8.7400
 30
0.0000
 41
0.1500
 42
0.3000
 43
1.0000
 50
180.0000
  0
INSERT
  8
21
  2
RECT
 10
73.6600
 20
8.7400
 30
0.0000
 41
0.3000
 42
0.3000
 43
1.0000
 50
180.0000
  0
INSERT
  8
51
  2
RECT
 10
73.6600
 20
8.1400
 30
0.0000
 41
1.3500
 42
0.6000
 43
1.0000
 50
180.0000
  0
INSERT
  8
51
  2
RECT
 10
73.6600
 20
9.6400
 30
0.0000
 41
1.3500
 42
0.6000
 43
1.0000
 50
180.0000
  0
POINT
  8
23
 10
8.8900
 20
10.1600
 30
0.0000
  0
LINE
  8
51
 10
9.3400
 20
10.7850
 30
0.0000
 11
8.4400
 21
10.7850
 31
0.0000
  0
LINE
  8
51
 10
9.3400
 20
9.5350
 30
0.0000
 11
8.4150
 21
9.5350
 31
0.0000
  0
INSERT
  8
21
  2
RECT
 10
9.0400
 20
10.7600
 30
0.0000
 41
0.1500
 42
0.3000
 43
1.0000
 50
270.0000
  0
INSERT
  8
21
  2
RECT
 10
9.0400
 20
9.5600
 30
0.0000
 41
0.1500
 42
0.3000
 43
1.0000
 50
270.0000
  0
INSERT
  8
21
  2
RECT
 10
9.0400
 20
10.1600
 30
0.0000
 41
0.3000
 42
0.3000
 43
1.0000
 50
270.0000
  0
INSERT
  8
51
  2
RECT
 10
9.6400
 20
10.1600
 30
0.0000
 41
1.3500
 42
0.6000
 43
1.0000
 50
270.0000
  0
INSERT
  8
51
  2
RECT
 10
8.1400
 20
10.1600
 30
0.0000
 41
1.3500
 42
0.6000
 43
1.0000
 50
270.0000
  0
POINT
  8
23
 10
41.9100
 20
21.5900
 30
0.0000
  0
LINE
  8
51
 10
41.4600
 20
20.9650
 30
0.0000
 11
42.3600
 21
20.9650
 31
0.0000
  0
LINE
  8
51
 10
41.4600
 20
22.2150
 30
0.0000
 11
42.3850
 21
22.2150
 31
0.0000
  0
INSERT
  8
21
  2
RECT
 10
41.7600
 20
20.9900
 30
0.0000
 41
0.1500
 42
0.3000
 43
1.0000
 50
90.0000
  0
INSERT
  8
21
  2
RECT
 10
41.7600
 20
22.1900
 30
0.0000
 41
0.1500
 42
0.3000
 43
1.0000
 50
90.0000
  0
INSERT
  8
21
  2
RECT
 10
41.7600
 20
21.5900
 30
0.0000
 41
0.3000
 42
0.3000
 43
1.0000
 50
90.0000
  0
INSERT
  8
51
  2
RECT
 10
41.1600
 20
21.5900
 30
0.0000
 41
1.3500
 42
0.6000
 43
1.0000
 50
90.0000
  0
INSERT
  8
51
  2
RECT
 10
42.6600
 20
21.5900
 30
0.0000
 41
1.3500
 42
0.6000
 43
1.0000
 50
90.0000
  0
POINT
  8
23
 10
59.6900
 20
27.9400
 30
0.0000
  0
LINE
  8
51
 10
58.2400
 20
28.5900
 30
0.0000
 11
61.1400
 21
28.5900
 31
0.0000
  0
LINE
  8
51
 10
61.1400
 20
28.5900
 30
0.0000
 11
61.1400
 21
27.2900
 31
0.0000
  0
LINE
  8
51
 10
61.1400
 20
27.2900
 30
0.0000
 11
58.2400
 21
27.2900
 31
0.0000
  0
LINE
  8
51
 10
58.2400
 20
27.2900
 30
0.0000
 11
58.2400
 21
28.5900
 31
0.0000
  0
LINE
  8
51
 10
57.2400
 20
30.2900
 30
0.0000
 11
62.1400
 21
30.2900
 31
0.0000
  0
LINE
  8
51
 10
62.1400
 20
30.2900
 30
0.0000
 11
62.1400
 21
25.5900
 31
0.0000
  0
LINE
  8
51
 10
62.1400
 20
25.5900
 30
0.0000
 11
57.2400
 21
25.5900
 31
0.0000
  0
LINE
  8
51
 10
57.2400
 20
25.5900
 30
0.0000
 11
57.2400
 21
30.2900
 31
0.0000
  0
LINE
  8
21
 10
59.0900
 20
28.5900
 30
0.0000
 11
58.2400
 21
28.5900
 31
0.0000
  0
LINE
  8
21
 10
58.2400
 20
28.5900
 30
0.0000
 11
58.2400
 21
27.5400
 31
0.0000
  0
LINE
  8
21
 10
60.2900
 20
28.5900
 30
0.0000
 11
61.1400
 21
28.5900
 31
0.0000
  0
LINE
  8
21
 10
61.1400
 20
28.5900
 30
0.0000
 11
61.1400
 21
27.5400
 31
0.0000
  0
LINE
  8
21
 10
58.6900
 20
26.1400
 30
0.0000
 11
58.6900
 21
26.1400
 31
0.0000
  0
ARC
  8
21
 10
58.6900
 20
26.1900
 30
0.0000
 40
0.0500
 50
270.0000
 51
90.0000
  0
LINE
  8
21
 10
58.6900
 20
26.2400
 30
0.0000
 11
58.6900
 21
26.2400
 31
0.0000
  0
ARC
  8
21
 10
58.6900
 20
26.1900
 30
0.0000
 40
0.0500
 50
90.0000
 51
270.0000
  0
POINT
  8
23
 10
25.4000
 20
27.9400
 30
0.0000
  0
LINE
  8
51
 10
24.9900
 20
28.5750
 30
0.0000
 11
25.8100
 21
28.5750
 31
0.0000
  0
LINE
  8
51
 10
24.9900
 20
27.3050
 30
0.0000
 11
25.8100
 21
27.3050
 31
0.0000
  0
LINE
  8
39
 10
23.4270
 20
28.9230
 30
0.0000
 11
27.3730
 21
28.9230
 31
0.0000
  0
LINE
  8
39
 10
27.3730
 20
28.9230
 30
0.0000
 11
27.3730
 21
26.9570
 31
0.0000
  0
LINE
  8
39
 10
27.3730
 20
26.9570
 30
0.0000
 11
23.4270
 21
26.9570
 31
0.0000
  0
LINE
  8
39
 10
23.4270
 20
26.9570
 30
0.0000
 11
23.4270
 21
28.9230
 31
0.0000
  0
INSERT
  8
51
  2
RECT
 10
26.1314
 20
27.9415
 30
0.0000
 41
0.6500
 42
1.4000
 43
1.0000
 50
0.0000
  0
INSERT
  8
51
  2
RECT
 10
24.6582
 20
27.9415
 30
0.0000
 41
0.6500
 42
1.4000
 43
1.0000
 50
0.0000
  0
POINT
  8
24
 10
12.7000
 20
25.4000
 30
0.0000
  0
LINE
  8
52
 10
12.0650
 20
25.8100
 30
0.0000
 11
12.0650
 21
24.9900
 31
0.0000
  0
LINE
  8
52
 10
13.3350
 20
25.8100
 30
0.0000
 11
13.3350
 21
24.9900
 31
0.0000
  0
LINE
  8
40
 10
11.7170
 20
27.3730
 30
0.0000
 11
11.7170
 21
23.4270
 31
0.0000
  0
LINE
  8
40
 10
11.7170
 20
23.4270
 30
0.0000
 11
13.6830
 21
23.4270
 31
0.0000
  0
LINE
  8
40
 10
13.6830
 20
23.4270
 30
0.0000
 11
13.6830
 21
27.3730
 31
0.0000
  0
LINE
  8
40
 10
13.6830
 20
27.3730
 30
0.0000
 11
11.7170
 21
27.3730
 31
0.0000
  0
INSERT
  8
52
  2
RECT
 10
12.6985
 20
24.6686
 30
0.0000
 41
0.6500
 42
1.4000
 43
1.0000
 50
270.0000
  0
INSERT
  8
52
  2
RECT
 10
12.6985
 20
26.1418
 30
0.0000
 41
0.6500
 42
1.4000
 43
1.0000
 50
270.0000
  0
POINT
  8
24
 10
10.1600
 20
11.4300
 30
0.0000
  0
LINE
  8
52
 10
9.5250
 20
11.8400
 30
0.0000
 11
9.5250
 21
11.0200
 31
0.0000
  0
LINE
  8
52
 10
10.7950
 20
11.8400
 30
0.0000
 11
10.7950
 21
11.0200
 31
0.0000
  0
LINE
  8
40
 10
9.1770
 20
13.4030
 30
0.0000
 11
9.1770
 21
9.4570
 31
0.0000
  0
LINE
  8
40
 10
9.1770
 20
9.4570
 30
0.0000
 11
11.1430
 21
9.4570
 31
0.0000
  0
LINE
  8
40
 10
11.1430
 20
9.4570
 30
0.0000
 11
11.1430
 21
13.4030
 31
0.0000
  0
LINE
  8
40
 10
11.1430
 20
13.4030
 30
0.0000
 11
9.1770
 21
13.4030
 31
0.0000
  0
INSERT
  8
52
  2
RECT
 10
10.1585
 20
10.6986
 30
0.0000
 41
0.6500
 42
1.4000
 43
1.0000
 50
270.0000
  0
INSERT
  8
52
  2
RECT
 10
10.1585
 20
12.1718
 30
0.0000
 41
0.6500
 42
1.4000
 43
1.0000
 50
270.0000
  0
POINT
  8
24
 10
31.7500
 20
11.4300
 30
0.0000
  0
LINE
  8
52
 10
31.1150
 20
11.8400
 30
0.0000
 11
31.1150
 21
11.0200
 31
0.0000
  0
LINE
  8
52
 10
32.3850
 20
11.8400
 30
0.0000
 11
32.3850
 21
11.0200
 31
0.0000
  0
LINE
  8
40
 10
30.7670
 20
13.4030
 30
0.0000
 11
30.7670
 21
9.4570
 31
0.0000
  0
LINE
  8
40
 10
30.7670
 20
9.4570
 30
0.0000
 11
32.7330
 21
9.4570
 31
0.0000
  0
LINE
  8
40
 10
32.7330
 20
9.4570
 30
0.0000
 11
32.7330
 21
13.4030
 31
0.0000
  0
LINE
  8
40
 10
32.7330
 20
13.4030
 30
0.0000
 11
30.7670
 21
13.4030
 31
0.0000
  0
INSERT
  8
52
  2
RECT
 10
31.7485
 20
10.6986
 30
0.0000
 41
0.6500
 42
1.4000
 43
1.0000
 50
270.0000
  0
INSERT
  8
52
  2
RECT
 10
31.7485
 20
12.1718
 30
0.0000
 41
0.6500
 42
1.4000
 43
1.0000
 50
270.0000
  0
POINT
  8
23
 10
31.7500
 20
25.4000
 30
0.0000
  0
LINE
  8
51
 10
31.1150
 20
24.9900
 30
0.0000
 11
31.1150
 21
25.8100
 31
0.0000
  0
LINE
  8
51
 10
32.3850
 20
24.9900
 30
0.0000
 11
32.3850
 21
25.8100
 31
0.0000
  0
LINE
  8
39
 10
30.7670
 20
23.4270
 30
0.0000
 11
30.7670
 21
27.3730
 31
0.0000
  0
LINE
  8
39
 10
30.7670
 20
27.3730
 30
0.0000
 11
32.7330
 21
27.3730
 31
0.0000
  0
LINE
  8
39
 10
32.7330
 20
27.3730
 30
0.0000
 11
32.7330
 21
23.4270
 31
0.0000
  0
LINE
  8
39
 10
32.7330
 20
23.4270
 30
0.0000
 11
30.7670
 21
23.4270
 31
0.0000
  0
INSERT
  8
51
  2
RECT
 10
31.7485
 20
26.1314
 30
0.0000
 41
0.6500
 42
1.4000
 43
1.0000
 50
90.0000
  0
INSERT
  8
51
  2
RECT
 10
31.7485
 20
24.6582
 30
0.0000
 41
0.6500
 42
1.4000
 43
1.0000
 50
90.0000
  0
POINT
  8
23
 10
5.0800
 20
11.4300
 30
0.0000
  0
LINE
  8
51
 10
4.4450
 20
11.0200
 30
0.0000
 11
4.4450
 21
11.8400
 31
0.0000
  0
LINE
  8
51
 10
5.7150
 20
11.0200
 30
0.0000
 11
5.7150
 21
11.8400
 31
0.0000
  0
LINE
  8
39
 10
4.0970
 20
9.4570
 30
0.0000
 11
4.0970
 21
13.4030
 31
0.0000
  0
LINE
  8
39
 10
4.0970
 20
13.4030
 30
0.0000
 11
6.0630
 21
13.4030
 31
0.0000
  0
LINE
  8
39
 10
6.0630
 20
13.4030
 30
0.0000
 11
6.0630
 21
9.4570
 31
0.0000
  0
LINE
  8
39
 10
6.0630
 20
9.4570
 30
0.0000
 11
4.0970
 21
9.4570
 31
0.0000
  0
INSERT
  8
51
  2
RECT
 10
5.0785
 20
12.1614
 30
0.0000
 41
0.6500
 42
1.4000
 43
1.0000
 50
90.0000
  0
INSERT
  8
51
  2
RECT
 10
5.0785
 20
10.6882
 30
0.0000
 41
0.6500
 42
1.4000
 43
1.0000
 50
90.0000
  0
POINT
  8
23
 10
2.5400
 20
11.4300
 30
0.0000
  0
LINE
  8
51
 10
1.9050
 20
11.0200
 30
0.0000
 11
1.9050
 21
11.8400
 31
0.0000
  0
LINE
  8
51
 10
3.1750
 20
11.0200
 30
0.0000
 11
3.1750
 21
11.8400
 31
0.0000
  0
LINE
  8
39
 10
1.5570
 20
9.4570
 30
0.0000
 11
1.5570
 21
13.4030
 31
0.0000
  0
LINE
  8
39
 10
1.5570
 20
13.4030
 30
0.0000
 11
3.5230
 21
13.4030
 31
0.0000
  0
LINE
  8
39
 10
3.5230
 20
13.4030
 30
0.0000
 11
3.5230
 21
9.4570
 31
0.0000
  0
LINE
  8
39
 10
3.5230
 20
9.4570
 30
0.0000
 11
1.5570
 21
9.4570
 31
0.0000
  0
INSERT
  8
51
  2
RECT
 10
2.5385
 20
12.1614
 30
0.0000
 41
0.6500
 42
1.4000
 43
1.0000
 50
90.0000
  0
INSERT
  8
51
  2
RECT
 10
2.5385
 20
10.6882
 30
0.0000
 41
0.6500
 42
1.4000
 43
1.0000
 50
90.0000
  0
POINT
  8
23
 10
8.3820
 20
15.2400
 30
0.0000
  0
LINE
  8
51
 10
7.9720
 20
15.8750
 30
0.0000
 11
8.7920
 21
15.8750
 31
0.0000
  0
LINE
  8
51
 10
7.9720
 20
14.6050
 30
0.0000
 11
8.7920
 21
14.6050
 31
0.0000
  0
LINE
  8
39
 10
6.4090
 20
16.2230
 30
0.0000
 11
10.3550
 21
16.2230
 31
0.0000
  0
LINE
  8
39
 10
10.3550
 20
16.2230
 30
0.0000
 11
10.3550
 21
14.2570
 31
0.0000
  0
LINE
  8
39
 10
10.3550
 20
14.2570
 30
0.0000
 11
6.4090
 21
14.2570
 31
0.0000
  0
LINE
  8
39
 10
6.4090
 20
14.2570
 30
0.0000
 11
6.4090
 21
16.2230
 31
0.0000
  0
INSERT
  8
51
  2
RECT
 10
9.1134
 20
15.2415
 30
0.0000
 41
0.6500
 42
1.4000
 43
1.0000
 50
0.0000
  0
INSERT
  8
51
  2
RECT
 10
7.6402
 20
15.2415
 30
0.0000
 41
0.6500
 42
1.4000
 43
1.0000
 50
0.0000
  0
POINT
  8
24
 10
44.4500
 20
19.0500
 30
0.0000
  0
LINE
  8
52
 10
44.8600
 20
19.6850
 30
0.0000
 11
44.0400
 21
19.6850
 31
0.0000
  0
LINE
  8
52
 10
44.8600
 20
18.4150
 30
0.0000
 11
44.0400
 21
18.4150
 31
0.0000
  0
LINE
  8
40
 10
46.4230
 20
20.0330
 30
0.0000
 11
42.4770
 21
20.0330
 31
0.0000
  0
LINE
  8
40
 10
42.4770
 20
20.0330
 30
0.0000
 11
42.4770
 21
18.0670
 31
0.0000
  0
LINE
  8
40
 10
42.4770
 20
18.0670
 30
0.0000
 11
46.4230
 21
18.0670
 31
0.0000
  0
LINE
  8
40
 10
46.4230
 20
18.0670
 30
0.0000
 11
46.4230
 21
20.0330
 31
0.0000
  0
INSERT
  8
52
  2
RECT
 10
43.7186
 20
19.0515
 30
0.0000
 41
0.6500
 42
1.4000
 43
1.0000
 50
180.0000
  0
INSERT
  8
52
  2
RECT
 10
45.1918
 20
19.0515
 30
0.0000
 41
0.6500
 42
1.4000
 43
1.0000
 50
180.0000
  0
POINT
  8
23
 10
76.2000
 20
8.8900
 30
0.0000
  0
LINE
  8
39
 10
77.1830
 20
10.8630
 30
0.0000
 11
77.1830
 21
6.9170
 31
0.0000
  0
LINE
  8
39
 10
75.2170
 20
6.9170
 30
0.0000
 11
75.2170
 21
10.8630
 31
0.0000
  0
LINE
  8
39
 10
75.2170
 20
10.8630
 30
0.0000
 11
77.1830
 21
10.8630
 31
0.0000
  0
LINE
  8
39
 10
77.1830
 20
6.9170
 30
0.0000
 11
75.2170
 21
6.9170
 31
0.0000
  0
LINE
  8
51
 10
76.8350
 20
8.1788
 30
0.0000
 11
76.8350
 21
9.6012
 31
0.0000
  0
LINE
  8
51
 10
75.5650
 20
8.1788
 30
0.0000
 11
75.5650
 21
9.6012
 31
0.0000
  0
INSERT
  8
51
  2
RECT
 10
76.2000
 20
9.7536
 30
0.0000
 41
0.3556
 42
1.4224
 43
1.0000
 50
270.0000
  0
INSERT
  8
51
  2
RECT
 10
76.2000
 20
8.0264
 30
0.0000
 41
0.3556
 42
1.4224
 43
1.0000
 50
270.0000
  0
POINT
  8
23
 10
62.2300
 20
17.7800
 30
0.0000
  0
LINE
  8
39
 10
60.2570
 20
18.7630
 30
0.0000
 11
64.2030
 21
18.7630
 31
0.0000
  0
LINE
  8
39
 10
64.2030
 20
16.7970
 30
0.0000
 11
60.2570
 21
16.7970
 31
0.0000
  0
LINE
  8
39
 10
60.2570
 20
16.7970
 30
0.0000
 11
60.2570
 21
18.7630
 31
0.0000
  0
LINE
  8
39
 10
64.2030
 20
18.7630
 30
0.0000
 11
64.2030
 21
16.7970
 31
0.0000
  0
LINE
  8
51
 10
62.9412
 20
18.4150
 30
0.0000
 11
61.5188
 21
18.4150
 31
0.0000
  0
LINE
  8
51
 10
62.9412
 20
17.1450
 30
0.0000
 11
61.5188
 21
17.1450
 31
0.0000
  0
INSERT
  8
51
  2
RECT
 10
61.3664
 20
17.7800
 30
0.0000
 41
0.3556
 42
1.4224
 43
1.0000
 50
0.0000
  0
INSERT
  8
51
  2
RECT
 10
63.0936
 20
17.7800
 30
0.0000
 41
0.3556
 42
1.4224
 43
1.0000
 50
0.0000
  0
POINT
  8
23
 10
76.2000
 20
3.8100
 30
0.0000
  0
LINE
  8
39
 10
77.1830
 20
5.7830
 30
0.0000
 11
77.1830
 21
1.8370
 31
0.0000
  0
LINE
  8
39
 10
75.2170
 20
1.8370
 30
0.0000
 11
75.2170
 21
5.7830
 31
0.0000
  0
LINE
  8
39
 10
75.2170
 20
5.7830
 30
0.0000
 11
77.1830
 21
5.7830
 31
0.0000
  0
LINE
  8
39
 10
77.1830
 20
1.8370
 30
0.0000
 11
75.2170
 21
1.8370
 31
0.0000
  0
LINE
  8
51
 10
76.8350
 20
3.0988
 30
0.0000
 11
76.8350
 21
4.5212
 31
0.0000
  0
LINE
  8
51
 10
75.5650
 20
3.0988
 30
0.0000
 11
75.5650
 21
4.5212
 31
0.0000
  0
INSERT
  8
51
  2
RECT
 10
76.2000
 20
4.6736
 30
0.0000
 41
0.3556
 42
1.4224
 43
1.0000
 50
270.0000
  0
INSERT
  8
51
  2
RECT
 10
76.2000
 20
2.9464
 30
0.0000
 41
0.3556
 42
1.4224
 43
1.0000
 50
270.0000
  0
POINT
  8
24
 10
39.3700
 20
7.6200
 30
0.0000
  0
LINE
  8
52
 10
39.7800
 20
8.2550
 30
0.0000
 11
38.9600
 21
8.2550
 31
0.0000
  0
LINE
  8
52
 10
39.7800
 20
6.9850
 30
0.0000
 11
38.9600
 21
6.9850
 31
0.0000
  0
LINE
  8
40
 10
41.3430
 20
8.6030
 30
0.0000
 11
37.3970
 21
8.6030
 31
0.0000
  0
LINE
  8
40
 10
37.3970
 20
8.6030
 30
0.0000
 11
37.3970
 21
6.6370
 31
0.0000
  0
LINE
  8
40
 10
37.3970
 20
6.6370
 30
0.0000
 11
41.3430
 21
6.6370
 31
0.0000
  0
LINE
  8
40
 10
41.3430
 20
6.6370
 30
0.0000
 11
41.3430
 21
8.6030
 31
0.0000
  0
INSERT
  8
52
  2
RECT
 10
38.6386
 20
7.6215
 30
0.0000
 41
0.6500
 42
1.4000
 43
1.0000
 50
180.0000
  0
INSERT
  8
52
  2
RECT
 10
40.1118
 20
7.6215
 30
0.0000
 41
0.6500
 42
1.4000
 43
1.0000
 50
180.0000
  0
POINT
  8
23
 10
53.3400
 20
20.3200
 30
0.0000
  0
LINE
  8
39
 10
51.3670
 20
21.3030
 30
0.0000
 11
55.3130
 21
21.3030
 31
0.0000
  0
LINE
  8
39
 10
55.3130
 20
19.3370
 30
0.0000
 11
51.3670
 21
19.3370
 31
0.0000
  0
LINE
  8
39
 10
51.3670
 20
19.3370
 30
0.0000
 11
51.3670
 21
21.3030
 31
0.0000
  0
LINE
  8
39
 10
55.3130
 20
21.3030
 30
0.0000
 11
55.3130
 21
19.3370
 31
0.0000
  0
LINE
  8
51
 10
54.0512
 20
20.9550
 30
0.0000
 11
52.6288
 21
20.9550
 31
0.0000
  0
LINE
  8
51
 10
54.0512
 20
19.6850
 30
0.0000
 11
52.6288
 21
19.6850
 31
0.0000
  0
INSERT
  8
51
  2
RECT
 10
52.4764
 20
20.3200
 30
0.0000
 41
0.3556
 42
1.4224
 43
1.0000
 50
0.0000
  0
INSERT
  8
51
  2
RECT
 10
54.2036
 20
20.3200
 30
0.0000
 41
0.3556
 42
1.4224
 43
1.0000
 50
0.0000
  0
POINT
  8
23
 10
53.3400
 20
17.7800
 30
0.0000
  0
LINE
  8
39
 10
51.3670
 20
18.7630
 30
0.0000
 11
55.3130
 21
18.7630
 31
0.0000
  0
LINE
  8
39
 10
55.3130
 20
16.7970
 30
0.0000
 11
51.3670
 21
16.7970
 31
0.0000
  0
LINE
  8
39
 10
51.3670
 20
16.7970
 30
0.0000
 11
51.3670
 21
18.7630
 31
0.0000
  0
LINE
  8
39
 10
55.3130
 20
18.7630
 30
0.0000
 11
55.3130
 21
16.7970
 31
0.0000
  0
LINE
  8
51
 10
54.0512
 20
18.4150
 30
0.0000
 11
52.6288
 21
18.4150
 31
0.0000
  0
LINE
  8
51
 10
54.0512
 20
17.1450
 30
0.0000
 11
52.6288
 21
17.1450
 31
0.0000
  0
INSERT
  8
51
  2
RECT
 10
52.4764
 20
17.7800
 30
0.0000
 41
0.3556
 42
1.4224
 43
1.0000
 50
0.0000
  0
INSERT
  8
51
  2
RECT
 10
54.2036
 20
17.7800
 30
0.0000
 41
0.3556
 42
1.4224
 43
1.0000
 50
0.0000
  0
POINT
  8
23
 10
31.7500
 20
21.5900
 30
0.0000
  0
LINE
  8
51
 10
32.3750
 20
21.1400
 30
0.0000
 11
32.3750
 21
22.0400
 31
0.0000
  0
LINE
  8
51
 10
31.1250
 20
21.1400
 30
0.0000
 11
31.1250
 21
22.0650
 31
0.0000
  0
INSERT
  8
21
  2
RECT
 10
32.3500
 20
21.4400
 30
0.0000
 41
0.1500
 42
0.3000
 43
1.0000
 50
180.0000
  0
INSERT
  8
21
  2
RECT
 10
31.1500
 20
21.4400
 30
0.0000
 41
0.1500
 42
0.3000
 43
1.0000
 50
180.0000
  0
INSERT
  8
21
  2
RECT
 10
31.7500
 20
21.4400
 30
0.0000
 41
0.3000
 42
0.3000
 43
1.0000
 50
180.0000
  0
INSERT
  8
51
  2
RECT
 10
31.7500
 20
20.8400
 30
0.0000
 41
1.3500
 42
0.6000
 43
1.0000
 50
180.0000
  0
INSERT
  8
51
  2
RECT
 10
31.7500
 20
22.3400
 30
0.0000
 41
1.3500
 42
0.6000
 43
1.0000
 50
180.0000
  0
POINT
  8
23
 10
24.1300
 20
15.2400
 30
0.0000
  0
INSERT
  8
21
  2
RECT
 10
24.1300
 20
15.2400
 30
0.0000
 41
5.0800
 42
17.7800
 43
1.0000
 50
0.0000
  0
POINT
  8
23
 10
12.7000
 20
17.7800
 30
0.0000
  0
LINE
  8
51
 10
13.4000
 20
16.2800
 30
0.0000
 11
13.4000
 21
19.2800
 31
0.0000
  0
LINE
  8
51
 10
12.0000
 20
19.2800
 30
0.0000
 11
12.0000
 21
16.2800
 31
0.0000
  0
LINE
  8
51
 10
12.0000
 20
16.2800
 30
0.0000
 11
13.4000
 21
16.2800
 31
0.0000
  0
LINE
  8
51
 10
13.4000
 20
19.2800
 30
0.0000
 11
12.0000
 21
19.2800
 31
0.0000
  0
LINE
  8
21
 10
13.4000
 20
19.3450
 30
0.0000
 11
12.0000
 21
19.3450
 31
0.0000
  0
LINE
  8
21
 10
12.0000
 20
16.2150
 30
0.0000
 11
13.4000
 21
16.2150
 31
0.0000
  0
LINE
  8
21
 10
12.0000
 20
17.1650
 30
0.0000
 11
12.0000
 21
16.2150
 31
0.0000
  0
LINE
  8
21
 10
12.0000
 20
19.3450
 30
0.0000
 11
12.0000
 21
18.3950
 31
0.0000
  0
LINE
  8
39
 10
14.5600
 20
16.2850
 30
0.0000
 11
14.5600
 21
17.3750
 31
0.0000
  0
LINE
  8
39
 10
14.5600
 20
17.3750
 30
0.0000
 11
13.6500
 21
17.3750
 31
0.0000
  0
LINE
  8
39
 10
13.6500
 20
17.3750
 30
0.0000
 11
13.6500
 21
18.1850
 31
0.0000
  0
LINE
  8
39
 10
13.6500
 20
18.1850
 30
0.0000
 11
14.5600
 21
18.1850
 31
0.0000
  0
LINE
  8
39
 10
14.5600
 20
18.1850
 30
0.0000
 11
14.5600
 21
19.2750
 31
0.0000
  0
LINE
  8
39
 10
14.5600
 20
19.2750
 30
0.0000
 11
13.6500
 21
19.2750
 31
0.0000
  0
LINE
  8
39
 10
13.6500
 20
19.2750
 30
0.0000
 11
13.6500
 21
19.5300
 31
0.0000
  0
LINE
  8
39
 10
13.6500
 20
19.5300
 30
0.0000
 11
11.7500
 21
19.5300
 31
0.0000
  0
LINE
  8
39
 10
11.7500
 20
19.5300
 30
0.0000
 11
11.7500
 21
18.3250
 31
0.0000
  0
LINE
  8
39
 10
11.7500
 20
18.3250
 30
0.0000
 11
10.8400
 21
18.3250
 31
0.0000
  0
LINE
  8
39
 10
10.8400
 20
18.3250
 30
0.0000
 11
10.8400
 21
17.2350
 31
0.0000
  0
LINE
  8
39
 10
10.8400
 20
17.2350
 30
0.0000
 11
11.7500
 21
17.2350
 31
0.0000
  0
LINE
  8
39
 10
11.7500
 20
17.2350
 30
0.0000
 11
11.7500
 21
16.0300
 31
0.0000
  0
LINE
  8
39
 10
11.7500
 20
16.0300
 30
0.0000
 11
13.6500
 21
16.0300
 31
0.0000
  0
LINE
  8
39
 10
13.6500
 20
16.0300
 30
0.0000
 11
13.6500
 21
16.2850
 31
0.0000
  0
LINE
  8
39
 10
13.6500
 20
16.2850
 30
0.0000
 11
14.5600
 21
16.2850
 31
0.0000
  0
CIRCLE
  8
51
 10
14.9500
 20
16.7800
 30
0.0000
 40
0.1000
  0
CIRCLE
  8
21
 10
14.9500
 20
16.7800
 30
0.0000
 40
0.1000
  0
POINT
  8
23
 10
52.0700
 20
27.9400
 30
0.0000
  0
LINE
  8
51
 10
52.7700
 20
26.4400
 30
0.0000
 11
52.7700
 21
29.4400
 31
0.0000
  0
LINE
  8
51
 10
51.3700
 20
29.4400
 30
0.0000
 11
51.3700
 21
26.4400
 31
0.0000
  0
LINE
  8
51
 10
51.3700
 20
26.4400
 30
0.0000
 11
52.7700
 21
26.4400
 31
0.0000
  0
LINE
  8
51
 10
52.7700
 20
29.4400
 30
0.0000
 11
51.3700
 21
29.4400
 31
0.0000
  0
LINE
  8
21
 10
52.7700
 20
29.5050
 30
0.0000
 11
51.3700
 21
29.5050
 31
0.0000
  0
LINE
  8
21
 10
51.3700
 20
26.3750
 30
0.0000
 11
52.7700
 21
26.3750
 31
0.0000
  0
LINE
  8
21
 10
51.3700
 20
27.3250
 30
0.0000
 11
51.3700
 21
26.3750
 31
0.0000
  0
LINE
  8
21
 10
51.3700
 20
29.5050
 30
0.0000
 11
51.3700
 21
28.5550
 31
0.0000
  0
LINE
  8
39
 10
53.9300
 20
26.4450
 30
0.0000
 11
53.9300
 21
27.5350
 31
0.0000
  0
LINE
  8
39
 10
53.9300
 20
27.5350
 30
0.0000
 11
53.0200
 21
27.5350
 31
0.0000
  0
LINE
  8
39
 10
53.0200
 20
27.5350
 30
0.0000
 11
53.0200
 21
28.3450
 31
0.0000
  0
LINE
  8
39
 10
53.0200
 20
28.3450
 30
0.0000
 11
53.9300
 21
28.3450
 31
0.0000
  0
LINE
  8
39
 10
53.9300
 20
28.3450
 30
0.0000
 11
53.9300
 21
29.4350
 31
0.0000
  0
LINE
  8
39
 10
53.9300
 20
29.4350
 30
0.0000
 11
53.0200
 21
29.4350
 31
0.0000
  0
LINE
  8
39
 10
53.0200
 20
29.4350
 30
0.0000
 11
53.0200
 21
29.6900
 31
0.0000
  0
LINE
  8
39
 10
53.0200
 20
29.6900
 30
0.0000
 11
51.1200
 21
29.6900
 31
0.0000
  0
LINE
  8
39
 10
51.1200
 20
29.6900
 30
0.0000
 11
51.1200
 21
28.4850
 31
0.0000
  0
LINE
  8
39
 10
51.1200
 20
28.4850
 30
0.0000
 11
50.2100
 21
28.4850
 31
0.0000
  0
LINE
  8
39
 10
50.2100
 20
28.4850
 30
0.0000
 11
50.2100
 21
27.3950
 31
0.0000
  0
LINE
  8
39
 10
50.2100
 20
27.3950
 30
0.0000
 11
51.1200
 21
27.3950
 31
0.0000
  0
LINE
  8
39
 10
51.1200
 20
27.3950
 30
0.0000
 11
51.1200
 21
26.1900
 31
0.0000
  0
LINE
  8
39
 10
51.1200
 20
26.1900
 30
0.0000
 11
53.0200
 21
26.1900
 31
0.0000
  0
LINE
  8
39
 10
53.0200
 20
26.1900
 30
0.0000
 11
53.0200
 21
26.4450
 31
0.0000
  0
LINE
  8
39
 10
53.0200
 20
26.4450
 30
0.0000
 11
53.9300
 21
26.4450
 31
0.0000
  0
CIRCLE
  8
51
 10
54.3200
 20
26.9400
 30
0.0000
 40
0.1000
  0
CIRCLE
  8
21
 10
54.3200
 20
26.9400
 30
0.0000
 40
0.1000
  0
ENDSEC
  0
EOF
